%TF.GenerationSoftware,KiCad,Pcbnew,10.0.6*%
%TF.CreationDate,2026-10-08T12:00:34-05:00*%
%TF.ProjectId,Onboarding,4f6e626f-6172-4646-996e-672e6b696361,rev?*%
%TF.SameCoordinates,Original*%
%TF.FileFunction,Copper,L2,Bot*%
%TF.FilePolarity,Positive*%
%FSLAX46Y46*%
G04 Gerber Fmt 4.6, Leading zero omitted, Abs format (unit mm)*
G04 Created by KiCad (PCBNEW 10.0.6) date 2026-10-08 12:00:34*
%MOMM*%
%LPD*%
G01*
G04 APERTURE LIST*
G04 Aperture macros list*
%AMRoundRect*
0 Rectangle with rounded corners*
0 $1 Rounding radius*
0 $2 $3 $4 $5 $6 $7 $8 $9 X,Y pos of 4 corners*
0 Add a 4 corners polygon primitive as box body*
4,1,4,$2,$3,$4,$5,$6,$7,$8,$9,$2,$3,0*
0 Add four circle primitives for the rounded corners*
1,1,$1+$1,$2,$3*
1,1,$1+$1,$4,$5*
1,1,$1+$1,$6,$7*
1,1,$1+$1,$8,$9*
0 Add four rect primitives between the rounded corners*
20,1,$1+$1,$2,$3,$4,$5,0*
20,1,$1+$1,$4,$5,$6,$7,0*
20,1,$1+$1,$6,$7,$8,$9,0*
20,1,$1+$1,$8,$9,$2,$3,0*%
G04 Aperture macros list end*
%TA.AperFunction,ComponentPad*%
%ADD10RoundRect,0.250000X-0.550000X-0.550000X0.550000X-0.550000X0.550000X0.550000X-0.550000X0.550000X0*%
%TD*%
%TA.AperFunction,ComponentPad*%
%ADD11C,1.600000*%
%TD*%
%TA.AperFunction,ComponentPad*%
%ADD12RoundRect,0.760000X-1.140000X-1.140000X1.140000X-1.140000X1.140000X1.140000X-1.140000X1.140000X0*%
%TD*%
%TA.AperFunction,ComponentPad*%
%ADD13C,3.800000*%
%TD*%
%TA.AperFunction,ComponentPad*%
%ADD14C,1.400000*%
%TD*%
%TA.AperFunction,ComponentPad*%
%ADD15RoundRect,0.760000X1.140000X1.140000X-1.140000X1.140000X-1.140000X-1.140000X1.140000X-1.140000X0*%
%TD*%
%TA.AperFunction,ComponentPad*%
%ADD16C,4.000000*%
%TD*%
%TA.AperFunction,ViaPad*%
%ADD17C,0.800000*%
%TD*%
G04 APERTURE END LIST*
D10*
%TO.P,C3,1*%
%TO.N,VCC*%
X65000000Y-77250000D03*
D11*
%TO.P,C3,2*%
%TO.N,GND*%
X70000000Y-77250000D03*
%TD*%
D12*
%TO.P,J2,1,Pin_1_1*%
%TO.N,GND*%
X62500000Y-67000000D03*
D13*
%TO.P,J2,2,Pin_2_2*%
%TO.N,VCC*%
X67500000Y-67000000D03*
%TD*%
D14*
%TO.P,TP1,1,1_1*%
%TO.N,Net-(U2-I_{PK})*%
X87500000Y-61500000D03*
X89500000Y-61500000D03*
%TD*%
%TO.P,TP2,1,1_1*%
%TO.N,Net-(D1-A)*%
X67000000Y-61500000D03*
X69000000Y-61500000D03*
%TD*%
D15*
%TO.P,J1,1,Pin_1_1*%
%TO.N,GND*%
X93000000Y-67000000D03*
D16*
%TO.P,J1,2,Pin_2_2*%
%TO.N,+12V*%
X88000000Y-67000000D03*
%TD*%
D17*
%TO.N,GND*%
X65000000Y-64000000D03*
X82000000Y-81500000D03*
X89000000Y-77000000D03*
X74400000Y-73365000D03*
X79000000Y-79800000D03*
X64500000Y-82500000D03*
X71500000Y-77000000D03*
X94800000Y-76500000D03*
X64500000Y-56500000D03*
X90500000Y-81700000D03*
X75200000Y-77000000D03*
X89000000Y-56500000D03*
%TD*%
%TA.AperFunction,Conductor*%
%TO.N,GND*%
G36*
X95958691Y-50519407D02*
G01*
X95994655Y-50568907D01*
X95999500Y-50599500D01*
X95999500Y-82900500D01*
X95980593Y-82958691D01*
X95931093Y-82994655D01*
X95900500Y-82999500D01*
X59099500Y-82999500D01*
X59041309Y-82980593D01*
X59005345Y-82931093D01*
X59000500Y-82900500D01*
X59000500Y-80393709D01*
X59949500Y-80393709D01*
X59949500Y-80606290D01*
X59982752Y-80816238D01*
X60048443Y-81018412D01*
X60144948Y-81207815D01*
X60144950Y-81207819D01*
X60269891Y-81379786D01*
X60269893Y-81379788D01*
X60269896Y-81379792D01*
X60420208Y-81530104D01*
X60420211Y-81530106D01*
X60420213Y-81530108D01*
X60592180Y-81655049D01*
X60592184Y-81655051D01*
X60781588Y-81751557D01*
X60983757Y-81817246D01*
X60983758Y-81817246D01*
X60983761Y-81817247D01*
X61193710Y-81850500D01*
X61193713Y-81850500D01*
X61406290Y-81850500D01*
X61616238Y-81817247D01*
X61616239Y-81817246D01*
X61616243Y-81817246D01*
X61818412Y-81751557D01*
X62007816Y-81655051D01*
X62179792Y-81530104D01*
X62330104Y-81379792D01*
X62455051Y-81207816D01*
X62551557Y-81018412D01*
X62617246Y-80816243D01*
X62650500Y-80606287D01*
X62650500Y-80393713D01*
X62650500Y-80393709D01*
X92149500Y-80393709D01*
X92149500Y-80606290D01*
X92182752Y-80816238D01*
X92248443Y-81018412D01*
X92344948Y-81207815D01*
X92344950Y-81207819D01*
X92469891Y-81379786D01*
X92469893Y-81379788D01*
X92469896Y-81379792D01*
X92620208Y-81530104D01*
X92620211Y-81530106D01*
X92620213Y-81530108D01*
X92792180Y-81655049D01*
X92792184Y-81655051D01*
X92981588Y-81751557D01*
X93183757Y-81817246D01*
X93183758Y-81817246D01*
X93183761Y-81817247D01*
X93393710Y-81850500D01*
X93393713Y-81850500D01*
X93606290Y-81850500D01*
X93816238Y-81817247D01*
X93816239Y-81817246D01*
X93816243Y-81817246D01*
X94018412Y-81751557D01*
X94207816Y-81655051D01*
X94379792Y-81530104D01*
X94530104Y-81379792D01*
X94655051Y-81207816D01*
X94751557Y-81018412D01*
X94817246Y-80816243D01*
X94850500Y-80606287D01*
X94850500Y-80393713D01*
X94850500Y-80393709D01*
X94817247Y-80183761D01*
X94817246Y-80183757D01*
X94751557Y-79981588D01*
X94655051Y-79792184D01*
X94655049Y-79792180D01*
X94530108Y-79620213D01*
X94530106Y-79620211D01*
X94530104Y-79620208D01*
X94379792Y-79469896D01*
X94379788Y-79469893D01*
X94379786Y-79469891D01*
X94207819Y-79344950D01*
X94207815Y-79344948D01*
X94018412Y-79248443D01*
X93816238Y-79182752D01*
X93606290Y-79149500D01*
X93606287Y-79149500D01*
X93393713Y-79149500D01*
X93393710Y-79149500D01*
X93183761Y-79182752D01*
X92981587Y-79248443D01*
X92792184Y-79344948D01*
X92792180Y-79344950D01*
X92620213Y-79469891D01*
X92469891Y-79620213D01*
X92344950Y-79792180D01*
X92344948Y-79792184D01*
X92248443Y-79981587D01*
X92182752Y-80183761D01*
X92149500Y-80393709D01*
X62650500Y-80393709D01*
X62617247Y-80183761D01*
X62617246Y-80183757D01*
X62551557Y-79981588D01*
X62455051Y-79792184D01*
X62455049Y-79792180D01*
X62330108Y-79620213D01*
X62330106Y-79620211D01*
X62330104Y-79620208D01*
X62179792Y-79469896D01*
X62179788Y-79469893D01*
X62179786Y-79469891D01*
X62007819Y-79344950D01*
X62007815Y-79344948D01*
X61818412Y-79248443D01*
X61616238Y-79182752D01*
X61406290Y-79149500D01*
X61406287Y-79149500D01*
X61193713Y-79149500D01*
X61193710Y-79149500D01*
X60983761Y-79182752D01*
X60781587Y-79248443D01*
X60592184Y-79344948D01*
X60592180Y-79344950D01*
X60420213Y-79469891D01*
X60269891Y-79620213D01*
X60144950Y-79792180D01*
X60144948Y-79792184D01*
X60048443Y-79981587D01*
X59982752Y-80183761D01*
X59949500Y-80393709D01*
X59000500Y-80393709D01*
X59000500Y-76652129D01*
X63949500Y-76652129D01*
X63949500Y-77847866D01*
X63949501Y-77847870D01*
X63955908Y-77907480D01*
X63955909Y-77907485D01*
X64006202Y-78042329D01*
X64092450Y-78157541D01*
X64092454Y-78157546D01*
X64092457Y-78157548D01*
X64092458Y-78157549D01*
X64207670Y-78243797D01*
X64342511Y-78294089D01*
X64342512Y-78294089D01*
X64342517Y-78294091D01*
X64402127Y-78300500D01*
X65597872Y-78300499D01*
X65657483Y-78294091D01*
X65749824Y-78259650D01*
X65792329Y-78243797D01*
X65792329Y-78243796D01*
X65792331Y-78243796D01*
X65881634Y-78176944D01*
X69497319Y-78176944D01*
X69502638Y-78180498D01*
X69693727Y-78259650D01*
X69896581Y-78299999D01*
X69896586Y-78300000D01*
X70103414Y-78300000D01*
X70103418Y-78299999D01*
X70306272Y-78259650D01*
X70497357Y-78180499D01*
X70497359Y-78180498D01*
X70502678Y-78176943D01*
X69999999Y-77674264D01*
X69497319Y-78176944D01*
X65881634Y-78176944D01*
X65907546Y-78157546D01*
X65993796Y-78042331D01*
X66044091Y-77907483D01*
X66050500Y-77847873D01*
X66050499Y-77146581D01*
X68950000Y-77146581D01*
X68950000Y-77353418D01*
X68990349Y-77556272D01*
X69069501Y-77747359D01*
X69069503Y-77747363D01*
X69073054Y-77752678D01*
X69575734Y-77249999D01*
X69523074Y-77197339D01*
X69600000Y-77197339D01*
X69600000Y-77302661D01*
X69627259Y-77404394D01*
X69679920Y-77495606D01*
X69754394Y-77570080D01*
X69845606Y-77622741D01*
X69947339Y-77650000D01*
X70052661Y-77650000D01*
X70154394Y-77622741D01*
X70245606Y-77570080D01*
X70320080Y-77495606D01*
X70372741Y-77404394D01*
X70400000Y-77302661D01*
X70400000Y-77249999D01*
X70424264Y-77249999D01*
X70926943Y-77752678D01*
X70930498Y-77747359D01*
X70930499Y-77747357D01*
X71009650Y-77556272D01*
X71049999Y-77353418D01*
X71050000Y-77353413D01*
X71050000Y-77146586D01*
X71049999Y-77146581D01*
X71009650Y-76943727D01*
X70930498Y-76752638D01*
X70926944Y-76747319D01*
X70424264Y-77249999D01*
X70400000Y-77249999D01*
X70400000Y-77197339D01*
X70372741Y-77095606D01*
X70320080Y-77004394D01*
X70245606Y-76929920D01*
X70154394Y-76877259D01*
X70052661Y-76850000D01*
X69947339Y-76850000D01*
X69845606Y-76877259D01*
X69754394Y-76929920D01*
X69679920Y-77004394D01*
X69627259Y-77095606D01*
X69600000Y-77197339D01*
X69523074Y-77197339D01*
X69073054Y-76747319D01*
X69069502Y-76752637D01*
X68990349Y-76943727D01*
X68950000Y-77146581D01*
X66050499Y-77146581D01*
X66050499Y-76652128D01*
X66044091Y-76592517D01*
X66044089Y-76592511D01*
X65993797Y-76457670D01*
X65965054Y-76419275D01*
X65907549Y-76342458D01*
X65907548Y-76342457D01*
X65907546Y-76342454D01*
X65881631Y-76323054D01*
X69497319Y-76323054D01*
X69999999Y-76825734D01*
X70502679Y-76323054D01*
X70497363Y-76319503D01*
X70497359Y-76319501D01*
X70306272Y-76240349D01*
X70103418Y-76200000D01*
X69896581Y-76200000D01*
X69693727Y-76240349D01*
X69502637Y-76319502D01*
X69497319Y-76323054D01*
X65881631Y-76323054D01*
X65792329Y-76256202D01*
X65657488Y-76205910D01*
X65657483Y-76205909D01*
X65657481Y-76205908D01*
X65657477Y-76205908D01*
X65626249Y-76202550D01*
X65597873Y-76199500D01*
X65597870Y-76199500D01*
X64402133Y-76199500D01*
X64402129Y-76199500D01*
X64402128Y-76199501D01*
X64397486Y-76200000D01*
X64342519Y-76205908D01*
X64342514Y-76205909D01*
X64207670Y-76256202D01*
X64092458Y-76342450D01*
X64092450Y-76342458D01*
X64006202Y-76457670D01*
X63955910Y-76592511D01*
X63955908Y-76592522D01*
X63949500Y-76652129D01*
X59000500Y-76652129D01*
X59000500Y-65810383D01*
X60350000Y-65810383D01*
X60350000Y-66699999D01*
X60350001Y-66700000D01*
X61180688Y-66700000D01*
X61150000Y-66893753D01*
X61150000Y-67106247D01*
X61180688Y-67300000D01*
X60350001Y-67300000D01*
X60350000Y-67300001D01*
X60350000Y-68189616D01*
X60364612Y-68337989D01*
X60364613Y-68337992D01*
X60422368Y-68528383D01*
X60422369Y-68528385D01*
X60516150Y-68703838D01*
X60516151Y-68703840D01*
X60642363Y-68857628D01*
X60642371Y-68857636D01*
X60796159Y-68983848D01*
X60796161Y-68983849D01*
X60971614Y-69077630D01*
X60971616Y-69077631D01*
X61162007Y-69135386D01*
X61162010Y-69135387D01*
X61310383Y-69150000D01*
X62199999Y-69150000D01*
X62200000Y-69149999D01*
X62200000Y-68319312D01*
X62393753Y-68350000D01*
X62606247Y-68350000D01*
X62800000Y-68319312D01*
X62800000Y-69149999D01*
X62800001Y-69150000D01*
X63689617Y-69150000D01*
X63837989Y-69135387D01*
X63837992Y-69135386D01*
X64028383Y-69077631D01*
X64028385Y-69077630D01*
X64203838Y-68983849D01*
X64203840Y-68983848D01*
X64357628Y-68857636D01*
X64357636Y-68857628D01*
X64483848Y-68703840D01*
X64483849Y-68703838D01*
X64577630Y-68528385D01*
X64577631Y-68528383D01*
X64635386Y-68337992D01*
X64635387Y-68337989D01*
X64650000Y-68189616D01*
X64650000Y-67300001D01*
X64649999Y-67300000D01*
X63819312Y-67300000D01*
X63850000Y-67106247D01*
X63850000Y-66893753D01*
X63844503Y-66859048D01*
X65349500Y-66859048D01*
X65349500Y-67140951D01*
X65386295Y-67420434D01*
X65386295Y-67420439D01*
X65459256Y-67692731D01*
X65459260Y-67692744D01*
X65567133Y-67953175D01*
X65567135Y-67953179D01*
X65567137Y-67953183D01*
X65592723Y-67997499D01*
X65708090Y-68197320D01*
X65879694Y-68420958D01*
X65879696Y-68420960D01*
X65879700Y-68420965D01*
X66079035Y-68620300D01*
X66079039Y-68620303D01*
X66079041Y-68620305D01*
X66177227Y-68695646D01*
X66302683Y-68791912D01*
X66546817Y-68932863D01*
X66807261Y-69040742D01*
X67079558Y-69113704D01*
X67359049Y-69150500D01*
X67359050Y-69150500D01*
X67640950Y-69150500D01*
X67640951Y-69150500D01*
X67920442Y-69113704D01*
X68192739Y-69040742D01*
X68453183Y-68932863D01*
X68697317Y-68791912D01*
X68920965Y-68620300D01*
X69120300Y-68420965D01*
X69291912Y-68197317D01*
X69432863Y-67953183D01*
X69540742Y-67692739D01*
X69613704Y-67420442D01*
X69650500Y-67140951D01*
X69650500Y-66859049D01*
X69649637Y-66852493D01*
X85749500Y-66852493D01*
X85749500Y-67147506D01*
X85769576Y-67300001D01*
X85788007Y-67439993D01*
X85808968Y-67518220D01*
X85864361Y-67724953D01*
X85977253Y-67997499D01*
X85977255Y-67997503D01*
X85977257Y-67997507D01*
X86067968Y-68154623D01*
X86124764Y-68252997D01*
X86304348Y-68487035D01*
X86304350Y-68487037D01*
X86304354Y-68487042D01*
X86512958Y-68695646D01*
X86512962Y-68695649D01*
X86512964Y-68695651D01*
X86638410Y-68791909D01*
X86747006Y-68875238D01*
X87002493Y-69022743D01*
X87275048Y-69135639D01*
X87560007Y-69211993D01*
X87852494Y-69250500D01*
X87852495Y-69250500D01*
X88147505Y-69250500D01*
X88147506Y-69250500D01*
X88439993Y-69211993D01*
X88724952Y-69135639D01*
X88997507Y-69022743D01*
X89252994Y-68875238D01*
X89487042Y-68695646D01*
X89695646Y-68487042D01*
X89875238Y-68252994D01*
X90022743Y-67997507D01*
X90135639Y-67724952D01*
X90211993Y-67439993D01*
X90229167Y-67309537D01*
X90237524Y-67246071D01*
X90241942Y-67212507D01*
X90250500Y-67147506D01*
X90250500Y-66852494D01*
X90211993Y-66560007D01*
X90135639Y-66275048D01*
X90022743Y-66002493D01*
X89911829Y-65810383D01*
X90850000Y-65810383D01*
X90850000Y-66699999D01*
X90850001Y-66700000D01*
X91680688Y-66700000D01*
X91650000Y-66893753D01*
X91650000Y-67106247D01*
X91680688Y-67300000D01*
X90850001Y-67300000D01*
X90850000Y-67300001D01*
X90850000Y-68189616D01*
X90864612Y-68337989D01*
X90864613Y-68337992D01*
X90922368Y-68528383D01*
X90922369Y-68528385D01*
X91016150Y-68703838D01*
X91016151Y-68703840D01*
X91142363Y-68857628D01*
X91142371Y-68857636D01*
X91296159Y-68983848D01*
X91296161Y-68983849D01*
X91471614Y-69077630D01*
X91471616Y-69077631D01*
X91662007Y-69135386D01*
X91662010Y-69135387D01*
X91810383Y-69150000D01*
X92699999Y-69150000D01*
X92700000Y-69149999D01*
X92700000Y-68319312D01*
X92893753Y-68350000D01*
X93106247Y-68350000D01*
X93300000Y-68319312D01*
X93300000Y-69149999D01*
X93300001Y-69150000D01*
X94189617Y-69150000D01*
X94337989Y-69135387D01*
X94337992Y-69135386D01*
X94528383Y-69077631D01*
X94528385Y-69077630D01*
X94703838Y-68983849D01*
X94703840Y-68983848D01*
X94857628Y-68857636D01*
X94857636Y-68857628D01*
X94983848Y-68703840D01*
X94983849Y-68703838D01*
X95077630Y-68528385D01*
X95077631Y-68528383D01*
X95135386Y-68337992D01*
X95135387Y-68337989D01*
X95150000Y-68189616D01*
X95150000Y-67300001D01*
X95149999Y-67300000D01*
X94319312Y-67300000D01*
X94350000Y-67106247D01*
X94350000Y-66893753D01*
X94319312Y-66700000D01*
X95149999Y-66700000D01*
X95150000Y-66699999D01*
X95150000Y-65810383D01*
X95135387Y-65662010D01*
X95135386Y-65662007D01*
X95077631Y-65471616D01*
X95077630Y-65471614D01*
X94983849Y-65296161D01*
X94983848Y-65296159D01*
X94857636Y-65142371D01*
X94857628Y-65142363D01*
X94703840Y-65016151D01*
X94703838Y-65016150D01*
X94528385Y-64922369D01*
X94528383Y-64922368D01*
X94337992Y-64864613D01*
X94337989Y-64864612D01*
X94189617Y-64850000D01*
X93300001Y-64850000D01*
X93300000Y-64850001D01*
X93300000Y-65680687D01*
X93106247Y-65650000D01*
X92893753Y-65650000D01*
X92700000Y-65680687D01*
X92700000Y-64850001D01*
X92699999Y-64850000D01*
X91810383Y-64850000D01*
X91662010Y-64864612D01*
X91662007Y-64864613D01*
X91471616Y-64922368D01*
X91471614Y-64922369D01*
X91296161Y-65016150D01*
X91296159Y-65016151D01*
X91142371Y-65142363D01*
X91142363Y-65142371D01*
X91016151Y-65296159D01*
X91016150Y-65296161D01*
X90922369Y-65471614D01*
X90922368Y-65471616D01*
X90864613Y-65662007D01*
X90864612Y-65662010D01*
X90850000Y-65810383D01*
X89911829Y-65810383D01*
X89875238Y-65747006D01*
X89810016Y-65662007D01*
X89695651Y-65512964D01*
X89695649Y-65512962D01*
X89695646Y-65512958D01*
X89487042Y-65304354D01*
X89487037Y-65304350D01*
X89487035Y-65304348D01*
X89252997Y-65124764D01*
X89153177Y-65067133D01*
X88997507Y-64977257D01*
X88997503Y-64977255D01*
X88997499Y-64977253D01*
X88724953Y-64864361D01*
X88658183Y-64846470D01*
X88439993Y-64788007D01*
X88439986Y-64788006D01*
X88147506Y-64749500D01*
X87852494Y-64749500D01*
X87852493Y-64749500D01*
X87560013Y-64788006D01*
X87560011Y-64788006D01*
X87560007Y-64788007D01*
X87408584Y-64828580D01*
X87275046Y-64864361D01*
X87002500Y-64977253D01*
X86747002Y-65124764D01*
X86512964Y-65304348D01*
X86304348Y-65512964D01*
X86124764Y-65747002D01*
X85977253Y-66002500D01*
X85864361Y-66275046D01*
X85828580Y-66408584D01*
X85788007Y-66560007D01*
X85788006Y-66560011D01*
X85788006Y-66560013D01*
X85749500Y-66852493D01*
X69649637Y-66852493D01*
X69613704Y-66579558D01*
X69540742Y-66307261D01*
X69432863Y-66046817D01*
X69291912Y-65802683D01*
X69200261Y-65683242D01*
X69120305Y-65579041D01*
X69120303Y-65579039D01*
X69120300Y-65579035D01*
X68920965Y-65379700D01*
X68920960Y-65379696D01*
X68920958Y-65379694D01*
X68697320Y-65208090D01*
X68697317Y-65208088D01*
X68453183Y-65067137D01*
X68453179Y-65067135D01*
X68453175Y-65067133D01*
X68192744Y-64959260D01*
X68192743Y-64959259D01*
X68192739Y-64959258D01*
X67920442Y-64886296D01*
X67920439Y-64886295D01*
X67920437Y-64886295D01*
X67640951Y-64849500D01*
X67359049Y-64849500D01*
X67359048Y-64849500D01*
X67079565Y-64886295D01*
X67079560Y-64886295D01*
X66807268Y-64959256D01*
X66807255Y-64959260D01*
X66546824Y-65067133D01*
X66302679Y-65208090D01*
X66079041Y-65379694D01*
X65879694Y-65579041D01*
X65708090Y-65802679D01*
X65567133Y-66046824D01*
X65459260Y-66307255D01*
X65459256Y-66307268D01*
X65386295Y-66579560D01*
X65386295Y-66579565D01*
X65349500Y-66859048D01*
X63844503Y-66859048D01*
X63819312Y-66700000D01*
X64649999Y-66700000D01*
X64650000Y-66699999D01*
X64650000Y-65810383D01*
X64635387Y-65662010D01*
X64635386Y-65662007D01*
X64577631Y-65471616D01*
X64577630Y-65471614D01*
X64483849Y-65296161D01*
X64483848Y-65296159D01*
X64357636Y-65142371D01*
X64357628Y-65142363D01*
X64203840Y-65016151D01*
X64203838Y-65016150D01*
X64028385Y-64922369D01*
X64028383Y-64922368D01*
X63837992Y-64864613D01*
X63837989Y-64864612D01*
X63689617Y-64850000D01*
X62800001Y-64850000D01*
X62800000Y-64850001D01*
X62800000Y-65680687D01*
X62606247Y-65650000D01*
X62393753Y-65650000D01*
X62200000Y-65680687D01*
X62200000Y-64850001D01*
X62199999Y-64850000D01*
X61310383Y-64850000D01*
X61162010Y-64864612D01*
X61162007Y-64864613D01*
X60971616Y-64922368D01*
X60971614Y-64922369D01*
X60796161Y-65016150D01*
X60796159Y-65016151D01*
X60642371Y-65142363D01*
X60642363Y-65142371D01*
X60516151Y-65296159D01*
X60516150Y-65296161D01*
X60422369Y-65471614D01*
X60422368Y-65471616D01*
X60364613Y-65662007D01*
X60364612Y-65662010D01*
X60350000Y-65810383D01*
X59000500Y-65810383D01*
X59000500Y-61406381D01*
X66049500Y-61406381D01*
X66049500Y-61593618D01*
X66086026Y-61777249D01*
X66157677Y-61950229D01*
X66157681Y-61950238D01*
X66232065Y-62061559D01*
X66261698Y-62105908D01*
X66394092Y-62238302D01*
X66460463Y-62282649D01*
X66549761Y-62342318D01*
X66549767Y-62342320D01*
X66549769Y-62342322D01*
X66722749Y-62413973D01*
X66906384Y-62450500D01*
X66906385Y-62450500D01*
X67093615Y-62450500D01*
X67093616Y-62450500D01*
X67277251Y-62413973D01*
X67450231Y-62342322D01*
X67450234Y-62342319D01*
X67450238Y-62342318D01*
X67495187Y-62312282D01*
X67605908Y-62238302D01*
X67738302Y-62105908D01*
X67812282Y-61995187D01*
X67842318Y-61950238D01*
X67842323Y-61950229D01*
X67908536Y-61790375D01*
X67948272Y-61743850D01*
X68007767Y-61729566D01*
X68064295Y-61752981D01*
X68091464Y-61790376D01*
X68157675Y-61950226D01*
X68157681Y-61950238D01*
X68232065Y-62061559D01*
X68261698Y-62105908D01*
X68394092Y-62238302D01*
X68460463Y-62282649D01*
X68549761Y-62342318D01*
X68549767Y-62342320D01*
X68549769Y-62342322D01*
X68722749Y-62413973D01*
X68906384Y-62450500D01*
X68906385Y-62450500D01*
X69093615Y-62450500D01*
X69093616Y-62450500D01*
X69277251Y-62413973D01*
X69450231Y-62342322D01*
X69450234Y-62342319D01*
X69450238Y-62342318D01*
X69495187Y-62312282D01*
X69605908Y-62238302D01*
X69738302Y-62105908D01*
X69812282Y-61995187D01*
X69842318Y-61950238D01*
X69842319Y-61950234D01*
X69842322Y-61950231D01*
X69913973Y-61777251D01*
X69950500Y-61593616D01*
X69950500Y-61406384D01*
X69950499Y-61406381D01*
X86549500Y-61406381D01*
X86549500Y-61593618D01*
X86586026Y-61777249D01*
X86657677Y-61950229D01*
X86657681Y-61950238D01*
X86732065Y-62061559D01*
X86761698Y-62105908D01*
X86894092Y-62238302D01*
X86960463Y-62282649D01*
X87049761Y-62342318D01*
X87049767Y-62342320D01*
X87049769Y-62342322D01*
X87222749Y-62413973D01*
X87406384Y-62450500D01*
X87406385Y-62450500D01*
X87593615Y-62450500D01*
X87593616Y-62450500D01*
X87777251Y-62413973D01*
X87950231Y-62342322D01*
X87950234Y-62342319D01*
X87950238Y-62342318D01*
X87995187Y-62312282D01*
X88105908Y-62238302D01*
X88238302Y-62105908D01*
X88312282Y-61995187D01*
X88342318Y-61950238D01*
X88342323Y-61950229D01*
X88408536Y-61790375D01*
X88448272Y-61743850D01*
X88507767Y-61729566D01*
X88564295Y-61752981D01*
X88591464Y-61790376D01*
X88657675Y-61950226D01*
X88657681Y-61950238D01*
X88732065Y-62061559D01*
X88761698Y-62105908D01*
X88894092Y-62238302D01*
X88960463Y-62282649D01*
X89049761Y-62342318D01*
X89049767Y-62342320D01*
X89049769Y-62342322D01*
X89222749Y-62413973D01*
X89406384Y-62450500D01*
X89406385Y-62450500D01*
X89593615Y-62450500D01*
X89593616Y-62450500D01*
X89777251Y-62413973D01*
X89950231Y-62342322D01*
X89950234Y-62342319D01*
X89950238Y-62342318D01*
X89995187Y-62312282D01*
X90105908Y-62238302D01*
X90238302Y-62105908D01*
X90312282Y-61995187D01*
X90342318Y-61950238D01*
X90342319Y-61950234D01*
X90342322Y-61950231D01*
X90413973Y-61777251D01*
X90450500Y-61593616D01*
X90450500Y-61406384D01*
X90413973Y-61222749D01*
X90342322Y-61049769D01*
X90342320Y-61049767D01*
X90342318Y-61049761D01*
X90282649Y-60960463D01*
X90238302Y-60894092D01*
X90105908Y-60761698D01*
X90061559Y-60732065D01*
X89950238Y-60657681D01*
X89950229Y-60657677D01*
X89777249Y-60586026D01*
X89593618Y-60549500D01*
X89593616Y-60549500D01*
X89406384Y-60549500D01*
X89406381Y-60549500D01*
X89222750Y-60586026D01*
X89049770Y-60657677D01*
X89049761Y-60657681D01*
X88894092Y-60761698D01*
X88894088Y-60761701D01*
X88761701Y-60894088D01*
X88761698Y-60894092D01*
X88657681Y-61049761D01*
X88657677Y-61049770D01*
X88591464Y-61209624D01*
X88551727Y-61256149D01*
X88492233Y-61270433D01*
X88435705Y-61247018D01*
X88408536Y-61209624D01*
X88342322Y-61049770D01*
X88342318Y-61049761D01*
X88282649Y-60960463D01*
X88238302Y-60894092D01*
X88105908Y-60761698D01*
X88061559Y-60732065D01*
X87950238Y-60657681D01*
X87950229Y-60657677D01*
X87777249Y-60586026D01*
X87593618Y-60549500D01*
X87593616Y-60549500D01*
X87406384Y-60549500D01*
X87406381Y-60549500D01*
X87222750Y-60586026D01*
X87049770Y-60657677D01*
X87049761Y-60657681D01*
X86894092Y-60761698D01*
X86894088Y-60761701D01*
X86761701Y-60894088D01*
X86761698Y-60894092D01*
X86657681Y-61049761D01*
X86657677Y-61049770D01*
X86586026Y-61222750D01*
X86549500Y-61406381D01*
X69950499Y-61406381D01*
X69913973Y-61222749D01*
X69842322Y-61049769D01*
X69842320Y-61049767D01*
X69842318Y-61049761D01*
X69782649Y-60960463D01*
X69738302Y-60894092D01*
X69605908Y-60761698D01*
X69561559Y-60732065D01*
X69450238Y-60657681D01*
X69450229Y-60657677D01*
X69277249Y-60586026D01*
X69093618Y-60549500D01*
X69093616Y-60549500D01*
X68906384Y-60549500D01*
X68906381Y-60549500D01*
X68722750Y-60586026D01*
X68549770Y-60657677D01*
X68549761Y-60657681D01*
X68394092Y-60761698D01*
X68394088Y-60761701D01*
X68261701Y-60894088D01*
X68261698Y-60894092D01*
X68157681Y-61049761D01*
X68157677Y-61049770D01*
X68091464Y-61209624D01*
X68051727Y-61256149D01*
X67992233Y-61270433D01*
X67935705Y-61247018D01*
X67908536Y-61209624D01*
X67842322Y-61049770D01*
X67842318Y-61049761D01*
X67782649Y-60960463D01*
X67738302Y-60894092D01*
X67605908Y-60761698D01*
X67561559Y-60732065D01*
X67450238Y-60657681D01*
X67450229Y-60657677D01*
X67277249Y-60586026D01*
X67093618Y-60549500D01*
X67093616Y-60549500D01*
X66906384Y-60549500D01*
X66906381Y-60549500D01*
X66722750Y-60586026D01*
X66549770Y-60657677D01*
X66549761Y-60657681D01*
X66394092Y-60761698D01*
X66394088Y-60761701D01*
X66261701Y-60894088D01*
X66261698Y-60894092D01*
X66157681Y-61049761D01*
X66157677Y-61049770D01*
X66086026Y-61222750D01*
X66049500Y-61406381D01*
X59000500Y-61406381D01*
X59000500Y-52993709D01*
X60149500Y-52993709D01*
X60149500Y-53206290D01*
X60182752Y-53416238D01*
X60248443Y-53618412D01*
X60344948Y-53807815D01*
X60344950Y-53807819D01*
X60469891Y-53979786D01*
X60469893Y-53979788D01*
X60469896Y-53979792D01*
X60620208Y-54130104D01*
X60620211Y-54130106D01*
X60620213Y-54130108D01*
X60792180Y-54255049D01*
X60792184Y-54255051D01*
X60981588Y-54351557D01*
X61183757Y-54417246D01*
X61183758Y-54417246D01*
X61183761Y-54417247D01*
X61393710Y-54450500D01*
X61393713Y-54450500D01*
X61606290Y-54450500D01*
X61816238Y-54417247D01*
X61816239Y-54417246D01*
X61816243Y-54417246D01*
X62018412Y-54351557D01*
X62207816Y-54255051D01*
X62379792Y-54130104D01*
X62530104Y-53979792D01*
X62655051Y-53807816D01*
X62751557Y-53618412D01*
X62817246Y-53416243D01*
X62850500Y-53206287D01*
X62850500Y-52993713D01*
X62850500Y-52993709D01*
X92149500Y-52993709D01*
X92149500Y-53206290D01*
X92182752Y-53416238D01*
X92248443Y-53618412D01*
X92344948Y-53807815D01*
X92344950Y-53807819D01*
X92469891Y-53979786D01*
X92469893Y-53979788D01*
X92469896Y-53979792D01*
X92620208Y-54130104D01*
X92620211Y-54130106D01*
X92620213Y-54130108D01*
X92792180Y-54255049D01*
X92792184Y-54255051D01*
X92981588Y-54351557D01*
X93183757Y-54417246D01*
X93183758Y-54417246D01*
X93183761Y-54417247D01*
X93393710Y-54450500D01*
X93393713Y-54450500D01*
X93606290Y-54450500D01*
X93816238Y-54417247D01*
X93816239Y-54417246D01*
X93816243Y-54417246D01*
X94018412Y-54351557D01*
X94207816Y-54255051D01*
X94379792Y-54130104D01*
X94530104Y-53979792D01*
X94655051Y-53807816D01*
X94751557Y-53618412D01*
X94817246Y-53416243D01*
X94850500Y-53206287D01*
X94850500Y-52993713D01*
X94850500Y-52993709D01*
X94817247Y-52783761D01*
X94817246Y-52783757D01*
X94751557Y-52581588D01*
X94655051Y-52392184D01*
X94655049Y-52392180D01*
X94530108Y-52220213D01*
X94530106Y-52220211D01*
X94530104Y-52220208D01*
X94379792Y-52069896D01*
X94379788Y-52069893D01*
X94379786Y-52069891D01*
X94207819Y-51944950D01*
X94207815Y-51944948D01*
X94018412Y-51848443D01*
X93816238Y-51782752D01*
X93606290Y-51749500D01*
X93606287Y-51749500D01*
X93393713Y-51749500D01*
X93393710Y-51749500D01*
X93183761Y-51782752D01*
X92981587Y-51848443D01*
X92792184Y-51944948D01*
X92792180Y-51944950D01*
X92620213Y-52069891D01*
X92469891Y-52220213D01*
X92344950Y-52392180D01*
X92344948Y-52392184D01*
X92248443Y-52581587D01*
X92182752Y-52783761D01*
X92149500Y-52993709D01*
X62850500Y-52993709D01*
X62817247Y-52783761D01*
X62817246Y-52783757D01*
X62751557Y-52581588D01*
X62655051Y-52392184D01*
X62655049Y-52392180D01*
X62530108Y-52220213D01*
X62530106Y-52220211D01*
X62530104Y-52220208D01*
X62379792Y-52069896D01*
X62379788Y-52069893D01*
X62379786Y-52069891D01*
X62207819Y-51944950D01*
X62207815Y-51944948D01*
X62018412Y-51848443D01*
X61816238Y-51782752D01*
X61606290Y-51749500D01*
X61606287Y-51749500D01*
X61393713Y-51749500D01*
X61393710Y-51749500D01*
X61183761Y-51782752D01*
X60981587Y-51848443D01*
X60792184Y-51944948D01*
X60792180Y-51944950D01*
X60620213Y-52069891D01*
X60469891Y-52220213D01*
X60344950Y-52392180D01*
X60344948Y-52392184D01*
X60248443Y-52581587D01*
X60182752Y-52783761D01*
X60149500Y-52993709D01*
X59000500Y-52993709D01*
X59000500Y-50599500D01*
X59019407Y-50541309D01*
X59068907Y-50505345D01*
X59099500Y-50500500D01*
X95900500Y-50500500D01*
X95958691Y-50519407D01*
G37*
%TD.AperFunction*%
%TD*%
M02*
