%TF.GenerationSoftware,KiCad,Pcbnew,10.0.6*%
%TF.CreationDate,2026-10-08T12:00:34-05:00*%
%TF.ProjectId,Onboarding,4f6e626f-6172-4646-996e-672e6b696361,rev?*%
%TF.SameCoordinates,Original*%
%TF.FileFunction,Soldermask,Top*%
%TF.FilePolarity,Negative*%
%FSLAX46Y46*%
G04 Gerber Fmt 4.6, Leading zero omitted, Abs format (unit mm)*
G04 Created by KiCad (PCBNEW 10.0.6) date 2026-10-08 12:00:34*
%MOMM*%
%LPD*%
G01*
G04 APERTURE LIST*
G04 Aperture macros list*
%AMRoundRect*
0 Rectangle with rounded corners*
0 $1 Rounding radius*
0 $2 $3 $4 $5 $6 $7 $8 $9 X,Y pos of 4 corners*
0 Add a 4 corners polygon primitive as box body*
4,1,4,$2,$3,$4,$5,$6,$7,$8,$9,$2,$3,0*
0 Add four circle primitives for the rounded corners*
1,1,$1+$1,$2,$3*
1,1,$1+$1,$4,$5*
1,1,$1+$1,$6,$7*
1,1,$1+$1,$8,$9*
0 Add four rect primitives between the rounded corners*
20,1,$1+$1,$2,$3,$4,$5,0*
20,1,$1+$1,$4,$5,$6,$7,0*
20,1,$1+$1,$6,$7,$8,$9,0*
20,1,$1+$1,$8,$9,$2,$3,0*%
G04 Aperture macros list end*
%ADD10RoundRect,0.250000X-0.550000X-0.550000X0.550000X-0.550000X0.550000X0.550000X-0.550000X0.550000X0*%
%ADD11C,1.600000*%
%ADD12RoundRect,0.760000X-1.140000X-1.140000X1.140000X-1.140000X1.140000X1.140000X-1.140000X1.140000X0*%
%ADD13C,3.800000*%
%ADD14RoundRect,0.250000X-0.475000X0.250000X-0.475000X-0.250000X0.475000X-0.250000X0.475000X0.250000X0*%
%ADD15RoundRect,0.250000X0.350000X0.450000X-0.350000X0.450000X-0.350000X-0.450000X0.350000X-0.450000X0*%
%ADD16C,1.400000*%
%ADD17RoundRect,0.150000X0.700000X-0.150000X0.700000X0.150000X-0.700000X0.150000X-0.700000X-0.150000X0*%
%ADD18RoundRect,0.250000X1.150000X-0.250000X1.150000X0.250000X-1.150000X0.250000X-1.150000X-0.250000X0*%
%ADD19R,2.900000X5.400000*%
%ADD20RoundRect,0.237500X0.250000X0.237500X-0.250000X0.237500X-0.250000X-0.237500X0.250000X-0.237500X0*%
%ADD21RoundRect,0.237500X-0.237500X0.250000X-0.237500X-0.250000X0.237500X-0.250000X0.237500X0.250000X0*%
%ADD22RoundRect,0.237500X-0.237500X0.300000X-0.237500X-0.300000X0.237500X-0.300000X0.237500X0.300000X0*%
%ADD23RoundRect,0.250000X-0.300000X-0.300000X0.300000X-0.300000X0.300000X0.300000X-0.300000X0.300000X0*%
%ADD24RoundRect,0.760000X1.140000X1.140000X-1.140000X1.140000X-1.140000X-1.140000X1.140000X-1.140000X0*%
%ADD25C,4.000000*%
%ADD26RoundRect,0.150000X-0.825000X-0.150000X0.825000X-0.150000X0.825000X0.150000X-0.825000X0.150000X0*%
G04 APERTURE END LIST*
D10*
%TO.C,C3*%
X65000000Y-77250000D03*
D11*
X70000000Y-77250000D03*
%TD*%
D12*
%TO.C,J2*%
X62500000Y-67000000D03*
D13*
X67500000Y-67000000D03*
%TD*%
D14*
%TO.C,C1*%
X89000000Y-74050000D03*
X89000000Y-75950000D03*
%TD*%
D15*
%TO.C,R2*%
X85000000Y-72200000D03*
X83000000Y-72200000D03*
%TD*%
D16*
%TO.C,TP1*%
X87500000Y-61500000D03*
X89500000Y-61500000D03*
%TD*%
D17*
%TO.C,J3*%
X71950000Y-54425000D03*
X71950000Y-53175000D03*
D18*
X68600000Y-56275000D03*
X68600000Y-51325000D03*
%TD*%
D19*
%TO.C,L2*%
X82950000Y-64500000D03*
X73050000Y-64500000D03*
%TD*%
D20*
%TO.C,R3*%
X74312500Y-78500000D03*
X72487500Y-78500000D03*
%TD*%
D21*
%TO.C,R1*%
X85000000Y-74087500D03*
X85000000Y-75912500D03*
%TD*%
D16*
%TO.C,TP2*%
X67000000Y-61500000D03*
X69000000Y-61500000D03*
%TD*%
D22*
%TO.C,C2*%
X73000000Y-75137500D03*
X73000000Y-76862500D03*
%TD*%
D23*
%TO.C,D1*%
X70600000Y-72095000D03*
X73400000Y-72095000D03*
%TD*%
D17*
%TO.C,J4*%
X83950000Y-54425000D03*
X83950000Y-53175000D03*
D18*
X80600000Y-56275000D03*
X80600000Y-51325000D03*
%TD*%
D20*
%TO.C,R4*%
X77912500Y-78500000D03*
X76087500Y-78500000D03*
%TD*%
D24*
%TO.C,J1*%
X93000000Y-67000000D03*
D25*
X88000000Y-67000000D03*
%TD*%
D26*
%TO.C,U2*%
X75525000Y-72095000D03*
X75525000Y-73365000D03*
X75525000Y-74635000D03*
X75525000Y-75905000D03*
X80475000Y-75905000D03*
X80475000Y-74635000D03*
X80475000Y-73365000D03*
X80475000Y-72095000D03*
%TD*%
M02*
