%TF.GenerationSoftware,KiCad,Pcbnew,10.0.6*%
%TF.CreationDate,2026-10-08T12:00:34-05:00*%
%TF.ProjectId,Onboarding,4f6e626f-6172-4646-996e-672e6b696361,rev?*%
%TF.SameCoordinates,Original*%
%TF.FileFunction,Copper,L1,Top*%
%TF.FilePolarity,Positive*%
%FSLAX46Y46*%
G04 Gerber Fmt 4.6, Leading zero omitted, Abs format (unit mm)*
G04 Created by KiCad (PCBNEW 10.0.6) date 2026-10-08 12:00:34*
%MOMM*%
%LPD*%
G01*
G04 APERTURE LIST*
G04 Aperture macros list*
%AMRoundRect*
0 Rectangle with rounded corners*
0 $1 Rounding radius*
0 $2 $3 $4 $5 $6 $7 $8 $9 X,Y pos of 4 corners*
0 Add a 4 corners polygon primitive as box body*
4,1,4,$2,$3,$4,$5,$6,$7,$8,$9,$2,$3,0*
0 Add four circle primitives for the rounded corners*
1,1,$1+$1,$2,$3*
1,1,$1+$1,$4,$5*
1,1,$1+$1,$6,$7*
1,1,$1+$1,$8,$9*
0 Add four rect primitives between the rounded corners*
20,1,$1+$1,$2,$3,$4,$5,0*
20,1,$1+$1,$4,$5,$6,$7,0*
20,1,$1+$1,$6,$7,$8,$9,0*
20,1,$1+$1,$8,$9,$2,$3,0*%
G04 Aperture macros list end*
%TA.AperFunction,ComponentPad*%
%ADD10RoundRect,0.250000X-0.550000X-0.550000X0.550000X-0.550000X0.550000X0.550000X-0.550000X0.550000X0*%
%TD*%
%TA.AperFunction,ComponentPad*%
%ADD11C,1.600000*%
%TD*%
%TA.AperFunction,ComponentPad*%
%ADD12RoundRect,0.760000X-1.140000X-1.140000X1.140000X-1.140000X1.140000X1.140000X-1.140000X1.140000X0*%
%TD*%
%TA.AperFunction,ComponentPad*%
%ADD13C,3.800000*%
%TD*%
%TA.AperFunction,SMDPad,CuDef*%
%ADD14RoundRect,0.250000X-0.475000X0.250000X-0.475000X-0.250000X0.475000X-0.250000X0.475000X0.250000X0*%
%TD*%
%TA.AperFunction,SMDPad,CuDef*%
%ADD15RoundRect,0.250000X0.350000X0.450000X-0.350000X0.450000X-0.350000X-0.450000X0.350000X-0.450000X0*%
%TD*%
%TA.AperFunction,ComponentPad*%
%ADD16C,1.400000*%
%TD*%
%TA.AperFunction,SMDPad,CuDef*%
%ADD17RoundRect,0.150000X0.700000X-0.150000X0.700000X0.150000X-0.700000X0.150000X-0.700000X-0.150000X0*%
%TD*%
%TA.AperFunction,SMDPad,CuDef*%
%ADD18RoundRect,0.250000X1.150000X-0.250000X1.150000X0.250000X-1.150000X0.250000X-1.150000X-0.250000X0*%
%TD*%
%TA.AperFunction,SMDPad,CuDef*%
%ADD19R,2.900000X5.400000*%
%TD*%
%TA.AperFunction,SMDPad,CuDef*%
%ADD20RoundRect,0.237500X0.250000X0.237500X-0.250000X0.237500X-0.250000X-0.237500X0.250000X-0.237500X0*%
%TD*%
%TA.AperFunction,SMDPad,CuDef*%
%ADD21RoundRect,0.237500X-0.237500X0.250000X-0.237500X-0.250000X0.237500X-0.250000X0.237500X0.250000X0*%
%TD*%
%TA.AperFunction,SMDPad,CuDef*%
%ADD22RoundRect,0.237500X-0.237500X0.300000X-0.237500X-0.300000X0.237500X-0.300000X0.237500X0.300000X0*%
%TD*%
%TA.AperFunction,SMDPad,CuDef*%
%ADD23RoundRect,0.250000X-0.300000X-0.300000X0.300000X-0.300000X0.300000X0.300000X-0.300000X0.300000X0*%
%TD*%
%TA.AperFunction,ComponentPad*%
%ADD24RoundRect,0.760000X1.140000X1.140000X-1.140000X1.140000X-1.140000X-1.140000X1.140000X-1.140000X0*%
%TD*%
%TA.AperFunction,ComponentPad*%
%ADD25C,4.000000*%
%TD*%
%TA.AperFunction,SMDPad,CuDef*%
%ADD26RoundRect,0.150000X-0.825000X-0.150000X0.825000X-0.150000X0.825000X0.150000X-0.825000X0.150000X0*%
%TD*%
%TA.AperFunction,ViaPad*%
%ADD27C,0.800000*%
%TD*%
%TA.AperFunction,Conductor*%
%ADD28C,0.300000*%
%TD*%
%TA.AperFunction,Conductor*%
%ADD29C,0.900000*%
%TD*%
%TA.AperFunction,Conductor*%
%ADD30C,1.000000*%
%TD*%
%TA.AperFunction,Conductor*%
%ADD31C,0.350000*%
%TD*%
%TA.AperFunction,Conductor*%
%ADD32C,0.600000*%
%TD*%
%TA.AperFunction,Conductor*%
%ADD33C,0.700000*%
%TD*%
%TA.AperFunction,Conductor*%
%ADD34C,0.800000*%
%TD*%
%TA.AperFunction,Conductor*%
%ADD35C,0.500000*%
%TD*%
%TA.AperFunction,Conductor*%
%ADD36C,0.200000*%
%TD*%
%TA.AperFunction,Conductor*%
%ADD37C,0.650000*%
%TD*%
%TA.AperFunction,Conductor*%
%ADD38C,0.250000*%
%TD*%
G04 APERTURE END LIST*
D10*
%TO.P,C3,1*%
%TO.N,VCC*%
X65000000Y-77250000D03*
D11*
%TO.P,C3,2*%
%TO.N,GND*%
X70000000Y-77250000D03*
%TD*%
D12*
%TO.P,J2,1,Pin_1_1*%
%TO.N,GND*%
X62500000Y-67000000D03*
D13*
%TO.P,J2,2,Pin_2_2*%
%TO.N,VCC*%
X67500000Y-67000000D03*
%TD*%
D14*
%TO.P,C1,1*%
%TO.N,+12V*%
X89000000Y-74050000D03*
%TO.P,C1,2*%
%TO.N,GND*%
X89000000Y-75950000D03*
%TD*%
D15*
%TO.P,R2,1*%
%TO.N,Net-(U2-I_{PK})*%
X85000000Y-72200000D03*
%TO.P,R2,2*%
%TO.N,Net-(U2-DC)*%
X83000000Y-72200000D03*
%TD*%
D16*
%TO.P,TP1,1,1_1*%
%TO.N,Net-(U2-I_{PK})*%
X87500000Y-61500000D03*
X89500000Y-61500000D03*
%TD*%
D17*
%TO.P,J3,1,Pin_1_1*%
%TO.N,/CAN-*%
X71950000Y-54425000D03*
%TO.P,J3,2,Pin_2_2*%
%TO.N,/CAN+*%
X71950000Y-53175000D03*
D18*
%TO.P,J3,MP*%
%TO.N,N/C*%
X68600000Y-56275000D03*
X68600000Y-51325000D03*
%TD*%
D19*
%TO.P,L2,1*%
%TO.N,Net-(U2-I_{PK})*%
X82950000Y-64500000D03*
%TO.P,L2,2*%
%TO.N,Net-(D1-A)*%
X73050000Y-64500000D03*
%TD*%
D20*
%TO.P,R3,1*%
%TO.N,Net-(U2-COMP-)*%
X74312500Y-78500000D03*
%TO.P,R3,2*%
%TO.N,VCC*%
X72487500Y-78500000D03*
%TD*%
D21*
%TO.P,R1,1*%
%TO.N,Net-(U2-I_{PK})*%
X85000000Y-74087500D03*
%TO.P,R1,2*%
%TO.N,+12V*%
X85000000Y-75912500D03*
%TD*%
D16*
%TO.P,TP2,1,1_1*%
%TO.N,Net-(D1-A)*%
X67000000Y-61500000D03*
X69000000Y-61500000D03*
%TD*%
D22*
%TO.P,C2,1*%
%TO.N,Net-(U2-CT)*%
X73000000Y-75137500D03*
%TO.P,C2,2*%
%TO.N,GND*%
X73000000Y-76862500D03*
%TD*%
D23*
%TO.P,D1,1,K_1*%
%TO.N,VCC*%
X70600000Y-72095000D03*
%TO.P,D1,2,A_2*%
%TO.N,Net-(D1-A)*%
X73400000Y-72095000D03*
%TD*%
D17*
%TO.P,J4,1,Pin_1_1*%
%TO.N,/CAN-*%
X83950000Y-54425000D03*
%TO.P,J4,2,Pin_2_2*%
%TO.N,/CAN+*%
X83950000Y-53175000D03*
D18*
%TO.P,J4,MP*%
%TO.N,N/C*%
X80600000Y-56275000D03*
X80600000Y-51325000D03*
%TD*%
D20*
%TO.P,R4,1*%
%TO.N,GND*%
X77912500Y-78500000D03*
%TO.P,R4,2*%
%TO.N,Net-(U2-COMP-)*%
X76087500Y-78500000D03*
%TD*%
D24*
%TO.P,J1,1,Pin_1_1*%
%TO.N,GND*%
X93000000Y-67000000D03*
D25*
%TO.P,J1,2,Pin_2_2*%
%TO.N,+12V*%
X88000000Y-67000000D03*
%TD*%
D26*
%TO.P,U2,1,SC_1*%
%TO.N,Net-(D1-A)*%
X75525000Y-72095000D03*
%TO.P,U2,2,SE_2*%
%TO.N,GND*%
X75525000Y-73365000D03*
%TO.P,U2,3,CT_3*%
%TO.N,Net-(U2-CT)*%
X75525000Y-74635000D03*
%TO.P,U2,4,GND_4*%
%TO.N,GND*%
X75525000Y-75905000D03*
%TO.P,U2,5,COMP-_5*%
%TO.N,Net-(U2-COMP-)*%
X80475000Y-75905000D03*
%TO.P,U2,6,VCC_6*%
%TO.N,+12V*%
X80475000Y-74635000D03*
%TO.P,U2,7,I_{PK}_7*%
%TO.N,Net-(U2-I_{PK})*%
X80475000Y-73365000D03*
%TO.P,U2,8,DC_8*%
%TO.N,Net-(U2-DC)*%
X80475000Y-72095000D03*
%TD*%
D27*
%TO.N,GND*%
X65000000Y-64000000D03*
X82000000Y-81500000D03*
X89000000Y-77000000D03*
X74400000Y-73365000D03*
X79000000Y-79800000D03*
X64500000Y-82500000D03*
X71500000Y-77000000D03*
X94800000Y-76500000D03*
X64500000Y-56500000D03*
X90500000Y-81700000D03*
X75200000Y-77000000D03*
X89000000Y-56500000D03*
%TD*%
%TO.N,VCC*%
D28*
X65000000Y-77250000D02*
X65000000Y-81500000D01*
X65000000Y-81500000D02*
X72487500Y-81500000D01*
D29*
X70600000Y-72095000D02*
X67500000Y-72095000D01*
D30*
X67500000Y-72095000D02*
X65000000Y-74595000D01*
D28*
X72487500Y-81500000D02*
X72487500Y-78500000D01*
D30*
X67500000Y-67000000D02*
X67500000Y-72095000D01*
X65000000Y-74595000D02*
X65000000Y-77250000D01*
%TO.N,GND*%
D31*
X77912500Y-78500000D02*
X79000000Y-79800000D01*
D32*
X75525000Y-73365000D02*
X74400000Y-73365000D01*
D31*
X89000000Y-75950000D02*
X89000000Y-77000000D01*
X75525000Y-75905000D02*
X75200000Y-77000000D01*
X73000000Y-76862500D02*
X71500000Y-77000000D01*
%TO.N,+12V*%
D30*
X88000000Y-67000000D02*
X88000000Y-73050000D01*
D31*
X85000000Y-75912500D02*
X83500000Y-75912500D01*
X83500000Y-75912500D02*
X82222500Y-74635000D01*
D30*
X88000000Y-73050000D02*
X89000000Y-74050000D01*
D33*
X87600000Y-75912500D02*
X85000000Y-75912500D01*
X89000000Y-74050000D02*
X87600000Y-74050000D01*
D31*
X82222500Y-74635000D02*
X80475000Y-74635000D01*
D33*
X87600000Y-74050000D02*
X87600000Y-75912500D01*
%TO.N,Net-(U2-I_{PK})*%
D34*
X83600000Y-69600000D02*
X85000000Y-71000000D01*
D35*
X87500000Y-61500000D02*
X89500000Y-61500000D01*
D34*
X85000000Y-72200000D02*
X85000000Y-74087500D01*
D28*
X82777500Y-73365000D02*
X80475000Y-73365000D01*
D34*
X85000000Y-71000000D02*
X85000000Y-72200000D01*
D32*
X82950000Y-64500000D02*
X85500000Y-64500000D01*
D28*
X85000000Y-74087500D02*
X83500000Y-74087500D01*
D34*
X82950000Y-64500000D02*
X83600000Y-69600000D01*
D32*
X85500000Y-64500000D02*
X87500000Y-61500000D01*
D28*
X83500000Y-74087500D02*
X82777500Y-73365000D01*
%TO.N,Net-(U2-DC)*%
X81800000Y-72200000D02*
X81695000Y-72095000D01*
X83000000Y-72200000D02*
X81800000Y-72200000D01*
X81695000Y-72095000D02*
X80475000Y-72095000D01*
%TO.N,/CAN-*%
D36*
X71950000Y-54425000D02*
X72750000Y-54025000D01*
X72750000Y-54025000D02*
X83150000Y-54025000D01*
X83150000Y-54025000D02*
X83950000Y-54425000D01*
%TO.N,/CAN+*%
X72750000Y-53575000D02*
X83150000Y-53575000D01*
X71950000Y-53175000D02*
X72750000Y-53575000D01*
X83150000Y-53575000D02*
X83950000Y-53175000D01*
%TO.N,Net-(D1-A)*%
D35*
X67000000Y-61500000D02*
X69000000Y-61500000D01*
D37*
X73400000Y-72095000D02*
X75525000Y-72095000D01*
X73050000Y-70000000D02*
X73400000Y-72095000D01*
D32*
X69000000Y-61500000D02*
X71000000Y-61500000D01*
X71000000Y-61500000D02*
X73050000Y-64500000D01*
D37*
X73050000Y-64500000D02*
X73050000Y-70000000D01*
%TO.N,Net-(U2-COMP-)*%
D38*
X80475000Y-76900000D02*
X79900000Y-77475000D01*
X80475000Y-75905000D02*
X80475000Y-76900000D01*
X76087500Y-77475000D02*
X76087500Y-78500000D01*
X74312500Y-78500000D02*
X76087500Y-78500000D01*
X79900000Y-77475000D02*
X76087500Y-77475000D01*
%TO.N,Net-(U2-CT)*%
X74100000Y-74635000D02*
X73575000Y-75137500D01*
X73575000Y-75137500D02*
X73000000Y-75137500D01*
X75525000Y-74635000D02*
X74100000Y-74635000D01*
%TD*%
%TA.AperFunction,Conductor*%
%TO.N,+12V*%
G36*
X89915908Y-65004843D02*
G01*
X89928595Y-65008966D01*
X89978095Y-65044927D01*
X89978096Y-65044928D01*
X89981091Y-65049050D01*
X90000000Y-65107240D01*
X90000000Y-73483108D01*
X89999364Y-73494313D01*
X89998101Y-73505400D01*
X89996202Y-73516456D01*
X89700000Y-74800002D01*
X89700000Y-74947927D01*
X89699037Y-74950889D01*
X89699819Y-74953904D01*
X89695154Y-74978522D01*
X89686906Y-75003905D01*
X89668184Y-75037427D01*
X89570229Y-75152668D01*
X89546726Y-75172839D01*
X89527331Y-75184788D01*
X89511167Y-75189367D01*
X89500255Y-75196330D01*
X89488995Y-75195648D01*
X89475402Y-75199500D01*
X88468938Y-75199500D01*
X88462975Y-75201021D01*
X88454069Y-75201978D01*
X88417520Y-75205907D01*
X88417506Y-75205912D01*
X88282671Y-75256200D01*
X88167456Y-75342451D01*
X88167454Y-75342453D01*
X88081200Y-75457671D01*
X88030912Y-75592504D01*
X88030908Y-75592520D01*
X88030908Y-75592521D01*
X88024500Y-75652132D01*
X88024500Y-76247920D01*
X88024584Y-76248648D01*
X88029281Y-76292349D01*
X88030908Y-76307480D01*
X88030909Y-76307485D01*
X88030912Y-76307492D01*
X88081200Y-76442327D01*
X88081202Y-76442330D01*
X88091059Y-76455498D01*
X88091062Y-76455500D01*
X88167522Y-76557637D01*
X88167698Y-76557809D01*
X88169615Y-76559164D01*
X88198086Y-76580478D01*
X88219670Y-76602687D01*
X88227355Y-76613588D01*
X88245431Y-76672042D01*
X88245431Y-76672051D01*
X88245379Y-76675675D01*
X88232489Y-76723120D01*
X88231363Y-76725104D01*
X88220695Y-76740356D01*
X88039804Y-76953169D01*
X88016305Y-76973337D01*
X87996914Y-76985285D01*
X87944981Y-77000000D01*
X84055208Y-77000000D01*
X84024616Y-76995155D01*
X84000785Y-76987412D01*
X83963191Y-76965032D01*
X83710635Y-76725104D01*
X82000000Y-75100000D01*
X79914680Y-75100000D01*
X79884087Y-75095154D01*
X79871401Y-75091032D01*
X79821901Y-75055068D01*
X79821894Y-75055058D01*
X79818900Y-75050936D01*
X79800000Y-74992756D01*
X79800000Y-74364680D01*
X79804843Y-74334094D01*
X79808965Y-74321405D01*
X79844923Y-74271906D01*
X79845522Y-74271471D01*
X79849063Y-74268900D01*
X79907243Y-74250000D01*
X82078358Y-74250000D01*
X82118983Y-74258719D01*
X83212206Y-74750669D01*
X83228347Y-74759842D01*
X84000000Y-75300000D01*
X86399999Y-75300000D01*
X86400000Y-75300000D01*
X86400000Y-73332487D01*
X86402305Y-73311250D01*
X86406807Y-73290752D01*
X86413614Y-73270502D01*
X87000000Y-72000000D01*
X87000000Y-69000000D01*
X86999999Y-69000000D01*
X86114680Y-69000000D01*
X86084087Y-68995154D01*
X86071401Y-68991032D01*
X86021901Y-68955068D01*
X86021894Y-68955058D01*
X86018900Y-68950936D01*
X86000000Y-68892756D01*
X86000000Y-65114680D01*
X86004843Y-65084094D01*
X86008965Y-65071405D01*
X86044923Y-65021906D01*
X86045522Y-65021471D01*
X86049063Y-65018900D01*
X86107243Y-65000000D01*
X89885320Y-65000000D01*
X89915908Y-65004843D01*
G37*
%TD.AperFunction*%
%TD*%
%TA.AperFunction,Conductor*%
%TO.N,Net-(D1-A)*%
G36*
X70175551Y-60304845D02*
G01*
X70189355Y-60309329D01*
X70199454Y-60312611D01*
X70236839Y-60334792D01*
X71999998Y-62000000D01*
X71999999Y-62000000D01*
X72000000Y-62000000D01*
X74585320Y-62000000D01*
X74615908Y-62004843D01*
X74628595Y-62008966D01*
X74678095Y-62044927D01*
X74678096Y-62044928D01*
X74681091Y-62049050D01*
X74700000Y-62107240D01*
X74700000Y-70600000D01*
X76431248Y-71465624D01*
X76456443Y-71483638D01*
X76468828Y-71495836D01*
X76495533Y-71542887D01*
X76497175Y-71549614D01*
X76500000Y-71573091D01*
X76500000Y-72535319D01*
X76495154Y-72565912D01*
X76491032Y-72578598D01*
X76455080Y-72628089D01*
X76450959Y-72631084D01*
X76392771Y-72650000D01*
X72391925Y-72650000D01*
X72361332Y-72645154D01*
X72348646Y-72641032D01*
X72299146Y-72605068D01*
X72292730Y-72596237D01*
X72277106Y-72563331D01*
X72269707Y-72535319D01*
X71604914Y-70018604D01*
X71602459Y-70006088D01*
X71600822Y-69993481D01*
X71600000Y-69980742D01*
X71600000Y-64800003D01*
X71600000Y-64800001D01*
X71599999Y-64799998D01*
X70000000Y-62700000D01*
X65914680Y-62700000D01*
X65884087Y-62695154D01*
X65871401Y-62691032D01*
X65821901Y-62655068D01*
X65821894Y-62655058D01*
X65818900Y-62650936D01*
X65800000Y-62592756D01*
X65800000Y-60414680D01*
X65804843Y-60384094D01*
X65808965Y-60371405D01*
X65844923Y-60321906D01*
X65845522Y-60321471D01*
X65849063Y-60318900D01*
X65907243Y-60300000D01*
X70144960Y-60300000D01*
X70175551Y-60304845D01*
G37*
%TD.AperFunction*%
%TD*%
%TA.AperFunction,Conductor*%
%TO.N,Net-(U2-I_{PK})*%
G36*
X90659191Y-60318907D02*
G01*
X90695155Y-60368407D01*
X90700000Y-60399000D01*
X90700000Y-62601000D01*
X90681093Y-62659191D01*
X90631593Y-62695155D01*
X90601000Y-62700000D01*
X86199999Y-62700000D01*
X84500000Y-64999999D01*
X84500000Y-65000000D01*
X84500000Y-69500000D01*
X85971005Y-70971005D01*
X85998781Y-71025520D01*
X86000000Y-71041007D01*
X86000000Y-74501000D01*
X85981093Y-74559191D01*
X85931593Y-74595155D01*
X85901000Y-74600000D01*
X83521248Y-74600000D01*
X83480622Y-74591280D01*
X81500004Y-73700001D01*
X81500001Y-73700000D01*
X81500000Y-73700000D01*
X81499998Y-73700000D01*
X79899000Y-73700000D01*
X79840809Y-73681093D01*
X79804845Y-73631593D01*
X79800000Y-73601000D01*
X79800000Y-73099000D01*
X79818907Y-73040809D01*
X79868407Y-73004845D01*
X79899000Y-73000000D01*
X81999999Y-73000000D01*
X82000000Y-73000000D01*
X82000000Y-72888196D01*
X82018907Y-72830005D01*
X82068407Y-72794041D01*
X82129593Y-72794041D01*
X82179093Y-72830005D01*
X82191758Y-72853600D01*
X82206202Y-72892329D01*
X82286805Y-73000000D01*
X82292454Y-73007546D01*
X82292457Y-73007548D01*
X82292458Y-73007549D01*
X82407670Y-73093797D01*
X82542511Y-73144089D01*
X82542512Y-73144089D01*
X82542517Y-73144091D01*
X82602127Y-73150500D01*
X83397872Y-73150499D01*
X83457483Y-73144091D01*
X83524907Y-73118943D01*
X83592329Y-73093797D01*
X83592329Y-73093796D01*
X83592331Y-73093796D01*
X83707546Y-73007546D01*
X83793796Y-72892331D01*
X83844091Y-72757483D01*
X83850500Y-72697873D01*
X83850499Y-71702128D01*
X83844091Y-71642517D01*
X83832229Y-71610712D01*
X83793797Y-71507670D01*
X83707549Y-71392458D01*
X83707548Y-71392457D01*
X83707546Y-71392454D01*
X83707541Y-71392450D01*
X83592329Y-71306202D01*
X83457488Y-71255910D01*
X83457483Y-71255909D01*
X83457481Y-71255908D01*
X83457477Y-71255908D01*
X83426249Y-71252550D01*
X83397873Y-71249500D01*
X83397870Y-71249500D01*
X82602133Y-71249500D01*
X82602129Y-71249500D01*
X82602128Y-71249501D01*
X82594949Y-71250272D01*
X82542519Y-71255908D01*
X82542514Y-71255909D01*
X82407670Y-71306202D01*
X82292458Y-71392450D01*
X82292450Y-71392458D01*
X82206202Y-71507670D01*
X82191758Y-71546399D01*
X82153708Y-71594314D01*
X82094761Y-71610712D01*
X82037433Y-71589330D01*
X82003622Y-71538336D01*
X82000000Y-71511803D01*
X82000000Y-69000001D01*
X82000000Y-69000000D01*
X81999999Y-69000000D01*
X81449000Y-69000000D01*
X81390809Y-68981093D01*
X81354845Y-68931593D01*
X81350000Y-68901000D01*
X81350000Y-61599000D01*
X81368907Y-61540809D01*
X81418407Y-61504845D01*
X81449000Y-61500000D01*
X85299999Y-61500000D01*
X85300000Y-61500000D01*
X85774615Y-60360922D01*
X85814449Y-60314481D01*
X85866000Y-60300000D01*
X90601000Y-60300000D01*
X90659191Y-60318907D01*
G37*
%TD.AperFunction*%
%TD*%
%TA.AperFunction,Conductor*%
%TO.N,VCC*%
G36*
X69459191Y-65018907D02*
G01*
X69495155Y-65068407D01*
X69500000Y-65099000D01*
X69500000Y-70800000D01*
X71217276Y-71086212D01*
X71271566Y-71114429D01*
X71298903Y-71169167D01*
X71300000Y-71183865D01*
X71300000Y-73141230D01*
X71281093Y-73199421D01*
X71248406Y-73228142D01*
X68000000Y-74999999D01*
X67017808Y-79223425D01*
X66986211Y-79275820D01*
X66929851Y-79299637D01*
X66921381Y-79300000D01*
X63599000Y-79300000D01*
X63540809Y-79281093D01*
X63504845Y-79231593D01*
X63500000Y-79201000D01*
X63500000Y-74041007D01*
X63518907Y-73982816D01*
X63528990Y-73971009D01*
X65500000Y-72000000D01*
X65500000Y-65099000D01*
X65518907Y-65040809D01*
X65568407Y-65004845D01*
X65599000Y-65000000D01*
X69401000Y-65000000D01*
X69459191Y-65018907D01*
G37*
%TD.AperFunction*%
%TD*%
%TA.AperFunction,Conductor*%
%TO.N,GND*%
G36*
X67099730Y-50505344D02*
G01*
X67107832Y-50507976D01*
X67157334Y-50543937D01*
X67176245Y-50602126D01*
X67157751Y-50659750D01*
X67153066Y-50666296D01*
X67131889Y-50687931D01*
X67092462Y-50717446D01*
X67092458Y-50717450D01*
X67092450Y-50717458D01*
X67092273Y-50717695D01*
X67006200Y-50832671D01*
X66955912Y-50967504D01*
X66955910Y-50967508D01*
X66955910Y-50967511D01*
X66955908Y-50967522D01*
X66949501Y-51027127D01*
X66949500Y-51027132D01*
X66949500Y-51622920D01*
X66949584Y-51623648D01*
X66954281Y-51667349D01*
X66955908Y-51682480D01*
X66955909Y-51682485D01*
X66957755Y-51687434D01*
X67006200Y-51817327D01*
X67029494Y-51848443D01*
X67092522Y-51932637D01*
X67092695Y-51932806D01*
X67094588Y-51934144D01*
X67179142Y-51997441D01*
X67207668Y-52018796D01*
X67207669Y-52018796D01*
X67207670Y-52018797D01*
X67341544Y-52068728D01*
X67342985Y-52069285D01*
X67344247Y-52069466D01*
X67347767Y-52069655D01*
X67402127Y-52075500D01*
X69797872Y-52075499D01*
X69857483Y-52069091D01*
X69924907Y-52043943D01*
X69924910Y-52043942D01*
X69990697Y-52019406D01*
X69994030Y-52018230D01*
X69997582Y-52017047D01*
X70005167Y-52009186D01*
X70107546Y-51932546D01*
X70193796Y-51817331D01*
X70206693Y-51782754D01*
X70242252Y-51687413D01*
X70243454Y-51684650D01*
X70244087Y-51682492D01*
X70244089Y-51682488D01*
X70244090Y-51682485D01*
X70244091Y-51682483D01*
X70250500Y-51622873D01*
X70250499Y-51027128D01*
X70244091Y-50967517D01*
X70244089Y-50967511D01*
X70229587Y-50928629D01*
X70193798Y-50832671D01*
X70181461Y-50816191D01*
X70109144Y-50719588D01*
X70107806Y-50717695D01*
X70107637Y-50717522D01*
X70068400Y-50688149D01*
X70046816Y-50665941D01*
X70046785Y-50665897D01*
X70041906Y-50658976D01*
X70023830Y-50600524D01*
X70043564Y-50542608D01*
X70092903Y-50507561D01*
X70100579Y-50505127D01*
X70130495Y-50500500D01*
X79069143Y-50500500D01*
X79099730Y-50505344D01*
X79107832Y-50507976D01*
X79157334Y-50543937D01*
X79176245Y-50602126D01*
X79157751Y-50659750D01*
X79153066Y-50666296D01*
X79131889Y-50687931D01*
X79092462Y-50717446D01*
X79092458Y-50717450D01*
X79092450Y-50717458D01*
X79092273Y-50717695D01*
X79006200Y-50832671D01*
X78955912Y-50967504D01*
X78955910Y-50967508D01*
X78955910Y-50967511D01*
X78955908Y-50967522D01*
X78949501Y-51027127D01*
X78949500Y-51027132D01*
X78949500Y-51622920D01*
X78949584Y-51623648D01*
X78954281Y-51667349D01*
X78955908Y-51682480D01*
X78955909Y-51682485D01*
X78957755Y-51687434D01*
X79006200Y-51817327D01*
X79029494Y-51848443D01*
X79092522Y-51932637D01*
X79092695Y-51932806D01*
X79094588Y-51934144D01*
X79179142Y-51997441D01*
X79207668Y-52018796D01*
X79207669Y-52018796D01*
X79207670Y-52018797D01*
X79341544Y-52068728D01*
X79342985Y-52069285D01*
X79344247Y-52069466D01*
X79347767Y-52069655D01*
X79402127Y-52075500D01*
X81797872Y-52075499D01*
X81857483Y-52069091D01*
X81924907Y-52043943D01*
X81924910Y-52043942D01*
X81990697Y-52019406D01*
X81994030Y-52018230D01*
X81997582Y-52017047D01*
X82005167Y-52009186D01*
X82107546Y-51932546D01*
X82193796Y-51817331D01*
X82206693Y-51782754D01*
X82242252Y-51687413D01*
X82243454Y-51684650D01*
X82244087Y-51682492D01*
X82244089Y-51682488D01*
X82244090Y-51682485D01*
X82244091Y-51682483D01*
X82250500Y-51622873D01*
X82250499Y-51027128D01*
X82244091Y-50967517D01*
X82244089Y-50967511D01*
X82229587Y-50928629D01*
X82193798Y-50832671D01*
X82181461Y-50816191D01*
X82109144Y-50719588D01*
X82107806Y-50717695D01*
X82107637Y-50717522D01*
X82068400Y-50688149D01*
X82046816Y-50665941D01*
X82046785Y-50665897D01*
X82041906Y-50658976D01*
X82023830Y-50600524D01*
X82043564Y-50542608D01*
X82092903Y-50507561D01*
X82100579Y-50505127D01*
X82130495Y-50500500D01*
X95884820Y-50500500D01*
X95915408Y-50505343D01*
X95928095Y-50509466D01*
X95977595Y-50545427D01*
X95977596Y-50545428D01*
X95980591Y-50549550D01*
X95999500Y-50607740D01*
X95999500Y-82884819D01*
X95994654Y-82915412D01*
X95990532Y-82928098D01*
X95954580Y-82977589D01*
X95950459Y-82980584D01*
X95892271Y-82999500D01*
X59115180Y-82999500D01*
X59084587Y-82994654D01*
X59071901Y-82990532D01*
X59022401Y-82954568D01*
X59022394Y-82954558D01*
X59019400Y-82950436D01*
X59000500Y-82892256D01*
X59000500Y-80393705D01*
X59949500Y-80393705D01*
X59949500Y-80606293D01*
X59982751Y-80816239D01*
X59982752Y-80816243D01*
X60048439Y-81018405D01*
X60048441Y-81018408D01*
X60144808Y-81207541D01*
X60144941Y-81207806D01*
X60144947Y-81207815D01*
X60144948Y-81207816D01*
X60144950Y-81207819D01*
X60269891Y-81379786D01*
X60269893Y-81379788D01*
X60269896Y-81379792D01*
X60420208Y-81530104D01*
X60420211Y-81530106D01*
X60420289Y-81530184D01*
X60420466Y-81530332D01*
X60421791Y-81531255D01*
X60591544Y-81654587D01*
X60592183Y-81655051D01*
X60592189Y-81655055D01*
X60592439Y-81655181D01*
X60781588Y-81751557D01*
X60983557Y-81817181D01*
X60983752Y-81817245D01*
X60983755Y-81817245D01*
X60983757Y-81817246D01*
X60983758Y-81817246D01*
X60983761Y-81817247D01*
X61098667Y-81835446D01*
X61193707Y-81850500D01*
X61406290Y-81850500D01*
X61406293Y-81850500D01*
X61490197Y-81837210D01*
X61616238Y-81817247D01*
X61616238Y-81817246D01*
X61616240Y-81817246D01*
X61616243Y-81817246D01*
X61616246Y-81817245D01*
X61618822Y-81816837D01*
X61623629Y-81814845D01*
X61818412Y-81751557D01*
X62007816Y-81655051D01*
X62179792Y-81530104D01*
X62330104Y-81379792D01*
X62455051Y-81207816D01*
X62551557Y-81018412D01*
X62617246Y-80816243D01*
X62617247Y-80816238D01*
X62650500Y-80606290D01*
X62650500Y-80393705D01*
X62617248Y-80183767D01*
X62617247Y-80183761D01*
X62617246Y-80183757D01*
X62551557Y-79981588D01*
X62455181Y-79792439D01*
X62455055Y-79792189D01*
X62455051Y-79792183D01*
X62455049Y-79792180D01*
X62331257Y-79621795D01*
X62330334Y-79620468D01*
X62330184Y-79620289D01*
X62330106Y-79620211D01*
X62330104Y-79620208D01*
X62179792Y-79469896D01*
X62179788Y-79469893D01*
X62179786Y-79469891D01*
X62007819Y-79344950D01*
X62007815Y-79344947D01*
X62007806Y-79344941D01*
X62007541Y-79344808D01*
X61818408Y-79248441D01*
X61818405Y-79248439D01*
X61616243Y-79182752D01*
X61616239Y-79182751D01*
X61406293Y-79149500D01*
X61406290Y-79149500D01*
X61406287Y-79149500D01*
X61193713Y-79149500D01*
X61193710Y-79149500D01*
X61193707Y-79149500D01*
X60983765Y-79182750D01*
X60781583Y-79248444D01*
X60592456Y-79344808D01*
X60592201Y-79344936D01*
X60592183Y-79344947D01*
X60420214Y-79469890D01*
X60269890Y-79620214D01*
X60144947Y-79792183D01*
X60144936Y-79792201D01*
X60144808Y-79792456D01*
X60048443Y-79981584D01*
X60048439Y-79981593D01*
X59982752Y-80183755D01*
X59982751Y-80183759D01*
X59949500Y-80393705D01*
X59000500Y-80393705D01*
X59000500Y-74041003D01*
X63244500Y-74041003D01*
X63244500Y-74041007D01*
X63244500Y-79201000D01*
X63247645Y-79240965D01*
X63252490Y-79271558D01*
X63252492Y-79271570D01*
X63256405Y-79291240D01*
X63298138Y-79381768D01*
X63298141Y-79381773D01*
X63334101Y-79431269D01*
X63334104Y-79431272D01*
X63334105Y-79431273D01*
X63374876Y-79475378D01*
X63461857Y-79524088D01*
X63520048Y-79542995D01*
X63520049Y-79542995D01*
X63520052Y-79542996D01*
X63598997Y-79555500D01*
X63599000Y-79555500D01*
X64500500Y-79555500D01*
X64558691Y-79574407D01*
X64594655Y-79623907D01*
X64599500Y-79654500D01*
X64599500Y-81552726D01*
X64626793Y-81654589D01*
X64679513Y-81745902D01*
X64679515Y-81745906D01*
X64679518Y-81745910D01*
X64679520Y-81745913D01*
X64754087Y-81820480D01*
X64845413Y-81873207D01*
X64947273Y-81900500D01*
X64947275Y-81900500D01*
X72540225Y-81900500D01*
X72540227Y-81900500D01*
X72642087Y-81873207D01*
X72733413Y-81820480D01*
X72807980Y-81745913D01*
X72860707Y-81654587D01*
X72888000Y-81552727D01*
X72888000Y-80393705D01*
X92149500Y-80393705D01*
X92149500Y-80606293D01*
X92182751Y-80816239D01*
X92182752Y-80816243D01*
X92248439Y-81018405D01*
X92248441Y-81018408D01*
X92344808Y-81207541D01*
X92344941Y-81207806D01*
X92344947Y-81207815D01*
X92344948Y-81207816D01*
X92344950Y-81207819D01*
X92469891Y-81379786D01*
X92469893Y-81379788D01*
X92469896Y-81379792D01*
X92620208Y-81530104D01*
X92620211Y-81530106D01*
X92620289Y-81530184D01*
X92620466Y-81530332D01*
X92621791Y-81531255D01*
X92791544Y-81654587D01*
X92792183Y-81655051D01*
X92792189Y-81655055D01*
X92792439Y-81655181D01*
X92981588Y-81751557D01*
X93183557Y-81817181D01*
X93183752Y-81817245D01*
X93183755Y-81817245D01*
X93183757Y-81817246D01*
X93183758Y-81817246D01*
X93183761Y-81817247D01*
X93298667Y-81835446D01*
X93393707Y-81850500D01*
X93606290Y-81850500D01*
X93606293Y-81850500D01*
X93690197Y-81837210D01*
X93816238Y-81817247D01*
X93816238Y-81817246D01*
X93816240Y-81817246D01*
X93816243Y-81817246D01*
X93816246Y-81817245D01*
X93818822Y-81816837D01*
X93823629Y-81814845D01*
X94018412Y-81751557D01*
X94207816Y-81655051D01*
X94379792Y-81530104D01*
X94530104Y-81379792D01*
X94655051Y-81207816D01*
X94751557Y-81018412D01*
X94817246Y-80816243D01*
X94817247Y-80816238D01*
X94850500Y-80606290D01*
X94850500Y-80393705D01*
X94817248Y-80183767D01*
X94817247Y-80183761D01*
X94817246Y-80183757D01*
X94751557Y-79981588D01*
X94655181Y-79792439D01*
X94655055Y-79792189D01*
X94655051Y-79792183D01*
X94655049Y-79792180D01*
X94531257Y-79621795D01*
X94530334Y-79620468D01*
X94530184Y-79620289D01*
X94530106Y-79620211D01*
X94530104Y-79620208D01*
X94379792Y-79469896D01*
X94379788Y-79469893D01*
X94379786Y-79469891D01*
X94207819Y-79344950D01*
X94207815Y-79344947D01*
X94207806Y-79344941D01*
X94207541Y-79344808D01*
X94018408Y-79248441D01*
X94018405Y-79248439D01*
X93816243Y-79182752D01*
X93816239Y-79182751D01*
X93606293Y-79149500D01*
X93606290Y-79149500D01*
X93606287Y-79149500D01*
X93393713Y-79149500D01*
X93393710Y-79149500D01*
X93393707Y-79149500D01*
X93183765Y-79182750D01*
X92981583Y-79248444D01*
X92792456Y-79344808D01*
X92792201Y-79344936D01*
X92792183Y-79344947D01*
X92620214Y-79469890D01*
X92469890Y-79620214D01*
X92344947Y-79792183D01*
X92344936Y-79792201D01*
X92344808Y-79792456D01*
X92248443Y-79981584D01*
X92248439Y-79981593D01*
X92182752Y-80183755D01*
X92182751Y-80183759D01*
X92149500Y-80393705D01*
X72888000Y-80393705D01*
X72888000Y-79286622D01*
X72892845Y-79256031D01*
X72897328Y-79242233D01*
X72931583Y-79194002D01*
X72940783Y-79187012D01*
X72966074Y-79173085D01*
X72973778Y-79170212D01*
X73086116Y-79086116D01*
X73170212Y-78973778D01*
X73170214Y-78973774D01*
X73219249Y-78842304D01*
X73219248Y-78842304D01*
X73219251Y-78842299D01*
X73225500Y-78784174D01*
X73225500Y-78755666D01*
X73571434Y-78755666D01*
X73574499Y-78784170D01*
X73580748Y-78842293D01*
X73580750Y-78842304D01*
X73580752Y-78842309D01*
X73629784Y-78973774D01*
X73713879Y-79086111D01*
X73713952Y-79086203D01*
X73714232Y-79086452D01*
X73716035Y-79087726D01*
X73797692Y-79148855D01*
X73826224Y-79170214D01*
X73956620Y-79218848D01*
X73958164Y-79219444D01*
X73959434Y-79219626D01*
X73962950Y-79219815D01*
X74015826Y-79225500D01*
X74015830Y-79225500D01*
X74609170Y-79225500D01*
X74609174Y-79225500D01*
X74667299Y-79219251D01*
X74777407Y-79178183D01*
X74797138Y-79170824D01*
X74800464Y-79169650D01*
X74804030Y-79168462D01*
X74811614Y-79160602D01*
X74911116Y-79086116D01*
X74995212Y-78973778D01*
X75002368Y-78954591D01*
X75017597Y-78927626D01*
X75026619Y-78916265D01*
X75075580Y-78883042D01*
X75086634Y-78879711D01*
X75115200Y-78875500D01*
X75283715Y-78875500D01*
X75314308Y-78880346D01*
X75328105Y-78884829D01*
X75376338Y-78919088D01*
X75382825Y-78927626D01*
X75383321Y-78928278D01*
X75397252Y-78953576D01*
X75404785Y-78973774D01*
X75406705Y-78976761D01*
X75409030Y-78979445D01*
X75488884Y-79086116D01*
X75488885Y-79086116D01*
X75488952Y-79086206D01*
X75489131Y-79086380D01*
X75491035Y-79087726D01*
X75572692Y-79148855D01*
X75601224Y-79170214D01*
X75731620Y-79218848D01*
X75733164Y-79219444D01*
X75734434Y-79219626D01*
X75737950Y-79219815D01*
X75790826Y-79225500D01*
X75790830Y-79225500D01*
X76384170Y-79225500D01*
X76384174Y-79225500D01*
X76442299Y-79219251D01*
X76552407Y-79178183D01*
X76572138Y-79170824D01*
X76575464Y-79169650D01*
X76579030Y-79168462D01*
X76586614Y-79160602D01*
X76686116Y-79086116D01*
X76770212Y-78973778D01*
X76770214Y-78973774D01*
X76819249Y-78842304D01*
X76819248Y-78842304D01*
X76819251Y-78842299D01*
X76825500Y-78784174D01*
X76825500Y-78215826D01*
X76819251Y-78157701D01*
X76819249Y-78157695D01*
X76770213Y-78026223D01*
X76766589Y-78021382D01*
X76752132Y-77993984D01*
X76748458Y-77983203D01*
X76747584Y-77922024D01*
X76782835Y-77872018D01*
X76785191Y-77870254D01*
X76828633Y-77851795D01*
X76828713Y-77851782D01*
X76844592Y-77850500D01*
X79949435Y-77850500D01*
X79949436Y-77850500D01*
X79997186Y-77837705D01*
X79997187Y-77837705D01*
X80041878Y-77825729D01*
X80046618Y-77824622D01*
X80049665Y-77823642D01*
X80078860Y-77815819D01*
X80102221Y-77791837D01*
X80130562Y-77775475D01*
X80200475Y-77705562D01*
X80200474Y-77705562D01*
X80775475Y-77130563D01*
X80824911Y-77044937D01*
X80850500Y-76949436D01*
X80850500Y-76850564D01*
X80850500Y-76570179D01*
X80855343Y-76539593D01*
X80859465Y-76526904D01*
X80895423Y-76477405D01*
X80896022Y-76476970D01*
X80899563Y-76474399D01*
X80957743Y-76455499D01*
X81336593Y-76455499D01*
X81343092Y-76453665D01*
X81378411Y-76448072D01*
X81417615Y-76441863D01*
X81421506Y-76441557D01*
X81421509Y-76441557D01*
X81429142Y-76440038D01*
X81433064Y-76439416D01*
X81442838Y-76431711D01*
X81538342Y-76383050D01*
X81628050Y-76293342D01*
X81685646Y-76180304D01*
X81700500Y-76086519D01*
X81700499Y-75723482D01*
X81685646Y-75629696D01*
X81628050Y-75516658D01*
X81625166Y-75512689D01*
X81606260Y-75454498D01*
X81625168Y-75396308D01*
X81674669Y-75360345D01*
X81705260Y-75355500D01*
X81858457Y-75355500D01*
X81916648Y-75374407D01*
X81926642Y-75382724D01*
X82033427Y-75484170D01*
X83548450Y-76923443D01*
X83548459Y-76923450D01*
X83787211Y-77150265D01*
X83787213Y-77150266D01*
X83787216Y-77150269D01*
X83832496Y-77184575D01*
X83870090Y-77206955D01*
X83921833Y-77230407D01*
X83921838Y-77230408D01*
X83921839Y-77230409D01*
X83921847Y-77230412D01*
X83941296Y-77236730D01*
X83945664Y-77238150D01*
X83984649Y-77247510D01*
X84015241Y-77252355D01*
X84055208Y-77255500D01*
X87944981Y-77255500D01*
X87944989Y-77255499D01*
X87956622Y-77253882D01*
X88014634Y-77245823D01*
X88066567Y-77231108D01*
X88130944Y-77202808D01*
X88150335Y-77190860D01*
X88182706Y-77167221D01*
X88202459Y-77150268D01*
X88206196Y-77147061D01*
X88206197Y-77147059D01*
X88206205Y-77147053D01*
X88234480Y-77118643D01*
X88415371Y-76905830D01*
X88430063Y-76886798D01*
X88440731Y-76871546D01*
X88453570Y-76851216D01*
X88454696Y-76849232D01*
X88479051Y-76790107D01*
X88491941Y-76742662D01*
X88500853Y-76679341D01*
X88500905Y-76675717D01*
X88500931Y-76672051D01*
X88500931Y-76672042D01*
X88489526Y-76596559D01*
X88471450Y-76538105D01*
X88464468Y-76523906D01*
X88450899Y-76496308D01*
X88436179Y-76466371D01*
X88428494Y-76455470D01*
X88402896Y-76424618D01*
X88381312Y-76402409D01*
X88359289Y-76383049D01*
X88357353Y-76381347D01*
X88343463Y-76366321D01*
X88316283Y-76330013D01*
X88302780Y-76305284D01*
X88286240Y-76260939D01*
X88280000Y-76226346D01*
X88280000Y-75673649D01*
X88286242Y-75639053D01*
X88302778Y-75594715D01*
X88316283Y-75569984D01*
X88337009Y-75542299D01*
X88341450Y-75536365D01*
X88361372Y-75516444D01*
X88382188Y-75500861D01*
X88394982Y-75491283D01*
X88419714Y-75477778D01*
X88433610Y-75472596D01*
X88464059Y-75461241D01*
X88498652Y-75455000D01*
X89475397Y-75455000D01*
X89475402Y-75455000D01*
X89509451Y-75450267D01*
X89517383Y-75449490D01*
X89544807Y-75447916D01*
X89564126Y-75440386D01*
X89573074Y-75437383D01*
X89580805Y-75435192D01*
X89580806Y-75435194D01*
X89596970Y-75430615D01*
X89596974Y-75430612D01*
X89596978Y-75430612D01*
X89652455Y-75406228D01*
X89661349Y-75402319D01*
X89680744Y-75390370D01*
X89713125Y-75366725D01*
X89736628Y-75346554D01*
X89764904Y-75318142D01*
X89862859Y-75202901D01*
X89891252Y-75162010D01*
X89909974Y-75128488D01*
X89929899Y-75082864D01*
X89938147Y-75057481D01*
X89946187Y-75026092D01*
X89950852Y-75001474D01*
X89952857Y-74989284D01*
X89952427Y-74981815D01*
X89953486Y-74960631D01*
X89955499Y-74947934D01*
X89955500Y-74947925D01*
X89955500Y-74840374D01*
X89958035Y-74818113D01*
X90245159Y-73573907D01*
X90248014Y-73559708D01*
X90249913Y-73548652D01*
X90251959Y-73534319D01*
X90253222Y-73523232D01*
X90254453Y-73508792D01*
X90255089Y-73497587D01*
X90255500Y-73483108D01*
X90255500Y-65107240D01*
X90242993Y-65028279D01*
X90224084Y-64970089D01*
X90187790Y-64898865D01*
X90184795Y-64894743D01*
X90162575Y-64868727D01*
X90158770Y-64864271D01*
X90158767Y-64864268D01*
X90158762Y-64864262D01*
X90158761Y-64864261D01*
X90128266Y-64838217D01*
X90128261Y-64838213D01*
X90128256Y-64838209D01*
X90078764Y-64802254D01*
X90007568Y-64765977D01*
X90007556Y-64765972D01*
X89994882Y-64761854D01*
X89994861Y-64761848D01*
X89955865Y-64752487D01*
X89955860Y-64752486D01*
X89925271Y-64747643D01*
X89898965Y-64745573D01*
X89885320Y-64744500D01*
X89885316Y-64744500D01*
X86183600Y-64744500D01*
X86125409Y-64725593D01*
X86089445Y-64676093D01*
X86089445Y-64614907D01*
X86101227Y-64590585D01*
X87161895Y-62999585D01*
X87209905Y-62961655D01*
X87244268Y-62955500D01*
X90600994Y-62955500D01*
X90601000Y-62955500D01*
X90640965Y-62952355D01*
X90671558Y-62947510D01*
X90691239Y-62943595D01*
X90781773Y-62901859D01*
X90831273Y-62865895D01*
X90875378Y-62825124D01*
X90924088Y-62738143D01*
X90942995Y-62679952D01*
X90955500Y-62601000D01*
X90955500Y-60399000D01*
X90952355Y-60359035D01*
X90947510Y-60328442D01*
X90943595Y-60308761D01*
X90901859Y-60218227D01*
X90892868Y-60205852D01*
X90865898Y-60168730D01*
X90865895Y-60168727D01*
X90825124Y-60124622D01*
X90738143Y-60075912D01*
X90694858Y-60061848D01*
X90679947Y-60057003D01*
X90601003Y-60044500D01*
X90601000Y-60044500D01*
X85866000Y-60044500D01*
X85865993Y-60044500D01*
X85796913Y-60054018D01*
X85796906Y-60054020D01*
X85745348Y-60068503D01*
X85745338Y-60068507D01*
X85698940Y-60086582D01*
X85698932Y-60086586D01*
X85620517Y-60148136D01*
X85620511Y-60148142D01*
X85580685Y-60194575D01*
X85580678Y-60194584D01*
X85538772Y-60262646D01*
X85538771Y-60262649D01*
X85538769Y-60262653D01*
X85475424Y-60414683D01*
X85155052Y-61183577D01*
X85115218Y-61230019D01*
X85063667Y-61244500D01*
X81449000Y-61244500D01*
X81409035Y-61247645D01*
X81380545Y-61252156D01*
X81378429Y-61252492D01*
X81358759Y-61256405D01*
X81268231Y-61298138D01*
X81268226Y-61298141D01*
X81218730Y-61334101D01*
X81218727Y-61334104D01*
X81174622Y-61374876D01*
X81174621Y-61374877D01*
X81125913Y-61461855D01*
X81107003Y-61520052D01*
X81094500Y-61598996D01*
X81094500Y-61599000D01*
X81094500Y-68901000D01*
X81097645Y-68940965D01*
X81102490Y-68971558D01*
X81102492Y-68971570D01*
X81106405Y-68991240D01*
X81148138Y-69081768D01*
X81148141Y-69081773D01*
X81184101Y-69131269D01*
X81184104Y-69131272D01*
X81184105Y-69131273D01*
X81224876Y-69175378D01*
X81311857Y-69224088D01*
X81370048Y-69242995D01*
X81370049Y-69242995D01*
X81370052Y-69242996D01*
X81448997Y-69255500D01*
X81449000Y-69255500D01*
X81645500Y-69255500D01*
X81703691Y-69274407D01*
X81739655Y-69323907D01*
X81744500Y-69354500D01*
X81744500Y-71511808D01*
X81746848Y-71546364D01*
X81750469Y-71572888D01*
X81750473Y-71572911D01*
X81750472Y-71572913D01*
X81750661Y-71574293D01*
X81750255Y-71574348D01*
X81741319Y-71633408D01*
X81698354Y-71676970D01*
X81637989Y-71686959D01*
X81622224Y-71683233D01*
X81620432Y-71682651D01*
X81618773Y-71682112D01*
X81579352Y-71657959D01*
X81538343Y-71616951D01*
X81538342Y-71616950D01*
X81484243Y-71589385D01*
X81459652Y-71564793D01*
X81331524Y-71544500D01*
X81331521Y-71544500D01*
X79618478Y-71544500D01*
X79617759Y-71544500D01*
X79614808Y-71545081D01*
X79524700Y-71559352D01*
X79524676Y-71559362D01*
X79411661Y-71616947D01*
X79321948Y-71706660D01*
X79264354Y-71819693D01*
X79249500Y-71913475D01*
X79249500Y-72276522D01*
X79249508Y-72276572D01*
X79249566Y-72276937D01*
X79264352Y-72370298D01*
X79264362Y-72370322D01*
X79321948Y-72483339D01*
X79321950Y-72483342D01*
X79411658Y-72573050D01*
X79448419Y-72591780D01*
X79524690Y-72630644D01*
X79532101Y-72633051D01*
X79531828Y-72633888D01*
X79548588Y-72639333D01*
X79555932Y-72643074D01*
X79599201Y-72686334D01*
X79608779Y-72746765D01*
X79581007Y-72801284D01*
X79581000Y-72801292D01*
X79580999Y-72801293D01*
X79528568Y-72828008D01*
X79528661Y-72828385D01*
X79527064Y-72828774D01*
X79526487Y-72829069D01*
X79524704Y-72829351D01*
X79524698Y-72829352D01*
X79524698Y-72829353D01*
X79524695Y-72829354D01*
X79524693Y-72829354D01*
X79524690Y-72829356D01*
X79524685Y-72829358D01*
X79411661Y-72886947D01*
X79321948Y-72976660D01*
X79264354Y-73089693D01*
X79249500Y-73183475D01*
X79249500Y-73546522D01*
X79249508Y-73546572D01*
X79249566Y-73546937D01*
X79264352Y-73640298D01*
X79264362Y-73640322D01*
X79321948Y-73753339D01*
X79321950Y-73753342D01*
X79411658Y-73843050D01*
X79448419Y-73861780D01*
X79524690Y-73900644D01*
X79532101Y-73903051D01*
X79531828Y-73903888D01*
X79548588Y-73909333D01*
X79555932Y-73913074D01*
X79599201Y-73956334D01*
X79608779Y-74016765D01*
X79581007Y-74071284D01*
X79581000Y-74071292D01*
X79580999Y-74071293D01*
X79528568Y-74098008D01*
X79528661Y-74098385D01*
X79527064Y-74098774D01*
X79526487Y-74099069D01*
X79524704Y-74099351D01*
X79524698Y-74099352D01*
X79524698Y-74099353D01*
X79524695Y-74099354D01*
X79524693Y-74099354D01*
X79524690Y-74099356D01*
X79524685Y-74099358D01*
X79411661Y-74156947D01*
X79321948Y-74246660D01*
X79264354Y-74359693D01*
X79249500Y-74453475D01*
X79249500Y-74816522D01*
X79249508Y-74816572D01*
X79249566Y-74816937D01*
X79264352Y-74910298D01*
X79264362Y-74910322D01*
X79321720Y-75022891D01*
X79321950Y-75023342D01*
X79411658Y-75113050D01*
X79441947Y-75128483D01*
X79524690Y-75170644D01*
X79532101Y-75173051D01*
X79531828Y-75173888D01*
X79548588Y-75179333D01*
X79555932Y-75183074D01*
X79599201Y-75226334D01*
X79608779Y-75286765D01*
X79581007Y-75341284D01*
X79581000Y-75341292D01*
X79580999Y-75341293D01*
X79528568Y-75368008D01*
X79528661Y-75368385D01*
X79527064Y-75368774D01*
X79526487Y-75369069D01*
X79524704Y-75369351D01*
X79524698Y-75369352D01*
X79524698Y-75369353D01*
X79524695Y-75369354D01*
X79524693Y-75369354D01*
X79524690Y-75369356D01*
X79524685Y-75369358D01*
X79411661Y-75426947D01*
X79321948Y-75516660D01*
X79264354Y-75629693D01*
X79249500Y-75723475D01*
X79249500Y-76086522D01*
X79249508Y-76086572D01*
X79249566Y-76086937D01*
X79264352Y-76180298D01*
X79264362Y-76180322D01*
X79321948Y-76293339D01*
X79321950Y-76293342D01*
X79411658Y-76383050D01*
X79524696Y-76440646D01*
X79618481Y-76455500D01*
X79984819Y-76455499D01*
X80015405Y-76460342D01*
X80018035Y-76461196D01*
X80028092Y-76464464D01*
X80077594Y-76500424D01*
X80077596Y-76500427D01*
X80080591Y-76504549D01*
X80099500Y-76562739D01*
X80099500Y-76687774D01*
X80094654Y-76718367D01*
X80087107Y-76741594D01*
X80062957Y-76781004D01*
X79784548Y-77059414D01*
X79759491Y-77077619D01*
X79737729Y-77088708D01*
X79692782Y-77099500D01*
X76038063Y-77099500D01*
X75979615Y-77115159D01*
X75979616Y-77115160D01*
X75942558Y-77125090D01*
X75856944Y-77174519D01*
X75787021Y-77244442D01*
X75737592Y-77330054D01*
X75712000Y-77425567D01*
X75712000Y-77704051D01*
X75707155Y-77734642D01*
X75702672Y-77748440D01*
X75668404Y-77796681D01*
X75659212Y-77803664D01*
X75633925Y-77817589D01*
X75601222Y-77829787D01*
X75601217Y-77829790D01*
X75488894Y-77913874D01*
X75488878Y-77913890D01*
X75404787Y-78026221D01*
X75397632Y-78045405D01*
X75382399Y-78072378D01*
X75373377Y-78083738D01*
X75324428Y-78116954D01*
X75313376Y-78120286D01*
X75284800Y-78124500D01*
X75116285Y-78124500D01*
X75085688Y-78119653D01*
X75071890Y-78115169D01*
X75023660Y-78080910D01*
X75016676Y-78071717D01*
X75002747Y-78046425D01*
X75002367Y-78045405D01*
X74995212Y-78026222D01*
X74912714Y-77916018D01*
X74911378Y-77914129D01*
X74911204Y-77913950D01*
X74911110Y-77913880D01*
X74902568Y-77907485D01*
X74811596Y-77839383D01*
X74798774Y-77829784D01*
X74672241Y-77782591D01*
X74668758Y-77781075D01*
X74667826Y-77780833D01*
X74665744Y-77780380D01*
X74662020Y-77780181D01*
X74641011Y-77777922D01*
X74641009Y-77777921D01*
X74609177Y-77774500D01*
X74609174Y-77774500D01*
X74015826Y-77774500D01*
X74015822Y-77774500D01*
X73987824Y-77777509D01*
X73987823Y-77777510D01*
X73977784Y-77778589D01*
X73957702Y-77780748D01*
X73957697Y-77780749D01*
X73957695Y-77780750D01*
X73957691Y-77780751D01*
X73957689Y-77780752D01*
X73826224Y-77829784D01*
X73713890Y-77913878D01*
X73713878Y-77913890D01*
X73629784Y-78026224D01*
X73580752Y-78157689D01*
X73580749Y-78157697D01*
X73580748Y-78157708D01*
X73574500Y-78215830D01*
X73574500Y-78746233D01*
X73571434Y-78755666D01*
X73225500Y-78755666D01*
X73225500Y-78215826D01*
X73219251Y-78157701D01*
X73219249Y-78157695D01*
X73170213Y-78026223D01*
X73087726Y-77916035D01*
X73086380Y-77914131D01*
X73086204Y-77913950D01*
X73086110Y-77913880D01*
X73077568Y-77907485D01*
X72986596Y-77839383D01*
X72973774Y-77829784D01*
X72847241Y-77782591D01*
X72843758Y-77781075D01*
X72842826Y-77780833D01*
X72840744Y-77780380D01*
X72837020Y-77780181D01*
X72816011Y-77777922D01*
X72816009Y-77777921D01*
X72784177Y-77774500D01*
X72784174Y-77774500D01*
X72190826Y-77774500D01*
X72190822Y-77774500D01*
X72162824Y-77777509D01*
X72162823Y-77777510D01*
X72152784Y-77778589D01*
X72132702Y-77780748D01*
X72132697Y-77780749D01*
X72132695Y-77780750D01*
X72132691Y-77780751D01*
X72132689Y-77780752D01*
X72001224Y-77829784D01*
X71888890Y-77913878D01*
X71888878Y-77913890D01*
X71804784Y-78026224D01*
X71755752Y-78157689D01*
X71755749Y-78157697D01*
X71755748Y-78157708D01*
X71749500Y-78215830D01*
X71749500Y-78746233D01*
X71746434Y-78755666D01*
X71749499Y-78784170D01*
X71755748Y-78842293D01*
X71755750Y-78842304D01*
X71755752Y-78842309D01*
X71804784Y-78973774D01*
X71888867Y-79086095D01*
X71888880Y-79086111D01*
X71888884Y-79086116D01*
X72001222Y-79170212D01*
X72007905Y-79172704D01*
X72034874Y-79187934D01*
X72042513Y-79194000D01*
X72046235Y-79196956D01*
X72079452Y-79245903D01*
X72082785Y-79256957D01*
X72087000Y-79285537D01*
X72087000Y-80984819D01*
X72082154Y-81015412D01*
X72078032Y-81028098D01*
X72042080Y-81077589D01*
X72037959Y-81080584D01*
X71979771Y-81099500D01*
X65515180Y-81099500D01*
X65484587Y-81094654D01*
X65471901Y-81090532D01*
X65422401Y-81054568D01*
X65422394Y-81054558D01*
X65419400Y-81050436D01*
X65400500Y-80992256D01*
X65400500Y-79654500D01*
X65419407Y-79596309D01*
X65468907Y-79560345D01*
X65499500Y-79555500D01*
X66921402Y-79555500D01*
X66927945Y-79555359D01*
X66932321Y-79555266D01*
X66940791Y-79554903D01*
X67029306Y-79534985D01*
X67085666Y-79511168D01*
X67137857Y-79481450D01*
X67205005Y-79407765D01*
X67236602Y-79355370D01*
X67266667Y-79281299D01*
X68155130Y-75460904D01*
X72271998Y-75460904D01*
X72274499Y-75484170D01*
X72280748Y-75542293D01*
X72280750Y-75542304D01*
X72280752Y-75542309D01*
X72329784Y-75673774D01*
X72329787Y-75673778D01*
X72366996Y-75723482D01*
X72413950Y-75786204D01*
X72414130Y-75786379D01*
X72416035Y-75787726D01*
X72497692Y-75848855D01*
X72526224Y-75870214D01*
X72656620Y-75918848D01*
X72658164Y-75919444D01*
X72659434Y-75919626D01*
X72662950Y-75919815D01*
X72715826Y-75925500D01*
X72715830Y-75925500D01*
X73284170Y-75925500D01*
X73284174Y-75925500D01*
X73342299Y-75919251D01*
X73387948Y-75902224D01*
X73472148Y-75870819D01*
X73475470Y-75869648D01*
X73479030Y-75868462D01*
X73486614Y-75860602D01*
X73586116Y-75786116D01*
X73670212Y-75673778D01*
X73719251Y-75542299D01*
X73720039Y-75538964D01*
X73726037Y-75521253D01*
X73735175Y-75500857D01*
X73764235Y-75463589D01*
X73764490Y-75463388D01*
X73778160Y-75454341D01*
X73798929Y-75442950D01*
X73798931Y-75442946D01*
X73799600Y-75442580D01*
X73800826Y-75441648D01*
X73800803Y-75441617D01*
X73802112Y-75440631D01*
X73802119Y-75440627D01*
X73802438Y-75440387D01*
X73802446Y-75440379D01*
X73802591Y-75440271D01*
X73803756Y-75439358D01*
X73804364Y-75438892D01*
X73805459Y-75438076D01*
X73805557Y-75437977D01*
X73805562Y-75437975D01*
X73836666Y-75406868D01*
X73837218Y-75406322D01*
X73838063Y-75405495D01*
X73838545Y-75405029D01*
X74210709Y-75048816D01*
X74236155Y-75031168D01*
X74258641Y-75020325D01*
X74301638Y-75010500D01*
X74302421Y-75010500D01*
X74333012Y-75015344D01*
X74356238Y-75022891D01*
X74395649Y-75047042D01*
X74431472Y-75082864D01*
X74461658Y-75113050D01*
X74574696Y-75170646D01*
X74668481Y-75185500D01*
X76381518Y-75185499D01*
X76381521Y-75185499D01*
X76386592Y-75185499D01*
X76393088Y-75183666D01*
X76450969Y-75174500D01*
X76467618Y-75171863D01*
X76471499Y-75171558D01*
X76471508Y-75171556D01*
X76479146Y-75170037D01*
X76483064Y-75169416D01*
X76492838Y-75161711D01*
X76588342Y-75113050D01*
X76678050Y-75023342D01*
X76735646Y-74910304D01*
X76750500Y-74816519D01*
X76750499Y-74453482D01*
X76750499Y-74453478D01*
X76738242Y-74376085D01*
X76736863Y-74367381D01*
X76736558Y-74363501D01*
X76736556Y-74363492D01*
X76735900Y-74360195D01*
X76733677Y-74355833D01*
X76678050Y-74246658D01*
X76588342Y-74156950D01*
X76534243Y-74129385D01*
X76509652Y-74104793D01*
X76381524Y-74084500D01*
X76381521Y-74084500D01*
X74668478Y-74084500D01*
X74667759Y-74084500D01*
X74664808Y-74085081D01*
X74574700Y-74099352D01*
X74574694Y-74099354D01*
X74564020Y-74104793D01*
X74482834Y-74146159D01*
X74469167Y-74149440D01*
X74432662Y-74185946D01*
X74432661Y-74185947D01*
X74399190Y-74219417D01*
X74374134Y-74237620D01*
X74352374Y-74248708D01*
X74307427Y-74259500D01*
X74105714Y-74259500D01*
X74104565Y-74259493D01*
X74103445Y-74259480D01*
X74102427Y-74259463D01*
X74058809Y-74258508D01*
X74058796Y-74258508D01*
X74058795Y-74258508D01*
X74058794Y-74258508D01*
X74058790Y-74258508D01*
X74056634Y-74258744D01*
X74055082Y-74258895D01*
X74054205Y-74259002D01*
X74052779Y-74259207D01*
X74050575Y-74259497D01*
X74050554Y-74259501D01*
X74008356Y-74270808D01*
X74007274Y-74271092D01*
X74006164Y-74271376D01*
X74005150Y-74271629D01*
X73962763Y-74281998D01*
X73962756Y-74282000D01*
X73960681Y-74282807D01*
X73959236Y-74283350D01*
X73958465Y-74283660D01*
X73957140Y-74284227D01*
X73955073Y-74285082D01*
X73955069Y-74285085D01*
X73917151Y-74306975D01*
X73916200Y-74307517D01*
X73915322Y-74308011D01*
X73914391Y-74308528D01*
X73876062Y-74329553D01*
X73874200Y-74330919D01*
X73873061Y-74331735D01*
X73872393Y-74332235D01*
X73871261Y-74333124D01*
X73869448Y-74334514D01*
X73869439Y-74334522D01*
X73838521Y-74365439D01*
X73837732Y-74366220D01*
X73836968Y-74366967D01*
X73836237Y-74367673D01*
X73797465Y-74404784D01*
X73727348Y-74471896D01*
X73701899Y-74489548D01*
X73689885Y-74495342D01*
X73629258Y-74503589D01*
X73629255Y-74503589D01*
X73621268Y-74502144D01*
X73579564Y-74483978D01*
X73473774Y-74404784D01*
X73347241Y-74357591D01*
X73343758Y-74356075D01*
X73342826Y-74355833D01*
X73340744Y-74355380D01*
X73337020Y-74355181D01*
X73316011Y-74352922D01*
X73316009Y-74352921D01*
X73284177Y-74349500D01*
X73284174Y-74349500D01*
X72715826Y-74349500D01*
X72715822Y-74349500D01*
X72687824Y-74352509D01*
X72687823Y-74352510D01*
X72677784Y-74353589D01*
X72657702Y-74355748D01*
X72657697Y-74355749D01*
X72657695Y-74355750D01*
X72657691Y-74355751D01*
X72657689Y-74355752D01*
X72526224Y-74404784D01*
X72413890Y-74488878D01*
X72413878Y-74488890D01*
X72329784Y-74601224D01*
X72280752Y-74732689D01*
X72280749Y-74732697D01*
X72280748Y-74732708D01*
X72274500Y-74790830D01*
X72274500Y-75446233D01*
X72272862Y-75451273D01*
X72273971Y-75456458D01*
X72271998Y-75460904D01*
X68155130Y-75460904D01*
X68212857Y-75212676D01*
X68244453Y-75160284D01*
X68261871Y-75148195D01*
X71370753Y-73452444D01*
X71417052Y-73420076D01*
X71449739Y-73391355D01*
X71475378Y-73365354D01*
X71524088Y-73278373D01*
X71542995Y-73220182D01*
X71555500Y-73141230D01*
X71555500Y-71594387D01*
X71574407Y-71536196D01*
X71623907Y-71500232D01*
X71685093Y-71500232D01*
X71734593Y-71536196D01*
X71750216Y-71569101D01*
X71787753Y-71711204D01*
X72021042Y-72594373D01*
X72021044Y-72594378D01*
X72030078Y-72628581D01*
X72030080Y-72628586D01*
X72046301Y-72672919D01*
X72046301Y-72672920D01*
X72061925Y-72705825D01*
X72086026Y-72746417D01*
X72092439Y-72755244D01*
X72092445Y-72755251D01*
X72148960Y-72811767D01*
X72148968Y-72811774D01*
X72198460Y-72847732D01*
X72198470Y-72847739D01*
X72246264Y-72872090D01*
X72269691Y-72884027D01*
X72282377Y-72888149D01*
X72321359Y-72897508D01*
X72351946Y-72902353D01*
X72351952Y-72902354D01*
X72391925Y-72905500D01*
X76392771Y-72905500D01*
X76471761Y-72892983D01*
X76486631Y-72888149D01*
X76529941Y-72874070D01*
X76529946Y-72874068D01*
X76529946Y-72874067D01*
X76529949Y-72874067D01*
X76601168Y-72837766D01*
X76605289Y-72834771D01*
X76661794Y-72778254D01*
X76697746Y-72728763D01*
X76734027Y-72657553D01*
X76738149Y-72644867D01*
X76747508Y-72605885D01*
X76752354Y-72575292D01*
X76755500Y-72535319D01*
X76755500Y-71573091D01*
X76753670Y-71542567D01*
X76750845Y-71519090D01*
X76745388Y-71489028D01*
X76743746Y-71482301D01*
X76717737Y-71416769D01*
X76691032Y-71369718D01*
X76691031Y-71369716D01*
X76673402Y-71346748D01*
X76648114Y-71313801D01*
X76635729Y-71301603D01*
X76605045Y-71275798D01*
X76605041Y-71275795D01*
X76579873Y-71257799D01*
X76579845Y-71257781D01*
X76545512Y-71237098D01*
X76545499Y-71237091D01*
X75010226Y-70469455D01*
X74966634Y-70426520D01*
X74955500Y-70380907D01*
X74955500Y-62107238D01*
X74953145Y-62092376D01*
X74942993Y-62028279D01*
X74924084Y-61970089D01*
X74887790Y-61898865D01*
X74884795Y-61894743D01*
X74858762Y-61864262D01*
X74858761Y-61864261D01*
X74828266Y-61838217D01*
X74828261Y-61838213D01*
X74828256Y-61838209D01*
X74783337Y-61805577D01*
X74747371Y-61756079D01*
X74744430Y-61744813D01*
X74735966Y-61702260D01*
X74680601Y-61619399D01*
X74680599Y-61619397D01*
X74680595Y-61619394D01*
X74680593Y-61619392D01*
X74597748Y-61564038D01*
X74597737Y-61564032D01*
X74597534Y-61563964D01*
X74595997Y-61563687D01*
X74524694Y-61549503D01*
X74524684Y-61549501D01*
X74524679Y-61549500D01*
X74524676Y-61549500D01*
X74524674Y-61549500D01*
X74524673Y-61549500D01*
X71934469Y-61549500D01*
X71876278Y-61530593D01*
X71866493Y-61522474D01*
X71863929Y-61520052D01*
X70412271Y-60149040D01*
X70412263Y-60149034D01*
X70412261Y-60149032D01*
X70390901Y-60132923D01*
X70367211Y-60115057D01*
X70329826Y-60092876D01*
X70278422Y-60069621D01*
X70273508Y-60068024D01*
X70268681Y-60066455D01*
X70268681Y-60066454D01*
X70268652Y-60066445D01*
X70254502Y-60061848D01*
X70254462Y-60061837D01*
X70215535Y-60052493D01*
X70215514Y-60052489D01*
X70184935Y-60047646D01*
X70184931Y-60047645D01*
X70171605Y-60046596D01*
X70144960Y-60044500D01*
X70144954Y-60044500D01*
X65907245Y-60044500D01*
X65907243Y-60044500D01*
X65856792Y-60052489D01*
X65828303Y-60057000D01*
X65770120Y-60075901D01*
X65698948Y-60112148D01*
X65694803Y-60115157D01*
X65694784Y-60115174D01*
X65638209Y-60171740D01*
X65602252Y-60221238D01*
X65602251Y-60221240D01*
X65581154Y-60262653D01*
X65565963Y-60292471D01*
X65561845Y-60305148D01*
X65552487Y-60344135D01*
X65547642Y-60374728D01*
X65545733Y-60399006D01*
X65544500Y-60414680D01*
X65544500Y-62592756D01*
X65545806Y-62601003D01*
X65557000Y-62671695D01*
X65575900Y-62729876D01*
X65612177Y-62801089D01*
X65627760Y-62822542D01*
X65638586Y-62828055D01*
X65639219Y-62828693D01*
X65671721Y-62861772D01*
X65671727Y-62861776D01*
X65671729Y-62861778D01*
X65721215Y-62897732D01*
X65721225Y-62897739D01*
X65769019Y-62922090D01*
X65792446Y-62934027D01*
X65805132Y-62938149D01*
X65844114Y-62947508D01*
X65874701Y-62952353D01*
X65874707Y-62952354D01*
X65914680Y-62955500D01*
X69824425Y-62955500D01*
X69882616Y-62974407D01*
X69903172Y-62994501D01*
X71307909Y-64838217D01*
X71324248Y-64859661D01*
X71344474Y-64917406D01*
X71344500Y-64919659D01*
X71344500Y-69980729D01*
X71345030Y-69997189D01*
X71345853Y-70009943D01*
X71347449Y-70026381D01*
X71349085Y-70038985D01*
X71351740Y-70055289D01*
X71354191Y-70067779D01*
X71354192Y-70067783D01*
X71357887Y-70083856D01*
X71459743Y-70469455D01*
X71542156Y-70781444D01*
X71538737Y-70842534D01*
X71500063Y-70889947D01*
X71440907Y-70905573D01*
X71392396Y-70889676D01*
X71389395Y-70887721D01*
X71335108Y-70859506D01*
X71335106Y-70859505D01*
X71259282Y-70834188D01*
X69838224Y-70597345D01*
X69783934Y-70569128D01*
X69756597Y-70514389D01*
X69755500Y-70499692D01*
X69755500Y-65099006D01*
X69755500Y-65099000D01*
X69752355Y-65059035D01*
X69747510Y-65028442D01*
X69743595Y-65008761D01*
X69701859Y-64918227D01*
X69684794Y-64894739D01*
X69665898Y-64868730D01*
X69665895Y-64868727D01*
X69661776Y-64864271D01*
X69625124Y-64824622D01*
X69538143Y-64775912D01*
X69494858Y-64761848D01*
X69479947Y-64757003D01*
X69401003Y-64744500D01*
X69401000Y-64744500D01*
X65599000Y-64744500D01*
X65559035Y-64747645D01*
X65530545Y-64752156D01*
X65528429Y-64752492D01*
X65508759Y-64756405D01*
X65418231Y-64798138D01*
X65418226Y-64798141D01*
X65368730Y-64834101D01*
X65368727Y-64834104D01*
X65324622Y-64874876D01*
X65324621Y-64874877D01*
X65300345Y-64918227D01*
X65275912Y-64961857D01*
X65273237Y-64970091D01*
X65257003Y-65020052D01*
X65244500Y-65098996D01*
X65244500Y-71853159D01*
X65225593Y-71911350D01*
X65215504Y-71923163D01*
X63348313Y-73790354D01*
X63334697Y-73805085D01*
X63324613Y-73816893D01*
X63324611Y-73816896D01*
X63275914Y-73903859D01*
X63275912Y-73903862D01*
X63275912Y-73903864D01*
X63274135Y-73909333D01*
X63257003Y-73962059D01*
X63244500Y-74041003D01*
X59000500Y-74041003D01*
X59000500Y-55977132D01*
X66949500Y-55977132D01*
X66949500Y-56572920D01*
X66949584Y-56573648D01*
X66954281Y-56617349D01*
X66955908Y-56632480D01*
X66955909Y-56632485D01*
X66955912Y-56632492D01*
X67006200Y-56767327D01*
X67092449Y-56882541D01*
X67092522Y-56882633D01*
X67092799Y-56882879D01*
X67094588Y-56884144D01*
X67179142Y-56947441D01*
X67207668Y-56968796D01*
X67207669Y-56968796D01*
X67207670Y-56968797D01*
X67341544Y-57018728D01*
X67342985Y-57019285D01*
X67344247Y-57019466D01*
X67347767Y-57019655D01*
X67402127Y-57025500D01*
X69797872Y-57025499D01*
X69857483Y-57019091D01*
X69924907Y-56993943D01*
X69924910Y-56993942D01*
X69990697Y-56969406D01*
X69994030Y-56968230D01*
X69997582Y-56967047D01*
X70005167Y-56959186D01*
X70107546Y-56882546D01*
X70193796Y-56767331D01*
X70193798Y-56767327D01*
X70244089Y-56632488D01*
X70244090Y-56632485D01*
X70244091Y-56632483D01*
X70250500Y-56572873D01*
X70250499Y-55977132D01*
X78949500Y-55977132D01*
X78949500Y-56572920D01*
X78949584Y-56573648D01*
X78954281Y-56617349D01*
X78955908Y-56632480D01*
X78955909Y-56632485D01*
X78955912Y-56632492D01*
X79006200Y-56767327D01*
X79092449Y-56882541D01*
X79092522Y-56882633D01*
X79092799Y-56882879D01*
X79094588Y-56884144D01*
X79179142Y-56947441D01*
X79207668Y-56968796D01*
X79207669Y-56968796D01*
X79207670Y-56968797D01*
X79341544Y-57018728D01*
X79342985Y-57019285D01*
X79344247Y-57019466D01*
X79347767Y-57019655D01*
X79402127Y-57025500D01*
X81797872Y-57025499D01*
X81857483Y-57019091D01*
X81924907Y-56993943D01*
X81924910Y-56993942D01*
X81990697Y-56969406D01*
X81994030Y-56968230D01*
X81997582Y-56967047D01*
X82005167Y-56959186D01*
X82107546Y-56882546D01*
X82193796Y-56767331D01*
X82193798Y-56767327D01*
X82244089Y-56632488D01*
X82244090Y-56632485D01*
X82244091Y-56632483D01*
X82250500Y-56572873D01*
X82250499Y-55977128D01*
X82244091Y-55917517D01*
X82244089Y-55917511D01*
X82229587Y-55878629D01*
X82193798Y-55782671D01*
X82181461Y-55766191D01*
X82109144Y-55669588D01*
X82107879Y-55667799D01*
X82107633Y-55667522D01*
X82107541Y-55667449D01*
X81992330Y-55581202D01*
X81992328Y-55581201D01*
X81862428Y-55532752D01*
X81858939Y-55531234D01*
X81858025Y-55530996D01*
X81855927Y-55530540D01*
X81852206Y-55530341D01*
X81835312Y-55528524D01*
X81826249Y-55527550D01*
X81826248Y-55527549D01*
X81797876Y-55524500D01*
X81797873Y-55524500D01*
X81797870Y-55524500D01*
X79402133Y-55524500D01*
X79402129Y-55524500D01*
X79393938Y-55524500D01*
X79387975Y-55526021D01*
X79379069Y-55526978D01*
X79342520Y-55530907D01*
X79342514Y-55530908D01*
X79342514Y-55530909D01*
X79342506Y-55530912D01*
X79207671Y-55581200D01*
X79092456Y-55667451D01*
X79092454Y-55667453D01*
X79006200Y-55782671D01*
X78955912Y-55917504D01*
X78955910Y-55917508D01*
X78955910Y-55917511D01*
X78955908Y-55917522D01*
X78949501Y-55977127D01*
X78949500Y-55977132D01*
X70250499Y-55977132D01*
X70250499Y-55977128D01*
X70244091Y-55917517D01*
X70244089Y-55917511D01*
X70229587Y-55878629D01*
X70193798Y-55782671D01*
X70181461Y-55766191D01*
X70109144Y-55669588D01*
X70107879Y-55667799D01*
X70107633Y-55667522D01*
X70107541Y-55667449D01*
X69992330Y-55581202D01*
X69992328Y-55581201D01*
X69862428Y-55532752D01*
X69858939Y-55531234D01*
X69858025Y-55530996D01*
X69855927Y-55530540D01*
X69852206Y-55530341D01*
X69835312Y-55528524D01*
X69826249Y-55527550D01*
X69826248Y-55527549D01*
X69797876Y-55524500D01*
X69797873Y-55524500D01*
X69797870Y-55524500D01*
X67402133Y-55524500D01*
X67402129Y-55524500D01*
X67393938Y-55524500D01*
X67387975Y-55526021D01*
X67379069Y-55526978D01*
X67342520Y-55530907D01*
X67342514Y-55530908D01*
X67342514Y-55530909D01*
X67342506Y-55530912D01*
X67207671Y-55581200D01*
X67092456Y-55667451D01*
X67092454Y-55667453D01*
X67006200Y-55782671D01*
X66955912Y-55917504D01*
X66955910Y-55917508D01*
X66955910Y-55917511D01*
X66955908Y-55917522D01*
X66949501Y-55977127D01*
X66949500Y-55977132D01*
X59000500Y-55977132D01*
X59000500Y-52993705D01*
X60149500Y-52993705D01*
X60149500Y-53206293D01*
X60182751Y-53416239D01*
X60182752Y-53416243D01*
X60248439Y-53618405D01*
X60248441Y-53618408D01*
X60344808Y-53807541D01*
X60344941Y-53807806D01*
X60344947Y-53807815D01*
X60344948Y-53807816D01*
X60344950Y-53807819D01*
X60469891Y-53979786D01*
X60469893Y-53979788D01*
X60469896Y-53979792D01*
X60620208Y-54130104D01*
X60620211Y-54130106D01*
X60620289Y-54130184D01*
X60620466Y-54130332D01*
X60621791Y-54131255D01*
X60776261Y-54243483D01*
X60792183Y-54255051D01*
X60792189Y-54255055D01*
X60792439Y-54255181D01*
X60981588Y-54351557D01*
X61183557Y-54417181D01*
X61183752Y-54417245D01*
X61183755Y-54417245D01*
X61183757Y-54417246D01*
X61183758Y-54417246D01*
X61183761Y-54417247D01*
X61298667Y-54435446D01*
X61393707Y-54450500D01*
X61606290Y-54450500D01*
X61606293Y-54450500D01*
X61690197Y-54437210D01*
X61816238Y-54417247D01*
X61816238Y-54417246D01*
X61816240Y-54417246D01*
X61816243Y-54417246D01*
X61816246Y-54417245D01*
X61818822Y-54416837D01*
X61823629Y-54414845D01*
X62018412Y-54351557D01*
X62207816Y-54255051D01*
X62223740Y-54243482D01*
X62352820Y-54149700D01*
X62379792Y-54130104D01*
X62530104Y-53979792D01*
X62649477Y-53815488D01*
X62655049Y-53807819D01*
X62655051Y-53807816D01*
X62751557Y-53618412D01*
X62817246Y-53416243D01*
X62826705Y-53356522D01*
X62850500Y-53206290D01*
X62850500Y-52993709D01*
X62850500Y-52993705D01*
X62850464Y-52993475D01*
X70849500Y-52993475D01*
X70849500Y-53356521D01*
X70849508Y-53356572D01*
X70849566Y-53356937D01*
X70864352Y-53450298D01*
X70864362Y-53450322D01*
X70921948Y-53563339D01*
X70921950Y-53563342D01*
X71011658Y-53653050D01*
X71064570Y-53680010D01*
X71112971Y-53704672D01*
X71138028Y-53722877D01*
X71146084Y-53730933D01*
X71173861Y-53785450D01*
X71164290Y-53845882D01*
X71164286Y-53845889D01*
X71162857Y-53848693D01*
X71119597Y-53891950D01*
X71011660Y-53946948D01*
X70921948Y-54036660D01*
X70864354Y-54149693D01*
X70849500Y-54243475D01*
X70849500Y-54606522D01*
X70849508Y-54606572D01*
X70849566Y-54606937D01*
X70864352Y-54700298D01*
X70864362Y-54700322D01*
X70921948Y-54813339D01*
X70921950Y-54813342D01*
X71011658Y-54903050D01*
X71124696Y-54960646D01*
X71218481Y-54975500D01*
X72681518Y-54975499D01*
X72681521Y-54975499D01*
X72686593Y-54975499D01*
X72693092Y-54973665D01*
X72728411Y-54968072D01*
X72767615Y-54961863D01*
X72771506Y-54961557D01*
X72771509Y-54961557D01*
X72779142Y-54960038D01*
X72783064Y-54959416D01*
X72792838Y-54951711D01*
X72888342Y-54903050D01*
X72978050Y-54813342D01*
X73035646Y-54700304D01*
X73050500Y-54606519D01*
X73050499Y-54490177D01*
X73055343Y-54459589D01*
X73059465Y-54446902D01*
X73095427Y-54397405D01*
X73095434Y-54397399D01*
X73097046Y-54396228D01*
X73099566Y-54394398D01*
X73157744Y-54375500D01*
X82734820Y-54375500D01*
X82765408Y-54380343D01*
X82778095Y-54384466D01*
X82827595Y-54420427D01*
X82827596Y-54420428D01*
X82830591Y-54424550D01*
X82849500Y-54482740D01*
X82849500Y-54606522D01*
X82849508Y-54606572D01*
X82849566Y-54606937D01*
X82864352Y-54700298D01*
X82864362Y-54700322D01*
X82921948Y-54813339D01*
X82921950Y-54813342D01*
X83011658Y-54903050D01*
X83124696Y-54960646D01*
X83218481Y-54975500D01*
X84681518Y-54975499D01*
X84681521Y-54975499D01*
X84686593Y-54975499D01*
X84693092Y-54973665D01*
X84728411Y-54968072D01*
X84767615Y-54961863D01*
X84771506Y-54961557D01*
X84771509Y-54961557D01*
X84779142Y-54960038D01*
X84783064Y-54959416D01*
X84792838Y-54951711D01*
X84888342Y-54903050D01*
X84978050Y-54813342D01*
X85035646Y-54700304D01*
X85050500Y-54606519D01*
X85050499Y-54243482D01*
X85035646Y-54149696D01*
X84978050Y-54036658D01*
X84888342Y-53946950D01*
X84888339Y-53946948D01*
X84787025Y-53895325D01*
X84761974Y-53877125D01*
X84753912Y-53869063D01*
X84726137Y-53814550D01*
X84735707Y-53754121D01*
X84737142Y-53751304D01*
X84780400Y-53708049D01*
X84834376Y-53680547D01*
X84888342Y-53653050D01*
X84978050Y-53563342D01*
X85035646Y-53450304D01*
X85050492Y-53356572D01*
X85050500Y-53356521D01*
X85050499Y-52993705D01*
X92149500Y-52993705D01*
X92149500Y-53206293D01*
X92182751Y-53416239D01*
X92182752Y-53416243D01*
X92248439Y-53618405D01*
X92248441Y-53618408D01*
X92344808Y-53807541D01*
X92344941Y-53807806D01*
X92344947Y-53807815D01*
X92344948Y-53807816D01*
X92344950Y-53807819D01*
X92469891Y-53979786D01*
X92469893Y-53979788D01*
X92469896Y-53979792D01*
X92620208Y-54130104D01*
X92620211Y-54130106D01*
X92620289Y-54130184D01*
X92620466Y-54130332D01*
X92621791Y-54131255D01*
X92776261Y-54243483D01*
X92792183Y-54255051D01*
X92792189Y-54255055D01*
X92792439Y-54255181D01*
X92981588Y-54351557D01*
X93183557Y-54417181D01*
X93183752Y-54417245D01*
X93183755Y-54417245D01*
X93183757Y-54417246D01*
X93183758Y-54417246D01*
X93183761Y-54417247D01*
X93298667Y-54435446D01*
X93393707Y-54450500D01*
X93606290Y-54450500D01*
X93606293Y-54450500D01*
X93690197Y-54437210D01*
X93816238Y-54417247D01*
X93816238Y-54417246D01*
X93816240Y-54417246D01*
X93816243Y-54417246D01*
X93816246Y-54417245D01*
X93818822Y-54416837D01*
X93823629Y-54414845D01*
X94018412Y-54351557D01*
X94207816Y-54255051D01*
X94223740Y-54243482D01*
X94352820Y-54149700D01*
X94379792Y-54130104D01*
X94530104Y-53979792D01*
X94649477Y-53815488D01*
X94655049Y-53807819D01*
X94655051Y-53807816D01*
X94751557Y-53618412D01*
X94817246Y-53416243D01*
X94826705Y-53356522D01*
X94850500Y-53206290D01*
X94850500Y-52993709D01*
X94850500Y-52993705D01*
X94817248Y-52783767D01*
X94817247Y-52783761D01*
X94817246Y-52783757D01*
X94751557Y-52581588D01*
X94655181Y-52392439D01*
X94655055Y-52392189D01*
X94655051Y-52392183D01*
X94655049Y-52392180D01*
X94531255Y-52221791D01*
X94530332Y-52220466D01*
X94530184Y-52220289D01*
X94530106Y-52220211D01*
X94530104Y-52220208D01*
X94379792Y-52069896D01*
X94379788Y-52069893D01*
X94379786Y-52069891D01*
X94207819Y-51944950D01*
X94207815Y-51944947D01*
X94207806Y-51944941D01*
X94207541Y-51944808D01*
X94018408Y-51848441D01*
X94018405Y-51848439D01*
X93816243Y-51782752D01*
X93816239Y-51782751D01*
X93606293Y-51749500D01*
X93606290Y-51749500D01*
X93606287Y-51749500D01*
X93393713Y-51749500D01*
X93393710Y-51749500D01*
X93393707Y-51749500D01*
X93183765Y-51782750D01*
X92981583Y-51848444D01*
X92792456Y-51944808D01*
X92792201Y-51944936D01*
X92792183Y-51944947D01*
X92620214Y-52069890D01*
X92469890Y-52220214D01*
X92344947Y-52392183D01*
X92344936Y-52392201D01*
X92344808Y-52392456D01*
X92248443Y-52581584D01*
X92248439Y-52581593D01*
X92182752Y-52783755D01*
X92182751Y-52783759D01*
X92149500Y-52993705D01*
X85050499Y-52993705D01*
X85050499Y-52993479D01*
X85050498Y-52993476D01*
X85035647Y-52899700D01*
X85035646Y-52899698D01*
X85035646Y-52899696D01*
X84978050Y-52786658D01*
X84888342Y-52696950D01*
X84834243Y-52669385D01*
X84809652Y-52644793D01*
X84681524Y-52624500D01*
X84681521Y-52624500D01*
X83218478Y-52624500D01*
X83217759Y-52624500D01*
X83214808Y-52625081D01*
X83124700Y-52639352D01*
X83124676Y-52639362D01*
X83011661Y-52696947D01*
X82921948Y-52786660D01*
X82864354Y-52899693D01*
X82849500Y-52993475D01*
X82849500Y-53109819D01*
X82844656Y-53140408D01*
X82840535Y-53153093D01*
X82804576Y-53202592D01*
X82800453Y-53205588D01*
X82742263Y-53224500D01*
X73165180Y-53224500D01*
X73134587Y-53219654D01*
X73121901Y-53215532D01*
X73072403Y-53179571D01*
X73069408Y-53175449D01*
X73050499Y-53117261D01*
X73050499Y-52993479D01*
X73050498Y-52993476D01*
X73036863Y-52907380D01*
X73036558Y-52903501D01*
X73036556Y-52903492D01*
X73035900Y-52900195D01*
X72978051Y-52786660D01*
X72978050Y-52786658D01*
X72888342Y-52696950D01*
X72834243Y-52669385D01*
X72809652Y-52644793D01*
X72681524Y-52624500D01*
X72681521Y-52624500D01*
X71218478Y-52624500D01*
X71217759Y-52624500D01*
X71214808Y-52625081D01*
X71124700Y-52639352D01*
X71124676Y-52639362D01*
X71011661Y-52696947D01*
X70921948Y-52786660D01*
X70864354Y-52899693D01*
X70849500Y-52993475D01*
X62850464Y-52993475D01*
X62817248Y-52783767D01*
X62817247Y-52783761D01*
X62817246Y-52783757D01*
X62751557Y-52581588D01*
X62655181Y-52392439D01*
X62655055Y-52392189D01*
X62655051Y-52392183D01*
X62655049Y-52392180D01*
X62531255Y-52221791D01*
X62530332Y-52220466D01*
X62530184Y-52220289D01*
X62530106Y-52220211D01*
X62530104Y-52220208D01*
X62379792Y-52069896D01*
X62379788Y-52069893D01*
X62379786Y-52069891D01*
X62207819Y-51944950D01*
X62207815Y-51944947D01*
X62207806Y-51944941D01*
X62207541Y-51944808D01*
X62018408Y-51848441D01*
X62018405Y-51848439D01*
X61816243Y-51782752D01*
X61816239Y-51782751D01*
X61606293Y-51749500D01*
X61606290Y-51749500D01*
X61606287Y-51749500D01*
X61393713Y-51749500D01*
X61393710Y-51749500D01*
X61393707Y-51749500D01*
X61183765Y-51782750D01*
X60981583Y-51848444D01*
X60792456Y-51944808D01*
X60792201Y-51944936D01*
X60792183Y-51944947D01*
X60620214Y-52069890D01*
X60469890Y-52220214D01*
X60344947Y-52392183D01*
X60344936Y-52392201D01*
X60344808Y-52392456D01*
X60248443Y-52581584D01*
X60248439Y-52581593D01*
X60182752Y-52783755D01*
X60182751Y-52783759D01*
X60149500Y-52993705D01*
X59000500Y-52993705D01*
X59000500Y-50615180D01*
X59005343Y-50584594D01*
X59009465Y-50571905D01*
X59045423Y-50522406D01*
X59046022Y-50521971D01*
X59049563Y-50519400D01*
X59107743Y-50500500D01*
X67069143Y-50500500D01*
X67099730Y-50505344D01*
G37*
%TD.AperFunction*%
%TD*%
M02*
