%TF.GenerationSoftware,KiCad,Pcbnew,10.0.6*%
%TF.CreationDate,2026-10-04T12:11:10-05:00*%
%TF.ProjectId,Onboarding,4f6e626f-6172-4646-996e-672e6b696361,rev?*%
%TF.SameCoordinates,Original*%
%TF.FileFunction,Copper,L2,Bot*%
%TF.FilePolarity,Positive*%
%FSLAX46Y46*%
G04 Gerber Fmt 4.6, Leading zero omitted, Abs format (unit mm)*
G04 Created by KiCad (PCBNEW 10.0.6) date 2026-10-04 12:11:10*
%MOMM*%
%LPD*%
G01*
G04 APERTURE LIST*
G04 Aperture macros list*
%AMRoundRect*
0 Rectangle with rounded corners*
0 $1 Rounding radius*
0 $2 $3 $4 $5 $6 $7 $8 $9 X,Y pos of 4 corners*
0 Add a 4 corners polygon primitive as box body*
4,1,4,$2,$3,$4,$5,$6,$7,$8,$9,$2,$3,0*
0 Add four circle primitives for the rounded corners*
1,1,$1+$1,$2,$3*
1,1,$1+$1,$4,$5*
1,1,$1+$1,$6,$7*
1,1,$1+$1,$8,$9*
0 Add four rect primitives between the rounded corners*
20,1,$1+$1,$2,$3,$4,$5,0*
20,1,$1+$1,$4,$5,$6,$7,0*
20,1,$1+$1,$6,$7,$8,$9,0*
20,1,$1+$1,$8,$9,$2,$3,0*%
G04 Aperture macros list end*
%TA.AperFunction,ComponentPad*%
%ADD10RoundRect,0.760000X-1.140000X-1.140000X1.140000X-1.140000X1.140000X1.140000X-1.140000X1.140000X0*%
%TD*%
%TA.AperFunction,ComponentPad*%
%ADD11C,3.800000*%
%TD*%
%TA.AperFunction,ComponentPad*%
%ADD12C,4.000000*%
%TD*%
%TA.AperFunction,ComponentPad*%
%ADD13C,1.400000*%
%TD*%
%TA.AperFunction,ComponentPad*%
%ADD14RoundRect,0.250000X0.550000X0.550000X-0.550000X0.550000X-0.550000X-0.550000X0.550000X-0.550000X0*%
%TD*%
%TA.AperFunction,ComponentPad*%
%ADD15C,1.600000*%
%TD*%
%TA.AperFunction,ViaPad*%
%ADD16C,0.600000*%
%TD*%
G04 APERTURE END LIST*
D10*
%TO.P,J2,1,Pin_1_1*%
%TO.N,GND*%
X150500000Y-98500000D03*
D11*
%TO.P,J2,2,Pin_2_2*%
%TO.N,VCC*%
X155500000Y-98500000D03*
%TD*%
D10*
%TO.P,J1,1,Pin_1_1*%
%TO.N,GND*%
X151500000Y-126500000D03*
D12*
%TO.P,J1,2,Pin_2_2*%
%TO.N,+12V*%
X156500000Y-126500000D03*
%TD*%
D13*
%TO.P,TP3,1,1_1*%
%TO.N,Net-(U1-I_{PK})*%
X164500000Y-114500000D03*
X166500000Y-114500000D03*
%TD*%
%TO.P,TP2,1,1_1*%
%TO.N,Net-(D1-A)*%
X164500000Y-110000000D03*
X166500000Y-110000000D03*
%TD*%
D14*
%TO.P,C2,1*%
%TO.N,VCC*%
X156000000Y-108000000D03*
D15*
%TO.P,C2,2*%
%TO.N,GND*%
X151000000Y-108000000D03*
%TD*%
D16*
%TO.N,GND*%
X149912500Y-122000000D03*
X154135000Y-115025000D03*
X151595000Y-115025000D03*
X164500000Y-119950000D03*
X149637500Y-113000000D03*
%TD*%
%TA.AperFunction,Conductor*%
%TO.N,GND*%
G36*
X167442539Y-95520185D02*
G01*
X167488294Y-95572989D01*
X167499500Y-95624500D01*
X167499500Y-109002375D01*
X167479815Y-109069414D01*
X167427011Y-109115169D01*
X167357853Y-109125113D01*
X167294297Y-109096088D01*
X167287819Y-109090056D01*
X167282075Y-109084312D01*
X167282073Y-109084310D01*
X167129199Y-108973240D01*
X166960836Y-108887454D01*
X166781118Y-108829059D01*
X166594486Y-108799500D01*
X166594481Y-108799500D01*
X166405519Y-108799500D01*
X166405514Y-108799500D01*
X166218881Y-108829059D01*
X166039163Y-108887454D01*
X165870800Y-108973240D01*
X165808290Y-109018657D01*
X165717927Y-109084310D01*
X165717925Y-109084312D01*
X165717924Y-109084312D01*
X165587681Y-109214556D01*
X165526358Y-109248041D01*
X165456666Y-109243057D01*
X165412319Y-109214556D01*
X165282075Y-109084312D01*
X165282073Y-109084310D01*
X165129199Y-108973240D01*
X164960836Y-108887454D01*
X164781118Y-108829059D01*
X164594486Y-108799500D01*
X164594481Y-108799500D01*
X164405519Y-108799500D01*
X164405514Y-108799500D01*
X164218881Y-108829059D01*
X164039163Y-108887454D01*
X163870800Y-108973240D01*
X163808290Y-109018657D01*
X163717927Y-109084310D01*
X163717925Y-109084312D01*
X163717924Y-109084312D01*
X163584312Y-109217924D01*
X163584312Y-109217925D01*
X163584310Y-109217927D01*
X163572041Y-109234814D01*
X163473240Y-109370800D01*
X163387454Y-109539163D01*
X163329059Y-109718881D01*
X163299500Y-109905513D01*
X163299500Y-110094486D01*
X163329059Y-110281118D01*
X163387454Y-110460836D01*
X163473240Y-110629199D01*
X163584310Y-110782073D01*
X163717927Y-110915690D01*
X163870801Y-111026760D01*
X163950347Y-111067290D01*
X164039163Y-111112545D01*
X164039165Y-111112545D01*
X164039168Y-111112547D01*
X164135497Y-111143846D01*
X164218881Y-111170940D01*
X164405514Y-111200500D01*
X164405519Y-111200500D01*
X164594486Y-111200500D01*
X164781118Y-111170940D01*
X164960832Y-111112547D01*
X165129199Y-111026760D01*
X165282073Y-110915690D01*
X165412319Y-110785444D01*
X165473642Y-110751959D01*
X165543334Y-110756943D01*
X165587681Y-110785444D01*
X165717927Y-110915690D01*
X165870801Y-111026760D01*
X165950347Y-111067290D01*
X166039163Y-111112545D01*
X166039165Y-111112545D01*
X166039168Y-111112547D01*
X166135497Y-111143846D01*
X166218881Y-111170940D01*
X166405514Y-111200500D01*
X166405519Y-111200500D01*
X166594486Y-111200500D01*
X166781118Y-111170940D01*
X166960832Y-111112547D01*
X167129199Y-111026760D01*
X167282073Y-110915690D01*
X167287819Y-110909944D01*
X167349142Y-110876459D01*
X167418834Y-110881443D01*
X167474767Y-110923315D01*
X167499184Y-110988779D01*
X167499500Y-110997625D01*
X167499500Y-113502375D01*
X167479815Y-113569414D01*
X167427011Y-113615169D01*
X167357853Y-113625113D01*
X167294297Y-113596088D01*
X167287819Y-113590056D01*
X167282075Y-113584312D01*
X167282073Y-113584310D01*
X167129199Y-113473240D01*
X166960836Y-113387454D01*
X166781118Y-113329059D01*
X166594486Y-113299500D01*
X166594481Y-113299500D01*
X166405519Y-113299500D01*
X166405514Y-113299500D01*
X166218881Y-113329059D01*
X166039163Y-113387454D01*
X165870800Y-113473240D01*
X165830700Y-113502375D01*
X165717927Y-113584310D01*
X165717925Y-113584312D01*
X165717924Y-113584312D01*
X165587681Y-113714556D01*
X165526358Y-113748041D01*
X165456666Y-113743057D01*
X165412319Y-113714556D01*
X165282075Y-113584312D01*
X165282073Y-113584310D01*
X165129199Y-113473240D01*
X164960836Y-113387454D01*
X164781118Y-113329059D01*
X164594486Y-113299500D01*
X164594481Y-113299500D01*
X164405519Y-113299500D01*
X164405514Y-113299500D01*
X164218881Y-113329059D01*
X164039163Y-113387454D01*
X163870800Y-113473240D01*
X163830700Y-113502375D01*
X163717927Y-113584310D01*
X163717925Y-113584312D01*
X163717924Y-113584312D01*
X163584312Y-113717924D01*
X163584312Y-113717925D01*
X163584310Y-113717927D01*
X163566052Y-113743057D01*
X163473240Y-113870800D01*
X163387454Y-114039163D01*
X163329059Y-114218881D01*
X163299500Y-114405513D01*
X163299500Y-114594486D01*
X163329059Y-114781118D01*
X163387454Y-114960836D01*
X163473240Y-115129199D01*
X163584310Y-115282073D01*
X163717927Y-115415690D01*
X163870801Y-115526760D01*
X163950347Y-115567290D01*
X164039163Y-115612545D01*
X164039165Y-115612545D01*
X164039168Y-115612547D01*
X164135497Y-115643846D01*
X164218881Y-115670940D01*
X164405514Y-115700500D01*
X164405519Y-115700500D01*
X164594486Y-115700500D01*
X164781118Y-115670940D01*
X164960832Y-115612547D01*
X165129199Y-115526760D01*
X165282073Y-115415690D01*
X165412319Y-115285444D01*
X165473642Y-115251959D01*
X165543334Y-115256943D01*
X165587681Y-115285444D01*
X165717927Y-115415690D01*
X165870801Y-115526760D01*
X165950347Y-115567290D01*
X166039163Y-115612545D01*
X166039165Y-115612545D01*
X166039168Y-115612547D01*
X166135497Y-115643846D01*
X166218881Y-115670940D01*
X166405514Y-115700500D01*
X166405519Y-115700500D01*
X166594486Y-115700500D01*
X166781118Y-115670940D01*
X166960832Y-115612547D01*
X167129199Y-115526760D01*
X167282073Y-115415690D01*
X167287819Y-115409944D01*
X167349142Y-115376459D01*
X167418834Y-115381443D01*
X167474767Y-115423315D01*
X167499184Y-115488779D01*
X167499500Y-115497625D01*
X167499500Y-129375500D01*
X167479815Y-129442539D01*
X167427011Y-129488294D01*
X167375500Y-129499500D01*
X139624500Y-129499500D01*
X139557461Y-129479815D01*
X139511706Y-129427011D01*
X139500500Y-129375500D01*
X139500500Y-126893713D01*
X141149500Y-126893713D01*
X141149500Y-127106287D01*
X141182754Y-127316243D01*
X141228947Y-127458411D01*
X141248444Y-127518414D01*
X141344951Y-127707820D01*
X141469890Y-127879786D01*
X141620213Y-128030109D01*
X141792179Y-128155048D01*
X141792181Y-128155049D01*
X141792184Y-128155051D01*
X141981588Y-128251557D01*
X142183757Y-128317246D01*
X142393713Y-128350500D01*
X142393714Y-128350500D01*
X142606286Y-128350500D01*
X142606287Y-128350500D01*
X142816243Y-128317246D01*
X143018412Y-128251557D01*
X143207816Y-128155051D01*
X143229789Y-128139086D01*
X143379786Y-128030109D01*
X143379788Y-128030106D01*
X143379792Y-128030104D01*
X143530104Y-127879792D01*
X143530106Y-127879788D01*
X143530109Y-127879786D01*
X143652414Y-127711445D01*
X143655051Y-127707816D01*
X143751557Y-127518412D01*
X143817246Y-127316243D01*
X143850500Y-127106287D01*
X143850500Y-126893713D01*
X143817246Y-126683757D01*
X143751557Y-126481588D01*
X143655051Y-126292184D01*
X143655049Y-126292181D01*
X143655048Y-126292179D01*
X143530109Y-126120213D01*
X143379786Y-125969890D01*
X143207820Y-125844951D01*
X143018414Y-125748444D01*
X143018413Y-125748443D01*
X143018412Y-125748443D01*
X142816243Y-125682754D01*
X142816241Y-125682753D01*
X142816240Y-125682753D01*
X142654957Y-125657208D01*
X142606287Y-125649500D01*
X142393713Y-125649500D01*
X142345042Y-125657208D01*
X142183760Y-125682753D01*
X141981585Y-125748444D01*
X141792179Y-125844951D01*
X141620213Y-125969890D01*
X141469890Y-126120213D01*
X141344951Y-126292179D01*
X141248444Y-126481585D01*
X141182753Y-126683760D01*
X141149500Y-126893713D01*
X139500500Y-126893713D01*
X139500500Y-125295280D01*
X149100000Y-125295280D01*
X149100000Y-126250000D01*
X150172769Y-126250000D01*
X150150000Y-126393753D01*
X150150000Y-126606247D01*
X150172769Y-126750000D01*
X149100000Y-126750000D01*
X149100000Y-127704719D01*
X149110482Y-127837906D01*
X149110483Y-127837912D01*
X149165898Y-128057829D01*
X149165899Y-128057832D01*
X149259695Y-128264330D01*
X149259698Y-128264336D01*
X149388851Y-128450758D01*
X149388861Y-128450770D01*
X149549229Y-128611138D01*
X149549241Y-128611148D01*
X149735663Y-128740301D01*
X149735669Y-128740304D01*
X149942167Y-128834100D01*
X149942170Y-128834101D01*
X150162087Y-128889516D01*
X150162093Y-128889517D01*
X150295280Y-128899999D01*
X150295294Y-128900000D01*
X151250000Y-128900000D01*
X151250000Y-127827231D01*
X151393753Y-127850000D01*
X151606247Y-127850000D01*
X151750000Y-127827231D01*
X151750000Y-128900000D01*
X152704706Y-128900000D01*
X152704719Y-128899999D01*
X152837906Y-128889517D01*
X152837912Y-128889516D01*
X153057829Y-128834101D01*
X153057832Y-128834100D01*
X153264330Y-128740304D01*
X153264336Y-128740301D01*
X153450758Y-128611148D01*
X153450770Y-128611138D01*
X153611138Y-128450770D01*
X153611148Y-128450758D01*
X153740301Y-128264336D01*
X153740304Y-128264330D01*
X153834100Y-128057832D01*
X153834101Y-128057829D01*
X153889516Y-127837912D01*
X153889517Y-127837906D01*
X153899999Y-127704719D01*
X153900000Y-127704706D01*
X153900000Y-127370309D01*
X153919685Y-127303270D01*
X153972489Y-127257515D01*
X154041647Y-127247571D01*
X154105203Y-127276596D01*
X154141041Y-127329354D01*
X154186200Y-127458411D01*
X154308053Y-127711442D01*
X154308055Y-127711445D01*
X154457477Y-127949248D01*
X154521958Y-128030104D01*
X154621599Y-128155051D01*
X154632584Y-128168825D01*
X154831175Y-128367416D01*
X155050752Y-128542523D01*
X155288555Y-128691945D01*
X155541592Y-128813801D01*
X155740680Y-128883465D01*
X155806670Y-128906556D01*
X155806682Y-128906560D01*
X156080491Y-128969055D01*
X156080497Y-128969055D01*
X156080505Y-128969057D01*
X156266547Y-128990018D01*
X156359569Y-129000499D01*
X156359572Y-129000500D01*
X156359575Y-129000500D01*
X156640428Y-129000500D01*
X156640429Y-129000499D01*
X156783055Y-128984429D01*
X156919494Y-128969057D01*
X156919499Y-128969056D01*
X156919509Y-128969055D01*
X157193318Y-128906560D01*
X157458408Y-128813801D01*
X157711445Y-128691945D01*
X157949248Y-128542523D01*
X158168825Y-128367416D01*
X158367416Y-128168825D01*
X158542523Y-127949248D01*
X158691945Y-127711445D01*
X158813801Y-127458408D01*
X158906560Y-127193318D01*
X158969055Y-126919509D01*
X158971962Y-126893713D01*
X164149500Y-126893713D01*
X164149500Y-127106287D01*
X164182754Y-127316243D01*
X164228947Y-127458411D01*
X164248444Y-127518414D01*
X164344951Y-127707820D01*
X164469890Y-127879786D01*
X164620213Y-128030109D01*
X164792179Y-128155048D01*
X164792181Y-128155049D01*
X164792184Y-128155051D01*
X164981588Y-128251557D01*
X165183757Y-128317246D01*
X165393713Y-128350500D01*
X165393714Y-128350500D01*
X165606286Y-128350500D01*
X165606287Y-128350500D01*
X165816243Y-128317246D01*
X166018412Y-128251557D01*
X166207816Y-128155051D01*
X166229789Y-128139086D01*
X166379786Y-128030109D01*
X166379788Y-128030106D01*
X166379792Y-128030104D01*
X166530104Y-127879792D01*
X166530106Y-127879788D01*
X166530109Y-127879786D01*
X166652414Y-127711445D01*
X166655051Y-127707816D01*
X166751557Y-127518412D01*
X166817246Y-127316243D01*
X166850500Y-127106287D01*
X166850500Y-126893713D01*
X166817246Y-126683757D01*
X166751557Y-126481588D01*
X166655051Y-126292184D01*
X166655049Y-126292181D01*
X166655048Y-126292179D01*
X166530109Y-126120213D01*
X166379786Y-125969890D01*
X166207820Y-125844951D01*
X166018414Y-125748444D01*
X166018413Y-125748443D01*
X166018412Y-125748443D01*
X165816243Y-125682754D01*
X165816241Y-125682753D01*
X165816240Y-125682753D01*
X165654957Y-125657208D01*
X165606287Y-125649500D01*
X165393713Y-125649500D01*
X165345042Y-125657208D01*
X165183760Y-125682753D01*
X164981585Y-125748444D01*
X164792179Y-125844951D01*
X164620213Y-125969890D01*
X164469890Y-126120213D01*
X164344951Y-126292179D01*
X164248444Y-126481585D01*
X164182753Y-126683760D01*
X164149500Y-126893713D01*
X158971962Y-126893713D01*
X158974075Y-126874958D01*
X158974075Y-126874957D01*
X158991755Y-126718040D01*
X159000500Y-126640425D01*
X159000500Y-126359575D01*
X158988154Y-126250000D01*
X158969057Y-126080505D01*
X158969054Y-126080487D01*
X158906560Y-125806682D01*
X158906556Y-125806670D01*
X158863195Y-125682753D01*
X158813801Y-125541592D01*
X158691945Y-125288555D01*
X158542523Y-125050752D01*
X158367416Y-124831175D01*
X158168825Y-124632584D01*
X157949248Y-124457477D01*
X157711445Y-124308055D01*
X157711442Y-124308053D01*
X157458411Y-124186200D01*
X157193329Y-124093443D01*
X157193317Y-124093439D01*
X156919512Y-124030945D01*
X156919494Y-124030942D01*
X156640431Y-123999500D01*
X156640425Y-123999500D01*
X156359575Y-123999500D01*
X156359568Y-123999500D01*
X156080505Y-124030942D01*
X156080487Y-124030945D01*
X155806682Y-124093439D01*
X155806670Y-124093443D01*
X155541588Y-124186200D01*
X155288557Y-124308053D01*
X155050753Y-124457476D01*
X154831175Y-124632583D01*
X154632583Y-124831175D01*
X154457476Y-125050753D01*
X154308053Y-125288557D01*
X154186200Y-125541588D01*
X154141041Y-125670645D01*
X154100319Y-125727421D01*
X154035367Y-125753168D01*
X153966805Y-125739712D01*
X153916402Y-125691324D01*
X153900000Y-125629690D01*
X153900000Y-125295293D01*
X153899999Y-125295280D01*
X153889517Y-125162093D01*
X153889516Y-125162087D01*
X153834101Y-124942170D01*
X153834100Y-124942167D01*
X153740304Y-124735669D01*
X153740301Y-124735663D01*
X153611148Y-124549241D01*
X153611138Y-124549229D01*
X153450770Y-124388861D01*
X153450758Y-124388851D01*
X153264336Y-124259698D01*
X153264330Y-124259695D01*
X153057832Y-124165899D01*
X153057829Y-124165898D01*
X152837912Y-124110483D01*
X152837906Y-124110482D01*
X152704719Y-124100000D01*
X151750000Y-124100000D01*
X151750000Y-125172768D01*
X151606247Y-125150000D01*
X151393753Y-125150000D01*
X151250000Y-125172768D01*
X151250000Y-124100000D01*
X150295280Y-124100000D01*
X150162093Y-124110482D01*
X150162087Y-124110483D01*
X149942170Y-124165898D01*
X149942167Y-124165899D01*
X149735669Y-124259695D01*
X149735663Y-124259698D01*
X149549241Y-124388851D01*
X149549229Y-124388861D01*
X149388861Y-124549229D01*
X149388851Y-124549241D01*
X149259698Y-124735663D01*
X149259695Y-124735669D01*
X149165899Y-124942167D01*
X149165898Y-124942170D01*
X149110483Y-125162087D01*
X149110482Y-125162093D01*
X149100000Y-125295280D01*
X139500500Y-125295280D01*
X139500500Y-107897682D01*
X149700000Y-107897682D01*
X149700000Y-108102317D01*
X149732009Y-108304417D01*
X149795244Y-108499031D01*
X149888141Y-108681350D01*
X149888147Y-108681359D01*
X149920523Y-108725921D01*
X149920524Y-108725922D01*
X150600000Y-108046446D01*
X150600000Y-108052661D01*
X150627259Y-108154394D01*
X150679920Y-108245606D01*
X150754394Y-108320080D01*
X150845606Y-108372741D01*
X150947339Y-108400000D01*
X150953553Y-108400000D01*
X150274076Y-109079474D01*
X150318650Y-109111859D01*
X150500968Y-109204755D01*
X150695582Y-109267990D01*
X150897683Y-109300000D01*
X151102317Y-109300000D01*
X151304417Y-109267990D01*
X151499031Y-109204755D01*
X151681349Y-109111859D01*
X151725921Y-109079474D01*
X151046447Y-108400000D01*
X151052661Y-108400000D01*
X151154394Y-108372741D01*
X151245606Y-108320080D01*
X151320080Y-108245606D01*
X151372741Y-108154394D01*
X151400000Y-108052661D01*
X151400000Y-108046447D01*
X152079474Y-108725921D01*
X152111859Y-108681349D01*
X152204755Y-108499031D01*
X152267990Y-108304417D01*
X152300000Y-108102317D01*
X152300000Y-107897682D01*
X152267990Y-107695582D01*
X152204754Y-107500965D01*
X152180381Y-107453130D01*
X152180380Y-107453129D01*
X152153301Y-107399983D01*
X154699500Y-107399983D01*
X154699500Y-108600001D01*
X154699501Y-108600018D01*
X154710000Y-108702796D01*
X154710001Y-108702799D01*
X154742045Y-108799500D01*
X154765186Y-108869334D01*
X154857288Y-109018656D01*
X154981344Y-109142712D01*
X155130666Y-109234814D01*
X155297203Y-109289999D01*
X155399991Y-109300500D01*
X156600008Y-109300499D01*
X156702797Y-109289999D01*
X156869334Y-109234814D01*
X157018656Y-109142712D01*
X157142712Y-109018656D01*
X157234814Y-108869334D01*
X157289999Y-108702797D01*
X157300500Y-108600009D01*
X157300499Y-107399992D01*
X157289999Y-107297203D01*
X157234814Y-107130666D01*
X157142712Y-106981344D01*
X157018656Y-106857288D01*
X156869334Y-106765186D01*
X156702797Y-106710001D01*
X156702795Y-106710000D01*
X156600010Y-106699500D01*
X155399998Y-106699500D01*
X155399981Y-106699501D01*
X155297203Y-106710000D01*
X155297200Y-106710001D01*
X155130668Y-106765185D01*
X155130663Y-106765187D01*
X154981342Y-106857289D01*
X154857289Y-106981342D01*
X154765187Y-107130663D01*
X154765186Y-107130666D01*
X154710001Y-107297203D01*
X154710001Y-107297204D01*
X154710000Y-107297204D01*
X154699500Y-107399983D01*
X152153301Y-107399983D01*
X152111859Y-107318650D01*
X152079474Y-107274077D01*
X152079474Y-107274076D01*
X151400000Y-107953551D01*
X151400000Y-107947339D01*
X151372741Y-107845606D01*
X151320080Y-107754394D01*
X151245606Y-107679920D01*
X151154394Y-107627259D01*
X151052661Y-107600000D01*
X151046446Y-107600000D01*
X151725922Y-106920524D01*
X151725921Y-106920523D01*
X151681359Y-106888147D01*
X151681350Y-106888141D01*
X151499031Y-106795244D01*
X151304417Y-106732009D01*
X151102317Y-106700000D01*
X150897683Y-106700000D01*
X150695582Y-106732009D01*
X150500968Y-106795244D01*
X150318644Y-106888143D01*
X150274077Y-106920523D01*
X150274077Y-106920524D01*
X150953554Y-107600000D01*
X150947339Y-107600000D01*
X150845606Y-107627259D01*
X150754394Y-107679920D01*
X150679920Y-107754394D01*
X150627259Y-107845606D01*
X150600000Y-107947339D01*
X150600000Y-107953553D01*
X149920524Y-107274077D01*
X149920523Y-107274077D01*
X149888143Y-107318644D01*
X149795244Y-107500968D01*
X149732009Y-107695582D01*
X149700000Y-107897682D01*
X139500500Y-107897682D01*
X139500500Y-97393713D01*
X141149500Y-97393713D01*
X141149500Y-97606287D01*
X141182754Y-97816243D01*
X141245921Y-98010651D01*
X141248444Y-98018414D01*
X141344951Y-98207820D01*
X141469890Y-98379786D01*
X141620213Y-98530109D01*
X141792179Y-98655048D01*
X141792181Y-98655049D01*
X141792184Y-98655051D01*
X141981588Y-98751557D01*
X142183757Y-98817246D01*
X142393713Y-98850500D01*
X142393714Y-98850500D01*
X142606286Y-98850500D01*
X142606287Y-98850500D01*
X142816243Y-98817246D01*
X143018412Y-98751557D01*
X143207816Y-98655051D01*
X143379792Y-98530104D01*
X143530104Y-98379792D01*
X143530106Y-98379788D01*
X143530109Y-98379786D01*
X143655048Y-98207820D01*
X143655047Y-98207820D01*
X143655051Y-98207816D01*
X143751557Y-98018412D01*
X143817246Y-97816243D01*
X143850500Y-97606287D01*
X143850500Y-97393713D01*
X143834910Y-97295280D01*
X148100000Y-97295280D01*
X148100000Y-98250000D01*
X149172769Y-98250000D01*
X149150000Y-98393753D01*
X149150000Y-98606247D01*
X149172769Y-98750000D01*
X148100000Y-98750000D01*
X148100000Y-99704719D01*
X148110482Y-99837906D01*
X148110483Y-99837912D01*
X148165898Y-100057829D01*
X148165899Y-100057832D01*
X148259695Y-100264330D01*
X148259698Y-100264336D01*
X148388851Y-100450758D01*
X148388861Y-100450770D01*
X148549229Y-100611138D01*
X148549241Y-100611148D01*
X148735663Y-100740301D01*
X148735669Y-100740304D01*
X148942167Y-100834100D01*
X148942170Y-100834101D01*
X149162087Y-100889516D01*
X149162093Y-100889517D01*
X149295280Y-100899999D01*
X149295294Y-100900000D01*
X150250000Y-100900000D01*
X150250000Y-99827231D01*
X150393753Y-99850000D01*
X150606247Y-99850000D01*
X150750000Y-99827231D01*
X150750000Y-100900000D01*
X151704706Y-100900000D01*
X151704719Y-100899999D01*
X151837906Y-100889517D01*
X151837912Y-100889516D01*
X152057829Y-100834101D01*
X152057832Y-100834100D01*
X152264330Y-100740304D01*
X152264336Y-100740301D01*
X152450758Y-100611148D01*
X152450770Y-100611138D01*
X152611138Y-100450770D01*
X152611148Y-100450758D01*
X152740301Y-100264336D01*
X152740304Y-100264330D01*
X152834100Y-100057832D01*
X152834101Y-100057829D01*
X152889516Y-99837912D01*
X152889517Y-99837906D01*
X152899999Y-99704719D01*
X152900000Y-99704706D01*
X152900000Y-98996932D01*
X152919685Y-98929893D01*
X152972489Y-98884138D01*
X153041647Y-98874194D01*
X153105203Y-98903219D01*
X153142977Y-98961997D01*
X153144891Y-98969340D01*
X153189683Y-99165590D01*
X153189687Y-99165602D01*
X153278734Y-99420082D01*
X153395714Y-99662994D01*
X153395716Y-99662997D01*
X153539162Y-99891289D01*
X153707266Y-100102085D01*
X153897915Y-100292734D01*
X154108711Y-100460838D01*
X154337003Y-100604284D01*
X154579921Y-100721267D01*
X154771049Y-100788145D01*
X154834397Y-100810312D01*
X154834405Y-100810315D01*
X154834408Y-100810315D01*
X154834409Y-100810316D01*
X155097268Y-100870312D01*
X155365187Y-100900499D01*
X155365188Y-100900500D01*
X155365191Y-100900500D01*
X155634812Y-100900500D01*
X155634812Y-100900499D01*
X155902732Y-100870312D01*
X156165591Y-100810316D01*
X156420079Y-100721267D01*
X156662997Y-100604284D01*
X156891289Y-100460838D01*
X157102085Y-100292734D01*
X157292734Y-100102085D01*
X157460838Y-99891289D01*
X157604284Y-99662997D01*
X157721267Y-99420079D01*
X157810316Y-99165591D01*
X157870312Y-98902732D01*
X157900500Y-98634809D01*
X157900500Y-98365191D01*
X157870312Y-98097268D01*
X157810316Y-97834409D01*
X157803959Y-97816243D01*
X157735478Y-97620534D01*
X157721267Y-97579921D01*
X157721264Y-97579916D01*
X157721262Y-97579909D01*
X157655158Y-97442642D01*
X157631595Y-97393713D01*
X164149500Y-97393713D01*
X164149500Y-97606287D01*
X164182754Y-97816243D01*
X164245921Y-98010651D01*
X164248444Y-98018414D01*
X164344951Y-98207820D01*
X164469890Y-98379786D01*
X164620213Y-98530109D01*
X164792179Y-98655048D01*
X164792181Y-98655049D01*
X164792184Y-98655051D01*
X164981588Y-98751557D01*
X165183757Y-98817246D01*
X165393713Y-98850500D01*
X165393714Y-98850500D01*
X165606286Y-98850500D01*
X165606287Y-98850500D01*
X165816243Y-98817246D01*
X166018412Y-98751557D01*
X166207816Y-98655051D01*
X166235677Y-98634809D01*
X166379786Y-98530109D01*
X166379788Y-98530106D01*
X166379792Y-98530104D01*
X166530104Y-98379792D01*
X166530106Y-98379788D01*
X166530109Y-98379786D01*
X166655048Y-98207820D01*
X166655047Y-98207820D01*
X166655051Y-98207816D01*
X166751557Y-98018412D01*
X166817246Y-97816243D01*
X166850500Y-97606287D01*
X166850500Y-97393713D01*
X166817246Y-97183757D01*
X166751557Y-96981588D01*
X166655051Y-96792184D01*
X166655049Y-96792181D01*
X166655048Y-96792179D01*
X166530109Y-96620213D01*
X166379786Y-96469890D01*
X166207820Y-96344951D01*
X166018414Y-96248444D01*
X166018413Y-96248443D01*
X166018412Y-96248443D01*
X165816243Y-96182754D01*
X165816241Y-96182753D01*
X165816240Y-96182753D01*
X165654957Y-96157208D01*
X165606287Y-96149500D01*
X165393713Y-96149500D01*
X165345042Y-96157208D01*
X165183760Y-96182753D01*
X164981585Y-96248444D01*
X164792179Y-96344951D01*
X164620213Y-96469890D01*
X164469890Y-96620213D01*
X164344951Y-96792179D01*
X164248444Y-96981585D01*
X164182753Y-97183760D01*
X164172435Y-97248906D01*
X164149500Y-97393713D01*
X157631595Y-97393713D01*
X157604285Y-97337005D01*
X157588730Y-97312249D01*
X157460838Y-97108711D01*
X157292734Y-96897915D01*
X157102085Y-96707266D01*
X156891289Y-96539162D01*
X156662997Y-96395716D01*
X156662994Y-96395714D01*
X156420082Y-96278734D01*
X156165602Y-96189687D01*
X156165594Y-96189684D01*
X155968446Y-96144687D01*
X155902732Y-96129688D01*
X155902728Y-96129687D01*
X155902719Y-96129686D01*
X155634813Y-96099500D01*
X155634809Y-96099500D01*
X155365191Y-96099500D01*
X155365186Y-96099500D01*
X155097280Y-96129686D01*
X155097268Y-96129688D01*
X154834405Y-96189684D01*
X154834397Y-96189687D01*
X154579917Y-96278734D01*
X154337005Y-96395714D01*
X154108712Y-96539161D01*
X153897915Y-96707265D01*
X153707265Y-96897915D01*
X153539161Y-97108712D01*
X153395714Y-97337005D01*
X153278734Y-97579917D01*
X153189687Y-97834397D01*
X153189684Y-97834405D01*
X153144891Y-98030660D01*
X153110782Y-98091638D01*
X153049121Y-98124496D01*
X152979484Y-98118801D01*
X152923980Y-98076361D01*
X152900232Y-98010651D01*
X152900000Y-98003067D01*
X152900000Y-97295293D01*
X152899999Y-97295280D01*
X152889517Y-97162093D01*
X152889516Y-97162087D01*
X152834101Y-96942170D01*
X152834100Y-96942167D01*
X152740304Y-96735669D01*
X152740301Y-96735663D01*
X152611148Y-96549241D01*
X152611138Y-96549229D01*
X152450770Y-96388861D01*
X152450758Y-96388851D01*
X152264336Y-96259698D01*
X152264330Y-96259695D01*
X152057832Y-96165899D01*
X152057829Y-96165898D01*
X151837912Y-96110483D01*
X151837906Y-96110482D01*
X151704719Y-96100000D01*
X150750000Y-96100000D01*
X150750000Y-97172768D01*
X150606247Y-97150000D01*
X150393753Y-97150000D01*
X150250000Y-97172768D01*
X150250000Y-96100000D01*
X149295280Y-96100000D01*
X149162093Y-96110482D01*
X149162087Y-96110483D01*
X148942170Y-96165898D01*
X148942167Y-96165899D01*
X148735669Y-96259695D01*
X148735663Y-96259698D01*
X148549241Y-96388851D01*
X148549229Y-96388861D01*
X148388861Y-96549229D01*
X148388851Y-96549241D01*
X148259698Y-96735663D01*
X148259695Y-96735669D01*
X148165899Y-96942167D01*
X148165898Y-96942170D01*
X148110483Y-97162087D01*
X148110482Y-97162093D01*
X148100000Y-97295280D01*
X143834910Y-97295280D01*
X143817246Y-97183757D01*
X143751557Y-96981588D01*
X143655051Y-96792184D01*
X143655049Y-96792181D01*
X143655048Y-96792179D01*
X143530109Y-96620213D01*
X143379786Y-96469890D01*
X143207820Y-96344951D01*
X143018414Y-96248444D01*
X143018413Y-96248443D01*
X143018412Y-96248443D01*
X142816243Y-96182754D01*
X142816241Y-96182753D01*
X142816240Y-96182753D01*
X142654957Y-96157208D01*
X142606287Y-96149500D01*
X142393713Y-96149500D01*
X142345042Y-96157208D01*
X142183760Y-96182753D01*
X141981585Y-96248444D01*
X141792179Y-96344951D01*
X141620213Y-96469890D01*
X141469890Y-96620213D01*
X141344951Y-96792179D01*
X141248444Y-96981585D01*
X141182753Y-97183760D01*
X141172435Y-97248906D01*
X141149500Y-97393713D01*
X139500500Y-97393713D01*
X139500500Y-95624500D01*
X139520185Y-95557461D01*
X139572989Y-95511706D01*
X139624500Y-95500500D01*
X167375500Y-95500500D01*
X167442539Y-95520185D01*
G37*
%TD.AperFunction*%
%TD*%
M02*
