%TF.GenerationSoftware,KiCad,Pcbnew,10.0.6*%
%TF.CreationDate,2026-10-04T12:11:10-05:00*%
%TF.ProjectId,Onboarding,4f6e626f-6172-4646-996e-672e6b696361,rev?*%
%TF.SameCoordinates,Original*%
%TF.FileFunction,Soldermask,Top*%
%TF.FilePolarity,Negative*%
%FSLAX46Y46*%
G04 Gerber Fmt 4.6, Leading zero omitted, Abs format (unit mm)*
G04 Created by KiCad (PCBNEW 10.0.6) date 2026-10-04 12:11:10*
%MOMM*%
%LPD*%
G01*
G04 APERTURE LIST*
G04 Aperture macros list*
%AMRoundRect*
0 Rectangle with rounded corners*
0 $1 Rounding radius*
0 $2 $3 $4 $5 $6 $7 $8 $9 X,Y pos of 4 corners*
0 Add a 4 corners polygon primitive as box body*
4,1,4,$2,$3,$4,$5,$6,$7,$8,$9,$2,$3,0*
0 Add four circle primitives for the rounded corners*
1,1,$1+$1,$2,$3*
1,1,$1+$1,$4,$5*
1,1,$1+$1,$6,$7*
1,1,$1+$1,$8,$9*
0 Add four rect primitives between the rounded corners*
20,1,$1+$1,$2,$3,$4,$5,0*
20,1,$1+$1,$4,$5,$6,$7,0*
20,1,$1+$1,$6,$7,$8,$9,0*
20,1,$1+$1,$8,$9,$2,$3,0*%
G04 Aperture macros list end*
%ADD10RoundRect,0.237500X0.250000X0.237500X-0.250000X0.237500X-0.250000X-0.237500X0.250000X-0.237500X0*%
%ADD11RoundRect,0.237500X-0.250000X-0.237500X0.250000X-0.237500X0.250000X0.237500X-0.250000X0.237500X0*%
%ADD12RoundRect,0.760000X-1.140000X-1.140000X1.140000X-1.140000X1.140000X1.140000X-1.140000X1.140000X0*%
%ADD13C,3.800000*%
%ADD14C,4.000000*%
%ADD15RoundRect,0.150000X-0.150000X0.825000X-0.150000X-0.825000X0.150000X-0.825000X0.150000X0.825000X0*%
%ADD16RoundRect,0.250000X-0.300000X-0.300000X0.300000X-0.300000X0.300000X0.300000X-0.300000X0.300000X0*%
%ADD17C,1.400000*%
%ADD18RoundRect,0.250000X0.350000X0.450000X-0.350000X0.450000X-0.350000X-0.450000X0.350000X-0.450000X0*%
%ADD19RoundRect,0.250000X1.075000X-0.375000X1.075000X0.375000X-1.075000X0.375000X-1.075000X-0.375000X0*%
%ADD20RoundRect,0.150000X-0.150000X-0.700000X0.150000X-0.700000X0.150000X0.700000X-0.150000X0.700000X0*%
%ADD21RoundRect,0.250000X-0.250000X-1.150000X0.250000X-1.150000X0.250000X1.150000X-0.250000X1.150000X0*%
%ADD22C,2.200000*%
%ADD23RoundRect,0.237500X0.300000X0.237500X-0.300000X0.237500X-0.300000X-0.237500X0.300000X-0.237500X0*%
%ADD24RoundRect,0.250000X0.550000X0.550000X-0.550000X0.550000X-0.550000X-0.550000X0.550000X-0.550000X0*%
%ADD25C,1.600000*%
%ADD26RoundRect,0.250000X-0.475000X0.250000X-0.475000X-0.250000X0.475000X-0.250000X0.475000X0.250000X0*%
G04 APERTURE END LIST*
D10*
%TO.C,R3*%
X148087500Y-117000000D03*
X149912500Y-117000000D03*
%TD*%
D11*
%TO.C,R2*%
X149912500Y-122000000D03*
X148087500Y-122000000D03*
%TD*%
D12*
%TO.C,J2*%
X150500000Y-98500000D03*
D13*
X155500000Y-98500000D03*
%TD*%
D12*
%TO.C,J1*%
X151500000Y-126500000D03*
D14*
X156500000Y-126500000D03*
%TD*%
D15*
%TO.C,U1*%
X155405000Y-119975000D03*
X154135000Y-119975000D03*
X152865000Y-119975000D03*
X151595000Y-119975000D03*
X151595000Y-115025000D03*
X152865000Y-115025000D03*
X154135000Y-115025000D03*
X155405000Y-115025000D03*
%TD*%
D16*
%TO.C,D1*%
X161900000Y-110500000D03*
X159100000Y-110500000D03*
%TD*%
D17*
%TO.C,TP3*%
X164500000Y-114500000D03*
X166500000Y-114500000D03*
%TD*%
%TO.C,TP2*%
X164500000Y-110000000D03*
X166500000Y-110000000D03*
%TD*%
D10*
%TO.C,Rsc1*%
X153912500Y-122000000D03*
X152087500Y-122000000D03*
%TD*%
D18*
%TO.C,R1*%
X159000000Y-122000000D03*
X157000000Y-122000000D03*
%TD*%
D19*
%TO.C,L1*%
X159000000Y-118900000D03*
X159000000Y-116100000D03*
%TD*%
D20*
%TO.C,J4*%
X142850000Y-119850000D03*
X144100000Y-119850000D03*
D21*
X141000000Y-116500000D03*
X145950000Y-116500000D03*
%TD*%
D20*
%TO.C,J3*%
X142875000Y-110950000D03*
X144125000Y-110950000D03*
D21*
X141025000Y-107600000D03*
X145975000Y-107600000D03*
%TD*%
D22*
%TO.C,H4*%
X165500000Y-127000000D03*
%TD*%
%TO.C,H3*%
X142500000Y-97500000D03*
%TD*%
%TO.C,H2*%
X165500000Y-97500000D03*
%TD*%
%TO.C,H1*%
X142500000Y-127000000D03*
%TD*%
D23*
%TO.C,C3*%
X151362500Y-113000000D03*
X149637500Y-113000000D03*
%TD*%
D24*
%TO.C,C2*%
X156000000Y-108000000D03*
D25*
X151000000Y-108000000D03*
%TD*%
D26*
%TO.C,C1*%
X164500000Y-118050000D03*
X164500000Y-119950000D03*
%TD*%
M02*
