%TF.GenerationSoftware,KiCad,Pcbnew,9.0.4*%
%TF.CreationDate,2025-10-12T14:37:51-05:00*%
%TF.ProjectId,Onboarding_pcb,4f6e626f-6172-4646-996e-675f7063622e,rev?*%
%TF.SameCoordinates,Original*%
%TF.FileFunction,Copper,L1,Top*%
%TF.FilePolarity,Positive*%
%FSLAX46Y46*%
G04 Gerber Fmt 4.6, Leading zero omitted, Abs format (unit mm)*
G04 Created by KiCad (PCBNEW 9.0.4) date 2025-10-12 14:37:51*
%MOMM*%
%LPD*%
G01*
G04 APERTURE LIST*
G04 Aperture macros list*
%AMRoundRect*
0 Rectangle with rounded corners*
0 $1 Rounding radius*
0 $2 $3 $4 $5 $6 $7 $8 $9 X,Y pos of 4 corners*
0 Add a 4 corners polygon primitive as box body*
4,1,4,$2,$3,$4,$5,$6,$7,$8,$9,$2,$3,0*
0 Add four circle primitives for the rounded corners*
1,1,$1+$1,$2,$3*
1,1,$1+$1,$4,$5*
1,1,$1+$1,$6,$7*
1,1,$1+$1,$8,$9*
0 Add four rect primitives between the rounded corners*
20,1,$1+$1,$2,$3,$4,$5,0*
20,1,$1+$1,$4,$5,$6,$7,0*
20,1,$1+$1,$6,$7,$8,$9,0*
20,1,$1+$1,$8,$9,$2,$3,0*%
G04 Aperture macros list end*
%TA.AperFunction,ComponentPad*%
%ADD10C,1.400000*%
%TD*%
%TA.AperFunction,SMDPad,CuDef*%
%ADD11RoundRect,0.250000X0.350000X0.450000X-0.350000X0.450000X-0.350000X-0.450000X0.350000X-0.450000X0*%
%TD*%
%TA.AperFunction,SMDPad,CuDef*%
%ADD12RoundRect,0.150000X-0.825000X-0.150000X0.825000X-0.150000X0.825000X0.150000X-0.825000X0.150000X0*%
%TD*%
%TA.AperFunction,SMDPad,CuDef*%
%ADD13RoundRect,0.250000X-0.475000X0.250000X-0.475000X-0.250000X0.475000X-0.250000X0.475000X0.250000X0*%
%TD*%
%TA.AperFunction,SMDPad,CuDef*%
%ADD14RoundRect,0.237500X-0.250000X-0.237500X0.250000X-0.237500X0.250000X0.237500X-0.250000X0.237500X0*%
%TD*%
%TA.AperFunction,ComponentPad*%
%ADD15RoundRect,0.250000X0.550000X-0.550000X0.550000X0.550000X-0.550000X0.550000X-0.550000X-0.550000X0*%
%TD*%
%TA.AperFunction,ComponentPad*%
%ADD16C,1.600000*%
%TD*%
%TA.AperFunction,ComponentPad*%
%ADD17RoundRect,0.760000X-1.140000X1.140000X-1.140000X-1.140000X1.140000X-1.140000X1.140000X1.140000X0*%
%TD*%
%TA.AperFunction,ComponentPad*%
%ADD18C,4.000000*%
%TD*%
%TA.AperFunction,SMDPad,CuDef*%
%ADD19RoundRect,0.150000X0.700000X-0.150000X0.700000X0.150000X-0.700000X0.150000X-0.700000X-0.150000X0*%
%TD*%
%TA.AperFunction,SMDPad,CuDef*%
%ADD20RoundRect,0.250000X1.150000X-0.250000X1.150000X0.250000X-1.150000X0.250000X-1.150000X-0.250000X0*%
%TD*%
%TA.AperFunction,SMDPad,CuDef*%
%ADD21RoundRect,0.237500X-0.237500X0.250000X-0.237500X-0.250000X0.237500X-0.250000X0.237500X0.250000X0*%
%TD*%
%TA.AperFunction,ComponentPad*%
%ADD22RoundRect,0.249999X-0.850001X-0.850001X0.850001X-0.850001X0.850001X0.850001X-0.850001X0.850001X0*%
%TD*%
%TA.AperFunction,ComponentPad*%
%ADD23C,2.200000*%
%TD*%
%TA.AperFunction,SMDPad,CuDef*%
%ADD24R,3.400000X2.350000*%
%TD*%
%TA.AperFunction,ComponentPad*%
%ADD25RoundRect,0.760000X1.140000X-1.140000X1.140000X1.140000X-1.140000X1.140000X-1.140000X-1.140000X0*%
%TD*%
%TA.AperFunction,ComponentPad*%
%ADD26C,3.800000*%
%TD*%
%TA.AperFunction,ViaPad*%
%ADD27C,0.600000*%
%TD*%
%TA.AperFunction,Conductor*%
%ADD28C,1.000000*%
%TD*%
%TA.AperFunction,Conductor*%
%ADD29C,0.250000*%
%TD*%
%TA.AperFunction,Conductor*%
%ADD30C,0.200000*%
%TD*%
G04 APERTURE END LIST*
D10*
%TO.P,TP2,1,1*%
%TO.N,Net-(U2-IPK)*%
X136000000Y-86500000D03*
X136000000Y-88500000D03*
%TD*%
D11*
%TO.P,R1,2*%
%TO.N,Net-(U2-DRC)*%
X133250000Y-104000000D03*
%TO.P,R1,1*%
%TO.N,Net-(U2-IPK)*%
X135250000Y-104000000D03*
%TD*%
D12*
%TO.P,U2,8,DRC*%
%TO.N,Net-(U2-DRC)*%
X131975000Y-106845000D03*
%TO.P,U2,7,IPK*%
%TO.N,Net-(U2-IPK)*%
X131975000Y-108115000D03*
%TO.P,U2,6,VCC*%
%TO.N,+12V*%
X131975000Y-109385000D03*
%TO.P,U2,5,COMP*%
%TO.N,Net-(U2-COMP)*%
X131975000Y-110655000D03*
%TO.P,U2,4,GND*%
%TO.N,GND*%
X127025000Y-110655000D03*
%TO.P,U2,3,TC*%
%TO.N,Net-(U2-TC)*%
X127025000Y-109385000D03*
%TO.P,U2,2,SWE*%
%TO.N,GND*%
X127025000Y-108115000D03*
%TO.P,U2,1,SWC*%
%TO.N,Net-(D2-A)*%
X127025000Y-106845000D03*
%TD*%
D13*
%TO.P,C4,2*%
%TO.N,GND*%
X136250000Y-110450000D03*
%TO.P,C4,1*%
%TO.N,+12V*%
X136250000Y-108550000D03*
%TD*%
D14*
%TO.P,R4,2*%
%TO.N,GND*%
X120825000Y-112000000D03*
%TO.P,R4,1*%
%TO.N,Net-(U2-COMP)*%
X119000000Y-112000000D03*
%TD*%
%TO.P,R2,2*%
%TO.N,Net-(U2-COMP)*%
X120662500Y-108500000D03*
%TO.P,R2,1*%
%TO.N,VCC*%
X118837500Y-108500000D03*
%TD*%
D15*
%TO.P,C1,1*%
%TO.N,VCC*%
X117000000Y-97000000D03*
D16*
%TO.P,C1,2*%
%TO.N,GND*%
X117000000Y-92000000D03*
%TD*%
D17*
%TO.P,J1,1,Pin_1*%
%TO.N,GND*%
X139500000Y-93750000D03*
D18*
%TO.P,J1,2,Pin_2*%
%TO.N,+12V*%
X139500000Y-98750000D03*
%TD*%
D19*
%TO.P,J4,1,Pin_1*%
%TO.N,/CAN-*%
X110700000Y-91125000D03*
%TO.P,J4,2,Pin_2*%
%TO.N,/CAN+*%
X110700000Y-89875000D03*
D20*
%TO.P,J4,MP*%
%TO.N,N/C*%
X107350000Y-92975000D03*
X107350000Y-88025000D03*
%TD*%
D10*
%TO.P,TP3,1,1*%
%TO.N,Net-(D2-A)*%
X126000000Y-87250000D03*
X128000000Y-87250000D03*
%TD*%
D21*
%TO.P,R3,1*%
%TO.N,Net-(U2-IPK)*%
X140500000Y-107250000D03*
%TO.P,R3,2*%
%TO.N,+12V*%
X140500000Y-109075000D03*
%TD*%
D22*
%TO.P,D2,1,K*%
%TO.N,VCC*%
X114170000Y-102000000D03*
D23*
%TO.P,D2,2,A*%
%TO.N,Net-(D2-A)*%
X124330000Y-102000000D03*
%TD*%
D24*
%TO.P,L1,2,2*%
%TO.N,Net-(D2-A)*%
X124800000Y-94500000D03*
%TO.P,L1,1,1*%
%TO.N,Net-(U2-IPK)*%
X132700000Y-94500000D03*
%TD*%
D19*
%TO.P,J3,1,Pin_1*%
%TO.N,/CAN-*%
X121700000Y-86125000D03*
%TO.P,J3,2,Pin_2*%
%TO.N,/CAN+*%
X121700000Y-84875000D03*
D20*
%TO.P,J3,MP*%
%TO.N,N/C*%
X118350000Y-87975000D03*
X118350000Y-83025000D03*
%TD*%
D25*
%TO.P,J2,1,Pin_1*%
%TO.N,GND*%
X109000000Y-105250000D03*
D26*
%TO.P,J2,2,Pin_2*%
%TO.N,VCC*%
X109000000Y-100250000D03*
%TD*%
D27*
%TO.N,Net-(U2-TC)*%
X127000000Y-109137500D03*
%TO.N,GND*%
X127000000Y-110862500D03*
%TD*%
D28*
%TO.N,Net-(U2-IPK)*%
X136000000Y-88500000D02*
X136000000Y-86500000D01*
D29*
%TO.N,Net-(U2-COMP)*%
X120662500Y-110337500D02*
X119000000Y-112000000D01*
X120662500Y-108500000D02*
X120662500Y-110337500D01*
D28*
%TO.N,Net-(D2-A)*%
X124800000Y-94500000D02*
X124800000Y-101530000D01*
X126000000Y-87250000D02*
X128000000Y-87250000D01*
X124800000Y-88450000D02*
X126000000Y-87250000D01*
X124800000Y-101530000D02*
X124330000Y-102000000D01*
X124800000Y-94500000D02*
X124800000Y-88450000D01*
D30*
%TO.N,/CAN+*%
X110700000Y-89875000D02*
X111250000Y-89875000D01*
X112156802Y-90275000D02*
X117156802Y-85275000D01*
X120024999Y-85275000D02*
X120424999Y-84875000D01*
X111650000Y-90275000D02*
X112156802Y-90275000D01*
X111250000Y-89875000D02*
X111650000Y-90275000D01*
X117156802Y-85275000D02*
X120024999Y-85275000D01*
X120424999Y-84875000D02*
X121700000Y-84875000D01*
%TO.N,/CAN-*%
X112343198Y-90725000D02*
X117343198Y-85725000D01*
X117343198Y-85725000D02*
X120024999Y-85725000D01*
X111250000Y-91125000D02*
X111650000Y-90725000D01*
X111650000Y-90725000D02*
X112343198Y-90725000D01*
X120424999Y-86125000D02*
X121700000Y-86125000D01*
X110700000Y-91125000D02*
X111250000Y-91125000D01*
X120024999Y-85725000D02*
X120424999Y-86125000D01*
D29*
%TO.N,Net-(U2-COMP)*%
X130630000Y-112000000D02*
X131975000Y-110655000D01*
X120662500Y-110250000D02*
X122412500Y-112000000D01*
X120662500Y-108500000D02*
X120662500Y-110250000D01*
D28*
%TO.N,Net-(D2-A)*%
X124330000Y-104150000D02*
X127025000Y-106845000D01*
D29*
%TO.N,Net-(U2-COMP)*%
X122412500Y-112000000D02*
X130630000Y-112000000D01*
D28*
%TO.N,Net-(D2-A)*%
X124330000Y-102000000D02*
X124330000Y-104150000D01*
D29*
%TO.N,Net-(U2-DRC)*%
X133250000Y-104000000D02*
X133250000Y-105570000D01*
X133250000Y-105570000D02*
X131975000Y-106845000D01*
D28*
%TO.N,Net-(U2-IPK)*%
X137225000Y-104000000D02*
X140475000Y-107250000D01*
X135250000Y-104000000D02*
X137225000Y-104000000D01*
X132887652Y-108115000D02*
X131975000Y-108115000D01*
X135250000Y-104000000D02*
X135250000Y-105752652D01*
X135250000Y-105752652D02*
X132887652Y-108115000D01*
X132700000Y-94500000D02*
X135250000Y-97050000D01*
X135250000Y-97050000D02*
X135250000Y-104000000D01*
X132700000Y-92300000D02*
X136000000Y-89000000D01*
X132700000Y-94500000D02*
X132700000Y-92300000D01*
X136000000Y-89000000D02*
X136000000Y-88500000D01*
%TD*%
%TA.AperFunction,Conductor*%
%TO.N,GND*%
G36*
X142692539Y-81770185D02*
G01*
X142738294Y-81822989D01*
X142749500Y-81874500D01*
X142749500Y-95572583D01*
X142729815Y-95639622D01*
X142677011Y-95685377D01*
X142607853Y-95695321D01*
X142549078Y-95670234D01*
X142439467Y-95584452D01*
X142439465Y-95584451D01*
X142305766Y-95531291D01*
X142305767Y-95531291D01*
X142237831Y-95514979D01*
X142234107Y-95514538D01*
X142232092Y-95514445D01*
X142094575Y-95501640D01*
X142094565Y-95501640D01*
X141118126Y-95550460D01*
X141024099Y-95564102D01*
X141024079Y-95564106D01*
X140979023Y-95575045D01*
X140979000Y-95575052D01*
X140896714Y-95603445D01*
X140886567Y-95606468D01*
X140765958Y-95636859D01*
X140745391Y-95640236D01*
X140702336Y-95643625D01*
X140689721Y-95644618D01*
X140679995Y-95645000D01*
X140370224Y-95645000D01*
X140240224Y-95662002D01*
X140240213Y-95662004D01*
X140178598Y-95678401D01*
X140178586Y-95678405D01*
X140057328Y-95728269D01*
X139943925Y-95816830D01*
X139895543Y-95867228D01*
X139811684Y-95984149D01*
X139764167Y-96119943D01*
X139764164Y-96119953D01*
X139758389Y-96149382D01*
X139726161Y-96211375D01*
X139665533Y-96246104D01*
X139636710Y-96249500D01*
X139359566Y-96249500D01*
X139270064Y-96259584D01*
X139201243Y-96247529D01*
X139149864Y-96200180D01*
X139134478Y-96160116D01*
X139133745Y-96156359D01*
X139086368Y-96020510D01*
X139086368Y-96020509D01*
X139002637Y-95903508D01*
X139002631Y-95903501D01*
X138954301Y-95853052D01*
X138954298Y-95853049D01*
X138954297Y-95853048D01*
X138840990Y-95764374D01*
X138840988Y-95764373D01*
X138840983Y-95764370D01*
X138707301Y-95711219D01*
X138707296Y-95711217D01*
X138707290Y-95711215D01*
X138702230Y-95710000D01*
X138639360Y-95694904D01*
X138639352Y-95694903D01*
X138591598Y-95690456D01*
X138496094Y-95681564D01*
X138496092Y-95681564D01*
X138374064Y-95687665D01*
X137336807Y-95739527D01*
X137254611Y-95750447D01*
X137254584Y-95750451D01*
X137214976Y-95759067D01*
X137135659Y-95783283D01*
X137010889Y-95854928D01*
X136955861Y-95897992D01*
X136856327Y-96001889D01*
X136856326Y-96001890D01*
X136790096Y-96129618D01*
X136767091Y-96195582D01*
X136739527Y-96336809D01*
X136693767Y-97252022D01*
X136696949Y-97339244D01*
X136702180Y-97381593D01*
X136702182Y-97381607D01*
X136720317Y-97466957D01*
X136720321Y-97466971D01*
X136781420Y-97597227D01*
X136815778Y-97649509D01*
X136816424Y-97650631D01*
X136819793Y-97655620D01*
X136915119Y-97763391D01*
X136915124Y-97763395D01*
X136998324Y-97815672D01*
X137036949Y-97839941D01*
X137036957Y-97839944D01*
X137036958Y-97839945D01*
X137047043Y-97844427D01*
X137100312Y-97889640D01*
X137120681Y-97956475D01*
X137113729Y-97998695D01*
X137093442Y-98056674D01*
X137093439Y-98056682D01*
X137030945Y-98330487D01*
X137030942Y-98330505D01*
X136999500Y-98609568D01*
X136999500Y-98890431D01*
X137030943Y-99169501D01*
X137030944Y-99169506D01*
X137051632Y-99260149D01*
X137047358Y-99329887D01*
X137006059Y-99386245D01*
X136959693Y-99408313D01*
X136954344Y-99409597D01*
X136829573Y-99481242D01*
X136774545Y-99524306D01*
X136675012Y-99628201D01*
X136675011Y-99628202D01*
X136608781Y-99755931D01*
X136608780Y-99755934D01*
X136588916Y-99812894D01*
X136586418Y-99818605D01*
X136585775Y-99821901D01*
X136585774Y-99821902D01*
X136566761Y-99919313D01*
X136558211Y-99963122D01*
X136500470Y-101117951D01*
X136500470Y-101117961D01*
X136501909Y-101188881D01*
X136501910Y-101188897D01*
X136505049Y-101223473D01*
X136505050Y-101223483D01*
X136516404Y-101293499D01*
X136516405Y-101293503D01*
X136568943Y-101427448D01*
X136568944Y-101427449D01*
X136603456Y-101488205D01*
X136603457Y-101488206D01*
X136603462Y-101488214D01*
X136691603Y-101601921D01*
X136691604Y-101601922D01*
X136808219Y-101686199D01*
X136808225Y-101686202D01*
X136808225Y-101686203D01*
X136847956Y-101707038D01*
X136870097Y-101718649D01*
X137005730Y-101766657D01*
X138894820Y-102144474D01*
X138956695Y-102176923D01*
X138991206Y-102237675D01*
X138994500Y-102266065D01*
X138994500Y-104055218D01*
X138974815Y-104122257D01*
X138922011Y-104168012D01*
X138852853Y-104177956D01*
X138789297Y-104148931D01*
X138782819Y-104142899D01*
X138006479Y-103366559D01*
X138006459Y-103366537D01*
X137862785Y-103222863D01*
X137862781Y-103222860D01*
X137698920Y-103113371D01*
X137698907Y-103113364D01*
X137555873Y-103054118D01*
X137555867Y-103054116D01*
X137547136Y-103050500D01*
X137516836Y-103037949D01*
X137376981Y-103010130D01*
X137374309Y-103009598D01*
X137374307Y-103009598D01*
X137323542Y-102999500D01*
X137323541Y-102999500D01*
X136374500Y-102999500D01*
X136307461Y-102979815D01*
X136261706Y-102927011D01*
X136250500Y-102875500D01*
X136250500Y-97154675D01*
X136250501Y-97154654D01*
X136250501Y-96951457D01*
X136250500Y-96951455D01*
X136220882Y-96802556D01*
X136212052Y-96758165D01*
X136136632Y-96576086D01*
X136136631Y-96576085D01*
X136136628Y-96576079D01*
X136027140Y-96412219D01*
X136027137Y-96412215D01*
X134936818Y-95321897D01*
X134903333Y-95260574D01*
X134900499Y-95234216D01*
X134900499Y-93277129D01*
X134900498Y-93277123D01*
X134900497Y-93277116D01*
X134894091Y-93217517D01*
X134843796Y-93082669D01*
X134843795Y-93082668D01*
X134843793Y-93082664D01*
X134757547Y-92967455D01*
X134757544Y-92967452D01*
X134642335Y-92881206D01*
X134642328Y-92881202D01*
X134507482Y-92830908D01*
X134507483Y-92830908D01*
X134447883Y-92824501D01*
X134447881Y-92824500D01*
X134447873Y-92824500D01*
X134447865Y-92824500D01*
X133889782Y-92824500D01*
X133822743Y-92804815D01*
X133776988Y-92752011D01*
X133767044Y-92682853D01*
X133796069Y-92619297D01*
X133802101Y-92612819D01*
X136777135Y-89637786D01*
X136777138Y-89637783D01*
X136777138Y-89637782D01*
X136777140Y-89637781D01*
X136851321Y-89526760D01*
X136886632Y-89473914D01*
X136949086Y-89323135D01*
X136962051Y-89291836D01*
X136977709Y-89213111D01*
X136978795Y-89209090D01*
X136984582Y-89199633D01*
X136998195Y-89168514D01*
X137026760Y-89129199D01*
X137112547Y-88960832D01*
X137170940Y-88781118D01*
X137184256Y-88697046D01*
X137200500Y-88594486D01*
X137200500Y-88405513D01*
X137170940Y-88218881D01*
X137112545Y-88039163D01*
X137026757Y-87870796D01*
X137024179Y-87867247D01*
X137000702Y-87801439D01*
X137000500Y-87794366D01*
X137000500Y-87205632D01*
X137020185Y-87138593D01*
X137024177Y-87132753D01*
X137026760Y-87129199D01*
X137112547Y-86960832D01*
X137170940Y-86781118D01*
X137173838Y-86762819D01*
X137200500Y-86594486D01*
X137200500Y-86405513D01*
X137170940Y-86218881D01*
X137112545Y-86039163D01*
X137027591Y-85872432D01*
X137026760Y-85870801D01*
X136915690Y-85717927D01*
X136782073Y-85584310D01*
X136629199Y-85473240D01*
X136460836Y-85387454D01*
X136281118Y-85329059D01*
X136094486Y-85299500D01*
X136094481Y-85299500D01*
X135905519Y-85299500D01*
X135905514Y-85299500D01*
X135718881Y-85329059D01*
X135539163Y-85387454D01*
X135370800Y-85473240D01*
X135331826Y-85501557D01*
X135217927Y-85584310D01*
X135217925Y-85584312D01*
X135217924Y-85584312D01*
X135084312Y-85717924D01*
X135084312Y-85717925D01*
X135084310Y-85717927D01*
X135036610Y-85783579D01*
X134973240Y-85870800D01*
X134887454Y-86039163D01*
X134829059Y-86218881D01*
X134799500Y-86405513D01*
X134799500Y-86594486D01*
X134829059Y-86781118D01*
X134887454Y-86960836D01*
X134973239Y-87129198D01*
X134973240Y-87129199D01*
X134975814Y-87132742D01*
X134999297Y-87198546D01*
X134999500Y-87205632D01*
X134999500Y-87794366D01*
X134979815Y-87861405D01*
X134975821Y-87867247D01*
X134973242Y-87870796D01*
X134887454Y-88039163D01*
X134829059Y-88218881D01*
X134799500Y-88405513D01*
X134799500Y-88594486D01*
X134815744Y-88697046D01*
X134806789Y-88766339D01*
X134780952Y-88804125D01*
X132712653Y-90872426D01*
X132062220Y-91522859D01*
X132062218Y-91522861D01*
X131992538Y-91592540D01*
X131922859Y-91662219D01*
X131813371Y-91826080D01*
X131813364Y-91826093D01*
X131775790Y-91916807D01*
X131775788Y-91916812D01*
X131773392Y-91922598D01*
X131737949Y-92008164D01*
X131718724Y-92104812D01*
X131717568Y-92110622D01*
X131717566Y-92110630D01*
X131699500Y-92201455D01*
X131699500Y-92700500D01*
X131679815Y-92767539D01*
X131627011Y-92813294D01*
X131575500Y-92824500D01*
X130952129Y-92824500D01*
X130952123Y-92824501D01*
X130892516Y-92830908D01*
X130757671Y-92881202D01*
X130757664Y-92881206D01*
X130642455Y-92967452D01*
X130642452Y-92967455D01*
X130556206Y-93082664D01*
X130556202Y-93082671D01*
X130505908Y-93217517D01*
X130499857Y-93273806D01*
X130499501Y-93277123D01*
X130499500Y-93277135D01*
X130499500Y-95722870D01*
X130499501Y-95722876D01*
X130505908Y-95782483D01*
X130556202Y-95917328D01*
X130556206Y-95917335D01*
X130642452Y-96032544D01*
X130642455Y-96032547D01*
X130757664Y-96118793D01*
X130757671Y-96118797D01*
X130892517Y-96169091D01*
X130892516Y-96169091D01*
X130899444Y-96169835D01*
X130952127Y-96175500D01*
X132909217Y-96175499D01*
X132976256Y-96195184D01*
X132996898Y-96211818D01*
X134213181Y-97428101D01*
X134246666Y-97489424D01*
X134249500Y-97515782D01*
X134249500Y-102846659D01*
X134229815Y-102913698D01*
X134177011Y-102959453D01*
X134107853Y-102969397D01*
X134060404Y-102952198D01*
X133919340Y-102865189D01*
X133919335Y-102865187D01*
X133919334Y-102865186D01*
X133752797Y-102810001D01*
X133752795Y-102810000D01*
X133650010Y-102799500D01*
X132849998Y-102799500D01*
X132849980Y-102799501D01*
X132747203Y-102810000D01*
X132747200Y-102810001D01*
X132580668Y-102865185D01*
X132580663Y-102865187D01*
X132431342Y-102957289D01*
X132307289Y-103081342D01*
X132215187Y-103230663D01*
X132215185Y-103230668D01*
X132200911Y-103273746D01*
X132160001Y-103397203D01*
X132160001Y-103397204D01*
X132160000Y-103397204D01*
X132149500Y-103499983D01*
X132149500Y-104500001D01*
X132149501Y-104500019D01*
X132160000Y-104602796D01*
X132160001Y-104602799D01*
X132215185Y-104769331D01*
X132215187Y-104769336D01*
X132226565Y-104787782D01*
X132307288Y-104918656D01*
X132431344Y-105042712D01*
X132565597Y-105125519D01*
X132572419Y-105133104D01*
X132581703Y-105137344D01*
X132595390Y-105158642D01*
X132612321Y-105177465D01*
X132614965Y-105189101D01*
X132619477Y-105196122D01*
X132624500Y-105231057D01*
X132624500Y-105259548D01*
X132604815Y-105326587D01*
X132588181Y-105347229D01*
X131927229Y-106008181D01*
X131865906Y-106041666D01*
X131839548Y-106044500D01*
X131084298Y-106044500D01*
X131047432Y-106047401D01*
X131047426Y-106047402D01*
X130889606Y-106093254D01*
X130889603Y-106093255D01*
X130748137Y-106176917D01*
X130748129Y-106176923D01*
X130631923Y-106293129D01*
X130631917Y-106293137D01*
X130548255Y-106434603D01*
X130548254Y-106434606D01*
X130502402Y-106592426D01*
X130502401Y-106592432D01*
X130499500Y-106629298D01*
X130499500Y-107060701D01*
X130502401Y-107097567D01*
X130502402Y-107097573D01*
X130548254Y-107255393D01*
X130548255Y-107255396D01*
X130631917Y-107396862D01*
X130636702Y-107403031D01*
X130634256Y-107404927D01*
X130660857Y-107453642D01*
X130655873Y-107523334D01*
X130635069Y-107555703D01*
X130636702Y-107556969D01*
X130631917Y-107563137D01*
X130548255Y-107704603D01*
X130548254Y-107704606D01*
X130502402Y-107862426D01*
X130502401Y-107862432D01*
X130499500Y-107899298D01*
X130499500Y-107906145D01*
X130479815Y-107973184D01*
X130427011Y-108018939D01*
X130382782Y-108029931D01*
X130059186Y-108048966D01*
X130059172Y-108048967D01*
X130007819Y-108054634D01*
X130007792Y-108054638D01*
X129982841Y-108058690D01*
X129982817Y-108058695D01*
X129932346Y-108069565D01*
X129800160Y-108126396D01*
X129740546Y-108162851D01*
X129629734Y-108254615D01*
X129549263Y-108373884D01*
X129549256Y-108373896D01*
X129518321Y-108437816D01*
X129517272Y-108441656D01*
X129475212Y-108573891D01*
X129272039Y-109792933D01*
X129270271Y-109804350D01*
X129269447Y-109810107D01*
X129267934Y-109821636D01*
X129267934Y-109821637D01*
X129270742Y-109939548D01*
X129271359Y-109965478D01*
X129271361Y-109965489D01*
X129282944Y-110034374D01*
X129282945Y-110034379D01*
X129282946Y-110034381D01*
X129292095Y-110063000D01*
X129326756Y-110171427D01*
X129407390Y-110290566D01*
X129407396Y-110290573D01*
X129407400Y-110290579D01*
X129441945Y-110328580D01*
X129454399Y-110342280D01*
X129454401Y-110342283D01*
X129565352Y-110433890D01*
X129565351Y-110433890D01*
X129697607Y-110490525D01*
X129697612Y-110490526D01*
X129697616Y-110490528D01*
X129750842Y-110504789D01*
X129765097Y-110508609D01*
X129765098Y-110508609D01*
X129765105Y-110508611D01*
X129907966Y-110525691D01*
X130372550Y-110514629D01*
X130440037Y-110532712D01*
X130487036Y-110584412D01*
X130499500Y-110638594D01*
X130499500Y-110870701D01*
X130502401Y-110907567D01*
X130502402Y-110907573D01*
X130548254Y-111065393D01*
X130548256Y-111065398D01*
X130548260Y-111065405D01*
X130548261Y-111065410D01*
X130551353Y-111072554D01*
X130550199Y-111073053D01*
X130555258Y-111092997D01*
X130565209Y-111119674D01*
X130563739Y-111126429D01*
X130565439Y-111133130D01*
X130556409Y-111160126D01*
X130550358Y-111187947D01*
X130544476Y-111195803D01*
X130543277Y-111199391D01*
X130529207Y-111216202D01*
X130407227Y-111338182D01*
X130345907Y-111371666D01*
X130319548Y-111374500D01*
X122722952Y-111374500D01*
X122655913Y-111354815D01*
X122635271Y-111338181D01*
X121324319Y-110027229D01*
X121290834Y-109965906D01*
X121288000Y-109939548D01*
X121288000Y-109442191D01*
X121307685Y-109375152D01*
X121346904Y-109336652D01*
X121349599Y-109334989D01*
X121373350Y-109320340D01*
X121495340Y-109198350D01*
X121513259Y-109169298D01*
X125549500Y-109169298D01*
X125549500Y-109600701D01*
X125552401Y-109637567D01*
X125552402Y-109637573D01*
X125598254Y-109795393D01*
X125598255Y-109795396D01*
X125598256Y-109795398D01*
X125601780Y-109801357D01*
X125681917Y-109936862D01*
X125681923Y-109936870D01*
X125798129Y-110053076D01*
X125798133Y-110053079D01*
X125798135Y-110053081D01*
X125939602Y-110136744D01*
X125981224Y-110148836D01*
X126097426Y-110182597D01*
X126097429Y-110182597D01*
X126097431Y-110182598D01*
X126134306Y-110185500D01*
X126134314Y-110185500D01*
X127915686Y-110185500D01*
X127915694Y-110185500D01*
X127952569Y-110182598D01*
X127952571Y-110182597D01*
X127952573Y-110182597D01*
X127994191Y-110170505D01*
X128110398Y-110136744D01*
X128251865Y-110053081D01*
X128368081Y-109936865D01*
X128451744Y-109795398D01*
X128490812Y-109660926D01*
X128497597Y-109637573D01*
X128497598Y-109637567D01*
X128500499Y-109600701D01*
X128500500Y-109600694D01*
X128500500Y-109169306D01*
X128497598Y-109132431D01*
X128488691Y-109101774D01*
X128451745Y-108974606D01*
X128451744Y-108974603D01*
X128451744Y-108974602D01*
X128368081Y-108833135D01*
X128368079Y-108833133D01*
X128368076Y-108833129D01*
X128251870Y-108716923D01*
X128251862Y-108716917D01*
X128110396Y-108633255D01*
X128110393Y-108633254D01*
X127952573Y-108587402D01*
X127952567Y-108587401D01*
X127915701Y-108584500D01*
X127915694Y-108584500D01*
X127630440Y-108584500D01*
X127563401Y-108564815D01*
X127542758Y-108548180D01*
X127510292Y-108515713D01*
X127510288Y-108515710D01*
X127379185Y-108428109D01*
X127379172Y-108428102D01*
X127233501Y-108367764D01*
X127233489Y-108367761D01*
X127078845Y-108337000D01*
X127078842Y-108337000D01*
X126921158Y-108337000D01*
X126921155Y-108337000D01*
X126766510Y-108367761D01*
X126766498Y-108367764D01*
X126620827Y-108428102D01*
X126620814Y-108428109D01*
X126489711Y-108515710D01*
X126489707Y-108515713D01*
X126457242Y-108548180D01*
X126395920Y-108581666D01*
X126369560Y-108584500D01*
X126134298Y-108584500D01*
X126097432Y-108587401D01*
X126097426Y-108587402D01*
X125939606Y-108633254D01*
X125939603Y-108633255D01*
X125798137Y-108716917D01*
X125798129Y-108716923D01*
X125681923Y-108833129D01*
X125681917Y-108833137D01*
X125598255Y-108974603D01*
X125598254Y-108974606D01*
X125552402Y-109132426D01*
X125552401Y-109132432D01*
X125549500Y-109169298D01*
X121513259Y-109169298D01*
X121585908Y-109051516D01*
X121640174Y-108887753D01*
X121650500Y-108786677D01*
X121650499Y-108213324D01*
X121640174Y-108112247D01*
X121585908Y-107948484D01*
X121495340Y-107801650D01*
X121373350Y-107679660D01*
X121282129Y-107623395D01*
X121226518Y-107589093D01*
X121226513Y-107589091D01*
X121148189Y-107563137D01*
X121062753Y-107534826D01*
X121062751Y-107534825D01*
X120961678Y-107524500D01*
X120363330Y-107524500D01*
X120363319Y-107524501D01*
X120351260Y-107525733D01*
X120282568Y-107512960D01*
X120231686Y-107465077D01*
X120214768Y-107397286D01*
X120215420Y-107388703D01*
X120242389Y-107145984D01*
X120244843Y-107115548D01*
X120245595Y-107100593D01*
X120246207Y-107070059D01*
X120224281Y-106927859D01*
X120203915Y-106861024D01*
X120142819Y-106730766D01*
X120142818Y-106730765D01*
X120142818Y-106730764D01*
X120047498Y-106622994D01*
X120047489Y-106622985D01*
X119998092Y-106581055D01*
X119996491Y-106579580D01*
X119994225Y-106577772D01*
X119872415Y-106501231D01*
X119872416Y-106501231D01*
X119872404Y-106501224D01*
X118120253Y-105722490D01*
X118066987Y-105677275D01*
X118046621Y-105610440D01*
X118047201Y-105597138D01*
X118762951Y-98260720D01*
X118765298Y-98218170D01*
X118765568Y-98197282D01*
X118764321Y-98154678D01*
X118733735Y-98014086D01*
X118711638Y-97954845D01*
X118710189Y-97950218D01*
X118640362Y-97822344D01*
X118640361Y-97822343D01*
X118640360Y-97822341D01*
X118538619Y-97720605D01*
X118538617Y-97720603D01*
X118538608Y-97720596D01*
X118482689Y-97678738D01*
X118482683Y-97678734D01*
X118365072Y-97614515D01*
X118315668Y-97565111D01*
X118300499Y-97505683D01*
X118300499Y-96399998D01*
X118300498Y-96399981D01*
X118289999Y-96297203D01*
X118289998Y-96297200D01*
X118273690Y-96247987D01*
X118234814Y-96130666D01*
X118142712Y-95981344D01*
X118018656Y-95857288D01*
X117897377Y-95782483D01*
X117869336Y-95765187D01*
X117869331Y-95765185D01*
X117850868Y-95759067D01*
X117702797Y-95710001D01*
X117702795Y-95710000D01*
X117600016Y-95699500D01*
X116480961Y-95699500D01*
X116413922Y-95679815D01*
X116368167Y-95627011D01*
X116363479Y-95614445D01*
X116362591Y-95612499D01*
X116362590Y-95612496D01*
X116284802Y-95491457D01*
X116284797Y-95491451D01*
X116239053Y-95438659D01*
X116239049Y-95438656D01*
X116239047Y-95438653D01*
X116130313Y-95344433D01*
X116130310Y-95344431D01*
X116130308Y-95344430D01*
X115999442Y-95284664D01*
X115999437Y-95284662D01*
X115999436Y-95284662D01*
X115932397Y-95264977D01*
X115932399Y-95264977D01*
X115932394Y-95264976D01*
X115870324Y-95256052D01*
X115789977Y-95244500D01*
X115624000Y-95244500D01*
X115623991Y-95244500D01*
X115623990Y-95244501D01*
X115516549Y-95256052D01*
X115516537Y-95256054D01*
X115465027Y-95267260D01*
X115362502Y-95301383D01*
X115362496Y-95301386D01*
X115241462Y-95379171D01*
X115241451Y-95379179D01*
X115188659Y-95424923D01*
X115094433Y-95533664D01*
X115094430Y-95533668D01*
X115034664Y-95664534D01*
X115014976Y-95731582D01*
X114994500Y-95874001D01*
X114994500Y-96137283D01*
X114974815Y-96204322D01*
X114922011Y-96250077D01*
X114873850Y-96261238D01*
X106362116Y-96491285D01*
X106251426Y-96506633D01*
X106198622Y-96520034D01*
X106198611Y-96520038D01*
X106094024Y-96559320D01*
X106094019Y-96559322D01*
X105976325Y-96642079D01*
X105925466Y-96689996D01*
X105835856Y-96802555D01*
X105835856Y-96802556D01*
X105781585Y-96935805D01*
X105764706Y-97003610D01*
X105764703Y-97003633D01*
X105750176Y-97146757D01*
X105750176Y-97146759D01*
X105844462Y-99409598D01*
X105863578Y-99868390D01*
X105863578Y-99868392D01*
X105867207Y-99955523D01*
X105869688Y-99988714D01*
X105871439Y-100004947D01*
X105876102Y-100037913D01*
X105920840Y-100174658D01*
X105957613Y-100249066D01*
X105966508Y-100258718D01*
X105998680Y-100305562D01*
X106020407Y-100371967D01*
X106002783Y-100439578D01*
X105993483Y-100452986D01*
X105988231Y-100459582D01*
X105933961Y-100592830D01*
X105917082Y-100660636D01*
X105917081Y-100660642D01*
X105902552Y-100803783D01*
X105902552Y-100803785D01*
X105988443Y-102865189D01*
X105989776Y-102897168D01*
X105998438Y-102954963D01*
X106005793Y-103004036D01*
X106005796Y-103004054D01*
X106019135Y-103055042D01*
X106057498Y-103156058D01*
X106057502Y-103156065D01*
X106140250Y-103273746D01*
X106140258Y-103273757D01*
X106188160Y-103324599D01*
X106188165Y-103324604D01*
X106188171Y-103324610D01*
X106188175Y-103324614D01*
X106235411Y-103362218D01*
X106300739Y-103414225D01*
X106300740Y-103414225D01*
X106300741Y-103414226D01*
X106433995Y-103468494D01*
X106501796Y-103485370D01*
X106644936Y-103499899D01*
X106644943Y-103499898D01*
X106644947Y-103499899D01*
X107021199Y-103484221D01*
X107329051Y-103471394D01*
X107329064Y-103471392D01*
X107329066Y-103471392D01*
X107425193Y-103458060D01*
X107425195Y-103458059D01*
X107425207Y-103458058D01*
X107425211Y-103458056D01*
X107425217Y-103458056D01*
X107471325Y-103447066D01*
X107563176Y-103415588D01*
X107599474Y-103399099D01*
X107620442Y-103391762D01*
X107734049Y-103363136D01*
X107754607Y-103359762D01*
X107799234Y-103356250D01*
X107810275Y-103355382D01*
X107820002Y-103355000D01*
X108503090Y-103355000D01*
X108503120Y-103355000D01*
X108518576Y-103354764D01*
X108526160Y-103354532D01*
X108541622Y-103353822D01*
X108682518Y-103324673D01*
X108748228Y-103300925D01*
X108875206Y-103233262D01*
X108913810Y-103195437D01*
X108975470Y-103162579D01*
X109045108Y-103168274D01*
X109081794Y-103190294D01*
X109156544Y-103255067D01*
X109156547Y-103255068D01*
X109156548Y-103255069D01*
X109285502Y-103313962D01*
X109287421Y-103314838D01*
X109354460Y-103334523D01*
X109354464Y-103334524D01*
X109496880Y-103355000D01*
X109496883Y-103355000D01*
X110109440Y-103355000D01*
X110116984Y-103354921D01*
X110119882Y-103354891D01*
X110125044Y-103354784D01*
X110131651Y-103354578D01*
X110135655Y-103354454D01*
X111966188Y-103278180D01*
X112048314Y-103274758D01*
X112116115Y-103291634D01*
X112164028Y-103342487D01*
X112176842Y-103411172D01*
X112174183Y-103427039D01*
X112166978Y-103457671D01*
X112160824Y-103527254D01*
X112160824Y-103527278D01*
X112168674Y-103670931D01*
X112232766Y-103991390D01*
X112232771Y-103991412D01*
X112253820Y-104066196D01*
X112253824Y-104066211D01*
X112266901Y-104101891D01*
X112266904Y-104101898D01*
X112299174Y-104172589D01*
X112299175Y-104172590D01*
X112386015Y-104287305D01*
X112386018Y-104287309D01*
X112435682Y-104336441D01*
X112435687Y-104336446D01*
X112447052Y-104344859D01*
X112551327Y-104422048D01*
X112686403Y-104471604D01*
X112751355Y-104485368D01*
X112754187Y-104486052D01*
X112754755Y-104486089D01*
X112754756Y-104486090D01*
X112898323Y-104495583D01*
X114769536Y-104351644D01*
X114821852Y-104344859D01*
X114847274Y-104340202D01*
X114898602Y-104328000D01*
X115009380Y-104277409D01*
X115078539Y-104267467D01*
X115103599Y-104273791D01*
X115113461Y-104277410D01*
X115130361Y-104283610D01*
X115156833Y-104289219D01*
X115198710Y-104298094D01*
X115342277Y-104307587D01*
X115446960Y-104299534D01*
X115515310Y-104314019D01*
X115564980Y-104363158D01*
X115579332Y-104406415D01*
X116091575Y-108162851D01*
X116107774Y-108281645D01*
X116234511Y-109211053D01*
X116249840Y-109283412D01*
X116249842Y-109283419D01*
X116249844Y-109283428D01*
X116259093Y-109315352D01*
X116259909Y-109318169D01*
X116259913Y-109318180D01*
X116259916Y-109318189D01*
X116285625Y-109387501D01*
X116285628Y-109387507D01*
X116363410Y-109508537D01*
X116363418Y-109508548D01*
X116409162Y-109561340D01*
X116409165Y-109561343D01*
X116409169Y-109561347D01*
X116517903Y-109655567D01*
X116517906Y-109655568D01*
X116517907Y-109655569D01*
X116622541Y-109703355D01*
X116648780Y-109715338D01*
X116715819Y-109735023D01*
X116715823Y-109735024D01*
X116858239Y-109755500D01*
X116858242Y-109755500D01*
X117814929Y-109755500D01*
X117814930Y-109755500D01*
X117814931Y-109755499D01*
X117814946Y-109755499D01*
X117854606Y-109751419D01*
X117917810Y-109744920D01*
X117967225Y-109734648D01*
X118065791Y-109703355D01*
X118188250Y-109627821D01*
X118241892Y-109583051D01*
X118314354Y-109502486D01*
X118373820Y-109465808D01*
X118432509Y-109464159D01*
X118437239Y-109465171D01*
X118437247Y-109465174D01*
X118538323Y-109475500D01*
X119136676Y-109475499D01*
X119136684Y-109475498D01*
X119136687Y-109475498D01*
X119231546Y-109465808D01*
X119237753Y-109465174D01*
X119401516Y-109410908D01*
X119548350Y-109320340D01*
X119662319Y-109206371D01*
X119667639Y-109203465D01*
X119671038Y-109198443D01*
X119697951Y-109186913D01*
X119723642Y-109172886D01*
X119729689Y-109173318D01*
X119735263Y-109170931D01*
X119764129Y-109175781D01*
X119793334Y-109177870D01*
X119799719Y-109181761D01*
X119804167Y-109182509D01*
X119823310Y-109196139D01*
X119833398Y-109202287D01*
X119835580Y-109204270D01*
X119951650Y-109320340D01*
X119987887Y-109342691D01*
X119996398Y-109350426D01*
X120008840Y-109370833D01*
X120024821Y-109388600D01*
X120027879Y-109402060D01*
X120032771Y-109410082D01*
X120032481Y-109422308D01*
X120037000Y-109442191D01*
X120037000Y-110027047D01*
X120017315Y-110094086D01*
X120000681Y-110114728D01*
X119127227Y-110988181D01*
X119065904Y-111021666D01*
X119039546Y-111024500D01*
X118700831Y-111024500D01*
X118700812Y-111024501D01*
X118599747Y-111034825D01*
X118435984Y-111089092D01*
X118435981Y-111089093D01*
X118289148Y-111179661D01*
X118167161Y-111301648D01*
X118076593Y-111448481D01*
X118076591Y-111448486D01*
X118074267Y-111455499D01*
X118022326Y-111612247D01*
X118022326Y-111612248D01*
X118022325Y-111612248D01*
X118012000Y-111713315D01*
X118012000Y-112286669D01*
X118012001Y-112286687D01*
X118022325Y-112387752D01*
X118023622Y-112391665D01*
X118066177Y-112520087D01*
X118076592Y-112551515D01*
X118076593Y-112551518D01*
X118095353Y-112581932D01*
X118167160Y-112698350D01*
X118289150Y-112820340D01*
X118435984Y-112910908D01*
X118599747Y-112965174D01*
X118700823Y-112975500D01*
X119299176Y-112975499D01*
X119299184Y-112975498D01*
X119299187Y-112975498D01*
X119354530Y-112969844D01*
X119400253Y-112965174D01*
X119564016Y-112910908D01*
X119710850Y-112820340D01*
X119832840Y-112698350D01*
X119923408Y-112551516D01*
X119977674Y-112387753D01*
X119988000Y-112286677D01*
X119987999Y-111947950D01*
X120007683Y-111880912D01*
X120024313Y-111860275D01*
X120618572Y-111266017D01*
X120679891Y-111232535D01*
X120749583Y-111237519D01*
X120793930Y-111266020D01*
X121926639Y-112398729D01*
X121926642Y-112398733D01*
X122013767Y-112485858D01*
X122090690Y-112537256D01*
X122096490Y-112541132D01*
X122096493Y-112541134D01*
X122116210Y-112554309D01*
X122116212Y-112554310D01*
X122116215Y-112554312D01*
X122182896Y-112581931D01*
X122182898Y-112581933D01*
X122212629Y-112594247D01*
X122230048Y-112601463D01*
X122350894Y-112625500D01*
X122350896Y-112625500D01*
X130691607Y-112625500D01*
X130752029Y-112613481D01*
X130812452Y-112601463D01*
X130845792Y-112587652D01*
X130926286Y-112554312D01*
X130977509Y-112520084D01*
X130980009Y-112518414D01*
X130990271Y-112511556D01*
X131028733Y-112485858D01*
X131115858Y-112398733D01*
X131115859Y-112398731D01*
X131122925Y-112391665D01*
X131122927Y-112391661D01*
X131370876Y-112143713D01*
X138149500Y-112143713D01*
X138149500Y-112356287D01*
X138154484Y-112387752D01*
X138180863Y-112554309D01*
X138182754Y-112566243D01*
X138228755Y-112707820D01*
X138248444Y-112768414D01*
X138344951Y-112957820D01*
X138469890Y-113129786D01*
X138620213Y-113280109D01*
X138792179Y-113405048D01*
X138792181Y-113405049D01*
X138792184Y-113405051D01*
X138981588Y-113501557D01*
X139183757Y-113567246D01*
X139393713Y-113600500D01*
X139393714Y-113600500D01*
X139606286Y-113600500D01*
X139606287Y-113600500D01*
X139816243Y-113567246D01*
X140018412Y-113501557D01*
X140207816Y-113405051D01*
X140282900Y-113350500D01*
X140379786Y-113280109D01*
X140379788Y-113280106D01*
X140379792Y-113280104D01*
X140530104Y-113129792D01*
X140530106Y-113129788D01*
X140530109Y-113129786D01*
X140655048Y-112957820D01*
X140655047Y-112957820D01*
X140655051Y-112957816D01*
X140751557Y-112768412D01*
X140817246Y-112566243D01*
X140850500Y-112356287D01*
X140850500Y-112143713D01*
X140817246Y-111933757D01*
X140751557Y-111731588D01*
X140655051Y-111542184D01*
X140655049Y-111542181D01*
X140655048Y-111542179D01*
X140530109Y-111370213D01*
X140379786Y-111219890D01*
X140207820Y-111094951D01*
X140018414Y-110998444D01*
X140018413Y-110998443D01*
X140018412Y-110998443D01*
X139816243Y-110932754D01*
X139816241Y-110932753D01*
X139816240Y-110932753D01*
X139654957Y-110907208D01*
X139606287Y-110899500D01*
X139393713Y-110899500D01*
X139345042Y-110907208D01*
X139183760Y-110932753D01*
X138981585Y-110998444D01*
X138792179Y-111094951D01*
X138620213Y-111219890D01*
X138469890Y-111370213D01*
X138344951Y-111542179D01*
X138248444Y-111731585D01*
X138182753Y-111933760D01*
X138164159Y-112051160D01*
X138149500Y-112143713D01*
X131370876Y-112143713D01*
X132022771Y-111491819D01*
X132084094Y-111458334D01*
X132110452Y-111455500D01*
X132865686Y-111455500D01*
X132865694Y-111455500D01*
X132902569Y-111452598D01*
X132902571Y-111452597D01*
X132902573Y-111452597D01*
X132944191Y-111440505D01*
X133060398Y-111406744D01*
X133201865Y-111323081D01*
X133318081Y-111206865D01*
X133401744Y-111065398D01*
X133447598Y-110907569D01*
X133450500Y-110870694D01*
X133450500Y-110562426D01*
X133470185Y-110495387D01*
X133522989Y-110449632D01*
X133571545Y-110438461D01*
X135024940Y-110403857D01*
X135090660Y-110395292D01*
X135130763Y-110390067D01*
X135130766Y-110390066D01*
X135130785Y-110390064D01*
X135181423Y-110377921D01*
X135282016Y-110342209D01*
X135401595Y-110262194D01*
X135437489Y-110229908D01*
X135453539Y-110215473D01*
X135453540Y-110215471D01*
X135453543Y-110215469D01*
X135545733Y-110105009D01*
X135573900Y-110059341D01*
X135591757Y-110036758D01*
X135615430Y-110013086D01*
X135641694Y-109986822D01*
X135648156Y-109980805D01*
X135670791Y-109961193D01*
X135727854Y-109903062D01*
X135803387Y-109780603D01*
X135831230Y-109716521D01*
X135851684Y-109641770D01*
X135888364Y-109582304D01*
X135951372Y-109552109D01*
X135971287Y-109550499D01*
X136527274Y-109550499D01*
X136594313Y-109570184D01*
X136640068Y-109622988D01*
X136645582Y-109637361D01*
X136687767Y-109771768D01*
X136767782Y-109891347D01*
X136778539Y-109903307D01*
X136778546Y-109903315D01*
X136804426Y-109932097D01*
X136805204Y-109933721D01*
X136809762Y-109938279D01*
X136814274Y-109943036D01*
X136831432Y-109962112D01*
X136845880Y-109974396D01*
X136913609Y-110042125D01*
X136923087Y-110052762D01*
X136992103Y-110139814D01*
X136992107Y-110139818D01*
X136992108Y-110139819D01*
X137033107Y-110180603D01*
X137126516Y-110253861D01*
X137126518Y-110253862D01*
X137126517Y-110253862D01*
X137258771Y-110310496D01*
X137258776Y-110310497D01*
X137258780Y-110310499D01*
X137312006Y-110324760D01*
X137326261Y-110328580D01*
X137326262Y-110328580D01*
X137326269Y-110328582D01*
X137469130Y-110345662D01*
X139483699Y-110297697D01*
X139522377Y-110295290D01*
X139522391Y-110295288D01*
X139522400Y-110295288D01*
X139541264Y-110293386D01*
X139541271Y-110293384D01*
X139541281Y-110293384D01*
X139579670Y-110288020D01*
X139716247Y-110242762D01*
X139778768Y-110211569D01*
X139897057Y-110129671D01*
X139937627Y-110079462D01*
X139995069Y-110039693D01*
X140064898Y-110037291D01*
X140073060Y-110039688D01*
X140112247Y-110052674D01*
X140213323Y-110063000D01*
X140786676Y-110062999D01*
X140786684Y-110062998D01*
X140786687Y-110062998D01*
X140842030Y-110057344D01*
X140887753Y-110052674D01*
X140972869Y-110024468D01*
X141042695Y-110022067D01*
X141102737Y-110057798D01*
X141103627Y-110058766D01*
X141109100Y-110064787D01*
X141109103Y-110064790D01*
X141220054Y-110156397D01*
X141220053Y-110156397D01*
X141352309Y-110213032D01*
X141352314Y-110213033D01*
X141352318Y-110213035D01*
X141399515Y-110225681D01*
X141419799Y-110231116D01*
X141419800Y-110231116D01*
X141419807Y-110231118D01*
X141562668Y-110248198D01*
X141824258Y-110241970D01*
X141906559Y-110233233D01*
X141946317Y-110225681D01*
X141946317Y-110225680D01*
X141946322Y-110225680D01*
X142026089Y-110203632D01*
X142026088Y-110203632D01*
X142026093Y-110203631D01*
X142152742Y-110135355D01*
X142208899Y-110093785D01*
X142311180Y-109992598D01*
X142380812Y-109866690D01*
X142405581Y-109801357D01*
X142405582Y-109801354D01*
X142436921Y-109660928D01*
X142501865Y-108816651D01*
X142526634Y-108751320D01*
X142582791Y-108709750D01*
X142652509Y-108705140D01*
X142713651Y-108738954D01*
X142746806Y-108800456D01*
X142749500Y-108826163D01*
X142749500Y-114570680D01*
X142729815Y-114637719D01*
X142677011Y-114683474D01*
X142625500Y-114694680D01*
X105624500Y-114694680D01*
X105557461Y-114674995D01*
X105511706Y-114622191D01*
X105500500Y-114570680D01*
X105500500Y-111893713D01*
X106899500Y-111893713D01*
X106899500Y-112106286D01*
X106928072Y-112286687D01*
X106932754Y-112316243D01*
X106987865Y-112485857D01*
X106998444Y-112518414D01*
X107094951Y-112707820D01*
X107219890Y-112879786D01*
X107370213Y-113030109D01*
X107542179Y-113155048D01*
X107542181Y-113155049D01*
X107542184Y-113155051D01*
X107731588Y-113251557D01*
X107933757Y-113317246D01*
X108143713Y-113350500D01*
X108143714Y-113350500D01*
X108356286Y-113350500D01*
X108356287Y-113350500D01*
X108566243Y-113317246D01*
X108768412Y-113251557D01*
X108957816Y-113155051D01*
X108992591Y-113129786D01*
X109129786Y-113030109D01*
X109129788Y-113030106D01*
X109129792Y-113030104D01*
X109280104Y-112879792D01*
X109280106Y-112879788D01*
X109280109Y-112879786D01*
X109405048Y-112707820D01*
X109405047Y-112707820D01*
X109405051Y-112707816D01*
X109501557Y-112518412D01*
X109567246Y-112316243D01*
X109600500Y-112106287D01*
X109600500Y-111893713D01*
X109567246Y-111683757D01*
X109501557Y-111481588D01*
X109405051Y-111292184D01*
X109405049Y-111292181D01*
X109405048Y-111292179D01*
X109280109Y-111120213D01*
X109129786Y-110969890D01*
X108957820Y-110844951D01*
X108768414Y-110748444D01*
X108768413Y-110748443D01*
X108768412Y-110748443D01*
X108566243Y-110682754D01*
X108566241Y-110682753D01*
X108566240Y-110682753D01*
X108404957Y-110657208D01*
X108356287Y-110649500D01*
X108143713Y-110649500D01*
X108095042Y-110657208D01*
X107933760Y-110682753D01*
X107731585Y-110748444D01*
X107542179Y-110844951D01*
X107370213Y-110969890D01*
X107219890Y-111120213D01*
X107094951Y-111292179D01*
X106998444Y-111481585D01*
X106932753Y-111683760D01*
X106899500Y-111893713D01*
X105500500Y-111893713D01*
X105500500Y-93886230D01*
X105520185Y-93819191D01*
X105572989Y-93773436D01*
X105642147Y-93763492D01*
X105705703Y-93792517D01*
X105712181Y-93798549D01*
X105731344Y-93817712D01*
X105880666Y-93909814D01*
X106047203Y-93964999D01*
X106149991Y-93975500D01*
X108550008Y-93975499D01*
X108652797Y-93964999D01*
X108819334Y-93909814D01*
X108968656Y-93817712D01*
X109092712Y-93693656D01*
X109184814Y-93544334D01*
X109239999Y-93377797D01*
X109250283Y-93277135D01*
X122599500Y-93277135D01*
X122599500Y-95722870D01*
X122599501Y-95722876D01*
X122605908Y-95782483D01*
X122656202Y-95917328D01*
X122656206Y-95917335D01*
X122742452Y-96032544D01*
X122742455Y-96032547D01*
X122857664Y-96118793D01*
X122857671Y-96118797D01*
X122902618Y-96135561D01*
X122992517Y-96169091D01*
X123052127Y-96175500D01*
X123675500Y-96175499D01*
X123742539Y-96195183D01*
X123788294Y-96247987D01*
X123799500Y-96299499D01*
X123799500Y-100399413D01*
X123779815Y-100466452D01*
X123727011Y-100512207D01*
X123720126Y-100514888D01*
X123720128Y-100514892D01*
X123715627Y-100516756D01*
X123491150Y-100631132D01*
X123287350Y-100779201D01*
X123287345Y-100779205D01*
X123109205Y-100957345D01*
X123109201Y-100957350D01*
X122961132Y-101161151D01*
X122846760Y-101385616D01*
X122768910Y-101625214D01*
X122754111Y-101718649D01*
X122729500Y-101874038D01*
X122729500Y-102125962D01*
X122747194Y-102237675D01*
X122768910Y-102374785D01*
X122846760Y-102614383D01*
X122925413Y-102768747D01*
X122946433Y-102810001D01*
X122961132Y-102838848D01*
X123109201Y-103042649D01*
X123109205Y-103042654D01*
X123290789Y-103224238D01*
X123289714Y-103225312D01*
X123324225Y-103278180D01*
X123329500Y-103313962D01*
X123329500Y-104248541D01*
X123333417Y-104268231D01*
X123333417Y-104268233D01*
X123367946Y-104441828D01*
X123367948Y-104441832D01*
X123367949Y-104441836D01*
X123380279Y-104471604D01*
X123381236Y-104473914D01*
X123443366Y-104623911D01*
X123443371Y-104623920D01*
X123552859Y-104787780D01*
X123552860Y-104787781D01*
X123552861Y-104787782D01*
X123692218Y-104927139D01*
X123692219Y-104927139D01*
X123699286Y-104934206D01*
X123699285Y-104934206D01*
X123699289Y-104934209D01*
X125513181Y-106748101D01*
X125546666Y-106809424D01*
X125549500Y-106835782D01*
X125549500Y-107060701D01*
X125552401Y-107097567D01*
X125552402Y-107097573D01*
X125598254Y-107255393D01*
X125598255Y-107255396D01*
X125681917Y-107396862D01*
X125681923Y-107396870D01*
X125798129Y-107513076D01*
X125798133Y-107513079D01*
X125798135Y-107513081D01*
X125939602Y-107596744D01*
X125977206Y-107607669D01*
X126097426Y-107642597D01*
X126097429Y-107642597D01*
X126097431Y-107642598D01*
X126134306Y-107645500D01*
X126384565Y-107645500D01*
X126451604Y-107665185D01*
X126453456Y-107666398D01*
X126551079Y-107731628D01*
X126551085Y-107731631D01*
X126551086Y-107731632D01*
X126733165Y-107807052D01*
X126926455Y-107845500D01*
X126926458Y-107845501D01*
X126926460Y-107845501D01*
X127123543Y-107845501D01*
X127123544Y-107845500D01*
X127316836Y-107807052D01*
X127498915Y-107731632D01*
X127535347Y-107707289D01*
X127596545Y-107666398D01*
X127663222Y-107645520D01*
X127665436Y-107645500D01*
X127915686Y-107645500D01*
X127915694Y-107645500D01*
X127952569Y-107642598D01*
X127952571Y-107642597D01*
X127952573Y-107642597D01*
X127994191Y-107630505D01*
X128110398Y-107596744D01*
X128251865Y-107513081D01*
X128368081Y-107396865D01*
X128451744Y-107255398D01*
X128496719Y-107100594D01*
X128497597Y-107097573D01*
X128497598Y-107097567D01*
X128500500Y-107060694D01*
X128500500Y-106629306D01*
X128497598Y-106592431D01*
X128493864Y-106579580D01*
X128451745Y-106434606D01*
X128451744Y-106434603D01*
X128451744Y-106434602D01*
X128368081Y-106293135D01*
X128368079Y-106293133D01*
X128368076Y-106293129D01*
X128251870Y-106176923D01*
X128251862Y-106176917D01*
X128110396Y-106093255D01*
X128110393Y-106093254D01*
X127952573Y-106047402D01*
X127952567Y-106047401D01*
X127915701Y-106044500D01*
X127915694Y-106044500D01*
X127690783Y-106044500D01*
X127623744Y-106024815D01*
X127603102Y-106008181D01*
X125366819Y-103771898D01*
X125333334Y-103710575D01*
X125330500Y-103684217D01*
X125330500Y-103313962D01*
X125350185Y-103246923D01*
X125369623Y-103224650D01*
X125369211Y-103224238D01*
X125437391Y-103156058D01*
X125550793Y-103042656D01*
X125698870Y-102838845D01*
X125813241Y-102614379D01*
X125891090Y-102374785D01*
X125930500Y-102125962D01*
X125930500Y-101874038D01*
X125891090Y-101625215D01*
X125891089Y-101625211D01*
X125891089Y-101625210D01*
X125813242Y-101385624D01*
X125811380Y-101381128D01*
X125812461Y-101380680D01*
X125800500Y-101330845D01*
X125800500Y-96299499D01*
X125820185Y-96232460D01*
X125872989Y-96186705D01*
X125924500Y-96175499D01*
X126547871Y-96175499D01*
X126547872Y-96175499D01*
X126607483Y-96169091D01*
X126742331Y-96118796D01*
X126857546Y-96032546D01*
X126943796Y-95917331D01*
X126994091Y-95782483D01*
X127000500Y-95722873D01*
X127000499Y-93277128D01*
X126994091Y-93217517D01*
X126943796Y-93082669D01*
X126943795Y-93082668D01*
X126943793Y-93082664D01*
X126857547Y-92967455D01*
X126857544Y-92967452D01*
X126742335Y-92881206D01*
X126742328Y-92881202D01*
X126607482Y-92830908D01*
X126607483Y-92830908D01*
X126547883Y-92824501D01*
X126547881Y-92824500D01*
X126547873Y-92824500D01*
X126547865Y-92824500D01*
X125924500Y-92824500D01*
X125857461Y-92804815D01*
X125811706Y-92752011D01*
X125800500Y-92700500D01*
X125800500Y-88915781D01*
X125820185Y-88848742D01*
X125836815Y-88828104D01*
X126208501Y-88456417D01*
X126269822Y-88422934D01*
X126276776Y-88421627D01*
X126281118Y-88420940D01*
X126460832Y-88362547D01*
X126629199Y-88276760D01*
X126632746Y-88274183D01*
X126698552Y-88250702D01*
X126705633Y-88250500D01*
X127294367Y-88250500D01*
X127361406Y-88270185D01*
X127367254Y-88274183D01*
X127370799Y-88276759D01*
X127539163Y-88362545D01*
X127539165Y-88362545D01*
X127539168Y-88362547D01*
X127586109Y-88377799D01*
X127718881Y-88420940D01*
X127905514Y-88450500D01*
X127905519Y-88450500D01*
X128094486Y-88450500D01*
X128281118Y-88420940D01*
X128281121Y-88420939D01*
X128460832Y-88362547D01*
X128629199Y-88276760D01*
X128782073Y-88165690D01*
X128915690Y-88032073D01*
X129026760Y-87879199D01*
X129112547Y-87710832D01*
X129170940Y-87531118D01*
X129182890Y-87455668D01*
X129200500Y-87344486D01*
X129200500Y-87155513D01*
X129170940Y-86968881D01*
X129126741Y-86832853D01*
X129112547Y-86789168D01*
X129112545Y-86789165D01*
X129112545Y-86789163D01*
X129026759Y-86620800D01*
X128915690Y-86467927D01*
X128782073Y-86334310D01*
X128629199Y-86223240D01*
X128620644Y-86218881D01*
X128460836Y-86137454D01*
X128281118Y-86079059D01*
X128094486Y-86049500D01*
X128094481Y-86049500D01*
X127905519Y-86049500D01*
X127905514Y-86049500D01*
X127718881Y-86079059D01*
X127539163Y-86137454D01*
X127370799Y-86223240D01*
X127367254Y-86225817D01*
X127301448Y-86249298D01*
X127294367Y-86249500D01*
X126705633Y-86249500D01*
X126638594Y-86229815D01*
X126632746Y-86225817D01*
X126629200Y-86223240D01*
X126460836Y-86137454D01*
X126281118Y-86079059D01*
X126094486Y-86049500D01*
X126094481Y-86049500D01*
X125905519Y-86049500D01*
X125905514Y-86049500D01*
X125718881Y-86079059D01*
X125539163Y-86137454D01*
X125370800Y-86223240D01*
X125334935Y-86249298D01*
X125217927Y-86334310D01*
X125217925Y-86334312D01*
X125217924Y-86334312D01*
X125084312Y-86467924D01*
X125084312Y-86467925D01*
X125084310Y-86467927D01*
X125065573Y-86493716D01*
X124973240Y-86620800D01*
X124887454Y-86789165D01*
X124829059Y-86968884D01*
X124828372Y-86973223D01*
X124798437Y-87036356D01*
X124793581Y-87041497D01*
X124438336Y-87396743D01*
X124162220Y-87672859D01*
X124162218Y-87672861D01*
X124124247Y-87710832D01*
X124022859Y-87812219D01*
X123913371Y-87976079D01*
X123913366Y-87976088D01*
X123863227Y-88097137D01*
X123837950Y-88158159D01*
X123837947Y-88158171D01*
X123825080Y-88222860D01*
X123825080Y-88222861D01*
X123799500Y-88351456D01*
X123799500Y-92700500D01*
X123779815Y-92767539D01*
X123727011Y-92813294D01*
X123675500Y-92824500D01*
X123052129Y-92824500D01*
X123052123Y-92824501D01*
X122992516Y-92830908D01*
X122857671Y-92881202D01*
X122857664Y-92881206D01*
X122742455Y-92967452D01*
X122742452Y-92967455D01*
X122656206Y-93082664D01*
X122656202Y-93082671D01*
X122605908Y-93217517D01*
X122599857Y-93273806D01*
X122599501Y-93277123D01*
X122599500Y-93277135D01*
X109250283Y-93277135D01*
X109250500Y-93275009D01*
X109250499Y-92674992D01*
X109239999Y-92572203D01*
X109184814Y-92405666D01*
X109092712Y-92256344D01*
X108968656Y-92132288D01*
X108819334Y-92040186D01*
X108652797Y-91985001D01*
X108652795Y-91985000D01*
X108550010Y-91974500D01*
X106149998Y-91974500D01*
X106149981Y-91974501D01*
X106047203Y-91985000D01*
X106047200Y-91985001D01*
X105880668Y-92040185D01*
X105880663Y-92040187D01*
X105731342Y-92132289D01*
X105712181Y-92151451D01*
X105650858Y-92184936D01*
X105581166Y-92179952D01*
X105525233Y-92138080D01*
X105500816Y-92072616D01*
X105500500Y-92063770D01*
X105500500Y-89659298D01*
X109349500Y-89659298D01*
X109349500Y-90090701D01*
X109352401Y-90127567D01*
X109352402Y-90127573D01*
X109398254Y-90285393D01*
X109398255Y-90285396D01*
X109485890Y-90433580D01*
X109483919Y-90434745D01*
X109505232Y-90489058D01*
X109491540Y-90557573D01*
X109485864Y-90566404D01*
X109485890Y-90566420D01*
X109398255Y-90714603D01*
X109398254Y-90714606D01*
X109352402Y-90872426D01*
X109352401Y-90872432D01*
X109349500Y-90909298D01*
X109349500Y-91340701D01*
X109352401Y-91377567D01*
X109352402Y-91377573D01*
X109398254Y-91535393D01*
X109398255Y-91535396D01*
X109481917Y-91676862D01*
X109481923Y-91676870D01*
X109598129Y-91793076D01*
X109598133Y-91793079D01*
X109598135Y-91793081D01*
X109739602Y-91876744D01*
X109781224Y-91888836D01*
X109897426Y-91922597D01*
X109897429Y-91922597D01*
X109897431Y-91922598D01*
X109934306Y-91925500D01*
X109934314Y-91925500D01*
X111465686Y-91925500D01*
X111465694Y-91925500D01*
X111502569Y-91922598D01*
X111502571Y-91922597D01*
X111502573Y-91922597D01*
X111544191Y-91910505D01*
X111660398Y-91876744D01*
X111801865Y-91793081D01*
X111918081Y-91676865D01*
X112001744Y-91535398D01*
X112036751Y-91414905D01*
X112051064Y-91392491D01*
X112062114Y-91368297D01*
X112069580Y-91363498D01*
X112074357Y-91356019D01*
X112098519Y-91344901D01*
X112120892Y-91330523D01*
X112133799Y-91328667D01*
X112137829Y-91326813D01*
X112155827Y-91325500D01*
X112256529Y-91325500D01*
X112256545Y-91325501D01*
X112264141Y-91325501D01*
X112422252Y-91325501D01*
X112422255Y-91325501D01*
X112574983Y-91284577D01*
X112625102Y-91255639D01*
X112711914Y-91205520D01*
X112823718Y-91093716D01*
X112823718Y-91093714D01*
X112833926Y-91083507D01*
X112833928Y-91083504D01*
X116237821Y-87679610D01*
X116299142Y-87646127D01*
X116368834Y-87651111D01*
X116424767Y-87692983D01*
X116449184Y-87758447D01*
X116449500Y-87767293D01*
X116449500Y-88275001D01*
X116449501Y-88275019D01*
X116460000Y-88377796D01*
X116460001Y-88377799D01*
X116515185Y-88544331D01*
X116515186Y-88544334D01*
X116607288Y-88693656D01*
X116731344Y-88817712D01*
X116880666Y-88909814D01*
X117047203Y-88964999D01*
X117149991Y-88975500D01*
X119550008Y-88975499D01*
X119652797Y-88964999D01*
X119819334Y-88909814D01*
X119968656Y-88817712D01*
X120092712Y-88693656D01*
X120184814Y-88544334D01*
X120239999Y-88377797D01*
X120250500Y-88275009D01*
X120250499Y-87674992D01*
X120250281Y-87672862D01*
X120239999Y-87572203D01*
X120239998Y-87572200D01*
X120201381Y-87455663D01*
X120184814Y-87405666D01*
X120092712Y-87256344D01*
X119968656Y-87132288D01*
X119828256Y-87045689D01*
X119819336Y-87040187D01*
X119819331Y-87040185D01*
X119803684Y-87035000D01*
X119652797Y-86985001D01*
X119652795Y-86985000D01*
X119550016Y-86974500D01*
X117242293Y-86974500D01*
X117175254Y-86954815D01*
X117129499Y-86902011D01*
X117119555Y-86832853D01*
X117148580Y-86769297D01*
X117154593Y-86762839D01*
X117555614Y-86361819D01*
X117616937Y-86328334D01*
X117643295Y-86325500D01*
X119724902Y-86325500D01*
X119754342Y-86334144D01*
X119784329Y-86340668D01*
X119789344Y-86344422D01*
X119791941Y-86345185D01*
X119812583Y-86361819D01*
X119940138Y-86489374D01*
X119940148Y-86489385D01*
X119944478Y-86493715D01*
X119944479Y-86493716D01*
X120056283Y-86605520D01*
X120056285Y-86605521D01*
X120056289Y-86605524D01*
X120179852Y-86676862D01*
X120193215Y-86684577D01*
X120305018Y-86714534D01*
X120345941Y-86725500D01*
X120345942Y-86725500D01*
X120483752Y-86725500D01*
X120488300Y-86725835D01*
X120516911Y-86736575D01*
X120546231Y-86745185D01*
X120551800Y-86749672D01*
X120553713Y-86750391D01*
X120555249Y-86752452D01*
X120566874Y-86761820D01*
X120598129Y-86793076D01*
X120598133Y-86793079D01*
X120598135Y-86793081D01*
X120739602Y-86876744D01*
X120781224Y-86888836D01*
X120897426Y-86922597D01*
X120897429Y-86922597D01*
X120897431Y-86922598D01*
X120934306Y-86925500D01*
X120934314Y-86925500D01*
X122465686Y-86925500D01*
X122465694Y-86925500D01*
X122502569Y-86922598D01*
X122502571Y-86922597D01*
X122502573Y-86922597D01*
X122573429Y-86902011D01*
X122660398Y-86876744D01*
X122801865Y-86793081D01*
X122918081Y-86676865D01*
X123001744Y-86535398D01*
X123047598Y-86377569D01*
X123050500Y-86340694D01*
X123050500Y-85909306D01*
X123047598Y-85872431D01*
X123047124Y-85870801D01*
X123001745Y-85714606D01*
X123001744Y-85714603D01*
X123001744Y-85714602D01*
X122918081Y-85573135D01*
X122914110Y-85566420D01*
X122916083Y-85565252D01*
X122894769Y-85510965D01*
X122908448Y-85442447D01*
X122914136Y-85433595D01*
X122914110Y-85433580D01*
X122930983Y-85405048D01*
X123001744Y-85285398D01*
X123047598Y-85127569D01*
X123050500Y-85090694D01*
X123050500Y-84659306D01*
X123047598Y-84622431D01*
X123042907Y-84606286D01*
X123001745Y-84464606D01*
X123001744Y-84464603D01*
X123001744Y-84464602D01*
X122918081Y-84323135D01*
X122918079Y-84323133D01*
X122918076Y-84323129D01*
X122801870Y-84206923D01*
X122801862Y-84206917D01*
X122694989Y-84143713D01*
X138149500Y-84143713D01*
X138149500Y-84356286D01*
X138173257Y-84506286D01*
X138182754Y-84566243D01*
X138240628Y-84744361D01*
X138248444Y-84768414D01*
X138344951Y-84957820D01*
X138469890Y-85129786D01*
X138620213Y-85280109D01*
X138792179Y-85405048D01*
X138792181Y-85405049D01*
X138792184Y-85405051D01*
X138981588Y-85501557D01*
X139183757Y-85567246D01*
X139393713Y-85600500D01*
X139393714Y-85600500D01*
X139606286Y-85600500D01*
X139606287Y-85600500D01*
X139816243Y-85567246D01*
X140018412Y-85501557D01*
X140207816Y-85405051D01*
X140242591Y-85379786D01*
X140379786Y-85280109D01*
X140379788Y-85280106D01*
X140379792Y-85280104D01*
X140530104Y-85129792D01*
X140530106Y-85129788D01*
X140530109Y-85129786D01*
X140655048Y-84957820D01*
X140655047Y-84957820D01*
X140655051Y-84957816D01*
X140751557Y-84768412D01*
X140817246Y-84566243D01*
X140850500Y-84356287D01*
X140850500Y-84143713D01*
X140817246Y-83933757D01*
X140751557Y-83731588D01*
X140655051Y-83542184D01*
X140655049Y-83542181D01*
X140655048Y-83542179D01*
X140530109Y-83370213D01*
X140379786Y-83219890D01*
X140207820Y-83094951D01*
X140018414Y-82998444D01*
X140018413Y-82998443D01*
X140018412Y-82998443D01*
X139816243Y-82932754D01*
X139816241Y-82932753D01*
X139816240Y-82932753D01*
X139654957Y-82907208D01*
X139606287Y-82899500D01*
X139393713Y-82899500D01*
X139345042Y-82907208D01*
X139183760Y-82932753D01*
X138981585Y-82998444D01*
X138792179Y-83094951D01*
X138620213Y-83219890D01*
X138469890Y-83370213D01*
X138344951Y-83542179D01*
X138248444Y-83731585D01*
X138182753Y-83933760D01*
X138149500Y-84143713D01*
X122694989Y-84143713D01*
X122660396Y-84123255D01*
X122660393Y-84123254D01*
X122502573Y-84077402D01*
X122502567Y-84077401D01*
X122465701Y-84074500D01*
X122465694Y-84074500D01*
X120934306Y-84074500D01*
X120934298Y-84074500D01*
X120897432Y-84077401D01*
X120897426Y-84077402D01*
X120739606Y-84123254D01*
X120739603Y-84123255D01*
X120598137Y-84206917D01*
X120598129Y-84206923D01*
X120566874Y-84238180D01*
X120505552Y-84271666D01*
X120479192Y-84274500D01*
X120345939Y-84274500D01*
X120305018Y-84285464D01*
X120305018Y-84285465D01*
X120267750Y-84295451D01*
X120193213Y-84315423D01*
X120193208Y-84315426D01*
X120056289Y-84394475D01*
X120056281Y-84394481D01*
X119812582Y-84638181D01*
X119751259Y-84671666D01*
X119724901Y-84674500D01*
X117243471Y-84674500D01*
X117243455Y-84674499D01*
X117235859Y-84674499D01*
X117077745Y-84674499D01*
X116970389Y-84703265D01*
X116925012Y-84715424D01*
X116925011Y-84715425D01*
X116874898Y-84744359D01*
X116874897Y-84744360D01*
X116833237Y-84768412D01*
X116788087Y-84794479D01*
X116788084Y-84794481D01*
X116676280Y-84906286D01*
X112157971Y-89424594D01*
X112096648Y-89458079D01*
X112026956Y-89453095D01*
X111971023Y-89411223D01*
X111963567Y-89400048D01*
X111918081Y-89323135D01*
X111918078Y-89323132D01*
X111918076Y-89323129D01*
X111801870Y-89206923D01*
X111801862Y-89206917D01*
X111660396Y-89123255D01*
X111660393Y-89123254D01*
X111502573Y-89077402D01*
X111502567Y-89077401D01*
X111465701Y-89074500D01*
X111465694Y-89074500D01*
X109934306Y-89074500D01*
X109934298Y-89074500D01*
X109897432Y-89077401D01*
X109897426Y-89077402D01*
X109739606Y-89123254D01*
X109739603Y-89123255D01*
X109598137Y-89206917D01*
X109598129Y-89206923D01*
X109481923Y-89323129D01*
X109481919Y-89323135D01*
X109398255Y-89464603D01*
X109398254Y-89464606D01*
X109352402Y-89622426D01*
X109352401Y-89622432D01*
X109349500Y-89659298D01*
X105500500Y-89659298D01*
X105500500Y-88936230D01*
X105520185Y-88869191D01*
X105572989Y-88823436D01*
X105642147Y-88813492D01*
X105705703Y-88842517D01*
X105712181Y-88848549D01*
X105731344Y-88867712D01*
X105880666Y-88959814D01*
X106047203Y-89014999D01*
X106149991Y-89025500D01*
X108550008Y-89025499D01*
X108652797Y-89014999D01*
X108819334Y-88959814D01*
X108968656Y-88867712D01*
X109092712Y-88743656D01*
X109184814Y-88594334D01*
X109239999Y-88427797D01*
X109250500Y-88325009D01*
X109250499Y-87724992D01*
X109245863Y-87679612D01*
X109239999Y-87622203D01*
X109239998Y-87622200D01*
X109184814Y-87455666D01*
X109092712Y-87306344D01*
X108968656Y-87182288D01*
X108819334Y-87090186D01*
X108652797Y-87035001D01*
X108652795Y-87035000D01*
X108550010Y-87024500D01*
X106149998Y-87024500D01*
X106149981Y-87024501D01*
X106047203Y-87035000D01*
X106047200Y-87035001D01*
X105880668Y-87090185D01*
X105880663Y-87090187D01*
X105731342Y-87182289D01*
X105712181Y-87201451D01*
X105650858Y-87234936D01*
X105581166Y-87229952D01*
X105525233Y-87188080D01*
X105500816Y-87122616D01*
X105500500Y-87113770D01*
X105500500Y-84393713D01*
X108399500Y-84393713D01*
X108399500Y-84606286D01*
X108425178Y-84768414D01*
X108432754Y-84816243D01*
X108478755Y-84957820D01*
X108498444Y-85018414D01*
X108594951Y-85207820D01*
X108719890Y-85379786D01*
X108870213Y-85530109D01*
X109042179Y-85655048D01*
X109042181Y-85655049D01*
X109042184Y-85655051D01*
X109231588Y-85751557D01*
X109433757Y-85817246D01*
X109643713Y-85850500D01*
X109643714Y-85850500D01*
X109856286Y-85850500D01*
X109856287Y-85850500D01*
X110066243Y-85817246D01*
X110268412Y-85751557D01*
X110457816Y-85655051D01*
X110555181Y-85584312D01*
X110629786Y-85530109D01*
X110629788Y-85530106D01*
X110629792Y-85530104D01*
X110780104Y-85379792D01*
X110780106Y-85379788D01*
X110780109Y-85379786D01*
X110905048Y-85207820D01*
X110905047Y-85207820D01*
X110905051Y-85207816D01*
X111001557Y-85018412D01*
X111067246Y-84816243D01*
X111100500Y-84606287D01*
X111100500Y-84393713D01*
X111067246Y-84183757D01*
X111001557Y-83981588D01*
X110905051Y-83792184D01*
X110905049Y-83792181D01*
X110905048Y-83792179D01*
X110780109Y-83620213D01*
X110629786Y-83469890D01*
X110457820Y-83344951D01*
X110268414Y-83248444D01*
X110268413Y-83248443D01*
X110268412Y-83248443D01*
X110066243Y-83182754D01*
X110066241Y-83182753D01*
X110066240Y-83182753D01*
X109904957Y-83157208D01*
X109856287Y-83149500D01*
X109643713Y-83149500D01*
X109595042Y-83157208D01*
X109433760Y-83182753D01*
X109231585Y-83248444D01*
X109042179Y-83344951D01*
X108870213Y-83469890D01*
X108719890Y-83620213D01*
X108594951Y-83792179D01*
X108498444Y-83981585D01*
X108432753Y-84183760D01*
X108399500Y-84393713D01*
X105500500Y-84393713D01*
X105500500Y-82724983D01*
X116449500Y-82724983D01*
X116449500Y-83325001D01*
X116449501Y-83325019D01*
X116460000Y-83427796D01*
X116460001Y-83427799D01*
X116497905Y-83542184D01*
X116515186Y-83594334D01*
X116607288Y-83743656D01*
X116731344Y-83867712D01*
X116880666Y-83959814D01*
X117047203Y-84014999D01*
X117149991Y-84025500D01*
X119550008Y-84025499D01*
X119652797Y-84014999D01*
X119819334Y-83959814D01*
X119968656Y-83867712D01*
X120092712Y-83743656D01*
X120184814Y-83594334D01*
X120239999Y-83427797D01*
X120250500Y-83325009D01*
X120250499Y-82724992D01*
X120239999Y-82622203D01*
X120184814Y-82455666D01*
X120092712Y-82306344D01*
X119968656Y-82182288D01*
X119819334Y-82090186D01*
X119652797Y-82035001D01*
X119652795Y-82035000D01*
X119550010Y-82024500D01*
X117149998Y-82024500D01*
X117149981Y-82024501D01*
X117047203Y-82035000D01*
X117047200Y-82035001D01*
X116880668Y-82090185D01*
X116880663Y-82090187D01*
X116731342Y-82182289D01*
X116607289Y-82306342D01*
X116515187Y-82455663D01*
X116515186Y-82455666D01*
X116460001Y-82622203D01*
X116460001Y-82622204D01*
X116460000Y-82622204D01*
X116449500Y-82724983D01*
X105500500Y-82724983D01*
X105500500Y-81874500D01*
X105520185Y-81807461D01*
X105572989Y-81761706D01*
X105624500Y-81750500D01*
X142625500Y-81750500D01*
X142692539Y-81770185D01*
G37*
%TD.AperFunction*%
%TD*%
%TA.AperFunction,Conductor*%
%TO.N,+12V*%
G36*
X142187747Y-96022821D02*
G01*
X142236081Y-96073274D01*
X142250000Y-96130354D01*
X142250000Y-105495235D01*
X142249635Y-105504745D01*
X141932910Y-109622158D01*
X141908141Y-109687491D01*
X141851984Y-109729061D01*
X141812226Y-109736613D01*
X141550636Y-109742841D01*
X141483147Y-109724758D01*
X141436149Y-109673058D01*
X141424562Y-109604155D01*
X141429979Y-109579871D01*
X141464681Y-109475150D01*
X141474999Y-109374154D01*
X141475000Y-109374141D01*
X141475000Y-109325000D01*
X139525001Y-109325000D01*
X139525001Y-109374154D01*
X139535319Y-109475152D01*
X139586422Y-109629371D01*
X139588824Y-109699200D01*
X139553092Y-109759241D01*
X139490571Y-109790434D01*
X139471667Y-109792340D01*
X137457098Y-109840305D01*
X137389609Y-109822222D01*
X137348610Y-109781438D01*
X137317712Y-109731344D01*
X137193656Y-109607288D01*
X137190342Y-109605243D01*
X137188546Y-109603248D01*
X137187989Y-109602807D01*
X137188064Y-109602711D01*
X137143618Y-109553297D01*
X137132397Y-109484334D01*
X137160240Y-109420252D01*
X137190348Y-109394165D01*
X137193342Y-109392318D01*
X137317315Y-109268345D01*
X137409356Y-109119124D01*
X137409358Y-109119119D01*
X137464505Y-108952697D01*
X137464506Y-108952690D01*
X137474999Y-108849986D01*
X137475000Y-108849973D01*
X137475000Y-108800000D01*
X135025001Y-108800000D01*
X135025001Y-108849986D01*
X135035494Y-108952697D01*
X135090641Y-109119119D01*
X135090643Y-109119124D01*
X135182684Y-109268345D01*
X135306655Y-109392316D01*
X135306659Y-109392319D01*
X135309656Y-109394168D01*
X135311279Y-109395972D01*
X135312323Y-109396798D01*
X135312181Y-109396976D01*
X135356381Y-109446116D01*
X135367602Y-109515079D01*
X135339759Y-109579161D01*
X135309661Y-109605241D01*
X135306349Y-109607283D01*
X135306343Y-109607288D01*
X135182288Y-109731343D01*
X135182285Y-109731347D01*
X135115494Y-109839632D01*
X135063546Y-109886357D01*
X135012908Y-109898500D01*
X133529100Y-109933829D01*
X133461611Y-109915746D01*
X133414612Y-109864046D01*
X133403025Y-109795143D01*
X133407072Y-109775269D01*
X133447099Y-109637494D01*
X133447100Y-109637488D01*
X133447295Y-109635001D01*
X133447295Y-109635000D01*
X130502705Y-109635000D01*
X130502704Y-109635001D01*
X130502899Y-109637486D01*
X130548718Y-109795197D01*
X130563286Y-109819831D01*
X130580467Y-109887555D01*
X130558307Y-109953818D01*
X130503841Y-109997580D01*
X130459504Y-110006916D01*
X129895934Y-110020334D01*
X129828445Y-110002251D01*
X129781447Y-109950551D01*
X129769860Y-109881648D01*
X129770670Y-109875984D01*
X129772660Y-109864046D01*
X129973835Y-108656993D01*
X130004272Y-108594104D01*
X130063880Y-108557653D01*
X130088862Y-108553595D01*
X130473421Y-108530974D01*
X130486718Y-108534043D01*
X130500259Y-108532312D01*
X130520093Y-108541747D01*
X130541496Y-108546687D01*
X130552366Y-108557098D01*
X130563354Y-108562325D01*
X130583744Y-108587150D01*
X130586048Y-108589357D01*
X130586746Y-108590481D01*
X130631919Y-108666865D01*
X130637844Y-108672790D01*
X130645394Y-108684951D01*
X130651049Y-108705387D01*
X130661210Y-108723995D01*
X130660180Y-108738384D01*
X130664029Y-108752289D01*
X130657738Y-108772537D01*
X130656226Y-108793687D01*
X130646423Y-108808957D01*
X130643300Y-108819013D01*
X130636076Y-108825077D01*
X130635470Y-108826021D01*
X130637097Y-108827283D01*
X130632313Y-108833449D01*
X130548718Y-108974801D01*
X130502899Y-109132513D01*
X130502704Y-109134998D01*
X130502705Y-109135000D01*
X133447295Y-109135000D01*
X133447295Y-109134998D01*
X133447100Y-109132511D01*
X133447099Y-109132505D01*
X133426696Y-109062278D01*
X133426895Y-108992409D01*
X133464837Y-108933739D01*
X133476877Y-108924583D01*
X133525434Y-108892139D01*
X133664791Y-108752782D01*
X133664791Y-108752780D01*
X133674999Y-108742573D01*
X133675000Y-108742570D01*
X134066588Y-108350983D01*
X134127906Y-108317501D01*
X134146959Y-108314884D01*
X134934693Y-108268547D01*
X135002768Y-108284260D01*
X135023519Y-108300000D01*
X137474999Y-108300000D01*
X137474999Y-108250028D01*
X137474998Y-108250023D01*
X137474863Y-108248696D01*
X137474916Y-108248408D01*
X137474838Y-108246866D01*
X137475206Y-108246847D01*
X137487626Y-108180002D01*
X137535502Y-108129113D01*
X137590932Y-108112297D01*
X139500000Y-108000000D01*
X139500000Y-107999997D01*
X139518583Y-107980290D01*
X139527974Y-107974797D01*
X139534494Y-107966089D01*
X139557603Y-107957469D01*
X139578896Y-107945017D01*
X139589765Y-107945473D01*
X139599958Y-107941672D01*
X139624060Y-107946915D01*
X139648704Y-107947951D01*
X139659395Y-107954601D01*
X139668231Y-107956524D01*
X139696485Y-107977675D01*
X139793982Y-108075172D01*
X139827467Y-108136495D01*
X139822483Y-108206187D01*
X139793983Y-108250534D01*
X139680052Y-108364465D01*
X139589551Y-108511188D01*
X139589546Y-108511199D01*
X139535319Y-108674847D01*
X139525000Y-108775845D01*
X139525000Y-108825000D01*
X141474999Y-108825000D01*
X141474999Y-108775860D01*
X141474998Y-108775845D01*
X141464680Y-108674847D01*
X141410453Y-108511199D01*
X141410448Y-108511188D01*
X141319947Y-108364465D01*
X141319944Y-108364461D01*
X141206017Y-108250534D01*
X141172532Y-108189211D01*
X141177516Y-108119519D01*
X141206013Y-108075176D01*
X141320340Y-107960850D01*
X141410908Y-107814016D01*
X141465174Y-107650253D01*
X141475500Y-107549177D01*
X141475500Y-107255398D01*
X141475500Y-107151460D01*
X141475500Y-107143865D01*
X141475499Y-107143847D01*
X141475499Y-106950830D01*
X141475498Y-106950813D01*
X141465174Y-106849747D01*
X141410908Y-106685984D01*
X141320340Y-106539150D01*
X141198350Y-106417160D01*
X141051516Y-106326592D01*
X140998917Y-106309162D01*
X140952278Y-106293707D01*
X140903602Y-106263682D01*
X139536319Y-104896399D01*
X139502834Y-104835076D01*
X139500000Y-104808718D01*
X139500000Y-101750000D01*
X139499999Y-101749999D01*
X137104867Y-101270973D01*
X137042989Y-101238523D01*
X137008479Y-101177771D01*
X137005340Y-101143192D01*
X137063081Y-99988361D01*
X137086088Y-99922391D01*
X137141111Y-99879330D01*
X137210680Y-99872853D01*
X137272707Y-99905015D01*
X137298646Y-99940754D01*
X137308492Y-99961200D01*
X137457884Y-100198956D01*
X137564187Y-100332257D01*
X138384728Y-99511716D01*
X138470278Y-99629466D01*
X138620534Y-99779722D01*
X138738281Y-99865270D01*
X137917741Y-100685810D01*
X137917741Y-100685811D01*
X138051043Y-100792115D01*
X138288799Y-100941507D01*
X138541782Y-101063337D01*
X138806819Y-101156077D01*
X138806821Y-101156078D01*
X139080575Y-101218560D01*
X139080587Y-101218562D01*
X139359598Y-101249999D01*
X139359600Y-101250000D01*
X139640400Y-101250000D01*
X139640401Y-101249999D01*
X139919412Y-101218562D01*
X139919424Y-101218560D01*
X140193178Y-101156078D01*
X140193180Y-101156077D01*
X140458217Y-101063337D01*
X140711200Y-100941507D01*
X140948956Y-100792116D01*
X141082257Y-100685810D01*
X140261717Y-99865271D01*
X140379466Y-99779722D01*
X140529722Y-99629466D01*
X140615270Y-99511717D01*
X141435810Y-100332257D01*
X141542116Y-100198956D01*
X141691507Y-99961200D01*
X141813337Y-99708217D01*
X141906077Y-99443180D01*
X141906078Y-99443178D01*
X141968560Y-99169424D01*
X141968562Y-99169412D01*
X141999999Y-98890401D01*
X142000000Y-98890399D01*
X142000000Y-98609600D01*
X141999999Y-98609598D01*
X141968562Y-98330587D01*
X141968560Y-98330575D01*
X141906078Y-98056821D01*
X141906077Y-98056819D01*
X141813337Y-97791782D01*
X141691507Y-97538799D01*
X141542115Y-97301043D01*
X141435810Y-97167741D01*
X140615270Y-97988281D01*
X140529722Y-97870534D01*
X140379466Y-97720278D01*
X140261716Y-97634728D01*
X141082257Y-96814187D01*
X140948956Y-96707884D01*
X140711200Y-96558492D01*
X140458217Y-96436662D01*
X140329270Y-96391542D01*
X140272494Y-96350820D01*
X140246746Y-96285867D01*
X140260202Y-96217306D01*
X140308589Y-96166903D01*
X140370224Y-96150500D01*
X140704730Y-96150500D01*
X140704736Y-96150500D01*
X140837983Y-96140013D01*
X141058000Y-96084574D01*
X141098283Y-96066276D01*
X141143362Y-96055331D01*
X142119810Y-96006509D01*
X142187747Y-96022821D01*
G37*
%TD.AperFunction*%
%TA.AperFunction,Conductor*%
G36*
X138589273Y-96202745D02*
G01*
X138637607Y-96253198D01*
X138650992Y-96321774D01*
X138625177Y-96386700D01*
X138568482Y-96427319D01*
X138541786Y-96436660D01*
X138541784Y-96436661D01*
X138288799Y-96558492D01*
X138051043Y-96707884D01*
X137917741Y-96814187D01*
X138738282Y-97634728D01*
X138620534Y-97720278D01*
X138470278Y-97870534D01*
X138384728Y-97988282D01*
X137564187Y-97167741D01*
X137457884Y-97301043D01*
X137427475Y-97349439D01*
X137375140Y-97395730D01*
X137306087Y-97406378D01*
X137242238Y-97378003D01*
X137203866Y-97319613D01*
X137198636Y-97277275D01*
X137204113Y-97167741D01*
X137244397Y-96362048D01*
X137267404Y-96296077D01*
X137322427Y-96253016D01*
X137362047Y-96244397D01*
X138521335Y-96186433D01*
X138589273Y-96202745D01*
G37*
%TD.AperFunction*%
%TD*%
%TA.AperFunction,Conductor*%
%TO.N,VCC*%
G36*
X115641601Y-96708447D02*
G01*
X115687523Y-96737523D01*
X115700000Y-96750000D01*
X116684314Y-96750000D01*
X116679920Y-96754394D01*
X116627259Y-96845606D01*
X116600000Y-96947339D01*
X116600000Y-97052661D01*
X116627259Y-97154394D01*
X116679920Y-97245606D01*
X116684314Y-97250000D01*
X115700001Y-97250000D01*
X115700001Y-97599986D01*
X115710494Y-97702697D01*
X115765641Y-97869119D01*
X115765643Y-97869124D01*
X115857684Y-98018345D01*
X115981654Y-98142315D01*
X116130875Y-98234356D01*
X116130880Y-98234358D01*
X116297302Y-98289505D01*
X116297309Y-98289506D01*
X116400019Y-98299999D01*
X116749999Y-98299999D01*
X116750000Y-98299998D01*
X116750000Y-97315686D01*
X116754394Y-97320080D01*
X116845606Y-97372741D01*
X116947339Y-97400000D01*
X117052661Y-97400000D01*
X117154394Y-97372741D01*
X117245606Y-97320080D01*
X117250000Y-97315686D01*
X117250000Y-98299999D01*
X117599972Y-98299999D01*
X117599986Y-98299998D01*
X117702697Y-98289505D01*
X117869119Y-98234358D01*
X117869124Y-98234356D01*
X118018344Y-98142315D01*
X118048744Y-98111916D01*
X118110066Y-98078430D01*
X118179758Y-98083414D01*
X118235692Y-98125284D01*
X118260110Y-98190748D01*
X118259840Y-98211636D01*
X117499999Y-105999998D01*
X117500000Y-105999999D01*
X117500000Y-106000000D01*
X119667101Y-106963156D01*
X119720367Y-107008371D01*
X119740733Y-107075206D01*
X119739981Y-107090161D01*
X119687961Y-107558346D01*
X119660993Y-107622802D01*
X119603459Y-107662446D01*
X119533626Y-107664691D01*
X119499622Y-107650191D01*
X119401311Y-107589551D01*
X119401300Y-107589546D01*
X119237652Y-107535319D01*
X119136654Y-107525000D01*
X119087500Y-107525000D01*
X119087500Y-108376000D01*
X119067815Y-108443039D01*
X119015011Y-108488794D01*
X118963500Y-108500000D01*
X118837500Y-108500000D01*
X118837500Y-108626000D01*
X118817815Y-108693039D01*
X118765011Y-108738794D01*
X118713500Y-108750000D01*
X117850001Y-108750000D01*
X117850001Y-108786654D01*
X117860319Y-108887652D01*
X117914546Y-109051300D01*
X117914549Y-109051307D01*
X117920468Y-109060902D01*
X117938909Y-109128295D01*
X117917987Y-109194958D01*
X117864345Y-109239728D01*
X117814930Y-109250000D01*
X116858239Y-109250000D01*
X116791200Y-109230315D01*
X116745445Y-109177511D01*
X116735376Y-109142754D01*
X116610494Y-108226950D01*
X116608639Y-108213345D01*
X117850000Y-108213345D01*
X117850000Y-108250000D01*
X118587500Y-108250000D01*
X118587500Y-107525000D01*
X118587499Y-107524999D01*
X118538361Y-107525000D01*
X118538343Y-107525001D01*
X118437347Y-107535319D01*
X118273699Y-107589546D01*
X118273688Y-107589551D01*
X118126965Y-107680052D01*
X118126961Y-107680055D01*
X118005055Y-107801961D01*
X118005052Y-107801965D01*
X117914551Y-107948688D01*
X117914546Y-107948699D01*
X117860319Y-108112347D01*
X117850000Y-108213345D01*
X116608639Y-108213345D01*
X116000000Y-103750000D01*
X115303507Y-103803576D01*
X115235155Y-103789091D01*
X115185486Y-103739952D01*
X115170267Y-103671759D01*
X115194332Y-103606165D01*
X115250040Y-103563994D01*
X115254994Y-103562235D01*
X115339117Y-103534360D01*
X115339130Y-103534354D01*
X115488340Y-103442319D01*
X115488344Y-103442316D01*
X115612316Y-103318344D01*
X115612319Y-103318340D01*
X115704354Y-103169130D01*
X115704359Y-103169119D01*
X115759505Y-103002697D01*
X115769999Y-102899986D01*
X115770000Y-102899973D01*
X115770000Y-102250000D01*
X114660748Y-102250000D01*
X114682518Y-102212292D01*
X114720000Y-102072409D01*
X114720000Y-101927591D01*
X114682518Y-101787708D01*
X114660748Y-101750000D01*
X115769999Y-101750000D01*
X115769999Y-101100028D01*
X115769998Y-101100013D01*
X115759505Y-100997303D01*
X115759505Y-100997301D01*
X115704359Y-100830880D01*
X115704354Y-100830869D01*
X115612319Y-100681659D01*
X115612316Y-100681655D01*
X115488344Y-100557683D01*
X115488340Y-100557680D01*
X115339130Y-100465645D01*
X115339119Y-100465640D01*
X115172697Y-100410494D01*
X115069986Y-100400000D01*
X114420000Y-100400000D01*
X114420000Y-101509252D01*
X114382292Y-101487482D01*
X114242409Y-101450000D01*
X114097591Y-101450000D01*
X113957708Y-101487482D01*
X113920000Y-101509252D01*
X113920000Y-100400000D01*
X113270028Y-100400000D01*
X113270012Y-100400001D01*
X113167303Y-100410494D01*
X113167301Y-100410494D01*
X113000880Y-100465640D01*
X113000869Y-100465645D01*
X112851659Y-100557680D01*
X112851655Y-100557683D01*
X112727683Y-100681655D01*
X112727680Y-100681659D01*
X112635645Y-100830869D01*
X112635640Y-100830880D01*
X112580494Y-100997302D01*
X112570000Y-101100013D01*
X112570000Y-101750000D01*
X113679252Y-101750000D01*
X113657482Y-101787708D01*
X113620000Y-101927591D01*
X113620000Y-102072409D01*
X113657482Y-102212292D01*
X113679252Y-102250000D01*
X112570001Y-102250000D01*
X112570001Y-102628142D01*
X112550316Y-102695181D01*
X112497512Y-102740936D01*
X112451163Y-102752034D01*
X110117568Y-102849268D01*
X110114568Y-102849393D01*
X110109406Y-102849500D01*
X109496880Y-102849500D01*
X109429841Y-102829815D01*
X109384086Y-102777011D01*
X109374142Y-102707853D01*
X109403167Y-102644297D01*
X109461945Y-102606523D01*
X109469288Y-102604609D01*
X109665451Y-102559836D01*
X109665463Y-102559832D01*
X109919881Y-102470807D01*
X109919895Y-102470801D01*
X110162752Y-102353847D01*
X110390999Y-102210431D01*
X110511098Y-102114653D01*
X110511099Y-102114652D01*
X109761717Y-101365271D01*
X109879466Y-101279722D01*
X110029722Y-101129466D01*
X110115271Y-101011717D01*
X110864652Y-101761099D01*
X110864653Y-101761098D01*
X110960431Y-101640999D01*
X111103847Y-101412752D01*
X111220801Y-101169896D01*
X111260687Y-101055909D01*
X111260688Y-101055906D01*
X111309832Y-100915463D01*
X111309836Y-100915451D01*
X111369818Y-100652651D01*
X111369821Y-100652633D01*
X111399999Y-100384787D01*
X111400000Y-100384783D01*
X111400000Y-100115216D01*
X111399999Y-100115212D01*
X111369821Y-99847366D01*
X111369818Y-99847348D01*
X111309836Y-99584548D01*
X111309832Y-99584536D01*
X111220807Y-99330118D01*
X111220801Y-99330104D01*
X111103847Y-99087247D01*
X110960429Y-98858997D01*
X110960427Y-98858993D01*
X110864653Y-98738900D01*
X110864652Y-98738899D01*
X110115270Y-99488281D01*
X110029722Y-99370534D01*
X109879466Y-99220278D01*
X109761717Y-99134728D01*
X110511099Y-98385346D01*
X110390998Y-98289568D01*
X110162752Y-98146152D01*
X109919895Y-98029198D01*
X109919881Y-98029192D01*
X109665463Y-97940167D01*
X109665451Y-97940163D01*
X109402651Y-97880181D01*
X109402633Y-97880178D01*
X109134787Y-97850000D01*
X108865212Y-97850000D01*
X108597366Y-97880178D01*
X108597348Y-97880181D01*
X108334548Y-97940163D01*
X108334536Y-97940167D01*
X108080118Y-98029192D01*
X108080104Y-98029198D01*
X107837247Y-98146152D01*
X107609001Y-98289568D01*
X107488899Y-98385345D01*
X108238282Y-99134728D01*
X108120534Y-99220278D01*
X107970278Y-99370534D01*
X107884728Y-99488282D01*
X107135345Y-98738899D01*
X107039568Y-98859001D01*
X106896152Y-99087247D01*
X106779198Y-99330104D01*
X106779192Y-99330118D01*
X106690167Y-99584536D01*
X106690163Y-99584548D01*
X106630181Y-99847348D01*
X106630179Y-99847364D01*
X106619382Y-99943188D01*
X106592315Y-100007602D01*
X106534720Y-100047157D01*
X106464883Y-100049294D01*
X106404977Y-100013336D01*
X106374021Y-99950698D01*
X106372269Y-99934466D01*
X106368640Y-99847348D01*
X106255238Y-97125715D01*
X106272115Y-97057916D01*
X106322969Y-97010003D01*
X106375778Y-96996600D01*
X115500000Y-96750000D01*
X115510984Y-96738716D01*
X115571849Y-96704405D01*
X115641601Y-96708447D01*
G37*
%TD.AperFunction*%
%TA.AperFunction,Conductor*%
G36*
X114420000Y-103599999D02*
G01*
X114721253Y-103599999D01*
X114788292Y-103619684D01*
X114834047Y-103672488D01*
X114843991Y-103741646D01*
X114814966Y-103805202D01*
X114756188Y-103842976D01*
X114730766Y-103847633D01*
X114150672Y-103892256D01*
X112859553Y-103991572D01*
X112791202Y-103977087D01*
X112741532Y-103927948D01*
X112728451Y-103892256D01*
X112697990Y-103739952D01*
X112664359Y-103571796D01*
X112670514Y-103502201D01*
X112713319Y-103446978D01*
X112779184Y-103423665D01*
X112847198Y-103439662D01*
X112851049Y-103441942D01*
X113000873Y-103534356D01*
X113000880Y-103534359D01*
X113167302Y-103589505D01*
X113270019Y-103599999D01*
X113919999Y-103599999D01*
X113920000Y-103599998D01*
X113920000Y-102490747D01*
X113957708Y-102512518D01*
X114097591Y-102550000D01*
X114242409Y-102550000D01*
X114382292Y-102512518D01*
X114420000Y-102490747D01*
X114420000Y-103599999D01*
G37*
%TD.AperFunction*%
%TA.AperFunction,Conductor*%
G36*
X106608738Y-100680569D02*
G01*
X106648927Y-100737723D01*
X106652398Y-100749988D01*
X106690164Y-100915455D01*
X106690167Y-100915463D01*
X106779192Y-101169881D01*
X106779198Y-101169895D01*
X106896152Y-101412752D01*
X107039568Y-101640998D01*
X107135346Y-101761099D01*
X107884728Y-101011716D01*
X107970278Y-101129466D01*
X108120534Y-101279722D01*
X108238281Y-101365270D01*
X107488899Y-102114652D01*
X107488900Y-102114653D01*
X107608993Y-102210427D01*
X107608997Y-102210429D01*
X107837247Y-102353847D01*
X108080104Y-102470801D01*
X108080118Y-102470807D01*
X108334536Y-102559832D01*
X108334548Y-102559836D01*
X108530712Y-102604609D01*
X108591691Y-102638718D01*
X108624549Y-102700379D01*
X108618854Y-102770016D01*
X108576414Y-102825520D01*
X108510704Y-102849268D01*
X108503120Y-102849500D01*
X107795260Y-102849500D01*
X107662017Y-102859987D01*
X107442002Y-102915425D01*
X107354125Y-102955340D01*
X107308007Y-102966332D01*
X106623892Y-102994837D01*
X106556091Y-102977961D01*
X106508178Y-102927108D01*
X106494837Y-102876110D01*
X106407614Y-100782741D01*
X106424491Y-100714942D01*
X106475345Y-100667029D01*
X106544029Y-100654215D01*
X106608738Y-100680569D01*
G37*
%TD.AperFunction*%
%TD*%
M02*
