%TF.GenerationSoftware,KiCad,Pcbnew,9.0.4*%
%TF.CreationDate,2025-10-12T14:37:51-05:00*%
%TF.ProjectId,Onboarding_pcb,4f6e626f-6172-4646-996e-675f7063622e,rev?*%
%TF.SameCoordinates,Original*%
%TF.FileFunction,Soldermask,Top*%
%TF.FilePolarity,Negative*%
%FSLAX46Y46*%
G04 Gerber Fmt 4.6, Leading zero omitted, Abs format (unit mm)*
G04 Created by KiCad (PCBNEW 9.0.4) date 2025-10-12 14:37:51*
%MOMM*%
%LPD*%
G01*
G04 APERTURE LIST*
G04 Aperture macros list*
%AMRoundRect*
0 Rectangle with rounded corners*
0 $1 Rounding radius*
0 $2 $3 $4 $5 $6 $7 $8 $9 X,Y pos of 4 corners*
0 Add a 4 corners polygon primitive as box body*
4,1,4,$2,$3,$4,$5,$6,$7,$8,$9,$2,$3,0*
0 Add four circle primitives for the rounded corners*
1,1,$1+$1,$2,$3*
1,1,$1+$1,$4,$5*
1,1,$1+$1,$6,$7*
1,1,$1+$1,$8,$9*
0 Add four rect primitives between the rounded corners*
20,1,$1+$1,$2,$3,$4,$5,0*
20,1,$1+$1,$4,$5,$6,$7,0*
20,1,$1+$1,$6,$7,$8,$9,0*
20,1,$1+$1,$8,$9,$2,$3,0*%
G04 Aperture macros list end*
%ADD10C,1.400000*%
%ADD11RoundRect,0.250000X0.350000X0.450000X-0.350000X0.450000X-0.350000X-0.450000X0.350000X-0.450000X0*%
%ADD12RoundRect,0.150000X-0.825000X-0.150000X0.825000X-0.150000X0.825000X0.150000X-0.825000X0.150000X0*%
%ADD13RoundRect,0.250000X-0.475000X0.250000X-0.475000X-0.250000X0.475000X-0.250000X0.475000X0.250000X0*%
%ADD14RoundRect,0.237500X-0.250000X-0.237500X0.250000X-0.237500X0.250000X0.237500X-0.250000X0.237500X0*%
%ADD15RoundRect,0.250000X0.550000X-0.550000X0.550000X0.550000X-0.550000X0.550000X-0.550000X-0.550000X0*%
%ADD16C,1.600000*%
%ADD17RoundRect,0.760000X-1.140000X1.140000X-1.140000X-1.140000X1.140000X-1.140000X1.140000X1.140000X0*%
%ADD18C,4.000000*%
%ADD19RoundRect,0.150000X0.700000X-0.150000X0.700000X0.150000X-0.700000X0.150000X-0.700000X-0.150000X0*%
%ADD20RoundRect,0.250000X1.150000X-0.250000X1.150000X0.250000X-1.150000X0.250000X-1.150000X-0.250000X0*%
%ADD21RoundRect,0.237500X-0.237500X0.250000X-0.237500X-0.250000X0.237500X-0.250000X0.237500X0.250000X0*%
%ADD22RoundRect,0.249999X-0.850001X-0.850001X0.850001X-0.850001X0.850001X0.850001X-0.850001X0.850001X0*%
%ADD23C,2.200000*%
%ADD24R,3.400000X2.350000*%
%ADD25RoundRect,0.760000X1.140000X-1.140000X1.140000X1.140000X-1.140000X1.140000X-1.140000X-1.140000X0*%
%ADD26C,3.800000*%
G04 APERTURE END LIST*
D10*
%TO.C,TP2*%
X136000000Y-86500000D03*
X136000000Y-88500000D03*
%TD*%
D11*
%TO.C,R1*%
X133250000Y-104000000D03*
X135250000Y-104000000D03*
%TD*%
D12*
%TO.C,U2*%
X131975000Y-106845000D03*
X131975000Y-108115000D03*
X131975000Y-109385000D03*
X131975000Y-110655000D03*
X127025000Y-110655000D03*
X127025000Y-109385000D03*
X127025000Y-108115000D03*
X127025000Y-106845000D03*
%TD*%
D13*
%TO.C,C4*%
X136250000Y-110450000D03*
X136250000Y-108550000D03*
%TD*%
D14*
%TO.C,R4*%
X120825000Y-112000000D03*
X119000000Y-112000000D03*
%TD*%
%TO.C,R2*%
X120662500Y-108500000D03*
X118837500Y-108500000D03*
%TD*%
D15*
%TO.C,C1*%
X117000000Y-97000000D03*
D16*
X117000000Y-92000000D03*
%TD*%
D17*
%TO.C,J1*%
X139500000Y-93750000D03*
D18*
X139500000Y-98750000D03*
%TD*%
D19*
%TO.C,J4*%
X110700000Y-91125000D03*
X110700000Y-89875000D03*
D20*
X107350000Y-92975000D03*
X107350000Y-88025000D03*
%TD*%
D10*
%TO.C,TP3*%
X126000000Y-87250000D03*
X128000000Y-87250000D03*
%TD*%
D21*
%TO.C,R3*%
X140500000Y-107250000D03*
X140500000Y-109075000D03*
%TD*%
D22*
%TO.C,D2*%
X114170000Y-102000000D03*
D23*
X124330000Y-102000000D03*
%TD*%
D24*
%TO.C,L1*%
X124800000Y-94500000D03*
X132700000Y-94500000D03*
%TD*%
D19*
%TO.C,J3*%
X121700000Y-86125000D03*
X121700000Y-84875000D03*
D20*
X118350000Y-87975000D03*
X118350000Y-83025000D03*
%TD*%
D25*
%TO.C,J2*%
X109000000Y-105250000D03*
D26*
X109000000Y-100250000D03*
%TD*%
M02*
