%TF.GenerationSoftware,KiCad,Pcbnew,9.0.4*%
%TF.CreationDate,2025-10-10T17:17:38-05:00*%
%TF.ProjectId,Onboarding_pcb,4f6e626f-6172-4646-996e-675f7063622e,rev?*%
%TF.SameCoordinates,Original*%
%TF.FileFunction,Legend,Top*%
%TF.FilePolarity,Positive*%
%FSLAX46Y46*%
G04 Gerber Fmt 4.6, Leading zero omitted, Abs format (unit mm)*
G04 Created by KiCad (PCBNEW 9.0.4) date 2025-10-10 17:17:38*
%MOMM*%
%LPD*%
G01*
G04 APERTURE LIST*
G04 Aperture macros list*
%AMRoundRect*
0 Rectangle with rounded corners*
0 $1 Rounding radius*
0 $2 $3 $4 $5 $6 $7 $8 $9 X,Y pos of 4 corners*
0 Add a 4 corners polygon primitive as box body*
4,1,4,$2,$3,$4,$5,$6,$7,$8,$9,$2,$3,0*
0 Add four circle primitives for the rounded corners*
1,1,$1+$1,$2,$3*
1,1,$1+$1,$4,$5*
1,1,$1+$1,$6,$7*
1,1,$1+$1,$8,$9*
0 Add four rect primitives between the rounded corners*
20,1,$1+$1,$2,$3,$4,$5,0*
20,1,$1+$1,$4,$5,$6,$7,0*
20,1,$1+$1,$6,$7,$8,$9,0*
20,1,$1+$1,$8,$9,$2,$3,0*%
G04 Aperture macros list end*
%ADD10C,0.150000*%
%ADD11C,0.254000*%
%ADD12C,0.200000*%
%ADD13C,0.120000*%
%ADD14C,2.200000*%
%ADD15R,3.400000X2.350000*%
%ADD16RoundRect,0.150000X-0.825000X-0.150000X0.825000X-0.150000X0.825000X0.150000X-0.825000X0.150000X0*%
%ADD17C,1.400000*%
%ADD18RoundRect,0.237500X-0.250000X-0.237500X0.250000X-0.237500X0.250000X0.237500X-0.250000X0.237500X0*%
%ADD19RoundRect,0.237500X-0.237500X0.250000X-0.237500X-0.250000X0.237500X-0.250000X0.237500X0.250000X0*%
%ADD20RoundRect,0.250000X0.350000X0.450000X-0.350000X0.450000X-0.350000X-0.450000X0.350000X-0.450000X0*%
%ADD21RoundRect,0.150000X0.700000X-0.150000X0.700000X0.150000X-0.700000X0.150000X-0.700000X-0.150000X0*%
%ADD22RoundRect,0.250000X1.150000X-0.250000X1.150000X0.250000X-1.150000X0.250000X-1.150000X-0.250000X0*%
%ADD23RoundRect,0.760000X1.140000X-1.140000X1.140000X1.140000X-1.140000X1.140000X-1.140000X-1.140000X0*%
%ADD24C,3.800000*%
%ADD25RoundRect,0.760000X-1.140000X1.140000X-1.140000X-1.140000X1.140000X-1.140000X1.140000X1.140000X0*%
%ADD26C,4.000000*%
%ADD27RoundRect,0.249999X-0.850001X-0.850001X0.850001X-0.850001X0.850001X0.850001X-0.850001X0.850001X0*%
%ADD28RoundRect,0.250000X-0.475000X0.250000X-0.475000X-0.250000X0.475000X-0.250000X0.475000X0.250000X0*%
%ADD29RoundRect,0.237500X-0.300000X-0.237500X0.300000X-0.237500X0.300000X0.237500X-0.300000X0.237500X0*%
%ADD30RoundRect,0.250000X0.550000X-0.550000X0.550000X0.550000X-0.550000X0.550000X-0.550000X-0.550000X0*%
%ADD31C,1.600000*%
G04 APERTURE END LIST*
D10*
X106988095Y-81054819D02*
X106988095Y-80054819D01*
X106988095Y-80531009D02*
X107559523Y-80531009D01*
X107559523Y-81054819D02*
X107559523Y-80054819D01*
X108559523Y-81054819D02*
X107988095Y-81054819D01*
X108273809Y-81054819D02*
X108273809Y-80054819D01*
X108273809Y-80054819D02*
X108178571Y-80197676D01*
X108178571Y-80197676D02*
X108083333Y-80292914D01*
X108083333Y-80292914D02*
X107988095Y-80340533D01*
D11*
X128538333Y-95074318D02*
X127933571Y-95074318D01*
X127933571Y-95074318D02*
X127933571Y-93804318D01*
X129626905Y-95074318D02*
X128901190Y-95074318D01*
X129264047Y-95074318D02*
X129264047Y-93804318D01*
X129264047Y-93804318D02*
X129143095Y-93985746D01*
X129143095Y-93985746D02*
X129022143Y-94106699D01*
X129022143Y-94106699D02*
X128901190Y-94167175D01*
D10*
X128738095Y-104804819D02*
X128738095Y-105614342D01*
X128738095Y-105614342D02*
X128785714Y-105709580D01*
X128785714Y-105709580D02*
X128833333Y-105757200D01*
X128833333Y-105757200D02*
X128928571Y-105804819D01*
X128928571Y-105804819D02*
X129119047Y-105804819D01*
X129119047Y-105804819D02*
X129214285Y-105757200D01*
X129214285Y-105757200D02*
X129261904Y-105709580D01*
X129261904Y-105709580D02*
X129309523Y-105614342D01*
X129309523Y-105614342D02*
X129309523Y-104804819D01*
X129738095Y-104900057D02*
X129785714Y-104852438D01*
X129785714Y-104852438D02*
X129880952Y-104804819D01*
X129880952Y-104804819D02*
X130119047Y-104804819D01*
X130119047Y-104804819D02*
X130214285Y-104852438D01*
X130214285Y-104852438D02*
X130261904Y-104900057D01*
X130261904Y-104900057D02*
X130309523Y-104995295D01*
X130309523Y-104995295D02*
X130309523Y-105090533D01*
X130309523Y-105090533D02*
X130261904Y-105233390D01*
X130261904Y-105233390D02*
X129690476Y-105804819D01*
X129690476Y-105804819D02*
X130309523Y-105804819D01*
X125838095Y-84954819D02*
X126409523Y-84954819D01*
X126123809Y-85954819D02*
X126123809Y-84954819D01*
X126742857Y-85954819D02*
X126742857Y-84954819D01*
X126742857Y-84954819D02*
X127123809Y-84954819D01*
X127123809Y-84954819D02*
X127219047Y-85002438D01*
X127219047Y-85002438D02*
X127266666Y-85050057D01*
X127266666Y-85050057D02*
X127314285Y-85145295D01*
X127314285Y-85145295D02*
X127314285Y-85288152D01*
X127314285Y-85288152D02*
X127266666Y-85383390D01*
X127266666Y-85383390D02*
X127219047Y-85431009D01*
X127219047Y-85431009D02*
X127123809Y-85478628D01*
X127123809Y-85478628D02*
X126742857Y-85478628D01*
X127647619Y-84954819D02*
X128266666Y-84954819D01*
X128266666Y-84954819D02*
X127933333Y-85335771D01*
X127933333Y-85335771D02*
X128076190Y-85335771D01*
X128076190Y-85335771D02*
X128171428Y-85383390D01*
X128171428Y-85383390D02*
X128219047Y-85431009D01*
X128219047Y-85431009D02*
X128266666Y-85526247D01*
X128266666Y-85526247D02*
X128266666Y-85764342D01*
X128266666Y-85764342D02*
X128219047Y-85859580D01*
X128219047Y-85859580D02*
X128171428Y-85907200D01*
X128171428Y-85907200D02*
X128076190Y-85954819D01*
X128076190Y-85954819D02*
X127790476Y-85954819D01*
X127790476Y-85954819D02*
X127695238Y-85907200D01*
X127695238Y-85907200D02*
X127647619Y-85859580D01*
X137654819Y-88661904D02*
X137654819Y-88090476D01*
X138654819Y-88376190D02*
X137654819Y-88376190D01*
X138654819Y-87757142D02*
X137654819Y-87757142D01*
X137654819Y-87757142D02*
X137654819Y-87376190D01*
X137654819Y-87376190D02*
X137702438Y-87280952D01*
X137702438Y-87280952D02*
X137750057Y-87233333D01*
X137750057Y-87233333D02*
X137845295Y-87185714D01*
X137845295Y-87185714D02*
X137988152Y-87185714D01*
X137988152Y-87185714D02*
X138083390Y-87233333D01*
X138083390Y-87233333D02*
X138131009Y-87280952D01*
X138131009Y-87280952D02*
X138178628Y-87376190D01*
X138178628Y-87376190D02*
X138178628Y-87757142D01*
X137750057Y-86804761D02*
X137702438Y-86757142D01*
X137702438Y-86757142D02*
X137654819Y-86661904D01*
X137654819Y-86661904D02*
X137654819Y-86423809D01*
X137654819Y-86423809D02*
X137702438Y-86328571D01*
X137702438Y-86328571D02*
X137750057Y-86280952D01*
X137750057Y-86280952D02*
X137845295Y-86233333D01*
X137845295Y-86233333D02*
X137940533Y-86233333D01*
X137940533Y-86233333D02*
X138083390Y-86280952D01*
X138083390Y-86280952D02*
X138654819Y-86852380D01*
X138654819Y-86852380D02*
X138654819Y-86233333D01*
X119745833Y-114274819D02*
X119412500Y-113798628D01*
X119174405Y-114274819D02*
X119174405Y-113274819D01*
X119174405Y-113274819D02*
X119555357Y-113274819D01*
X119555357Y-113274819D02*
X119650595Y-113322438D01*
X119650595Y-113322438D02*
X119698214Y-113370057D01*
X119698214Y-113370057D02*
X119745833Y-113465295D01*
X119745833Y-113465295D02*
X119745833Y-113608152D01*
X119745833Y-113608152D02*
X119698214Y-113703390D01*
X119698214Y-113703390D02*
X119650595Y-113751009D01*
X119650595Y-113751009D02*
X119555357Y-113798628D01*
X119555357Y-113798628D02*
X119174405Y-113798628D01*
X120602976Y-113608152D02*
X120602976Y-114274819D01*
X120364881Y-113227200D02*
X120126786Y-113941485D01*
X120126786Y-113941485D02*
X120745833Y-113941485D01*
X142384819Y-108329166D02*
X141908628Y-108662499D01*
X142384819Y-108900594D02*
X141384819Y-108900594D01*
X141384819Y-108900594D02*
X141384819Y-108519642D01*
X141384819Y-108519642D02*
X141432438Y-108424404D01*
X141432438Y-108424404D02*
X141480057Y-108376785D01*
X141480057Y-108376785D02*
X141575295Y-108329166D01*
X141575295Y-108329166D02*
X141718152Y-108329166D01*
X141718152Y-108329166D02*
X141813390Y-108376785D01*
X141813390Y-108376785D02*
X141861009Y-108424404D01*
X141861009Y-108424404D02*
X141908628Y-108519642D01*
X141908628Y-108519642D02*
X141908628Y-108900594D01*
X141384819Y-107995832D02*
X141384819Y-107376785D01*
X141384819Y-107376785D02*
X141765771Y-107710118D01*
X141765771Y-107710118D02*
X141765771Y-107567261D01*
X141765771Y-107567261D02*
X141813390Y-107472023D01*
X141813390Y-107472023D02*
X141861009Y-107424404D01*
X141861009Y-107424404D02*
X141956247Y-107376785D01*
X141956247Y-107376785D02*
X142194342Y-107376785D01*
X142194342Y-107376785D02*
X142289580Y-107424404D01*
X142289580Y-107424404D02*
X142337200Y-107472023D01*
X142337200Y-107472023D02*
X142384819Y-107567261D01*
X142384819Y-107567261D02*
X142384819Y-107852975D01*
X142384819Y-107852975D02*
X142337200Y-107948213D01*
X142337200Y-107948213D02*
X142289580Y-107995832D01*
X119583333Y-111204819D02*
X119250000Y-110728628D01*
X119011905Y-111204819D02*
X119011905Y-110204819D01*
X119011905Y-110204819D02*
X119392857Y-110204819D01*
X119392857Y-110204819D02*
X119488095Y-110252438D01*
X119488095Y-110252438D02*
X119535714Y-110300057D01*
X119535714Y-110300057D02*
X119583333Y-110395295D01*
X119583333Y-110395295D02*
X119583333Y-110538152D01*
X119583333Y-110538152D02*
X119535714Y-110633390D01*
X119535714Y-110633390D02*
X119488095Y-110681009D01*
X119488095Y-110681009D02*
X119392857Y-110728628D01*
X119392857Y-110728628D02*
X119011905Y-110728628D01*
X119964286Y-110300057D02*
X120011905Y-110252438D01*
X120011905Y-110252438D02*
X120107143Y-110204819D01*
X120107143Y-110204819D02*
X120345238Y-110204819D01*
X120345238Y-110204819D02*
X120440476Y-110252438D01*
X120440476Y-110252438D02*
X120488095Y-110300057D01*
X120488095Y-110300057D02*
X120535714Y-110395295D01*
X120535714Y-110395295D02*
X120535714Y-110490533D01*
X120535714Y-110490533D02*
X120488095Y-110633390D01*
X120488095Y-110633390D02*
X119916667Y-111204819D01*
X119916667Y-111204819D02*
X120535714Y-111204819D01*
X134083333Y-106104819D02*
X133750000Y-105628628D01*
X133511905Y-106104819D02*
X133511905Y-105104819D01*
X133511905Y-105104819D02*
X133892857Y-105104819D01*
X133892857Y-105104819D02*
X133988095Y-105152438D01*
X133988095Y-105152438D02*
X134035714Y-105200057D01*
X134035714Y-105200057D02*
X134083333Y-105295295D01*
X134083333Y-105295295D02*
X134083333Y-105438152D01*
X134083333Y-105438152D02*
X134035714Y-105533390D01*
X134035714Y-105533390D02*
X133988095Y-105581009D01*
X133988095Y-105581009D02*
X133892857Y-105628628D01*
X133892857Y-105628628D02*
X133511905Y-105628628D01*
X135035714Y-106104819D02*
X134464286Y-106104819D01*
X134750000Y-106104819D02*
X134750000Y-105104819D01*
X134750000Y-105104819D02*
X134654762Y-105247676D01*
X134654762Y-105247676D02*
X134559524Y-105342914D01*
X134559524Y-105342914D02*
X134464286Y-105390533D01*
X104204819Y-90833333D02*
X104919104Y-90833333D01*
X104919104Y-90833333D02*
X105061961Y-90880952D01*
X105061961Y-90880952D02*
X105157200Y-90976190D01*
X105157200Y-90976190D02*
X105204819Y-91119047D01*
X105204819Y-91119047D02*
X105204819Y-91214285D01*
X104538152Y-89928571D02*
X105204819Y-89928571D01*
X104157200Y-90166666D02*
X104871485Y-90404761D01*
X104871485Y-90404761D02*
X104871485Y-89785714D01*
X115204819Y-85833333D02*
X115919104Y-85833333D01*
X115919104Y-85833333D02*
X116061961Y-85880952D01*
X116061961Y-85880952D02*
X116157200Y-85976190D01*
X116157200Y-85976190D02*
X116204819Y-86119047D01*
X116204819Y-86119047D02*
X116204819Y-86214285D01*
X115204819Y-85452380D02*
X115204819Y-84833333D01*
X115204819Y-84833333D02*
X115585771Y-85166666D01*
X115585771Y-85166666D02*
X115585771Y-85023809D01*
X115585771Y-85023809D02*
X115633390Y-84928571D01*
X115633390Y-84928571D02*
X115681009Y-84880952D01*
X115681009Y-84880952D02*
X115776247Y-84833333D01*
X115776247Y-84833333D02*
X116014342Y-84833333D01*
X116014342Y-84833333D02*
X116109580Y-84880952D01*
X116109580Y-84880952D02*
X116157200Y-84928571D01*
X116157200Y-84928571D02*
X116204819Y-85023809D01*
X116204819Y-85023809D02*
X116204819Y-85309523D01*
X116204819Y-85309523D02*
X116157200Y-85404761D01*
X116157200Y-85404761D02*
X116109580Y-85452380D01*
X103204819Y-103333333D02*
X103919104Y-103333333D01*
X103919104Y-103333333D02*
X104061961Y-103380952D01*
X104061961Y-103380952D02*
X104157200Y-103476190D01*
X104157200Y-103476190D02*
X104204819Y-103619047D01*
X104204819Y-103619047D02*
X104204819Y-103714285D01*
X103300057Y-102904761D02*
X103252438Y-102857142D01*
X103252438Y-102857142D02*
X103204819Y-102761904D01*
X103204819Y-102761904D02*
X103204819Y-102523809D01*
X103204819Y-102523809D02*
X103252438Y-102428571D01*
X103252438Y-102428571D02*
X103300057Y-102380952D01*
X103300057Y-102380952D02*
X103395295Y-102333333D01*
X103395295Y-102333333D02*
X103490533Y-102333333D01*
X103490533Y-102333333D02*
X103633390Y-102380952D01*
X103633390Y-102380952D02*
X104204819Y-102952380D01*
X104204819Y-102952380D02*
X104204819Y-102333333D01*
X107864700Y-97071428D02*
X107864700Y-95928571D01*
X108436128Y-96499999D02*
X107293271Y-96499999D01*
X107864700Y-110071428D02*
X107864700Y-108928571D01*
X144704819Y-96583333D02*
X145419104Y-96583333D01*
X145419104Y-96583333D02*
X145561961Y-96630952D01*
X145561961Y-96630952D02*
X145657200Y-96726190D01*
X145657200Y-96726190D02*
X145704819Y-96869047D01*
X145704819Y-96869047D02*
X145704819Y-96964285D01*
X145704819Y-95583333D02*
X145704819Y-96154761D01*
X145704819Y-95869047D02*
X144704819Y-95869047D01*
X144704819Y-95869047D02*
X144847676Y-95964285D01*
X144847676Y-95964285D02*
X144942914Y-96059523D01*
X144942914Y-96059523D02*
X144990533Y-96154761D01*
X141364700Y-103321428D02*
X141364700Y-102178571D01*
X141936128Y-102749999D02*
X140793271Y-102749999D01*
X141364700Y-90321428D02*
X141364700Y-89178571D01*
X141238095Y-111054819D02*
X141238095Y-110054819D01*
X141238095Y-110531009D02*
X141809523Y-110531009D01*
X141809523Y-111054819D02*
X141809523Y-110054819D01*
X142714285Y-110388152D02*
X142714285Y-111054819D01*
X142476190Y-110007200D02*
X142238095Y-110721485D01*
X142238095Y-110721485D02*
X142857142Y-110721485D01*
X107238095Y-111054819D02*
X107238095Y-110054819D01*
X107238095Y-110531009D02*
X107809523Y-110531009D01*
X107809523Y-111054819D02*
X107809523Y-110054819D01*
X108190476Y-110054819D02*
X108809523Y-110054819D01*
X108809523Y-110054819D02*
X108476190Y-110435771D01*
X108476190Y-110435771D02*
X108619047Y-110435771D01*
X108619047Y-110435771D02*
X108714285Y-110483390D01*
X108714285Y-110483390D02*
X108761904Y-110531009D01*
X108761904Y-110531009D02*
X108809523Y-110626247D01*
X108809523Y-110626247D02*
X108809523Y-110864342D01*
X108809523Y-110864342D02*
X108761904Y-110959580D01*
X108761904Y-110959580D02*
X108714285Y-111007200D01*
X108714285Y-111007200D02*
X108619047Y-111054819D01*
X108619047Y-111054819D02*
X108333333Y-111054819D01*
X108333333Y-111054819D02*
X108238095Y-111007200D01*
X108238095Y-111007200D02*
X108190476Y-110959580D01*
X140988095Y-81304819D02*
X140988095Y-80304819D01*
X140988095Y-80781009D02*
X141559523Y-80781009D01*
X141559523Y-81304819D02*
X141559523Y-80304819D01*
X141988095Y-80400057D02*
X142035714Y-80352438D01*
X142035714Y-80352438D02*
X142130952Y-80304819D01*
X142130952Y-80304819D02*
X142369047Y-80304819D01*
X142369047Y-80304819D02*
X142464285Y-80352438D01*
X142464285Y-80352438D02*
X142511904Y-80400057D01*
X142511904Y-80400057D02*
X142559523Y-80495295D01*
X142559523Y-80495295D02*
X142559523Y-80590533D01*
X142559523Y-80590533D02*
X142511904Y-80733390D01*
X142511904Y-80733390D02*
X141940476Y-81304819D01*
X141940476Y-81304819D02*
X142559523Y-81304819D01*
X118511905Y-99984819D02*
X118511905Y-98984819D01*
X118511905Y-98984819D02*
X118750000Y-98984819D01*
X118750000Y-98984819D02*
X118892857Y-99032438D01*
X118892857Y-99032438D02*
X118988095Y-99127676D01*
X118988095Y-99127676D02*
X119035714Y-99222914D01*
X119035714Y-99222914D02*
X119083333Y-99413390D01*
X119083333Y-99413390D02*
X119083333Y-99556247D01*
X119083333Y-99556247D02*
X119035714Y-99746723D01*
X119035714Y-99746723D02*
X118988095Y-99841961D01*
X118988095Y-99841961D02*
X118892857Y-99937200D01*
X118892857Y-99937200D02*
X118750000Y-99984819D01*
X118750000Y-99984819D02*
X118511905Y-99984819D01*
X119464286Y-99080057D02*
X119511905Y-99032438D01*
X119511905Y-99032438D02*
X119607143Y-98984819D01*
X119607143Y-98984819D02*
X119845238Y-98984819D01*
X119845238Y-98984819D02*
X119940476Y-99032438D01*
X119940476Y-99032438D02*
X119988095Y-99080057D01*
X119988095Y-99080057D02*
X120035714Y-99175295D01*
X120035714Y-99175295D02*
X120035714Y-99270533D01*
X120035714Y-99270533D02*
X119988095Y-99413390D01*
X119988095Y-99413390D02*
X119416667Y-99984819D01*
X119416667Y-99984819D02*
X120035714Y-99984819D01*
X113908095Y-100354819D02*
X113908095Y-99354819D01*
X114479523Y-100354819D02*
X114050952Y-99783390D01*
X114479523Y-99354819D02*
X113908095Y-99926247D01*
X138289580Y-110116666D02*
X138337200Y-110164285D01*
X138337200Y-110164285D02*
X138384819Y-110307142D01*
X138384819Y-110307142D02*
X138384819Y-110402380D01*
X138384819Y-110402380D02*
X138337200Y-110545237D01*
X138337200Y-110545237D02*
X138241961Y-110640475D01*
X138241961Y-110640475D02*
X138146723Y-110688094D01*
X138146723Y-110688094D02*
X137956247Y-110735713D01*
X137956247Y-110735713D02*
X137813390Y-110735713D01*
X137813390Y-110735713D02*
X137622914Y-110688094D01*
X137622914Y-110688094D02*
X137527676Y-110640475D01*
X137527676Y-110640475D02*
X137432438Y-110545237D01*
X137432438Y-110545237D02*
X137384819Y-110402380D01*
X137384819Y-110402380D02*
X137384819Y-110307142D01*
X137384819Y-110307142D02*
X137432438Y-110164285D01*
X137432438Y-110164285D02*
X137480057Y-110116666D01*
X137718152Y-109259523D02*
X138384819Y-109259523D01*
X137337200Y-109497618D02*
X138051485Y-109735713D01*
X138051485Y-109735713D02*
X138051485Y-109116666D01*
X119745833Y-107429580D02*
X119698214Y-107477200D01*
X119698214Y-107477200D02*
X119555357Y-107524819D01*
X119555357Y-107524819D02*
X119460119Y-107524819D01*
X119460119Y-107524819D02*
X119317262Y-107477200D01*
X119317262Y-107477200D02*
X119222024Y-107381961D01*
X119222024Y-107381961D02*
X119174405Y-107286723D01*
X119174405Y-107286723D02*
X119126786Y-107096247D01*
X119126786Y-107096247D02*
X119126786Y-106953390D01*
X119126786Y-106953390D02*
X119174405Y-106762914D01*
X119174405Y-106762914D02*
X119222024Y-106667676D01*
X119222024Y-106667676D02*
X119317262Y-106572438D01*
X119317262Y-106572438D02*
X119460119Y-106524819D01*
X119460119Y-106524819D02*
X119555357Y-106524819D01*
X119555357Y-106524819D02*
X119698214Y-106572438D01*
X119698214Y-106572438D02*
X119745833Y-106620057D01*
X120126786Y-106620057D02*
X120174405Y-106572438D01*
X120174405Y-106572438D02*
X120269643Y-106524819D01*
X120269643Y-106524819D02*
X120507738Y-106524819D01*
X120507738Y-106524819D02*
X120602976Y-106572438D01*
X120602976Y-106572438D02*
X120650595Y-106620057D01*
X120650595Y-106620057D02*
X120698214Y-106715295D01*
X120698214Y-106715295D02*
X120698214Y-106810533D01*
X120698214Y-106810533D02*
X120650595Y-106953390D01*
X120650595Y-106953390D02*
X120079167Y-107524819D01*
X120079167Y-107524819D02*
X120698214Y-107524819D01*
X112109580Y-94666666D02*
X112157200Y-94714285D01*
X112157200Y-94714285D02*
X112204819Y-94857142D01*
X112204819Y-94857142D02*
X112204819Y-94952380D01*
X112204819Y-94952380D02*
X112157200Y-95095237D01*
X112157200Y-95095237D02*
X112061961Y-95190475D01*
X112061961Y-95190475D02*
X111966723Y-95238094D01*
X111966723Y-95238094D02*
X111776247Y-95285713D01*
X111776247Y-95285713D02*
X111633390Y-95285713D01*
X111633390Y-95285713D02*
X111442914Y-95238094D01*
X111442914Y-95238094D02*
X111347676Y-95190475D01*
X111347676Y-95190475D02*
X111252438Y-95095237D01*
X111252438Y-95095237D02*
X111204819Y-94952380D01*
X111204819Y-94952380D02*
X111204819Y-94857142D01*
X111204819Y-94857142D02*
X111252438Y-94714285D01*
X111252438Y-94714285D02*
X111300057Y-94666666D01*
X112204819Y-93714285D02*
X112204819Y-94285713D01*
X112204819Y-93999999D02*
X111204819Y-93999999D01*
X111204819Y-93999999D02*
X111347676Y-94095237D01*
X111347676Y-94095237D02*
X111442914Y-94190475D01*
X111442914Y-94190475D02*
X111490533Y-94285713D01*
D12*
%TO.C,L1*%
X133850000Y-89400000D02*
X123650000Y-89400000D01*
X123650000Y-99600000D02*
X133850000Y-99600000D01*
D13*
%TO.C,U2*%
X129500000Y-106190000D02*
X127550000Y-106190000D01*
X129500000Y-106190000D02*
X131450000Y-106190000D01*
X129500000Y-111310000D02*
X127550000Y-111310000D01*
X129500000Y-111310000D02*
X131450000Y-111310000D01*
X126800000Y-106285000D02*
X126560000Y-105955000D01*
X127040000Y-105955000D01*
X126800000Y-106285000D01*
G36*
X126800000Y-106285000D02*
G01*
X126560000Y-105955000D01*
X127040000Y-105955000D01*
X126800000Y-106285000D01*
G37*
%TO.C,TP3*%
X125100000Y-86350000D02*
X125100000Y-88150000D01*
X125100000Y-88150000D02*
X128900000Y-88150000D01*
X128900000Y-86350000D02*
X125100000Y-86350000D01*
X128900000Y-88150000D02*
X128900000Y-86350000D01*
%TO.C,TP2*%
X135600000Y-89400000D02*
X137400000Y-89400000D01*
X137400000Y-89400000D02*
X137400000Y-85600000D01*
X135600000Y-85600000D02*
X135600000Y-89400000D01*
X137400000Y-85600000D02*
X135600000Y-85600000D01*
%TO.C,R4*%
X119657776Y-114727500D02*
X120167224Y-114727500D01*
X119657776Y-115772500D02*
X120167224Y-115772500D01*
%TO.C,R3*%
X141022500Y-107907776D02*
X141022500Y-108417224D01*
X139977500Y-107907776D02*
X139977500Y-108417224D01*
%TO.C,R2*%
X119495276Y-111477500D02*
X120004724Y-111477500D01*
X119495276Y-112522500D02*
X120004724Y-112522500D01*
%TO.C,R1*%
X134477064Y-104735000D02*
X134022936Y-104735000D01*
X134477064Y-103265000D02*
X134022936Y-103265000D01*
%TO.C,J4*%
X109010000Y-93485000D02*
X110610000Y-93485000D01*
X110610000Y-93485000D02*
X110610000Y-91685000D01*
X106140000Y-92215000D02*
X106140000Y-88785000D01*
X110610000Y-91685000D02*
X111550000Y-91685000D01*
X109010000Y-87515000D02*
X110610000Y-87515000D01*
X110610000Y-87515000D02*
X110610000Y-89315000D01*
%TO.C,J3*%
X120010000Y-88485000D02*
X121610000Y-88485000D01*
X121610000Y-88485000D02*
X121610000Y-86685000D01*
X117140000Y-87215000D02*
X117140000Y-83785000D01*
X121610000Y-86685000D02*
X122550000Y-86685000D01*
X120010000Y-82515000D02*
X121610000Y-82515000D01*
X121610000Y-82515000D02*
X121610000Y-84315000D01*
%TO.C,J2*%
X106340000Y-108210000D02*
X109160000Y-108210000D01*
X106340000Y-108210000D02*
X105040000Y-106510000D01*
X109160000Y-108210000D02*
X110460000Y-106510000D01*
X105040000Y-106510000D02*
X105040000Y-97790000D01*
X110460000Y-106510000D02*
X110460000Y-97790000D01*
X105040000Y-97790000D02*
X110460000Y-97790000D01*
%TO.C,J1*%
X142660000Y-91040000D02*
X139840000Y-91040000D01*
X142660000Y-91040000D02*
X143960000Y-92740000D01*
X139840000Y-91040000D02*
X138540000Y-92740000D01*
X143960000Y-92740000D02*
X143960000Y-101460000D01*
X138540000Y-92740000D02*
X138540000Y-101460000D01*
X143960000Y-101460000D02*
X138540000Y-101460000D01*
%TO.C,D2*%
X115510000Y-102000000D02*
X116530000Y-102000000D01*
X117310000Y-100530000D02*
X117310000Y-103470000D01*
X117430000Y-100530000D02*
X117430000Y-103470000D01*
X117550000Y-100530000D02*
X117550000Y-103470000D01*
X122990000Y-102000000D02*
X121970000Y-102000000D01*
X116530000Y-100530000D02*
X121970000Y-100530000D01*
X121970000Y-103470000D01*
X116530000Y-103470000D01*
X116530000Y-100530000D01*
%TO.C,C4*%
X136985000Y-109688748D02*
X136985000Y-110211252D01*
X135515000Y-109688748D02*
X135515000Y-110211252D01*
%TO.C,C2*%
X119766233Y-107990000D02*
X120058767Y-107990000D01*
X119766233Y-109010000D02*
X120058767Y-109010000D01*
%TO.C,C1*%
X114685000Y-98909698D02*
X114685000Y-98109698D01*
X114285000Y-98509698D02*
X115085000Y-98509698D01*
X112920000Y-94500000D02*
X121080000Y-94500000D01*
X112920000Y-94460000D02*
X121080000Y-94460000D01*
X112921000Y-94420000D02*
X121079000Y-94420000D01*
X112922000Y-94380000D02*
X121078000Y-94380000D01*
X112923000Y-94340000D02*
X121077000Y-94340000D01*
X112925000Y-94300000D02*
X121075000Y-94300000D01*
X112927000Y-94260000D02*
X121073000Y-94260000D01*
X112930000Y-94220000D02*
X121070000Y-94220000D01*
X112932000Y-94180000D02*
X121068000Y-94180000D01*
X112936000Y-94140000D02*
X121064000Y-94140000D01*
X112939000Y-94100000D02*
X121061000Y-94100000D01*
X112944000Y-94060000D02*
X121056000Y-94060000D01*
X112948000Y-94020000D02*
X121052000Y-94020000D01*
X112953000Y-93980000D02*
X121047000Y-93980000D01*
X112958000Y-93940000D02*
X121042000Y-93940000D01*
X112964000Y-93900000D02*
X121036000Y-93900000D01*
X112970000Y-93860000D02*
X121030000Y-93860000D01*
X112977000Y-93820000D02*
X121023000Y-93820000D01*
X112983000Y-93780000D02*
X121017000Y-93780000D01*
X112991000Y-93740000D02*
X121009000Y-93740000D01*
X112998000Y-93700000D02*
X121002000Y-93700000D01*
X113007000Y-93660000D02*
X120993000Y-93660000D01*
X113015000Y-93620000D02*
X120985000Y-93620000D01*
X113024000Y-93580000D02*
X120976000Y-93580000D01*
X113033000Y-93540000D02*
X120967000Y-93540000D01*
X113043000Y-93500000D02*
X120957000Y-93500000D01*
X113053000Y-93460000D02*
X120947000Y-93460000D01*
X113064000Y-93420000D02*
X120936000Y-93420000D01*
X113075000Y-93380000D02*
X120925000Y-93380000D01*
X113087000Y-93340000D02*
X120913000Y-93340000D01*
X113099000Y-93300000D02*
X120901000Y-93300000D01*
X113111000Y-93260000D02*
X120889000Y-93260000D01*
X113124000Y-93220000D02*
X120876000Y-93220000D01*
X113137000Y-93180000D02*
X120863000Y-93180000D01*
X113151000Y-93140000D02*
X120849000Y-93140000D01*
X113165000Y-93100000D02*
X120835000Y-93100000D01*
X113180000Y-93060000D02*
X120820000Y-93060000D01*
X113195000Y-93020000D02*
X115960000Y-93020000D01*
X118040000Y-93020000D02*
X120805000Y-93020000D01*
X113211000Y-92980000D02*
X115960000Y-92980000D01*
X118040000Y-92980000D02*
X120789000Y-92980000D01*
X113227000Y-92940000D02*
X115960000Y-92940000D01*
X118040000Y-92940000D02*
X120773000Y-92940000D01*
X113243000Y-92900000D02*
X115960000Y-92900000D01*
X118040000Y-92900000D02*
X120757000Y-92900000D01*
X113260000Y-92860000D02*
X115960000Y-92860000D01*
X118040000Y-92860000D02*
X120740000Y-92860000D01*
X113278000Y-92820000D02*
X115960000Y-92820000D01*
X118040000Y-92820000D02*
X120722000Y-92820000D01*
X113296000Y-92780000D02*
X115960000Y-92780000D01*
X118040000Y-92780000D02*
X120704000Y-92780000D01*
X113315000Y-92740000D02*
X115960000Y-92740000D01*
X118040000Y-92740000D02*
X120685000Y-92740000D01*
X113334000Y-92700000D02*
X115960000Y-92700000D01*
X118040000Y-92700000D02*
X120666000Y-92700000D01*
X113354000Y-92660000D02*
X115960000Y-92660000D01*
X118040000Y-92660000D02*
X120646000Y-92660000D01*
X113374000Y-92620000D02*
X115960000Y-92620000D01*
X118040000Y-92620000D02*
X120626000Y-92620000D01*
X113395000Y-92580000D02*
X115960000Y-92580000D01*
X118040000Y-92580000D02*
X120605000Y-92580000D01*
X113416000Y-92540000D02*
X115960000Y-92540000D01*
X118040000Y-92540000D02*
X120584000Y-92540000D01*
X113438000Y-92500000D02*
X115960000Y-92500000D01*
X118040000Y-92500000D02*
X120562000Y-92500000D01*
X113461000Y-92460000D02*
X115960000Y-92460000D01*
X118040000Y-92460000D02*
X120539000Y-92460000D01*
X113484000Y-92420000D02*
X115960000Y-92420000D01*
X118040000Y-92420000D02*
X120516000Y-92420000D01*
X113507000Y-92380000D02*
X115960000Y-92380000D01*
X118040000Y-92380000D02*
X120493000Y-92380000D01*
X113532000Y-92340000D02*
X115960000Y-92340000D01*
X118040000Y-92340000D02*
X120468000Y-92340000D01*
X113557000Y-92300000D02*
X115960000Y-92300000D01*
X118040000Y-92300000D02*
X120443000Y-92300000D01*
X113582000Y-92260000D02*
X115960000Y-92260000D01*
X118040000Y-92260000D02*
X120418000Y-92260000D01*
X113608000Y-92220000D02*
X115960000Y-92220000D01*
X118040000Y-92220000D02*
X120392000Y-92220000D01*
X113635000Y-92180000D02*
X115960000Y-92180000D01*
X118040000Y-92180000D02*
X120365000Y-92180000D01*
X113663000Y-92140000D02*
X115960000Y-92140000D01*
X118040000Y-92140000D02*
X120337000Y-92140000D01*
X113691000Y-92100000D02*
X115960000Y-92100000D01*
X118040000Y-92100000D02*
X120309000Y-92100000D01*
X113720000Y-92060000D02*
X115960000Y-92060000D01*
X118040000Y-92060000D02*
X120280000Y-92060000D01*
X113750000Y-92020000D02*
X115960000Y-92020000D01*
X118040000Y-92020000D02*
X120250000Y-92020000D01*
X113781000Y-91980000D02*
X115960000Y-91980000D01*
X118040000Y-91980000D02*
X120219000Y-91980000D01*
X113812000Y-91940000D02*
X115960000Y-91940000D01*
X118040000Y-91940000D02*
X120188000Y-91940000D01*
X113844000Y-91900000D02*
X115960000Y-91900000D01*
X118040000Y-91900000D02*
X120156000Y-91900000D01*
X113877000Y-91860000D02*
X115960000Y-91860000D01*
X118040000Y-91860000D02*
X120123000Y-91860000D01*
X113911000Y-91820000D02*
X115960000Y-91820000D01*
X118040000Y-91820000D02*
X120089000Y-91820000D01*
X113945000Y-91780000D02*
X115960000Y-91780000D01*
X118040000Y-91780000D02*
X120055000Y-91780000D01*
X113981000Y-91740000D02*
X115960000Y-91740000D01*
X118040000Y-91740000D02*
X120019000Y-91740000D01*
X114018000Y-91700000D02*
X115960000Y-91700000D01*
X118040000Y-91700000D02*
X119982000Y-91700000D01*
X114055000Y-91660000D02*
X115960000Y-91660000D01*
X118040000Y-91660000D02*
X119945000Y-91660000D01*
X114094000Y-91620000D02*
X115960000Y-91620000D01*
X118040000Y-91620000D02*
X119906000Y-91620000D01*
X114133000Y-91580000D02*
X115960000Y-91580000D01*
X118040000Y-91580000D02*
X119867000Y-91580000D01*
X114174000Y-91540000D02*
X115960000Y-91540000D01*
X118040000Y-91540000D02*
X119826000Y-91540000D01*
X114216000Y-91500000D02*
X115960000Y-91500000D01*
X118040000Y-91500000D02*
X119784000Y-91500000D01*
X114259000Y-91460000D02*
X115960000Y-91460000D01*
X118040000Y-91460000D02*
X119741000Y-91460000D01*
X114304000Y-91420000D02*
X115960000Y-91420000D01*
X118040000Y-91420000D02*
X119696000Y-91420000D01*
X114349000Y-91380000D02*
X115960000Y-91380000D01*
X118040000Y-91380000D02*
X119651000Y-91380000D01*
X114396000Y-91340000D02*
X115960000Y-91340000D01*
X118040000Y-91340000D02*
X119604000Y-91340000D01*
X114445000Y-91300000D02*
X115960000Y-91300000D01*
X118040000Y-91300000D02*
X119555000Y-91300000D01*
X114495000Y-91260000D02*
X115960000Y-91260000D01*
X118040000Y-91260000D02*
X119505000Y-91260000D01*
X114547000Y-91220000D02*
X115960000Y-91220000D01*
X118040000Y-91220000D02*
X119453000Y-91220000D01*
X114600000Y-91180000D02*
X115960000Y-91180000D01*
X118040000Y-91180000D02*
X119400000Y-91180000D01*
X114656000Y-91140000D02*
X115960000Y-91140000D01*
X118040000Y-91140000D02*
X119344000Y-91140000D01*
X114713000Y-91100000D02*
X115960000Y-91100000D01*
X118040000Y-91100000D02*
X119287000Y-91100000D01*
X114773000Y-91060000D02*
X115960000Y-91060000D01*
X118040000Y-91060000D02*
X119227000Y-91060000D01*
X114835000Y-91020000D02*
X115960000Y-91020000D01*
X118040000Y-91020000D02*
X119165000Y-91020000D01*
X114899000Y-90980000D02*
X115960000Y-90980000D01*
X118040000Y-90980000D02*
X119101000Y-90980000D01*
X114966000Y-90940000D02*
X119034000Y-90940000D01*
X115036000Y-90900000D02*
X118964000Y-90900000D01*
X115110000Y-90860000D02*
X118890000Y-90860000D01*
X115187000Y-90820000D02*
X118813000Y-90820000D01*
X115269000Y-90780000D02*
X118731000Y-90780000D01*
X115356000Y-90740000D02*
X118644000Y-90740000D01*
X115448000Y-90700000D02*
X118552000Y-90700000D01*
X115547000Y-90660000D02*
X118453000Y-90660000D01*
X115654000Y-90620000D02*
X118346000Y-90620000D01*
X115772000Y-90580000D02*
X118228000Y-90580000D01*
X115903000Y-90540000D02*
X118097000Y-90540000D01*
X116053000Y-90500000D02*
X117947000Y-90500000D01*
X116232000Y-90460000D02*
X117768000Y-90460000D01*
X116467000Y-90420000D02*
X117533000Y-90420000D01*
X121120000Y-94500000D02*
G75*
G02*
X112880000Y-94500000I-4120000J0D01*
G01*
X112880000Y-94500000D02*
G75*
G02*
X121120000Y-94500000I4120000J0D01*
G01*
%TD*%
%LPC*%
D14*
%TO.C,H1*%
X107750000Y-83750000D03*
%TD*%
D15*
%TO.C,L1*%
X124800000Y-94500000D03*
X132700000Y-94500000D03*
%TD*%
D16*
%TO.C,U2*%
X127025000Y-106845000D03*
X127025000Y-108115000D03*
X127025000Y-109385000D03*
X127025000Y-110655000D03*
X131975000Y-110655000D03*
X131975000Y-109385000D03*
X131975000Y-108115000D03*
X131975000Y-106845000D03*
%TD*%
D17*
%TO.C,TP3*%
X126000000Y-87250000D03*
X128000000Y-87250000D03*
%TD*%
%TO.C,TP2*%
X136500000Y-88500000D03*
X136500000Y-86500000D03*
%TD*%
D18*
%TO.C,R4*%
X119000000Y-115250000D03*
X120825000Y-115250000D03*
%TD*%
D19*
%TO.C,R3*%
X140500000Y-107250000D03*
X140500000Y-109075000D03*
%TD*%
D18*
%TO.C,R2*%
X118837500Y-112000000D03*
X120662500Y-112000000D03*
%TD*%
D20*
%TO.C,R1*%
X135250000Y-104000000D03*
X133250000Y-104000000D03*
%TD*%
D21*
%TO.C,J4*%
X110700000Y-91125000D03*
X110700000Y-89875000D03*
D22*
X107350000Y-92975000D03*
X107350000Y-88025000D03*
%TD*%
D21*
%TO.C,J3*%
X121700000Y-86125000D03*
X121700000Y-84875000D03*
D22*
X118350000Y-87975000D03*
X118350000Y-83025000D03*
%TD*%
D23*
%TO.C,J2*%
X107750000Y-105500000D03*
D24*
X107750000Y-100500000D03*
%TD*%
D25*
%TO.C,J1*%
X141250000Y-93750000D03*
D26*
X141250000Y-98750000D03*
%TD*%
D14*
%TO.C,H4*%
X142000000Y-113750000D03*
%TD*%
%TO.C,H3*%
X108000000Y-113750000D03*
%TD*%
%TO.C,H2*%
X141750000Y-84000000D03*
%TD*%
D27*
%TO.C,D2*%
X114170000Y-102000000D03*
D14*
X124330000Y-102000000D03*
%TD*%
D28*
%TO.C,C4*%
X136250000Y-109000000D03*
X136250000Y-110900000D03*
%TD*%
D29*
%TO.C,C2*%
X119050000Y-108500000D03*
X120775000Y-108500000D03*
%TD*%
D30*
%TO.C,C1*%
X117000000Y-97000000D03*
D31*
X117000000Y-92000000D03*
%TD*%
%LPD*%
M02*
