%TF.GenerationSoftware,KiCad,Pcbnew,9.0.4*%
%TF.CreationDate,2025-10-12T14:37:51-05:00*%
%TF.ProjectId,Onboarding_pcb,4f6e626f-6172-4646-996e-675f7063622e,rev?*%
%TF.SameCoordinates,Original*%
%TF.FileFunction,Legend,Bot*%
%TF.FilePolarity,Positive*%
%FSLAX46Y46*%
G04 Gerber Fmt 4.6, Leading zero omitted, Abs format (unit mm)*
G04 Created by KiCad (PCBNEW 9.0.4) date 2025-10-12 14:37:51*
%MOMM*%
%LPD*%
G01*
G04 APERTURE LIST*
G04 Aperture macros list*
%AMRoundRect*
0 Rectangle with rounded corners*
0 $1 Rounding radius*
0 $2 $3 $4 $5 $6 $7 $8 $9 X,Y pos of 4 corners*
0 Add a 4 corners polygon primitive as box body*
4,1,4,$2,$3,$4,$5,$6,$7,$8,$9,$2,$3,0*
0 Add four circle primitives for the rounded corners*
1,1,$1+$1,$2,$3*
1,1,$1+$1,$4,$5*
1,1,$1+$1,$6,$7*
1,1,$1+$1,$8,$9*
0 Add four rect primitives between the rounded corners*
20,1,$1+$1,$2,$3,$4,$5,0*
20,1,$1+$1,$4,$5,$6,$7,0*
20,1,$1+$1,$6,$7,$8,$9,0*
20,1,$1+$1,$8,$9,$2,$3,0*%
G04 Aperture macros list end*
%ADD10C,0.150000*%
%ADD11C,0.120000*%
%ADD12C,2.200000*%
%ADD13C,1.400000*%
%ADD14RoundRect,0.237500X-0.237500X0.300000X-0.237500X-0.300000X0.237500X-0.300000X0.237500X0.300000X0*%
%ADD15RoundRect,0.250000X0.550000X-0.550000X0.550000X0.550000X-0.550000X0.550000X-0.550000X-0.550000X0*%
%ADD16C,1.600000*%
%ADD17RoundRect,0.760000X-1.140000X1.140000X-1.140000X-1.140000X1.140000X-1.140000X1.140000X1.140000X0*%
%ADD18C,4.000000*%
%ADD19RoundRect,0.249999X-0.850001X-0.850001X0.850001X-0.850001X0.850001X0.850001X-0.850001X0.850001X0*%
%ADD20RoundRect,0.760000X1.140000X-1.140000X1.140000X1.140000X-1.140000X1.140000X-1.140000X-1.140000X0*%
%ADD21C,3.800000*%
G04 APERTURE END LIST*
D10*
X125929580Y-109833333D02*
X125977200Y-109785714D01*
X125977200Y-109785714D02*
X126024819Y-109642857D01*
X126024819Y-109642857D02*
X126024819Y-109547619D01*
X126024819Y-109547619D02*
X125977200Y-109404762D01*
X125977200Y-109404762D02*
X125881961Y-109309524D01*
X125881961Y-109309524D02*
X125786723Y-109261905D01*
X125786723Y-109261905D02*
X125596247Y-109214286D01*
X125596247Y-109214286D02*
X125453390Y-109214286D01*
X125453390Y-109214286D02*
X125262914Y-109261905D01*
X125262914Y-109261905D02*
X125167676Y-109309524D01*
X125167676Y-109309524D02*
X125072438Y-109404762D01*
X125072438Y-109404762D02*
X125024819Y-109547619D01*
X125024819Y-109547619D02*
X125024819Y-109642857D01*
X125024819Y-109642857D02*
X125072438Y-109785714D01*
X125072438Y-109785714D02*
X125120057Y-109833333D01*
X125120057Y-110214286D02*
X125072438Y-110261905D01*
X125072438Y-110261905D02*
X125024819Y-110357143D01*
X125024819Y-110357143D02*
X125024819Y-110595238D01*
X125024819Y-110595238D02*
X125072438Y-110690476D01*
X125072438Y-110690476D02*
X125120057Y-110738095D01*
X125120057Y-110738095D02*
X125215295Y-110785714D01*
X125215295Y-110785714D02*
X125310533Y-110785714D01*
X125310533Y-110785714D02*
X125453390Y-110738095D01*
X125453390Y-110738095D02*
X126024819Y-110166667D01*
X126024819Y-110166667D02*
X126024819Y-110785714D01*
D11*
%TO.C,C2*%
X126490000Y-109853733D02*
X126490000Y-110146267D01*
X127510000Y-109853733D02*
X127510000Y-110146267D01*
%TD*%
%LPC*%
D12*
%TO.C,H1*%
X109750000Y-84500000D03*
%TD*%
D13*
%TO.C,TP2*%
X136000000Y-86500000D03*
X136000000Y-88500000D03*
%TD*%
D14*
%TO.C,C2*%
X127000000Y-109137500D03*
X127000000Y-110862500D03*
%TD*%
D12*
%TO.C,H4*%
X139500000Y-112250000D03*
%TD*%
%TO.C,H3*%
X108250000Y-112000000D03*
%TD*%
D15*
%TO.C,C1*%
X117000000Y-97000000D03*
D16*
X117000000Y-92000000D03*
%TD*%
D17*
%TO.C,J1*%
X139500000Y-93750000D03*
D18*
X139500000Y-98750000D03*
%TD*%
D12*
%TO.C,H2*%
X139500000Y-84250000D03*
%TD*%
D13*
%TO.C,TP3*%
X126000000Y-87250000D03*
X128000000Y-87250000D03*
%TD*%
D19*
%TO.C,D2*%
X114170000Y-102000000D03*
D12*
X124330000Y-102000000D03*
%TD*%
D20*
%TO.C,J2*%
X109000000Y-105250000D03*
D21*
X109000000Y-100250000D03*
%TD*%
%LPD*%
M02*
