%TF.GenerationSoftware,KiCad,Pcbnew,9.0.4*%
%TF.CreationDate,2025-10-10T17:17:38-05:00*%
%TF.ProjectId,Onboarding_pcb,4f6e626f-6172-4646-996e-675f7063622e,rev?*%
%TF.SameCoordinates,Original*%
%TF.FileFunction,Copper,L1,Top*%
%TF.FilePolarity,Positive*%
%FSLAX46Y46*%
G04 Gerber Fmt 4.6, Leading zero omitted, Abs format (unit mm)*
G04 Created by KiCad (PCBNEW 9.0.4) date 2025-10-10 17:17:38*
%MOMM*%
%LPD*%
G01*
G04 APERTURE LIST*
G04 Aperture macros list*
%AMRoundRect*
0 Rectangle with rounded corners*
0 $1 Rounding radius*
0 $2 $3 $4 $5 $6 $7 $8 $9 X,Y pos of 4 corners*
0 Add a 4 corners polygon primitive as box body*
4,1,4,$2,$3,$4,$5,$6,$7,$8,$9,$2,$3,0*
0 Add four circle primitives for the rounded corners*
1,1,$1+$1,$2,$3*
1,1,$1+$1,$4,$5*
1,1,$1+$1,$6,$7*
1,1,$1+$1,$8,$9*
0 Add four rect primitives between the rounded corners*
20,1,$1+$1,$2,$3,$4,$5,0*
20,1,$1+$1,$4,$5,$6,$7,0*
20,1,$1+$1,$6,$7,$8,$9,0*
20,1,$1+$1,$8,$9,$2,$3,0*%
G04 Aperture macros list end*
%TA.AperFunction,SMDPad,CuDef*%
%ADD10R,3.400000X2.350000*%
%TD*%
%TA.AperFunction,SMDPad,CuDef*%
%ADD11RoundRect,0.150000X-0.825000X-0.150000X0.825000X-0.150000X0.825000X0.150000X-0.825000X0.150000X0*%
%TD*%
%TA.AperFunction,ComponentPad*%
%ADD12C,1.400000*%
%TD*%
%TA.AperFunction,SMDPad,CuDef*%
%ADD13RoundRect,0.237500X-0.250000X-0.237500X0.250000X-0.237500X0.250000X0.237500X-0.250000X0.237500X0*%
%TD*%
%TA.AperFunction,SMDPad,CuDef*%
%ADD14RoundRect,0.237500X-0.237500X0.250000X-0.237500X-0.250000X0.237500X-0.250000X0.237500X0.250000X0*%
%TD*%
%TA.AperFunction,SMDPad,CuDef*%
%ADD15RoundRect,0.250000X0.350000X0.450000X-0.350000X0.450000X-0.350000X-0.450000X0.350000X-0.450000X0*%
%TD*%
%TA.AperFunction,SMDPad,CuDef*%
%ADD16RoundRect,0.150000X0.700000X-0.150000X0.700000X0.150000X-0.700000X0.150000X-0.700000X-0.150000X0*%
%TD*%
%TA.AperFunction,SMDPad,CuDef*%
%ADD17RoundRect,0.250000X1.150000X-0.250000X1.150000X0.250000X-1.150000X0.250000X-1.150000X-0.250000X0*%
%TD*%
%TA.AperFunction,ComponentPad*%
%ADD18RoundRect,0.760000X1.140000X-1.140000X1.140000X1.140000X-1.140000X1.140000X-1.140000X-1.140000X0*%
%TD*%
%TA.AperFunction,ComponentPad*%
%ADD19C,3.800000*%
%TD*%
%TA.AperFunction,ComponentPad*%
%ADD20RoundRect,0.760000X-1.140000X1.140000X-1.140000X-1.140000X1.140000X-1.140000X1.140000X1.140000X0*%
%TD*%
%TA.AperFunction,ComponentPad*%
%ADD21C,4.000000*%
%TD*%
%TA.AperFunction,ComponentPad*%
%ADD22RoundRect,0.249999X-0.850001X-0.850001X0.850001X-0.850001X0.850001X0.850001X-0.850001X0.850001X0*%
%TD*%
%TA.AperFunction,ComponentPad*%
%ADD23C,2.200000*%
%TD*%
%TA.AperFunction,SMDPad,CuDef*%
%ADD24RoundRect,0.250000X-0.475000X0.250000X-0.475000X-0.250000X0.475000X-0.250000X0.475000X0.250000X0*%
%TD*%
%TA.AperFunction,SMDPad,CuDef*%
%ADD25RoundRect,0.237500X-0.300000X-0.237500X0.300000X-0.237500X0.300000X0.237500X-0.300000X0.237500X0*%
%TD*%
%TA.AperFunction,ComponentPad*%
%ADD26RoundRect,0.250000X0.550000X-0.550000X0.550000X0.550000X-0.550000X0.550000X-0.550000X-0.550000X0*%
%TD*%
%TA.AperFunction,ComponentPad*%
%ADD27C,1.600000*%
%TD*%
%TA.AperFunction,ViaPad*%
%ADD28C,1.200000*%
%TD*%
%TA.AperFunction,Conductor*%
%ADD29C,1.000000*%
%TD*%
%TA.AperFunction,Conductor*%
%ADD30C,0.250000*%
%TD*%
%TA.AperFunction,Conductor*%
%ADD31C,0.200000*%
%TD*%
G04 APERTURE END LIST*
D10*
%TO.P,L1,2,2*%
%TO.N,Net-(D2-A)*%
X124800000Y-94500000D03*
%TO.P,L1,1,1*%
%TO.N,Net-(U2-IPK)*%
X132700000Y-94500000D03*
%TD*%
D11*
%TO.P,U2,1,SWC*%
%TO.N,Net-(D2-A)*%
X127025000Y-106845000D03*
%TO.P,U2,2,SWE*%
%TO.N,GND*%
X127025000Y-108115000D03*
%TO.P,U2,3,TC*%
%TO.N,Net-(U2-TC)*%
X127025000Y-109385000D03*
%TO.P,U2,4,GND*%
%TO.N,GND*%
X127025000Y-110655000D03*
%TO.P,U2,5,COMP*%
%TO.N,Net-(U2-COMP)*%
X131975000Y-110655000D03*
%TO.P,U2,6,VCC*%
%TO.N,+12V*%
X131975000Y-109385000D03*
%TO.P,U2,7,IPK*%
%TO.N,Net-(U2-IPK)*%
X131975000Y-108115000D03*
%TO.P,U2,8,DRC*%
%TO.N,Net-(U2-DRC)*%
X131975000Y-106845000D03*
%TD*%
D12*
%TO.P,TP3,1,1*%
%TO.N,Net-(D2-A)*%
X126000000Y-87250000D03*
X128000000Y-87250000D03*
%TD*%
%TO.P,TP2,1,1*%
%TO.N,Net-(U2-IPK)*%
X136500000Y-88500000D03*
X136500000Y-86500000D03*
%TD*%
D13*
%TO.P,R4,1*%
%TO.N,Net-(U2-COMP)*%
X119000000Y-115250000D03*
%TO.P,R4,2*%
%TO.N,GND*%
X120825000Y-115250000D03*
%TD*%
D14*
%TO.P,R3,1*%
%TO.N,Net-(U2-IPK)*%
X140500000Y-107250000D03*
%TO.P,R3,2*%
%TO.N,+12V*%
X140500000Y-109075000D03*
%TD*%
D13*
%TO.P,R2,1*%
%TO.N,VCC*%
X118837500Y-112000000D03*
%TO.P,R2,2*%
%TO.N,Net-(U2-COMP)*%
X120662500Y-112000000D03*
%TD*%
D15*
%TO.P,R1,1*%
%TO.N,Net-(U2-IPK)*%
X135250000Y-104000000D03*
%TO.P,R1,2*%
%TO.N,Net-(U2-DRC)*%
X133250000Y-104000000D03*
%TD*%
D16*
%TO.P,J4,1,Pin_1*%
%TO.N,/CAN-*%
X110700000Y-91125000D03*
%TO.P,J4,2,Pin_2*%
%TO.N,/CAN+*%
X110700000Y-89875000D03*
D17*
%TO.P,J4,MP*%
%TO.N,N/C*%
X107350000Y-92975000D03*
X107350000Y-88025000D03*
%TD*%
D16*
%TO.P,J3,1,Pin_1*%
%TO.N,/CAN-*%
X121700000Y-86125000D03*
%TO.P,J3,2,Pin_2*%
%TO.N,/CAN+*%
X121700000Y-84875000D03*
D17*
%TO.P,J3,MP*%
%TO.N,N/C*%
X118350000Y-87975000D03*
X118350000Y-83025000D03*
%TD*%
D18*
%TO.P,J2,1,Pin_1*%
%TO.N,GND*%
X107750000Y-105500000D03*
D19*
%TO.P,J2,2,Pin_2*%
%TO.N,VCC*%
X107750000Y-100500000D03*
%TD*%
D20*
%TO.P,J1,1,Pin_1*%
%TO.N,GND*%
X141250000Y-93750000D03*
D21*
%TO.P,J1,2,Pin_2*%
%TO.N,+12V*%
X141250000Y-98750000D03*
%TD*%
D22*
%TO.P,D2,1,K*%
%TO.N,VCC*%
X114170000Y-102000000D03*
D23*
%TO.P,D2,2,A*%
%TO.N,Net-(D2-A)*%
X124330000Y-102000000D03*
%TD*%
D24*
%TO.P,C4,1*%
%TO.N,+12V*%
X136250000Y-109000000D03*
%TO.P,C4,2*%
%TO.N,GND*%
X136250000Y-110900000D03*
%TD*%
D25*
%TO.P,C2,1*%
%TO.N,Net-(U2-TC)*%
X119050000Y-108500000D03*
%TO.P,C2,2*%
%TO.N,GND*%
X120775000Y-108500000D03*
%TD*%
D26*
%TO.P,C1,1*%
%TO.N,VCC*%
X117000000Y-97000000D03*
D27*
%TO.P,C1,2*%
%TO.N,GND*%
X117000000Y-92000000D03*
%TD*%
D28*
%TO.N,GND*%
X136250000Y-113000000D03*
X123000000Y-115250000D03*
X124250000Y-107000000D03*
X107750000Y-109750000D03*
%TD*%
D29*
%TO.N,GND*%
X107750000Y-105500000D02*
X107750000Y-109750000D01*
X136250000Y-110900000D02*
X136250000Y-113000000D01*
X120825000Y-115250000D02*
X123000000Y-115250000D01*
X125365000Y-108115000D02*
X124250000Y-107000000D01*
X127025000Y-108115000D02*
X125365000Y-108115000D01*
X127999999Y-108115000D02*
X127025000Y-108115000D01*
X128701000Y-108816001D02*
X127999999Y-108115000D01*
X128701000Y-109891652D02*
X128701000Y-108816001D01*
X127025000Y-110655000D02*
X127937652Y-110655000D01*
X127937652Y-110655000D02*
X128701000Y-109891652D01*
X122930000Y-110655000D02*
X127025000Y-110655000D01*
X120775000Y-108500000D02*
X122930000Y-110655000D01*
D30*
%TO.N,Net-(U2-COMP)*%
X120662500Y-113587500D02*
X119000000Y-115250000D01*
X120662500Y-112000000D02*
X120662500Y-113587500D01*
X130630000Y-112000000D02*
X131975000Y-110655000D01*
X120662500Y-112000000D02*
X130630000Y-112000000D01*
%TO.N,Net-(U2-TC)*%
X124635000Y-109385000D02*
X127025000Y-109385000D01*
X122750000Y-107500000D02*
X124635000Y-109385000D01*
X120050000Y-107500000D02*
X122750000Y-107500000D01*
X119050000Y-108500000D02*
X120050000Y-107500000D01*
D31*
%TO.N,/CAN-*%
X120424999Y-86125000D02*
X121700000Y-86125000D01*
X120024999Y-85725000D02*
X120424999Y-86125000D01*
X117343198Y-85725000D02*
X120024999Y-85725000D01*
X112343198Y-90725000D02*
X117343198Y-85725000D01*
X111650000Y-90725000D02*
X112343198Y-90725000D01*
X111250000Y-91125000D02*
X111650000Y-90725000D01*
X110700000Y-91125000D02*
X111250000Y-91125000D01*
%TO.N,/CAN+*%
X120424999Y-84875000D02*
X121700000Y-84875000D01*
X120024999Y-85275000D02*
X120424999Y-84875000D01*
X117156802Y-85275000D02*
X120024999Y-85275000D01*
X112156802Y-90275000D02*
X117156802Y-85275000D01*
X111250000Y-89875000D02*
X111650000Y-90275000D01*
X110700000Y-89875000D02*
X111250000Y-89875000D01*
X111650000Y-90275000D02*
X112156802Y-90275000D01*
D30*
%TO.N,Net-(U2-DRC)*%
X133250000Y-105570000D02*
X131975000Y-106845000D01*
X133250000Y-104000000D02*
X133250000Y-105570000D01*
D29*
%TO.N,Net-(U2-IPK)*%
X136500000Y-88500000D02*
X136500000Y-86500000D01*
X132700000Y-92300000D02*
X136500000Y-88500000D01*
X132700000Y-94500000D02*
X132700000Y-92300000D01*
%TO.N,Net-(D2-A)*%
X126000000Y-87250000D02*
X128000000Y-87250000D01*
X124800000Y-88450000D02*
X126000000Y-87250000D01*
X124800000Y-94500000D02*
X124800000Y-88450000D01*
%TO.N,VCC*%
X117750000Y-112000000D02*
X118837500Y-112000000D01*
X114170000Y-108420000D02*
X117750000Y-112000000D01*
X114170000Y-102000000D02*
X114170000Y-108420000D01*
%TO.N,Net-(U2-IPK)*%
X135250000Y-104000000D02*
X137225000Y-104000000D01*
X137225000Y-104000000D02*
X140475000Y-107250000D01*
X135250000Y-97050000D02*
X135250000Y-104000000D01*
X132700000Y-94500000D02*
X135250000Y-97050000D01*
%TO.N,Net-(D2-A)*%
X124330000Y-104150000D02*
X127025000Y-106845000D01*
X124330000Y-102000000D02*
X124330000Y-104150000D01*
X124800000Y-101530000D02*
X124330000Y-102000000D01*
X124800000Y-94500000D02*
X124800000Y-101530000D01*
%TO.N,VCC*%
X115500000Y-98500000D02*
X117000000Y-97000000D01*
X115500000Y-100500000D02*
X115500000Y-98500000D01*
X114170000Y-102000000D02*
X114170000Y-101830000D01*
X114170000Y-101830000D02*
X115500000Y-100500000D01*
X111750000Y-102000000D02*
X114170000Y-102000000D01*
X110250000Y-100500000D02*
X111750000Y-102000000D01*
X107750000Y-100500000D02*
X110250000Y-100500000D01*
%TO.N,+12V*%
X135865000Y-109385000D02*
X131975000Y-109385000D01*
X136250000Y-109000000D02*
X135865000Y-109385000D01*
X136325000Y-109075000D02*
X136250000Y-109000000D01*
X140500000Y-109075000D02*
X136325000Y-109075000D01*
X141676000Y-107899000D02*
X140500000Y-109075000D01*
X141500000Y-98750000D02*
X141676000Y-98926000D01*
X141676000Y-98926000D02*
X141676000Y-107899000D01*
X141250000Y-98750000D02*
X141500000Y-98750000D01*
%TO.N,Net-(U2-IPK)*%
X135250000Y-104000000D02*
X135250000Y-105752652D01*
X135250000Y-105752652D02*
X132887652Y-108115000D01*
X132887652Y-108115000D02*
X131975000Y-108115000D01*
%TD*%
%TA.AperFunction,Conductor*%
%TO.N,GND*%
G36*
X144692539Y-81270185D02*
G01*
X144738294Y-81322989D01*
X144749500Y-81374500D01*
X144749500Y-116125500D01*
X144729815Y-116192539D01*
X144677011Y-116238294D01*
X144625500Y-116249500D01*
X119831052Y-116249500D01*
X119764013Y-116229815D01*
X119718258Y-116177011D01*
X119708314Y-116107853D01*
X119737339Y-116044297D01*
X119743371Y-116037819D01*
X119832840Y-115948350D01*
X119923408Y-115801516D01*
X119977674Y-115637753D01*
X119988000Y-115536677D01*
X119987999Y-115197950D01*
X120007683Y-115130912D01*
X120024313Y-115110275D01*
X121061229Y-114073360D01*
X121061233Y-114073358D01*
X121148358Y-113986233D01*
X121182584Y-113935009D01*
X121216812Y-113883786D01*
X121263963Y-113769951D01*
X121288000Y-113649107D01*
X121288000Y-113643713D01*
X140649500Y-113643713D01*
X140649500Y-113856287D01*
X140653856Y-113883788D01*
X140670081Y-113986233D01*
X140682754Y-114066243D01*
X140738620Y-114238181D01*
X140748444Y-114268414D01*
X140844951Y-114457820D01*
X140969890Y-114629786D01*
X141120213Y-114780109D01*
X141292179Y-114905048D01*
X141292181Y-114905049D01*
X141292184Y-114905051D01*
X141481588Y-115001557D01*
X141683757Y-115067246D01*
X141893713Y-115100500D01*
X141893714Y-115100500D01*
X142106286Y-115100500D01*
X142106287Y-115100500D01*
X142316243Y-115067246D01*
X142518412Y-115001557D01*
X142707816Y-114905051D01*
X142766731Y-114862247D01*
X142879786Y-114780109D01*
X142879788Y-114780106D01*
X142879792Y-114780104D01*
X143030104Y-114629792D01*
X143030106Y-114629788D01*
X143030109Y-114629786D01*
X143155048Y-114457820D01*
X143155047Y-114457820D01*
X143155051Y-114457816D01*
X143251557Y-114268412D01*
X143317246Y-114066243D01*
X143350500Y-113856287D01*
X143350500Y-113643713D01*
X143317246Y-113433757D01*
X143251557Y-113231588D01*
X143155051Y-113042184D01*
X143155049Y-113042181D01*
X143155048Y-113042179D01*
X143030109Y-112870213D01*
X142879786Y-112719890D01*
X142707820Y-112594951D01*
X142518414Y-112498444D01*
X142518413Y-112498443D01*
X142518412Y-112498443D01*
X142316243Y-112432754D01*
X142316241Y-112432753D01*
X142316240Y-112432753D01*
X142154957Y-112407208D01*
X142106287Y-112399500D01*
X141893713Y-112399500D01*
X141845042Y-112407208D01*
X141683760Y-112432753D01*
X141683757Y-112432754D01*
X141520321Y-112485858D01*
X141481585Y-112498444D01*
X141292179Y-112594951D01*
X141120213Y-112719890D01*
X140969890Y-112870213D01*
X140844951Y-113042179D01*
X140748444Y-113231585D01*
X140682753Y-113433760D01*
X140668161Y-113525893D01*
X140649500Y-113643713D01*
X121288000Y-113643713D01*
X121288000Y-113525893D01*
X121288000Y-112942191D01*
X121307685Y-112875152D01*
X121346904Y-112836652D01*
X121349599Y-112834989D01*
X121373350Y-112820340D01*
X121495340Y-112698350D01*
X121503942Y-112684404D01*
X121555890Y-112637679D01*
X121609481Y-112625500D01*
X130691607Y-112625500D01*
X130752029Y-112613481D01*
X130812452Y-112601463D01*
X130845792Y-112587652D01*
X130926286Y-112554312D01*
X130977509Y-112520084D01*
X131028733Y-112485858D01*
X131115858Y-112398733D01*
X131115859Y-112398731D01*
X131122925Y-112391665D01*
X131122927Y-112391661D01*
X132022771Y-111491819D01*
X132084094Y-111458334D01*
X132110452Y-111455500D01*
X132865686Y-111455500D01*
X132865694Y-111455500D01*
X132902569Y-111452598D01*
X132902571Y-111452597D01*
X132902573Y-111452597D01*
X132944191Y-111440505D01*
X133060398Y-111406744D01*
X133201865Y-111323081D01*
X133318081Y-111206865D01*
X133401744Y-111065398D01*
X133447598Y-110907569D01*
X133450500Y-110870694D01*
X133450500Y-110509500D01*
X133470185Y-110442461D01*
X133522989Y-110396706D01*
X133574500Y-110385500D01*
X135963543Y-110385500D01*
X135995566Y-110379129D01*
X136098197Y-110358715D01*
X136156836Y-110347051D01*
X136210165Y-110324961D01*
X136338914Y-110271632D01*
X136502782Y-110162139D01*
X136553101Y-110111820D01*
X136614424Y-110078334D01*
X136640783Y-110075500D01*
X140598542Y-110075500D01*
X140649405Y-110065382D01*
X140673598Y-110062999D01*
X140786670Y-110062999D01*
X140786676Y-110062999D01*
X140887753Y-110052674D01*
X141051516Y-109998408D01*
X141198350Y-109907840D01*
X141320340Y-109785850D01*
X141410908Y-109639016D01*
X141431401Y-109577169D01*
X141461424Y-109528494D01*
X142313778Y-108676141D01*
X142313782Y-108676139D01*
X142453139Y-108536782D01*
X142562632Y-108372914D01*
X142562633Y-108372911D01*
X142562635Y-108372908D01*
X142600562Y-108281342D01*
X142628646Y-108213541D01*
X142638051Y-108190836D01*
X142668462Y-108037949D01*
X142676500Y-107997541D01*
X142676500Y-100870379D01*
X142696185Y-100803340D01*
X142723187Y-100773432D01*
X142748981Y-100752862D01*
X142918825Y-100617416D01*
X143117416Y-100418825D01*
X143292523Y-100199248D01*
X143441945Y-99961445D01*
X143563801Y-99708408D01*
X143656560Y-99443318D01*
X143719055Y-99169509D01*
X143750500Y-98890425D01*
X143750500Y-98609575D01*
X143719055Y-98330491D01*
X143656560Y-98056682D01*
X143645856Y-98026093D01*
X143633465Y-97990680D01*
X143563801Y-97791592D01*
X143441945Y-97538555D01*
X143292523Y-97300752D01*
X143117416Y-97081175D01*
X142918825Y-96882584D01*
X142699248Y-96707477D01*
X142461445Y-96558055D01*
X142461442Y-96558053D01*
X142208411Y-96436200D01*
X141943329Y-96343443D01*
X141943317Y-96343439D01*
X141669512Y-96280945D01*
X141669494Y-96280942D01*
X141390431Y-96249500D01*
X141390425Y-96249500D01*
X141109575Y-96249500D01*
X141109568Y-96249500D01*
X140830505Y-96280942D01*
X140830487Y-96280945D01*
X140556682Y-96343439D01*
X140556670Y-96343443D01*
X140291588Y-96436200D01*
X140038557Y-96558053D01*
X139800753Y-96707476D01*
X139581175Y-96882583D01*
X139382583Y-97081175D01*
X139207476Y-97300753D01*
X139058053Y-97538557D01*
X138936200Y-97791588D01*
X138843443Y-98056670D01*
X138843439Y-98056682D01*
X138780945Y-98330487D01*
X138780942Y-98330505D01*
X138749500Y-98609568D01*
X138749500Y-98890431D01*
X138780942Y-99169494D01*
X138780945Y-99169512D01*
X138843439Y-99443317D01*
X138843443Y-99443329D01*
X138936200Y-99708411D01*
X139058053Y-99961442D01*
X139058055Y-99961445D01*
X139207477Y-100199248D01*
X139382584Y-100418825D01*
X139581175Y-100617416D01*
X139800752Y-100792523D01*
X140038555Y-100941945D01*
X140291592Y-101063801D01*
X140490680Y-101133465D01*
X140556670Y-101156556D01*
X140556682Y-101156560D01*
X140579092Y-101161675D01*
X140640071Y-101195783D01*
X140672929Y-101257445D01*
X140675500Y-101282566D01*
X140675500Y-105736218D01*
X140655815Y-105803257D01*
X140603011Y-105849012D01*
X140533853Y-105858956D01*
X140470297Y-105829931D01*
X140463819Y-105823899D01*
X138006479Y-103366559D01*
X138006459Y-103366537D01*
X137862785Y-103222863D01*
X137862781Y-103222860D01*
X137698920Y-103113371D01*
X137698907Y-103113364D01*
X137555873Y-103054118D01*
X137555867Y-103054116D01*
X137547136Y-103050500D01*
X137516836Y-103037949D01*
X137376981Y-103010130D01*
X137374309Y-103009598D01*
X137374307Y-103009598D01*
X137323542Y-102999500D01*
X137323541Y-102999500D01*
X136374500Y-102999500D01*
X136307461Y-102979815D01*
X136261706Y-102927011D01*
X136250500Y-102875500D01*
X136250500Y-97154675D01*
X136250501Y-97154654D01*
X136250501Y-96951457D01*
X136250500Y-96951455D01*
X136212052Y-96758165D01*
X136136632Y-96576086D01*
X136136631Y-96576085D01*
X136136628Y-96576079D01*
X136027140Y-96412219D01*
X136027137Y-96412215D01*
X134936818Y-95321897D01*
X134903333Y-95260574D01*
X134900499Y-95234216D01*
X134900499Y-93277129D01*
X134900498Y-93277123D01*
X134900497Y-93277116D01*
X134894091Y-93217517D01*
X134843796Y-93082669D01*
X134843795Y-93082668D01*
X134843793Y-93082664D01*
X134757547Y-92967455D01*
X134757544Y-92967452D01*
X134642335Y-92881206D01*
X134642328Y-92881202D01*
X134507482Y-92830908D01*
X134507483Y-92830908D01*
X134447883Y-92824501D01*
X134447881Y-92824500D01*
X134447873Y-92824500D01*
X134447865Y-92824500D01*
X133889782Y-92824500D01*
X133822743Y-92804815D01*
X133776988Y-92752011D01*
X133767044Y-92682853D01*
X133796069Y-92619297D01*
X133802101Y-92612819D01*
X135209401Y-91205519D01*
X136708502Y-89706417D01*
X136769823Y-89672934D01*
X136776789Y-89671626D01*
X136781114Y-89670941D01*
X136781116Y-89670940D01*
X136781118Y-89670940D01*
X136960832Y-89612547D01*
X137129199Y-89526760D01*
X137282073Y-89415690D01*
X137415690Y-89282073D01*
X137526760Y-89129199D01*
X137612547Y-88960832D01*
X137670940Y-88781118D01*
X137676873Y-88743656D01*
X137700500Y-88594486D01*
X137700500Y-88405513D01*
X137670940Y-88218881D01*
X137612545Y-88039163D01*
X137526757Y-87870796D01*
X137524179Y-87867247D01*
X137500702Y-87801439D01*
X137500500Y-87794366D01*
X137500500Y-87205632D01*
X137520185Y-87138593D01*
X137524177Y-87132753D01*
X137526760Y-87129199D01*
X137612547Y-86960832D01*
X137670940Y-86781118D01*
X137673838Y-86762819D01*
X137700500Y-86594486D01*
X137700500Y-86405513D01*
X137670940Y-86218881D01*
X137612545Y-86039163D01*
X137527591Y-85872432D01*
X137526760Y-85870801D01*
X137415690Y-85717927D01*
X137282073Y-85584310D01*
X137129199Y-85473240D01*
X136960836Y-85387454D01*
X136781118Y-85329059D01*
X136594486Y-85299500D01*
X136594481Y-85299500D01*
X136405519Y-85299500D01*
X136405514Y-85299500D01*
X136218881Y-85329059D01*
X136039163Y-85387454D01*
X135870800Y-85473240D01*
X135833969Y-85500000D01*
X135717927Y-85584310D01*
X135717925Y-85584312D01*
X135717924Y-85584312D01*
X135584312Y-85717924D01*
X135584312Y-85717925D01*
X135584310Y-85717927D01*
X135536610Y-85783579D01*
X135473240Y-85870800D01*
X135387454Y-86039163D01*
X135329059Y-86218881D01*
X135299500Y-86405513D01*
X135299500Y-86594486D01*
X135329059Y-86781118D01*
X135387454Y-86960836D01*
X135453362Y-87090187D01*
X135473240Y-87129199D01*
X135475814Y-87132742D01*
X135499297Y-87198546D01*
X135499500Y-87205632D01*
X135499500Y-87794366D01*
X135479815Y-87861405D01*
X135475821Y-87867247D01*
X135473242Y-87870796D01*
X135387454Y-88039165D01*
X135329059Y-88218885D01*
X135328372Y-88223222D01*
X135298437Y-88286355D01*
X135293581Y-88291496D01*
X132712653Y-90872426D01*
X132062220Y-91522859D01*
X132062218Y-91522861D01*
X131992538Y-91592540D01*
X131922859Y-91662219D01*
X131813371Y-91826080D01*
X131813364Y-91826093D01*
X131775790Y-91916807D01*
X131775788Y-91916812D01*
X131773392Y-91922598D01*
X131737949Y-92008164D01*
X131718724Y-92104812D01*
X131717568Y-92110622D01*
X131717566Y-92110630D01*
X131699500Y-92201455D01*
X131699500Y-92700500D01*
X131679815Y-92767539D01*
X131627011Y-92813294D01*
X131575500Y-92824500D01*
X130952129Y-92824500D01*
X130952123Y-92824501D01*
X130892516Y-92830908D01*
X130757671Y-92881202D01*
X130757664Y-92881206D01*
X130642455Y-92967452D01*
X130642452Y-92967455D01*
X130556206Y-93082664D01*
X130556202Y-93082671D01*
X130505908Y-93217517D01*
X130499501Y-93277116D01*
X130499501Y-93277123D01*
X130499500Y-93277135D01*
X130499500Y-95722870D01*
X130499501Y-95722876D01*
X130505908Y-95782483D01*
X130556202Y-95917328D01*
X130556206Y-95917335D01*
X130642452Y-96032544D01*
X130642455Y-96032547D01*
X130757664Y-96118793D01*
X130757671Y-96118797D01*
X130892517Y-96169091D01*
X130892516Y-96169091D01*
X130899444Y-96169835D01*
X130952127Y-96175500D01*
X132909217Y-96175499D01*
X132976256Y-96195184D01*
X132996898Y-96211818D01*
X134213181Y-97428101D01*
X134246666Y-97489424D01*
X134249500Y-97515782D01*
X134249500Y-102846659D01*
X134229815Y-102913698D01*
X134177011Y-102959453D01*
X134107853Y-102969397D01*
X134060404Y-102952198D01*
X133919340Y-102865189D01*
X133919335Y-102865187D01*
X133919334Y-102865186D01*
X133752797Y-102810001D01*
X133752795Y-102810000D01*
X133650010Y-102799500D01*
X132849998Y-102799500D01*
X132849980Y-102799501D01*
X132747203Y-102810000D01*
X132747200Y-102810001D01*
X132580668Y-102865185D01*
X132580663Y-102865187D01*
X132431342Y-102957289D01*
X132307289Y-103081342D01*
X132215187Y-103230663D01*
X132215186Y-103230666D01*
X132160001Y-103397203D01*
X132160001Y-103397204D01*
X132160000Y-103397204D01*
X132149500Y-103499983D01*
X132149500Y-104500001D01*
X132149501Y-104500019D01*
X132160000Y-104602796D01*
X132160001Y-104602799D01*
X132215185Y-104769331D01*
X132215187Y-104769336D01*
X132226565Y-104787782D01*
X132307288Y-104918656D01*
X132431344Y-105042712D01*
X132565597Y-105125519D01*
X132572419Y-105133104D01*
X132581703Y-105137344D01*
X132595390Y-105158642D01*
X132612321Y-105177465D01*
X132614965Y-105189101D01*
X132619477Y-105196122D01*
X132624500Y-105231057D01*
X132624500Y-105259548D01*
X132604815Y-105326587D01*
X132588181Y-105347229D01*
X131927229Y-106008181D01*
X131865906Y-106041666D01*
X131839548Y-106044500D01*
X131084298Y-106044500D01*
X131047432Y-106047401D01*
X131047426Y-106047402D01*
X130889606Y-106093254D01*
X130889603Y-106093255D01*
X130748137Y-106176917D01*
X130748129Y-106176923D01*
X130631923Y-106293129D01*
X130631917Y-106293137D01*
X130548255Y-106434603D01*
X130548254Y-106434606D01*
X130502402Y-106592426D01*
X130502401Y-106592432D01*
X130499500Y-106629298D01*
X130499500Y-107060701D01*
X130502401Y-107097567D01*
X130502402Y-107097573D01*
X130548254Y-107255393D01*
X130548255Y-107255396D01*
X130631917Y-107396862D01*
X130636702Y-107403031D01*
X130634256Y-107404927D01*
X130660857Y-107453642D01*
X130655873Y-107523334D01*
X130635069Y-107555703D01*
X130636702Y-107556969D01*
X130631917Y-107563137D01*
X130548255Y-107704603D01*
X130548254Y-107704606D01*
X130502402Y-107862426D01*
X130502401Y-107862432D01*
X130499500Y-107899298D01*
X130499500Y-108330701D01*
X130502401Y-108367567D01*
X130502402Y-108367573D01*
X130548254Y-108525393D01*
X130548255Y-108525396D01*
X130548256Y-108525398D01*
X130583209Y-108584500D01*
X130631917Y-108666862D01*
X130636702Y-108673031D01*
X130634256Y-108674927D01*
X130660857Y-108723642D01*
X130655873Y-108793334D01*
X130635069Y-108825703D01*
X130636702Y-108826969D01*
X130631917Y-108833137D01*
X130548255Y-108974603D01*
X130548254Y-108974606D01*
X130502402Y-109132426D01*
X130502401Y-109132432D01*
X130499500Y-109169298D01*
X130499500Y-109600701D01*
X130502401Y-109637567D01*
X130502402Y-109637573D01*
X130548254Y-109795393D01*
X130548255Y-109795396D01*
X130631917Y-109936862D01*
X130636702Y-109943031D01*
X130634256Y-109944927D01*
X130660857Y-109993642D01*
X130655873Y-110063334D01*
X130635069Y-110095703D01*
X130636702Y-110096969D01*
X130631917Y-110103137D01*
X130548255Y-110244603D01*
X130548254Y-110244606D01*
X130502402Y-110402426D01*
X130502401Y-110402432D01*
X130499500Y-110439298D01*
X130499500Y-110870701D01*
X130502401Y-110907567D01*
X130502402Y-110907573D01*
X130548254Y-111065393D01*
X130548256Y-111065398D01*
X130548260Y-111065405D01*
X130548261Y-111065410D01*
X130551353Y-111072554D01*
X130550199Y-111073053D01*
X130555258Y-111092997D01*
X130565209Y-111119674D01*
X130563739Y-111126429D01*
X130565439Y-111133130D01*
X130556409Y-111160126D01*
X130550358Y-111187947D01*
X130544476Y-111195803D01*
X130543277Y-111199391D01*
X130529207Y-111216202D01*
X130407227Y-111338182D01*
X130345907Y-111371666D01*
X130319548Y-111374500D01*
X121609481Y-111374500D01*
X121542442Y-111354815D01*
X121503942Y-111315596D01*
X121502908Y-111313920D01*
X121495340Y-111301650D01*
X121373350Y-111179660D01*
X121226516Y-111089092D01*
X121062753Y-111034826D01*
X121062751Y-111034825D01*
X120961678Y-111024500D01*
X120363330Y-111024500D01*
X120363312Y-111024501D01*
X120262247Y-111034825D01*
X120098484Y-111089092D01*
X120098481Y-111089093D01*
X119951648Y-111179661D01*
X119837681Y-111293629D01*
X119776358Y-111327114D01*
X119706666Y-111322130D01*
X119662319Y-111293629D01*
X119548351Y-111179661D01*
X119548350Y-111179660D01*
X119401516Y-111089092D01*
X119237753Y-111034826D01*
X119237751Y-111034825D01*
X119136684Y-111024500D01*
X119136677Y-111024500D01*
X119073934Y-111024500D01*
X119049743Y-111022117D01*
X119012051Y-111014619D01*
X118936043Y-110999500D01*
X118936041Y-110999500D01*
X118215783Y-110999500D01*
X118148744Y-110979815D01*
X118128102Y-110963181D01*
X115378236Y-108213315D01*
X118012000Y-108213315D01*
X118012000Y-108786669D01*
X118012001Y-108786687D01*
X118022325Y-108887752D01*
X118076592Y-109051515D01*
X118076593Y-109051518D01*
X118080457Y-109057782D01*
X118167160Y-109198350D01*
X118289150Y-109320340D01*
X118435984Y-109410908D01*
X118599747Y-109465174D01*
X118700823Y-109475500D01*
X119399176Y-109475499D01*
X119399184Y-109475498D01*
X119399187Y-109475498D01*
X119454530Y-109469844D01*
X119500253Y-109465174D01*
X119664016Y-109410908D01*
X119810850Y-109320340D01*
X119932840Y-109198350D01*
X120023408Y-109051516D01*
X120077674Y-108887753D01*
X120088000Y-108786677D01*
X120087999Y-108397952D01*
X120096645Y-108368506D01*
X120103167Y-108338526D01*
X120106920Y-108333512D01*
X120107683Y-108330914D01*
X120124313Y-108310276D01*
X120272773Y-108161816D01*
X120334095Y-108128334D01*
X120360453Y-108125500D01*
X122439548Y-108125500D01*
X122506587Y-108145185D01*
X122527229Y-108161819D01*
X124236263Y-109870855D01*
X124236267Y-109870858D01*
X124338710Y-109939309D01*
X124338711Y-109939309D01*
X124338715Y-109939312D01*
X124392599Y-109961631D01*
X124452548Y-109986463D01*
X124454841Y-109986919D01*
X124464919Y-109988923D01*
X124464920Y-109988924D01*
X124573391Y-110010501D01*
X124573394Y-110010501D01*
X124702721Y-110010501D01*
X124702741Y-110010500D01*
X125704191Y-110010500D01*
X125771230Y-110030185D01*
X125791872Y-110046819D01*
X125798129Y-110053076D01*
X125798133Y-110053079D01*
X125798135Y-110053081D01*
X125939602Y-110136744D01*
X125981224Y-110148836D01*
X126097426Y-110182597D01*
X126097429Y-110182597D01*
X126097431Y-110182598D01*
X126134306Y-110185500D01*
X126134314Y-110185500D01*
X127915686Y-110185500D01*
X127915694Y-110185500D01*
X127952569Y-110182598D01*
X127952571Y-110182597D01*
X127952573Y-110182597D01*
X127994191Y-110170505D01*
X128110398Y-110136744D01*
X128251865Y-110053081D01*
X128368081Y-109936865D01*
X128451744Y-109795398D01*
X128497598Y-109637569D01*
X128500500Y-109600694D01*
X128500500Y-109169306D01*
X128497598Y-109132431D01*
X128474090Y-109051518D01*
X128451745Y-108974606D01*
X128451744Y-108974603D01*
X128451744Y-108974602D01*
X128368081Y-108833135D01*
X128368079Y-108833133D01*
X128368076Y-108833129D01*
X128251870Y-108716923D01*
X128251862Y-108716917D01*
X128110396Y-108633255D01*
X128110393Y-108633254D01*
X127952573Y-108587402D01*
X127952567Y-108587401D01*
X127915701Y-108584500D01*
X127915694Y-108584500D01*
X126134306Y-108584500D01*
X126134298Y-108584500D01*
X126097432Y-108587401D01*
X126097426Y-108587402D01*
X125939606Y-108633254D01*
X125939603Y-108633255D01*
X125798137Y-108716917D01*
X125798129Y-108716923D01*
X125791872Y-108723181D01*
X125730549Y-108756666D01*
X125704191Y-108759500D01*
X124945453Y-108759500D01*
X124878414Y-108739815D01*
X124857772Y-108723181D01*
X123245822Y-107111232D01*
X123235859Y-107101269D01*
X123235858Y-107101267D01*
X123148733Y-107014142D01*
X123097509Y-106979915D01*
X123046286Y-106945688D01*
X123046283Y-106945686D01*
X123046280Y-106945685D01*
X122972603Y-106915168D01*
X122972601Y-106915167D01*
X122965792Y-106912347D01*
X122932452Y-106898537D01*
X122872029Y-106886518D01*
X122867306Y-106885578D01*
X122867304Y-106885578D01*
X122811610Y-106874500D01*
X122811607Y-106874500D01*
X122811606Y-106874500D01*
X120117741Y-106874500D01*
X120117721Y-106874499D01*
X120111607Y-106874499D01*
X119988394Y-106874499D01*
X119887597Y-106894548D01*
X119887592Y-106894548D01*
X119867549Y-106898536D01*
X119867547Y-106898536D01*
X119820397Y-106918067D01*
X119753719Y-106945685D01*
X119753717Y-106945686D01*
X119651266Y-107014141D01*
X119651263Y-107014144D01*
X119177227Y-107488181D01*
X119115904Y-107521666D01*
X119089546Y-107524500D01*
X118700830Y-107524500D01*
X118700812Y-107524501D01*
X118599747Y-107534825D01*
X118435984Y-107589092D01*
X118435981Y-107589093D01*
X118289148Y-107679661D01*
X118167161Y-107801648D01*
X118076593Y-107948481D01*
X118076591Y-107948486D01*
X118057672Y-108005579D01*
X118022326Y-108112247D01*
X118022326Y-108112248D01*
X118022325Y-108112248D01*
X118012000Y-108213315D01*
X115378236Y-108213315D01*
X115206819Y-108041898D01*
X115173334Y-107980575D01*
X115170500Y-107954217D01*
X115170500Y-103680301D01*
X115190185Y-103613262D01*
X115242989Y-103567507D01*
X115255487Y-103562598D01*
X115339335Y-103534814D01*
X115488656Y-103442712D01*
X115612712Y-103318656D01*
X115704814Y-103169335D01*
X115759999Y-103002798D01*
X115770500Y-102900010D01*
X115770500Y-101695781D01*
X115790185Y-101628742D01*
X115806815Y-101608104D01*
X116137778Y-101277141D01*
X116137782Y-101277139D01*
X116277139Y-101137782D01*
X116386632Y-100973914D01*
X116393496Y-100957344D01*
X116455846Y-100806816D01*
X116462051Y-100791835D01*
X116462051Y-100791832D01*
X116462053Y-100791828D01*
X116469804Y-100752862D01*
X116493286Y-100634809D01*
X116493286Y-100634808D01*
X116494018Y-100631130D01*
X116500500Y-100598541D01*
X116500500Y-98965782D01*
X116520185Y-98898743D01*
X116536819Y-98878101D01*
X117078102Y-98336818D01*
X117139425Y-98303333D01*
X117165783Y-98300499D01*
X117600002Y-98300499D01*
X117600008Y-98300499D01*
X117702797Y-98289999D01*
X117869334Y-98234814D01*
X118018656Y-98142712D01*
X118142712Y-98018656D01*
X118234814Y-97869334D01*
X118289999Y-97702797D01*
X118300500Y-97600009D01*
X118300499Y-96399992D01*
X118294722Y-96343443D01*
X118289999Y-96297203D01*
X118289998Y-96297200D01*
X118256193Y-96195184D01*
X118234814Y-96130666D01*
X118142712Y-95981344D01*
X118018656Y-95857288D01*
X117897377Y-95782483D01*
X117869336Y-95765187D01*
X117869331Y-95765185D01*
X117867862Y-95764698D01*
X117702797Y-95710001D01*
X117702795Y-95710000D01*
X117600010Y-95699500D01*
X116399998Y-95699500D01*
X116399981Y-95699501D01*
X116297203Y-95710000D01*
X116297200Y-95710001D01*
X116130668Y-95765185D01*
X116130663Y-95765187D01*
X115981342Y-95857289D01*
X115857289Y-95981342D01*
X115765187Y-96130663D01*
X115765186Y-96130666D01*
X115710001Y-96297203D01*
X115710001Y-96297204D01*
X115710000Y-96297204D01*
X115699500Y-96399983D01*
X115699500Y-96834216D01*
X115679815Y-96901255D01*
X115663180Y-96921897D01*
X114862220Y-97722859D01*
X114862218Y-97722861D01*
X114793491Y-97791588D01*
X114722859Y-97862219D01*
X114613371Y-98026080D01*
X114613364Y-98026093D01*
X114579648Y-98107491D01*
X114579643Y-98107505D01*
X114577691Y-98112219D01*
X114537949Y-98208164D01*
X114523912Y-98278733D01*
X114522534Y-98285658D01*
X114522533Y-98285663D01*
X114499500Y-98401456D01*
X114499500Y-100034218D01*
X114479815Y-100101257D01*
X114463181Y-100121899D01*
X114221899Y-100363181D01*
X114160576Y-100396666D01*
X114134218Y-100399500D01*
X113269982Y-100399500D01*
X113167203Y-100410000D01*
X113167202Y-100410001D01*
X113084669Y-100437349D01*
X113000667Y-100465185D01*
X113000662Y-100465187D01*
X112851342Y-100557289D01*
X112727289Y-100681342D01*
X112635187Y-100830662D01*
X112635186Y-100830665D01*
X112607403Y-100914505D01*
X112567632Y-100971949D01*
X112503117Y-100998772D01*
X112489699Y-100999500D01*
X112215783Y-100999500D01*
X112148744Y-100979815D01*
X112128102Y-100963181D01*
X111034209Y-99869289D01*
X111034206Y-99869285D01*
X111034206Y-99869286D01*
X111027139Y-99862219D01*
X111027139Y-99862218D01*
X110887782Y-99722861D01*
X110887781Y-99722860D01*
X110887780Y-99722859D01*
X110723920Y-99613371D01*
X110723911Y-99613366D01*
X110643157Y-99579917D01*
X110595165Y-99560038D01*
X110541836Y-99537949D01*
X110541832Y-99537948D01*
X110541828Y-99537946D01*
X110445188Y-99518724D01*
X110348544Y-99499500D01*
X110348541Y-99499500D01*
X110010452Y-99499500D01*
X109943413Y-99479815D01*
X109898733Y-99429303D01*
X109854284Y-99337003D01*
X109710838Y-99108711D01*
X109542734Y-98897915D01*
X109352085Y-98707266D01*
X109141289Y-98539162D01*
X108912997Y-98395716D01*
X108912994Y-98395714D01*
X108670082Y-98278734D01*
X108415602Y-98189687D01*
X108415594Y-98189684D01*
X108209785Y-98142710D01*
X108152732Y-98129688D01*
X108152728Y-98129687D01*
X108152719Y-98129686D01*
X107884813Y-98099500D01*
X107884809Y-98099500D01*
X107615191Y-98099500D01*
X107615186Y-98099500D01*
X107347280Y-98129686D01*
X107347268Y-98129688D01*
X107084405Y-98189684D01*
X107084397Y-98189687D01*
X106829917Y-98278734D01*
X106587005Y-98395714D01*
X106358712Y-98539161D01*
X106147915Y-98707265D01*
X105957265Y-98897915D01*
X105789161Y-99108712D01*
X105645714Y-99337005D01*
X105528734Y-99579917D01*
X105439687Y-99834397D01*
X105439684Y-99834405D01*
X105379688Y-100097268D01*
X105379686Y-100097280D01*
X105349500Y-100365186D01*
X105349500Y-100634808D01*
X105379686Y-100902719D01*
X105379688Y-100902731D01*
X105439684Y-101165594D01*
X105439687Y-101165602D01*
X105528734Y-101420082D01*
X105645714Y-101662994D01*
X105645716Y-101662997D01*
X105789162Y-101891289D01*
X105957266Y-102102085D01*
X106147915Y-102292734D01*
X106358711Y-102460838D01*
X106587003Y-102604284D01*
X106587005Y-102604285D01*
X106607974Y-102614383D01*
X106829921Y-102721267D01*
X107021049Y-102788145D01*
X107084397Y-102810312D01*
X107084405Y-102810315D01*
X107084408Y-102810315D01*
X107084409Y-102810316D01*
X107347268Y-102870312D01*
X107615187Y-102900499D01*
X107615188Y-102900500D01*
X107615191Y-102900500D01*
X107884812Y-102900500D01*
X107884812Y-102900499D01*
X108152732Y-102870312D01*
X108415591Y-102810316D01*
X108670079Y-102721267D01*
X108912997Y-102604284D01*
X109141289Y-102460838D01*
X109352085Y-102292734D01*
X109542734Y-102102085D01*
X109710838Y-101891289D01*
X109827045Y-101706346D01*
X109879379Y-101660057D01*
X109948432Y-101649409D01*
X110012281Y-101677784D01*
X110019717Y-101684637D01*
X110972860Y-102637781D01*
X110972861Y-102637782D01*
X111056344Y-102721265D01*
X111112219Y-102777140D01*
X111204572Y-102838848D01*
X111276086Y-102886632D01*
X111382745Y-102930811D01*
X111458164Y-102962051D01*
X111646432Y-102999500D01*
X111651454Y-103000499D01*
X111651457Y-103000500D01*
X111651459Y-103000500D01*
X111848540Y-103000500D01*
X112489699Y-103000500D01*
X112556738Y-103020185D01*
X112602493Y-103072989D01*
X112607401Y-103085487D01*
X112634887Y-103168435D01*
X112635185Y-103169332D01*
X112635187Y-103169337D01*
X112668201Y-103222861D01*
X112727288Y-103318656D01*
X112851344Y-103442712D01*
X113000665Y-103534814D01*
X113084505Y-103562596D01*
X113141949Y-103602368D01*
X113168772Y-103666883D01*
X113169500Y-103680301D01*
X113169500Y-108518542D01*
X113170863Y-108525396D01*
X113183498Y-108588914D01*
X113207949Y-108711836D01*
X113222605Y-108747218D01*
X113226020Y-108755463D01*
X113226022Y-108755470D01*
X113283364Y-108893907D01*
X113283371Y-108893920D01*
X113392859Y-109057780D01*
X113392860Y-109057781D01*
X113392861Y-109057782D01*
X113532218Y-109197139D01*
X113532219Y-109197139D01*
X113539286Y-109204206D01*
X113539285Y-109204206D01*
X113539289Y-109204209D01*
X117112215Y-112777137D01*
X117112219Y-112777140D01*
X117276079Y-112886628D01*
X117276085Y-112886631D01*
X117276086Y-112886632D01*
X117458165Y-112962052D01*
X117651455Y-113000500D01*
X117651458Y-113000501D01*
X117651460Y-113000501D01*
X117854655Y-113000501D01*
X117854675Y-113000500D01*
X118936043Y-113000500D01*
X119049747Y-112977882D01*
X119073939Y-112975499D01*
X119136670Y-112975499D01*
X119136676Y-112975499D01*
X119237753Y-112965174D01*
X119401516Y-112910908D01*
X119548350Y-112820340D01*
X119662319Y-112706371D01*
X119667639Y-112703465D01*
X119671038Y-112698443D01*
X119697951Y-112686913D01*
X119723642Y-112672886D01*
X119729689Y-112673318D01*
X119735263Y-112670931D01*
X119764129Y-112675781D01*
X119793334Y-112677870D01*
X119799719Y-112681761D01*
X119804167Y-112682509D01*
X119823310Y-112696139D01*
X119833398Y-112702287D01*
X119835580Y-112704270D01*
X119951650Y-112820340D01*
X119987887Y-112842691D01*
X119996398Y-112850426D01*
X120008840Y-112870833D01*
X120024821Y-112888600D01*
X120027879Y-112902060D01*
X120032771Y-112910082D01*
X120032481Y-112922308D01*
X120037000Y-112942191D01*
X120037000Y-113277047D01*
X120017315Y-113344086D01*
X120000681Y-113364728D01*
X119127227Y-114238181D01*
X119065904Y-114271666D01*
X119039546Y-114274500D01*
X118700831Y-114274500D01*
X118700812Y-114274501D01*
X118599747Y-114284825D01*
X118435984Y-114339092D01*
X118435981Y-114339093D01*
X118289148Y-114429661D01*
X118167161Y-114551648D01*
X118076593Y-114698481D01*
X118076592Y-114698484D01*
X118022326Y-114862247D01*
X118022326Y-114862248D01*
X118022325Y-114862248D01*
X118012000Y-114963315D01*
X118012000Y-115536669D01*
X118012001Y-115536687D01*
X118022325Y-115637752D01*
X118076592Y-115801515D01*
X118076593Y-115801518D01*
X118167161Y-115948351D01*
X118256629Y-116037819D01*
X118290114Y-116099142D01*
X118285130Y-116168834D01*
X118243258Y-116224767D01*
X118177794Y-116249184D01*
X118168948Y-116249500D01*
X104124500Y-116249500D01*
X104057461Y-116229815D01*
X104011706Y-116177011D01*
X104000500Y-116125500D01*
X104000500Y-113643713D01*
X106649500Y-113643713D01*
X106649500Y-113856287D01*
X106653856Y-113883788D01*
X106670081Y-113986233D01*
X106682754Y-114066243D01*
X106738620Y-114238181D01*
X106748444Y-114268414D01*
X106844951Y-114457820D01*
X106969890Y-114629786D01*
X107120213Y-114780109D01*
X107292179Y-114905048D01*
X107292181Y-114905049D01*
X107292184Y-114905051D01*
X107481588Y-115001557D01*
X107683757Y-115067246D01*
X107893713Y-115100500D01*
X107893714Y-115100500D01*
X108106286Y-115100500D01*
X108106287Y-115100500D01*
X108316243Y-115067246D01*
X108518412Y-115001557D01*
X108707816Y-114905051D01*
X108766731Y-114862247D01*
X108879786Y-114780109D01*
X108879788Y-114780106D01*
X108879792Y-114780104D01*
X109030104Y-114629792D01*
X109030106Y-114629788D01*
X109030109Y-114629786D01*
X109155048Y-114457820D01*
X109155047Y-114457820D01*
X109155051Y-114457816D01*
X109251557Y-114268412D01*
X109317246Y-114066243D01*
X109350500Y-113856287D01*
X109350500Y-113643713D01*
X109317246Y-113433757D01*
X109251557Y-113231588D01*
X109155051Y-113042184D01*
X109155049Y-113042181D01*
X109155048Y-113042179D01*
X109030109Y-112870213D01*
X108879786Y-112719890D01*
X108707820Y-112594951D01*
X108518414Y-112498444D01*
X108518413Y-112498443D01*
X108518412Y-112498443D01*
X108316243Y-112432754D01*
X108316241Y-112432753D01*
X108316240Y-112432753D01*
X108154957Y-112407208D01*
X108106287Y-112399500D01*
X107893713Y-112399500D01*
X107845042Y-112407208D01*
X107683760Y-112432753D01*
X107683757Y-112432754D01*
X107520321Y-112485858D01*
X107481585Y-112498444D01*
X107292179Y-112594951D01*
X107120213Y-112719890D01*
X106969890Y-112870213D01*
X106844951Y-113042179D01*
X106748444Y-113231585D01*
X106682753Y-113433760D01*
X106668161Y-113525893D01*
X106649500Y-113643713D01*
X104000500Y-113643713D01*
X104000500Y-92674983D01*
X105449500Y-92674983D01*
X105449500Y-93275001D01*
X105449501Y-93275019D01*
X105460000Y-93377796D01*
X105460001Y-93377799D01*
X105515185Y-93544331D01*
X105515186Y-93544334D01*
X105607288Y-93693656D01*
X105731344Y-93817712D01*
X105880666Y-93909814D01*
X106047203Y-93964999D01*
X106149991Y-93975500D01*
X108550008Y-93975499D01*
X108652797Y-93964999D01*
X108819334Y-93909814D01*
X108968656Y-93817712D01*
X109092712Y-93693656D01*
X109184814Y-93544334D01*
X109239999Y-93377797D01*
X109250283Y-93277135D01*
X122599500Y-93277135D01*
X122599500Y-95722870D01*
X122599501Y-95722876D01*
X122605908Y-95782483D01*
X122656202Y-95917328D01*
X122656206Y-95917335D01*
X122742452Y-96032544D01*
X122742455Y-96032547D01*
X122857664Y-96118793D01*
X122857671Y-96118797D01*
X122902618Y-96135561D01*
X122992517Y-96169091D01*
X123052127Y-96175500D01*
X123675500Y-96175499D01*
X123742539Y-96195183D01*
X123788294Y-96247987D01*
X123799500Y-96299499D01*
X123799500Y-100399413D01*
X123779815Y-100466452D01*
X123727011Y-100512207D01*
X123720126Y-100514888D01*
X123720128Y-100514892D01*
X123715627Y-100516756D01*
X123491150Y-100631132D01*
X123287350Y-100779201D01*
X123287345Y-100779205D01*
X123109205Y-100957345D01*
X123109201Y-100957350D01*
X122961132Y-101161151D01*
X122846760Y-101385616D01*
X122768910Y-101625214D01*
X122729500Y-101874038D01*
X122729500Y-102125961D01*
X122768910Y-102374785D01*
X122846760Y-102614383D01*
X122858683Y-102637782D01*
X122946593Y-102810315D01*
X122961132Y-102838848D01*
X123109201Y-103042649D01*
X123109205Y-103042654D01*
X123290789Y-103224238D01*
X123289714Y-103225312D01*
X123324225Y-103278180D01*
X123329500Y-103313962D01*
X123329500Y-104248541D01*
X123329500Y-104248543D01*
X123329499Y-104248543D01*
X123367947Y-104441829D01*
X123367950Y-104441839D01*
X123443364Y-104623907D01*
X123443371Y-104623920D01*
X123552859Y-104787780D01*
X123552860Y-104787781D01*
X123552861Y-104787782D01*
X123692218Y-104927139D01*
X123692219Y-104927139D01*
X123699286Y-104934206D01*
X123699285Y-104934206D01*
X123699289Y-104934209D01*
X125513181Y-106748101D01*
X125546666Y-106809424D01*
X125549500Y-106835782D01*
X125549500Y-107060701D01*
X125552401Y-107097567D01*
X125552402Y-107097573D01*
X125598254Y-107255393D01*
X125598255Y-107255396D01*
X125681917Y-107396862D01*
X125681923Y-107396870D01*
X125798129Y-107513076D01*
X125798133Y-107513079D01*
X125798135Y-107513081D01*
X125939602Y-107596744D01*
X125981224Y-107608836D01*
X126097426Y-107642597D01*
X126097429Y-107642597D01*
X126097431Y-107642598D01*
X126134306Y-107645500D01*
X126384565Y-107645500D01*
X126451604Y-107665185D01*
X126453456Y-107666398D01*
X126551079Y-107731628D01*
X126551085Y-107731631D01*
X126551086Y-107731632D01*
X126733165Y-107807052D01*
X126926455Y-107845500D01*
X126926458Y-107845501D01*
X126926460Y-107845501D01*
X127123543Y-107845501D01*
X127123544Y-107845500D01*
X127316836Y-107807052D01*
X127498915Y-107731632D01*
X127596545Y-107666398D01*
X127663222Y-107645520D01*
X127665436Y-107645500D01*
X127915686Y-107645500D01*
X127915694Y-107645500D01*
X127952569Y-107642598D01*
X127952571Y-107642597D01*
X127952573Y-107642597D01*
X127994191Y-107630505D01*
X128110398Y-107596744D01*
X128251865Y-107513081D01*
X128368081Y-107396865D01*
X128451744Y-107255398D01*
X128485505Y-107139191D01*
X128497597Y-107097573D01*
X128497598Y-107097567D01*
X128500499Y-107060701D01*
X128500500Y-107060694D01*
X128500500Y-106629306D01*
X128497598Y-106592431D01*
X128451744Y-106434602D01*
X128368081Y-106293135D01*
X128368079Y-106293133D01*
X128368076Y-106293129D01*
X128251870Y-106176923D01*
X128251862Y-106176917D01*
X128110396Y-106093255D01*
X128110393Y-106093254D01*
X127952573Y-106047402D01*
X127952567Y-106047401D01*
X127915701Y-106044500D01*
X127915694Y-106044500D01*
X127690783Y-106044500D01*
X127623744Y-106024815D01*
X127603102Y-106008181D01*
X125366819Y-103771898D01*
X125333334Y-103710575D01*
X125330500Y-103684217D01*
X125330500Y-103313962D01*
X125350185Y-103246923D01*
X125369623Y-103224650D01*
X125369211Y-103224238D01*
X125424117Y-103169332D01*
X125550793Y-103042656D01*
X125698870Y-102838845D01*
X125813241Y-102614379D01*
X125891090Y-102374785D01*
X125930500Y-102125962D01*
X125930500Y-101874038D01*
X125891090Y-101625215D01*
X125891089Y-101625211D01*
X125891089Y-101625210D01*
X125813242Y-101385624D01*
X125811380Y-101381128D01*
X125812461Y-101380680D01*
X125800500Y-101330845D01*
X125800500Y-96299499D01*
X125820185Y-96232460D01*
X125872989Y-96186705D01*
X125924500Y-96175499D01*
X126547871Y-96175499D01*
X126547872Y-96175499D01*
X126607483Y-96169091D01*
X126742331Y-96118796D01*
X126857546Y-96032546D01*
X126943796Y-95917331D01*
X126994091Y-95782483D01*
X127000500Y-95722873D01*
X127000499Y-93277128D01*
X126994091Y-93217517D01*
X126943796Y-93082669D01*
X126943795Y-93082668D01*
X126943793Y-93082664D01*
X126857547Y-92967455D01*
X126857544Y-92967452D01*
X126742335Y-92881206D01*
X126742328Y-92881202D01*
X126607482Y-92830908D01*
X126607483Y-92830908D01*
X126547883Y-92824501D01*
X126547881Y-92824500D01*
X126547873Y-92824500D01*
X126547865Y-92824500D01*
X125924500Y-92824500D01*
X125857461Y-92804815D01*
X125811706Y-92752011D01*
X125800500Y-92700500D01*
X125800500Y-88915781D01*
X125820185Y-88848742D01*
X125836815Y-88828104D01*
X126208501Y-88456417D01*
X126269822Y-88422934D01*
X126276776Y-88421627D01*
X126281118Y-88420940D01*
X126460832Y-88362547D01*
X126629199Y-88276760D01*
X126632746Y-88274183D01*
X126698552Y-88250702D01*
X126705633Y-88250500D01*
X127294367Y-88250500D01*
X127361406Y-88270185D01*
X127367254Y-88274183D01*
X127370799Y-88276759D01*
X127539163Y-88362545D01*
X127539165Y-88362545D01*
X127539168Y-88362547D01*
X127586109Y-88377799D01*
X127718881Y-88420940D01*
X127905514Y-88450500D01*
X127905519Y-88450500D01*
X128094486Y-88450500D01*
X128281118Y-88420940D01*
X128281121Y-88420939D01*
X128460832Y-88362547D01*
X128629199Y-88276760D01*
X128782073Y-88165690D01*
X128915690Y-88032073D01*
X129026760Y-87879199D01*
X129112547Y-87710832D01*
X129170940Y-87531118D01*
X129182890Y-87455668D01*
X129200500Y-87344486D01*
X129200500Y-87155513D01*
X129170940Y-86968881D01*
X129126741Y-86832853D01*
X129112547Y-86789168D01*
X129112545Y-86789165D01*
X129112545Y-86789163D01*
X129026759Y-86620800D01*
X128915690Y-86467927D01*
X128782073Y-86334310D01*
X128629199Y-86223240D01*
X128620644Y-86218881D01*
X128460836Y-86137454D01*
X128281118Y-86079059D01*
X128094486Y-86049500D01*
X128094481Y-86049500D01*
X127905519Y-86049500D01*
X127905514Y-86049500D01*
X127718881Y-86079059D01*
X127539163Y-86137454D01*
X127370799Y-86223240D01*
X127367254Y-86225817D01*
X127301448Y-86249298D01*
X127294367Y-86249500D01*
X126705633Y-86249500D01*
X126638594Y-86229815D01*
X126632746Y-86225817D01*
X126629200Y-86223240D01*
X126460836Y-86137454D01*
X126281118Y-86079059D01*
X126094486Y-86049500D01*
X126094481Y-86049500D01*
X125905519Y-86049500D01*
X125905514Y-86049500D01*
X125718881Y-86079059D01*
X125539163Y-86137454D01*
X125370800Y-86223240D01*
X125334935Y-86249298D01*
X125217927Y-86334310D01*
X125217925Y-86334312D01*
X125217924Y-86334312D01*
X125084312Y-86467924D01*
X125084312Y-86467925D01*
X125084310Y-86467927D01*
X125065573Y-86493716D01*
X124973240Y-86620800D01*
X124887454Y-86789165D01*
X124829059Y-86968884D01*
X124828372Y-86973223D01*
X124798437Y-87036356D01*
X124793581Y-87041497D01*
X124438336Y-87396743D01*
X124162220Y-87672859D01*
X124162218Y-87672861D01*
X124124247Y-87710832D01*
X124022859Y-87812219D01*
X123913371Y-87976079D01*
X123913366Y-87976088D01*
X123863227Y-88097137D01*
X123837950Y-88158159D01*
X123837947Y-88158171D01*
X123819582Y-88250500D01*
X123819582Y-88250501D01*
X123799500Y-88351456D01*
X123799500Y-92700500D01*
X123779815Y-92767539D01*
X123727011Y-92813294D01*
X123675500Y-92824500D01*
X123052129Y-92824500D01*
X123052123Y-92824501D01*
X122992516Y-92830908D01*
X122857671Y-92881202D01*
X122857664Y-92881206D01*
X122742455Y-92967452D01*
X122742452Y-92967455D01*
X122656206Y-93082664D01*
X122656202Y-93082671D01*
X122605908Y-93217517D01*
X122599501Y-93277116D01*
X122599501Y-93277123D01*
X122599500Y-93277135D01*
X109250283Y-93277135D01*
X109250500Y-93275009D01*
X109250499Y-92674992D01*
X109239999Y-92572203D01*
X109184814Y-92405666D01*
X109092712Y-92256344D01*
X108968656Y-92132288D01*
X108819334Y-92040186D01*
X108652797Y-91985001D01*
X108652795Y-91985000D01*
X108550010Y-91974500D01*
X106149998Y-91974500D01*
X106149981Y-91974501D01*
X106047203Y-91985000D01*
X106047200Y-91985001D01*
X105880668Y-92040185D01*
X105880663Y-92040187D01*
X105731342Y-92132289D01*
X105607289Y-92256342D01*
X105515187Y-92405663D01*
X105515186Y-92405666D01*
X105460001Y-92572203D01*
X105460001Y-92572204D01*
X105460000Y-92572204D01*
X105449500Y-92674983D01*
X104000500Y-92674983D01*
X104000500Y-89659298D01*
X109349500Y-89659298D01*
X109349500Y-90090701D01*
X109352401Y-90127567D01*
X109352402Y-90127573D01*
X109398254Y-90285393D01*
X109398255Y-90285396D01*
X109485890Y-90433580D01*
X109483919Y-90434745D01*
X109505232Y-90489058D01*
X109491540Y-90557573D01*
X109485864Y-90566404D01*
X109485890Y-90566420D01*
X109398255Y-90714603D01*
X109398254Y-90714606D01*
X109352402Y-90872426D01*
X109352401Y-90872432D01*
X109349500Y-90909298D01*
X109349500Y-91340701D01*
X109352401Y-91377567D01*
X109352402Y-91377573D01*
X109398254Y-91535393D01*
X109398255Y-91535396D01*
X109481917Y-91676862D01*
X109481923Y-91676870D01*
X109598129Y-91793076D01*
X109598133Y-91793079D01*
X109598135Y-91793081D01*
X109739602Y-91876744D01*
X109781224Y-91888836D01*
X109897426Y-91922597D01*
X109897429Y-91922597D01*
X109897431Y-91922598D01*
X109934306Y-91925500D01*
X109934314Y-91925500D01*
X111465686Y-91925500D01*
X111465694Y-91925500D01*
X111502569Y-91922598D01*
X111502571Y-91922597D01*
X111502573Y-91922597D01*
X111544191Y-91910505D01*
X111660398Y-91876744D01*
X111801865Y-91793081D01*
X111918081Y-91676865D01*
X112001744Y-91535398D01*
X112036751Y-91414905D01*
X112051064Y-91392491D01*
X112062114Y-91368297D01*
X112069580Y-91363498D01*
X112074357Y-91356019D01*
X112098519Y-91344901D01*
X112120892Y-91330523D01*
X112133799Y-91328667D01*
X112137829Y-91326813D01*
X112155827Y-91325500D01*
X112256529Y-91325500D01*
X112256545Y-91325501D01*
X112264141Y-91325501D01*
X112422252Y-91325501D01*
X112422255Y-91325501D01*
X112574983Y-91284577D01*
X112625102Y-91255639D01*
X112711914Y-91205520D01*
X112823718Y-91093716D01*
X112823718Y-91093714D01*
X112833926Y-91083507D01*
X112833928Y-91083504D01*
X116237821Y-87679610D01*
X116299142Y-87646127D01*
X116368834Y-87651111D01*
X116424767Y-87692983D01*
X116449184Y-87758447D01*
X116449500Y-87767293D01*
X116449500Y-88275001D01*
X116449501Y-88275019D01*
X116460000Y-88377796D01*
X116460001Y-88377799D01*
X116515185Y-88544331D01*
X116515186Y-88544334D01*
X116607288Y-88693656D01*
X116731344Y-88817712D01*
X116880666Y-88909814D01*
X117047203Y-88964999D01*
X117149991Y-88975500D01*
X119550008Y-88975499D01*
X119652797Y-88964999D01*
X119819334Y-88909814D01*
X119968656Y-88817712D01*
X120092712Y-88693656D01*
X120184814Y-88544334D01*
X120239999Y-88377797D01*
X120250500Y-88275009D01*
X120250499Y-87674992D01*
X120250281Y-87672862D01*
X120239999Y-87572203D01*
X120239998Y-87572200D01*
X120201381Y-87455663D01*
X120184814Y-87405666D01*
X120092712Y-87256344D01*
X119968656Y-87132288D01*
X119828256Y-87045689D01*
X119819336Y-87040187D01*
X119819331Y-87040185D01*
X119803684Y-87035000D01*
X119652797Y-86985001D01*
X119652795Y-86985000D01*
X119550016Y-86974500D01*
X117242293Y-86974500D01*
X117175254Y-86954815D01*
X117129499Y-86902011D01*
X117119555Y-86832853D01*
X117148580Y-86769297D01*
X117154593Y-86762839D01*
X117555614Y-86361819D01*
X117616937Y-86328334D01*
X117643295Y-86325500D01*
X119724902Y-86325500D01*
X119754342Y-86334144D01*
X119784329Y-86340668D01*
X119789344Y-86344422D01*
X119791941Y-86345185D01*
X119812583Y-86361819D01*
X119940138Y-86489374D01*
X119940148Y-86489385D01*
X119944478Y-86493715D01*
X119944479Y-86493716D01*
X120056283Y-86605520D01*
X120056285Y-86605521D01*
X120056289Y-86605524D01*
X120179852Y-86676862D01*
X120193215Y-86684577D01*
X120305018Y-86714534D01*
X120345941Y-86725500D01*
X120345942Y-86725500D01*
X120483752Y-86725500D01*
X120488300Y-86725835D01*
X120516911Y-86736575D01*
X120546231Y-86745185D01*
X120551800Y-86749672D01*
X120553713Y-86750391D01*
X120555249Y-86752452D01*
X120566874Y-86761820D01*
X120598129Y-86793076D01*
X120598133Y-86793079D01*
X120598135Y-86793081D01*
X120739602Y-86876744D01*
X120781224Y-86888836D01*
X120897426Y-86922597D01*
X120897429Y-86922597D01*
X120897431Y-86922598D01*
X120934306Y-86925500D01*
X120934314Y-86925500D01*
X122465686Y-86925500D01*
X122465694Y-86925500D01*
X122502569Y-86922598D01*
X122502571Y-86922597D01*
X122502573Y-86922597D01*
X122573429Y-86902011D01*
X122660398Y-86876744D01*
X122801865Y-86793081D01*
X122918081Y-86676865D01*
X123001744Y-86535398D01*
X123047598Y-86377569D01*
X123050500Y-86340694D01*
X123050500Y-85909306D01*
X123047598Y-85872431D01*
X123047124Y-85870801D01*
X123001745Y-85714606D01*
X123001744Y-85714603D01*
X123001744Y-85714602D01*
X122918081Y-85573135D01*
X122914110Y-85566420D01*
X122916083Y-85565252D01*
X122894769Y-85510965D01*
X122908448Y-85442447D01*
X122914136Y-85433595D01*
X122914110Y-85433580D01*
X122928026Y-85410048D01*
X123001744Y-85285398D01*
X123047598Y-85127569D01*
X123050500Y-85090694D01*
X123050500Y-84659306D01*
X123047598Y-84622431D01*
X123001744Y-84464602D01*
X122918081Y-84323135D01*
X122918079Y-84323133D01*
X122918076Y-84323129D01*
X122801870Y-84206923D01*
X122801862Y-84206917D01*
X122660396Y-84123255D01*
X122660393Y-84123254D01*
X122502573Y-84077402D01*
X122502567Y-84077401D01*
X122465701Y-84074500D01*
X122465694Y-84074500D01*
X120934306Y-84074500D01*
X120934298Y-84074500D01*
X120897432Y-84077401D01*
X120897426Y-84077402D01*
X120739606Y-84123254D01*
X120739603Y-84123255D01*
X120598137Y-84206917D01*
X120598129Y-84206923D01*
X120566874Y-84238180D01*
X120505552Y-84271666D01*
X120479192Y-84274500D01*
X120345939Y-84274500D01*
X120305018Y-84285464D01*
X120305018Y-84285465D01*
X120267750Y-84295451D01*
X120193213Y-84315423D01*
X120193208Y-84315426D01*
X120056289Y-84394475D01*
X120056281Y-84394481D01*
X119812582Y-84638181D01*
X119751259Y-84671666D01*
X119724901Y-84674500D01*
X117243471Y-84674500D01*
X117243455Y-84674499D01*
X117235859Y-84674499D01*
X117077745Y-84674499D01*
X116970389Y-84703265D01*
X116925012Y-84715424D01*
X116925011Y-84715425D01*
X116874898Y-84744359D01*
X116874897Y-84744360D01*
X116831491Y-84769420D01*
X116788087Y-84794479D01*
X116788084Y-84794481D01*
X116676280Y-84906286D01*
X112157971Y-89424594D01*
X112096648Y-89458079D01*
X112026956Y-89453095D01*
X111971023Y-89411223D01*
X111963567Y-89400048D01*
X111918081Y-89323135D01*
X111918078Y-89323132D01*
X111918076Y-89323129D01*
X111801870Y-89206923D01*
X111801862Y-89206917D01*
X111660396Y-89123255D01*
X111660393Y-89123254D01*
X111502573Y-89077402D01*
X111502567Y-89077401D01*
X111465701Y-89074500D01*
X111465694Y-89074500D01*
X109934306Y-89074500D01*
X109934298Y-89074500D01*
X109897432Y-89077401D01*
X109897426Y-89077402D01*
X109739606Y-89123254D01*
X109739603Y-89123255D01*
X109598137Y-89206917D01*
X109598129Y-89206923D01*
X109481923Y-89323129D01*
X109481917Y-89323137D01*
X109398255Y-89464603D01*
X109398254Y-89464606D01*
X109352402Y-89622426D01*
X109352401Y-89622432D01*
X109349500Y-89659298D01*
X104000500Y-89659298D01*
X104000500Y-87724983D01*
X105449500Y-87724983D01*
X105449500Y-88325001D01*
X105449501Y-88325019D01*
X105460000Y-88427796D01*
X105460001Y-88427799D01*
X105515185Y-88594331D01*
X105515187Y-88594336D01*
X105515280Y-88594486D01*
X105607288Y-88743656D01*
X105731344Y-88867712D01*
X105880666Y-88959814D01*
X106047203Y-89014999D01*
X106149991Y-89025500D01*
X108550008Y-89025499D01*
X108652797Y-89014999D01*
X108819334Y-88959814D01*
X108968656Y-88867712D01*
X109092712Y-88743656D01*
X109184814Y-88594334D01*
X109239999Y-88427797D01*
X109250500Y-88325009D01*
X109250499Y-87724992D01*
X109245863Y-87679612D01*
X109239999Y-87622203D01*
X109239998Y-87622200D01*
X109184814Y-87455666D01*
X109092712Y-87306344D01*
X108968656Y-87182288D01*
X108819334Y-87090186D01*
X108652797Y-87035001D01*
X108652795Y-87035000D01*
X108550010Y-87024500D01*
X106149998Y-87024500D01*
X106149981Y-87024501D01*
X106047203Y-87035000D01*
X106047200Y-87035001D01*
X105880668Y-87090185D01*
X105880663Y-87090187D01*
X105731342Y-87182289D01*
X105607289Y-87306342D01*
X105515187Y-87455663D01*
X105515186Y-87455666D01*
X105460001Y-87622203D01*
X105460001Y-87622204D01*
X105460000Y-87622204D01*
X105449500Y-87724983D01*
X104000500Y-87724983D01*
X104000500Y-83643713D01*
X106399500Y-83643713D01*
X106399500Y-83856286D01*
X106426300Y-84025499D01*
X106432754Y-84066243D01*
X106451278Y-84123255D01*
X106498444Y-84268414D01*
X106594951Y-84457820D01*
X106719890Y-84629786D01*
X106870213Y-84780109D01*
X107042179Y-84905048D01*
X107042181Y-84905049D01*
X107042184Y-84905051D01*
X107231588Y-85001557D01*
X107433757Y-85067246D01*
X107643713Y-85100500D01*
X107643714Y-85100500D01*
X107856286Y-85100500D01*
X107856287Y-85100500D01*
X108066243Y-85067246D01*
X108268412Y-85001557D01*
X108457816Y-84905051D01*
X108610004Y-84794481D01*
X108629786Y-84780109D01*
X108629788Y-84780106D01*
X108629792Y-84780104D01*
X108780104Y-84629792D01*
X108780106Y-84629788D01*
X108780109Y-84629786D01*
X108905048Y-84457820D01*
X108905047Y-84457820D01*
X108905051Y-84457816D01*
X109001557Y-84268412D01*
X109067246Y-84066243D01*
X109100500Y-83856287D01*
X109100500Y-83643713D01*
X109067246Y-83433757D01*
X109001557Y-83231588D01*
X108905051Y-83042184D01*
X108905049Y-83042181D01*
X108905048Y-83042179D01*
X108780109Y-82870213D01*
X108634879Y-82724983D01*
X116449500Y-82724983D01*
X116449500Y-83325001D01*
X116449501Y-83325019D01*
X116460000Y-83427796D01*
X116460001Y-83427799D01*
X116515185Y-83594331D01*
X116515186Y-83594334D01*
X116607288Y-83743656D01*
X116731344Y-83867712D01*
X116880666Y-83959814D01*
X117047203Y-84014999D01*
X117149991Y-84025500D01*
X119550008Y-84025499D01*
X119652797Y-84014999D01*
X119819334Y-83959814D01*
X119926501Y-83893713D01*
X140399500Y-83893713D01*
X140399500Y-84106287D01*
X140402188Y-84123256D01*
X140432624Y-84315426D01*
X140432754Y-84316243D01*
X140494502Y-84506284D01*
X140498444Y-84518414D01*
X140594951Y-84707820D01*
X140719890Y-84879786D01*
X140870213Y-85030109D01*
X141042179Y-85155048D01*
X141042181Y-85155049D01*
X141042184Y-85155051D01*
X141231588Y-85251557D01*
X141433757Y-85317246D01*
X141643713Y-85350500D01*
X141643714Y-85350500D01*
X141856286Y-85350500D01*
X141856287Y-85350500D01*
X142066243Y-85317246D01*
X142268412Y-85251557D01*
X142457816Y-85155051D01*
X142479789Y-85139086D01*
X142629786Y-85030109D01*
X142629788Y-85030106D01*
X142629792Y-85030104D01*
X142780104Y-84879792D01*
X142780106Y-84879788D01*
X142780109Y-84879786D01*
X142899523Y-84715425D01*
X142905051Y-84707816D01*
X143001557Y-84518412D01*
X143067246Y-84316243D01*
X143100500Y-84106287D01*
X143100500Y-83893713D01*
X143067246Y-83683757D01*
X143001557Y-83481588D01*
X142905051Y-83292184D01*
X142905049Y-83292181D01*
X142905048Y-83292179D01*
X142780109Y-83120213D01*
X142629786Y-82969890D01*
X142457820Y-82844951D01*
X142268414Y-82748444D01*
X142268413Y-82748443D01*
X142268412Y-82748443D01*
X142066243Y-82682754D01*
X142066241Y-82682753D01*
X142066240Y-82682753D01*
X141904957Y-82657208D01*
X141856287Y-82649500D01*
X141643713Y-82649500D01*
X141595042Y-82657208D01*
X141433760Y-82682753D01*
X141433757Y-82682754D01*
X141303766Y-82724991D01*
X141231585Y-82748444D01*
X141042179Y-82844951D01*
X140870213Y-82969890D01*
X140719890Y-83120213D01*
X140594951Y-83292179D01*
X140498444Y-83481585D01*
X140432753Y-83683760D01*
X140414159Y-83801160D01*
X140399500Y-83893713D01*
X119926501Y-83893713D01*
X119968656Y-83867712D01*
X120092712Y-83743656D01*
X120184814Y-83594334D01*
X120239999Y-83427797D01*
X120250500Y-83325009D01*
X120250499Y-82724992D01*
X120249978Y-82719896D01*
X120239999Y-82622203D01*
X120239998Y-82622200D01*
X120184814Y-82455666D01*
X120092712Y-82306344D01*
X119968656Y-82182288D01*
X119819334Y-82090186D01*
X119652797Y-82035001D01*
X119652795Y-82035000D01*
X119550010Y-82024500D01*
X117149998Y-82024500D01*
X117149981Y-82024501D01*
X117047203Y-82035000D01*
X117047200Y-82035001D01*
X116880668Y-82090185D01*
X116880663Y-82090187D01*
X116731342Y-82182289D01*
X116607289Y-82306342D01*
X116515187Y-82455663D01*
X116515186Y-82455666D01*
X116460001Y-82622203D01*
X116460001Y-82622204D01*
X116460000Y-82622204D01*
X116449500Y-82724983D01*
X108634879Y-82724983D01*
X108629786Y-82719890D01*
X108457820Y-82594951D01*
X108268414Y-82498444D01*
X108268413Y-82498443D01*
X108268412Y-82498443D01*
X108066243Y-82432754D01*
X108066241Y-82432753D01*
X108066240Y-82432753D01*
X107904957Y-82407208D01*
X107856287Y-82399500D01*
X107643713Y-82399500D01*
X107595042Y-82407208D01*
X107433760Y-82432753D01*
X107231585Y-82498444D01*
X107042179Y-82594951D01*
X106870213Y-82719890D01*
X106719890Y-82870213D01*
X106594951Y-83042179D01*
X106498444Y-83231585D01*
X106432753Y-83433760D01*
X106399500Y-83643713D01*
X104000500Y-83643713D01*
X104000500Y-81374500D01*
X104020185Y-81307461D01*
X104072989Y-81261706D01*
X104124500Y-81250500D01*
X144625500Y-81250500D01*
X144692539Y-81270185D01*
G37*
%TD.AperFunction*%
%TD*%
M02*
