%TF.GenerationSoftware,KiCad,Pcbnew,10.0.6*%
%TF.CreationDate,2026-09-25T15:43:07-05:00*%
%TF.ProjectId,IEEE Onboarding Electrical,49454545-204f-46e6-926f-617264696e67,rev?*%
%TF.SameCoordinates,Original*%
%TF.FileFunction,Copper,L1,Top*%
%TF.FilePolarity,Positive*%
%FSLAX46Y46*%
G04 Gerber Fmt 4.6, Leading zero omitted, Abs format (unit mm)*
G04 Created by KiCad (PCBNEW 10.0.6) date 2026-09-25 15:43:07*
%MOMM*%
%LPD*%
G01*
G04 APERTURE LIST*
G04 Aperture macros list*
%AMRoundRect*
0 Rectangle with rounded corners*
0 $1 Rounding radius*
0 $2 $3 $4 $5 $6 $7 $8 $9 X,Y pos of 4 corners*
0 Add a 4 corners polygon primitive as box body*
4,1,4,$2,$3,$4,$5,$6,$7,$8,$9,$2,$3,0*
0 Add four circle primitives for the rounded corners*
1,1,$1+$1,$2,$3*
1,1,$1+$1,$4,$5*
1,1,$1+$1,$6,$7*
1,1,$1+$1,$8,$9*
0 Add four rect primitives between the rounded corners*
20,1,$1+$1,$2,$3,$4,$5,0*
20,1,$1+$1,$4,$5,$6,$7,0*
20,1,$1+$1,$6,$7,$8,$9,0*
20,1,$1+$1,$8,$9,$2,$3,0*%
G04 Aperture macros list end*
%TA.AperFunction,ComponentPad*%
%ADD10C,3.800000*%
%TD*%
%TA.AperFunction,ComponentPad*%
%ADD11RoundRect,0.760000X-1.140000X1.140000X-1.140000X-1.140000X1.140000X-1.140000X1.140000X1.140000X0*%
%TD*%
%TA.AperFunction,ComponentPad*%
%ADD12O,1.200000X1.750000*%
%TD*%
%TA.AperFunction,ComponentPad*%
%ADD13RoundRect,0.250000X-0.350000X-0.625000X0.350000X-0.625000X0.350000X0.625000X-0.350000X0.625000X0*%
%TD*%
%TA.AperFunction,SMDPad,CuDef*%
%ADD14RoundRect,0.237500X-0.250000X-0.237500X0.250000X-0.237500X0.250000X0.237500X-0.250000X0.237500X0*%
%TD*%
%TA.AperFunction,SMDPad,CuDef*%
%ADD15RoundRect,0.237500X0.237500X-0.250000X0.237500X0.250000X-0.237500X0.250000X-0.237500X-0.250000X0*%
%TD*%
%TA.AperFunction,SMDPad,CuDef*%
%ADD16RoundRect,0.237500X0.250000X0.237500X-0.250000X0.237500X-0.250000X-0.237500X0.250000X-0.237500X0*%
%TD*%
%TA.AperFunction,SMDPad,CuDef*%
%ADD17RoundRect,0.237500X0.300000X0.237500X-0.300000X0.237500X-0.300000X-0.237500X0.300000X-0.237500X0*%
%TD*%
%TA.AperFunction,ComponentPad*%
%ADD18C,1.400000*%
%TD*%
%TA.AperFunction,SMDPad,CuDef*%
%ADD19RoundRect,0.250000X-0.350000X-0.450000X0.350000X-0.450000X0.350000X0.450000X-0.350000X0.450000X0*%
%TD*%
%TA.AperFunction,SMDPad,CuDef*%
%ADD20O,1.520000X13.970000*%
%TD*%
%TA.AperFunction,ComponentPad*%
%ADD21C,4.000000*%
%TD*%
%TA.AperFunction,SMDPad,CuDef*%
%ADD22RoundRect,0.150000X-0.150000X0.825000X-0.150000X-0.825000X0.150000X-0.825000X0.150000X0.825000X0*%
%TD*%
%TA.AperFunction,SMDPad,CuDef*%
%ADD23RoundRect,0.250000X-0.300000X0.300000X-0.300000X-0.300000X0.300000X-0.300000X0.300000X0.300000X0*%
%TD*%
%TA.AperFunction,SMDPad,CuDef*%
%ADD24RoundRect,0.250000X-0.250000X-0.475000X0.250000X-0.475000X0.250000X0.475000X-0.250000X0.475000X0*%
%TD*%
%TA.AperFunction,ComponentPad*%
%ADD25RoundRect,0.250000X-0.550000X-0.550000X0.550000X-0.550000X0.550000X0.550000X-0.550000X0.550000X0*%
%TD*%
%TA.AperFunction,ComponentPad*%
%ADD26C,1.600000*%
%TD*%
%TA.AperFunction,ViaPad*%
%ADD27C,0.600000*%
%TD*%
%TA.AperFunction,Conductor*%
%ADD28C,1.000000*%
%TD*%
%TA.AperFunction,Conductor*%
%ADD29C,0.200000*%
%TD*%
G04 APERTURE END LIST*
D10*
%TO.P,J2,2,Pin_2_2*%
%TO.N,VCC*%
X128500000Y-110500000D03*
D11*
%TO.P,J2,1,Pin_1_1*%
%TO.N,GND*%
X128500000Y-105500000D03*
%TD*%
D12*
%TO.P,J3,2,Pin_2_2*%
%TO.N,/CAN+*%
X149500000Y-109000000D03*
D13*
%TO.P,J3,1,Pin_1_1*%
%TO.N,/CAN-*%
X147500000Y-109000000D03*
%TD*%
D14*
%TO.P,R3,2*%
%TO.N,GND*%
X120912500Y-92500000D03*
%TO.P,R3,1*%
%TO.N,Net-(IC1-COMP)*%
X119087500Y-92500000D03*
%TD*%
D15*
%TO.P,R2,2*%
%TO.N,+12V*%
X134500000Y-103587500D03*
%TO.P,R2,1*%
%TO.N,Net-(IC1-IPK)*%
X134500000Y-105412500D03*
%TD*%
D16*
%TO.P,R4,2*%
%TO.N,Net-(IC1-COMP)*%
X119087500Y-88500000D03*
%TO.P,R4,1*%
%TO.N,VCC*%
X120912500Y-88500000D03*
%TD*%
D17*
%TO.P,C3,2*%
%TO.N,GND*%
X133000000Y-81000000D03*
%TO.P,C3,1*%
%TO.N,Net-(IC1-TC)*%
X134725000Y-81000000D03*
%TD*%
D18*
%TO.P,TP2,1,1_1*%
%TO.N,Net-(D1-A)*%
X139000000Y-103500000D03*
X141000000Y-103500000D03*
%TD*%
%TO.P,TP1,1,1_1*%
%TO.N,Net-(IC1-IPK)*%
X144500000Y-103500000D03*
X146500000Y-103500000D03*
%TD*%
D19*
%TO.P,R1,1*%
%TO.N,Net-(IC1-IPK)*%
X154500000Y-103000000D03*
%TO.P,R1,2*%
%TO.N,Net-(IC1-DRC)*%
X156500000Y-103000000D03*
%TD*%
D20*
%TO.P,L1,1,1_1*%
%TO.N,Net-(IC1-IPK)*%
X148475000Y-93250000D03*
%TO.P,L1,2,2_2*%
%TO.N,Net-(D1-A)*%
X135525000Y-93250000D03*
%TD*%
D13*
%TO.P,J4,1,Pin_1_1*%
%TO.N,/CAN-*%
X139000000Y-109450000D03*
D12*
%TO.P,J4,2,Pin_2_2*%
%TO.N,/CAN+*%
X141000000Y-109450000D03*
%TD*%
D11*
%TO.P,J1,1,Pin_1_1*%
%TO.N,GND*%
X157500000Y-86000000D03*
D21*
%TO.P,J1,2,Pin_2_2*%
%TO.N,+12V*%
X157500000Y-91000000D03*
%TD*%
D22*
%TO.P,IC1,1,SWC_1*%
%TO.N,Net-(D1-A)*%
X144905000Y-78025000D03*
%TO.P,IC1,2,SWE_2*%
%TO.N,GND*%
X143635000Y-78025000D03*
%TO.P,IC1,3,TC_3*%
%TO.N,Net-(IC1-TC)*%
X142365000Y-78025000D03*
%TO.P,IC1,4,GND_4*%
%TO.N,GND*%
X141095000Y-78025000D03*
%TO.P,IC1,5,COMP_5*%
%TO.N,Net-(IC1-COMP)*%
X141095000Y-82975000D03*
%TO.P,IC1,6,VCC_6*%
%TO.N,+12V*%
X142365000Y-82975000D03*
%TO.P,IC1,7,IPK_7*%
%TO.N,Net-(IC1-IPK)*%
X143635000Y-82975000D03*
%TO.P,IC1,8,DRC_8*%
%TO.N,Net-(IC1-DRC)*%
X144905000Y-82975000D03*
%TD*%
D23*
%TO.P,D1,1,K_1*%
%TO.N,VCC*%
X131000000Y-98100000D03*
%TO.P,D1,2,A_2*%
%TO.N,Net-(D1-A)*%
X131000000Y-100900000D03*
%TD*%
D24*
%TO.P,C2,1*%
%TO.N,+12V*%
X149550000Y-80500000D03*
%TO.P,C2,2*%
%TO.N,GND*%
X151450000Y-80500000D03*
%TD*%
D25*
%TO.P,C1,1*%
%TO.N,VCC*%
X125597349Y-91500000D03*
D26*
%TO.P,C1,2*%
%TO.N,GND*%
X130597349Y-91500000D03*
%TD*%
D27*
%TO.N,Net-(D1-A)*%
X145000000Y-75500000D03*
X139250000Y-89750000D03*
%TD*%
%TO.N,Net-(IC1-IPK)*%
D28*
X146500000Y-103500000D02*
X144500000Y-103500000D01*
%TO.N,Net-(D1-A)*%
X141000000Y-103500000D02*
X139000000Y-103500000D01*
%TO.N,Net-(IC1-IPK)*%
X143635000Y-88160000D02*
X143635000Y-82975000D01*
X148475000Y-93000000D02*
X143635000Y-88160000D01*
%TO.N,Net-(D1-A)*%
X145000000Y-75500000D02*
X145000000Y-77930000D01*
X136000000Y-93000000D02*
X139250000Y-89750000D01*
X135525000Y-93000000D02*
X136000000Y-93000000D01*
X145000000Y-77930000D02*
X144905000Y-78025000D01*
X135525000Y-96375000D02*
X135525000Y-93000000D01*
X131000000Y-100900000D02*
X135525000Y-96375000D01*
%TO.N,Net-(IC1-IPK)*%
D29*
X143635000Y-100635000D02*
X146500000Y-103500000D01*
X143635000Y-82975000D02*
X143635000Y-100635000D01*
%TO.N,Net-(IC1-DRC)*%
X156500000Y-93300934D02*
X156500000Y-103000000D01*
X146174066Y-82975000D02*
X156500000Y-93300934D01*
X144905000Y-82975000D02*
X146174066Y-82975000D01*
%TO.N,+12V*%
D28*
X142365000Y-95722500D02*
X134500000Y-103587500D01*
X142365000Y-82975000D02*
X142365000Y-95722500D01*
X142365000Y-82000001D02*
X142365000Y-82975000D01*
X143865001Y-80500000D02*
X142365000Y-82000001D01*
X149550000Y-80500000D02*
X143865001Y-80500000D01*
%TO.N,VCC*%
X125597349Y-107597349D02*
X125597349Y-91500000D01*
X128500000Y-110500000D02*
X125597349Y-107597349D01*
%TO.N,+12V*%
X149550000Y-83050000D02*
X149550000Y-80500000D01*
X157500000Y-91000000D02*
X149550000Y-83050000D01*
%TO.N,/CAN-*%
D29*
X140175000Y-108275000D02*
X139000000Y-109450000D01*
X146775000Y-108275000D02*
X140175000Y-108275000D01*
X147500000Y-109000000D02*
X146775000Y-108275000D01*
%TO.N,/CAN+*%
X148325000Y-110175000D02*
X149500000Y-109000000D01*
X141725000Y-110175000D02*
X148325000Y-110175000D01*
X141000000Y-109450000D02*
X141725000Y-110175000D01*
%TO.N,Net-(IC1-IPK)*%
X142587500Y-105412500D02*
X134500000Y-105412500D01*
X144500000Y-103500000D02*
X142587500Y-105412500D01*
X154000000Y-103500000D02*
X154500000Y-103000000D01*
X146500000Y-103500000D02*
X154000000Y-103500000D01*
%TO.N,Net-(D1-A)*%
X137875000Y-104625000D02*
X139000000Y-103500000D01*
X134175000Y-104625000D02*
X137875000Y-104625000D01*
X131000000Y-101450000D02*
X134175000Y-104625000D01*
X131000000Y-100900000D02*
X131000000Y-101450000D01*
%TO.N,Net-(IC1-TC)*%
X140364999Y-81000000D02*
X142365000Y-78999999D01*
X134725000Y-81000000D02*
X140364999Y-81000000D01*
X142365000Y-78999999D02*
X142365000Y-78025000D01*
%TO.N,VCC*%
X131000000Y-97000000D02*
X131000000Y-98100000D01*
X125597349Y-91597349D02*
X131000000Y-97000000D01*
X125597349Y-91500000D02*
X125597349Y-91597349D01*
%TO.N,Net-(IC1-COMP)*%
X124612500Y-82975000D02*
X141095000Y-82975000D01*
X119087500Y-88500000D02*
X124612500Y-82975000D01*
X119087500Y-88500000D02*
X119087500Y-92500000D01*
%TO.N,VCC*%
X122597349Y-88500000D02*
X125597349Y-91500000D01*
X120912500Y-88500000D02*
X122597349Y-88500000D01*
%TD*%
%TA.AperFunction,Conductor*%
%TO.N,GND*%
G36*
X140237539Y-83595185D02*
G01*
X140283294Y-83647989D01*
X140294500Y-83699500D01*
X140294500Y-83865701D01*
X140297401Y-83902567D01*
X140297402Y-83902573D01*
X140343254Y-84060393D01*
X140343255Y-84060396D01*
X140426917Y-84201862D01*
X140426923Y-84201870D01*
X140543129Y-84318076D01*
X140543133Y-84318079D01*
X140543135Y-84318081D01*
X140684602Y-84401744D01*
X140726224Y-84413836D01*
X140842426Y-84447597D01*
X140842429Y-84447597D01*
X140842431Y-84447598D01*
X140879306Y-84450500D01*
X140879314Y-84450500D01*
X141240500Y-84450500D01*
X141307539Y-84470185D01*
X141353294Y-84522989D01*
X141364500Y-84574500D01*
X141364500Y-95256717D01*
X141344815Y-95323756D01*
X141328181Y-95344398D01*
X136996443Y-99676135D01*
X136935120Y-99709620D01*
X136865428Y-99704636D01*
X136809495Y-99662764D01*
X136785078Y-99597300D01*
X136785144Y-99578726D01*
X136785500Y-99574202D01*
X136785500Y-93680782D01*
X136805185Y-93613743D01*
X136821819Y-93593101D01*
X140027136Y-90387784D01*
X140027139Y-90387781D01*
X140136631Y-90223914D01*
X140212051Y-90041836D01*
X140250500Y-89848540D01*
X140250500Y-89651460D01*
X140250500Y-89651457D01*
X140250499Y-89651455D01*
X140212052Y-89458171D01*
X140212051Y-89458164D01*
X140136631Y-89276086D01*
X140136629Y-89276083D01*
X140136627Y-89276079D01*
X140027139Y-89112219D01*
X140027136Y-89112215D01*
X139887784Y-88972863D01*
X139887780Y-88972860D01*
X139723920Y-88863372D01*
X139723910Y-88863367D01*
X139541836Y-88787949D01*
X139541828Y-88787947D01*
X139348543Y-88749500D01*
X139348540Y-88749500D01*
X139151460Y-88749500D01*
X139151457Y-88749500D01*
X138958171Y-88787947D01*
X138958163Y-88787949D01*
X138776089Y-88863367D01*
X138776079Y-88863372D01*
X138612219Y-88972860D01*
X138612215Y-88972863D01*
X136997181Y-90587898D01*
X136935858Y-90621383D01*
X136866166Y-90616399D01*
X136810233Y-90574527D01*
X136785816Y-90509063D01*
X136785500Y-90500217D01*
X136785500Y-86925790D01*
X136768570Y-86818906D01*
X136754463Y-86729832D01*
X136693151Y-86541136D01*
X136693149Y-86541133D01*
X136693149Y-86541131D01*
X136660880Y-86477800D01*
X136603077Y-86364354D01*
X136486456Y-86203839D01*
X136346161Y-86063544D01*
X136185646Y-85946923D01*
X136128922Y-85918021D01*
X136008868Y-85856850D01*
X135963596Y-85842140D01*
X135820168Y-85795537D01*
X135820162Y-85795536D01*
X135624209Y-85764500D01*
X135624204Y-85764500D01*
X135425796Y-85764500D01*
X135425791Y-85764500D01*
X135229837Y-85795536D01*
X135229835Y-85795536D01*
X135229832Y-85795537D01*
X135135484Y-85826193D01*
X135041131Y-85856850D01*
X134864352Y-85946924D01*
X134864349Y-85946926D01*
X134778255Y-86009477D01*
X134703839Y-86063544D01*
X134703837Y-86063546D01*
X134703836Y-86063546D01*
X134563546Y-86203836D01*
X134563546Y-86203837D01*
X134563544Y-86203839D01*
X134530006Y-86250000D01*
X134446926Y-86364349D01*
X134446924Y-86364352D01*
X134356850Y-86541131D01*
X134326193Y-86635484D01*
X134295537Y-86729832D01*
X134295536Y-86729835D01*
X134295536Y-86729837D01*
X134264500Y-86925790D01*
X134264500Y-96169216D01*
X134244815Y-96236255D01*
X134228181Y-96256897D01*
X132262180Y-98222898D01*
X132200857Y-98256383D01*
X132131165Y-98251399D01*
X132075232Y-98209527D01*
X132050815Y-98144063D01*
X132050499Y-98135217D01*
X132050499Y-97749998D01*
X132050498Y-97749981D01*
X132039999Y-97647203D01*
X132039998Y-97647200D01*
X131984814Y-97480666D01*
X131892712Y-97331344D01*
X131768656Y-97207288D01*
X131659402Y-97139900D01*
X131612679Y-97087953D01*
X131600500Y-97034362D01*
X131600500Y-96920945D01*
X131600500Y-96920943D01*
X131559577Y-96768216D01*
X131559577Y-96768215D01*
X131516135Y-96692972D01*
X131511273Y-96684550D01*
X131511272Y-96684549D01*
X131495896Y-96657917D01*
X131480520Y-96631284D01*
X131368716Y-96519480D01*
X131368715Y-96519479D01*
X131364385Y-96515149D01*
X131364374Y-96515139D01*
X126934167Y-92084932D01*
X126900682Y-92023609D01*
X126897848Y-91997251D01*
X126897848Y-91397682D01*
X129297349Y-91397682D01*
X129297349Y-91602317D01*
X129329358Y-91804417D01*
X129392593Y-91999031D01*
X129485490Y-92181350D01*
X129485496Y-92181359D01*
X129517872Y-92225921D01*
X129517873Y-92225922D01*
X130197349Y-91546446D01*
X130197349Y-91552661D01*
X130224608Y-91654394D01*
X130277269Y-91745606D01*
X130351743Y-91820080D01*
X130442955Y-91872741D01*
X130544688Y-91900000D01*
X130550902Y-91900000D01*
X129871425Y-92579474D01*
X129915999Y-92611859D01*
X130098317Y-92704755D01*
X130292931Y-92767990D01*
X130495032Y-92800000D01*
X130699666Y-92800000D01*
X130901766Y-92767990D01*
X131096380Y-92704755D01*
X131278698Y-92611859D01*
X131323270Y-92579474D01*
X130643796Y-91900000D01*
X130650010Y-91900000D01*
X130751743Y-91872741D01*
X130842955Y-91820080D01*
X130917429Y-91745606D01*
X130970090Y-91654394D01*
X130997349Y-91552661D01*
X130997349Y-91546447D01*
X131676823Y-92225921D01*
X131709208Y-92181349D01*
X131802104Y-91999031D01*
X131865339Y-91804417D01*
X131897349Y-91602317D01*
X131897349Y-91397682D01*
X131865339Y-91195582D01*
X131802104Y-91000968D01*
X131709208Y-90818650D01*
X131676823Y-90774077D01*
X131676823Y-90774076D01*
X130997349Y-91453551D01*
X130997349Y-91447339D01*
X130970090Y-91345606D01*
X130917429Y-91254394D01*
X130842955Y-91179920D01*
X130751743Y-91127259D01*
X130650010Y-91100000D01*
X130643795Y-91100000D01*
X131323271Y-90420524D01*
X131323270Y-90420523D01*
X131278708Y-90388147D01*
X131278699Y-90388141D01*
X131096380Y-90295244D01*
X130901766Y-90232009D01*
X130699666Y-90200000D01*
X130495032Y-90200000D01*
X130292931Y-90232009D01*
X130098317Y-90295244D01*
X129915993Y-90388143D01*
X129871426Y-90420523D01*
X129871426Y-90420524D01*
X130550903Y-91100000D01*
X130544688Y-91100000D01*
X130442955Y-91127259D01*
X130351743Y-91179920D01*
X130277269Y-91254394D01*
X130224608Y-91345606D01*
X130197349Y-91447339D01*
X130197349Y-91453553D01*
X129517873Y-90774077D01*
X129517872Y-90774077D01*
X129485492Y-90818644D01*
X129392593Y-91000968D01*
X129329358Y-91195582D01*
X129297349Y-91397682D01*
X126897848Y-91397682D01*
X126897848Y-90899998D01*
X126897847Y-90899981D01*
X126887348Y-90797203D01*
X126887347Y-90797200D01*
X126874970Y-90759848D01*
X126832163Y-90630666D01*
X126826437Y-90621383D01*
X126771849Y-90532881D01*
X126771848Y-90532880D01*
X126757158Y-90509063D01*
X126740061Y-90481344D01*
X126616005Y-90357288D01*
X126466683Y-90265186D01*
X126300146Y-90210001D01*
X126300144Y-90210000D01*
X126197365Y-90199500D01*
X126197358Y-90199500D01*
X125197447Y-90199500D01*
X125130408Y-90179815D01*
X125109766Y-90163181D01*
X123084939Y-88138355D01*
X123084937Y-88138352D01*
X122966066Y-88019481D01*
X122966065Y-88019480D01*
X122879253Y-87969360D01*
X122879253Y-87969359D01*
X122879249Y-87969358D01*
X122829134Y-87940423D01*
X122676406Y-87899499D01*
X122518292Y-87899499D01*
X122510696Y-87899499D01*
X122510680Y-87899500D01*
X121874901Y-87899500D01*
X121807862Y-87879815D01*
X121769362Y-87840596D01*
X121745340Y-87801650D01*
X121623351Y-87679661D01*
X121623350Y-87679660D01*
X121523370Y-87617992D01*
X121476518Y-87589093D01*
X121476513Y-87589091D01*
X121425651Y-87572237D01*
X121312753Y-87534826D01*
X121312751Y-87534825D01*
X121211684Y-87524500D01*
X121211677Y-87524500D01*
X121211596Y-87524500D01*
X121211580Y-87524495D01*
X121208529Y-87524340D01*
X121208537Y-87524179D01*
X121208536Y-87524179D01*
X121208538Y-87524155D01*
X121208566Y-87523610D01*
X121144557Y-87504815D01*
X121098802Y-87452011D01*
X121088858Y-87382853D01*
X121117883Y-87319297D01*
X121123915Y-87312819D01*
X122954955Y-85481780D01*
X124824916Y-83611819D01*
X124886239Y-83578334D01*
X124912597Y-83575500D01*
X140170500Y-83575500D01*
X140237539Y-83595185D01*
G37*
%TD.AperFunction*%
%TA.AperFunction,Conductor*%
G36*
X167442539Y-72520185D02*
G01*
X167488294Y-72572989D01*
X167499500Y-72624500D01*
X167499500Y-117875500D01*
X167479815Y-117942539D01*
X167427011Y-117988294D01*
X167375500Y-117999500D01*
X114124500Y-117999500D01*
X114057461Y-117979815D01*
X114011706Y-117927011D01*
X114000500Y-117875500D01*
X114000500Y-113893713D01*
X117149500Y-113893713D01*
X117149500Y-114106286D01*
X117182753Y-114316239D01*
X117248444Y-114518414D01*
X117344951Y-114707820D01*
X117469890Y-114879786D01*
X117620213Y-115030109D01*
X117792179Y-115155048D01*
X117792181Y-115155049D01*
X117792184Y-115155051D01*
X117981588Y-115251557D01*
X118183757Y-115317246D01*
X118393713Y-115350500D01*
X118393714Y-115350500D01*
X118606286Y-115350500D01*
X118606287Y-115350500D01*
X118816243Y-115317246D01*
X119018412Y-115251557D01*
X119207816Y-115155051D01*
X119229789Y-115139086D01*
X119379786Y-115030109D01*
X119379788Y-115030106D01*
X119379792Y-115030104D01*
X119530104Y-114879792D01*
X119530106Y-114879788D01*
X119530109Y-114879786D01*
X119655048Y-114707820D01*
X119655047Y-114707820D01*
X119655051Y-114707816D01*
X119751557Y-114518412D01*
X119817246Y-114316243D01*
X119850500Y-114106287D01*
X119850500Y-113893713D01*
X161149500Y-113893713D01*
X161149500Y-114106286D01*
X161182753Y-114316239D01*
X161248444Y-114518414D01*
X161344951Y-114707820D01*
X161469890Y-114879786D01*
X161620213Y-115030109D01*
X161792179Y-115155048D01*
X161792181Y-115155049D01*
X161792184Y-115155051D01*
X161981588Y-115251557D01*
X162183757Y-115317246D01*
X162393713Y-115350500D01*
X162393714Y-115350500D01*
X162606286Y-115350500D01*
X162606287Y-115350500D01*
X162816243Y-115317246D01*
X163018412Y-115251557D01*
X163207816Y-115155051D01*
X163229789Y-115139086D01*
X163379786Y-115030109D01*
X163379788Y-115030106D01*
X163379792Y-115030104D01*
X163530104Y-114879792D01*
X163530106Y-114879788D01*
X163530109Y-114879786D01*
X163655048Y-114707820D01*
X163655047Y-114707820D01*
X163655051Y-114707816D01*
X163751557Y-114518412D01*
X163817246Y-114316243D01*
X163850500Y-114106287D01*
X163850500Y-113893713D01*
X163817246Y-113683757D01*
X163751557Y-113481588D01*
X163655051Y-113292184D01*
X163655049Y-113292181D01*
X163655048Y-113292179D01*
X163530109Y-113120213D01*
X163379786Y-112969890D01*
X163207820Y-112844951D01*
X163018414Y-112748444D01*
X163018413Y-112748443D01*
X163018412Y-112748443D01*
X162816243Y-112682754D01*
X162816241Y-112682753D01*
X162816240Y-112682753D01*
X162654957Y-112657208D01*
X162606287Y-112649500D01*
X162393713Y-112649500D01*
X162345042Y-112657208D01*
X162183760Y-112682753D01*
X161981585Y-112748444D01*
X161792179Y-112844951D01*
X161620213Y-112969890D01*
X161469890Y-113120213D01*
X161344951Y-113292179D01*
X161248444Y-113481585D01*
X161182753Y-113683760D01*
X161149500Y-113893713D01*
X119850500Y-113893713D01*
X119817246Y-113683757D01*
X119751557Y-113481588D01*
X119655051Y-113292184D01*
X119655049Y-113292181D01*
X119655048Y-113292179D01*
X119530109Y-113120213D01*
X119379786Y-112969890D01*
X119207820Y-112844951D01*
X119018414Y-112748444D01*
X119018413Y-112748443D01*
X119018412Y-112748443D01*
X118816243Y-112682754D01*
X118816241Y-112682753D01*
X118816240Y-112682753D01*
X118654957Y-112657208D01*
X118606287Y-112649500D01*
X118393713Y-112649500D01*
X118345042Y-112657208D01*
X118183760Y-112682753D01*
X117981585Y-112748444D01*
X117792179Y-112844951D01*
X117620213Y-112969890D01*
X117469890Y-113120213D01*
X117344951Y-113292179D01*
X117248444Y-113481585D01*
X117182753Y-113683760D01*
X117149500Y-113893713D01*
X114000500Y-113893713D01*
X114000500Y-88213315D01*
X118099500Y-88213315D01*
X118099500Y-88786669D01*
X118099501Y-88786687D01*
X118109825Y-88887752D01*
X118164092Y-89051515D01*
X118164093Y-89051518D01*
X118194306Y-89100500D01*
X118254660Y-89198350D01*
X118376650Y-89320340D01*
X118428097Y-89352072D01*
X118474821Y-89404017D01*
X118487000Y-89457610D01*
X118487000Y-91542388D01*
X118467315Y-91609427D01*
X118428098Y-91647926D01*
X118376650Y-91679659D01*
X118254661Y-91801648D01*
X118164093Y-91948481D01*
X118164091Y-91948486D01*
X118160803Y-91958408D01*
X118109826Y-92112247D01*
X118109826Y-92112248D01*
X118109825Y-92112248D01*
X118099500Y-92213315D01*
X118099500Y-92786669D01*
X118099501Y-92786687D01*
X118109825Y-92887752D01*
X118146109Y-92997249D01*
X118164092Y-93051516D01*
X118254660Y-93198350D01*
X118376650Y-93320340D01*
X118523484Y-93410908D01*
X118687247Y-93465174D01*
X118788323Y-93475500D01*
X119386676Y-93475499D01*
X119386684Y-93475498D01*
X119386687Y-93475498D01*
X119449760Y-93469055D01*
X119487753Y-93465174D01*
X119651516Y-93410908D01*
X119798350Y-93320340D01*
X119912675Y-93206014D01*
X119973994Y-93172532D01*
X120043686Y-93177516D01*
X120088034Y-93206017D01*
X120201961Y-93319944D01*
X120201965Y-93319947D01*
X120348688Y-93410448D01*
X120348699Y-93410453D01*
X120512347Y-93464680D01*
X120613351Y-93474999D01*
X121162500Y-93474999D01*
X121211640Y-93474999D01*
X121211654Y-93474998D01*
X121312652Y-93464680D01*
X121476300Y-93410453D01*
X121476311Y-93410448D01*
X121623034Y-93319947D01*
X121623038Y-93319944D01*
X121744944Y-93198038D01*
X121744947Y-93198034D01*
X121835448Y-93051311D01*
X121835453Y-93051300D01*
X121889680Y-92887652D01*
X121899999Y-92786654D01*
X121900000Y-92786641D01*
X121900000Y-92750000D01*
X121162500Y-92750000D01*
X121162500Y-93474999D01*
X120613351Y-93474999D01*
X120662499Y-93474998D01*
X120662500Y-93474998D01*
X120662500Y-92250000D01*
X121162500Y-92250000D01*
X121899999Y-92250000D01*
X121899999Y-92213360D01*
X121899998Y-92213345D01*
X121889680Y-92112347D01*
X121835453Y-91948699D01*
X121835448Y-91948688D01*
X121744947Y-91801965D01*
X121744944Y-91801961D01*
X121623038Y-91680055D01*
X121623034Y-91680052D01*
X121476311Y-91589551D01*
X121476300Y-91589546D01*
X121312652Y-91535319D01*
X121211654Y-91525000D01*
X121162500Y-91525000D01*
X121162500Y-92250000D01*
X120662500Y-92250000D01*
X120662500Y-91525000D01*
X120662499Y-91524999D01*
X120613361Y-91525000D01*
X120613343Y-91525001D01*
X120512347Y-91535319D01*
X120348699Y-91589546D01*
X120348688Y-91589551D01*
X120201965Y-91680052D01*
X120088034Y-91793983D01*
X120083906Y-91796236D01*
X120081356Y-91800187D01*
X120053533Y-91812821D01*
X120026711Y-91827467D01*
X120022020Y-91827131D01*
X120017738Y-91829076D01*
X119987503Y-91824663D01*
X119957019Y-91822483D01*
X119951962Y-91819475D01*
X119948601Y-91818985D01*
X119933680Y-91808601D01*
X119918951Y-91799841D01*
X119915714Y-91797024D01*
X119798350Y-91679660D01*
X119738260Y-91642596D01*
X119730598Y-91635928D01*
X119717025Y-91614708D01*
X119700178Y-91595978D01*
X119697496Y-91584178D01*
X119692949Y-91577069D01*
X119692976Y-91564286D01*
X119688000Y-91542388D01*
X119688000Y-89457610D01*
X119707685Y-89390571D01*
X119746901Y-89352073D01*
X119798350Y-89320340D01*
X119912319Y-89206371D01*
X119973642Y-89172886D01*
X120043334Y-89177870D01*
X120087681Y-89206371D01*
X120201650Y-89320340D01*
X120348484Y-89410908D01*
X120512247Y-89465174D01*
X120613323Y-89475500D01*
X121211676Y-89475499D01*
X121211684Y-89475498D01*
X121211687Y-89475498D01*
X121267030Y-89469844D01*
X121312753Y-89465174D01*
X121476516Y-89410908D01*
X121623350Y-89320340D01*
X121745340Y-89198350D01*
X121769362Y-89159404D01*
X121821310Y-89112679D01*
X121874901Y-89100500D01*
X122297252Y-89100500D01*
X122364291Y-89120185D01*
X122384933Y-89136819D01*
X124260530Y-91012416D01*
X124294015Y-91073739D01*
X124296849Y-91100097D01*
X124296849Y-92100001D01*
X124296850Y-92100019D01*
X124307349Y-92202796D01*
X124307350Y-92202799D01*
X124362534Y-92369331D01*
X124362536Y-92369336D01*
X124454638Y-92518657D01*
X124560530Y-92624549D01*
X124594015Y-92685872D01*
X124596849Y-92712230D01*
X124596849Y-107695890D01*
X124596849Y-107695892D01*
X124596848Y-107695892D01*
X124635296Y-107889178D01*
X124635299Y-107889188D01*
X124710713Y-108071256D01*
X124710720Y-108071269D01*
X124820208Y-108235129D01*
X124820209Y-108235130D01*
X124820210Y-108235131D01*
X124959567Y-108374488D01*
X124959568Y-108374488D01*
X124966635Y-108381555D01*
X124966634Y-108381555D01*
X124966638Y-108381558D01*
X126194158Y-109609078D01*
X126227643Y-109670401D01*
X126223519Y-109737713D01*
X126189684Y-109834406D01*
X126129688Y-110097268D01*
X126129686Y-110097280D01*
X126099500Y-110365186D01*
X126099500Y-110634813D01*
X126129686Y-110902719D01*
X126129688Y-110902731D01*
X126189684Y-111165594D01*
X126189687Y-111165602D01*
X126278734Y-111420082D01*
X126395714Y-111662994D01*
X126395716Y-111662997D01*
X126539162Y-111891289D01*
X126707266Y-112102085D01*
X126897915Y-112292734D01*
X127108711Y-112460838D01*
X127337003Y-112604284D01*
X127579921Y-112721267D01*
X127771049Y-112788145D01*
X127834397Y-112810312D01*
X127834405Y-112810315D01*
X127834408Y-112810315D01*
X127834409Y-112810316D01*
X128097268Y-112870312D01*
X128365187Y-112900499D01*
X128365188Y-112900500D01*
X128365191Y-112900500D01*
X128634812Y-112900500D01*
X128634812Y-112900499D01*
X128902732Y-112870312D01*
X129165591Y-112810316D01*
X129420079Y-112721267D01*
X129662997Y-112604284D01*
X129891289Y-112460838D01*
X130102085Y-112292734D01*
X130292734Y-112102085D01*
X130460838Y-111891289D01*
X130604284Y-111662997D01*
X130721267Y-111420079D01*
X130810316Y-111165591D01*
X130870312Y-110902732D01*
X130900500Y-110634809D01*
X130900500Y-110365191D01*
X130870312Y-110097268D01*
X130810316Y-109834409D01*
X130721267Y-109579921D01*
X130604284Y-109337003D01*
X130460838Y-109108711D01*
X130292734Y-108897915D01*
X130169802Y-108774983D01*
X137899500Y-108774983D01*
X137899500Y-110125001D01*
X137899501Y-110125018D01*
X137910000Y-110227796D01*
X137910001Y-110227799D01*
X137965185Y-110394331D01*
X137965187Y-110394336D01*
X137988870Y-110432732D01*
X138057288Y-110543656D01*
X138181344Y-110667712D01*
X138330666Y-110759814D01*
X138497203Y-110814999D01*
X138599991Y-110825500D01*
X139400008Y-110825499D01*
X139400016Y-110825498D01*
X139400019Y-110825498D01*
X139456302Y-110819748D01*
X139502797Y-110814999D01*
X139669334Y-110759814D01*
X139818656Y-110667712D01*
X139942712Y-110543656D01*
X139982310Y-110479456D01*
X140034258Y-110432732D01*
X140103220Y-110421509D01*
X140167303Y-110449352D01*
X140175530Y-110456872D01*
X140283072Y-110564414D01*
X140423212Y-110666232D01*
X140577555Y-110744873D01*
X140742299Y-110798402D01*
X140913389Y-110825500D01*
X140913390Y-110825500D01*
X141086610Y-110825500D01*
X141086611Y-110825500D01*
X141257701Y-110798402D01*
X141422445Y-110744873D01*
X141422469Y-110744860D01*
X141426436Y-110743218D01*
X141495905Y-110735743D01*
X141505967Y-110737994D01*
X141645943Y-110775501D01*
X141645946Y-110775501D01*
X141811653Y-110775501D01*
X141811669Y-110775500D01*
X148238331Y-110775500D01*
X148238347Y-110775501D01*
X148245943Y-110775501D01*
X148404054Y-110775501D01*
X148404057Y-110775501D01*
X148556785Y-110734577D01*
X148606904Y-110705639D01*
X148693716Y-110655520D01*
X148805520Y-110543716D01*
X148805520Y-110543714D01*
X148815728Y-110533507D01*
X148815730Y-110533504D01*
X149006319Y-110342914D01*
X149067640Y-110309431D01*
X149132315Y-110312665D01*
X149242299Y-110348402D01*
X149413389Y-110375500D01*
X149413390Y-110375500D01*
X149586610Y-110375500D01*
X149586611Y-110375500D01*
X149757701Y-110348402D01*
X149922445Y-110294873D01*
X150076788Y-110216232D01*
X150216928Y-110114414D01*
X150339414Y-109991928D01*
X150441232Y-109851788D01*
X150519873Y-109697445D01*
X150573402Y-109532701D01*
X150600500Y-109361611D01*
X150600500Y-108638389D01*
X150573402Y-108467299D01*
X150519873Y-108302555D01*
X150441232Y-108148212D01*
X150339414Y-108008072D01*
X150216928Y-107885586D01*
X150076788Y-107783768D01*
X149922445Y-107705127D01*
X149757701Y-107651598D01*
X149757699Y-107651597D01*
X149757698Y-107651597D01*
X149626271Y-107630781D01*
X149586611Y-107624500D01*
X149413389Y-107624500D01*
X149373728Y-107630781D01*
X149242302Y-107651597D01*
X149077552Y-107705128D01*
X148923211Y-107783768D01*
X148783073Y-107885585D01*
X148675530Y-107993128D01*
X148614207Y-108026612D01*
X148544515Y-108021628D01*
X148488582Y-107979756D01*
X148482310Y-107970543D01*
X148454054Y-107924733D01*
X148442712Y-107906344D01*
X148318656Y-107782288D01*
X148193559Y-107705128D01*
X148169336Y-107690187D01*
X148169331Y-107690185D01*
X148132701Y-107678047D01*
X148002797Y-107635001D01*
X148002795Y-107635000D01*
X147900010Y-107624500D01*
X147099998Y-107624500D01*
X147099980Y-107624501D01*
X146997203Y-107635000D01*
X146997200Y-107635001D01*
X146896999Y-107668205D01*
X146857995Y-107674499D01*
X146688347Y-107674499D01*
X146688331Y-107674500D01*
X140261669Y-107674500D01*
X140261653Y-107674499D01*
X140254057Y-107674499D01*
X140095943Y-107674499D01*
X140016105Y-107695892D01*
X139943210Y-107715424D01*
X139943209Y-107715425D01*
X139893096Y-107744359D01*
X139893095Y-107744360D01*
X139849689Y-107769420D01*
X139806285Y-107794479D01*
X139806282Y-107794481D01*
X139715179Y-107885585D01*
X139694480Y-107906284D01*
X139694478Y-107906286D01*
X139621280Y-107979484D01*
X139556226Y-108044538D01*
X139494903Y-108078022D01*
X139455943Y-108080214D01*
X139400011Y-108074500D01*
X138599998Y-108074500D01*
X138599980Y-108074501D01*
X138497203Y-108085000D01*
X138497200Y-108085001D01*
X138330668Y-108140185D01*
X138330663Y-108140187D01*
X138181342Y-108232289D01*
X138057289Y-108356342D01*
X137965187Y-108505663D01*
X137965185Y-108505668D01*
X137937349Y-108589670D01*
X137910001Y-108672203D01*
X137910001Y-108672204D01*
X137910000Y-108672204D01*
X137899500Y-108774983D01*
X130169802Y-108774983D01*
X130102085Y-108707266D01*
X129891289Y-108539162D01*
X129662997Y-108395716D01*
X129662994Y-108395714D01*
X129420082Y-108278734D01*
X129165602Y-108189687D01*
X129165594Y-108189684D01*
X128998814Y-108151618D01*
X128969339Y-108144890D01*
X128908362Y-108110782D01*
X128875504Y-108049121D01*
X128881199Y-107979484D01*
X128923639Y-107923980D01*
X128989349Y-107900232D01*
X128996933Y-107900000D01*
X129704706Y-107900000D01*
X129704719Y-107899999D01*
X129837906Y-107889517D01*
X129837912Y-107889516D01*
X130057829Y-107834101D01*
X130057832Y-107834100D01*
X130264330Y-107740304D01*
X130264336Y-107740301D01*
X130450758Y-107611148D01*
X130450770Y-107611138D01*
X130611138Y-107450770D01*
X130611148Y-107450758D01*
X130740301Y-107264336D01*
X130740304Y-107264330D01*
X130834100Y-107057832D01*
X130834101Y-107057829D01*
X130889516Y-106837912D01*
X130889517Y-106837906D01*
X130899999Y-106704719D01*
X130900000Y-106704706D01*
X130900000Y-105750000D01*
X129827231Y-105750000D01*
X129850000Y-105606247D01*
X129850000Y-105393753D01*
X129827231Y-105250000D01*
X130900000Y-105250000D01*
X130900000Y-104295293D01*
X130899999Y-104295280D01*
X130889517Y-104162093D01*
X130889516Y-104162087D01*
X130834101Y-103942170D01*
X130834100Y-103942167D01*
X130740304Y-103735669D01*
X130740301Y-103735663D01*
X130611148Y-103549241D01*
X130611138Y-103549229D01*
X130450770Y-103388861D01*
X130450758Y-103388851D01*
X130264336Y-103259698D01*
X130264330Y-103259695D01*
X130057832Y-103165899D01*
X130057829Y-103165898D01*
X129837912Y-103110483D01*
X129837906Y-103110482D01*
X129704719Y-103100000D01*
X128750000Y-103100000D01*
X128750000Y-104172768D01*
X128606247Y-104150000D01*
X128393753Y-104150000D01*
X128250000Y-104172768D01*
X128250000Y-103100000D01*
X127295280Y-103100000D01*
X127162093Y-103110482D01*
X127162087Y-103110483D01*
X126942170Y-103165898D01*
X126942167Y-103165899D01*
X126773130Y-103242679D01*
X126703951Y-103252482D01*
X126640455Y-103223327D01*
X126602801Y-103164472D01*
X126597849Y-103129780D01*
X126597849Y-93746446D01*
X126617534Y-93679407D01*
X126670338Y-93633652D01*
X126739496Y-93623708D01*
X126803052Y-93652733D01*
X126809530Y-93658765D01*
X130207017Y-97056252D01*
X130240502Y-97117575D01*
X130235518Y-97187267D01*
X130207018Y-97231614D01*
X130107287Y-97331345D01*
X130015187Y-97480663D01*
X130015186Y-97480666D01*
X129960001Y-97647203D01*
X129960001Y-97647204D01*
X129960000Y-97647204D01*
X129949500Y-97749983D01*
X129949500Y-98450001D01*
X129949501Y-98450019D01*
X129960000Y-98552796D01*
X129960001Y-98552799D01*
X130015185Y-98719331D01*
X130015186Y-98719334D01*
X130107288Y-98868656D01*
X130231344Y-98992712D01*
X130380666Y-99084814D01*
X130547203Y-99139999D01*
X130649991Y-99150500D01*
X131035218Y-99150499D01*
X131102256Y-99170183D01*
X131148011Y-99222987D01*
X131157955Y-99292146D01*
X131128930Y-99355701D01*
X131122898Y-99362180D01*
X130665132Y-99819946D01*
X130603809Y-99853431D01*
X130590054Y-99855623D01*
X130547205Y-99860000D01*
X130547204Y-99860000D01*
X130547203Y-99860001D01*
X130464670Y-99887349D01*
X130380668Y-99915185D01*
X130380663Y-99915187D01*
X130231342Y-100007289D01*
X130107289Y-100131342D01*
X130015187Y-100280663D01*
X130015185Y-100280668D01*
X129988479Y-100361261D01*
X129960001Y-100447203D01*
X129960001Y-100447204D01*
X129960000Y-100447204D01*
X129949500Y-100549983D01*
X129949500Y-101250001D01*
X129949501Y-101250019D01*
X129960000Y-101352796D01*
X129960001Y-101352799D01*
X130015185Y-101519331D01*
X130015186Y-101519334D01*
X130107288Y-101668656D01*
X130231344Y-101792712D01*
X130380666Y-101884814D01*
X130547203Y-101939999D01*
X130607524Y-101946161D01*
X130672215Y-101972556D01*
X130682603Y-101981838D01*
X133525092Y-104824327D01*
X133558577Y-104885650D01*
X133555117Y-104951012D01*
X133534826Y-105012245D01*
X133524500Y-105113315D01*
X133524500Y-105711669D01*
X133524501Y-105711687D01*
X133534825Y-105812752D01*
X133589092Y-105976515D01*
X133589093Y-105976518D01*
X133611596Y-106013001D01*
X133679660Y-106123350D01*
X133801650Y-106245340D01*
X133948484Y-106335908D01*
X134112247Y-106390174D01*
X134213323Y-106400500D01*
X134786676Y-106400499D01*
X134786684Y-106400498D01*
X134786687Y-106400498D01*
X134842030Y-106394844D01*
X134887753Y-106390174D01*
X135051516Y-106335908D01*
X135198350Y-106245340D01*
X135320340Y-106123350D01*
X135352072Y-106071904D01*
X135404020Y-106025179D01*
X135457611Y-106013000D01*
X142500831Y-106013000D01*
X142500847Y-106013001D01*
X142508443Y-106013001D01*
X142666554Y-106013001D01*
X142666557Y-106013001D01*
X142819285Y-105972077D01*
X142869404Y-105943139D01*
X142956216Y-105893020D01*
X143068020Y-105781216D01*
X143068020Y-105781214D01*
X143078228Y-105771007D01*
X143078230Y-105771004D01*
X144139169Y-104710064D01*
X144200490Y-104676581D01*
X144246246Y-104675274D01*
X144405514Y-104700500D01*
X144405519Y-104700500D01*
X144594486Y-104700500D01*
X144781118Y-104670940D01*
X144811753Y-104660986D01*
X144960832Y-104612547D01*
X145129199Y-104526760D01*
X145132746Y-104524183D01*
X145198552Y-104500702D01*
X145205633Y-104500500D01*
X145794367Y-104500500D01*
X145861406Y-104520185D01*
X145867254Y-104524183D01*
X145870799Y-104526759D01*
X146039163Y-104612545D01*
X146039165Y-104612545D01*
X146039168Y-104612547D01*
X146135497Y-104643846D01*
X146218881Y-104670940D01*
X146405514Y-104700500D01*
X146405519Y-104700500D01*
X146594486Y-104700500D01*
X146781118Y-104670940D01*
X146811753Y-104660986D01*
X146960832Y-104612547D01*
X147129199Y-104526760D01*
X147282073Y-104415690D01*
X147415690Y-104282073D01*
X147510475Y-104151613D01*
X147565804Y-104108949D01*
X147610792Y-104100500D01*
X153739868Y-104100500D01*
X153804963Y-104118960D01*
X153830666Y-104134814D01*
X153997203Y-104189999D01*
X154099991Y-104200500D01*
X154900008Y-104200499D01*
X154900016Y-104200498D01*
X154900019Y-104200498D01*
X154956302Y-104194748D01*
X155002797Y-104189999D01*
X155169334Y-104134814D01*
X155318656Y-104042712D01*
X155412319Y-103949049D01*
X155473642Y-103915564D01*
X155543334Y-103920548D01*
X155587681Y-103949049D01*
X155681344Y-104042712D01*
X155830666Y-104134814D01*
X155997203Y-104189999D01*
X156099991Y-104200500D01*
X156900008Y-104200499D01*
X156900016Y-104200498D01*
X156900019Y-104200498D01*
X156956302Y-104194748D01*
X157002797Y-104189999D01*
X157169334Y-104134814D01*
X157318656Y-104042712D01*
X157442712Y-103918656D01*
X157534814Y-103769334D01*
X157589999Y-103602797D01*
X157600500Y-103500009D01*
X157600499Y-102499992D01*
X157598029Y-102475817D01*
X157589999Y-102397203D01*
X157589998Y-102397200D01*
X157586768Y-102387453D01*
X157534814Y-102230666D01*
X157442712Y-102081344D01*
X157318656Y-101957288D01*
X157169334Y-101865186D01*
X157169332Y-101865185D01*
X157163187Y-101861395D01*
X157164290Y-101859605D01*
X157119649Y-101820290D01*
X157100500Y-101754091D01*
X157100500Y-93610065D01*
X157120185Y-93543026D01*
X157172989Y-93497271D01*
X157238384Y-93486845D01*
X157251557Y-93488329D01*
X157359571Y-93500499D01*
X157359572Y-93500500D01*
X157359575Y-93500500D01*
X157640428Y-93500500D01*
X157640429Y-93500499D01*
X157783055Y-93484429D01*
X157919494Y-93469057D01*
X157919499Y-93469056D01*
X157919509Y-93469055D01*
X158193318Y-93406560D01*
X158458408Y-93313801D01*
X158711445Y-93191945D01*
X158949248Y-93042523D01*
X159168825Y-92867416D01*
X159367416Y-92668825D01*
X159542523Y-92449248D01*
X159691945Y-92211445D01*
X159813801Y-91958408D01*
X159906560Y-91693318D01*
X159969055Y-91419509D01*
X159971515Y-91397682D01*
X159996050Y-91179920D01*
X160000500Y-91140425D01*
X160000500Y-90859575D01*
X159974709Y-90630668D01*
X159969057Y-90580505D01*
X159969054Y-90580487D01*
X159906560Y-90306682D01*
X159906556Y-90306670D01*
X159872730Y-90210001D01*
X159813801Y-90041592D01*
X159691945Y-89788555D01*
X159542523Y-89550752D01*
X159367416Y-89331175D01*
X159168825Y-89132584D01*
X158949248Y-88957477D01*
X158711445Y-88808055D01*
X158711442Y-88808053D01*
X158458411Y-88686200D01*
X158329355Y-88641041D01*
X158272579Y-88600319D01*
X158246832Y-88535367D01*
X158260288Y-88466805D01*
X158308676Y-88416402D01*
X158370310Y-88400000D01*
X158704706Y-88400000D01*
X158704719Y-88399999D01*
X158837906Y-88389517D01*
X158837912Y-88389516D01*
X159057829Y-88334101D01*
X159057832Y-88334100D01*
X159264330Y-88240304D01*
X159264336Y-88240301D01*
X159450758Y-88111148D01*
X159450770Y-88111138D01*
X159611138Y-87950770D01*
X159611148Y-87950758D01*
X159740301Y-87764336D01*
X159740304Y-87764330D01*
X159834100Y-87557832D01*
X159834101Y-87557829D01*
X159889516Y-87337912D01*
X159889517Y-87337906D01*
X159899999Y-87204719D01*
X159900000Y-87204706D01*
X159900000Y-86250000D01*
X158827231Y-86250000D01*
X158850000Y-86106247D01*
X158850000Y-85893753D01*
X158827231Y-85750000D01*
X159900000Y-85750000D01*
X159900000Y-84795293D01*
X159899999Y-84795280D01*
X159889517Y-84662093D01*
X159889516Y-84662087D01*
X159834101Y-84442170D01*
X159834100Y-84442167D01*
X159740304Y-84235669D01*
X159740301Y-84235663D01*
X159611148Y-84049241D01*
X159611138Y-84049229D01*
X159450770Y-83888861D01*
X159450758Y-83888851D01*
X159264336Y-83759698D01*
X159264330Y-83759695D01*
X159057832Y-83665899D01*
X159057829Y-83665898D01*
X158837912Y-83610483D01*
X158837906Y-83610482D01*
X158704719Y-83600000D01*
X157750000Y-83600000D01*
X157750000Y-84672768D01*
X157606247Y-84650000D01*
X157393753Y-84650000D01*
X157250000Y-84672768D01*
X157250000Y-83600000D01*
X156295280Y-83600000D01*
X156162093Y-83610482D01*
X156162087Y-83610483D01*
X155942170Y-83665898D01*
X155942167Y-83665899D01*
X155735669Y-83759695D01*
X155735663Y-83759698D01*
X155549241Y-83888851D01*
X155549229Y-83888861D01*
X155388861Y-84049229D01*
X155388851Y-84049241D01*
X155259698Y-84235663D01*
X155259695Y-84235669D01*
X155165899Y-84442167D01*
X155165898Y-84442170D01*
X155110483Y-84662087D01*
X155110482Y-84662093D01*
X155100000Y-84795280D01*
X155100000Y-85750000D01*
X156172769Y-85750000D01*
X156150000Y-85893753D01*
X156150000Y-86106247D01*
X156172769Y-86250000D01*
X155100000Y-86250000D01*
X155100000Y-86885718D01*
X155080315Y-86952757D01*
X155027511Y-86998512D01*
X154958353Y-87008456D01*
X154894797Y-86979431D01*
X154888319Y-86973399D01*
X150586819Y-82671899D01*
X150553334Y-82610576D01*
X150550500Y-82584218D01*
X150550500Y-81677753D01*
X150570185Y-81610714D01*
X150622989Y-81564959D01*
X150692147Y-81555015D01*
X150739597Y-81572215D01*
X150880869Y-81659353D01*
X150880880Y-81659358D01*
X151047302Y-81714505D01*
X151047309Y-81714506D01*
X151150019Y-81724999D01*
X151700000Y-81724999D01*
X151749972Y-81724999D01*
X151749986Y-81724998D01*
X151852697Y-81714505D01*
X152019119Y-81659358D01*
X152019124Y-81659356D01*
X152168345Y-81567315D01*
X152292315Y-81443345D01*
X152384356Y-81294124D01*
X152384358Y-81294119D01*
X152439505Y-81127697D01*
X152439506Y-81127690D01*
X152449999Y-81024986D01*
X152450000Y-81024973D01*
X152450000Y-80750000D01*
X151700000Y-80750000D01*
X151700000Y-81724999D01*
X151150019Y-81724999D01*
X151199999Y-81724998D01*
X151200000Y-81724998D01*
X151200000Y-80250000D01*
X151700000Y-80250000D01*
X152449999Y-80250000D01*
X152449999Y-79975028D01*
X152449998Y-79975013D01*
X152439505Y-79872302D01*
X152384358Y-79705880D01*
X152384356Y-79705875D01*
X152292315Y-79556654D01*
X152168345Y-79432684D01*
X152019124Y-79340643D01*
X152019119Y-79340641D01*
X151852697Y-79285494D01*
X151852690Y-79285493D01*
X151749986Y-79275000D01*
X151700000Y-79275000D01*
X151700000Y-80250000D01*
X151200000Y-80250000D01*
X151200000Y-79275000D01*
X151199999Y-79274999D01*
X151150029Y-79275000D01*
X151150011Y-79275001D01*
X151047302Y-79285494D01*
X150880880Y-79340641D01*
X150880875Y-79340643D01*
X150731654Y-79432684D01*
X150607683Y-79556655D01*
X150607679Y-79556660D01*
X150605826Y-79559665D01*
X150604018Y-79561290D01*
X150603202Y-79562323D01*
X150603025Y-79562183D01*
X150553874Y-79606385D01*
X150484911Y-79617601D01*
X150420831Y-79589752D01*
X150394753Y-79559653D01*
X150394737Y-79559628D01*
X150392712Y-79556344D01*
X150268656Y-79432288D01*
X150147977Y-79357853D01*
X150119336Y-79340187D01*
X150119331Y-79340185D01*
X150115145Y-79338798D01*
X149952797Y-79285001D01*
X149952795Y-79285000D01*
X149850010Y-79274500D01*
X149249998Y-79274500D01*
X149249980Y-79274501D01*
X149147203Y-79285000D01*
X149147200Y-79285001D01*
X148980668Y-79340185D01*
X148980663Y-79340187D01*
X148831342Y-79432289D01*
X148800451Y-79463181D01*
X148739128Y-79496666D01*
X148712770Y-79499500D01*
X145624809Y-79499500D01*
X145557770Y-79479815D01*
X145512015Y-79427011D01*
X145502071Y-79357853D01*
X145531096Y-79294297D01*
X145537128Y-79287819D01*
X145573076Y-79251870D01*
X145573081Y-79251865D01*
X145656744Y-79110398D01*
X145702598Y-78952569D01*
X145705500Y-78915694D01*
X145705500Y-78690783D01*
X145725185Y-78623744D01*
X145741820Y-78603101D01*
X145777136Y-78567785D01*
X145777139Y-78567782D01*
X145886632Y-78403914D01*
X145962051Y-78221835D01*
X146000500Y-78028541D01*
X146000500Y-76893713D01*
X161149500Y-76893713D01*
X161149500Y-77106286D01*
X161182753Y-77316239D01*
X161248444Y-77518414D01*
X161344951Y-77707820D01*
X161469890Y-77879786D01*
X161620213Y-78030109D01*
X161792179Y-78155048D01*
X161792181Y-78155049D01*
X161792184Y-78155051D01*
X161981588Y-78251557D01*
X162183757Y-78317246D01*
X162393713Y-78350500D01*
X162393714Y-78350500D01*
X162606286Y-78350500D01*
X162606287Y-78350500D01*
X162816243Y-78317246D01*
X163018412Y-78251557D01*
X163207816Y-78155051D01*
X163229789Y-78139086D01*
X163379786Y-78030109D01*
X163379788Y-78030106D01*
X163379792Y-78030104D01*
X163530104Y-77879792D01*
X163530106Y-77879788D01*
X163530109Y-77879786D01*
X163655048Y-77707820D01*
X163655047Y-77707820D01*
X163655051Y-77707816D01*
X163751557Y-77518412D01*
X163817246Y-77316243D01*
X163850500Y-77106287D01*
X163850500Y-76893713D01*
X163817246Y-76683757D01*
X163751557Y-76481588D01*
X163655051Y-76292184D01*
X163655049Y-76292181D01*
X163655048Y-76292179D01*
X163530109Y-76120213D01*
X163379786Y-75969890D01*
X163207820Y-75844951D01*
X163018414Y-75748444D01*
X163018413Y-75748443D01*
X163018412Y-75748443D01*
X162816243Y-75682754D01*
X162816241Y-75682753D01*
X162816240Y-75682753D01*
X162654957Y-75657208D01*
X162606287Y-75649500D01*
X162393713Y-75649500D01*
X162345042Y-75657208D01*
X162183760Y-75682753D01*
X161981585Y-75748444D01*
X161792179Y-75844951D01*
X161620213Y-75969890D01*
X161469890Y-76120213D01*
X161344951Y-76292179D01*
X161248444Y-76481585D01*
X161182753Y-76683760D01*
X161149500Y-76893713D01*
X146000500Y-76893713D01*
X146000500Y-75401459D01*
X146000500Y-75401456D01*
X145962052Y-75208170D01*
X145962051Y-75208169D01*
X145962051Y-75208165D01*
X145962049Y-75208160D01*
X145886635Y-75026092D01*
X145886628Y-75026079D01*
X145777139Y-74862218D01*
X145777136Y-74862214D01*
X145637785Y-74722863D01*
X145637781Y-74722860D01*
X145473920Y-74613371D01*
X145473907Y-74613364D01*
X145291839Y-74537950D01*
X145291829Y-74537947D01*
X145098543Y-74499500D01*
X145098541Y-74499500D01*
X144901459Y-74499500D01*
X144901457Y-74499500D01*
X144708170Y-74537947D01*
X144708160Y-74537950D01*
X144526092Y-74613364D01*
X144526079Y-74613371D01*
X144362218Y-74722860D01*
X144362214Y-74722863D01*
X144222863Y-74862214D01*
X144222860Y-74862218D01*
X144113371Y-75026079D01*
X144113364Y-75026092D01*
X144037950Y-75208160D01*
X144037947Y-75208170D01*
X143999500Y-75401456D01*
X143999500Y-76427564D01*
X143979815Y-76494603D01*
X143927011Y-76540358D01*
X143891592Y-76546611D01*
X143885000Y-76552703D01*
X143885000Y-77901000D01*
X143865315Y-77968039D01*
X143812511Y-78013794D01*
X143761000Y-78025000D01*
X143509000Y-78025000D01*
X143441961Y-78005315D01*
X143396206Y-77952511D01*
X143385000Y-77901000D01*
X143385000Y-76552703D01*
X143382503Y-76552900D01*
X143224806Y-76598716D01*
X143224803Y-76598717D01*
X143083449Y-76682313D01*
X143077283Y-76687097D01*
X143075389Y-76684655D01*
X143026580Y-76711239D01*
X142956894Y-76706179D01*
X142924227Y-76685159D01*
X142923031Y-76686702D01*
X142916862Y-76681917D01*
X142838681Y-76635681D01*
X142775398Y-76598256D01*
X142775397Y-76598255D01*
X142775396Y-76598255D01*
X142775393Y-76598254D01*
X142617573Y-76552402D01*
X142617567Y-76552401D01*
X142580701Y-76549500D01*
X142580694Y-76549500D01*
X142149306Y-76549500D01*
X142149298Y-76549500D01*
X142112432Y-76552401D01*
X142112426Y-76552402D01*
X141954606Y-76598254D01*
X141954603Y-76598255D01*
X141813140Y-76681915D01*
X141806974Y-76686699D01*
X141805174Y-76684379D01*
X141755913Y-76711230D01*
X141686225Y-76706193D01*
X141653992Y-76685461D01*
X141652722Y-76687100D01*
X141646552Y-76682314D01*
X141505196Y-76598717D01*
X141505193Y-76598716D01*
X141347494Y-76552900D01*
X141347497Y-76552900D01*
X141345000Y-76552703D01*
X141345000Y-77901000D01*
X141325315Y-77968039D01*
X141272511Y-78013794D01*
X141221000Y-78025000D01*
X141095000Y-78025000D01*
X141095000Y-78151000D01*
X141075315Y-78218039D01*
X141022511Y-78263794D01*
X140971000Y-78275000D01*
X140295000Y-78275000D01*
X140295000Y-78915649D01*
X140297899Y-78952489D01*
X140297900Y-78952495D01*
X140343716Y-79110193D01*
X140343717Y-79110196D01*
X140427314Y-79251552D01*
X140427321Y-79251561D01*
X140543438Y-79367678D01*
X140543447Y-79367685D01*
X140684802Y-79451282D01*
X140777659Y-79478259D01*
X140836545Y-79515866D01*
X140865752Y-79579338D01*
X140856006Y-79648525D01*
X140830746Y-79685017D01*
X140152583Y-80363181D01*
X140091260Y-80396666D01*
X140064902Y-80399500D01*
X135737401Y-80399500D01*
X135670362Y-80379815D01*
X135631862Y-80340596D01*
X135607840Y-80301650D01*
X135485851Y-80179661D01*
X135485850Y-80179660D01*
X135394629Y-80123395D01*
X135339018Y-80089093D01*
X135339013Y-80089091D01*
X135337569Y-80088612D01*
X135175253Y-80034826D01*
X135175251Y-80034825D01*
X135074178Y-80024500D01*
X134375830Y-80024500D01*
X134375812Y-80024501D01*
X134274747Y-80034825D01*
X134110984Y-80089092D01*
X134110981Y-80089093D01*
X133964148Y-80179661D01*
X133949825Y-80193984D01*
X133888501Y-80227468D01*
X133818809Y-80222482D01*
X133774465Y-80193982D01*
X133760538Y-80180055D01*
X133760534Y-80180052D01*
X133613811Y-80089551D01*
X133613800Y-80089546D01*
X133450152Y-80035319D01*
X133349154Y-80025000D01*
X133250000Y-80025000D01*
X133250000Y-81974999D01*
X133349140Y-81974999D01*
X133349154Y-81974998D01*
X133450152Y-81964680D01*
X133613800Y-81910453D01*
X133613811Y-81910448D01*
X133760535Y-81819947D01*
X133774460Y-81806021D01*
X133835782Y-81772533D01*
X133905473Y-81777514D01*
X133949827Y-81806017D01*
X133964150Y-81820340D01*
X134110984Y-81910908D01*
X134274747Y-81965174D01*
X134375823Y-81975500D01*
X135074176Y-81975499D01*
X135074184Y-81975498D01*
X135074187Y-81975498D01*
X135129530Y-81969844D01*
X135175253Y-81965174D01*
X135339016Y-81910908D01*
X135485850Y-81820340D01*
X135607840Y-81698350D01*
X135631862Y-81659404D01*
X135683810Y-81612679D01*
X135737401Y-81600500D01*
X140278330Y-81600500D01*
X140278346Y-81600501D01*
X140296834Y-81600501D01*
X140363873Y-81620186D01*
X140409628Y-81672990D01*
X140419572Y-81742148D01*
X140403566Y-81787621D01*
X140343257Y-81889599D01*
X140343254Y-81889606D01*
X140297402Y-82047426D01*
X140297401Y-82047432D01*
X140294500Y-82084298D01*
X140294500Y-82250500D01*
X140274815Y-82317539D01*
X140222011Y-82363294D01*
X140170500Y-82374500D01*
X124699169Y-82374500D01*
X124699153Y-82374499D01*
X124691557Y-82374499D01*
X124533443Y-82374499D01*
X124426087Y-82403265D01*
X124380710Y-82415424D01*
X124380709Y-82415425D01*
X124330596Y-82444359D01*
X124330595Y-82444360D01*
X124287189Y-82469420D01*
X124243785Y-82494479D01*
X124243782Y-82494481D01*
X124131978Y-82606286D01*
X119250082Y-87488181D01*
X119188759Y-87521666D01*
X119162401Y-87524500D01*
X118788330Y-87524500D01*
X118788312Y-87524501D01*
X118687247Y-87534825D01*
X118523484Y-87589092D01*
X118523481Y-87589093D01*
X118376648Y-87679661D01*
X118254661Y-87801648D01*
X118164093Y-87948481D01*
X118164091Y-87948486D01*
X118157174Y-87969360D01*
X118109826Y-88112247D01*
X118109826Y-88112248D01*
X118109825Y-88112248D01*
X118099500Y-88213315D01*
X114000500Y-88213315D01*
X114000500Y-81286654D01*
X131962501Y-81286654D01*
X131972819Y-81387652D01*
X132027046Y-81551300D01*
X132027051Y-81551311D01*
X132117552Y-81698034D01*
X132117555Y-81698038D01*
X132239461Y-81819944D01*
X132239465Y-81819947D01*
X132386188Y-81910448D01*
X132386199Y-81910453D01*
X132549847Y-81964680D01*
X132650851Y-81974999D01*
X132750000Y-81974998D01*
X132750000Y-81250000D01*
X131962501Y-81250000D01*
X131962501Y-81286654D01*
X114000500Y-81286654D01*
X114000500Y-80713345D01*
X131962500Y-80713345D01*
X131962500Y-80750000D01*
X132750000Y-80750000D01*
X132750000Y-80024999D01*
X132650860Y-80025000D01*
X132650844Y-80025001D01*
X132549847Y-80035319D01*
X132386199Y-80089546D01*
X132386188Y-80089551D01*
X132239465Y-80180052D01*
X132239461Y-80180055D01*
X132117555Y-80301961D01*
X132117552Y-80301965D01*
X132027051Y-80448688D01*
X132027046Y-80448699D01*
X131972819Y-80612347D01*
X131962500Y-80713345D01*
X114000500Y-80713345D01*
X114000500Y-76893713D01*
X117149500Y-76893713D01*
X117149500Y-77106286D01*
X117182753Y-77316239D01*
X117248444Y-77518414D01*
X117344951Y-77707820D01*
X117469890Y-77879786D01*
X117620213Y-78030109D01*
X117792179Y-78155048D01*
X117792181Y-78155049D01*
X117792184Y-78155051D01*
X117981588Y-78251557D01*
X118183757Y-78317246D01*
X118393713Y-78350500D01*
X118393714Y-78350500D01*
X118606286Y-78350500D01*
X118606287Y-78350500D01*
X118816243Y-78317246D01*
X119018412Y-78251557D01*
X119207816Y-78155051D01*
X119229789Y-78139086D01*
X119379786Y-78030109D01*
X119379788Y-78030106D01*
X119379792Y-78030104D01*
X119530104Y-77879792D01*
X119530106Y-77879788D01*
X119530109Y-77879786D01*
X119655048Y-77707820D01*
X119655047Y-77707820D01*
X119655051Y-77707816D01*
X119751557Y-77518412D01*
X119817246Y-77316243D01*
X119846055Y-77134350D01*
X140295000Y-77134350D01*
X140295000Y-77775000D01*
X140845000Y-77775000D01*
X140845000Y-76552703D01*
X140842503Y-76552900D01*
X140684806Y-76598716D01*
X140684803Y-76598717D01*
X140543447Y-76682314D01*
X140543438Y-76682321D01*
X140427321Y-76798438D01*
X140427314Y-76798447D01*
X140343717Y-76939803D01*
X140343716Y-76939806D01*
X140297900Y-77097504D01*
X140297899Y-77097510D01*
X140295000Y-77134350D01*
X119846055Y-77134350D01*
X119850500Y-77106287D01*
X119850500Y-76893713D01*
X119817246Y-76683757D01*
X119751557Y-76481588D01*
X119655051Y-76292184D01*
X119655049Y-76292181D01*
X119655048Y-76292179D01*
X119530109Y-76120213D01*
X119379786Y-75969890D01*
X119207820Y-75844951D01*
X119018414Y-75748444D01*
X119018413Y-75748443D01*
X119018412Y-75748443D01*
X118816243Y-75682754D01*
X118816241Y-75682753D01*
X118816240Y-75682753D01*
X118654957Y-75657208D01*
X118606287Y-75649500D01*
X118393713Y-75649500D01*
X118345042Y-75657208D01*
X118183760Y-75682753D01*
X117981585Y-75748444D01*
X117792179Y-75844951D01*
X117620213Y-75969890D01*
X117469890Y-76120213D01*
X117344951Y-76292179D01*
X117248444Y-76481585D01*
X117182753Y-76683760D01*
X117149500Y-76893713D01*
X114000500Y-76893713D01*
X114000500Y-72624500D01*
X114020185Y-72557461D01*
X114072989Y-72511706D01*
X114124500Y-72500500D01*
X167375500Y-72500500D01*
X167442539Y-72520185D01*
G37*
%TD.AperFunction*%
%TD*%
M02*
