%TF.GenerationSoftware,KiCad,Pcbnew,10.0.6*%
%TF.CreationDate,2026-09-25T15:43:07-05:00*%
%TF.ProjectId,IEEE Onboarding Electrical,49454545-204f-46e6-926f-617264696e67,rev?*%
%TF.SameCoordinates,Original*%
%TF.FileFunction,Legend,Top*%
%TF.FilePolarity,Positive*%
%FSLAX46Y46*%
G04 Gerber Fmt 4.6, Leading zero omitted, Abs format (unit mm)*
G04 Created by KiCad (PCBNEW 10.0.6) date 2026-09-25 15:43:07*
%MOMM*%
%LPD*%
G01*
G04 APERTURE LIST*
G04 Aperture macros list*
%AMRoundRect*
0 Rectangle with rounded corners*
0 $1 Rounding radius*
0 $2 $3 $4 $5 $6 $7 $8 $9 X,Y pos of 4 corners*
0 Add a 4 corners polygon primitive as box body*
4,1,4,$2,$3,$4,$5,$6,$7,$8,$9,$2,$3,0*
0 Add four circle primitives for the rounded corners*
1,1,$1+$1,$2,$3*
1,1,$1+$1,$4,$5*
1,1,$1+$1,$6,$7*
1,1,$1+$1,$8,$9*
0 Add four rect primitives between the rounded corners*
20,1,$1+$1,$2,$3,$4,$5,0*
20,1,$1+$1,$4,$5,$6,$7,0*
20,1,$1+$1,$6,$7,$8,$9,0*
20,1,$1+$1,$8,$9,$2,$3,0*%
G04 Aperture macros list end*
%ADD10C,0.150000*%
%ADD11C,0.254000*%
%ADD12C,0.120000*%
%ADD13C,0.200000*%
%ADD14C,0.100000*%
%ADD15C,3.800000*%
%ADD16RoundRect,0.760000X-1.140000X1.140000X-1.140000X-1.140000X1.140000X-1.140000X1.140000X1.140000X0*%
%ADD17O,1.200000X1.750000*%
%ADD18RoundRect,0.250000X-0.350000X-0.625000X0.350000X-0.625000X0.350000X0.625000X-0.350000X0.625000X0*%
%ADD19RoundRect,0.237500X-0.250000X-0.237500X0.250000X-0.237500X0.250000X0.237500X-0.250000X0.237500X0*%
%ADD20RoundRect,0.237500X0.237500X-0.250000X0.237500X0.250000X-0.237500X0.250000X-0.237500X-0.250000X0*%
%ADD21RoundRect,0.237500X0.250000X0.237500X-0.250000X0.237500X-0.250000X-0.237500X0.250000X-0.237500X0*%
%ADD22RoundRect,0.237500X0.300000X0.237500X-0.300000X0.237500X-0.300000X-0.237500X0.300000X-0.237500X0*%
%ADD23C,1.400000*%
%ADD24RoundRect,0.250000X-0.350000X-0.450000X0.350000X-0.450000X0.350000X0.450000X-0.350000X0.450000X0*%
%ADD25O,1.520000X13.970000*%
%ADD26C,4.000000*%
%ADD27RoundRect,0.150000X-0.150000X0.825000X-0.150000X-0.825000X0.150000X-0.825000X0.150000X0.825000X0*%
%ADD28C,2.200000*%
%ADD29RoundRect,0.250000X-0.300000X0.300000X-0.300000X-0.300000X0.300000X-0.300000X0.300000X0.300000X0*%
%ADD30RoundRect,0.250000X-0.250000X-0.475000X0.250000X-0.475000X0.250000X0.475000X-0.250000X0.475000X0*%
%ADD31RoundRect,0.250000X-0.550000X-0.550000X0.550000X-0.550000X0.550000X0.550000X-0.550000X0.550000X0*%
%ADD32C,1.600000*%
G04 APERTURE END LIST*
D10*
X131954819Y-108333333D02*
X132669104Y-108333333D01*
X132669104Y-108333333D02*
X132811961Y-108380952D01*
X132811961Y-108380952D02*
X132907200Y-108476190D01*
X132907200Y-108476190D02*
X132954819Y-108619047D01*
X132954819Y-108619047D02*
X132954819Y-108714285D01*
X132050057Y-107904761D02*
X132002438Y-107857142D01*
X132002438Y-107857142D02*
X131954819Y-107761904D01*
X131954819Y-107761904D02*
X131954819Y-107523809D01*
X131954819Y-107523809D02*
X132002438Y-107428571D01*
X132002438Y-107428571D02*
X132050057Y-107380952D01*
X132050057Y-107380952D02*
X132145295Y-107333333D01*
X132145295Y-107333333D02*
X132240533Y-107333333D01*
X132240533Y-107333333D02*
X132383390Y-107380952D01*
X132383390Y-107380952D02*
X132954819Y-107952380D01*
X132954819Y-107952380D02*
X132954819Y-107333333D01*
X128614700Y-115071428D02*
X128614700Y-113928571D01*
X129186128Y-114499999D02*
X128043271Y-114499999D01*
X128614700Y-102071428D02*
X128614700Y-100928571D01*
X148166666Y-105554819D02*
X148166666Y-106269104D01*
X148166666Y-106269104D02*
X148119047Y-106411961D01*
X148119047Y-106411961D02*
X148023809Y-106507200D01*
X148023809Y-106507200D02*
X147880952Y-106554819D01*
X147880952Y-106554819D02*
X147785714Y-106554819D01*
X148547619Y-105554819D02*
X149166666Y-105554819D01*
X149166666Y-105554819D02*
X148833333Y-105935771D01*
X148833333Y-105935771D02*
X148976190Y-105935771D01*
X148976190Y-105935771D02*
X149071428Y-105983390D01*
X149071428Y-105983390D02*
X149119047Y-106031009D01*
X149119047Y-106031009D02*
X149166666Y-106126247D01*
X149166666Y-106126247D02*
X149166666Y-106364342D01*
X149166666Y-106364342D02*
X149119047Y-106459580D01*
X149119047Y-106459580D02*
X149071428Y-106507200D01*
X149071428Y-106507200D02*
X148976190Y-106554819D01*
X148976190Y-106554819D02*
X148690476Y-106554819D01*
X148690476Y-106554819D02*
X148595238Y-106507200D01*
X148595238Y-106507200D02*
X148547619Y-106459580D01*
X119833333Y-91524819D02*
X119500000Y-91048628D01*
X119261905Y-91524819D02*
X119261905Y-90524819D01*
X119261905Y-90524819D02*
X119642857Y-90524819D01*
X119642857Y-90524819D02*
X119738095Y-90572438D01*
X119738095Y-90572438D02*
X119785714Y-90620057D01*
X119785714Y-90620057D02*
X119833333Y-90715295D01*
X119833333Y-90715295D02*
X119833333Y-90858152D01*
X119833333Y-90858152D02*
X119785714Y-90953390D01*
X119785714Y-90953390D02*
X119738095Y-91001009D01*
X119738095Y-91001009D02*
X119642857Y-91048628D01*
X119642857Y-91048628D02*
X119261905Y-91048628D01*
X120166667Y-90524819D02*
X120785714Y-90524819D01*
X120785714Y-90524819D02*
X120452381Y-90905771D01*
X120452381Y-90905771D02*
X120595238Y-90905771D01*
X120595238Y-90905771D02*
X120690476Y-90953390D01*
X120690476Y-90953390D02*
X120738095Y-91001009D01*
X120738095Y-91001009D02*
X120785714Y-91096247D01*
X120785714Y-91096247D02*
X120785714Y-91334342D01*
X120785714Y-91334342D02*
X120738095Y-91429580D01*
X120738095Y-91429580D02*
X120690476Y-91477200D01*
X120690476Y-91477200D02*
X120595238Y-91524819D01*
X120595238Y-91524819D02*
X120309524Y-91524819D01*
X120309524Y-91524819D02*
X120214286Y-91477200D01*
X120214286Y-91477200D02*
X120166667Y-91429580D01*
X133524819Y-104666666D02*
X133048628Y-104999999D01*
X133524819Y-105238094D02*
X132524819Y-105238094D01*
X132524819Y-105238094D02*
X132524819Y-104857142D01*
X132524819Y-104857142D02*
X132572438Y-104761904D01*
X132572438Y-104761904D02*
X132620057Y-104714285D01*
X132620057Y-104714285D02*
X132715295Y-104666666D01*
X132715295Y-104666666D02*
X132858152Y-104666666D01*
X132858152Y-104666666D02*
X132953390Y-104714285D01*
X132953390Y-104714285D02*
X133001009Y-104761904D01*
X133001009Y-104761904D02*
X133048628Y-104857142D01*
X133048628Y-104857142D02*
X133048628Y-105238094D01*
X132620057Y-104285713D02*
X132572438Y-104238094D01*
X132572438Y-104238094D02*
X132524819Y-104142856D01*
X132524819Y-104142856D02*
X132524819Y-103904761D01*
X132524819Y-103904761D02*
X132572438Y-103809523D01*
X132572438Y-103809523D02*
X132620057Y-103761904D01*
X132620057Y-103761904D02*
X132715295Y-103714285D01*
X132715295Y-103714285D02*
X132810533Y-103714285D01*
X132810533Y-103714285D02*
X132953390Y-103761904D01*
X132953390Y-103761904D02*
X133524819Y-104333332D01*
X133524819Y-104333332D02*
X133524819Y-103714285D01*
X119833333Y-90384819D02*
X119500000Y-89908628D01*
X119261905Y-90384819D02*
X119261905Y-89384819D01*
X119261905Y-89384819D02*
X119642857Y-89384819D01*
X119642857Y-89384819D02*
X119738095Y-89432438D01*
X119738095Y-89432438D02*
X119785714Y-89480057D01*
X119785714Y-89480057D02*
X119833333Y-89575295D01*
X119833333Y-89575295D02*
X119833333Y-89718152D01*
X119833333Y-89718152D02*
X119785714Y-89813390D01*
X119785714Y-89813390D02*
X119738095Y-89861009D01*
X119738095Y-89861009D02*
X119642857Y-89908628D01*
X119642857Y-89908628D02*
X119261905Y-89908628D01*
X120690476Y-89718152D02*
X120690476Y-90384819D01*
X120452381Y-89337200D02*
X120214286Y-90051485D01*
X120214286Y-90051485D02*
X120833333Y-90051485D01*
X133695833Y-82789580D02*
X133648214Y-82837200D01*
X133648214Y-82837200D02*
X133505357Y-82884819D01*
X133505357Y-82884819D02*
X133410119Y-82884819D01*
X133410119Y-82884819D02*
X133267262Y-82837200D01*
X133267262Y-82837200D02*
X133172024Y-82741961D01*
X133172024Y-82741961D02*
X133124405Y-82646723D01*
X133124405Y-82646723D02*
X133076786Y-82456247D01*
X133076786Y-82456247D02*
X133076786Y-82313390D01*
X133076786Y-82313390D02*
X133124405Y-82122914D01*
X133124405Y-82122914D02*
X133172024Y-82027676D01*
X133172024Y-82027676D02*
X133267262Y-81932438D01*
X133267262Y-81932438D02*
X133410119Y-81884819D01*
X133410119Y-81884819D02*
X133505357Y-81884819D01*
X133505357Y-81884819D02*
X133648214Y-81932438D01*
X133648214Y-81932438D02*
X133695833Y-81980057D01*
X134029167Y-81884819D02*
X134648214Y-81884819D01*
X134648214Y-81884819D02*
X134314881Y-82265771D01*
X134314881Y-82265771D02*
X134457738Y-82265771D01*
X134457738Y-82265771D02*
X134552976Y-82313390D01*
X134552976Y-82313390D02*
X134600595Y-82361009D01*
X134600595Y-82361009D02*
X134648214Y-82456247D01*
X134648214Y-82456247D02*
X134648214Y-82694342D01*
X134648214Y-82694342D02*
X134600595Y-82789580D01*
X134600595Y-82789580D02*
X134552976Y-82837200D01*
X134552976Y-82837200D02*
X134457738Y-82884819D01*
X134457738Y-82884819D02*
X134172024Y-82884819D01*
X134172024Y-82884819D02*
X134076786Y-82837200D01*
X134076786Y-82837200D02*
X134029167Y-82789580D01*
X138838095Y-104654819D02*
X139409523Y-104654819D01*
X139123809Y-105654819D02*
X139123809Y-104654819D01*
X139742857Y-105654819D02*
X139742857Y-104654819D01*
X139742857Y-104654819D02*
X140123809Y-104654819D01*
X140123809Y-104654819D02*
X140219047Y-104702438D01*
X140219047Y-104702438D02*
X140266666Y-104750057D01*
X140266666Y-104750057D02*
X140314285Y-104845295D01*
X140314285Y-104845295D02*
X140314285Y-104988152D01*
X140314285Y-104988152D02*
X140266666Y-105083390D01*
X140266666Y-105083390D02*
X140219047Y-105131009D01*
X140219047Y-105131009D02*
X140123809Y-105178628D01*
X140123809Y-105178628D02*
X139742857Y-105178628D01*
X140695238Y-104750057D02*
X140742857Y-104702438D01*
X140742857Y-104702438D02*
X140838095Y-104654819D01*
X140838095Y-104654819D02*
X141076190Y-104654819D01*
X141076190Y-104654819D02*
X141171428Y-104702438D01*
X141171428Y-104702438D02*
X141219047Y-104750057D01*
X141219047Y-104750057D02*
X141266666Y-104845295D01*
X141266666Y-104845295D02*
X141266666Y-104940533D01*
X141266666Y-104940533D02*
X141219047Y-105083390D01*
X141219047Y-105083390D02*
X140647619Y-105654819D01*
X140647619Y-105654819D02*
X141266666Y-105654819D01*
X144338095Y-104654819D02*
X144909523Y-104654819D01*
X144623809Y-105654819D02*
X144623809Y-104654819D01*
X145242857Y-105654819D02*
X145242857Y-104654819D01*
X145242857Y-104654819D02*
X145623809Y-104654819D01*
X145623809Y-104654819D02*
X145719047Y-104702438D01*
X145719047Y-104702438D02*
X145766666Y-104750057D01*
X145766666Y-104750057D02*
X145814285Y-104845295D01*
X145814285Y-104845295D02*
X145814285Y-104988152D01*
X145814285Y-104988152D02*
X145766666Y-105083390D01*
X145766666Y-105083390D02*
X145719047Y-105131009D01*
X145719047Y-105131009D02*
X145623809Y-105178628D01*
X145623809Y-105178628D02*
X145242857Y-105178628D01*
X146766666Y-105654819D02*
X146195238Y-105654819D01*
X146480952Y-105654819D02*
X146480952Y-104654819D01*
X146480952Y-104654819D02*
X146385714Y-104797676D01*
X146385714Y-104797676D02*
X146290476Y-104892914D01*
X146290476Y-104892914D02*
X146195238Y-104940533D01*
X155333333Y-101804819D02*
X155000000Y-101328628D01*
X154761905Y-101804819D02*
X154761905Y-100804819D01*
X154761905Y-100804819D02*
X155142857Y-100804819D01*
X155142857Y-100804819D02*
X155238095Y-100852438D01*
X155238095Y-100852438D02*
X155285714Y-100900057D01*
X155285714Y-100900057D02*
X155333333Y-100995295D01*
X155333333Y-100995295D02*
X155333333Y-101138152D01*
X155333333Y-101138152D02*
X155285714Y-101233390D01*
X155285714Y-101233390D02*
X155238095Y-101281009D01*
X155238095Y-101281009D02*
X155142857Y-101328628D01*
X155142857Y-101328628D02*
X154761905Y-101328628D01*
X156285714Y-101804819D02*
X155714286Y-101804819D01*
X156000000Y-101804819D02*
X156000000Y-100804819D01*
X156000000Y-100804819D02*
X155904762Y-100947676D01*
X155904762Y-100947676D02*
X155809524Y-101042914D01*
X155809524Y-101042914D02*
X155714286Y-101090533D01*
D11*
X141788333Y-93824318D02*
X141183571Y-93824318D01*
X141183571Y-93824318D02*
X141183571Y-92554318D01*
X142876905Y-93824318D02*
X142151190Y-93824318D01*
X142514047Y-93824318D02*
X142514047Y-92554318D01*
X142514047Y-92554318D02*
X142393095Y-92735746D01*
X142393095Y-92735746D02*
X142272143Y-92856699D01*
X142272143Y-92856699D02*
X142151190Y-92917175D01*
D10*
X139666666Y-106004819D02*
X139666666Y-106719104D01*
X139666666Y-106719104D02*
X139619047Y-106861961D01*
X139619047Y-106861961D02*
X139523809Y-106957200D01*
X139523809Y-106957200D02*
X139380952Y-107004819D01*
X139380952Y-107004819D02*
X139285714Y-107004819D01*
X140571428Y-106338152D02*
X140571428Y-107004819D01*
X140333333Y-105957200D02*
X140095238Y-106671485D01*
X140095238Y-106671485D02*
X140714285Y-106671485D01*
X160954819Y-88833333D02*
X161669104Y-88833333D01*
X161669104Y-88833333D02*
X161811961Y-88880952D01*
X161811961Y-88880952D02*
X161907200Y-88976190D01*
X161907200Y-88976190D02*
X161954819Y-89119047D01*
X161954819Y-89119047D02*
X161954819Y-89214285D01*
X161954819Y-87833333D02*
X161954819Y-88404761D01*
X161954819Y-88119047D02*
X160954819Y-88119047D01*
X160954819Y-88119047D02*
X161097676Y-88214285D01*
X161097676Y-88214285D02*
X161192914Y-88309523D01*
X161192914Y-88309523D02*
X161240533Y-88404761D01*
X157614700Y-82571428D02*
X157614700Y-81428571D01*
X157614700Y-95571428D02*
X157614700Y-94428571D01*
X158186128Y-94999999D02*
X157043271Y-94999999D01*
X146854819Y-81476189D02*
X145854819Y-81476189D01*
X146759580Y-80428571D02*
X146807200Y-80476190D01*
X146807200Y-80476190D02*
X146854819Y-80619047D01*
X146854819Y-80619047D02*
X146854819Y-80714285D01*
X146854819Y-80714285D02*
X146807200Y-80857142D01*
X146807200Y-80857142D02*
X146711961Y-80952380D01*
X146711961Y-80952380D02*
X146616723Y-80999999D01*
X146616723Y-80999999D02*
X146426247Y-81047618D01*
X146426247Y-81047618D02*
X146283390Y-81047618D01*
X146283390Y-81047618D02*
X146092914Y-80999999D01*
X146092914Y-80999999D02*
X145997676Y-80952380D01*
X145997676Y-80952380D02*
X145902438Y-80857142D01*
X145902438Y-80857142D02*
X145854819Y-80714285D01*
X145854819Y-80714285D02*
X145854819Y-80619047D01*
X145854819Y-80619047D02*
X145902438Y-80476190D01*
X145902438Y-80476190D02*
X145950057Y-80428571D01*
X146854819Y-79476190D02*
X146854819Y-80047618D01*
X146854819Y-79761904D02*
X145854819Y-79761904D01*
X145854819Y-79761904D02*
X145997676Y-79857142D01*
X145997676Y-79857142D02*
X146092914Y-79952380D01*
X146092914Y-79952380D02*
X146140533Y-80047618D01*
X117738095Y-111304819D02*
X117738095Y-110304819D01*
X117738095Y-110781009D02*
X118309523Y-110781009D01*
X118309523Y-111304819D02*
X118309523Y-110304819D01*
X119214285Y-110638152D02*
X119214285Y-111304819D01*
X118976190Y-110257200D02*
X118738095Y-110971485D01*
X118738095Y-110971485D02*
X119357142Y-110971485D01*
X161738095Y-111304819D02*
X161738095Y-110304819D01*
X161738095Y-110781009D02*
X162309523Y-110781009D01*
X162309523Y-111304819D02*
X162309523Y-110304819D01*
X162690476Y-110304819D02*
X163309523Y-110304819D01*
X163309523Y-110304819D02*
X162976190Y-110685771D01*
X162976190Y-110685771D02*
X163119047Y-110685771D01*
X163119047Y-110685771D02*
X163214285Y-110733390D01*
X163214285Y-110733390D02*
X163261904Y-110781009D01*
X163261904Y-110781009D02*
X163309523Y-110876247D01*
X163309523Y-110876247D02*
X163309523Y-111114342D01*
X163309523Y-111114342D02*
X163261904Y-111209580D01*
X163261904Y-111209580D02*
X163214285Y-111257200D01*
X163214285Y-111257200D02*
X163119047Y-111304819D01*
X163119047Y-111304819D02*
X162833333Y-111304819D01*
X162833333Y-111304819D02*
X162738095Y-111257200D01*
X162738095Y-111257200D02*
X162690476Y-111209580D01*
X161738095Y-74304819D02*
X161738095Y-73304819D01*
X161738095Y-73781009D02*
X162309523Y-73781009D01*
X162309523Y-74304819D02*
X162309523Y-73304819D01*
X162738095Y-73400057D02*
X162785714Y-73352438D01*
X162785714Y-73352438D02*
X162880952Y-73304819D01*
X162880952Y-73304819D02*
X163119047Y-73304819D01*
X163119047Y-73304819D02*
X163214285Y-73352438D01*
X163214285Y-73352438D02*
X163261904Y-73400057D01*
X163261904Y-73400057D02*
X163309523Y-73495295D01*
X163309523Y-73495295D02*
X163309523Y-73590533D01*
X163309523Y-73590533D02*
X163261904Y-73733390D01*
X163261904Y-73733390D02*
X162690476Y-74304819D01*
X162690476Y-74304819D02*
X163309523Y-74304819D01*
X117738095Y-74304819D02*
X117738095Y-73304819D01*
X117738095Y-73781009D02*
X118309523Y-73781009D01*
X118309523Y-74304819D02*
X118309523Y-73304819D01*
X119309523Y-74304819D02*
X118738095Y-74304819D01*
X119023809Y-74304819D02*
X119023809Y-73304819D01*
X119023809Y-73304819D02*
X118928571Y-73447676D01*
X118928571Y-73447676D02*
X118833333Y-73542914D01*
X118833333Y-73542914D02*
X118738095Y-73590533D01*
X133359819Y-100111094D02*
X132359819Y-100111094D01*
X132359819Y-100111094D02*
X132359819Y-99872999D01*
X132359819Y-99872999D02*
X132407438Y-99730142D01*
X132407438Y-99730142D02*
X132502676Y-99634904D01*
X132502676Y-99634904D02*
X132597914Y-99587285D01*
X132597914Y-99587285D02*
X132788390Y-99539666D01*
X132788390Y-99539666D02*
X132931247Y-99539666D01*
X132931247Y-99539666D02*
X133121723Y-99587285D01*
X133121723Y-99587285D02*
X133216961Y-99634904D01*
X133216961Y-99634904D02*
X133312200Y-99730142D01*
X133312200Y-99730142D02*
X133359819Y-99872999D01*
X133359819Y-99872999D02*
X133359819Y-100111094D01*
X133359819Y-98587285D02*
X133359819Y-99158713D01*
X133359819Y-98872999D02*
X132359819Y-98872999D01*
X132359819Y-98872999D02*
X132502676Y-98968237D01*
X132502676Y-98968237D02*
X132597914Y-99063475D01*
X132597914Y-99063475D02*
X132645533Y-99158713D01*
X150333333Y-79179580D02*
X150285714Y-79227200D01*
X150285714Y-79227200D02*
X150142857Y-79274819D01*
X150142857Y-79274819D02*
X150047619Y-79274819D01*
X150047619Y-79274819D02*
X149904762Y-79227200D01*
X149904762Y-79227200D02*
X149809524Y-79131961D01*
X149809524Y-79131961D02*
X149761905Y-79036723D01*
X149761905Y-79036723D02*
X149714286Y-78846247D01*
X149714286Y-78846247D02*
X149714286Y-78703390D01*
X149714286Y-78703390D02*
X149761905Y-78512914D01*
X149761905Y-78512914D02*
X149809524Y-78417676D01*
X149809524Y-78417676D02*
X149904762Y-78322438D01*
X149904762Y-78322438D02*
X150047619Y-78274819D01*
X150047619Y-78274819D02*
X150142857Y-78274819D01*
X150142857Y-78274819D02*
X150285714Y-78322438D01*
X150285714Y-78322438D02*
X150333333Y-78370057D01*
X150714286Y-78370057D02*
X150761905Y-78322438D01*
X150761905Y-78322438D02*
X150857143Y-78274819D01*
X150857143Y-78274819D02*
X151095238Y-78274819D01*
X151095238Y-78274819D02*
X151190476Y-78322438D01*
X151190476Y-78322438D02*
X151238095Y-78370057D01*
X151238095Y-78370057D02*
X151285714Y-78465295D01*
X151285714Y-78465295D02*
X151285714Y-78560533D01*
X151285714Y-78560533D02*
X151238095Y-78703390D01*
X151238095Y-78703390D02*
X150666667Y-79274819D01*
X150666667Y-79274819D02*
X151285714Y-79274819D01*
X127930682Y-86609580D02*
X127883063Y-86657200D01*
X127883063Y-86657200D02*
X127740206Y-86704819D01*
X127740206Y-86704819D02*
X127644968Y-86704819D01*
X127644968Y-86704819D02*
X127502111Y-86657200D01*
X127502111Y-86657200D02*
X127406873Y-86561961D01*
X127406873Y-86561961D02*
X127359254Y-86466723D01*
X127359254Y-86466723D02*
X127311635Y-86276247D01*
X127311635Y-86276247D02*
X127311635Y-86133390D01*
X127311635Y-86133390D02*
X127359254Y-85942914D01*
X127359254Y-85942914D02*
X127406873Y-85847676D01*
X127406873Y-85847676D02*
X127502111Y-85752438D01*
X127502111Y-85752438D02*
X127644968Y-85704819D01*
X127644968Y-85704819D02*
X127740206Y-85704819D01*
X127740206Y-85704819D02*
X127883063Y-85752438D01*
X127883063Y-85752438D02*
X127930682Y-85800057D01*
X128883063Y-86704819D02*
X128311635Y-86704819D01*
X128597349Y-86704819D02*
X128597349Y-85704819D01*
X128597349Y-85704819D02*
X128502111Y-85847676D01*
X128502111Y-85847676D02*
X128406873Y-85942914D01*
X128406873Y-85942914D02*
X128311635Y-85990533D01*
%TO.C,J2*%
D12*
X131210000Y-113210000D02*
X125790000Y-113210000D01*
X125790000Y-104490000D02*
X125790000Y-113210000D01*
X131210000Y-104490000D02*
X131210000Y-113210000D01*
X127090000Y-102790000D02*
X125790000Y-104490000D01*
X129910000Y-102790000D02*
X131210000Y-104490000D01*
X129910000Y-102790000D02*
X127090000Y-102790000D01*
%TO.C,J3*%
X145440000Y-107190000D02*
X151560000Y-107190000D01*
X151560000Y-111910000D01*
X145440000Y-111910000D01*
X145440000Y-107190000D01*
X151560000Y-109800000D02*
X150950000Y-109800000D01*
X151560000Y-108500000D02*
X150950000Y-108500000D01*
X150950000Y-111300000D02*
X150950000Y-107800000D01*
X150950000Y-107800000D02*
X149000000Y-107800000D01*
X149000000Y-107800000D02*
X149000000Y-107190000D01*
X148600000Y-110800000D02*
X148600000Y-111300000D01*
X148500000Y-111300000D02*
X148500000Y-110800000D01*
X148400000Y-111300000D02*
X148400000Y-110800000D01*
X148400000Y-110800000D02*
X148600000Y-110800000D01*
X148000000Y-107800000D02*
X146050000Y-107800000D01*
X148000000Y-107190000D02*
X148000000Y-107800000D01*
X147200000Y-107190000D02*
X147200000Y-106990000D01*
X147200000Y-107090000D02*
X146900000Y-107090000D01*
X147200000Y-106990000D02*
X146900000Y-106990000D01*
X146900000Y-106990000D02*
X146900000Y-107190000D01*
X146390000Y-106890000D02*
X145140000Y-106890000D01*
X146050000Y-111300000D02*
X150950000Y-111300000D01*
X146050000Y-107800000D02*
X146050000Y-111300000D01*
X145440000Y-109800000D02*
X146050000Y-109800000D01*
X145440000Y-108500000D02*
X146050000Y-108500000D01*
X145140000Y-106890000D02*
X145140000Y-108140000D01*
%TO.C,R3*%
X119745276Y-93022500D02*
X120254724Y-93022500D01*
X119745276Y-91977500D02*
X120254724Y-91977500D01*
%TO.C,R2*%
X135022500Y-104754724D02*
X135022500Y-104245276D01*
X133977500Y-104754724D02*
X133977500Y-104245276D01*
%TO.C,R4*%
X120254724Y-87977500D02*
X119745276Y-87977500D01*
X120254724Y-89022500D02*
X119745276Y-89022500D01*
%TO.C,C3*%
X134008767Y-80490000D02*
X133716233Y-80490000D01*
X134008767Y-81510000D02*
X133716233Y-81510000D01*
%TO.C,TP2*%
X138100000Y-102600000D02*
X138100000Y-104400000D01*
X138100000Y-104400000D02*
X141900000Y-104400000D01*
X141900000Y-102600000D02*
X138100000Y-102600000D01*
X141900000Y-104400000D02*
X141900000Y-102600000D01*
%TO.C,TP1*%
X143600000Y-102600000D02*
X143600000Y-104400000D01*
X143600000Y-104400000D02*
X147400000Y-104400000D01*
X147400000Y-102600000D02*
X143600000Y-102600000D01*
X147400000Y-104400000D02*
X147400000Y-102600000D01*
%TO.C,R1*%
X155272936Y-102265000D02*
X155727064Y-102265000D01*
X155272936Y-103735000D02*
X155727064Y-103735000D01*
%TO.C,L1*%
D13*
X149620000Y-101125000D02*
X134380000Y-101125000D01*
X134380000Y-101125000D02*
X134380000Y-85375000D01*
X134380000Y-85375000D02*
X149620000Y-85375000D01*
X149620000Y-85375000D02*
X149620000Y-101125000D01*
D14*
X150200000Y-93250000D02*
X150200000Y-93250000D01*
X150100000Y-93250000D02*
X150100000Y-93250000D01*
X150100000Y-93250000D02*
G75*
G02*
X150200000Y-93250000I50000J0D01*
G01*
X150200000Y-93250000D02*
G75*
G02*
X150100000Y-93250000I-50000J0D01*
G01*
%TO.C,J4*%
D12*
X136640000Y-107340000D02*
X136640000Y-108590000D01*
X136940000Y-108950000D02*
X137550000Y-108950000D01*
X136940000Y-110250000D02*
X137550000Y-110250000D01*
X137550000Y-108250000D02*
X137550000Y-111750000D01*
X137550000Y-111750000D02*
X142450000Y-111750000D01*
X137890000Y-107340000D02*
X136640000Y-107340000D01*
X138400000Y-107440000D02*
X138400000Y-107640000D01*
X138700000Y-107440000D02*
X138400000Y-107440000D01*
X138700000Y-107540000D02*
X138400000Y-107540000D01*
X138700000Y-107640000D02*
X138700000Y-107440000D01*
X139500000Y-107640000D02*
X139500000Y-108250000D01*
X139500000Y-108250000D02*
X137550000Y-108250000D01*
X139900000Y-111250000D02*
X140100000Y-111250000D01*
X139900000Y-111750000D02*
X139900000Y-111250000D01*
X140000000Y-111750000D02*
X140000000Y-111250000D01*
X140100000Y-111250000D02*
X140100000Y-111750000D01*
X140500000Y-108250000D02*
X140500000Y-107640000D01*
X142450000Y-108250000D02*
X140500000Y-108250000D01*
X142450000Y-111750000D02*
X142450000Y-108250000D01*
X143060000Y-108950000D02*
X142450000Y-108950000D01*
X143060000Y-110250000D02*
X142450000Y-110250000D01*
X136940000Y-107640000D02*
X143060000Y-107640000D01*
X143060000Y-112360000D01*
X136940000Y-112360000D01*
X136940000Y-107640000D01*
%TO.C,J1*%
X158910000Y-83290000D02*
X156090000Y-83290000D01*
X158910000Y-83290000D02*
X160210000Y-84990000D01*
X156090000Y-83290000D02*
X154790000Y-84990000D01*
X160210000Y-84990000D02*
X160210000Y-93710000D01*
X154790000Y-84990000D02*
X154790000Y-93710000D01*
X160210000Y-93710000D02*
X154790000Y-93710000D01*
%TO.C,IC1*%
X145560000Y-78440000D02*
X145560000Y-82560000D01*
X145465000Y-78440000D02*
X145560000Y-78440000D01*
X140440000Y-78440000D02*
X140535000Y-78440000D01*
X145560000Y-82560000D02*
X145465000Y-82560000D01*
X140535000Y-82560000D02*
X140440000Y-82560000D01*
X140440000Y-82560000D02*
X140440000Y-78440000D01*
X145470000Y-77900000D02*
X145800000Y-77660000D01*
X145800000Y-78140000D01*
X145470000Y-77900000D01*
G36*
X145800000Y-78140000D02*
G01*
X145470000Y-77900000D01*
X145800000Y-77660000D01*
X145800000Y-78140000D01*
G37*
%TO.C,D1*%
X132000000Y-97290000D02*
X130000000Y-97290000D01*
X132000000Y-97290000D02*
X132000000Y-101150000D01*
X130000000Y-97290000D02*
X130000000Y-101150000D01*
%TO.C,C2*%
X150238748Y-79765000D02*
X150761252Y-79765000D01*
X150238748Y-81235000D02*
X150761252Y-81235000D01*
%TO.C,C1*%
X123687651Y-89185000D02*
X124487651Y-89185000D01*
X124087651Y-88785000D02*
X124087651Y-89585000D01*
X128097349Y-87420000D02*
X128097349Y-95580000D01*
X128137349Y-87420000D02*
X128137349Y-95580000D01*
X128177349Y-87421000D02*
X128177349Y-95579000D01*
X128217349Y-87422000D02*
X128217349Y-95578000D01*
X128257349Y-87423000D02*
X128257349Y-95577000D01*
X128297349Y-87425000D02*
X128297349Y-95575000D01*
X128337349Y-87427000D02*
X128337349Y-95573000D01*
X128377349Y-87430000D02*
X128377349Y-95570000D01*
X128417349Y-87432000D02*
X128417349Y-95568000D01*
X128457349Y-87436000D02*
X128457349Y-95564000D01*
X128497349Y-87439000D02*
X128497349Y-95561000D01*
X128537349Y-87444000D02*
X128537349Y-95556000D01*
X128577349Y-87448000D02*
X128577349Y-95552000D01*
X128617349Y-87453000D02*
X128617349Y-95547000D01*
X128657349Y-87458000D02*
X128657349Y-95542000D01*
X128697349Y-87464000D02*
X128697349Y-95536000D01*
X128737349Y-87470000D02*
X128737349Y-95530000D01*
X128777349Y-87477000D02*
X128777349Y-95523000D01*
X128817349Y-87483000D02*
X128817349Y-95517000D01*
X128857349Y-87491000D02*
X128857349Y-95509000D01*
X128897349Y-87498000D02*
X128897349Y-95502000D01*
X128937349Y-87507000D02*
X128937349Y-95493000D01*
X128977349Y-87515000D02*
X128977349Y-95485000D01*
X129017349Y-87524000D02*
X129017349Y-95476000D01*
X129057349Y-87533000D02*
X129057349Y-95467000D01*
X129097349Y-87543000D02*
X129097349Y-95457000D01*
X129137349Y-87553000D02*
X129137349Y-95447000D01*
X129177349Y-87564000D02*
X129177349Y-95436000D01*
X129217349Y-87575000D02*
X129217349Y-95425000D01*
X129257349Y-87587000D02*
X129257349Y-95413000D01*
X129297349Y-87599000D02*
X129297349Y-95401000D01*
X129337349Y-87611000D02*
X129337349Y-95389000D01*
X129377349Y-87624000D02*
X129377349Y-95376000D01*
X129417349Y-87637000D02*
X129417349Y-95363000D01*
X129457349Y-87651000D02*
X129457349Y-95349000D01*
X129497349Y-87665000D02*
X129497349Y-95335000D01*
X129537349Y-87680000D02*
X129537349Y-95320000D01*
X129577349Y-87695000D02*
X129577349Y-90460000D01*
X129577349Y-92540000D02*
X129577349Y-95305000D01*
X129617349Y-87711000D02*
X129617349Y-90460000D01*
X129617349Y-92540000D02*
X129617349Y-95289000D01*
X129657349Y-87727000D02*
X129657349Y-90460000D01*
X129657349Y-92540000D02*
X129657349Y-95273000D01*
X129697349Y-87743000D02*
X129697349Y-90460000D01*
X129697349Y-92540000D02*
X129697349Y-95257000D01*
X129737349Y-87760000D02*
X129737349Y-90460000D01*
X129737349Y-92540000D02*
X129737349Y-95240000D01*
X129777349Y-87778000D02*
X129777349Y-90460000D01*
X129777349Y-92540000D02*
X129777349Y-95222000D01*
X129817349Y-87796000D02*
X129817349Y-90460000D01*
X129817349Y-92540000D02*
X129817349Y-95204000D01*
X129857349Y-87815000D02*
X129857349Y-90460000D01*
X129857349Y-92540000D02*
X129857349Y-95185000D01*
X129897349Y-87834000D02*
X129897349Y-90460000D01*
X129897349Y-92540000D02*
X129897349Y-95166000D01*
X129937349Y-87854000D02*
X129937349Y-90460000D01*
X129937349Y-92540000D02*
X129937349Y-95146000D01*
X129977349Y-87874000D02*
X129977349Y-90460000D01*
X129977349Y-92540000D02*
X129977349Y-95126000D01*
X130017349Y-87895000D02*
X130017349Y-90460000D01*
X130017349Y-92540000D02*
X130017349Y-95105000D01*
X130057349Y-87916000D02*
X130057349Y-90460000D01*
X130057349Y-92540000D02*
X130057349Y-95084000D01*
X130097349Y-87938000D02*
X130097349Y-90460000D01*
X130097349Y-92540000D02*
X130097349Y-95062000D01*
X130137349Y-87961000D02*
X130137349Y-90460000D01*
X130137349Y-92540000D02*
X130137349Y-95039000D01*
X130177349Y-87984000D02*
X130177349Y-90460000D01*
X130177349Y-92540000D02*
X130177349Y-95016000D01*
X130217349Y-88007000D02*
X130217349Y-90460000D01*
X130217349Y-92540000D02*
X130217349Y-94993000D01*
X130257349Y-88032000D02*
X130257349Y-90460000D01*
X130257349Y-92540000D02*
X130257349Y-94968000D01*
X130297349Y-88057000D02*
X130297349Y-90460000D01*
X130297349Y-92540000D02*
X130297349Y-94943000D01*
X130337349Y-88082000D02*
X130337349Y-90460000D01*
X130337349Y-92540000D02*
X130337349Y-94918000D01*
X130377349Y-88108000D02*
X130377349Y-90460000D01*
X130377349Y-92540000D02*
X130377349Y-94892000D01*
X130417349Y-88135000D02*
X130417349Y-90460000D01*
X130417349Y-92540000D02*
X130417349Y-94865000D01*
X130457349Y-88163000D02*
X130457349Y-90460000D01*
X130457349Y-92540000D02*
X130457349Y-94837000D01*
X130497349Y-88191000D02*
X130497349Y-90460000D01*
X130497349Y-92540000D02*
X130497349Y-94809000D01*
X130537349Y-88220000D02*
X130537349Y-90460000D01*
X130537349Y-92540000D02*
X130537349Y-94780000D01*
X130577349Y-88250000D02*
X130577349Y-90460000D01*
X130577349Y-92540000D02*
X130577349Y-94750000D01*
X130617349Y-88281000D02*
X130617349Y-90460000D01*
X130617349Y-92540000D02*
X130617349Y-94719000D01*
X130657349Y-88312000D02*
X130657349Y-90460000D01*
X130657349Y-92540000D02*
X130657349Y-94688000D01*
X130697349Y-88344000D02*
X130697349Y-90460000D01*
X130697349Y-92540000D02*
X130697349Y-94656000D01*
X130737349Y-88377000D02*
X130737349Y-90460000D01*
X130737349Y-92540000D02*
X130737349Y-94623000D01*
X130777349Y-88411000D02*
X130777349Y-90460000D01*
X130777349Y-92540000D02*
X130777349Y-94589000D01*
X130817349Y-88445000D02*
X130817349Y-90460000D01*
X130817349Y-92540000D02*
X130817349Y-94555000D01*
X130857349Y-88481000D02*
X130857349Y-90460000D01*
X130857349Y-92540000D02*
X130857349Y-94519000D01*
X130897349Y-88518000D02*
X130897349Y-90460000D01*
X130897349Y-92540000D02*
X130897349Y-94482000D01*
X130937349Y-88555000D02*
X130937349Y-90460000D01*
X130937349Y-92540000D02*
X130937349Y-94445000D01*
X130977349Y-88594000D02*
X130977349Y-90460000D01*
X130977349Y-92540000D02*
X130977349Y-94406000D01*
X131017349Y-88633000D02*
X131017349Y-90460000D01*
X131017349Y-92540000D02*
X131017349Y-94367000D01*
X131057349Y-88674000D02*
X131057349Y-90460000D01*
X131057349Y-92540000D02*
X131057349Y-94326000D01*
X131097349Y-88716000D02*
X131097349Y-90460000D01*
X131097349Y-92540000D02*
X131097349Y-94284000D01*
X131137349Y-88759000D02*
X131137349Y-90460000D01*
X131137349Y-92540000D02*
X131137349Y-94241000D01*
X131177349Y-88804000D02*
X131177349Y-90460000D01*
X131177349Y-92540000D02*
X131177349Y-94196000D01*
X131217349Y-88849000D02*
X131217349Y-90460000D01*
X131217349Y-92540000D02*
X131217349Y-94151000D01*
X131257349Y-88896000D02*
X131257349Y-90460000D01*
X131257349Y-92540000D02*
X131257349Y-94104000D01*
X131297349Y-88945000D02*
X131297349Y-90460000D01*
X131297349Y-92540000D02*
X131297349Y-94055000D01*
X131337349Y-88995000D02*
X131337349Y-90460000D01*
X131337349Y-92540000D02*
X131337349Y-94005000D01*
X131377349Y-89047000D02*
X131377349Y-90460000D01*
X131377349Y-92540000D02*
X131377349Y-93953000D01*
X131417349Y-89100000D02*
X131417349Y-90460000D01*
X131417349Y-92540000D02*
X131417349Y-93900000D01*
X131457349Y-89156000D02*
X131457349Y-90460000D01*
X131457349Y-92540000D02*
X131457349Y-93844000D01*
X131497349Y-89213000D02*
X131497349Y-90460000D01*
X131497349Y-92540000D02*
X131497349Y-93787000D01*
X131537349Y-89273000D02*
X131537349Y-90460000D01*
X131537349Y-92540000D02*
X131537349Y-93727000D01*
X131577349Y-89335000D02*
X131577349Y-90460000D01*
X131577349Y-92540000D02*
X131577349Y-93665000D01*
X131617349Y-89399000D02*
X131617349Y-90460000D01*
X131617349Y-92540000D02*
X131617349Y-93601000D01*
X131657349Y-89466000D02*
X131657349Y-93534000D01*
X131697349Y-89536000D02*
X131697349Y-93464000D01*
X131737349Y-89610000D02*
X131737349Y-93390000D01*
X131777349Y-89687000D02*
X131777349Y-93313000D01*
X131817349Y-89769000D02*
X131817349Y-93231000D01*
X131857349Y-89856000D02*
X131857349Y-93144000D01*
X131897349Y-89948000D02*
X131897349Y-93052000D01*
X131937349Y-90047000D02*
X131937349Y-92953000D01*
X131977349Y-90154000D02*
X131977349Y-92846000D01*
X132017349Y-90272000D02*
X132017349Y-92728000D01*
X132057349Y-90403000D02*
X132057349Y-92597000D01*
X132097349Y-90553000D02*
X132097349Y-92447000D01*
X132137349Y-90732000D02*
X132137349Y-92268000D01*
X132177349Y-90967000D02*
X132177349Y-92033000D01*
X132217349Y-91500000D02*
G75*
G02*
X123977349Y-91500000I-4120000J0D01*
G01*
X123977349Y-91500000D02*
G75*
G02*
X132217349Y-91500000I4120000J0D01*
G01*
%TD*%
%LPC*%
D15*
%TO.C,J2*%
X128500000Y-110500000D03*
D16*
X128500000Y-105500000D03*
%TD*%
D17*
%TO.C,J3*%
X149500000Y-109000000D03*
D18*
X147500000Y-109000000D03*
%TD*%
D19*
%TO.C,R3*%
X120912500Y-92500000D03*
X119087500Y-92500000D03*
%TD*%
D20*
%TO.C,R2*%
X134500000Y-103587500D03*
X134500000Y-105412500D03*
%TD*%
D21*
%TO.C,R4*%
X119087500Y-88500000D03*
X120912500Y-88500000D03*
%TD*%
D22*
%TO.C,C3*%
X133000000Y-81000000D03*
X134725000Y-81000000D03*
%TD*%
D23*
%TO.C,TP2*%
X139000000Y-103500000D03*
X141000000Y-103500000D03*
%TD*%
%TO.C,TP1*%
X144500000Y-103500000D03*
X146500000Y-103500000D03*
%TD*%
D24*
%TO.C,R1*%
X154500000Y-103000000D03*
X156500000Y-103000000D03*
%TD*%
D25*
%TO.C,L1*%
X148475000Y-93250000D03*
X135525000Y-93250000D03*
%TD*%
D18*
%TO.C,J4*%
X139000000Y-109450000D03*
D17*
X141000000Y-109450000D03*
%TD*%
D16*
%TO.C,J1*%
X157500000Y-86000000D03*
D26*
X157500000Y-91000000D03*
%TD*%
D27*
%TO.C,IC1*%
X144905000Y-78025000D03*
X143635000Y-78025000D03*
X142365000Y-78025000D03*
X141095000Y-78025000D03*
X141095000Y-82975000D03*
X142365000Y-82975000D03*
X143635000Y-82975000D03*
X144905000Y-82975000D03*
%TD*%
D28*
%TO.C,H4*%
X118500000Y-114000000D03*
%TD*%
%TO.C,H3*%
X162500000Y-114000000D03*
%TD*%
%TO.C,H2*%
X162500000Y-77000000D03*
%TD*%
%TO.C,H1*%
X118500000Y-77000000D03*
%TD*%
D29*
%TO.C,D1*%
X131000000Y-98100000D03*
X131000000Y-100900000D03*
%TD*%
D30*
%TO.C,C2*%
X149550000Y-80500000D03*
X151450000Y-80500000D03*
%TD*%
D31*
%TO.C,C1*%
X125597349Y-91500000D03*
D32*
X130597349Y-91500000D03*
%TD*%
%LPD*%
M02*
