%TF.GenerationSoftware,KiCad,Pcbnew,9.0.4*%
%TF.CreationDate,2026-01-28T15:19:22-06:00*%
%TF.ProjectId,Onboarding,4f6e626f-6172-4646-996e-672e6b696361,rev?*%
%TF.SameCoordinates,Original*%
%TF.FileFunction,Legend,Top*%
%TF.FilePolarity,Positive*%
%FSLAX46Y46*%
G04 Gerber Fmt 4.6, Leading zero omitted, Abs format (unit mm)*
G04 Created by KiCad (PCBNEW 9.0.4) date 2026-01-28 15:19:22*
%MOMM*%
%LPD*%
G01*
G04 APERTURE LIST*
G04 Aperture macros list*
%AMRoundRect*
0 Rectangle with rounded corners*
0 $1 Rounding radius*
0 $2 $3 $4 $5 $6 $7 $8 $9 X,Y pos of 4 corners*
0 Add a 4 corners polygon primitive as box body*
4,1,4,$2,$3,$4,$5,$6,$7,$8,$9,$2,$3,0*
0 Add four circle primitives for the rounded corners*
1,1,$1+$1,$2,$3*
1,1,$1+$1,$4,$5*
1,1,$1+$1,$6,$7*
1,1,$1+$1,$8,$9*
0 Add four rect primitives between the rounded corners*
20,1,$1+$1,$2,$3,$4,$5,0*
20,1,$1+$1,$4,$5,$6,$7,0*
20,1,$1+$1,$6,$7,$8,$9,0*
20,1,$1+$1,$8,$9,$2,$3,0*%
G04 Aperture macros list end*
%ADD10C,0.150000*%
%ADD11C,0.254000*%
%ADD12C,0.120000*%
%ADD13C,0.200000*%
%ADD14C,0.100000*%
%ADD15RoundRect,0.250000X-0.250000X-0.475000X0.250000X-0.475000X0.250000X0.475000X-0.250000X0.475000X0*%
%ADD16C,2.200000*%
%ADD17RoundRect,0.760000X1.140000X1.140000X-1.140000X1.140000X-1.140000X-1.140000X1.140000X-1.140000X0*%
%ADD18C,3.800000*%
%ADD19RoundRect,0.237500X-0.250000X-0.237500X0.250000X-0.237500X0.250000X0.237500X-0.250000X0.237500X0*%
%ADD20R,10.160000X1.520000*%
%ADD21RoundRect,0.250000X0.550000X0.550000X-0.550000X0.550000X-0.550000X-0.550000X0.550000X-0.550000X0*%
%ADD22C,1.600000*%
%ADD23RoundRect,0.760000X-1.140000X-1.140000X1.140000X-1.140000X1.140000X1.140000X-1.140000X1.140000X0*%
%ADD24C,4.000000*%
%ADD25RoundRect,0.150000X-0.150000X-0.700000X0.150000X-0.700000X0.150000X0.700000X-0.150000X0.700000X0*%
%ADD26RoundRect,0.250000X-0.250000X-1.150000X0.250000X-1.150000X0.250000X1.150000X-0.250000X1.150000X0*%
%ADD27RoundRect,0.250000X-0.450000X0.350000X-0.450000X-0.350000X0.450000X-0.350000X0.450000X0.350000X0*%
%ADD28RoundRect,0.250000X0.300000X-0.300000X0.300000X0.300000X-0.300000X0.300000X-0.300000X-0.300000X0*%
%ADD29C,1.400000*%
%ADD30RoundRect,0.150000X0.150000X-0.825000X0.150000X0.825000X-0.150000X0.825000X-0.150000X-0.825000X0*%
%ADD31RoundRect,0.237500X-0.300000X-0.237500X0.300000X-0.237500X0.300000X0.237500X-0.300000X0.237500X0*%
G04 APERTURE END LIST*
D10*
X158083333Y-85679580D02*
X158035714Y-85727200D01*
X158035714Y-85727200D02*
X157892857Y-85774819D01*
X157892857Y-85774819D02*
X157797619Y-85774819D01*
X157797619Y-85774819D02*
X157654762Y-85727200D01*
X157654762Y-85727200D02*
X157559524Y-85631961D01*
X157559524Y-85631961D02*
X157511905Y-85536723D01*
X157511905Y-85536723D02*
X157464286Y-85346247D01*
X157464286Y-85346247D02*
X157464286Y-85203390D01*
X157464286Y-85203390D02*
X157511905Y-85012914D01*
X157511905Y-85012914D02*
X157559524Y-84917676D01*
X157559524Y-84917676D02*
X157654762Y-84822438D01*
X157654762Y-84822438D02*
X157797619Y-84774819D01*
X157797619Y-84774819D02*
X157892857Y-84774819D01*
X157892857Y-84774819D02*
X158035714Y-84822438D01*
X158035714Y-84822438D02*
X158083333Y-84870057D01*
X159035714Y-85774819D02*
X158464286Y-85774819D01*
X158750000Y-85774819D02*
X158750000Y-84774819D01*
X158750000Y-84774819D02*
X158654762Y-84917676D01*
X158654762Y-84917676D02*
X158559524Y-85012914D01*
X158559524Y-85012914D02*
X158464286Y-85060533D01*
X161488095Y-111954819D02*
X161488095Y-110954819D01*
X161488095Y-111431009D02*
X162059523Y-111431009D01*
X162059523Y-111954819D02*
X162059523Y-110954819D01*
X162964285Y-111288152D02*
X162964285Y-111954819D01*
X162726190Y-110907200D02*
X162488095Y-111621485D01*
X162488095Y-111621485D02*
X163107142Y-111621485D01*
X137488095Y-84454819D02*
X137488095Y-83454819D01*
X137488095Y-83931009D02*
X138059523Y-83931009D01*
X138059523Y-84454819D02*
X138059523Y-83454819D01*
X139059523Y-84454819D02*
X138488095Y-84454819D01*
X138773809Y-84454819D02*
X138773809Y-83454819D01*
X138773809Y-83454819D02*
X138678571Y-83597676D01*
X138678571Y-83597676D02*
X138583333Y-83692914D01*
X138583333Y-83692914D02*
X138488095Y-83740533D01*
X152916666Y-114454819D02*
X152916666Y-115169104D01*
X152916666Y-115169104D02*
X152869047Y-115311961D01*
X152869047Y-115311961D02*
X152773809Y-115407200D01*
X152773809Y-115407200D02*
X152630952Y-115454819D01*
X152630952Y-115454819D02*
X152535714Y-115454819D01*
X153345238Y-114550057D02*
X153392857Y-114502438D01*
X153392857Y-114502438D02*
X153488095Y-114454819D01*
X153488095Y-114454819D02*
X153726190Y-114454819D01*
X153726190Y-114454819D02*
X153821428Y-114502438D01*
X153821428Y-114502438D02*
X153869047Y-114550057D01*
X153869047Y-114550057D02*
X153916666Y-114645295D01*
X153916666Y-114645295D02*
X153916666Y-114740533D01*
X153916666Y-114740533D02*
X153869047Y-114883390D01*
X153869047Y-114883390D02*
X153297619Y-115454819D01*
X153297619Y-115454819D02*
X153916666Y-115454819D01*
X146178571Y-111114700D02*
X147321429Y-111114700D01*
X146750000Y-111686128D02*
X146750000Y-110543271D01*
X159178571Y-111114700D02*
X160321429Y-111114700D01*
X151083333Y-104024819D02*
X150750000Y-103548628D01*
X150511905Y-104024819D02*
X150511905Y-103024819D01*
X150511905Y-103024819D02*
X150892857Y-103024819D01*
X150892857Y-103024819D02*
X150988095Y-103072438D01*
X150988095Y-103072438D02*
X151035714Y-103120057D01*
X151035714Y-103120057D02*
X151083333Y-103215295D01*
X151083333Y-103215295D02*
X151083333Y-103358152D01*
X151083333Y-103358152D02*
X151035714Y-103453390D01*
X151035714Y-103453390D02*
X150988095Y-103501009D01*
X150988095Y-103501009D02*
X150892857Y-103548628D01*
X150892857Y-103548628D02*
X150511905Y-103548628D01*
X151464286Y-103120057D02*
X151511905Y-103072438D01*
X151511905Y-103072438D02*
X151607143Y-103024819D01*
X151607143Y-103024819D02*
X151845238Y-103024819D01*
X151845238Y-103024819D02*
X151940476Y-103072438D01*
X151940476Y-103072438D02*
X151988095Y-103120057D01*
X151988095Y-103120057D02*
X152035714Y-103215295D01*
X152035714Y-103215295D02*
X152035714Y-103310533D01*
X152035714Y-103310533D02*
X151988095Y-103453390D01*
X151988095Y-103453390D02*
X151416667Y-104024819D01*
X151416667Y-104024819D02*
X152035714Y-104024819D01*
D11*
X143736818Y-92666666D02*
X143736818Y-93271428D01*
X143736818Y-93271428D02*
X142466818Y-93271428D01*
X143736818Y-91578094D02*
X143736818Y-92303809D01*
X143736818Y-91940952D02*
X142466818Y-91940952D01*
X142466818Y-91940952D02*
X142648246Y-92061904D01*
X142648246Y-92061904D02*
X142769199Y-92182856D01*
X142769199Y-92182856D02*
X142829675Y-92303809D01*
D10*
X142583333Y-113109580D02*
X142535714Y-113157200D01*
X142535714Y-113157200D02*
X142392857Y-113204819D01*
X142392857Y-113204819D02*
X142297619Y-113204819D01*
X142297619Y-113204819D02*
X142154762Y-113157200D01*
X142154762Y-113157200D02*
X142059524Y-113061961D01*
X142059524Y-113061961D02*
X142011905Y-112966723D01*
X142011905Y-112966723D02*
X141964286Y-112776247D01*
X141964286Y-112776247D02*
X141964286Y-112633390D01*
X141964286Y-112633390D02*
X142011905Y-112442914D01*
X142011905Y-112442914D02*
X142059524Y-112347676D01*
X142059524Y-112347676D02*
X142154762Y-112252438D01*
X142154762Y-112252438D02*
X142297619Y-112204819D01*
X142297619Y-112204819D02*
X142392857Y-112204819D01*
X142392857Y-112204819D02*
X142535714Y-112252438D01*
X142535714Y-112252438D02*
X142583333Y-112300057D01*
X142964286Y-112300057D02*
X143011905Y-112252438D01*
X143011905Y-112252438D02*
X143107143Y-112204819D01*
X143107143Y-112204819D02*
X143345238Y-112204819D01*
X143345238Y-112204819D02*
X143440476Y-112252438D01*
X143440476Y-112252438D02*
X143488095Y-112300057D01*
X143488095Y-112300057D02*
X143535714Y-112395295D01*
X143535714Y-112395295D02*
X143535714Y-112490533D01*
X143535714Y-112490533D02*
X143488095Y-112633390D01*
X143488095Y-112633390D02*
X142916667Y-113204819D01*
X142916667Y-113204819D02*
X143535714Y-113204819D01*
X145416666Y-80204819D02*
X145416666Y-80919104D01*
X145416666Y-80919104D02*
X145369047Y-81061961D01*
X145369047Y-81061961D02*
X145273809Y-81157200D01*
X145273809Y-81157200D02*
X145130952Y-81204819D01*
X145130952Y-81204819D02*
X145035714Y-81204819D01*
X146416666Y-81204819D02*
X145845238Y-81204819D01*
X146130952Y-81204819D02*
X146130952Y-80204819D01*
X146130952Y-80204819D02*
X146035714Y-80347676D01*
X146035714Y-80347676D02*
X145940476Y-80442914D01*
X145940476Y-80442914D02*
X145845238Y-80490533D01*
X145178571Y-81864700D02*
X146321429Y-81864700D01*
X158178571Y-81864700D02*
X159321429Y-81864700D01*
X158750000Y-82436128D02*
X158750000Y-81293271D01*
X160291666Y-92504819D02*
X160291666Y-93219104D01*
X160291666Y-93219104D02*
X160244047Y-93361961D01*
X160244047Y-93361961D02*
X160148809Y-93457200D01*
X160148809Y-93457200D02*
X160005952Y-93504819D01*
X160005952Y-93504819D02*
X159910714Y-93504819D01*
X160672619Y-92504819D02*
X161291666Y-92504819D01*
X161291666Y-92504819D02*
X160958333Y-92885771D01*
X160958333Y-92885771D02*
X161101190Y-92885771D01*
X161101190Y-92885771D02*
X161196428Y-92933390D01*
X161196428Y-92933390D02*
X161244047Y-92981009D01*
X161244047Y-92981009D02*
X161291666Y-93076247D01*
X161291666Y-93076247D02*
X161291666Y-93314342D01*
X161291666Y-93314342D02*
X161244047Y-93409580D01*
X161244047Y-93409580D02*
X161196428Y-93457200D01*
X161196428Y-93457200D02*
X161101190Y-93504819D01*
X161101190Y-93504819D02*
X160815476Y-93504819D01*
X160815476Y-93504819D02*
X160720238Y-93457200D01*
X160720238Y-93457200D02*
X160672619Y-93409580D01*
X150954819Y-87916666D02*
X150478628Y-88249999D01*
X150954819Y-88488094D02*
X149954819Y-88488094D01*
X149954819Y-88488094D02*
X149954819Y-88107142D01*
X149954819Y-88107142D02*
X150002438Y-88011904D01*
X150002438Y-88011904D02*
X150050057Y-87964285D01*
X150050057Y-87964285D02*
X150145295Y-87916666D01*
X150145295Y-87916666D02*
X150288152Y-87916666D01*
X150288152Y-87916666D02*
X150383390Y-87964285D01*
X150383390Y-87964285D02*
X150431009Y-88011904D01*
X150431009Y-88011904D02*
X150478628Y-88107142D01*
X150478628Y-88107142D02*
X150478628Y-88488094D01*
X150954819Y-86964285D02*
X150954819Y-87535713D01*
X150954819Y-87249999D02*
X149954819Y-87249999D01*
X149954819Y-87249999D02*
X150097676Y-87345237D01*
X150097676Y-87345237D02*
X150192914Y-87440475D01*
X150192914Y-87440475D02*
X150240533Y-87535713D01*
X137488095Y-111954819D02*
X137488095Y-110954819D01*
X137488095Y-111431009D02*
X138059523Y-111431009D01*
X138059523Y-111954819D02*
X138059523Y-110954819D01*
X138440476Y-110954819D02*
X139059523Y-110954819D01*
X139059523Y-110954819D02*
X138726190Y-111335771D01*
X138726190Y-111335771D02*
X138869047Y-111335771D01*
X138869047Y-111335771D02*
X138964285Y-111383390D01*
X138964285Y-111383390D02*
X139011904Y-111431009D01*
X139011904Y-111431009D02*
X139059523Y-111526247D01*
X139059523Y-111526247D02*
X139059523Y-111764342D01*
X139059523Y-111764342D02*
X139011904Y-111859580D01*
X139011904Y-111859580D02*
X138964285Y-111907200D01*
X138964285Y-111907200D02*
X138869047Y-111954819D01*
X138869047Y-111954819D02*
X138583333Y-111954819D01*
X138583333Y-111954819D02*
X138488095Y-111907200D01*
X138488095Y-111907200D02*
X138440476Y-111859580D01*
X160291666Y-107549819D02*
X160291666Y-108264104D01*
X160291666Y-108264104D02*
X160244047Y-108406961D01*
X160244047Y-108406961D02*
X160148809Y-108502200D01*
X160148809Y-108502200D02*
X160005952Y-108549819D01*
X160005952Y-108549819D02*
X159910714Y-108549819D01*
X161196428Y-107883152D02*
X161196428Y-108549819D01*
X160958333Y-107502200D02*
X160720238Y-108216485D01*
X160720238Y-108216485D02*
X161339285Y-108216485D01*
X146299819Y-102365094D02*
X145299819Y-102365094D01*
X145299819Y-102365094D02*
X145299819Y-102126999D01*
X145299819Y-102126999D02*
X145347438Y-101984142D01*
X145347438Y-101984142D02*
X145442676Y-101888904D01*
X145442676Y-101888904D02*
X145537914Y-101841285D01*
X145537914Y-101841285D02*
X145728390Y-101793666D01*
X145728390Y-101793666D02*
X145871247Y-101793666D01*
X145871247Y-101793666D02*
X146061723Y-101841285D01*
X146061723Y-101841285D02*
X146156961Y-101888904D01*
X146156961Y-101888904D02*
X146252200Y-101984142D01*
X146252200Y-101984142D02*
X146299819Y-102126999D01*
X146299819Y-102126999D02*
X146299819Y-102365094D01*
X146299819Y-100841285D02*
X146299819Y-101412713D01*
X146299819Y-101126999D02*
X145299819Y-101126999D01*
X145299819Y-101126999D02*
X145442676Y-101222237D01*
X145442676Y-101222237D02*
X145537914Y-101317475D01*
X145537914Y-101317475D02*
X145585533Y-101412713D01*
X136988095Y-99954819D02*
X137559523Y-99954819D01*
X137273809Y-100954819D02*
X137273809Y-99954819D01*
X137892857Y-100954819D02*
X137892857Y-99954819D01*
X137892857Y-99954819D02*
X138273809Y-99954819D01*
X138273809Y-99954819D02*
X138369047Y-100002438D01*
X138369047Y-100002438D02*
X138416666Y-100050057D01*
X138416666Y-100050057D02*
X138464285Y-100145295D01*
X138464285Y-100145295D02*
X138464285Y-100288152D01*
X138464285Y-100288152D02*
X138416666Y-100383390D01*
X138416666Y-100383390D02*
X138369047Y-100431009D01*
X138369047Y-100431009D02*
X138273809Y-100478628D01*
X138273809Y-100478628D02*
X137892857Y-100478628D01*
X138845238Y-100050057D02*
X138892857Y-100002438D01*
X138892857Y-100002438D02*
X138988095Y-99954819D01*
X138988095Y-99954819D02*
X139226190Y-99954819D01*
X139226190Y-99954819D02*
X139321428Y-100002438D01*
X139321428Y-100002438D02*
X139369047Y-100050057D01*
X139369047Y-100050057D02*
X139416666Y-100145295D01*
X139416666Y-100145295D02*
X139416666Y-100240533D01*
X139416666Y-100240533D02*
X139369047Y-100383390D01*
X139369047Y-100383390D02*
X138797619Y-100954819D01*
X138797619Y-100954819D02*
X139416666Y-100954819D01*
X154920833Y-86024819D02*
X154587500Y-85548628D01*
X154349405Y-86024819D02*
X154349405Y-85024819D01*
X154349405Y-85024819D02*
X154730357Y-85024819D01*
X154730357Y-85024819D02*
X154825595Y-85072438D01*
X154825595Y-85072438D02*
X154873214Y-85120057D01*
X154873214Y-85120057D02*
X154920833Y-85215295D01*
X154920833Y-85215295D02*
X154920833Y-85358152D01*
X154920833Y-85358152D02*
X154873214Y-85453390D01*
X154873214Y-85453390D02*
X154825595Y-85501009D01*
X154825595Y-85501009D02*
X154730357Y-85548628D01*
X154730357Y-85548628D02*
X154349405Y-85548628D01*
X155254167Y-85024819D02*
X155873214Y-85024819D01*
X155873214Y-85024819D02*
X155539881Y-85405771D01*
X155539881Y-85405771D02*
X155682738Y-85405771D01*
X155682738Y-85405771D02*
X155777976Y-85453390D01*
X155777976Y-85453390D02*
X155825595Y-85501009D01*
X155825595Y-85501009D02*
X155873214Y-85596247D01*
X155873214Y-85596247D02*
X155873214Y-85834342D01*
X155873214Y-85834342D02*
X155825595Y-85929580D01*
X155825595Y-85929580D02*
X155777976Y-85977200D01*
X155777976Y-85977200D02*
X155682738Y-86024819D01*
X155682738Y-86024819D02*
X155397024Y-86024819D01*
X155397024Y-86024819D02*
X155301786Y-85977200D01*
X155301786Y-85977200D02*
X155254167Y-85929580D01*
X150054819Y-94261904D02*
X150864342Y-94261904D01*
X150864342Y-94261904D02*
X150959580Y-94214285D01*
X150959580Y-94214285D02*
X151007200Y-94166666D01*
X151007200Y-94166666D02*
X151054819Y-94071428D01*
X151054819Y-94071428D02*
X151054819Y-93880952D01*
X151054819Y-93880952D02*
X151007200Y-93785714D01*
X151007200Y-93785714D02*
X150959580Y-93738095D01*
X150959580Y-93738095D02*
X150864342Y-93690476D01*
X150864342Y-93690476D02*
X150054819Y-93690476D01*
X151054819Y-92690476D02*
X151054819Y-93261904D01*
X151054819Y-92976190D02*
X150054819Y-92976190D01*
X150054819Y-92976190D02*
X150197676Y-93071428D01*
X150197676Y-93071428D02*
X150292914Y-93166666D01*
X150292914Y-93166666D02*
X150340533Y-93261904D01*
X154220833Y-100904580D02*
X154173214Y-100952200D01*
X154173214Y-100952200D02*
X154030357Y-100999819D01*
X154030357Y-100999819D02*
X153935119Y-100999819D01*
X153935119Y-100999819D02*
X153792262Y-100952200D01*
X153792262Y-100952200D02*
X153697024Y-100856961D01*
X153697024Y-100856961D02*
X153649405Y-100761723D01*
X153649405Y-100761723D02*
X153601786Y-100571247D01*
X153601786Y-100571247D02*
X153601786Y-100428390D01*
X153601786Y-100428390D02*
X153649405Y-100237914D01*
X153649405Y-100237914D02*
X153697024Y-100142676D01*
X153697024Y-100142676D02*
X153792262Y-100047438D01*
X153792262Y-100047438D02*
X153935119Y-99999819D01*
X153935119Y-99999819D02*
X154030357Y-99999819D01*
X154030357Y-99999819D02*
X154173214Y-100047438D01*
X154173214Y-100047438D02*
X154220833Y-100095057D01*
X154554167Y-99999819D02*
X155173214Y-99999819D01*
X155173214Y-99999819D02*
X154839881Y-100380771D01*
X154839881Y-100380771D02*
X154982738Y-100380771D01*
X154982738Y-100380771D02*
X155077976Y-100428390D01*
X155077976Y-100428390D02*
X155125595Y-100476009D01*
X155125595Y-100476009D02*
X155173214Y-100571247D01*
X155173214Y-100571247D02*
X155173214Y-100809342D01*
X155173214Y-100809342D02*
X155125595Y-100904580D01*
X155125595Y-100904580D02*
X155077976Y-100952200D01*
X155077976Y-100952200D02*
X154982738Y-100999819D01*
X154982738Y-100999819D02*
X154697024Y-100999819D01*
X154697024Y-100999819D02*
X154601786Y-100952200D01*
X154601786Y-100952200D02*
X154554167Y-100904580D01*
X140888095Y-82209819D02*
X141459523Y-82209819D01*
X141173809Y-83209819D02*
X141173809Y-82209819D01*
X141792857Y-83209819D02*
X141792857Y-82209819D01*
X141792857Y-82209819D02*
X142173809Y-82209819D01*
X142173809Y-82209819D02*
X142269047Y-82257438D01*
X142269047Y-82257438D02*
X142316666Y-82305057D01*
X142316666Y-82305057D02*
X142364285Y-82400295D01*
X142364285Y-82400295D02*
X142364285Y-82543152D01*
X142364285Y-82543152D02*
X142316666Y-82638390D01*
X142316666Y-82638390D02*
X142269047Y-82686009D01*
X142269047Y-82686009D02*
X142173809Y-82733628D01*
X142173809Y-82733628D02*
X141792857Y-82733628D01*
X143316666Y-83209819D02*
X142745238Y-83209819D01*
X143030952Y-83209819D02*
X143030952Y-82209819D01*
X143030952Y-82209819D02*
X142935714Y-82352676D01*
X142935714Y-82352676D02*
X142840476Y-82447914D01*
X142840476Y-82447914D02*
X142745238Y-82495533D01*
X162083333Y-90954819D02*
X161750000Y-90478628D01*
X161511905Y-90954819D02*
X161511905Y-89954819D01*
X161511905Y-89954819D02*
X161892857Y-89954819D01*
X161892857Y-89954819D02*
X161988095Y-90002438D01*
X161988095Y-90002438D02*
X162035714Y-90050057D01*
X162035714Y-90050057D02*
X162083333Y-90145295D01*
X162083333Y-90145295D02*
X162083333Y-90288152D01*
X162083333Y-90288152D02*
X162035714Y-90383390D01*
X162035714Y-90383390D02*
X161988095Y-90431009D01*
X161988095Y-90431009D02*
X161892857Y-90478628D01*
X161892857Y-90478628D02*
X161511905Y-90478628D01*
X162940476Y-90288152D02*
X162940476Y-90954819D01*
X162702381Y-89907200D02*
X162464286Y-90621485D01*
X162464286Y-90621485D02*
X163083333Y-90621485D01*
X161488095Y-84454819D02*
X161488095Y-83454819D01*
X161488095Y-83931009D02*
X162059523Y-83931009D01*
X162059523Y-84454819D02*
X162059523Y-83454819D01*
X162488095Y-83550057D02*
X162535714Y-83502438D01*
X162535714Y-83502438D02*
X162630952Y-83454819D01*
X162630952Y-83454819D02*
X162869047Y-83454819D01*
X162869047Y-83454819D02*
X162964285Y-83502438D01*
X162964285Y-83502438D02*
X163011904Y-83550057D01*
X163011904Y-83550057D02*
X163059523Y-83645295D01*
X163059523Y-83645295D02*
X163059523Y-83740533D01*
X163059523Y-83740533D02*
X163011904Y-83883390D01*
X163011904Y-83883390D02*
X162440476Y-84454819D01*
X162440476Y-84454819D02*
X163059523Y-84454819D01*
D12*
%TO.C,C1*%
X158988748Y-86265000D02*
X159511252Y-86265000D01*
X158988748Y-87735000D02*
X159511252Y-87735000D01*
%TO.C,J2*%
X148040000Y-113710000D02*
X148040000Y-108290000D01*
X156760000Y-108290000D02*
X148040000Y-108290000D01*
X156760000Y-113710000D02*
X148040000Y-113710000D01*
X158460000Y-109590000D02*
X156760000Y-108290000D01*
X158460000Y-112410000D02*
X156760000Y-113710000D01*
X158460000Y-112410000D02*
X158460000Y-109590000D01*
%TO.C,R2*%
X150995276Y-104477500D02*
X151504724Y-104477500D01*
X150995276Y-105522500D02*
X151504724Y-105522500D01*
D13*
%TO.C,L1*%
X137725000Y-98045000D02*
X137725000Y-86865000D01*
D14*
X143250000Y-98555000D02*
X143250000Y-98555000D01*
X143250000Y-98655000D02*
X143250000Y-98655000D01*
D13*
X148775000Y-98045000D02*
X148775000Y-86865000D01*
D14*
X143250000Y-98555000D02*
G75*
G02*
X143250000Y-98655000I0J-50000D01*
G01*
X143250000Y-98655000D02*
G75*
G02*
X143250000Y-98555000I0J50000D01*
G01*
D12*
%TO.C,C2*%
X138670000Y-108033000D02*
X138670000Y-106967000D01*
X138710000Y-108268000D02*
X138710000Y-106732000D01*
X138750000Y-108447000D02*
X138750000Y-106553000D01*
X138790000Y-108597000D02*
X138790000Y-106403000D01*
X138830000Y-108728000D02*
X138830000Y-106272000D01*
X138870000Y-108846000D02*
X138870000Y-106154000D01*
X138910000Y-108953000D02*
X138910000Y-106047000D01*
X138950000Y-109052000D02*
X138950000Y-105948000D01*
X138990000Y-109144000D02*
X138990000Y-105856000D01*
X139030000Y-109231000D02*
X139030000Y-105769000D01*
X139070000Y-109313000D02*
X139070000Y-105687000D01*
X139110000Y-109390000D02*
X139110000Y-105610000D01*
X139150000Y-109464000D02*
X139150000Y-105536000D01*
X139190000Y-109534000D02*
X139190000Y-105466000D01*
X139230000Y-106460000D02*
X139230000Y-105399000D01*
X139230000Y-109601000D02*
X139230000Y-108540000D01*
X139270000Y-106460000D02*
X139270000Y-105335000D01*
X139270000Y-109665000D02*
X139270000Y-108540000D01*
X139310000Y-106460000D02*
X139310000Y-105273000D01*
X139310000Y-109727000D02*
X139310000Y-108540000D01*
X139350000Y-106460000D02*
X139350000Y-105213000D01*
X139350000Y-109787000D02*
X139350000Y-108540000D01*
X139390000Y-106460000D02*
X139390000Y-105156000D01*
X139390000Y-109844000D02*
X139390000Y-108540000D01*
X139430000Y-106460000D02*
X139430000Y-105100000D01*
X139430000Y-109900000D02*
X139430000Y-108540000D01*
X139470000Y-106460000D02*
X139470000Y-105047000D01*
X139470000Y-109953000D02*
X139470000Y-108540000D01*
X139510000Y-106460000D02*
X139510000Y-104995000D01*
X139510000Y-110005000D02*
X139510000Y-108540000D01*
X139550000Y-106460000D02*
X139550000Y-104945000D01*
X139550000Y-110055000D02*
X139550000Y-108540000D01*
X139590000Y-106460000D02*
X139590000Y-104896000D01*
X139590000Y-110104000D02*
X139590000Y-108540000D01*
X139630000Y-106460000D02*
X139630000Y-104849000D01*
X139630000Y-110151000D02*
X139630000Y-108540000D01*
X139670000Y-106460000D02*
X139670000Y-104804000D01*
X139670000Y-110196000D02*
X139670000Y-108540000D01*
X139710000Y-106460000D02*
X139710000Y-104759000D01*
X139710000Y-110241000D02*
X139710000Y-108540000D01*
X139750000Y-106460000D02*
X139750000Y-104716000D01*
X139750000Y-110284000D02*
X139750000Y-108540000D01*
X139790000Y-106460000D02*
X139790000Y-104674000D01*
X139790000Y-110326000D02*
X139790000Y-108540000D01*
X139830000Y-106460000D02*
X139830000Y-104633000D01*
X139830000Y-110367000D02*
X139830000Y-108540000D01*
X139870000Y-106460000D02*
X139870000Y-104594000D01*
X139870000Y-110406000D02*
X139870000Y-108540000D01*
X139910000Y-106460000D02*
X139910000Y-104555000D01*
X139910000Y-110445000D02*
X139910000Y-108540000D01*
X139950000Y-106460000D02*
X139950000Y-104518000D01*
X139950000Y-110482000D02*
X139950000Y-108540000D01*
X139990000Y-106460000D02*
X139990000Y-104481000D01*
X139990000Y-110519000D02*
X139990000Y-108540000D01*
X140030000Y-106460000D02*
X140030000Y-104445000D01*
X140030000Y-110555000D02*
X140030000Y-108540000D01*
X140070000Y-106460000D02*
X140070000Y-104411000D01*
X140070000Y-110589000D02*
X140070000Y-108540000D01*
X140110000Y-106460000D02*
X140110000Y-104377000D01*
X140110000Y-110623000D02*
X140110000Y-108540000D01*
X140150000Y-106460000D02*
X140150000Y-104344000D01*
X140150000Y-110656000D02*
X140150000Y-108540000D01*
X140190000Y-106460000D02*
X140190000Y-104312000D01*
X140190000Y-110688000D02*
X140190000Y-108540000D01*
X140230000Y-106460000D02*
X140230000Y-104281000D01*
X140230000Y-110719000D02*
X140230000Y-108540000D01*
X140270000Y-106460000D02*
X140270000Y-104250000D01*
X140270000Y-110750000D02*
X140270000Y-108540000D01*
X140310000Y-106460000D02*
X140310000Y-104220000D01*
X140310000Y-110780000D02*
X140310000Y-108540000D01*
X140350000Y-106460000D02*
X140350000Y-104191000D01*
X140350000Y-110809000D02*
X140350000Y-108540000D01*
X140390000Y-106460000D02*
X140390000Y-104163000D01*
X140390000Y-110837000D02*
X140390000Y-108540000D01*
X140430000Y-106460000D02*
X140430000Y-104135000D01*
X140430000Y-110865000D02*
X140430000Y-108540000D01*
X140470000Y-106460000D02*
X140470000Y-104108000D01*
X140470000Y-110892000D02*
X140470000Y-108540000D01*
X140510000Y-106460000D02*
X140510000Y-104082000D01*
X140510000Y-110918000D02*
X140510000Y-108540000D01*
X140550000Y-106460000D02*
X140550000Y-104057000D01*
X140550000Y-110943000D02*
X140550000Y-108540000D01*
X140590000Y-106460000D02*
X140590000Y-104032000D01*
X140590000Y-110968000D02*
X140590000Y-108540000D01*
X140630000Y-106460000D02*
X140630000Y-104007000D01*
X140630000Y-110993000D02*
X140630000Y-108540000D01*
X140670000Y-106460000D02*
X140670000Y-103984000D01*
X140670000Y-111016000D02*
X140670000Y-108540000D01*
X140710000Y-106460000D02*
X140710000Y-103961000D01*
X140710000Y-111039000D02*
X140710000Y-108540000D01*
X140750000Y-106460000D02*
X140750000Y-103938000D01*
X140750000Y-111062000D02*
X140750000Y-108540000D01*
X140790000Y-106460000D02*
X140790000Y-103916000D01*
X140790000Y-111084000D02*
X140790000Y-108540000D01*
X140830000Y-106460000D02*
X140830000Y-103895000D01*
X140830000Y-111105000D02*
X140830000Y-108540000D01*
X140870000Y-106460000D02*
X140870000Y-103874000D01*
X140870000Y-111126000D02*
X140870000Y-108540000D01*
X140910000Y-106460000D02*
X140910000Y-103854000D01*
X140910000Y-111146000D02*
X140910000Y-108540000D01*
X140950000Y-106460000D02*
X140950000Y-103834000D01*
X140950000Y-111166000D02*
X140950000Y-108540000D01*
X140990000Y-106460000D02*
X140990000Y-103815000D01*
X140990000Y-111185000D02*
X140990000Y-108540000D01*
X141030000Y-106460000D02*
X141030000Y-103796000D01*
X141030000Y-111204000D02*
X141030000Y-108540000D01*
X141070000Y-106460000D02*
X141070000Y-103778000D01*
X141070000Y-111222000D02*
X141070000Y-108540000D01*
X141110000Y-106460000D02*
X141110000Y-103760000D01*
X141110000Y-111240000D02*
X141110000Y-108540000D01*
X141150000Y-106460000D02*
X141150000Y-103743000D01*
X141150000Y-111257000D02*
X141150000Y-108540000D01*
X141190000Y-106460000D02*
X141190000Y-103727000D01*
X141190000Y-111273000D02*
X141190000Y-108540000D01*
X141230000Y-106460000D02*
X141230000Y-103711000D01*
X141230000Y-111289000D02*
X141230000Y-108540000D01*
X141270000Y-106460000D02*
X141270000Y-103695000D01*
X141270000Y-111305000D02*
X141270000Y-108540000D01*
X141310000Y-111320000D02*
X141310000Y-103680000D01*
X141350000Y-111335000D02*
X141350000Y-103665000D01*
X141390000Y-111349000D02*
X141390000Y-103651000D01*
X141430000Y-111363000D02*
X141430000Y-103637000D01*
X141470000Y-111376000D02*
X141470000Y-103624000D01*
X141510000Y-111389000D02*
X141510000Y-103611000D01*
X141550000Y-111401000D02*
X141550000Y-103599000D01*
X141590000Y-111413000D02*
X141590000Y-103587000D01*
X141630000Y-111425000D02*
X141630000Y-103575000D01*
X141670000Y-111436000D02*
X141670000Y-103564000D01*
X141710000Y-111447000D02*
X141710000Y-103553000D01*
X141750000Y-111457000D02*
X141750000Y-103543000D01*
X141790000Y-111467000D02*
X141790000Y-103533000D01*
X141830000Y-111476000D02*
X141830000Y-103524000D01*
X141870000Y-111485000D02*
X141870000Y-103515000D01*
X141910000Y-111493000D02*
X141910000Y-103507000D01*
X141950000Y-111502000D02*
X141950000Y-103498000D01*
X141990000Y-111509000D02*
X141990000Y-103491000D01*
X142030000Y-111517000D02*
X142030000Y-103483000D01*
X142070000Y-111523000D02*
X142070000Y-103477000D01*
X142110000Y-111530000D02*
X142110000Y-103470000D01*
X142150000Y-111536000D02*
X142150000Y-103464000D01*
X142190000Y-111542000D02*
X142190000Y-103458000D01*
X142230000Y-111547000D02*
X142230000Y-103453000D01*
X142270000Y-111552000D02*
X142270000Y-103448000D01*
X142310000Y-111556000D02*
X142310000Y-103444000D01*
X142350000Y-111561000D02*
X142350000Y-103439000D01*
X142390000Y-111564000D02*
X142390000Y-103436000D01*
X142430000Y-111568000D02*
X142430000Y-103432000D01*
X142470000Y-111570000D02*
X142470000Y-103430000D01*
X142510000Y-111573000D02*
X142510000Y-103427000D01*
X142550000Y-111575000D02*
X142550000Y-103425000D01*
X142590000Y-111577000D02*
X142590000Y-103423000D01*
X142630000Y-111578000D02*
X142630000Y-103422000D01*
X142670000Y-111579000D02*
X142670000Y-103421000D01*
X142710000Y-111580000D02*
X142710000Y-103420000D01*
X142750000Y-111580000D02*
X142750000Y-103420000D01*
X146759698Y-110215000D02*
X146759698Y-109415000D01*
X147159698Y-109815000D02*
X146359698Y-109815000D01*
X146870000Y-107500000D02*
G75*
G02*
X138630000Y-107500000I-4120000J0D01*
G01*
X138630000Y-107500000D02*
G75*
G02*
X146870000Y-107500000I4120000J0D01*
G01*
%TO.C,J1*%
X147040000Y-80340000D02*
X147040000Y-83160000D01*
X147040000Y-80340000D02*
X148740000Y-79040000D01*
X147040000Y-83160000D02*
X148740000Y-84460000D01*
X148740000Y-79040000D02*
X157460000Y-79040000D01*
X148740000Y-84460000D02*
X157460000Y-84460000D01*
X157460000Y-79040000D02*
X157460000Y-84460000D01*
%TO.C,J3*%
X157640000Y-97310000D02*
X157640000Y-98910000D01*
X157640000Y-98910000D02*
X159440000Y-98910000D01*
X158910000Y-94440000D02*
X162340000Y-94440000D01*
X159440000Y-98910000D02*
X159440000Y-99850000D01*
X163610000Y-97310000D02*
X163610000Y-98910000D01*
X163610000Y-98910000D02*
X161810000Y-98910000D01*
%TO.C,R1*%
X151515000Y-87522936D02*
X151515000Y-87977064D01*
X152985000Y-87522936D02*
X152985000Y-87977064D01*
%TO.C,J4*%
X157640000Y-104310000D02*
X157640000Y-105910000D01*
X157640000Y-105910000D02*
X159440000Y-105910000D01*
X158910000Y-101440000D02*
X162340000Y-101440000D01*
X159440000Y-105910000D02*
X159440000Y-106850000D01*
X163610000Y-104310000D02*
X163610000Y-105910000D01*
X163610000Y-105910000D02*
X161810000Y-105910000D01*
%TO.C,D1*%
X146750000Y-103710000D02*
X146750000Y-99850000D01*
X146750000Y-103710000D02*
X148750000Y-103710000D01*
X148750000Y-103710000D02*
X148750000Y-99850000D01*
%TO.C,TP2*%
X139850000Y-99555000D02*
X139850000Y-101355000D01*
X139850000Y-101355000D02*
X143650000Y-101355000D01*
X143650000Y-99555000D02*
X139850000Y-99555000D01*
X143650000Y-101355000D02*
X143650000Y-99555000D01*
%TO.C,R3*%
X154832776Y-86477500D02*
X155342224Y-86477500D01*
X154832776Y-87522500D02*
X155342224Y-87522500D01*
%TO.C,U1*%
X151440000Y-93500000D02*
X151440000Y-91550000D01*
X151440000Y-93500000D02*
X151440000Y-95450000D01*
X156560000Y-93500000D02*
X156560000Y-91550000D01*
X156560000Y-93500000D02*
X156560000Y-95450000D01*
X151535000Y-96200000D02*
X151205000Y-96440000D01*
X151205000Y-95960000D01*
X151535000Y-96200000D01*
G36*
X151535000Y-96200000D02*
G01*
X151205000Y-96440000D01*
X151205000Y-95960000D01*
X151535000Y-96200000D01*
G37*
%TO.C,C3*%
X154241233Y-98490000D02*
X154533767Y-98490000D01*
X154241233Y-99510000D02*
X154533767Y-99510000D01*
%TO.C,TP1*%
X140350000Y-83555000D02*
X140350000Y-85355000D01*
X140350000Y-85355000D02*
X144150000Y-85355000D01*
X144150000Y-83555000D02*
X140350000Y-83555000D01*
X144150000Y-85355000D02*
X144150000Y-83555000D01*
%TO.C,R4*%
X159082776Y-89977500D02*
X159592224Y-89977500D01*
X159082776Y-91022500D02*
X159592224Y-91022500D01*
%TD*%
%LPC*%
D15*
%TO.C,C1*%
X158300000Y-87000000D03*
X160200000Y-87000000D03*
%TD*%
D16*
%TO.C,H4*%
X162250000Y-115000000D03*
%TD*%
%TO.C,H1*%
X138250000Y-80500000D03*
%TD*%
D17*
%TO.C,J2*%
X155750000Y-111000000D03*
D18*
X150750000Y-111000000D03*
%TD*%
D19*
%TO.C,R2*%
X150337500Y-105000000D03*
X152162500Y-105000000D03*
%TD*%
D20*
%TO.C,L1*%
X143250000Y-97025000D03*
X143250000Y-87885000D03*
%TD*%
D21*
%TO.C,C2*%
X145250000Y-107500000D03*
D22*
X140250000Y-107500000D03*
%TD*%
D23*
%TO.C,J1*%
X149750000Y-81750000D03*
D24*
X154750000Y-81750000D03*
%TD*%
D25*
%TO.C,J3*%
X160000000Y-99000000D03*
X161250000Y-99000000D03*
D26*
X158150000Y-95650000D03*
X163100000Y-95650000D03*
%TD*%
D27*
%TO.C,R1*%
X152250000Y-86750000D03*
X152250000Y-88750000D03*
%TD*%
D16*
%TO.C,H3*%
X138250000Y-115000000D03*
%TD*%
D25*
%TO.C,J4*%
X160000000Y-106000000D03*
X161250000Y-106000000D03*
D26*
X158150000Y-102650000D03*
X163100000Y-102650000D03*
%TD*%
D28*
%TO.C,D1*%
X147750000Y-102900000D03*
X147750000Y-100100000D03*
%TD*%
D29*
%TO.C,TP2*%
X142750000Y-100455000D03*
X140750000Y-100455000D03*
%TD*%
D19*
%TO.C,R3*%
X154175000Y-87000000D03*
X156000000Y-87000000D03*
%TD*%
D30*
%TO.C,U1*%
X152095000Y-95975000D03*
X153365000Y-95975000D03*
X154635000Y-95975000D03*
X155905000Y-95975000D03*
X155905000Y-91025000D03*
X154635000Y-91025000D03*
X153365000Y-91025000D03*
X152095000Y-91025000D03*
%TD*%
D31*
%TO.C,C3*%
X153525000Y-99000000D03*
X155250000Y-99000000D03*
%TD*%
D29*
%TO.C,TP1*%
X143250000Y-84455000D03*
X141250000Y-84455000D03*
%TD*%
D19*
%TO.C,R4*%
X158425000Y-90500000D03*
X160250000Y-90500000D03*
%TD*%
D16*
%TO.C,H2*%
X162250000Y-80500000D03*
%TD*%
%LPD*%
M02*
