%TF.GenerationSoftware,KiCad,Pcbnew,9.0.4*%
%TF.CreationDate,2025-09-26T17:32:34-05:00*%
%TF.ProjectId,Onboarding,4f6e626f-6172-4646-996e-672e6b696361,rev?*%
%TF.SameCoordinates,Original*%
%TF.FileFunction,Copper,L1,Top*%
%TF.FilePolarity,Positive*%
%FSLAX46Y46*%
G04 Gerber Fmt 4.6, Leading zero omitted, Abs format (unit mm)*
G04 Created by KiCad (PCBNEW 9.0.4) date 2025-09-26 17:32:34*
%MOMM*%
%LPD*%
G01*
G04 APERTURE LIST*
G04 Aperture macros list*
%AMRoundRect*
0 Rectangle with rounded corners*
0 $1 Rounding radius*
0 $2 $3 $4 $5 $6 $7 $8 $9 X,Y pos of 4 corners*
0 Add a 4 corners polygon primitive as box body*
4,1,4,$2,$3,$4,$5,$6,$7,$8,$9,$2,$3,0*
0 Add four circle primitives for the rounded corners*
1,1,$1+$1,$2,$3*
1,1,$1+$1,$4,$5*
1,1,$1+$1,$6,$7*
1,1,$1+$1,$8,$9*
0 Add four rect primitives between the rounded corners*
20,1,$1+$1,$2,$3,$4,$5,0*
20,1,$1+$1,$4,$5,$6,$7,0*
20,1,$1+$1,$6,$7,$8,$9,0*
20,1,$1+$1,$8,$9,$2,$3,0*%
G04 Aperture macros list end*
%TA.AperFunction,ComponentPad*%
%ADD10O,2.641600X1.320800*%
%TD*%
%TA.AperFunction,SMDPad,CuDef*%
%ADD11RoundRect,0.150000X-0.700000X0.150000X-0.700000X-0.150000X0.700000X-0.150000X0.700000X0.150000X0*%
%TD*%
%TA.AperFunction,SMDPad,CuDef*%
%ADD12RoundRect,0.250000X-1.150000X0.250000X-1.150000X-0.250000X1.150000X-0.250000X1.150000X0.250000X0*%
%TD*%
%TA.AperFunction,SMDPad,CuDef*%
%ADD13RoundRect,0.200000X-0.275000X0.200000X-0.275000X-0.200000X0.275000X-0.200000X0.275000X0.200000X0*%
%TD*%
%TA.AperFunction,SMDPad,CuDef*%
%ADD14RoundRect,0.135000X-0.185000X0.135000X-0.185000X-0.135000X0.185000X-0.135000X0.185000X0.135000X0*%
%TD*%
%TA.AperFunction,SMDPad,CuDef*%
%ADD15RoundRect,0.225000X-0.250000X0.225000X-0.250000X-0.225000X0.250000X-0.225000X0.250000X0.225000X0*%
%TD*%
%TA.AperFunction,SMDPad,CuDef*%
%ADD16RoundRect,0.200000X0.200000X0.275000X-0.200000X0.275000X-0.200000X-0.275000X0.200000X-0.275000X0*%
%TD*%
%TA.AperFunction,SMDPad,CuDef*%
%ADD17RoundRect,0.250000X-0.550000X1.500000X-0.550000X-1.500000X0.550000X-1.500000X0.550000X1.500000X0*%
%TD*%
%TA.AperFunction,ComponentPad*%
%ADD18RoundRect,0.249999X-0.850001X-0.850001X0.850001X-0.850001X0.850001X0.850001X-0.850001X0.850001X0*%
%TD*%
%TA.AperFunction,ComponentPad*%
%ADD19C,2.200000*%
%TD*%
%TA.AperFunction,SMDPad,CuDef*%
%ADD20RoundRect,0.250000X0.262500X0.450000X-0.262500X0.450000X-0.262500X-0.450000X0.262500X-0.450000X0*%
%TD*%
%TA.AperFunction,SMDPad,CuDef*%
%ADD21RoundRect,0.250000X-0.550000X1.250000X-0.550000X-1.250000X0.550000X-1.250000X0.550000X1.250000X0*%
%TD*%
%TA.AperFunction,ComponentPad*%
%ADD22C,3.800000*%
%TD*%
%TA.AperFunction,ComponentPad*%
%ADD23RoundRect,0.760000X-1.140000X1.140000X-1.140000X-1.140000X1.140000X-1.140000X1.140000X1.140000X0*%
%TD*%
%TA.AperFunction,SMDPad,CuDef*%
%ADD24RoundRect,0.218750X0.256250X-0.218750X0.256250X0.218750X-0.256250X0.218750X-0.256250X-0.218750X0*%
%TD*%
%TA.AperFunction,ComponentPad*%
%ADD25C,4.000000*%
%TD*%
%TA.AperFunction,Conductor*%
%ADD26C,0.200000*%
%TD*%
G04 APERTURE END LIST*
D10*
%TO.P,IC1,8,DRC*%
%TO.N,Net-(IC1-DRC)*%
X109310000Y-74690000D03*
%TO.P,IC1,7,IPK*%
%TO.N,Net-(IC1-IPK)*%
X109310000Y-77230000D03*
%TO.P,IC1,6,VCC*%
%TO.N,+12V*%
X109310000Y-79770000D03*
%TO.P,IC1,5,COMP*%
%TO.N,Net-(IC1-COMP)*%
X109310000Y-82310000D03*
%TO.P,IC1,4,GND*%
%TO.N,GND*%
X101690000Y-82310000D03*
%TO.P,IC1,3,TC*%
%TO.N,Net-(IC1-TC)*%
X101690000Y-79770000D03*
%TO.P,IC1,2,SWE*%
%TO.N,GND*%
X101690000Y-77230000D03*
%TO.P,IC1,1,SWC*%
%TO.N,Net-(D2-A)*%
X101690000Y-74690000D03*
%TD*%
D11*
%TO.P,J4,1,Pin_1*%
%TO.N,/CAN-*%
X97900000Y-64400000D03*
%TO.P,J4,2,Pin_2*%
%TO.N,/CAN+*%
X97900000Y-65650000D03*
D12*
%TO.P,J4,MP*%
%TO.N,N/C*%
X101250000Y-62550000D03*
X101250000Y-67500000D03*
%TD*%
D11*
%TO.P,J3,1,Pin_1*%
%TO.N,/CAN-*%
X109650000Y-64400000D03*
%TO.P,J3,2,Pin_2*%
%TO.N,/CAN+*%
X109650000Y-65650000D03*
D12*
%TO.P,J3,MP*%
%TO.N,N/C*%
X113000000Y-62550000D03*
X113000000Y-67500000D03*
%TD*%
D13*
%TO.P,R3,2*%
%TO.N,+12V*%
X112750000Y-79250000D03*
%TO.P,R3,1*%
%TO.N,Net-(IC1-IPK)*%
X112750000Y-77600000D03*
%TD*%
D14*
%TO.P,R1,2*%
%TO.N,GND*%
X105500000Y-85500000D03*
%TO.P,R1,1*%
%TO.N,Net-(IC1-COMP)*%
X105500000Y-84480000D03*
%TD*%
D15*
%TO.P,C2,2*%
%TO.N,GND*%
X99500000Y-81000000D03*
%TO.P,C2,1*%
%TO.N,Net-(IC1-TC)*%
X99500000Y-79450000D03*
%TD*%
D16*
%TO.P,R4,2*%
%TO.N,Net-(IC1-DRC)*%
X111600000Y-75000000D03*
%TO.P,R4,1*%
%TO.N,Net-(IC1-IPK)*%
X113250000Y-75000000D03*
%TD*%
D17*
%TO.P,C1,2*%
%TO.N,GND*%
X94300000Y-87900000D03*
%TO.P,C1,1*%
%TO.N,VCC*%
X94300000Y-82500000D03*
%TD*%
D18*
%TO.P,D2,1,K*%
%TO.N,VCC*%
X100340000Y-70500000D03*
D19*
%TO.P,D2,2,A*%
%TO.N,Net-(D2-A)*%
X110500000Y-70500000D03*
%TD*%
D20*
%TO.P,R2,1*%
%TO.N,Net-(IC1-COMP)*%
X101912500Y-85000000D03*
%TO.P,R2,2*%
%TO.N,VCC*%
X100087500Y-85000000D03*
%TD*%
D21*
%TO.P,C3,1*%
%TO.N,+12V*%
X113000000Y-83000000D03*
%TO.P,C3,2*%
%TO.N,GND*%
X113000000Y-87400000D03*
%TD*%
D22*
%TO.P,J2,2,Pin_2*%
%TO.N,VCC*%
X94500000Y-75750000D03*
D23*
%TO.P,J2,1,Pin_1*%
%TO.N,GND*%
X94500000Y-70750000D03*
%TD*%
D24*
%TO.P,L1,2,2*%
%TO.N,Net-(D2-A)*%
X113250000Y-71425000D03*
%TO.P,L1,1,1*%
%TO.N,Net-(IC1-IPK)*%
X113250000Y-73000000D03*
%TD*%
D25*
%TO.P,J1,2,Pin_2*%
%TO.N,+12V*%
X118000000Y-79000000D03*
D23*
%TO.P,J1,1,Pin_1*%
%TO.N,GND*%
X118000000Y-74000000D03*
%TD*%
D26*
%TO.N,GND*%
X112750000Y-87400000D02*
X113000000Y-87400000D01*
X105500000Y-85500000D02*
X110850000Y-85500000D01*
%TO.N,+12V*%
X112750000Y-82750000D02*
X113000000Y-83000000D01*
X112750000Y-79250000D02*
X112750000Y-82750000D01*
%TO.N,GND*%
X110850000Y-85500000D02*
X112750000Y-87400000D01*
%TO.N,VCC*%
X99587500Y-84500000D02*
X100087500Y-85000000D01*
X94300000Y-81550000D02*
X97250000Y-84500000D01*
%TO.N,Net-(IC1-COMP)*%
X105020000Y-84000000D02*
X105500000Y-84480000D01*
X101912500Y-84500000D02*
X102412500Y-84000000D01*
X101912500Y-85000000D02*
X101912500Y-84500000D01*
X102412500Y-84000000D02*
X105020000Y-84000000D01*
%TO.N,VCC*%
X97250000Y-84500000D02*
X99587500Y-84500000D01*
%TO.N,Net-(IC1-IPK)*%
X112750000Y-75750000D02*
X112750000Y-77600000D01*
X113250000Y-75250000D02*
X112750000Y-75750000D01*
X113250000Y-75000000D02*
X113250000Y-75250000D01*
X109680000Y-77600000D02*
X109310000Y-77230000D01*
X112750000Y-77600000D02*
X109680000Y-77600000D01*
%TO.N,GND*%
X100380000Y-81000000D02*
X101690000Y-82310000D01*
X99500000Y-81000000D02*
X100380000Y-81000000D01*
X89500000Y-83100000D02*
X94300000Y-87900000D01*
X89500000Y-73500000D02*
X89500000Y-83100000D01*
X92250000Y-70750000D02*
X89500000Y-73500000D01*
X94500000Y-70750000D02*
X92250000Y-70750000D01*
X105500000Y-86000000D02*
X105500000Y-85500000D01*
X103600000Y-87900000D02*
X105500000Y-86000000D01*
X94300000Y-87900000D02*
X103600000Y-87900000D01*
%TO.N,Net-(D2-A)*%
X101690000Y-73310000D02*
X102500000Y-72500000D01*
X102500000Y-72500000D02*
X108500000Y-72500000D01*
X101690000Y-74690000D02*
X101690000Y-73310000D01*
X108500000Y-72500000D02*
X110500000Y-70500000D01*
%TO.N,Net-(IC1-TC)*%
X101540000Y-79770000D02*
X101690000Y-79770000D01*
X101220000Y-79450000D02*
X101540000Y-79770000D01*
X99500000Y-79450000D02*
X101220000Y-79450000D01*
%TO.N,Net-(IC1-COMP)*%
X109000000Y-82620000D02*
X109310000Y-82310000D01*
X105500000Y-84480000D02*
X108020000Y-84480000D01*
%TO.N,+12V*%
X109830000Y-79250000D02*
X109310000Y-79770000D01*
X112750000Y-79250000D02*
X109830000Y-79250000D01*
%TO.N,Net-(IC1-DRC)*%
X109480000Y-74690000D02*
X109310000Y-74690000D01*
X109790000Y-75000000D02*
X109480000Y-74690000D01*
X111600000Y-75000000D02*
X109790000Y-75000000D01*
%TO.N,Net-(IC1-COMP)*%
X109000000Y-83500000D02*
X109000000Y-82620000D01*
X108020000Y-84480000D02*
X109000000Y-83500000D01*
%TO.N,+12V*%
X113750000Y-78750000D02*
X117750000Y-78750000D01*
X113250000Y-79250000D02*
X113750000Y-78750000D01*
X112750000Y-79250000D02*
X113250000Y-79250000D01*
X117750000Y-78750000D02*
X118000000Y-79000000D01*
%TO.N,/CAN-*%
X99449999Y-65449999D02*
X99000000Y-65000000D01*
X108232901Y-65449999D02*
X99449999Y-65449999D01*
X109201000Y-64849000D02*
X108833900Y-64849000D01*
X108833900Y-64849000D02*
X108232901Y-65449999D01*
X109650000Y-64400000D02*
X109201000Y-64849000D01*
X99000000Y-65000000D02*
X98549000Y-65000000D01*
X109650000Y-64400000D02*
X109250000Y-64800000D01*
X109250000Y-64800000D02*
X109000000Y-64800000D01*
X97893852Y-64350596D02*
X98542852Y-64999596D01*
%TO.N,/CAN+*%
X109036397Y-65650000D02*
X109650000Y-65650000D01*
X108786397Y-65900000D02*
X109036397Y-65650000D01*
X97900000Y-65900000D02*
X108786397Y-65900000D01*
%TO.N,Net-(D2-A)*%
X112325000Y-70500000D02*
X113250000Y-71425000D01*
%TO.N,Net-(IC1-IPK)*%
X113250000Y-73000000D02*
X113250000Y-75000000D01*
%TO.N,Net-(D2-A)*%
X110500000Y-70500000D02*
X112325000Y-70500000D01*
%TD*%
%TA.AperFunction,Conductor*%
%TO.N,VCC*%
G36*
X98698766Y-69707208D02*
G01*
X98735547Y-69766612D01*
X98740000Y-69799543D01*
X98740000Y-70250000D01*
X99849252Y-70250000D01*
X99827482Y-70287708D01*
X99790000Y-70427591D01*
X99790000Y-70572409D01*
X99827482Y-70712292D01*
X99849252Y-70750000D01*
X98740001Y-70750000D01*
X98740001Y-71399986D01*
X98750494Y-71502696D01*
X98750494Y-71502698D01*
X98805640Y-71669119D01*
X98805645Y-71669130D01*
X98897680Y-71818340D01*
X98897683Y-71818344D01*
X99021655Y-71942316D01*
X99021659Y-71942319D01*
X99170869Y-72034354D01*
X99170880Y-72034359D01*
X99337302Y-72089505D01*
X99440019Y-72099999D01*
X100089999Y-72099999D01*
X100090000Y-72099998D01*
X100090000Y-70990747D01*
X100127708Y-71012518D01*
X100267591Y-71050000D01*
X100412409Y-71050000D01*
X100552292Y-71012518D01*
X100590000Y-70990747D01*
X100590000Y-72099999D01*
X100626319Y-72136318D01*
X100623122Y-72139514D01*
X100651695Y-72172488D01*
X100661639Y-72241646D01*
X100632614Y-72305202D01*
X100580608Y-72340774D01*
X100519636Y-72362550D01*
X100519634Y-72362552D01*
X99860463Y-73395355D01*
X99860462Y-73395357D01*
X97401822Y-79635312D01*
X97185828Y-80636738D01*
X97750000Y-81875000D01*
X97750001Y-81875002D01*
X99282580Y-83183690D01*
X99282583Y-83183692D01*
X100585484Y-83546525D01*
X100745622Y-83591121D01*
X100804923Y-83628069D01*
X100834835Y-83691213D01*
X100836310Y-83707185D01*
X100837380Y-83746301D01*
X100819536Y-83813854D01*
X100768002Y-83861036D01*
X100699142Y-83872867D01*
X100674423Y-83867398D01*
X100502700Y-83810495D01*
X100502690Y-83810493D01*
X100399986Y-83800000D01*
X100337500Y-83800000D01*
X100337500Y-84876000D01*
X100317815Y-84943039D01*
X100265011Y-84988794D01*
X100213500Y-85000000D01*
X100087500Y-85000000D01*
X100087500Y-85126000D01*
X100067815Y-85193039D01*
X100015011Y-85238794D01*
X99963500Y-85250000D01*
X99075000Y-85250000D01*
X99058171Y-85266828D01*
X99055315Y-85276556D01*
X99002511Y-85322311D01*
X98933897Y-85332332D01*
X95346701Y-84832782D01*
X95283017Y-84804039D01*
X95244983Y-84745429D01*
X95244673Y-84675560D01*
X95282187Y-84616615D01*
X95298709Y-84604427D01*
X95318345Y-84592315D01*
X95410647Y-84500013D01*
X99075000Y-84500013D01*
X99075000Y-84750000D01*
X99837500Y-84750000D01*
X99837500Y-83800000D01*
X99837499Y-83799999D01*
X99775028Y-83800000D01*
X99775011Y-83800001D01*
X99672302Y-83810494D01*
X99505880Y-83865641D01*
X99505875Y-83865643D01*
X99356654Y-83957684D01*
X99232684Y-84081654D01*
X99140643Y-84230875D01*
X99140641Y-84230880D01*
X99085494Y-84397302D01*
X99085493Y-84397309D01*
X99075000Y-84500013D01*
X95410647Y-84500013D01*
X95442317Y-84468343D01*
X95464877Y-84431768D01*
X95464877Y-84431767D01*
X95534353Y-84319130D01*
X95534358Y-84319119D01*
X95589505Y-84152697D01*
X95589506Y-84152690D01*
X95599999Y-84049986D01*
X95600000Y-84049973D01*
X95600000Y-82750000D01*
X94424000Y-82750000D01*
X94356961Y-82730315D01*
X94311206Y-82677511D01*
X94300000Y-82626000D01*
X94300000Y-82500000D01*
X94174000Y-82500000D01*
X94106961Y-82480315D01*
X94061206Y-82427511D01*
X94050000Y-82376000D01*
X94050000Y-82250000D01*
X94550000Y-82250000D01*
X95599999Y-82250000D01*
X95599999Y-80950028D01*
X95599998Y-80950013D01*
X95589505Y-80847302D01*
X95534358Y-80680880D01*
X95534356Y-80680875D01*
X95442315Y-80531654D01*
X95318345Y-80407684D01*
X95169124Y-80315643D01*
X95169119Y-80315641D01*
X95002697Y-80260494D01*
X95002690Y-80260493D01*
X94899986Y-80250000D01*
X94550000Y-80250000D01*
X94550000Y-82250000D01*
X94050000Y-82250000D01*
X94050000Y-80250000D01*
X93700028Y-80250000D01*
X93700012Y-80250001D01*
X93597302Y-80260494D01*
X93430880Y-80315641D01*
X93430875Y-80315643D01*
X93281654Y-80407684D01*
X93157683Y-80531655D01*
X93157680Y-80531659D01*
X93082768Y-80653111D01*
X93030821Y-80699836D01*
X92961858Y-80711057D01*
X92897776Y-80683214D01*
X92858920Y-80625145D01*
X92853977Y-80601603D01*
X92846265Y-80531655D01*
X92500800Y-77398247D01*
X92513019Y-77329456D01*
X92560491Y-77278190D01*
X92628143Y-77260727D01*
X92631006Y-77260855D01*
X92635347Y-77261098D01*
X93384728Y-76511716D01*
X93470278Y-76629466D01*
X93620534Y-76779722D01*
X93738281Y-76865270D01*
X92988899Y-77614652D01*
X92988900Y-77614653D01*
X93108993Y-77710427D01*
X93108997Y-77710429D01*
X93337247Y-77853847D01*
X93580104Y-77970801D01*
X93580118Y-77970807D01*
X93834536Y-78059832D01*
X93834548Y-78059836D01*
X94097348Y-78119818D01*
X94097366Y-78119821D01*
X94365212Y-78149999D01*
X94365216Y-78150000D01*
X94634784Y-78150000D01*
X94634787Y-78149999D01*
X94902633Y-78119821D01*
X94902651Y-78119818D01*
X95165451Y-78059836D01*
X95165463Y-78059832D01*
X95419881Y-77970807D01*
X95419895Y-77970801D01*
X95662752Y-77853847D01*
X95890999Y-77710431D01*
X96011098Y-77614653D01*
X96011099Y-77614652D01*
X95261717Y-76865271D01*
X95379466Y-76779722D01*
X95529722Y-76629466D01*
X95615270Y-76511717D01*
X96364652Y-77261099D01*
X96364653Y-77261098D01*
X96460431Y-77140999D01*
X96603847Y-76912752D01*
X96720801Y-76669895D01*
X96720807Y-76669881D01*
X96809832Y-76415463D01*
X96809836Y-76415451D01*
X96869818Y-76152651D01*
X96869821Y-76152633D01*
X96899999Y-75884787D01*
X96900000Y-75884783D01*
X96900000Y-75615216D01*
X96899999Y-75615212D01*
X96869821Y-75347366D01*
X96869818Y-75347348D01*
X96809836Y-75084548D01*
X96809832Y-75084536D01*
X96720807Y-74830118D01*
X96720801Y-74830104D01*
X96603847Y-74587247D01*
X96460429Y-74358997D01*
X96460427Y-74358993D01*
X96364653Y-74238900D01*
X96364652Y-74238899D01*
X95615270Y-74988281D01*
X95529722Y-74870534D01*
X95379466Y-74720278D01*
X95261716Y-74634728D01*
X96011099Y-73885346D01*
X95890998Y-73789568D01*
X95662752Y-73646152D01*
X95560563Y-73596940D01*
X95508703Y-73550117D01*
X95490391Y-73482690D01*
X95511439Y-73416066D01*
X95555850Y-73375896D01*
X96375000Y-72937501D01*
X96390698Y-72913953D01*
X96423253Y-72880811D01*
X96451089Y-72861527D01*
X96611527Y-72701089D01*
X96622446Y-72685328D01*
X96740736Y-72514589D01*
X96740741Y-72514579D01*
X96834574Y-72308000D01*
X96853604Y-72232474D01*
X96870668Y-72193998D01*
X97500000Y-71250000D01*
X97986877Y-70519685D01*
X98512826Y-69730760D01*
X98566391Y-69685899D01*
X98635707Y-69677119D01*
X98698766Y-69707208D01*
G37*
%TD.AperFunction*%
%TD*%
%TA.AperFunction,Conductor*%
%TO.N,+12V*%
G36*
X115879115Y-77438101D02*
G01*
X115926569Y-77489383D01*
X115938766Y-77558180D01*
X115920511Y-77610522D01*
X115808492Y-77788799D01*
X115686662Y-78041782D01*
X115593922Y-78306819D01*
X115593921Y-78306821D01*
X115531439Y-78580575D01*
X115531437Y-78580587D01*
X115500000Y-78859598D01*
X115500000Y-79140401D01*
X115531437Y-79419412D01*
X115531439Y-79419424D01*
X115593921Y-79693178D01*
X115593922Y-79693180D01*
X115686662Y-79958217D01*
X115808492Y-80211200D01*
X115957884Y-80448956D01*
X116064187Y-80582257D01*
X116884727Y-79761716D01*
X116970278Y-79879466D01*
X117120534Y-80029722D01*
X117238281Y-80115270D01*
X116417741Y-80935810D01*
X116417741Y-80935811D01*
X116526192Y-81022297D01*
X116566332Y-81079485D01*
X116569182Y-81149297D01*
X116533837Y-81209567D01*
X116471518Y-81241160D01*
X116448167Y-81243242D01*
X116114259Y-81241323D01*
X116114256Y-81241324D01*
X116114255Y-81241324D01*
X115716632Y-81361951D01*
X114803569Y-81638947D01*
X114803566Y-81638949D01*
X114529013Y-82076201D01*
X114476693Y-82122509D01*
X114407643Y-82133179D01*
X114343786Y-82104823D01*
X114305396Y-82046445D01*
X114299999Y-82010262D01*
X114299999Y-81700028D01*
X114299998Y-81700013D01*
X114289505Y-81597302D01*
X114234358Y-81430880D01*
X114234356Y-81430875D01*
X114142315Y-81281654D01*
X114018345Y-81157684D01*
X113869124Y-81065643D01*
X113869119Y-81065641D01*
X113702697Y-81010494D01*
X113702690Y-81010493D01*
X113599986Y-81000000D01*
X113250000Y-81000000D01*
X113250000Y-82876000D01*
X113230315Y-82943039D01*
X113177511Y-82988794D01*
X113126000Y-83000000D01*
X113000000Y-83000000D01*
X113000000Y-83126000D01*
X112980315Y-83193039D01*
X112927511Y-83238794D01*
X112876000Y-83250000D01*
X111700001Y-83250000D01*
X111700001Y-83409804D01*
X111680316Y-83476843D01*
X111627512Y-83522598D01*
X111558354Y-83532542D01*
X111494798Y-83503517D01*
X111457024Y-83444739D01*
X111453432Y-83428588D01*
X111190922Y-81715648D01*
X111188526Y-81700013D01*
X111700000Y-81700013D01*
X111700000Y-82750000D01*
X112750000Y-82750000D01*
X112750000Y-81000000D01*
X112400028Y-81000000D01*
X112400012Y-81000001D01*
X112297302Y-81010494D01*
X112130880Y-81065641D01*
X112130875Y-81065643D01*
X111981654Y-81157684D01*
X111857684Y-81281654D01*
X111765643Y-81430875D01*
X111765641Y-81430880D01*
X111710494Y-81597302D01*
X111710493Y-81597309D01*
X111700000Y-81700013D01*
X111188526Y-81700013D01*
X111179168Y-81638949D01*
X111101026Y-81129056D01*
X110867353Y-80616773D01*
X110857442Y-80547616D01*
X110879854Y-80492432D01*
X110962862Y-80378182D01*
X111045783Y-80215441D01*
X111102227Y-80041728D01*
X111105668Y-80020000D01*
X109634737Y-80020000D01*
X109635201Y-80019536D01*
X109688705Y-79926865D01*
X109716400Y-79823504D01*
X109716400Y-79716496D01*
X109688705Y-79613135D01*
X109635201Y-79520464D01*
X109634737Y-79520000D01*
X111105668Y-79520000D01*
X111105668Y-79519999D01*
X111103543Y-79506582D01*
X111775001Y-79506582D01*
X111781408Y-79577102D01*
X111781409Y-79577107D01*
X111831981Y-79739396D01*
X111919927Y-79884877D01*
X112040122Y-80005072D01*
X112185604Y-80093019D01*
X112185603Y-80093019D01*
X112347894Y-80143590D01*
X112347892Y-80143590D01*
X112418418Y-80149999D01*
X113000000Y-80149999D01*
X113081581Y-80149999D01*
X113152102Y-80143591D01*
X113152107Y-80143590D01*
X113314396Y-80093018D01*
X113459877Y-80005072D01*
X113580072Y-79884877D01*
X113668019Y-79739395D01*
X113718590Y-79577106D01*
X113725000Y-79506572D01*
X113725000Y-79500000D01*
X113000000Y-79500000D01*
X113000000Y-80149999D01*
X112418418Y-80149999D01*
X112499999Y-80149998D01*
X112500000Y-80149998D01*
X112500000Y-79500000D01*
X111775001Y-79500000D01*
X111775001Y-79506582D01*
X111103543Y-79506582D01*
X111102227Y-79498273D01*
X111098551Y-79486960D01*
X111098550Y-79486958D01*
X111098550Y-79486956D01*
X111045783Y-79324558D01*
X110962862Y-79161817D01*
X110855500Y-79014048D01*
X110855500Y-79014047D01*
X110726352Y-78884899D01*
X110578582Y-78777537D01*
X110426556Y-78700075D01*
X110375760Y-78652100D01*
X110358965Y-78584279D01*
X110381503Y-78518144D01*
X110436218Y-78474693D01*
X110481413Y-78465599D01*
X111798223Y-78450405D01*
X111865481Y-78469314D01*
X111911843Y-78521587D01*
X111922583Y-78590626D01*
X111905767Y-78638546D01*
X111831980Y-78760603D01*
X111781409Y-78922893D01*
X111775000Y-78993427D01*
X111775000Y-79000000D01*
X113724999Y-79000000D01*
X113724999Y-78993417D01*
X113718591Y-78922897D01*
X113718590Y-78922892D01*
X113668018Y-78760603D01*
X113581067Y-78616767D01*
X113563231Y-78549212D01*
X113584749Y-78482738D01*
X113638789Y-78438451D01*
X113685749Y-78428625D01*
X114000000Y-78425000D01*
X115746085Y-77441805D01*
X115746103Y-77441791D01*
X115748477Y-77440311D01*
X115749025Y-77441188D01*
X115811469Y-77420616D01*
X115879115Y-77438101D01*
G37*
%TD.AperFunction*%
%TD*%
M02*
