%TF.GenerationSoftware,KiCad,Pcbnew,9.0.4*%
%TF.CreationDate,2025-09-28T15:06:45-05:00*%
%TF.ProjectId,Onboarding,4f6e626f-6172-4646-996e-672e6b696361,rev?*%
%TF.SameCoordinates,Original*%
%TF.FileFunction,Legend,Top*%
%TF.FilePolarity,Positive*%
%FSLAX46Y46*%
G04 Gerber Fmt 4.6, Leading zero omitted, Abs format (unit mm)*
G04 Created by KiCad (PCBNEW 9.0.4) date 2025-09-28 15:06:45*
%MOMM*%
%LPD*%
G01*
G04 APERTURE LIST*
G04 Aperture macros list*
%AMRoundRect*
0 Rectangle with rounded corners*
0 $1 Rounding radius*
0 $2 $3 $4 $5 $6 $7 $8 $9 X,Y pos of 4 corners*
0 Add a 4 corners polygon primitive as box body*
4,1,4,$2,$3,$4,$5,$6,$7,$8,$9,$2,$3,0*
0 Add four circle primitives for the rounded corners*
1,1,$1+$1,$2,$3*
1,1,$1+$1,$4,$5*
1,1,$1+$1,$6,$7*
1,1,$1+$1,$8,$9*
0 Add four rect primitives between the rounded corners*
20,1,$1+$1,$2,$3,$4,$5,0*
20,1,$1+$1,$4,$5,$6,$7,0*
20,1,$1+$1,$6,$7,$8,$9,0*
20,1,$1+$1,$8,$9,$2,$3,0*%
G04 Aperture macros list end*
%ADD10C,0.150000*%
%ADD11C,0.254000*%
%ADD12C,0.120000*%
%ADD13C,0.200000*%
%ADD14RoundRect,0.760000X1.140000X-1.140000X1.140000X1.140000X-1.140000X1.140000X-1.140000X-1.140000X0*%
%ADD15C,3.800000*%
%ADD16C,1.400000*%
%ADD17C,2.200000*%
%ADD18RoundRect,0.237500X-0.250000X-0.237500X0.250000X-0.237500X0.250000X0.237500X-0.250000X0.237500X0*%
%ADD19RoundRect,0.250000X-0.550000X-0.550000X0.550000X-0.550000X0.550000X0.550000X-0.550000X0.550000X0*%
%ADD20C,1.600000*%
%ADD21RoundRect,0.250000X-0.350000X-0.450000X0.350000X-0.450000X0.350000X0.450000X-0.350000X0.450000X0*%
%ADD22RoundRect,0.760000X-1.140000X-1.140000X1.140000X-1.140000X1.140000X1.140000X-1.140000X1.140000X0*%
%ADD23C,4.000000*%
%ADD24RoundRect,0.250000X0.250000X0.475000X-0.250000X0.475000X-0.250000X-0.475000X0.250000X-0.475000X0*%
%ADD25RoundRect,0.237500X0.237500X-0.250000X0.237500X0.250000X-0.237500X0.250000X-0.237500X-0.250000X0*%
%ADD26RoundRect,0.250000X-0.300000X-0.300000X0.300000X-0.300000X0.300000X0.300000X-0.300000X0.300000X0*%
%ADD27RoundRect,0.150000X0.825000X0.150000X-0.825000X0.150000X-0.825000X-0.150000X0.825000X-0.150000X0*%
%ADD28RoundRect,0.150000X-0.150000X-0.700000X0.150000X-0.700000X0.150000X0.700000X-0.150000X0.700000X0*%
%ADD29RoundRect,0.250000X-0.250000X-1.150000X0.250000X-1.150000X0.250000X1.150000X-0.250000X1.150000X0*%
%ADD30RoundRect,0.237500X-0.300000X-0.237500X0.300000X-0.237500X0.300000X0.237500X-0.300000X0.237500X0*%
%ADD31R,1.400000X1.950000*%
G04 APERTURE END LIST*
D10*
X106684819Y-79143333D02*
X107399104Y-79143333D01*
X107399104Y-79143333D02*
X107541961Y-79190952D01*
X107541961Y-79190952D02*
X107637200Y-79286190D01*
X107637200Y-79286190D02*
X107684819Y-79429047D01*
X107684819Y-79429047D02*
X107684819Y-79524285D01*
X106780057Y-78714761D02*
X106732438Y-78667142D01*
X106732438Y-78667142D02*
X106684819Y-78571904D01*
X106684819Y-78571904D02*
X106684819Y-78333809D01*
X106684819Y-78333809D02*
X106732438Y-78238571D01*
X106732438Y-78238571D02*
X106780057Y-78190952D01*
X106780057Y-78190952D02*
X106875295Y-78143333D01*
X106875295Y-78143333D02*
X106970533Y-78143333D01*
X106970533Y-78143333D02*
X107113390Y-78190952D01*
X107113390Y-78190952D02*
X107684819Y-78762380D01*
X107684819Y-78762380D02*
X107684819Y-78143333D01*
X111344700Y-85881428D02*
X111344700Y-84738571D01*
X111344700Y-72881428D02*
X111344700Y-71738571D01*
X111916128Y-72309999D02*
X110773271Y-72309999D01*
X124713095Y-100329819D02*
X125284523Y-100329819D01*
X124998809Y-101329819D02*
X124998809Y-100329819D01*
X125617857Y-101329819D02*
X125617857Y-100329819D01*
X125617857Y-100329819D02*
X125998809Y-100329819D01*
X125998809Y-100329819D02*
X126094047Y-100377438D01*
X126094047Y-100377438D02*
X126141666Y-100425057D01*
X126141666Y-100425057D02*
X126189285Y-100520295D01*
X126189285Y-100520295D02*
X126189285Y-100663152D01*
X126189285Y-100663152D02*
X126141666Y-100758390D01*
X126141666Y-100758390D02*
X126094047Y-100806009D01*
X126094047Y-100806009D02*
X125998809Y-100853628D01*
X125998809Y-100853628D02*
X125617857Y-100853628D01*
X127141666Y-101329819D02*
X126570238Y-101329819D01*
X126855952Y-101329819D02*
X126855952Y-100329819D01*
X126855952Y-100329819D02*
X126760714Y-100472676D01*
X126760714Y-100472676D02*
X126665476Y-100567914D01*
X126665476Y-100567914D02*
X126570238Y-100615533D01*
X105458095Y-95594819D02*
X105458095Y-94594819D01*
X105458095Y-95071009D02*
X106029523Y-95071009D01*
X106029523Y-95594819D02*
X106029523Y-94594819D01*
X106410476Y-94594819D02*
X107029523Y-94594819D01*
X107029523Y-94594819D02*
X106696190Y-94975771D01*
X106696190Y-94975771D02*
X106839047Y-94975771D01*
X106839047Y-94975771D02*
X106934285Y-95023390D01*
X106934285Y-95023390D02*
X106981904Y-95071009D01*
X106981904Y-95071009D02*
X107029523Y-95166247D01*
X107029523Y-95166247D02*
X107029523Y-95404342D01*
X107029523Y-95404342D02*
X106981904Y-95499580D01*
X106981904Y-95499580D02*
X106934285Y-95547200D01*
X106934285Y-95547200D02*
X106839047Y-95594819D01*
X106839047Y-95594819D02*
X106553333Y-95594819D01*
X106553333Y-95594819D02*
X106458095Y-95547200D01*
X106458095Y-95547200D02*
X106410476Y-95499580D01*
X117145833Y-84016069D02*
X116812500Y-83539878D01*
X116574405Y-84016069D02*
X116574405Y-83016069D01*
X116574405Y-83016069D02*
X116955357Y-83016069D01*
X116955357Y-83016069D02*
X117050595Y-83063688D01*
X117050595Y-83063688D02*
X117098214Y-83111307D01*
X117098214Y-83111307D02*
X117145833Y-83206545D01*
X117145833Y-83206545D02*
X117145833Y-83349402D01*
X117145833Y-83349402D02*
X117098214Y-83444640D01*
X117098214Y-83444640D02*
X117050595Y-83492259D01*
X117050595Y-83492259D02*
X116955357Y-83539878D01*
X116955357Y-83539878D02*
X116574405Y-83539878D01*
X118098214Y-84016069D02*
X117526786Y-84016069D01*
X117812500Y-84016069D02*
X117812500Y-83016069D01*
X117812500Y-83016069D02*
X117717262Y-83158926D01*
X117717262Y-83158926D02*
X117622024Y-83254164D01*
X117622024Y-83254164D02*
X117526786Y-83301783D01*
X122080682Y-74019580D02*
X122033063Y-74067200D01*
X122033063Y-74067200D02*
X121890206Y-74114819D01*
X121890206Y-74114819D02*
X121794968Y-74114819D01*
X121794968Y-74114819D02*
X121652111Y-74067200D01*
X121652111Y-74067200D02*
X121556873Y-73971961D01*
X121556873Y-73971961D02*
X121509254Y-73876723D01*
X121509254Y-73876723D02*
X121461635Y-73686247D01*
X121461635Y-73686247D02*
X121461635Y-73543390D01*
X121461635Y-73543390D02*
X121509254Y-73352914D01*
X121509254Y-73352914D02*
X121556873Y-73257676D01*
X121556873Y-73257676D02*
X121652111Y-73162438D01*
X121652111Y-73162438D02*
X121794968Y-73114819D01*
X121794968Y-73114819D02*
X121890206Y-73114819D01*
X121890206Y-73114819D02*
X122033063Y-73162438D01*
X122033063Y-73162438D02*
X122080682Y-73210057D01*
X123033063Y-74114819D02*
X122461635Y-74114819D01*
X122747349Y-74114819D02*
X122747349Y-73114819D01*
X122747349Y-73114819D02*
X122652111Y-73257676D01*
X122652111Y-73257676D02*
X122556873Y-73352914D01*
X122556873Y-73352914D02*
X122461635Y-73400533D01*
X130718095Y-95694819D02*
X130718095Y-94694819D01*
X130718095Y-95171009D02*
X131289523Y-95171009D01*
X131289523Y-95694819D02*
X131289523Y-94694819D01*
X132194285Y-95028152D02*
X132194285Y-95694819D01*
X131956190Y-94647200D02*
X131718095Y-95361485D01*
X131718095Y-95361485D02*
X132337142Y-95361485D01*
X116608333Y-98079819D02*
X116275000Y-97603628D01*
X116036905Y-98079819D02*
X116036905Y-97079819D01*
X116036905Y-97079819D02*
X116417857Y-97079819D01*
X116417857Y-97079819D02*
X116513095Y-97127438D01*
X116513095Y-97127438D02*
X116560714Y-97175057D01*
X116560714Y-97175057D02*
X116608333Y-97270295D01*
X116608333Y-97270295D02*
X116608333Y-97413152D01*
X116608333Y-97413152D02*
X116560714Y-97508390D01*
X116560714Y-97508390D02*
X116513095Y-97556009D01*
X116513095Y-97556009D02*
X116417857Y-97603628D01*
X116417857Y-97603628D02*
X116036905Y-97603628D01*
X117465476Y-97413152D02*
X117465476Y-98079819D01*
X117227381Y-97032200D02*
X116989286Y-97746485D01*
X116989286Y-97746485D02*
X117608333Y-97746485D01*
X105338095Y-68964819D02*
X105338095Y-67964819D01*
X105338095Y-68441009D02*
X105909523Y-68441009D01*
X105909523Y-68964819D02*
X105909523Y-67964819D01*
X106909523Y-68964819D02*
X106338095Y-68964819D01*
X106623809Y-68964819D02*
X106623809Y-67964819D01*
X106623809Y-67964819D02*
X106528571Y-68107676D01*
X106528571Y-68107676D02*
X106433333Y-68202914D01*
X106433333Y-68202914D02*
X106338095Y-68250533D01*
X110066666Y-84829819D02*
X110066666Y-85544104D01*
X110066666Y-85544104D02*
X110019047Y-85686961D01*
X110019047Y-85686961D02*
X109923809Y-85782200D01*
X109923809Y-85782200D02*
X109780952Y-85829819D01*
X109780952Y-85829819D02*
X109685714Y-85829819D01*
X111066666Y-85829819D02*
X110495238Y-85829819D01*
X110780952Y-85829819D02*
X110780952Y-84829819D01*
X110780952Y-84829819D02*
X110685714Y-84972676D01*
X110685714Y-84972676D02*
X110590476Y-85067914D01*
X110590476Y-85067914D02*
X110495238Y-85115533D01*
X103328571Y-89489700D02*
X104471429Y-89489700D01*
X116328571Y-89489700D02*
X117471429Y-89489700D01*
X116900000Y-90061128D02*
X116900000Y-88918271D01*
X110383333Y-95639580D02*
X110335714Y-95687200D01*
X110335714Y-95687200D02*
X110192857Y-95734819D01*
X110192857Y-95734819D02*
X110097619Y-95734819D01*
X110097619Y-95734819D02*
X109954762Y-95687200D01*
X109954762Y-95687200D02*
X109859524Y-95591961D01*
X109859524Y-95591961D02*
X109811905Y-95496723D01*
X109811905Y-95496723D02*
X109764286Y-95306247D01*
X109764286Y-95306247D02*
X109764286Y-95163390D01*
X109764286Y-95163390D02*
X109811905Y-94972914D01*
X109811905Y-94972914D02*
X109859524Y-94877676D01*
X109859524Y-94877676D02*
X109954762Y-94782438D01*
X109954762Y-94782438D02*
X110097619Y-94734819D01*
X110097619Y-94734819D02*
X110192857Y-94734819D01*
X110192857Y-94734819D02*
X110335714Y-94782438D01*
X110335714Y-94782438D02*
X110383333Y-94830057D01*
X110716667Y-94734819D02*
X111335714Y-94734819D01*
X111335714Y-94734819D02*
X111002381Y-95115771D01*
X111002381Y-95115771D02*
X111145238Y-95115771D01*
X111145238Y-95115771D02*
X111240476Y-95163390D01*
X111240476Y-95163390D02*
X111288095Y-95211009D01*
X111288095Y-95211009D02*
X111335714Y-95306247D01*
X111335714Y-95306247D02*
X111335714Y-95544342D01*
X111335714Y-95544342D02*
X111288095Y-95639580D01*
X111288095Y-95639580D02*
X111240476Y-95687200D01*
X111240476Y-95687200D02*
X111145238Y-95734819D01*
X111145238Y-95734819D02*
X110859524Y-95734819D01*
X110859524Y-95734819D02*
X110764286Y-95687200D01*
X110764286Y-95687200D02*
X110716667Y-95639580D01*
X115174819Y-80756666D02*
X114698628Y-81089999D01*
X115174819Y-81328094D02*
X114174819Y-81328094D01*
X114174819Y-81328094D02*
X114174819Y-80947142D01*
X114174819Y-80947142D02*
X114222438Y-80851904D01*
X114222438Y-80851904D02*
X114270057Y-80804285D01*
X114270057Y-80804285D02*
X114365295Y-80756666D01*
X114365295Y-80756666D02*
X114508152Y-80756666D01*
X114508152Y-80756666D02*
X114603390Y-80804285D01*
X114603390Y-80804285D02*
X114651009Y-80851904D01*
X114651009Y-80851904D02*
X114698628Y-80947142D01*
X114698628Y-80947142D02*
X114698628Y-81328094D01*
X114270057Y-80375713D02*
X114222438Y-80328094D01*
X114222438Y-80328094D02*
X114174819Y-80232856D01*
X114174819Y-80232856D02*
X114174819Y-79994761D01*
X114174819Y-79994761D02*
X114222438Y-79899523D01*
X114222438Y-79899523D02*
X114270057Y-79851904D01*
X114270057Y-79851904D02*
X114365295Y-79804285D01*
X114365295Y-79804285D02*
X114460533Y-79804285D01*
X114460533Y-79804285D02*
X114603390Y-79851904D01*
X114603390Y-79851904D02*
X115174819Y-80423332D01*
X115174819Y-80423332D02*
X115174819Y-79804285D01*
X120959905Y-84824819D02*
X120959905Y-83824819D01*
X120959905Y-83824819D02*
X121198000Y-83824819D01*
X121198000Y-83824819D02*
X121340857Y-83872438D01*
X121340857Y-83872438D02*
X121436095Y-83967676D01*
X121436095Y-83967676D02*
X121483714Y-84062914D01*
X121483714Y-84062914D02*
X121531333Y-84253390D01*
X121531333Y-84253390D02*
X121531333Y-84396247D01*
X121531333Y-84396247D02*
X121483714Y-84586723D01*
X121483714Y-84586723D02*
X121436095Y-84681961D01*
X121436095Y-84681961D02*
X121340857Y-84777200D01*
X121340857Y-84777200D02*
X121198000Y-84824819D01*
X121198000Y-84824819D02*
X120959905Y-84824819D01*
X122483714Y-84824819D02*
X121912286Y-84824819D01*
X122198000Y-84824819D02*
X122198000Y-83824819D01*
X122198000Y-83824819D02*
X122102762Y-83967676D01*
X122102762Y-83967676D02*
X122007524Y-84062914D01*
X122007524Y-84062914D02*
X121912286Y-84110533D01*
X113874819Y-96041666D02*
X113398628Y-96374999D01*
X113874819Y-96613094D02*
X112874819Y-96613094D01*
X112874819Y-96613094D02*
X112874819Y-96232142D01*
X112874819Y-96232142D02*
X112922438Y-96136904D01*
X112922438Y-96136904D02*
X112970057Y-96089285D01*
X112970057Y-96089285D02*
X113065295Y-96041666D01*
X113065295Y-96041666D02*
X113208152Y-96041666D01*
X113208152Y-96041666D02*
X113303390Y-96089285D01*
X113303390Y-96089285D02*
X113351009Y-96136904D01*
X113351009Y-96136904D02*
X113398628Y-96232142D01*
X113398628Y-96232142D02*
X113398628Y-96613094D01*
X112874819Y-95708332D02*
X112874819Y-95089285D01*
X112874819Y-95089285D02*
X113255771Y-95422618D01*
X113255771Y-95422618D02*
X113255771Y-95279761D01*
X113255771Y-95279761D02*
X113303390Y-95184523D01*
X113303390Y-95184523D02*
X113351009Y-95136904D01*
X113351009Y-95136904D02*
X113446247Y-95089285D01*
X113446247Y-95089285D02*
X113684342Y-95089285D01*
X113684342Y-95089285D02*
X113779580Y-95136904D01*
X113779580Y-95136904D02*
X113827200Y-95184523D01*
X113827200Y-95184523D02*
X113874819Y-95279761D01*
X113874819Y-95279761D02*
X113874819Y-95565475D01*
X113874819Y-95565475D02*
X113827200Y-95660713D01*
X113827200Y-95660713D02*
X113779580Y-95708332D01*
X130688095Y-68964819D02*
X130688095Y-67964819D01*
X130688095Y-68441009D02*
X131259523Y-68441009D01*
X131259523Y-68964819D02*
X131259523Y-67964819D01*
X131688095Y-68060057D02*
X131735714Y-68012438D01*
X131735714Y-68012438D02*
X131830952Y-67964819D01*
X131830952Y-67964819D02*
X132069047Y-67964819D01*
X132069047Y-67964819D02*
X132164285Y-68012438D01*
X132164285Y-68012438D02*
X132211904Y-68060057D01*
X132211904Y-68060057D02*
X132259523Y-68155295D01*
X132259523Y-68155295D02*
X132259523Y-68250533D01*
X132259523Y-68250533D02*
X132211904Y-68393390D01*
X132211904Y-68393390D02*
X131640476Y-68964819D01*
X131640476Y-68964819D02*
X132259523Y-68964819D01*
X119125595Y-97281069D02*
X119125595Y-98090592D01*
X119125595Y-98090592D02*
X119173214Y-98185830D01*
X119173214Y-98185830D02*
X119220833Y-98233450D01*
X119220833Y-98233450D02*
X119316071Y-98281069D01*
X119316071Y-98281069D02*
X119506547Y-98281069D01*
X119506547Y-98281069D02*
X119601785Y-98233450D01*
X119601785Y-98233450D02*
X119649404Y-98185830D01*
X119649404Y-98185830D02*
X119697023Y-98090592D01*
X119697023Y-98090592D02*
X119697023Y-97281069D01*
X120697023Y-98281069D02*
X120125595Y-98281069D01*
X120411309Y-98281069D02*
X120411309Y-97281069D01*
X120411309Y-97281069D02*
X120316071Y-97423926D01*
X120316071Y-97423926D02*
X120220833Y-97519164D01*
X120220833Y-97519164D02*
X120125595Y-97566783D01*
X130066666Y-77329819D02*
X130066666Y-78044104D01*
X130066666Y-78044104D02*
X130019047Y-78186961D01*
X130019047Y-78186961D02*
X129923809Y-78282200D01*
X129923809Y-78282200D02*
X129780952Y-78329819D01*
X129780952Y-78329819D02*
X129685714Y-78329819D01*
X130971428Y-77663152D02*
X130971428Y-78329819D01*
X130733333Y-77282200D02*
X130495238Y-77996485D01*
X130495238Y-77996485D02*
X131114285Y-77996485D01*
X120278095Y-100494819D02*
X120849523Y-100494819D01*
X120563809Y-101494819D02*
X120563809Y-100494819D01*
X121182857Y-101494819D02*
X121182857Y-100494819D01*
X121182857Y-100494819D02*
X121563809Y-100494819D01*
X121563809Y-100494819D02*
X121659047Y-100542438D01*
X121659047Y-100542438D02*
X121706666Y-100590057D01*
X121706666Y-100590057D02*
X121754285Y-100685295D01*
X121754285Y-100685295D02*
X121754285Y-100828152D01*
X121754285Y-100828152D02*
X121706666Y-100923390D01*
X121706666Y-100923390D02*
X121659047Y-100971009D01*
X121659047Y-100971009D02*
X121563809Y-101018628D01*
X121563809Y-101018628D02*
X121182857Y-101018628D01*
X122135238Y-100590057D02*
X122182857Y-100542438D01*
X122182857Y-100542438D02*
X122278095Y-100494819D01*
X122278095Y-100494819D02*
X122516190Y-100494819D01*
X122516190Y-100494819D02*
X122611428Y-100542438D01*
X122611428Y-100542438D02*
X122659047Y-100590057D01*
X122659047Y-100590057D02*
X122706666Y-100685295D01*
X122706666Y-100685295D02*
X122706666Y-100780533D01*
X122706666Y-100780533D02*
X122659047Y-100923390D01*
X122659047Y-100923390D02*
X122087619Y-101494819D01*
X122087619Y-101494819D02*
X122706666Y-101494819D01*
X120345833Y-88820830D02*
X120298214Y-88868450D01*
X120298214Y-88868450D02*
X120155357Y-88916069D01*
X120155357Y-88916069D02*
X120060119Y-88916069D01*
X120060119Y-88916069D02*
X119917262Y-88868450D01*
X119917262Y-88868450D02*
X119822024Y-88773211D01*
X119822024Y-88773211D02*
X119774405Y-88677973D01*
X119774405Y-88677973D02*
X119726786Y-88487497D01*
X119726786Y-88487497D02*
X119726786Y-88344640D01*
X119726786Y-88344640D02*
X119774405Y-88154164D01*
X119774405Y-88154164D02*
X119822024Y-88058926D01*
X119822024Y-88058926D02*
X119917262Y-87963688D01*
X119917262Y-87963688D02*
X120060119Y-87916069D01*
X120060119Y-87916069D02*
X120155357Y-87916069D01*
X120155357Y-87916069D02*
X120298214Y-87963688D01*
X120298214Y-87963688D02*
X120345833Y-88011307D01*
X120726786Y-88011307D02*
X120774405Y-87963688D01*
X120774405Y-87963688D02*
X120869643Y-87916069D01*
X120869643Y-87916069D02*
X121107738Y-87916069D01*
X121107738Y-87916069D02*
X121202976Y-87963688D01*
X121202976Y-87963688D02*
X121250595Y-88011307D01*
X121250595Y-88011307D02*
X121298214Y-88106545D01*
X121298214Y-88106545D02*
X121298214Y-88201783D01*
X121298214Y-88201783D02*
X121250595Y-88344640D01*
X121250595Y-88344640D02*
X120679167Y-88916069D01*
X120679167Y-88916069D02*
X121298214Y-88916069D01*
X130166666Y-86279819D02*
X130166666Y-86994104D01*
X130166666Y-86994104D02*
X130119047Y-87136961D01*
X130119047Y-87136961D02*
X130023809Y-87232200D01*
X130023809Y-87232200D02*
X129880952Y-87279819D01*
X129880952Y-87279819D02*
X129785714Y-87279819D01*
X130547619Y-86279819D02*
X131166666Y-86279819D01*
X131166666Y-86279819D02*
X130833333Y-86660771D01*
X130833333Y-86660771D02*
X130976190Y-86660771D01*
X130976190Y-86660771D02*
X131071428Y-86708390D01*
X131071428Y-86708390D02*
X131119047Y-86756009D01*
X131119047Y-86756009D02*
X131166666Y-86851247D01*
X131166666Y-86851247D02*
X131166666Y-87089342D01*
X131166666Y-87089342D02*
X131119047Y-87184580D01*
X131119047Y-87184580D02*
X131071428Y-87232200D01*
X131071428Y-87232200D02*
X130976190Y-87279819D01*
X130976190Y-87279819D02*
X130690476Y-87279819D01*
X130690476Y-87279819D02*
X130595238Y-87232200D01*
X130595238Y-87232200D02*
X130547619Y-87184580D01*
D11*
X126018333Y-93694318D02*
X125413571Y-93694318D01*
X125413571Y-93694318D02*
X125413571Y-92424318D01*
X127106905Y-93694318D02*
X126381190Y-93694318D01*
X126744047Y-93694318D02*
X126744047Y-92424318D01*
X126744047Y-92424318D02*
X126623095Y-92605746D01*
X126623095Y-92605746D02*
X126502143Y-92726699D01*
X126502143Y-92726699D02*
X126381190Y-92787175D01*
D12*
%TO.C,J2*%
X108520000Y-73600000D02*
X113940000Y-73600000D01*
X108520000Y-82320000D02*
X108520000Y-73600000D01*
X109820000Y-84020000D02*
X108520000Y-82320000D01*
X109820000Y-84020000D02*
X112640000Y-84020000D01*
X112640000Y-84020000D02*
X113940000Y-82320000D01*
X113940000Y-82320000D02*
X113940000Y-73600000D01*
%TO.C,TP1*%
X123975000Y-98275000D02*
X123975000Y-100075000D01*
X123975000Y-100075000D02*
X127775000Y-100075000D01*
X127775000Y-98275000D02*
X123975000Y-98275000D01*
X127775000Y-100075000D02*
X127775000Y-98275000D01*
%TO.C,R1*%
X117057776Y-84468750D02*
X117567224Y-84468750D01*
X117057776Y-85513750D02*
X117567224Y-85513750D01*
%TO.C,C1*%
X117837651Y-76595000D02*
X118637651Y-76595000D01*
X118237651Y-76195000D02*
X118237651Y-76995000D01*
X122247349Y-74830000D02*
X122247349Y-82990000D01*
X122287349Y-74830000D02*
X122287349Y-82990000D01*
X122327349Y-74831000D02*
X122327349Y-82989000D01*
X122367349Y-74832000D02*
X122367349Y-82988000D01*
X122407349Y-74833000D02*
X122407349Y-82987000D01*
X122447349Y-74835000D02*
X122447349Y-82985000D01*
X122487349Y-74837000D02*
X122487349Y-82983000D01*
X122527349Y-74840000D02*
X122527349Y-82980000D01*
X122567349Y-74842000D02*
X122567349Y-82978000D01*
X122607349Y-74846000D02*
X122607349Y-82974000D01*
X122647349Y-74849000D02*
X122647349Y-82971000D01*
X122687349Y-74854000D02*
X122687349Y-82966000D01*
X122727349Y-74858000D02*
X122727349Y-82962000D01*
X122767349Y-74863000D02*
X122767349Y-82957000D01*
X122807349Y-74868000D02*
X122807349Y-82952000D01*
X122847349Y-74874000D02*
X122847349Y-82946000D01*
X122887349Y-74880000D02*
X122887349Y-82940000D01*
X122927349Y-74887000D02*
X122927349Y-82933000D01*
X122967349Y-74893000D02*
X122967349Y-82927000D01*
X123007349Y-74901000D02*
X123007349Y-82919000D01*
X123047349Y-74908000D02*
X123047349Y-82912000D01*
X123087349Y-74917000D02*
X123087349Y-82903000D01*
X123127349Y-74925000D02*
X123127349Y-82895000D01*
X123167349Y-74934000D02*
X123167349Y-82886000D01*
X123207349Y-74943000D02*
X123207349Y-82877000D01*
X123247349Y-74953000D02*
X123247349Y-82867000D01*
X123287349Y-74963000D02*
X123287349Y-82857000D01*
X123327349Y-74974000D02*
X123327349Y-82846000D01*
X123367349Y-74985000D02*
X123367349Y-82835000D01*
X123407349Y-74997000D02*
X123407349Y-82823000D01*
X123447349Y-75009000D02*
X123447349Y-82811000D01*
X123487349Y-75021000D02*
X123487349Y-82799000D01*
X123527349Y-75034000D02*
X123527349Y-82786000D01*
X123567349Y-75047000D02*
X123567349Y-82773000D01*
X123607349Y-75061000D02*
X123607349Y-82759000D01*
X123647349Y-75075000D02*
X123647349Y-82745000D01*
X123687349Y-75090000D02*
X123687349Y-82730000D01*
X123727349Y-75105000D02*
X123727349Y-77870000D01*
X123727349Y-79950000D02*
X123727349Y-82715000D01*
X123767349Y-75121000D02*
X123767349Y-77870000D01*
X123767349Y-79950000D02*
X123767349Y-82699000D01*
X123807349Y-75137000D02*
X123807349Y-77870000D01*
X123807349Y-79950000D02*
X123807349Y-82683000D01*
X123847349Y-75153000D02*
X123847349Y-77870000D01*
X123847349Y-79950000D02*
X123847349Y-82667000D01*
X123887349Y-75170000D02*
X123887349Y-77870000D01*
X123887349Y-79950000D02*
X123887349Y-82650000D01*
X123927349Y-75188000D02*
X123927349Y-77870000D01*
X123927349Y-79950000D02*
X123927349Y-82632000D01*
X123967349Y-75206000D02*
X123967349Y-77870000D01*
X123967349Y-79950000D02*
X123967349Y-82614000D01*
X124007349Y-75225000D02*
X124007349Y-77870000D01*
X124007349Y-79950000D02*
X124007349Y-82595000D01*
X124047349Y-75244000D02*
X124047349Y-77870000D01*
X124047349Y-79950000D02*
X124047349Y-82576000D01*
X124087349Y-75264000D02*
X124087349Y-77870000D01*
X124087349Y-79950000D02*
X124087349Y-82556000D01*
X124127349Y-75284000D02*
X124127349Y-77870000D01*
X124127349Y-79950000D02*
X124127349Y-82536000D01*
X124167349Y-75305000D02*
X124167349Y-77870000D01*
X124167349Y-79950000D02*
X124167349Y-82515000D01*
X124207349Y-75326000D02*
X124207349Y-77870000D01*
X124207349Y-79950000D02*
X124207349Y-82494000D01*
X124247349Y-75348000D02*
X124247349Y-77870000D01*
X124247349Y-79950000D02*
X124247349Y-82472000D01*
X124287349Y-75371000D02*
X124287349Y-77870000D01*
X124287349Y-79950000D02*
X124287349Y-82449000D01*
X124327349Y-75394000D02*
X124327349Y-77870000D01*
X124327349Y-79950000D02*
X124327349Y-82426000D01*
X124367349Y-75417000D02*
X124367349Y-77870000D01*
X124367349Y-79950000D02*
X124367349Y-82403000D01*
X124407349Y-75442000D02*
X124407349Y-77870000D01*
X124407349Y-79950000D02*
X124407349Y-82378000D01*
X124447349Y-75467000D02*
X124447349Y-77870000D01*
X124447349Y-79950000D02*
X124447349Y-82353000D01*
X124487349Y-75492000D02*
X124487349Y-77870000D01*
X124487349Y-79950000D02*
X124487349Y-82328000D01*
X124527349Y-75518000D02*
X124527349Y-77870000D01*
X124527349Y-79950000D02*
X124527349Y-82302000D01*
X124567349Y-75545000D02*
X124567349Y-77870000D01*
X124567349Y-79950000D02*
X124567349Y-82275000D01*
X124607349Y-75573000D02*
X124607349Y-77870000D01*
X124607349Y-79950000D02*
X124607349Y-82247000D01*
X124647349Y-75601000D02*
X124647349Y-77870000D01*
X124647349Y-79950000D02*
X124647349Y-82219000D01*
X124687349Y-75630000D02*
X124687349Y-77870000D01*
X124687349Y-79950000D02*
X124687349Y-82190000D01*
X124727349Y-75660000D02*
X124727349Y-77870000D01*
X124727349Y-79950000D02*
X124727349Y-82160000D01*
X124767349Y-75691000D02*
X124767349Y-77870000D01*
X124767349Y-79950000D02*
X124767349Y-82129000D01*
X124807349Y-75722000D02*
X124807349Y-77870000D01*
X124807349Y-79950000D02*
X124807349Y-82098000D01*
X124847349Y-75754000D02*
X124847349Y-77870000D01*
X124847349Y-79950000D02*
X124847349Y-82066000D01*
X124887349Y-75787000D02*
X124887349Y-77870000D01*
X124887349Y-79950000D02*
X124887349Y-82033000D01*
X124927349Y-75821000D02*
X124927349Y-77870000D01*
X124927349Y-79950000D02*
X124927349Y-81999000D01*
X124967349Y-75855000D02*
X124967349Y-77870000D01*
X124967349Y-79950000D02*
X124967349Y-81965000D01*
X125007349Y-75891000D02*
X125007349Y-77870000D01*
X125007349Y-79950000D02*
X125007349Y-81929000D01*
X125047349Y-75928000D02*
X125047349Y-77870000D01*
X125047349Y-79950000D02*
X125047349Y-81892000D01*
X125087349Y-75965000D02*
X125087349Y-77870000D01*
X125087349Y-79950000D02*
X125087349Y-81855000D01*
X125127349Y-76004000D02*
X125127349Y-77870000D01*
X125127349Y-79950000D02*
X125127349Y-81816000D01*
X125167349Y-76043000D02*
X125167349Y-77870000D01*
X125167349Y-79950000D02*
X125167349Y-81777000D01*
X125207349Y-76084000D02*
X125207349Y-77870000D01*
X125207349Y-79950000D02*
X125207349Y-81736000D01*
X125247349Y-76126000D02*
X125247349Y-77870000D01*
X125247349Y-79950000D02*
X125247349Y-81694000D01*
X125287349Y-76169000D02*
X125287349Y-77870000D01*
X125287349Y-79950000D02*
X125287349Y-81651000D01*
X125327349Y-76214000D02*
X125327349Y-77870000D01*
X125327349Y-79950000D02*
X125327349Y-81606000D01*
X125367349Y-76259000D02*
X125367349Y-77870000D01*
X125367349Y-79950000D02*
X125367349Y-81561000D01*
X125407349Y-76306000D02*
X125407349Y-77870000D01*
X125407349Y-79950000D02*
X125407349Y-81514000D01*
X125447349Y-76355000D02*
X125447349Y-77870000D01*
X125447349Y-79950000D02*
X125447349Y-81465000D01*
X125487349Y-76405000D02*
X125487349Y-77870000D01*
X125487349Y-79950000D02*
X125487349Y-81415000D01*
X125527349Y-76457000D02*
X125527349Y-77870000D01*
X125527349Y-79950000D02*
X125527349Y-81363000D01*
X125567349Y-76510000D02*
X125567349Y-77870000D01*
X125567349Y-79950000D02*
X125567349Y-81310000D01*
X125607349Y-76566000D02*
X125607349Y-77870000D01*
X125607349Y-79950000D02*
X125607349Y-81254000D01*
X125647349Y-76623000D02*
X125647349Y-77870000D01*
X125647349Y-79950000D02*
X125647349Y-81197000D01*
X125687349Y-76683000D02*
X125687349Y-77870000D01*
X125687349Y-79950000D02*
X125687349Y-81137000D01*
X125727349Y-76745000D02*
X125727349Y-77870000D01*
X125727349Y-79950000D02*
X125727349Y-81075000D01*
X125767349Y-76809000D02*
X125767349Y-77870000D01*
X125767349Y-79950000D02*
X125767349Y-81011000D01*
X125807349Y-76876000D02*
X125807349Y-80944000D01*
X125847349Y-76946000D02*
X125847349Y-80874000D01*
X125887349Y-77020000D02*
X125887349Y-80800000D01*
X125927349Y-77097000D02*
X125927349Y-80723000D01*
X125967349Y-77179000D02*
X125967349Y-80641000D01*
X126007349Y-77266000D02*
X126007349Y-80554000D01*
X126047349Y-77358000D02*
X126047349Y-80462000D01*
X126087349Y-77457000D02*
X126087349Y-80363000D01*
X126127349Y-77564000D02*
X126127349Y-80256000D01*
X126167349Y-77682000D02*
X126167349Y-80138000D01*
X126207349Y-77813000D02*
X126207349Y-80007000D01*
X126247349Y-77963000D02*
X126247349Y-79857000D01*
X126287349Y-78142000D02*
X126287349Y-79678000D01*
X126327349Y-78377000D02*
X126327349Y-79443000D01*
X126367349Y-78910000D02*
G75*
G02*
X118127349Y-78910000I-4120000J0D01*
G01*
X118127349Y-78910000D02*
G75*
G02*
X126367349Y-78910000I4120000J0D01*
G01*
%TO.C,R4*%
X116547936Y-98540000D02*
X117002064Y-98540000D01*
X116547936Y-100010000D02*
X117002064Y-100010000D01*
%TO.C,J1*%
X105190000Y-87965000D02*
X105190000Y-90785000D01*
X105190000Y-87965000D02*
X106890000Y-86665000D01*
X105190000Y-90785000D02*
X106890000Y-92085000D01*
X106890000Y-86665000D02*
X115610000Y-86665000D01*
X106890000Y-92085000D02*
X115610000Y-92085000D01*
X115610000Y-86665000D02*
X115610000Y-92085000D01*
%TO.C,C3*%
X110811252Y-92865000D02*
X110288748Y-92865000D01*
X110811252Y-94335000D02*
X110288748Y-94335000D01*
%TO.C,R2*%
X115627500Y-80844724D02*
X115627500Y-80335276D01*
X116672500Y-80844724D02*
X116672500Y-80335276D01*
%TO.C,D1*%
X119615000Y-85275000D02*
X119615000Y-87275000D01*
X119615000Y-85275000D02*
X123475000Y-85275000D01*
X119615000Y-87275000D02*
X123475000Y-87275000D01*
%TO.C,R3*%
X114327500Y-96129724D02*
X114327500Y-95620276D01*
X115372500Y-96129724D02*
X115372500Y-95620276D01*
%TO.C,U1*%
X119887500Y-91866250D02*
X117937500Y-91866250D01*
X119887500Y-91866250D02*
X121837500Y-91866250D01*
X119887500Y-96986250D02*
X117937500Y-96986250D01*
X119887500Y-96986250D02*
X121837500Y-96986250D01*
X122827500Y-97221250D02*
X122347500Y-97221250D01*
X122587500Y-96891250D01*
X122827500Y-97221250D01*
G36*
X122827500Y-97221250D02*
G01*
X122347500Y-97221250D01*
X122587500Y-96891250D01*
X122827500Y-97221250D01*
G37*
%TO.C,J4*%
X127415000Y-82135000D02*
X127415000Y-83735000D01*
X127415000Y-83735000D02*
X129215000Y-83735000D01*
X128685000Y-79265000D02*
X132115000Y-79265000D01*
X129215000Y-83735000D02*
X129215000Y-84675000D01*
X133385000Y-82135000D02*
X133385000Y-83735000D01*
X133385000Y-83735000D02*
X131585000Y-83735000D01*
%TO.C,TP2*%
X119540000Y-98440000D02*
X119540000Y-100240000D01*
X119540000Y-100240000D02*
X123340000Y-100240000D01*
X123340000Y-98440000D02*
X119540000Y-98440000D01*
X123340000Y-100240000D02*
X123340000Y-98440000D01*
%TO.C,C2*%
X120366233Y-89381250D02*
X120658767Y-89381250D01*
X120366233Y-90401250D02*
X120658767Y-90401250D01*
%TO.C,J3*%
X127515000Y-91085000D02*
X127515000Y-92685000D01*
X127515000Y-92685000D02*
X129315000Y-92685000D01*
X128785000Y-88215000D02*
X132215000Y-88215000D01*
X129315000Y-92685000D02*
X129315000Y-93625000D01*
X133485000Y-91085000D02*
X133485000Y-92685000D01*
X133485000Y-92685000D02*
X131685000Y-92685000D01*
D13*
%TO.C,L1*%
X124630000Y-96910000D02*
X127830000Y-96910000D01*
X127830000Y-94410000D02*
X124630000Y-94410000D01*
%TD*%
%LPC*%
D14*
%TO.C,J2*%
X111230000Y-81310000D03*
D15*
X111230000Y-76310000D03*
%TD*%
D16*
%TO.C,TP1*%
X124875000Y-99175000D03*
X126875000Y-99175000D03*
%TD*%
D17*
%TO.C,H3*%
X106220000Y-98290000D03*
%TD*%
D18*
%TO.C,R1*%
X116400000Y-84991250D03*
X118225000Y-84991250D03*
%TD*%
D19*
%TO.C,C1*%
X119747349Y-78910000D03*
D20*
X124747349Y-78910000D03*
%TD*%
D17*
%TO.C,H4*%
X131480000Y-98390000D03*
%TD*%
D21*
%TO.C,R4*%
X115775000Y-99275000D03*
X117775000Y-99275000D03*
%TD*%
D17*
%TO.C,H1*%
X106100000Y-71660000D03*
%TD*%
D22*
%TO.C,J1*%
X107900000Y-89375000D03*
D23*
X112900000Y-89375000D03*
%TD*%
D24*
%TO.C,C3*%
X111500000Y-93600000D03*
X109600000Y-93600000D03*
%TD*%
D25*
%TO.C,R2*%
X116150000Y-81502500D03*
X116150000Y-79677500D03*
%TD*%
D26*
%TO.C,D1*%
X120425000Y-86275000D03*
X123225000Y-86275000D03*
%TD*%
D25*
%TO.C,R3*%
X114850000Y-96787500D03*
X114850000Y-94962500D03*
%TD*%
D17*
%TO.C,H2*%
X131450000Y-71660000D03*
%TD*%
D27*
%TO.C,U1*%
X122362500Y-96331250D03*
X122362500Y-95061250D03*
X122362500Y-93791250D03*
X122362500Y-92521250D03*
X117412500Y-92521250D03*
X117412500Y-93791250D03*
X117412500Y-95061250D03*
X117412500Y-96331250D03*
%TD*%
D28*
%TO.C,J4*%
X129775000Y-83825000D03*
X131025000Y-83825000D03*
D29*
X127925000Y-80475000D03*
X132875000Y-80475000D03*
%TD*%
D16*
%TO.C,TP2*%
X120440000Y-99340000D03*
X122440000Y-99340000D03*
%TD*%
D30*
%TO.C,C2*%
X119650000Y-89891250D03*
X121375000Y-89891250D03*
%TD*%
D28*
%TO.C,J3*%
X129875000Y-92775000D03*
X131125000Y-92775000D03*
D29*
X128025000Y-89425000D03*
X132975000Y-89425000D03*
%TD*%
D31*
%TO.C,L1*%
X127730000Y-95660000D03*
X124730000Y-95660000D03*
%TD*%
%LPD*%
M02*
