%TF.GenerationSoftware,KiCad,Pcbnew,9.0.4*%
%TF.CreationDate,2025-10-12T15:21:27-05:00*%
%TF.ProjectId,Onboarding,4f6e626f-6172-4646-996e-672e6b696361,rev?*%
%TF.SameCoordinates,Original*%
%TF.FileFunction,Copper,L2,Bot*%
%TF.FilePolarity,Positive*%
%FSLAX46Y46*%
G04 Gerber Fmt 4.6, Leading zero omitted, Abs format (unit mm)*
G04 Created by KiCad (PCBNEW 9.0.4) date 2025-10-12 15:21:27*
%MOMM*%
%LPD*%
G01*
G04 APERTURE LIST*
G04 Aperture macros list*
%AMRoundRect*
0 Rectangle with rounded corners*
0 $1 Rounding radius*
0 $2 $3 $4 $5 $6 $7 $8 $9 X,Y pos of 4 corners*
0 Add a 4 corners polygon primitive as box body*
4,1,4,$2,$3,$4,$5,$6,$7,$8,$9,$2,$3,0*
0 Add four circle primitives for the rounded corners*
1,1,$1+$1,$2,$3*
1,1,$1+$1,$4,$5*
1,1,$1+$1,$6,$7*
1,1,$1+$1,$8,$9*
0 Add four rect primitives between the rounded corners*
20,1,$1+$1,$2,$3,$4,$5,0*
20,1,$1+$1,$4,$5,$6,$7,0*
20,1,$1+$1,$6,$7,$8,$9,0*
20,1,$1+$1,$8,$9,$2,$3,0*%
G04 Aperture macros list end*
%TA.AperFunction,ComponentPad*%
%ADD10C,1.400000*%
%TD*%
%TA.AperFunction,SMDPad,CuDef*%
%ADD11RoundRect,0.237500X0.250000X0.237500X-0.250000X0.237500X-0.250000X-0.237500X0.250000X-0.237500X0*%
%TD*%
%TA.AperFunction,ComponentPad*%
%ADD12RoundRect,0.760000X1.140000X1.140000X-1.140000X1.140000X-1.140000X-1.140000X1.140000X-1.140000X0*%
%TD*%
%TA.AperFunction,ComponentPad*%
%ADD13C,4.000000*%
%TD*%
%TA.AperFunction,ComponentPad*%
%ADD14RoundRect,0.249999X0.850001X-0.850001X0.850001X0.850001X-0.850001X0.850001X-0.850001X-0.850001X0*%
%TD*%
%TA.AperFunction,ComponentPad*%
%ADD15C,2.200000*%
%TD*%
%TA.AperFunction,SMDPad,CuDef*%
%ADD16RoundRect,0.237500X-0.237500X0.300000X-0.237500X-0.300000X0.237500X-0.300000X0.237500X0.300000X0*%
%TD*%
%TA.AperFunction,ComponentPad*%
%ADD17RoundRect,0.250000X-0.550000X0.550000X-0.550000X-0.550000X0.550000X-0.550000X0.550000X0.550000X0*%
%TD*%
%TA.AperFunction,ComponentPad*%
%ADD18C,1.600000*%
%TD*%
%TA.AperFunction,ComponentPad*%
%ADD19C,3.800000*%
%TD*%
%TA.AperFunction,ViaPad*%
%ADD20C,0.600000*%
%TD*%
%TA.AperFunction,Conductor*%
%ADD21C,0.200000*%
%TD*%
G04 APERTURE END LIST*
D10*
%TO.P,TP2,1,1*%
%TO.N,Net-(U1-I_{PK})*%
X86500000Y-89500000D03*
X88500000Y-89500000D03*
%TD*%
D11*
%TO.P,R4,1*%
%TO.N,Net-(U1-COMP-)*%
X81825000Y-101000000D03*
%TO.P,R4,2*%
%TO.N,GND*%
X80000000Y-101000000D03*
%TD*%
D12*
%TO.P,J1,1,Pin_1*%
%TO.N,GND*%
X93000000Y-98500000D03*
D13*
%TO.P,J1,2,Pin_2*%
%TO.N,+12V*%
X88000000Y-98500000D03*
%TD*%
D14*
%TO.P,D1,1,K*%
%TO.N,VCC*%
X69500000Y-102080000D03*
D15*
%TO.P,D1,2,A*%
%TO.N,Net-(D1-A)*%
X69500000Y-91920000D03*
%TD*%
D16*
%TO.P,C2,1*%
%TO.N,Net-(U1-CT)*%
X76500000Y-98500000D03*
%TO.P,C2,2*%
%TO.N,GND*%
X76500000Y-100225000D03*
%TD*%
D17*
%TO.P,C1,1*%
%TO.N,VCC*%
X75000000Y-104000000D03*
D18*
%TO.P,C1,2*%
%TO.N,GND*%
X75000000Y-109000000D03*
%TD*%
D12*
%TO.P,J2,1,Pin_1*%
%TO.N,GND*%
X90000000Y-107500000D03*
D19*
%TO.P,J2,2,Pin_2*%
%TO.N,VCC*%
X85000000Y-107500000D03*
%TD*%
D10*
%TO.P,TP1,1,1*%
%TO.N,Net-(D1-A)*%
X70500000Y-89000000D03*
X72500000Y-89000000D03*
%TD*%
D11*
%TO.P,R2,1*%
%TO.N,VCC*%
X81825000Y-103500000D03*
%TO.P,R2,2*%
%TO.N,Net-(U1-COMP-)*%
X80000000Y-103500000D03*
%TD*%
D20*
%TO.N,VCC*%
X81825000Y-103500000D03*
%TO.N,Net-(U1-COMP-)*%
X80000000Y-103500000D03*
X81825000Y-101000000D03*
%TO.N,GND*%
X76500000Y-97230000D03*
X76500000Y-99770000D03*
%TO.N,Net-(U1-CT)*%
X76500000Y-98500000D03*
%TD*%
D21*
%TO.N,GND*%
X77276000Y-97970366D02*
X77276000Y-99449000D01*
X76535634Y-97230000D02*
X77276000Y-97970366D01*
X77276000Y-99449000D02*
X76500000Y-100225000D01*
X76500000Y-97230000D02*
X76535634Y-97230000D01*
%TD*%
%TA.AperFunction,Conductor*%
%TO.N,GND*%
G36*
X102503736Y-82500726D02*
G01*
X102793796Y-82518271D01*
X102808659Y-82520076D01*
X103090798Y-82571780D01*
X103105335Y-82575363D01*
X103379172Y-82660695D01*
X103393163Y-82666000D01*
X103654743Y-82783727D01*
X103667989Y-82790680D01*
X103913465Y-82939075D01*
X103925776Y-82947573D01*
X104151573Y-83124473D01*
X104162781Y-83134403D01*
X104365596Y-83337218D01*
X104375526Y-83348426D01*
X104495481Y-83501538D01*
X104552422Y-83574217D01*
X104560926Y-83586537D01*
X104619091Y-83682753D01*
X104709316Y-83832004D01*
X104716275Y-83845263D01*
X104833997Y-84106831D01*
X104839306Y-84120832D01*
X104924635Y-84394663D01*
X104928219Y-84409201D01*
X104979923Y-84691340D01*
X104981728Y-84706205D01*
X104999274Y-84996263D01*
X104999500Y-85003750D01*
X104999500Y-108996249D01*
X104999274Y-109003736D01*
X104981728Y-109293794D01*
X104979923Y-109308659D01*
X104928219Y-109590798D01*
X104924635Y-109605336D01*
X104839306Y-109879167D01*
X104833997Y-109893168D01*
X104716275Y-110154736D01*
X104709316Y-110167995D01*
X104560928Y-110413459D01*
X104552422Y-110425782D01*
X104375526Y-110651573D01*
X104365596Y-110662781D01*
X104162781Y-110865596D01*
X104151573Y-110875526D01*
X103925782Y-111052422D01*
X103913459Y-111060928D01*
X103667995Y-111209316D01*
X103654736Y-111216275D01*
X103393168Y-111333997D01*
X103379167Y-111339306D01*
X103105336Y-111424635D01*
X103090798Y-111428219D01*
X102808659Y-111479923D01*
X102793794Y-111481728D01*
X102503736Y-111499274D01*
X102496249Y-111499500D01*
X66503751Y-111499500D01*
X66496264Y-111499274D01*
X66206205Y-111481728D01*
X66191340Y-111479923D01*
X65909201Y-111428219D01*
X65894663Y-111424635D01*
X65620832Y-111339306D01*
X65606831Y-111333997D01*
X65345263Y-111216275D01*
X65332004Y-111209316D01*
X65086540Y-111060928D01*
X65074217Y-111052422D01*
X64848426Y-110875526D01*
X64837218Y-110865596D01*
X64634403Y-110662781D01*
X64624473Y-110651573D01*
X64447573Y-110425776D01*
X64439075Y-110413465D01*
X64290680Y-110167989D01*
X64283727Y-110154743D01*
X64166000Y-109893163D01*
X64160693Y-109879167D01*
X64157933Y-109870311D01*
X64075363Y-109605335D01*
X64071780Y-109590798D01*
X64020076Y-109308659D01*
X64018271Y-109293794D01*
X64000726Y-109003736D01*
X64000500Y-108996249D01*
X64000500Y-108893713D01*
X65149500Y-108893713D01*
X65149500Y-109106286D01*
X65182753Y-109316239D01*
X65248444Y-109518414D01*
X65344951Y-109707820D01*
X65469890Y-109879786D01*
X65620213Y-110030109D01*
X65792179Y-110155048D01*
X65792181Y-110155049D01*
X65792184Y-110155051D01*
X65981588Y-110251557D01*
X66183757Y-110317246D01*
X66393713Y-110350500D01*
X66393714Y-110350500D01*
X66606286Y-110350500D01*
X66606287Y-110350500D01*
X66816243Y-110317246D01*
X67018412Y-110251557D01*
X67207816Y-110155051D01*
X67229789Y-110139086D01*
X67379786Y-110030109D01*
X67379788Y-110030106D01*
X67379792Y-110030104D01*
X67530104Y-109879792D01*
X67530106Y-109879788D01*
X67530109Y-109879786D01*
X67655048Y-109707820D01*
X67655047Y-109707820D01*
X67655051Y-109707816D01*
X67751557Y-109518412D01*
X67817246Y-109316243D01*
X67850500Y-109106287D01*
X67850500Y-108893713D01*
X67817246Y-108683757D01*
X67751557Y-108481588D01*
X67655051Y-108292184D01*
X67655049Y-108292181D01*
X67655048Y-108292179D01*
X67530109Y-108120213D01*
X67379786Y-107969890D01*
X67207820Y-107844951D01*
X67018414Y-107748444D01*
X67018413Y-107748443D01*
X67018412Y-107748443D01*
X66816243Y-107682754D01*
X66816241Y-107682753D01*
X66816240Y-107682753D01*
X66654957Y-107657208D01*
X66606287Y-107649500D01*
X66393713Y-107649500D01*
X66345042Y-107657208D01*
X66183760Y-107682753D01*
X65981585Y-107748444D01*
X65792179Y-107844951D01*
X65620213Y-107969890D01*
X65469890Y-108120213D01*
X65344951Y-108292179D01*
X65248444Y-108481585D01*
X65182753Y-108683760D01*
X65149500Y-108893713D01*
X64000500Y-108893713D01*
X64000500Y-107365186D01*
X82599500Y-107365186D01*
X82599500Y-107634813D01*
X82629686Y-107902719D01*
X82629688Y-107902731D01*
X82689684Y-108165594D01*
X82689687Y-108165602D01*
X82778734Y-108420082D01*
X82895714Y-108662994D01*
X82895716Y-108662997D01*
X83039162Y-108891289D01*
X83207266Y-109102085D01*
X83397915Y-109292734D01*
X83608711Y-109460838D01*
X83827273Y-109598170D01*
X83837005Y-109604285D01*
X83917975Y-109643278D01*
X84079921Y-109721267D01*
X84271049Y-109788145D01*
X84334397Y-109810312D01*
X84334405Y-109810315D01*
X84334408Y-109810315D01*
X84334409Y-109810316D01*
X84597268Y-109870312D01*
X84865187Y-109900499D01*
X84865188Y-109900500D01*
X84865191Y-109900500D01*
X85134812Y-109900500D01*
X85134812Y-109900499D01*
X85402732Y-109870312D01*
X85665591Y-109810316D01*
X85920079Y-109721267D01*
X86162997Y-109604284D01*
X86391289Y-109460838D01*
X86602085Y-109292734D01*
X86792734Y-109102085D01*
X86958905Y-108893713D01*
X101149500Y-108893713D01*
X101149500Y-109106286D01*
X101182753Y-109316239D01*
X101248444Y-109518414D01*
X101344951Y-109707820D01*
X101469890Y-109879786D01*
X101620213Y-110030109D01*
X101792179Y-110155048D01*
X101792181Y-110155049D01*
X101792184Y-110155051D01*
X101981588Y-110251557D01*
X102183757Y-110317246D01*
X102393713Y-110350500D01*
X102393714Y-110350500D01*
X102606286Y-110350500D01*
X102606287Y-110350500D01*
X102816243Y-110317246D01*
X103018412Y-110251557D01*
X103207816Y-110155051D01*
X103229789Y-110139086D01*
X103379786Y-110030109D01*
X103379788Y-110030106D01*
X103379792Y-110030104D01*
X103530104Y-109879792D01*
X103530106Y-109879788D01*
X103530109Y-109879786D01*
X103655048Y-109707820D01*
X103655047Y-109707820D01*
X103655051Y-109707816D01*
X103751557Y-109518412D01*
X103817246Y-109316243D01*
X103850500Y-109106287D01*
X103850500Y-108893713D01*
X103817246Y-108683757D01*
X103751557Y-108481588D01*
X103655051Y-108292184D01*
X103655049Y-108292181D01*
X103655048Y-108292179D01*
X103530109Y-108120213D01*
X103379786Y-107969890D01*
X103207820Y-107844951D01*
X103018414Y-107748444D01*
X103018413Y-107748443D01*
X103018412Y-107748443D01*
X102816243Y-107682754D01*
X102816241Y-107682753D01*
X102816240Y-107682753D01*
X102654957Y-107657208D01*
X102606287Y-107649500D01*
X102393713Y-107649500D01*
X102345042Y-107657208D01*
X102183760Y-107682753D01*
X101981585Y-107748444D01*
X101792179Y-107844951D01*
X101620213Y-107969890D01*
X101469890Y-108120213D01*
X101344951Y-108292179D01*
X101248444Y-108481585D01*
X101182753Y-108683760D01*
X101149500Y-108893713D01*
X86958905Y-108893713D01*
X86960838Y-108891289D01*
X87104284Y-108662997D01*
X87221267Y-108420079D01*
X87310316Y-108165591D01*
X87370312Y-107902732D01*
X87400500Y-107634809D01*
X87400500Y-107365191D01*
X87370312Y-107097268D01*
X87310316Y-106834409D01*
X87221267Y-106579921D01*
X87104284Y-106337003D01*
X86960838Y-106108711D01*
X86792734Y-105897915D01*
X86602085Y-105707266D01*
X86391289Y-105539162D01*
X86162997Y-105395716D01*
X86162994Y-105395714D01*
X85920082Y-105278734D01*
X85665602Y-105189687D01*
X85665594Y-105189684D01*
X85459785Y-105142710D01*
X85402732Y-105129688D01*
X85402728Y-105129687D01*
X85402719Y-105129686D01*
X85134813Y-105099500D01*
X85134809Y-105099500D01*
X84865191Y-105099500D01*
X84865186Y-105099500D01*
X84597280Y-105129686D01*
X84597268Y-105129688D01*
X84334405Y-105189684D01*
X84334397Y-105189687D01*
X84079917Y-105278734D01*
X83837005Y-105395714D01*
X83608712Y-105539161D01*
X83397915Y-105707265D01*
X83207265Y-105897915D01*
X83039161Y-106108712D01*
X82895714Y-106337005D01*
X82778734Y-106579917D01*
X82689687Y-106834397D01*
X82689684Y-106834405D01*
X82629688Y-107097268D01*
X82629686Y-107097280D01*
X82599500Y-107365186D01*
X64000500Y-107365186D01*
X64000500Y-101179982D01*
X67899500Y-101179982D01*
X67899500Y-102980017D01*
X67910000Y-103082796D01*
X67965185Y-103249332D01*
X67965187Y-103249337D01*
X67994706Y-103297195D01*
X68057288Y-103398656D01*
X68181344Y-103522712D01*
X68330665Y-103614814D01*
X68497202Y-103669999D01*
X68599990Y-103680500D01*
X68599995Y-103680500D01*
X70400005Y-103680500D01*
X70400010Y-103680500D01*
X70502798Y-103669999D01*
X70669335Y-103614814D01*
X70818656Y-103522712D01*
X70941385Y-103399983D01*
X73699500Y-103399983D01*
X73699500Y-104600001D01*
X73699501Y-104600018D01*
X73710000Y-104702796D01*
X73710001Y-104702799D01*
X73765185Y-104869331D01*
X73765186Y-104869334D01*
X73857288Y-105018656D01*
X73981344Y-105142712D01*
X74130666Y-105234814D01*
X74297203Y-105289999D01*
X74399991Y-105300500D01*
X75600008Y-105300499D01*
X75702797Y-105289999D01*
X75869334Y-105234814D01*
X76018656Y-105142712D01*
X76142712Y-105018656D01*
X76234814Y-104869334D01*
X76289999Y-104702797D01*
X76300500Y-104600009D01*
X76300499Y-103399992D01*
X76289999Y-103297203D01*
X76289997Y-103297195D01*
X76274086Y-103249180D01*
X76274082Y-103249170D01*
X76262204Y-103213324D01*
X76262201Y-103213315D01*
X79012000Y-103213315D01*
X79012000Y-103786669D01*
X79012001Y-103786687D01*
X79022325Y-103887752D01*
X79076592Y-104051515D01*
X79076593Y-104051518D01*
X79110895Y-104107129D01*
X79167160Y-104198350D01*
X79289150Y-104320340D01*
X79435984Y-104410908D01*
X79599747Y-104465174D01*
X79700823Y-104475500D01*
X80299176Y-104475499D01*
X80299184Y-104475498D01*
X80299187Y-104475498D01*
X80354530Y-104469844D01*
X80400253Y-104465174D01*
X80564016Y-104410908D01*
X80710850Y-104320340D01*
X80824819Y-104206371D01*
X80886142Y-104172886D01*
X80955834Y-104177870D01*
X81000181Y-104206371D01*
X81114150Y-104320340D01*
X81260984Y-104410908D01*
X81424747Y-104465174D01*
X81525823Y-104475500D01*
X82124176Y-104475499D01*
X82124184Y-104475498D01*
X82124187Y-104475498D01*
X82179530Y-104469844D01*
X82225253Y-104465174D01*
X82389016Y-104410908D01*
X82535850Y-104320340D01*
X82657840Y-104198350D01*
X82748408Y-104051516D01*
X82802674Y-103887753D01*
X82813000Y-103786677D01*
X82812999Y-103213324D01*
X82804555Y-103130666D01*
X82802674Y-103112247D01*
X82748408Y-102948484D01*
X82657840Y-102801650D01*
X82535850Y-102679660D01*
X82389016Y-102589092D01*
X82225253Y-102534826D01*
X82225251Y-102534825D01*
X82124178Y-102524500D01*
X81525830Y-102524500D01*
X81525812Y-102524501D01*
X81424747Y-102534825D01*
X81260984Y-102589092D01*
X81260981Y-102589093D01*
X81114148Y-102679661D01*
X81000181Y-102793629D01*
X80938858Y-102827114D01*
X80869166Y-102822130D01*
X80824819Y-102793629D01*
X80710851Y-102679661D01*
X80710850Y-102679660D01*
X80564016Y-102589092D01*
X80400253Y-102534826D01*
X80400251Y-102534825D01*
X80299178Y-102524500D01*
X79700830Y-102524500D01*
X79700812Y-102524501D01*
X79599747Y-102534825D01*
X79435984Y-102589092D01*
X79435981Y-102589093D01*
X79289148Y-102679661D01*
X79167161Y-102801648D01*
X79076593Y-102948481D01*
X79076592Y-102948484D01*
X79022326Y-103112247D01*
X79022326Y-103112248D01*
X79022325Y-103112248D01*
X79012000Y-103213315D01*
X76262201Y-103213315D01*
X76234814Y-103130666D01*
X76142712Y-102981344D01*
X76018656Y-102857288D01*
X75869334Y-102765186D01*
X75702797Y-102710001D01*
X75702795Y-102710000D01*
X75600010Y-102699500D01*
X74399998Y-102699500D01*
X74399981Y-102699501D01*
X74297203Y-102710000D01*
X74297200Y-102710001D01*
X74130668Y-102765185D01*
X74130663Y-102765187D01*
X73981342Y-102857289D01*
X73857289Y-102981342D01*
X73765187Y-103130663D01*
X73765186Y-103130666D01*
X73710001Y-103297203D01*
X73710001Y-103297204D01*
X73710000Y-103297204D01*
X73699500Y-103399983D01*
X70941385Y-103399983D01*
X70942712Y-103398656D01*
X70955866Y-103377329D01*
X70983989Y-103331737D01*
X71034810Y-103249341D01*
X71034814Y-103249335D01*
X71089999Y-103082798D01*
X71100500Y-102980010D01*
X71100500Y-101179990D01*
X71089999Y-101077202D01*
X71034814Y-100910665D01*
X70942712Y-100761344D01*
X70894683Y-100713315D01*
X80837000Y-100713315D01*
X80837000Y-101286669D01*
X80837001Y-101286687D01*
X80847325Y-101387752D01*
X80883609Y-101497249D01*
X80901592Y-101551516D01*
X80992160Y-101698350D01*
X81114150Y-101820340D01*
X81260984Y-101910908D01*
X81424747Y-101965174D01*
X81525823Y-101975500D01*
X82124176Y-101975499D01*
X82124184Y-101975498D01*
X82124187Y-101975498D01*
X82179530Y-101969844D01*
X82225253Y-101965174D01*
X82389016Y-101910908D01*
X82535850Y-101820340D01*
X82657840Y-101698350D01*
X82748408Y-101551516D01*
X82802674Y-101387753D01*
X82813000Y-101286677D01*
X82812999Y-100713324D01*
X82802674Y-100612247D01*
X82748408Y-100448484D01*
X82657840Y-100301650D01*
X82535850Y-100179660D01*
X82389016Y-100089092D01*
X82225253Y-100034826D01*
X82225251Y-100034825D01*
X82124178Y-100024500D01*
X81525830Y-100024500D01*
X81525812Y-100024501D01*
X81424747Y-100034825D01*
X81260984Y-100089092D01*
X81260981Y-100089093D01*
X81114148Y-100179661D01*
X80992161Y-100301648D01*
X80901593Y-100448481D01*
X80901591Y-100448486D01*
X80874219Y-100531088D01*
X80847326Y-100612247D01*
X80847326Y-100612248D01*
X80847325Y-100612248D01*
X80837000Y-100713315D01*
X70894683Y-100713315D01*
X70818656Y-100637288D01*
X70669335Y-100545186D01*
X70502798Y-100490001D01*
X70502796Y-100490000D01*
X70400017Y-100479500D01*
X70400010Y-100479500D01*
X68599990Y-100479500D01*
X68599982Y-100479500D01*
X68497203Y-100490000D01*
X68497202Y-100490001D01*
X68414669Y-100517349D01*
X68330667Y-100545185D01*
X68330662Y-100545187D01*
X68181342Y-100637289D01*
X68057289Y-100761342D01*
X67965187Y-100910662D01*
X67965186Y-100910665D01*
X67910001Y-101077202D01*
X67910001Y-101077203D01*
X67910000Y-101077203D01*
X67899500Y-101179982D01*
X64000500Y-101179982D01*
X64000500Y-98150815D01*
X75524500Y-98150815D01*
X75524500Y-98849169D01*
X75524501Y-98849187D01*
X75534825Y-98950252D01*
X75571109Y-99059749D01*
X75589092Y-99114016D01*
X75679660Y-99260850D01*
X75801650Y-99382840D01*
X75948484Y-99473408D01*
X76112247Y-99527674D01*
X76213323Y-99538000D01*
X76786676Y-99537999D01*
X76786684Y-99537998D01*
X76786687Y-99537998D01*
X76842030Y-99532344D01*
X76887753Y-99527674D01*
X77051516Y-99473408D01*
X77198350Y-99382840D01*
X77320340Y-99260850D01*
X77410908Y-99114016D01*
X77465174Y-98950253D01*
X77475500Y-98849177D01*
X77475499Y-98359568D01*
X85499500Y-98359568D01*
X85499500Y-98640431D01*
X85530942Y-98919494D01*
X85530945Y-98919512D01*
X85593439Y-99193317D01*
X85593443Y-99193329D01*
X85686200Y-99458411D01*
X85808053Y-99711442D01*
X85808055Y-99711445D01*
X85957477Y-99949248D01*
X86132584Y-100168825D01*
X86331175Y-100367416D01*
X86550752Y-100542523D01*
X86788555Y-100691945D01*
X87041592Y-100813801D01*
X87240680Y-100883465D01*
X87306670Y-100906556D01*
X87306682Y-100906560D01*
X87580491Y-100969055D01*
X87580497Y-100969055D01*
X87580505Y-100969057D01*
X87766547Y-100990018D01*
X87859569Y-101000499D01*
X87859572Y-101000500D01*
X87859575Y-101000500D01*
X88140428Y-101000500D01*
X88140429Y-101000499D01*
X88283055Y-100984429D01*
X88419494Y-100969057D01*
X88419499Y-100969056D01*
X88419509Y-100969055D01*
X88693318Y-100906560D01*
X88958408Y-100813801D01*
X89211445Y-100691945D01*
X89449248Y-100542523D01*
X89668825Y-100367416D01*
X89867416Y-100168825D01*
X90042523Y-99949248D01*
X90191945Y-99711445D01*
X90313801Y-99458408D01*
X90406560Y-99193318D01*
X90469055Y-98919509D01*
X90476980Y-98849177D01*
X90500499Y-98640431D01*
X90500500Y-98640427D01*
X90500500Y-98359572D01*
X90500499Y-98359568D01*
X90469057Y-98080505D01*
X90469054Y-98080487D01*
X90406560Y-97806682D01*
X90406556Y-97806670D01*
X90382929Y-97739148D01*
X90313801Y-97541592D01*
X90191945Y-97288555D01*
X90042523Y-97050752D01*
X89867416Y-96831175D01*
X89668825Y-96632584D01*
X89449248Y-96457477D01*
X89211445Y-96308055D01*
X89211442Y-96308053D01*
X88958411Y-96186200D01*
X88693329Y-96093443D01*
X88693317Y-96093439D01*
X88419512Y-96030945D01*
X88419494Y-96030942D01*
X88140431Y-95999500D01*
X88140425Y-95999500D01*
X87859575Y-95999500D01*
X87859568Y-95999500D01*
X87580505Y-96030942D01*
X87580487Y-96030945D01*
X87306682Y-96093439D01*
X87306670Y-96093443D01*
X87041588Y-96186200D01*
X86788557Y-96308053D01*
X86550753Y-96457476D01*
X86331175Y-96632583D01*
X86132583Y-96831175D01*
X85957476Y-97050753D01*
X85808053Y-97288557D01*
X85686200Y-97541588D01*
X85593443Y-97806670D01*
X85593439Y-97806682D01*
X85530945Y-98080487D01*
X85530942Y-98080505D01*
X85499500Y-98359568D01*
X77475499Y-98359568D01*
X77475499Y-98150824D01*
X77468314Y-98080491D01*
X77465174Y-98049747D01*
X77410908Y-97885984D01*
X77320340Y-97739150D01*
X77198350Y-97617160D01*
X77075835Y-97541592D01*
X77051518Y-97526593D01*
X77051513Y-97526591D01*
X77050069Y-97526112D01*
X76887753Y-97472326D01*
X76887751Y-97472325D01*
X76786678Y-97462000D01*
X76213330Y-97462000D01*
X76213312Y-97462001D01*
X76112247Y-97472325D01*
X75948484Y-97526592D01*
X75948481Y-97526593D01*
X75801648Y-97617161D01*
X75679661Y-97739148D01*
X75589093Y-97885981D01*
X75589092Y-97885984D01*
X75534826Y-98049747D01*
X75534826Y-98049748D01*
X75534825Y-98049748D01*
X75524500Y-98150815D01*
X64000500Y-98150815D01*
X64000500Y-91794038D01*
X67899500Y-91794038D01*
X67899500Y-92045961D01*
X67938910Y-92294785D01*
X68016760Y-92534383D01*
X68131132Y-92758848D01*
X68279201Y-92962649D01*
X68279205Y-92962654D01*
X68457345Y-93140794D01*
X68457350Y-93140798D01*
X68635117Y-93269952D01*
X68661155Y-93288870D01*
X68804184Y-93361747D01*
X68885616Y-93403239D01*
X68885618Y-93403239D01*
X68885621Y-93403241D01*
X69125215Y-93481090D01*
X69374038Y-93520500D01*
X69374039Y-93520500D01*
X69625961Y-93520500D01*
X69625962Y-93520500D01*
X69874785Y-93481090D01*
X70114379Y-93403241D01*
X70338845Y-93288870D01*
X70542656Y-93140793D01*
X70720793Y-92962656D01*
X70868870Y-92758845D01*
X70983241Y-92534379D01*
X71061090Y-92294785D01*
X71100500Y-92045962D01*
X71100500Y-91794038D01*
X71061090Y-91545215D01*
X70983241Y-91305621D01*
X70983239Y-91305618D01*
X70983239Y-91305616D01*
X70941747Y-91224184D01*
X70868870Y-91081155D01*
X70849952Y-91055117D01*
X70720798Y-90877350D01*
X70720794Y-90877345D01*
X70542654Y-90699205D01*
X70542649Y-90699201D01*
X70338848Y-90551132D01*
X70338847Y-90551131D01*
X70338845Y-90551130D01*
X70268747Y-90515413D01*
X70114383Y-90436760D01*
X69874785Y-90358910D01*
X69625962Y-90319500D01*
X69374038Y-90319500D01*
X69249626Y-90339205D01*
X69125214Y-90358910D01*
X68885616Y-90436760D01*
X68661151Y-90551132D01*
X68457350Y-90699201D01*
X68457345Y-90699205D01*
X68279205Y-90877345D01*
X68279201Y-90877350D01*
X68131132Y-91081151D01*
X68016760Y-91305616D01*
X67938910Y-91545214D01*
X67899500Y-91794038D01*
X64000500Y-91794038D01*
X64000500Y-88905513D01*
X69299500Y-88905513D01*
X69299500Y-89094486D01*
X69329059Y-89281118D01*
X69387454Y-89460836D01*
X69455550Y-89594481D01*
X69473240Y-89629199D01*
X69584310Y-89782073D01*
X69717927Y-89915690D01*
X69870801Y-90026760D01*
X69950347Y-90067290D01*
X70039163Y-90112545D01*
X70039165Y-90112545D01*
X70039168Y-90112547D01*
X70135497Y-90143846D01*
X70218881Y-90170940D01*
X70405514Y-90200500D01*
X70405519Y-90200500D01*
X70594486Y-90200500D01*
X70781118Y-90170940D01*
X70796229Y-90166030D01*
X70960832Y-90112547D01*
X71129199Y-90026760D01*
X71282073Y-89915690D01*
X71412319Y-89785444D01*
X71473642Y-89751959D01*
X71543334Y-89756943D01*
X71587681Y-89785444D01*
X71717927Y-89915690D01*
X71870801Y-90026760D01*
X71950347Y-90067290D01*
X72039163Y-90112545D01*
X72039165Y-90112545D01*
X72039168Y-90112547D01*
X72135497Y-90143846D01*
X72218881Y-90170940D01*
X72405514Y-90200500D01*
X72405519Y-90200500D01*
X72594486Y-90200500D01*
X72781118Y-90170940D01*
X72796229Y-90166030D01*
X72960832Y-90112547D01*
X73129199Y-90026760D01*
X73282073Y-89915690D01*
X73415690Y-89782073D01*
X73526760Y-89629199D01*
X73612547Y-89460832D01*
X73630521Y-89405513D01*
X85299500Y-89405513D01*
X85299500Y-89594486D01*
X85329059Y-89781118D01*
X85387454Y-89960836D01*
X85464754Y-90112545D01*
X85473240Y-90129199D01*
X85584310Y-90282073D01*
X85717927Y-90415690D01*
X85870801Y-90526760D01*
X85918630Y-90551130D01*
X86039163Y-90612545D01*
X86039165Y-90612545D01*
X86039168Y-90612547D01*
X86135497Y-90643846D01*
X86218881Y-90670940D01*
X86405514Y-90700500D01*
X86405519Y-90700500D01*
X86594486Y-90700500D01*
X86781118Y-90670940D01*
X86960832Y-90612547D01*
X87129199Y-90526760D01*
X87282073Y-90415690D01*
X87412319Y-90285444D01*
X87473642Y-90251959D01*
X87543334Y-90256943D01*
X87587681Y-90285444D01*
X87717927Y-90415690D01*
X87870801Y-90526760D01*
X87918630Y-90551130D01*
X88039163Y-90612545D01*
X88039165Y-90612545D01*
X88039168Y-90612547D01*
X88135497Y-90643846D01*
X88218881Y-90670940D01*
X88405514Y-90700500D01*
X88405519Y-90700500D01*
X88594486Y-90700500D01*
X88781118Y-90670940D01*
X88960832Y-90612547D01*
X89129199Y-90526760D01*
X89282073Y-90415690D01*
X89415690Y-90282073D01*
X89526760Y-90129199D01*
X89612547Y-89960832D01*
X89670940Y-89781118D01*
X89689168Y-89666030D01*
X89700500Y-89594486D01*
X89700500Y-89405513D01*
X89670940Y-89218881D01*
X89612545Y-89039163D01*
X89567290Y-88950347D01*
X89526760Y-88870801D01*
X89415690Y-88717927D01*
X89282073Y-88584310D01*
X89129199Y-88473240D01*
X88960836Y-88387454D01*
X88781118Y-88329059D01*
X88594486Y-88299500D01*
X88594481Y-88299500D01*
X88405519Y-88299500D01*
X88405514Y-88299500D01*
X88218881Y-88329059D01*
X88039163Y-88387454D01*
X87870800Y-88473240D01*
X87783579Y-88536610D01*
X87717927Y-88584310D01*
X87717925Y-88584312D01*
X87717924Y-88584312D01*
X87587681Y-88714556D01*
X87526358Y-88748041D01*
X87456666Y-88743057D01*
X87412319Y-88714556D01*
X87282075Y-88584312D01*
X87282073Y-88584310D01*
X87129199Y-88473240D01*
X86960836Y-88387454D01*
X86781118Y-88329059D01*
X86594486Y-88299500D01*
X86594481Y-88299500D01*
X86405519Y-88299500D01*
X86405514Y-88299500D01*
X86218881Y-88329059D01*
X86039163Y-88387454D01*
X85870800Y-88473240D01*
X85783579Y-88536610D01*
X85717927Y-88584310D01*
X85717925Y-88584312D01*
X85717924Y-88584312D01*
X85584312Y-88717924D01*
X85584312Y-88717925D01*
X85584310Y-88717927D01*
X85566052Y-88743057D01*
X85473240Y-88870800D01*
X85387454Y-89039163D01*
X85329059Y-89218881D01*
X85299500Y-89405513D01*
X73630521Y-89405513D01*
X73670940Y-89281118D01*
X73680797Y-89218882D01*
X73700500Y-89094486D01*
X73700500Y-88905513D01*
X73670940Y-88718881D01*
X73627215Y-88584312D01*
X73612547Y-88539168D01*
X73612545Y-88539165D01*
X73612545Y-88539163D01*
X73535245Y-88387454D01*
X73526760Y-88370801D01*
X73415690Y-88217927D01*
X73282073Y-88084310D01*
X73129199Y-87973240D01*
X72960836Y-87887454D01*
X72781118Y-87829059D01*
X72594486Y-87799500D01*
X72594481Y-87799500D01*
X72405519Y-87799500D01*
X72405514Y-87799500D01*
X72218881Y-87829059D01*
X72039163Y-87887454D01*
X71870800Y-87973240D01*
X71783579Y-88036610D01*
X71717927Y-88084310D01*
X71717925Y-88084312D01*
X71717924Y-88084312D01*
X71587681Y-88214556D01*
X71526358Y-88248041D01*
X71456666Y-88243057D01*
X71412319Y-88214556D01*
X71282075Y-88084312D01*
X71282073Y-88084310D01*
X71129199Y-87973240D01*
X70960836Y-87887454D01*
X70781118Y-87829059D01*
X70594486Y-87799500D01*
X70594481Y-87799500D01*
X70405519Y-87799500D01*
X70405514Y-87799500D01*
X70218881Y-87829059D01*
X70039163Y-87887454D01*
X69870800Y-87973240D01*
X69783579Y-88036610D01*
X69717927Y-88084310D01*
X69717925Y-88084312D01*
X69717924Y-88084312D01*
X69584312Y-88217924D01*
X69584312Y-88217925D01*
X69584310Y-88217927D01*
X69566052Y-88243057D01*
X69473240Y-88370800D01*
X69387454Y-88539163D01*
X69329059Y-88718881D01*
X69299500Y-88905513D01*
X64000500Y-88905513D01*
X64000500Y-85003750D01*
X64000726Y-84996263D01*
X64006929Y-84893713D01*
X65149500Y-84893713D01*
X65149500Y-85106286D01*
X65182753Y-85316239D01*
X65248444Y-85518414D01*
X65344951Y-85707820D01*
X65469890Y-85879786D01*
X65620213Y-86030109D01*
X65792179Y-86155048D01*
X65792181Y-86155049D01*
X65792184Y-86155051D01*
X65981588Y-86251557D01*
X66183757Y-86317246D01*
X66393713Y-86350500D01*
X66393714Y-86350500D01*
X66606286Y-86350500D01*
X66606287Y-86350500D01*
X66816243Y-86317246D01*
X67018412Y-86251557D01*
X67207816Y-86155051D01*
X67229789Y-86139086D01*
X67379786Y-86030109D01*
X67379788Y-86030106D01*
X67379792Y-86030104D01*
X67530104Y-85879792D01*
X67530106Y-85879788D01*
X67530109Y-85879786D01*
X67655048Y-85707820D01*
X67655047Y-85707820D01*
X67655051Y-85707816D01*
X67751557Y-85518412D01*
X67817246Y-85316243D01*
X67850500Y-85106287D01*
X67850500Y-84893713D01*
X101149500Y-84893713D01*
X101149500Y-85106286D01*
X101182753Y-85316239D01*
X101248444Y-85518414D01*
X101344951Y-85707820D01*
X101469890Y-85879786D01*
X101620213Y-86030109D01*
X101792179Y-86155048D01*
X101792181Y-86155049D01*
X101792184Y-86155051D01*
X101981588Y-86251557D01*
X102183757Y-86317246D01*
X102393713Y-86350500D01*
X102393714Y-86350500D01*
X102606286Y-86350500D01*
X102606287Y-86350500D01*
X102816243Y-86317246D01*
X103018412Y-86251557D01*
X103207816Y-86155051D01*
X103229789Y-86139086D01*
X103379786Y-86030109D01*
X103379788Y-86030106D01*
X103379792Y-86030104D01*
X103530104Y-85879792D01*
X103530106Y-85879788D01*
X103530109Y-85879786D01*
X103655048Y-85707820D01*
X103655047Y-85707820D01*
X103655051Y-85707816D01*
X103751557Y-85518412D01*
X103817246Y-85316243D01*
X103850500Y-85106287D01*
X103850500Y-84893713D01*
X103817246Y-84683757D01*
X103751557Y-84481588D01*
X103655051Y-84292184D01*
X103655049Y-84292181D01*
X103655048Y-84292179D01*
X103530109Y-84120213D01*
X103379786Y-83969890D01*
X103207820Y-83844951D01*
X103018414Y-83748444D01*
X103018413Y-83748443D01*
X103018412Y-83748443D01*
X102816243Y-83682754D01*
X102816241Y-83682753D01*
X102816240Y-83682753D01*
X102654957Y-83657208D01*
X102606287Y-83649500D01*
X102393713Y-83649500D01*
X102345042Y-83657208D01*
X102183760Y-83682753D01*
X101981585Y-83748444D01*
X101792179Y-83844951D01*
X101620213Y-83969890D01*
X101469890Y-84120213D01*
X101344951Y-84292179D01*
X101248444Y-84481585D01*
X101182753Y-84683760D01*
X101149500Y-84893713D01*
X67850500Y-84893713D01*
X67817246Y-84683757D01*
X67751557Y-84481588D01*
X67655051Y-84292184D01*
X67655049Y-84292181D01*
X67655048Y-84292179D01*
X67530109Y-84120213D01*
X67379786Y-83969890D01*
X67207820Y-83844951D01*
X67018414Y-83748444D01*
X67018413Y-83748443D01*
X67018412Y-83748443D01*
X66816243Y-83682754D01*
X66816241Y-83682753D01*
X66816240Y-83682753D01*
X66654957Y-83657208D01*
X66606287Y-83649500D01*
X66393713Y-83649500D01*
X66345042Y-83657208D01*
X66183760Y-83682753D01*
X65981585Y-83748444D01*
X65792179Y-83844951D01*
X65620213Y-83969890D01*
X65469890Y-84120213D01*
X65344951Y-84292179D01*
X65248444Y-84481585D01*
X65182753Y-84683760D01*
X65149500Y-84893713D01*
X64006929Y-84893713D01*
X64007677Y-84881354D01*
X64018271Y-84706205D01*
X64020076Y-84691340D01*
X64071780Y-84409201D01*
X64075364Y-84394663D01*
X64107298Y-84292184D01*
X64160696Y-84120822D01*
X64165998Y-84106841D01*
X64283731Y-83845249D01*
X64290676Y-83832016D01*
X64439080Y-83586526D01*
X64447567Y-83574230D01*
X64624480Y-83348417D01*
X64634395Y-83337226D01*
X64837226Y-83134395D01*
X64848417Y-83124480D01*
X65074230Y-82947567D01*
X65086526Y-82939080D01*
X65332016Y-82790676D01*
X65345249Y-82783731D01*
X65606841Y-82665998D01*
X65620822Y-82660696D01*
X65894668Y-82575362D01*
X65909197Y-82571780D01*
X66191344Y-82520075D01*
X66206201Y-82518271D01*
X66496264Y-82500726D01*
X66503751Y-82500500D01*
X66565892Y-82500500D01*
X102434108Y-82500500D01*
X102496249Y-82500500D01*
X102503736Y-82500726D01*
G37*
%TD.AperFunction*%
%TD*%
M02*
