%TF.GenerationSoftware,KiCad,Pcbnew,9.0.4*%
%TF.CreationDate,2026-02-20T17:24:49-06:00*%
%TF.ProjectId,Onboarding,4f6e626f-6172-4646-996e-672e6b696361,rev?*%
%TF.SameCoordinates,Original*%
%TF.FileFunction,Soldermask,Top*%
%TF.FilePolarity,Negative*%
%FSLAX46Y46*%
G04 Gerber Fmt 4.6, Leading zero omitted, Abs format (unit mm)*
G04 Created by KiCad (PCBNEW 9.0.4) date 2026-02-20 17:24:49*
%MOMM*%
%LPD*%
G01*
G04 APERTURE LIST*
G04 Aperture macros list*
%AMRoundRect*
0 Rectangle with rounded corners*
0 $1 Rounding radius*
0 $2 $3 $4 $5 $6 $7 $8 $9 X,Y pos of 4 corners*
0 Add a 4 corners polygon primitive as box body*
4,1,4,$2,$3,$4,$5,$6,$7,$8,$9,$2,$3,0*
0 Add four circle primitives for the rounded corners*
1,1,$1+$1,$2,$3*
1,1,$1+$1,$4,$5*
1,1,$1+$1,$6,$7*
1,1,$1+$1,$8,$9*
0 Add four rect primitives between the rounded corners*
20,1,$1+$1,$2,$3,$4,$5,0*
20,1,$1+$1,$4,$5,$6,$7,0*
20,1,$1+$1,$6,$7,$8,$9,0*
20,1,$1+$1,$8,$9,$2,$3,0*%
G04 Aperture macros list end*
%ADD10C,1.400000*%
%ADD11R,1.520000X10.160000*%
%ADD12RoundRect,0.237500X0.237500X-0.300000X0.237500X0.300000X-0.237500X0.300000X-0.237500X-0.300000X0*%
%ADD13RoundRect,0.150000X0.825000X0.150000X-0.825000X0.150000X-0.825000X-0.150000X0.825000X-0.150000X0*%
%ADD14RoundRect,0.760000X1.140000X-1.140000X1.140000X1.140000X-1.140000X1.140000X-1.140000X-1.140000X0*%
%ADD15C,4.000000*%
%ADD16RoundRect,0.250000X0.475000X-0.250000X0.475000X0.250000X-0.475000X0.250000X-0.475000X-0.250000X0*%
%ADD17RoundRect,0.150000X-0.150000X-0.700000X0.150000X-0.700000X0.150000X0.700000X-0.150000X0.700000X0*%
%ADD18RoundRect,0.250000X-0.250000X-1.150000X0.250000X-1.150000X0.250000X1.150000X-0.250000X1.150000X0*%
%ADD19RoundRect,0.237500X-0.250000X-0.237500X0.250000X-0.237500X0.250000X0.237500X-0.250000X0.237500X0*%
%ADD20R,1.200000X0.750000*%
%ADD21RoundRect,0.250000X-0.550000X-0.550000X0.550000X-0.550000X0.550000X0.550000X-0.550000X0.550000X0*%
%ADD22C,1.600000*%
%ADD23RoundRect,0.760000X-1.140000X-1.140000X1.140000X-1.140000X1.140000X1.140000X-1.140000X1.140000X0*%
%ADD24C,3.800000*%
%ADD25RoundRect,0.237500X0.237500X-0.250000X0.237500X0.250000X-0.237500X0.250000X-0.237500X-0.250000X0*%
%ADD26RoundRect,0.250000X-0.350000X-0.450000X0.350000X-0.450000X0.350000X0.450000X-0.350000X0.450000X0*%
%ADD27RoundRect,0.237500X0.250000X0.237500X-0.250000X0.237500X-0.250000X-0.237500X0.250000X-0.237500X0*%
G04 APERTURE END LIST*
D10*
%TO.C,TP2*%
X208500000Y-103000000D03*
X208500000Y-105000000D03*
%TD*%
D11*
%TO.C,L1*%
X195930000Y-108500000D03*
X205070000Y-108500000D03*
%TD*%
D12*
%TO.C,C3*%
X207000000Y-96862500D03*
X207000000Y-95137500D03*
%TD*%
D13*
%TO.C,U1*%
X204475000Y-99905000D03*
X204475000Y-98635000D03*
X204475000Y-97365000D03*
X204475000Y-96095000D03*
X199525000Y-96095000D03*
X199525000Y-97365000D03*
X199525000Y-98635000D03*
X199525000Y-99905000D03*
%TD*%
D14*
%TO.C,J1*%
X190000000Y-102500000D03*
D15*
X190000000Y-97500000D03*
%TD*%
D16*
%TO.C,C2*%
X197000000Y-96450000D03*
X197000000Y-94550000D03*
%TD*%
D17*
%TO.C,J3*%
X215725000Y-100450000D03*
X216975000Y-100450000D03*
D18*
X213875000Y-97100000D03*
X218825000Y-97100000D03*
%TD*%
D19*
%TO.C,R2*%
X201587500Y-93000000D03*
X203412500Y-93000000D03*
%TD*%
D20*
%TO.C,D1*%
X210400000Y-100000000D03*
X207000000Y-100000000D03*
%TD*%
D10*
%TO.C,TP1*%
X192500000Y-107000000D03*
X192500000Y-109000000D03*
%TD*%
D21*
%TO.C,C1*%
X208500000Y-91000000D03*
D22*
X213500000Y-91000000D03*
%TD*%
D23*
%TO.C,J2*%
X198000000Y-89000000D03*
D24*
X203000000Y-89000000D03*
%TD*%
D25*
%TO.C,R3*%
X194500000Y-98912500D03*
X194500000Y-97087500D03*
%TD*%
D17*
%TO.C,J4*%
X215875000Y-107450000D03*
X217125000Y-107450000D03*
D18*
X214025000Y-104100000D03*
X218975000Y-104100000D03*
%TD*%
D26*
%TO.C,R4*%
X195000000Y-101000000D03*
X197000000Y-101000000D03*
%TD*%
D27*
%TO.C,R1*%
X198325000Y-93000000D03*
X196500000Y-93000000D03*
%TD*%
M02*
