%TF.GenerationSoftware,KiCad,Pcbnew,9.0.0*%
%TF.CreationDate,2026-02-01T14:29:33-06:00*%
%TF.ProjectId,Onboarding,4f6e626f-6172-4646-996e-672e6b696361,rev?*%
%TF.SameCoordinates,Original*%
%TF.FileFunction,Copper,L1,Top*%
%TF.FilePolarity,Positive*%
%FSLAX46Y46*%
G04 Gerber Fmt 4.6, Leading zero omitted, Abs format (unit mm)*
G04 Created by KiCad (PCBNEW 9.0.0) date 2026-02-01 14:29:33*
%MOMM*%
%LPD*%
G01*
G04 APERTURE LIST*
G04 Aperture macros list*
%AMRoundRect*
0 Rectangle with rounded corners*
0 $1 Rounding radius*
0 $2 $3 $4 $5 $6 $7 $8 $9 X,Y pos of 4 corners*
0 Add a 4 corners polygon primitive as box body*
4,1,4,$2,$3,$4,$5,$6,$7,$8,$9,$2,$3,0*
0 Add four circle primitives for the rounded corners*
1,1,$1+$1,$2,$3*
1,1,$1+$1,$4,$5*
1,1,$1+$1,$6,$7*
1,1,$1+$1,$8,$9*
0 Add four rect primitives between the rounded corners*
20,1,$1+$1,$2,$3,$4,$5,0*
20,1,$1+$1,$4,$5,$6,$7,0*
20,1,$1+$1,$6,$7,$8,$9,0*
20,1,$1+$1,$8,$9,$2,$3,0*%
G04 Aperture macros list end*
%TA.AperFunction,ComponentPad*%
%ADD10R,2.200000X2.200000*%
%TD*%
%TA.AperFunction,ComponentPad*%
%ADD11O,2.200000X2.200000*%
%TD*%
%TA.AperFunction,SMDPad,CuDef*%
%ADD12RoundRect,0.250000X-0.250000X-0.475000X0.250000X-0.475000X0.250000X0.475000X-0.250000X0.475000X0*%
%TD*%
%TA.AperFunction,SMDPad,CuDef*%
%ADD13RoundRect,0.237500X-0.250000X-0.237500X0.250000X-0.237500X0.250000X0.237500X-0.250000X0.237500X0*%
%TD*%
%TA.AperFunction,SMDPad,CuDef*%
%ADD14RoundRect,0.150000X-0.150000X-0.700000X0.150000X-0.700000X0.150000X0.700000X-0.150000X0.700000X0*%
%TD*%
%TA.AperFunction,SMDPad,CuDef*%
%ADD15RoundRect,0.250000X-0.250000X-1.150000X0.250000X-1.150000X0.250000X1.150000X-0.250000X1.150000X0*%
%TD*%
%TA.AperFunction,SMDPad,CuDef*%
%ADD16RoundRect,0.150000X-0.825000X-0.150000X0.825000X-0.150000X0.825000X0.150000X-0.825000X0.150000X0*%
%TD*%
%TA.AperFunction,ComponentPad*%
%ADD17R,1.600000X1.600000*%
%TD*%
%TA.AperFunction,ComponentPad*%
%ADD18C,1.600000*%
%TD*%
%TA.AperFunction,ComponentPad*%
%ADD19RoundRect,0.760000X-1.140000X-1.140000X1.140000X-1.140000X1.140000X1.140000X-1.140000X1.140000X0*%
%TD*%
%TA.AperFunction,ComponentPad*%
%ADD20C,3.800000*%
%TD*%
%TA.AperFunction,ComponentPad*%
%ADD21C,1.400000*%
%TD*%
%TA.AperFunction,SMDPad,CuDef*%
%ADD22R,4.300000X1.700000*%
%TD*%
%TA.AperFunction,SMDPad,CuDef*%
%ADD23RoundRect,0.237500X-0.300000X-0.237500X0.300000X-0.237500X0.300000X0.237500X-0.300000X0.237500X0*%
%TD*%
%TA.AperFunction,ComponentPad*%
%ADD24RoundRect,0.760000X1.140000X-1.140000X1.140000X1.140000X-1.140000X1.140000X-1.140000X-1.140000X0*%
%TD*%
%TA.AperFunction,ComponentPad*%
%ADD25C,4.000000*%
%TD*%
%TA.AperFunction,SMDPad,CuDef*%
%ADD26RoundRect,0.250000X-0.350000X-0.450000X0.350000X-0.450000X0.350000X0.450000X-0.350000X0.450000X0*%
%TD*%
%TA.AperFunction,ViaPad*%
%ADD27C,0.600000*%
%TD*%
%TA.AperFunction,Conductor*%
%ADD28C,0.200000*%
%TD*%
G04 APERTURE END LIST*
D10*
%TO.P,D1,1,K*%
%TO.N,VCC*%
X163000000Y-104000000D03*
D11*
%TO.P,D1,2,A*%
%TO.N,Net-(D1-A)*%
X163000000Y-93840000D03*
%TD*%
D12*
%TO.P,C4,1*%
%TO.N,+12V*%
X178100000Y-99000000D03*
%TO.P,C4,2*%
%TO.N,GND*%
X180000000Y-99000000D03*
%TD*%
D13*
%TO.P,R4,1*%
%TO.N,Net-(U1-COMP-)*%
X178175000Y-102000000D03*
%TO.P,R4,2*%
%TO.N,GND*%
X180000000Y-102000000D03*
%TD*%
D14*
%TO.P,J4,1,Pin_1*%
%TO.N,/CAN-*%
X154900000Y-103950000D03*
%TO.P,J4,2,Pin_2*%
%TO.N,/CAN+*%
X156150000Y-103950000D03*
D15*
%TO.P,J4,MP*%
%TO.N,N/C*%
X153050000Y-100600000D03*
X158000000Y-100600000D03*
%TD*%
D13*
%TO.P,R2,1*%
%TO.N,VCC*%
X174175000Y-102000000D03*
%TO.P,R2,2*%
%TO.N,Net-(U1-COMP-)*%
X176000000Y-102000000D03*
%TD*%
D16*
%TO.P,U1,1,SC*%
%TO.N,Net-(D1-A)*%
X170050000Y-94095000D03*
%TO.P,U1,2,SE*%
%TO.N,GND*%
X170050000Y-95365000D03*
%TO.P,U1,3,CT*%
%TO.N,Net-(U1-CT)*%
X170050000Y-96635000D03*
%TO.P,U1,4,GND*%
%TO.N,GND*%
X170050000Y-97905000D03*
%TO.P,U1,5,COMP-*%
%TO.N,Net-(U1-COMP-)*%
X175000000Y-97905000D03*
%TO.P,U1,6,VCC*%
%TO.N,+12V*%
X175000000Y-96635000D03*
%TO.P,U1,7,I_{PK}*%
%TO.N,Net-(U1-I_{PK})*%
X175000000Y-95365000D03*
%TO.P,U1,8,DC*%
%TO.N,Net-(U1-DC)*%
X175000000Y-94095000D03*
%TD*%
D17*
%TO.P,C1,1*%
%TO.N,VCC*%
X172000000Y-109000000D03*
D18*
%TO.P,C1,2*%
%TO.N,GND*%
X177000000Y-109000000D03*
%TD*%
D19*
%TO.P,J2,1,Pin_1*%
%TO.N,GND*%
X160000000Y-110000000D03*
D20*
%TO.P,J2,2,Pin_2*%
%TO.N,VCC*%
X165000000Y-110000000D03*
%TD*%
D21*
%TO.P,TP1,1,1*%
%TO.N,Net-(U1-I_{PK})*%
X184000000Y-96000000D03*
X184000000Y-98000000D03*
%TD*%
%TO.P,TP2,1,1*%
%TO.N,Net-(D1-A)*%
X170000000Y-88000000D03*
X172000000Y-88000000D03*
%TD*%
D22*
%TO.P,L1,1,1*%
%TO.N,Net-(U1-I_{PK})*%
X180000000Y-92000000D03*
%TO.P,L1,2,2*%
%TO.N,Net-(D1-A)*%
X180000000Y-88800000D03*
%TD*%
D13*
%TO.P,R3,1*%
%TO.N,Net-(U1-I_{PK})*%
X178175000Y-96000000D03*
%TO.P,R3,2*%
%TO.N,+12V*%
X180000000Y-96000000D03*
%TD*%
D23*
%TO.P,C2,1*%
%TO.N,Net-(U1-CT)*%
X166275000Y-102000000D03*
%TO.P,C2,2*%
%TO.N,GND*%
X168000000Y-102000000D03*
%TD*%
D24*
%TO.P,J1,1,Pin_1*%
%TO.N,GND*%
X184000000Y-110000000D03*
D25*
%TO.P,J1,2,Pin_2*%
%TO.N,+12V*%
X184000000Y-105000000D03*
%TD*%
D14*
%TO.P,J3,1,Pin_1*%
%TO.N,/CAN-*%
X154900000Y-92350000D03*
%TO.P,J3,2,Pin_2*%
%TO.N,/CAN+*%
X156150000Y-92350000D03*
D15*
%TO.P,J3,MP*%
%TO.N,N/C*%
X153050000Y-89000000D03*
X158000000Y-89000000D03*
%TD*%
D26*
%TO.P,R1,1*%
%TO.N,Net-(U1-DC)*%
X170000000Y-102000000D03*
%TO.P,R1,2*%
%TO.N,Net-(U1-I_{PK})*%
X172000000Y-102000000D03*
%TD*%
D27*
%TO.N,GND*%
X168000000Y-105000000D03*
X182000000Y-100000000D03*
%TD*%
D28*
%TO.N,GND*%
X168000000Y-99955000D02*
X168000000Y-102000000D01*
X179000000Y-110000000D02*
X184000000Y-110000000D01*
X180000000Y-106000000D02*
X177000000Y-109000000D01*
X171024999Y-95365000D02*
X171326000Y-95666001D01*
X171326000Y-97603999D02*
X171024999Y-97905000D01*
X171326000Y-95666001D02*
X171326000Y-97603999D01*
X177000000Y-109000000D02*
X178000000Y-109000000D01*
X181000000Y-100000000D02*
X182000000Y-100000000D01*
X171024999Y-97905000D02*
X170050000Y-97905000D01*
X180000000Y-99000000D02*
X181000000Y-100000000D01*
X168000000Y-105000000D02*
X168000000Y-102000000D01*
X180000000Y-102000000D02*
X180000000Y-106000000D01*
X170050000Y-97905000D02*
X168000000Y-99955000D01*
X170050000Y-95365000D02*
X171024999Y-95365000D01*
X178000000Y-109000000D02*
X179000000Y-110000000D01*
%TO.N,VCC*%
X163000000Y-104000000D02*
X163000000Y-108000000D01*
X172000000Y-109000000D02*
X172000000Y-104175000D01*
X172000000Y-104175000D02*
X174175000Y-102000000D01*
X171000000Y-109000000D02*
X170000000Y-110000000D01*
X163000000Y-108000000D02*
X165000000Y-110000000D01*
X172000000Y-109000000D02*
X171000000Y-109000000D01*
X170000000Y-110000000D02*
X165000000Y-110000000D01*
%TO.N,Net-(U1-CT)*%
X166275000Y-99435001D02*
X169075001Y-96635000D01*
X169075001Y-96635000D02*
X170050000Y-96635000D01*
X166275000Y-102000000D02*
X166275000Y-99435001D01*
%TO.N,+12V*%
X180000000Y-100026000D02*
X184000000Y-104026000D01*
X178100000Y-97900000D02*
X180000000Y-96000000D01*
X184000000Y-104026000D02*
X184000000Y-105000000D01*
X178100000Y-99000000D02*
X179126000Y-100026000D01*
X178100000Y-99000000D02*
X178100000Y-97900000D01*
X175735000Y-96635000D02*
X178100000Y-99000000D01*
X179126000Y-100026000D02*
X180000000Y-100026000D01*
X175000000Y-96635000D02*
X175735000Y-96635000D01*
%TO.N,Net-(D1-A)*%
X163000000Y-93840000D02*
X169795000Y-93840000D01*
X172000000Y-88000000D02*
X172800000Y-88800000D01*
X172800000Y-88800000D02*
X175345000Y-88800000D01*
X180000000Y-88800000D02*
X175345000Y-88800000D01*
X175345000Y-88800000D02*
X170050000Y-94095000D01*
X169795000Y-93840000D02*
X170050000Y-94095000D01*
%TO.N,/CAN-*%
X154900000Y-103950000D02*
X154900000Y-102674999D01*
X155300000Y-102274999D02*
X155300000Y-94025001D01*
X154900000Y-93625001D02*
X154900000Y-92350000D01*
X154900000Y-102674999D02*
X155300000Y-102274999D01*
X155300000Y-94025001D02*
X154900000Y-93625001D01*
%TO.N,/CAN+*%
X156150000Y-103950000D02*
X156150000Y-102674999D01*
X155750000Y-102274999D02*
X155750000Y-94025001D01*
X156150000Y-102674999D02*
X155750000Y-102274999D01*
X156150000Y-93625001D02*
X156150000Y-92350000D01*
X155750000Y-94025001D02*
X156150000Y-93625001D01*
%TO.N,Net-(U1-I_{PK})*%
X173000000Y-101000000D02*
X172000000Y-102000000D01*
X175000000Y-95365000D02*
X173635000Y-95365000D01*
X173635000Y-95365000D02*
X173000000Y-96000000D01*
X176635000Y-95365000D02*
X175000000Y-95365000D01*
X184000000Y-96000000D02*
X180000000Y-92000000D01*
X180000000Y-92000000D02*
X176635000Y-95365000D01*
X173000000Y-96000000D02*
X173000000Y-101000000D01*
X175635000Y-96000000D02*
X175000000Y-95365000D01*
X178175000Y-96000000D02*
X175635000Y-96000000D01*
%TO.N,Net-(U1-DC)*%
X172000000Y-96120001D02*
X172000000Y-100000000D01*
X175000000Y-94095000D02*
X174025001Y-94095000D01*
X172000000Y-100000000D02*
X170000000Y-102000000D01*
X174025001Y-94095000D02*
X172000000Y-96120001D01*
%TO.N,Net-(U1-COMP-)*%
X176000000Y-102000000D02*
X176000000Y-98905000D01*
X176000000Y-102000000D02*
X178175000Y-102000000D01*
X176000000Y-98905000D02*
X175000000Y-97905000D01*
%TD*%
%TA.AperFunction,Conductor*%
%TO.N,GND*%
G36*
X168100070Y-104409191D02*
G01*
X168102796Y-104413476D01*
X168289608Y-104928709D01*
X168289207Y-104937655D01*
X168282597Y-104943696D01*
X168280929Y-104944165D01*
X168002320Y-105000530D01*
X167997680Y-105000530D01*
X167719070Y-104944165D01*
X167711641Y-104939165D01*
X167709922Y-104930377D01*
X167710387Y-104928720D01*
X167897204Y-104413476D01*
X167903245Y-104406866D01*
X167908203Y-104405764D01*
X168091797Y-104405764D01*
X168100070Y-104409191D01*
G37*
%TD.AperFunction*%
%TD*%
%TA.AperFunction,Conductor*%
%TO.N,GND*%
G36*
X181937655Y-99710792D02*
G01*
X181943696Y-99717402D01*
X181944165Y-99719070D01*
X182000530Y-99997680D01*
X182000530Y-100002320D01*
X181944165Y-100280929D01*
X181939165Y-100288358D01*
X181930377Y-100290077D01*
X181928709Y-100289608D01*
X181413476Y-100102796D01*
X181406866Y-100096755D01*
X181405764Y-100091797D01*
X181405764Y-99908202D01*
X181409191Y-99899929D01*
X181413473Y-99897204D01*
X181928711Y-99710391D01*
X181937655Y-99710792D01*
G37*
%TD.AperFunction*%
%TD*%
M02*
