%TF.GenerationSoftware,KiCad,Pcbnew,9.0.4*%
%TF.CreationDate,2025-09-28T15:06:45-05:00*%
%TF.ProjectId,Onboarding,4f6e626f-6172-4646-996e-672e6b696361,rev?*%
%TF.SameCoordinates,Original*%
%TF.FileFunction,Copper,L1,Top*%
%TF.FilePolarity,Positive*%
%FSLAX46Y46*%
G04 Gerber Fmt 4.6, Leading zero omitted, Abs format (unit mm)*
G04 Created by KiCad (PCBNEW 9.0.4) date 2025-09-28 15:06:45*
%MOMM*%
%LPD*%
G01*
G04 APERTURE LIST*
G04 Aperture macros list*
%AMRoundRect*
0 Rectangle with rounded corners*
0 $1 Rounding radius*
0 $2 $3 $4 $5 $6 $7 $8 $9 X,Y pos of 4 corners*
0 Add a 4 corners polygon primitive as box body*
4,1,4,$2,$3,$4,$5,$6,$7,$8,$9,$2,$3,0*
0 Add four circle primitives for the rounded corners*
1,1,$1+$1,$2,$3*
1,1,$1+$1,$4,$5*
1,1,$1+$1,$6,$7*
1,1,$1+$1,$8,$9*
0 Add four rect primitives between the rounded corners*
20,1,$1+$1,$2,$3,$4,$5,0*
20,1,$1+$1,$4,$5,$6,$7,0*
20,1,$1+$1,$6,$7,$8,$9,0*
20,1,$1+$1,$8,$9,$2,$3,0*%
G04 Aperture macros list end*
%TA.AperFunction,ComponentPad*%
%ADD10RoundRect,0.760000X1.140000X-1.140000X1.140000X1.140000X-1.140000X1.140000X-1.140000X-1.140000X0*%
%TD*%
%TA.AperFunction,ComponentPad*%
%ADD11C,3.800000*%
%TD*%
%TA.AperFunction,ComponentPad*%
%ADD12C,1.400000*%
%TD*%
%TA.AperFunction,SMDPad,CuDef*%
%ADD13RoundRect,0.237500X-0.250000X-0.237500X0.250000X-0.237500X0.250000X0.237500X-0.250000X0.237500X0*%
%TD*%
%TA.AperFunction,ComponentPad*%
%ADD14RoundRect,0.250000X-0.550000X-0.550000X0.550000X-0.550000X0.550000X0.550000X-0.550000X0.550000X0*%
%TD*%
%TA.AperFunction,ComponentPad*%
%ADD15C,1.600000*%
%TD*%
%TA.AperFunction,SMDPad,CuDef*%
%ADD16RoundRect,0.250000X-0.350000X-0.450000X0.350000X-0.450000X0.350000X0.450000X-0.350000X0.450000X0*%
%TD*%
%TA.AperFunction,ComponentPad*%
%ADD17RoundRect,0.760000X-1.140000X-1.140000X1.140000X-1.140000X1.140000X1.140000X-1.140000X1.140000X0*%
%TD*%
%TA.AperFunction,ComponentPad*%
%ADD18C,4.000000*%
%TD*%
%TA.AperFunction,SMDPad,CuDef*%
%ADD19RoundRect,0.250000X0.250000X0.475000X-0.250000X0.475000X-0.250000X-0.475000X0.250000X-0.475000X0*%
%TD*%
%TA.AperFunction,SMDPad,CuDef*%
%ADD20RoundRect,0.237500X0.237500X-0.250000X0.237500X0.250000X-0.237500X0.250000X-0.237500X-0.250000X0*%
%TD*%
%TA.AperFunction,SMDPad,CuDef*%
%ADD21RoundRect,0.250000X-0.300000X-0.300000X0.300000X-0.300000X0.300000X0.300000X-0.300000X0.300000X0*%
%TD*%
%TA.AperFunction,SMDPad,CuDef*%
%ADD22RoundRect,0.150000X0.825000X0.150000X-0.825000X0.150000X-0.825000X-0.150000X0.825000X-0.150000X0*%
%TD*%
%TA.AperFunction,SMDPad,CuDef*%
%ADD23RoundRect,0.150000X-0.150000X-0.700000X0.150000X-0.700000X0.150000X0.700000X-0.150000X0.700000X0*%
%TD*%
%TA.AperFunction,SMDPad,CuDef*%
%ADD24RoundRect,0.250000X-0.250000X-1.150000X0.250000X-1.150000X0.250000X1.150000X-0.250000X1.150000X0*%
%TD*%
%TA.AperFunction,SMDPad,CuDef*%
%ADD25RoundRect,0.237500X-0.300000X-0.237500X0.300000X-0.237500X0.300000X0.237500X-0.300000X0.237500X0*%
%TD*%
%TA.AperFunction,SMDPad,CuDef*%
%ADD26R,1.400000X1.950000*%
%TD*%
%TA.AperFunction,ViaPad*%
%ADD27C,0.600000*%
%TD*%
%TA.AperFunction,Conductor*%
%ADD28C,0.200000*%
%TD*%
G04 APERTURE END LIST*
D10*
%TO.P,J2,1,Pin_1*%
%TO.N,GND*%
X111230000Y-81310000D03*
D11*
%TO.P,J2,2,Pin_2*%
%TO.N,VCC*%
X111230000Y-76310000D03*
%TD*%
D12*
%TO.P,TP1,1,1*%
%TO.N,Net-(U1-I_{PK})*%
X124875000Y-99175000D03*
X126875000Y-99175000D03*
%TD*%
D13*
%TO.P,R1,1*%
%TO.N,Net-(U1-COMP-)*%
X116400000Y-84991250D03*
%TO.P,R1,2*%
%TO.N,VCC*%
X118225000Y-84991250D03*
%TD*%
D14*
%TO.P,C1,1*%
%TO.N,VCC*%
X119747349Y-78910000D03*
D15*
%TO.P,C1,2*%
%TO.N,GND*%
X124747349Y-78910000D03*
%TD*%
D16*
%TO.P,R4,1*%
%TO.N,Net-(U1-I_{PK})*%
X115775000Y-99275000D03*
%TO.P,R4,2*%
%TO.N,Net-(U1-DC)*%
X117775000Y-99275000D03*
%TD*%
D17*
%TO.P,J1,1,Pin_1*%
%TO.N,GND*%
X107900000Y-89375000D03*
D18*
%TO.P,J1,2,Pin_2*%
%TO.N,+12V*%
X112900000Y-89375000D03*
%TD*%
D19*
%TO.P,C3,1*%
%TO.N,+12V*%
X111500000Y-93600000D03*
%TO.P,C3,2*%
%TO.N,GND*%
X109600000Y-93600000D03*
%TD*%
D20*
%TO.P,R2,1*%
%TO.N,Net-(U1-COMP-)*%
X116150000Y-81502500D03*
%TO.P,R2,2*%
%TO.N,GND*%
X116150000Y-79677500D03*
%TD*%
D21*
%TO.P,D1,1,K*%
%TO.N,VCC*%
X120425000Y-86275000D03*
%TO.P,D1,2,A*%
%TO.N,Net-(D1-A)*%
X123225000Y-86275000D03*
%TD*%
D20*
%TO.P,R3,1*%
%TO.N,Net-(U1-I_{PK})*%
X114850000Y-96787500D03*
%TO.P,R3,2*%
%TO.N,+12V*%
X114850000Y-94962500D03*
%TD*%
D22*
%TO.P,U1,1,SC*%
%TO.N,Net-(D1-A)*%
X122362500Y-96331250D03*
%TO.P,U1,2,SE*%
%TO.N,GND*%
X122362500Y-95061250D03*
%TO.P,U1,3,CT*%
%TO.N,Net-(U1-CT)*%
X122362500Y-93791250D03*
%TO.P,U1,4,GND*%
%TO.N,GND*%
X122362500Y-92521250D03*
%TO.P,U1,5,COMP-*%
%TO.N,Net-(U1-COMP-)*%
X117412500Y-92521250D03*
%TO.P,U1,6,VCC*%
%TO.N,+12V*%
X117412500Y-93791250D03*
%TO.P,U1,7,I_{PK}*%
%TO.N,Net-(U1-I_{PK})*%
X117412500Y-95061250D03*
%TO.P,U1,8,DC*%
%TO.N,Net-(U1-DC)*%
X117412500Y-96331250D03*
%TD*%
D23*
%TO.P,J4,1,Pin_1*%
%TO.N,/CAN-*%
X129775000Y-83825000D03*
%TO.P,J4,2,Pin_2*%
%TO.N,/CAN+*%
X131025000Y-83825000D03*
D24*
%TO.P,J4,MP*%
%TO.N,N/C*%
X127925000Y-80475000D03*
X132875000Y-80475000D03*
%TD*%
D12*
%TO.P,TP2,1,1*%
%TO.N,Net-(D1-A)*%
X120440000Y-99340000D03*
X122440000Y-99340000D03*
%TD*%
D25*
%TO.P,C2,1*%
%TO.N,Net-(U1-CT)*%
X119650000Y-89891250D03*
%TO.P,C2,2*%
%TO.N,GND*%
X121375000Y-89891250D03*
%TD*%
D23*
%TO.P,J3,1,Pin_1*%
%TO.N,/CAN-*%
X129875000Y-92775000D03*
%TO.P,J3,2,Pin_2*%
%TO.N,/CAN+*%
X131125000Y-92775000D03*
D24*
%TO.P,J3,MP*%
%TO.N,N/C*%
X128025000Y-89425000D03*
X132975000Y-89425000D03*
%TD*%
D26*
%TO.P,L1,1,1*%
%TO.N,Net-(U1-I_{PK})*%
X127730000Y-95660000D03*
%TO.P,L1,2,2*%
%TO.N,Net-(D1-A)*%
X124730000Y-95660000D03*
%TD*%
D27*
%TO.N,GND*%
X117960000Y-89280000D03*
X120120000Y-96140000D03*
X123750000Y-89730000D03*
X119490000Y-92940000D03*
X124030000Y-92490000D03*
%TD*%
D28*
%TO.N,Net-(U1-CT)*%
X119650000Y-89891250D02*
X119650000Y-91425718D01*
X122015532Y-93791250D02*
X122362500Y-93791250D01*
X119650000Y-91425718D02*
X122015532Y-93791250D01*
%TO.N,Net-(D1-A)*%
X122450000Y-96475000D02*
X122450000Y-97150000D01*
X124730000Y-94980000D02*
X124730000Y-95660000D01*
X123393750Y-96331250D02*
X122362500Y-96331250D01*
X124730000Y-95660000D02*
X124065000Y-95660000D01*
X123225000Y-86275000D02*
X125000000Y-88050000D01*
X122450000Y-97150000D02*
X120440000Y-99160000D01*
X125000000Y-94710000D02*
X124730000Y-94980000D01*
X120440000Y-99160000D02*
X120440000Y-99340000D01*
X122362500Y-96331250D02*
X122362500Y-96387500D01*
X125000000Y-88050000D02*
X125000000Y-94710000D01*
X124065000Y-95660000D02*
X123393750Y-96331250D01*
X122362500Y-96387500D02*
X122450000Y-96475000D01*
X120440000Y-99340000D02*
X122440000Y-99340000D01*
%TO.N,/CAN+*%
X130625000Y-85500001D02*
X130625000Y-92969630D01*
X131025000Y-83825000D02*
X131025000Y-85100001D01*
X130819630Y-92775000D02*
X130625000Y-92969630D01*
X131025000Y-85100001D02*
X130625000Y-85500001D01*
X131125000Y-92775000D02*
X130819630Y-92775000D01*
%TO.N,/CAN-*%
X129775000Y-85100001D02*
X130175000Y-85500001D01*
X130175000Y-85500001D02*
X130175000Y-92969630D01*
X129775000Y-83825000D02*
X129775000Y-85100001D01*
%TO.N,Net-(U1-I_{PK})*%
X117759468Y-95061250D02*
X117412500Y-95061250D01*
X124875000Y-99175000D02*
X123709000Y-100341000D01*
X118688500Y-95990282D02*
X117759468Y-95061250D01*
X118688500Y-99004128D02*
X118688500Y-95990282D01*
X114850000Y-98350000D02*
X115775000Y-99275000D01*
X127700000Y-95690000D02*
X127730000Y-95660000D01*
X124875000Y-99175000D02*
X126875000Y-99175000D01*
X127700000Y-98350000D02*
X127700000Y-95690000D01*
X123709000Y-100341000D02*
X120025372Y-100341000D01*
X126875000Y-99175000D02*
X127700000Y-98350000D01*
X114850000Y-96787500D02*
X114850000Y-98350000D01*
X114850000Y-96787500D02*
X116576250Y-95061250D01*
X120025372Y-100341000D02*
X118688500Y-99004128D01*
X116576250Y-95061250D02*
X117412500Y-95061250D01*
%TO.N,Net-(U1-COMP-)*%
X115990000Y-84581250D02*
X116400000Y-84991250D01*
X116400000Y-84991250D02*
X116400000Y-91508750D01*
X116150000Y-81502500D02*
X115990000Y-81662500D01*
X115990000Y-81662500D02*
X115990000Y-84581250D01*
X116400000Y-91508750D02*
X117412500Y-92521250D01*
%TO.N,Net-(U1-DC)*%
X117775000Y-99275000D02*
X117412500Y-98912500D01*
X117412500Y-98912500D02*
X117412500Y-96331250D01*
%TD*%
%TA.AperFunction,Conductor*%
%TO.N,+12V*%
G36*
X115273139Y-87269685D02*
G01*
X115318894Y-87322489D01*
X115329991Y-87368794D01*
X115414286Y-89375000D01*
X115575000Y-93200000D01*
X116219306Y-93226405D01*
X116277346Y-93243569D01*
X116327100Y-93272993D01*
X116327102Y-93272994D01*
X116368724Y-93285086D01*
X116484926Y-93318847D01*
X116484929Y-93318847D01*
X116484931Y-93318848D01*
X116521806Y-93321750D01*
X116521814Y-93321750D01*
X118303186Y-93321750D01*
X118303194Y-93321750D01*
X118340069Y-93318848D01*
X118340070Y-93318847D01*
X118341608Y-93318566D01*
X118341856Y-93318422D01*
X118343094Y-93318295D01*
X118346299Y-93317710D01*
X118346345Y-93317963D01*
X118376962Y-93314834D01*
X118506080Y-93320126D01*
X118572255Y-93342538D01*
X118615809Y-93397171D01*
X118625000Y-93444021D01*
X118625000Y-94169041D01*
X118605315Y-94236080D01*
X118552511Y-94281835D01*
X118550883Y-94282565D01*
X118534117Y-94289932D01*
X118464822Y-94298879D01*
X118449640Y-94295485D01*
X118374975Y-94273793D01*
X118340069Y-94263652D01*
X118340067Y-94263651D01*
X118340063Y-94263651D01*
X118303201Y-94260750D01*
X118303194Y-94260750D01*
X116521806Y-94260750D01*
X116521798Y-94260750D01*
X116484932Y-94263651D01*
X116484926Y-94263652D01*
X116327106Y-94309504D01*
X116327103Y-94309505D01*
X116185637Y-94393167D01*
X116185629Y-94393173D01*
X116069423Y-94509379D01*
X116069417Y-94509387D01*
X115985755Y-94650853D01*
X115985754Y-94650856D01*
X115939902Y-94808676D01*
X115938763Y-94814917D01*
X115936890Y-94814575D01*
X115915212Y-94871443D01*
X115904164Y-94884100D01*
X115064224Y-95724038D01*
X115046599Y-95733661D01*
X115031880Y-95747325D01*
X115005701Y-95755993D01*
X115002901Y-95757523D01*
X114998375Y-95758420D01*
X114779530Y-95797563D01*
X114757699Y-95799500D01*
X114563331Y-95799500D01*
X114563312Y-95799501D01*
X114462247Y-95809825D01*
X114364447Y-95842233D01*
X114298484Y-95864092D01*
X114298481Y-95864093D01*
X114298480Y-95864094D01*
X114273990Y-95879199D01*
X114230727Y-95895722D01*
X112289615Y-96242914D01*
X112220157Y-96235340D01*
X112213773Y-96232471D01*
X110769021Y-95533397D01*
X110717249Y-95486478D01*
X110699041Y-95423329D01*
X110625308Y-89524680D01*
X110634165Y-89477085D01*
X110675000Y-89375000D01*
X110816863Y-87365267D01*
X110841219Y-87299782D01*
X110897114Y-87257859D01*
X110940555Y-87250000D01*
X115206100Y-87250000D01*
X115273139Y-87269685D01*
G37*
%TD.AperFunction*%
%TD*%
%TA.AperFunction,Conductor*%
%TO.N,VCC*%
G36*
X122031636Y-74591864D02*
G01*
X122097168Y-74616099D01*
X122139194Y-74671917D01*
X122147096Y-74718607D01*
X121828016Y-87751802D01*
X121806696Y-87818339D01*
X121752788Y-87862788D01*
X121701785Y-87872746D01*
X117840808Y-87802118D01*
X117774140Y-87781211D01*
X117729358Y-87727579D01*
X117719231Y-87684320D01*
X117666403Y-86624986D01*
X119375001Y-86624986D01*
X119385494Y-86727697D01*
X119440641Y-86894119D01*
X119440643Y-86894124D01*
X119532684Y-87043345D01*
X119656654Y-87167315D01*
X119805875Y-87259356D01*
X119805880Y-87259358D01*
X119972302Y-87314505D01*
X119972309Y-87314506D01*
X120075019Y-87324999D01*
X120675000Y-87324999D01*
X120774972Y-87324999D01*
X120774986Y-87324998D01*
X120877697Y-87314505D01*
X121044119Y-87259358D01*
X121044124Y-87259356D01*
X121193345Y-87167315D01*
X121317315Y-87043345D01*
X121409356Y-86894124D01*
X121409358Y-86894119D01*
X121464505Y-86727697D01*
X121464506Y-86727690D01*
X121474999Y-86624986D01*
X121475000Y-86624973D01*
X121475000Y-86525000D01*
X120675000Y-86525000D01*
X120675000Y-87324999D01*
X120075019Y-87324999D01*
X120175000Y-87324998D01*
X120175000Y-86525000D01*
X119375001Y-86525000D01*
X119375001Y-86624986D01*
X117666403Y-86624986D01*
X117638833Y-86072130D01*
X117655153Y-86004200D01*
X117705612Y-85955871D01*
X117774190Y-85942496D01*
X117801684Y-85948255D01*
X117824847Y-85955930D01*
X117824846Y-85955930D01*
X117925851Y-85966249D01*
X118475000Y-85966249D01*
X118524140Y-85966249D01*
X118524154Y-85966248D01*
X118625152Y-85955930D01*
X118718454Y-85925013D01*
X119375000Y-85925013D01*
X119375000Y-86025000D01*
X120175000Y-86025000D01*
X120675000Y-86025000D01*
X121474999Y-86025000D01*
X121474999Y-85925028D01*
X121474998Y-85925013D01*
X121464505Y-85822302D01*
X121409358Y-85655880D01*
X121409356Y-85655875D01*
X121317315Y-85506654D01*
X121193345Y-85382684D01*
X121044124Y-85290643D01*
X121044119Y-85290641D01*
X120877697Y-85235494D01*
X120877690Y-85235493D01*
X120774986Y-85225000D01*
X120675000Y-85225000D01*
X120675000Y-86025000D01*
X120175000Y-86025000D01*
X120175000Y-85224999D01*
X120075028Y-85225000D01*
X120075012Y-85225001D01*
X119972302Y-85235494D01*
X119805880Y-85290641D01*
X119805875Y-85290643D01*
X119656654Y-85382684D01*
X119532684Y-85506654D01*
X119440643Y-85655875D01*
X119440641Y-85655880D01*
X119385494Y-85822302D01*
X119385493Y-85822309D01*
X119375000Y-85925013D01*
X118718454Y-85925013D01*
X118788800Y-85901703D01*
X118788811Y-85901698D01*
X118927220Y-85816326D01*
X118927221Y-85816325D01*
X118935537Y-85811195D01*
X119057444Y-85689288D01*
X119057447Y-85689284D01*
X119147948Y-85542561D01*
X119147953Y-85542550D01*
X119202180Y-85378902D01*
X119212499Y-85277904D01*
X119212500Y-85277891D01*
X119212500Y-85241250D01*
X118475000Y-85241250D01*
X118475000Y-85966249D01*
X117925851Y-85966249D01*
X117974999Y-85966248D01*
X117975000Y-85966248D01*
X117975000Y-84741250D01*
X118475000Y-84741250D01*
X119212499Y-84741250D01*
X119212499Y-84704610D01*
X119212498Y-84704595D01*
X119202180Y-84603597D01*
X119147953Y-84439949D01*
X119147948Y-84439938D01*
X119057447Y-84293215D01*
X119057444Y-84293211D01*
X118935538Y-84171305D01*
X118935534Y-84171302D01*
X118788811Y-84080801D01*
X118788800Y-84080796D01*
X118625152Y-84026569D01*
X118524154Y-84016250D01*
X118475000Y-84016250D01*
X118475000Y-84741250D01*
X117975000Y-84741250D01*
X117975000Y-84016250D01*
X117974999Y-84016249D01*
X117925861Y-84016250D01*
X117925843Y-84016251D01*
X117824846Y-84026569D01*
X117696235Y-84069186D01*
X117626407Y-84071587D01*
X117566365Y-84035856D01*
X117535173Y-83973335D01*
X117533387Y-83957672D01*
X117251746Y-78310013D01*
X118447349Y-78310013D01*
X118447349Y-78660000D01*
X119431663Y-78660000D01*
X119427269Y-78664394D01*
X119374608Y-78755606D01*
X119347349Y-78857339D01*
X119347349Y-78962661D01*
X119374608Y-79064394D01*
X119427269Y-79155606D01*
X119431663Y-79160000D01*
X118447350Y-79160000D01*
X118447350Y-79509986D01*
X118457843Y-79612697D01*
X118512990Y-79779119D01*
X118512992Y-79779124D01*
X118605033Y-79928345D01*
X118729003Y-80052315D01*
X118878224Y-80144356D01*
X118878229Y-80144358D01*
X119044651Y-80199505D01*
X119044658Y-80199506D01*
X119147368Y-80209999D01*
X119497348Y-80209999D01*
X119497349Y-80209998D01*
X119497349Y-79225686D01*
X119501743Y-79230080D01*
X119592955Y-79282741D01*
X119694688Y-79310000D01*
X119800010Y-79310000D01*
X119901743Y-79282741D01*
X119992955Y-79230080D01*
X119997349Y-79225686D01*
X119997349Y-80209999D01*
X120347321Y-80209999D01*
X120347335Y-80209998D01*
X120450046Y-80199505D01*
X120616468Y-80144358D01*
X120616473Y-80144356D01*
X120765694Y-80052315D01*
X120889664Y-79928345D01*
X120981705Y-79779124D01*
X120981707Y-79779119D01*
X121036854Y-79612697D01*
X121036855Y-79612690D01*
X121047348Y-79509986D01*
X121047349Y-79509973D01*
X121047349Y-79160000D01*
X120063035Y-79160000D01*
X120067429Y-79155606D01*
X120120090Y-79064394D01*
X120147349Y-78962661D01*
X120147349Y-78857339D01*
X120120090Y-78755606D01*
X120067429Y-78664394D01*
X120063035Y-78660000D01*
X121047348Y-78660000D01*
X121047348Y-78310028D01*
X121047347Y-78310013D01*
X121036854Y-78207302D01*
X120981707Y-78040880D01*
X120981705Y-78040875D01*
X120889664Y-77891654D01*
X120765694Y-77767684D01*
X120616473Y-77675643D01*
X120616468Y-77675641D01*
X120450046Y-77620494D01*
X120450039Y-77620493D01*
X120347335Y-77610000D01*
X119997349Y-77610000D01*
X119997349Y-78594314D01*
X119992955Y-78589920D01*
X119901743Y-78537259D01*
X119800010Y-78510000D01*
X119694688Y-78510000D01*
X119592955Y-78537259D01*
X119501743Y-78589920D01*
X119497349Y-78594314D01*
X119497349Y-77610000D01*
X119147377Y-77610000D01*
X119147361Y-77610001D01*
X119044651Y-77620494D01*
X118878229Y-77675641D01*
X118878224Y-77675643D01*
X118729003Y-77767684D01*
X118605033Y-77891654D01*
X118512992Y-78040875D01*
X118512990Y-78040880D01*
X118457843Y-78207302D01*
X118457842Y-78207309D01*
X118447349Y-78310013D01*
X117251746Y-78310013D01*
X117250000Y-78275000D01*
X117249999Y-78275000D01*
X117249999Y-78274999D01*
X112649695Y-78526921D01*
X112581680Y-78510932D01*
X112533106Y-78460709D01*
X112519396Y-78392198D01*
X112544902Y-78327150D01*
X112576945Y-78298112D01*
X112620998Y-78270432D01*
X112741098Y-78174653D01*
X112741099Y-78174652D01*
X111991717Y-77425271D01*
X112109466Y-77339722D01*
X112259722Y-77189466D01*
X112345270Y-77071717D01*
X113094652Y-77821099D01*
X113094653Y-77821098D01*
X113190431Y-77700999D01*
X113333847Y-77472752D01*
X113450801Y-77229895D01*
X113450807Y-77229881D01*
X113539832Y-76975463D01*
X113539836Y-76975451D01*
X113599818Y-76712651D01*
X113599821Y-76712633D01*
X113629999Y-76444787D01*
X113630000Y-76444783D01*
X113630000Y-76175216D01*
X113629999Y-76175212D01*
X113599821Y-75907366D01*
X113599818Y-75907348D01*
X113539836Y-75644548D01*
X113539832Y-75644536D01*
X113450807Y-75390118D01*
X113450801Y-75390104D01*
X113333847Y-75147247D01*
X113190429Y-74918997D01*
X113190427Y-74918993D01*
X113094653Y-74798900D01*
X113094652Y-74798899D01*
X112345270Y-75548281D01*
X112259722Y-75430534D01*
X112109466Y-75280278D01*
X111991717Y-75194728D01*
X112741099Y-74445346D01*
X112620998Y-74349568D01*
X112392749Y-74206150D01*
X112302845Y-74162855D01*
X112250985Y-74116033D01*
X112232672Y-74048606D01*
X112253720Y-73981982D01*
X112307446Y-73937313D01*
X112365148Y-73927427D01*
X122031636Y-74591864D01*
G37*
%TD.AperFunction*%
%TA.AperFunction,Conductor*%
G36*
X108854019Y-76796483D02*
G01*
X108892335Y-76854910D01*
X108894577Y-76863350D01*
X108920164Y-76975454D01*
X108920167Y-76975463D01*
X109009192Y-77229881D01*
X109009198Y-77229895D01*
X109126152Y-77472752D01*
X109269568Y-77700998D01*
X109365346Y-77821099D01*
X110114728Y-77071716D01*
X110200278Y-77189466D01*
X110350534Y-77339722D01*
X110468281Y-77425270D01*
X109718899Y-78174652D01*
X109718900Y-78174653D01*
X109838993Y-78270427D01*
X109838997Y-78270429D01*
X110067243Y-78413845D01*
X110107398Y-78433182D01*
X110159258Y-78480005D01*
X110177571Y-78547431D01*
X110156524Y-78614056D01*
X110102798Y-78658724D01*
X110060377Y-78668717D01*
X108796395Y-78737936D01*
X108728380Y-78721947D01*
X108679806Y-78671724D01*
X108665620Y-78615268D01*
X108664993Y-78547431D01*
X108649691Y-76892086D01*
X108668755Y-76824871D01*
X108721134Y-76778630D01*
X108790198Y-76768047D01*
X108854019Y-76796483D01*
G37*
%TD.AperFunction*%
%TA.AperFunction,Conductor*%
G36*
X110431738Y-73794531D02*
G01*
X110497268Y-73818766D01*
X110539294Y-73874584D01*
X110544472Y-73944261D01*
X110511157Y-74005677D01*
X110464189Y-74035280D01*
X110310113Y-74089194D01*
X110310104Y-74089198D01*
X110067247Y-74206152D01*
X109839001Y-74349568D01*
X109718899Y-74445345D01*
X110468282Y-75194728D01*
X110350534Y-75280278D01*
X110200278Y-75430534D01*
X110114728Y-75548282D01*
X109365345Y-74798899D01*
X109269568Y-74919001D01*
X109126152Y-75147247D01*
X109009198Y-75390104D01*
X109009192Y-75390118D01*
X108920167Y-75644536D01*
X108920164Y-75644545D01*
X108884255Y-75801874D01*
X108850146Y-75862852D01*
X108788485Y-75895710D01*
X108718847Y-75890015D01*
X108663344Y-75847575D01*
X108639596Y-75781865D01*
X108639369Y-75775451D01*
X108621146Y-73804037D01*
X108640210Y-73736822D01*
X108692589Y-73690581D01*
X108753643Y-73679186D01*
X110431738Y-73794531D01*
G37*
%TD.AperFunction*%
%TD*%
%TA.AperFunction,Conductor*%
%TO.N,GND*%
G36*
X133912539Y-68190185D02*
G01*
X133958294Y-68242989D01*
X133969500Y-68294500D01*
X133969500Y-78827319D01*
X133949815Y-78894358D01*
X133897011Y-78940113D01*
X133827853Y-78950057D01*
X133764297Y-78921032D01*
X133739961Y-78892416D01*
X133732638Y-78880543D01*
X133717712Y-78856344D01*
X133593656Y-78732288D01*
X133444334Y-78640186D01*
X133277797Y-78585001D01*
X133277795Y-78585000D01*
X133175010Y-78574500D01*
X132574998Y-78574500D01*
X132574980Y-78574501D01*
X132472203Y-78585000D01*
X132472200Y-78585001D01*
X132305668Y-78640185D01*
X132305663Y-78640187D01*
X132156342Y-78732289D01*
X132032289Y-78856342D01*
X131940187Y-79005663D01*
X131940185Y-79005668D01*
X131931571Y-79031664D01*
X131885001Y-79172203D01*
X131885001Y-79172204D01*
X131885000Y-79172204D01*
X131874500Y-79274983D01*
X131874500Y-81675001D01*
X131874501Y-81675018D01*
X131885000Y-81777796D01*
X131885001Y-81777799D01*
X131892917Y-81801687D01*
X131940186Y-81944334D01*
X132032288Y-82093656D01*
X132156344Y-82217712D01*
X132305666Y-82309814D01*
X132472203Y-82364999D01*
X132574991Y-82375500D01*
X133175008Y-82375499D01*
X133175016Y-82375498D01*
X133175019Y-82375498D01*
X133244973Y-82368352D01*
X133277797Y-82364999D01*
X133444334Y-82309814D01*
X133593656Y-82217712D01*
X133717712Y-82093656D01*
X133739961Y-82057583D01*
X133791908Y-82010859D01*
X133860871Y-81999636D01*
X133924953Y-82027479D01*
X133963810Y-82085547D01*
X133969500Y-82122680D01*
X133969500Y-87658770D01*
X133949815Y-87725809D01*
X133897011Y-87771564D01*
X133827853Y-87781508D01*
X133764297Y-87752483D01*
X133757819Y-87746451D01*
X133693657Y-87682289D01*
X133693656Y-87682288D01*
X133544334Y-87590186D01*
X133377797Y-87535001D01*
X133377795Y-87535000D01*
X133275010Y-87524500D01*
X132674998Y-87524500D01*
X132674980Y-87524501D01*
X132572203Y-87535000D01*
X132572200Y-87535001D01*
X132405668Y-87590185D01*
X132405663Y-87590187D01*
X132256342Y-87682289D01*
X132132289Y-87806342D01*
X132040187Y-87955663D01*
X132040185Y-87955668D01*
X132012349Y-88039670D01*
X131985001Y-88122203D01*
X131985001Y-88122204D01*
X131985000Y-88122204D01*
X131974500Y-88224983D01*
X131974500Y-90625001D01*
X131974501Y-90625018D01*
X131985000Y-90727796D01*
X131985001Y-90727799D01*
X132035337Y-90879701D01*
X132040186Y-90894334D01*
X132132288Y-91043656D01*
X132256344Y-91167712D01*
X132405666Y-91259814D01*
X132572203Y-91314999D01*
X132674991Y-91325500D01*
X133275008Y-91325499D01*
X133275016Y-91325498D01*
X133275019Y-91325498D01*
X133331302Y-91319748D01*
X133377797Y-91314999D01*
X133544334Y-91259814D01*
X133693656Y-91167712D01*
X133757819Y-91103549D01*
X133819142Y-91070064D01*
X133888834Y-91075048D01*
X133944767Y-91116920D01*
X133969184Y-91182384D01*
X133969500Y-91191230D01*
X133969500Y-100955500D01*
X133949815Y-101022539D01*
X133897011Y-101068294D01*
X133845500Y-101079500D01*
X124093653Y-101079500D01*
X124026614Y-101059815D01*
X123980859Y-101007011D01*
X123970915Y-100937853D01*
X123999940Y-100874297D01*
X124031653Y-100848113D01*
X124077716Y-100821520D01*
X124189520Y-100709716D01*
X124189520Y-100709714D01*
X124199728Y-100699507D01*
X124199730Y-100699504D01*
X124514169Y-100385064D01*
X124575490Y-100351581D01*
X124621246Y-100350274D01*
X124780514Y-100375500D01*
X124780519Y-100375500D01*
X124969486Y-100375500D01*
X125156118Y-100345940D01*
X125186753Y-100335986D01*
X125335832Y-100287547D01*
X125504199Y-100201760D01*
X125657073Y-100090690D01*
X125787319Y-99960444D01*
X125848642Y-99926959D01*
X125918334Y-99931943D01*
X125962681Y-99960444D01*
X126092927Y-100090690D01*
X126245801Y-100201760D01*
X126289546Y-100224049D01*
X126414163Y-100287545D01*
X126414165Y-100287545D01*
X126414168Y-100287547D01*
X126507000Y-100317710D01*
X126593881Y-100345940D01*
X126780514Y-100375500D01*
X126780519Y-100375500D01*
X126969486Y-100375500D01*
X127156118Y-100345940D01*
X127186753Y-100335986D01*
X127335832Y-100287547D01*
X127504199Y-100201760D01*
X127657073Y-100090690D01*
X127790690Y-99957073D01*
X127901760Y-99804199D01*
X127987547Y-99635832D01*
X128045940Y-99456118D01*
X128051644Y-99420104D01*
X128075500Y-99269486D01*
X128075500Y-99080513D01*
X128050274Y-98921248D01*
X128059228Y-98851955D01*
X128085061Y-98814174D01*
X128180520Y-98718716D01*
X128248816Y-98600423D01*
X128259577Y-98581785D01*
X128300500Y-98429058D01*
X128300500Y-98283713D01*
X130129500Y-98283713D01*
X130129500Y-98496286D01*
X130149363Y-98621700D01*
X130162754Y-98706243D01*
X130213768Y-98863248D01*
X130228444Y-98908414D01*
X130324951Y-99097820D01*
X130449890Y-99269786D01*
X130600213Y-99420109D01*
X130772179Y-99545048D01*
X130772181Y-99545049D01*
X130772184Y-99545051D01*
X130961588Y-99641557D01*
X131163757Y-99707246D01*
X131373713Y-99740500D01*
X131373714Y-99740500D01*
X131586286Y-99740500D01*
X131586287Y-99740500D01*
X131796243Y-99707246D01*
X131998412Y-99641557D01*
X132187816Y-99545051D01*
X132310223Y-99456118D01*
X132359786Y-99420109D01*
X132359788Y-99420106D01*
X132359792Y-99420104D01*
X132510104Y-99269792D01*
X132510106Y-99269788D01*
X132510109Y-99269786D01*
X132635048Y-99097820D01*
X132635047Y-99097820D01*
X132635051Y-99097816D01*
X132731557Y-98908412D01*
X132797246Y-98706243D01*
X132830500Y-98496287D01*
X132830500Y-98283713D01*
X132797246Y-98073757D01*
X132731557Y-97871588D01*
X132635051Y-97682184D01*
X132635049Y-97682181D01*
X132635048Y-97682179D01*
X132510109Y-97510213D01*
X132359786Y-97359890D01*
X132187820Y-97234951D01*
X131998414Y-97138444D01*
X131998413Y-97138443D01*
X131998412Y-97138443D01*
X131796243Y-97072754D01*
X131796241Y-97072753D01*
X131796240Y-97072753D01*
X131634957Y-97047208D01*
X131586287Y-97039500D01*
X131373713Y-97039500D01*
X131325042Y-97047208D01*
X131163760Y-97072753D01*
X131163757Y-97072754D01*
X130976903Y-97133467D01*
X130961585Y-97138444D01*
X130772179Y-97234951D01*
X130600213Y-97359890D01*
X130449890Y-97510213D01*
X130324951Y-97682179D01*
X130228444Y-97871585D01*
X130162753Y-98073760D01*
X130129500Y-98283713D01*
X128300500Y-98283713D01*
X128300500Y-98270943D01*
X128300500Y-97259499D01*
X128320185Y-97192460D01*
X128372989Y-97146705D01*
X128424500Y-97135499D01*
X128477871Y-97135499D01*
X128477872Y-97135499D01*
X128537483Y-97129091D01*
X128672331Y-97078796D01*
X128787546Y-96992546D01*
X128873796Y-96877331D01*
X128924091Y-96742483D01*
X128930500Y-96682873D01*
X128930499Y-94637128D01*
X128924091Y-94577517D01*
X128898676Y-94509377D01*
X128873797Y-94442671D01*
X128873793Y-94442664D01*
X128787547Y-94327455D01*
X128787544Y-94327452D01*
X128672335Y-94241206D01*
X128672328Y-94241202D01*
X128537482Y-94190908D01*
X128537483Y-94190908D01*
X128477883Y-94184501D01*
X128477881Y-94184500D01*
X128477873Y-94184500D01*
X128477864Y-94184500D01*
X126982129Y-94184500D01*
X126982123Y-94184501D01*
X126922516Y-94190908D01*
X126787671Y-94241202D01*
X126787664Y-94241206D01*
X126672455Y-94327452D01*
X126672452Y-94327455D01*
X126586206Y-94442664D01*
X126586202Y-94442671D01*
X126535908Y-94577517D01*
X126531544Y-94618115D01*
X126529501Y-94637123D01*
X126529500Y-94637135D01*
X126529500Y-96682870D01*
X126529501Y-96682876D01*
X126535908Y-96742483D01*
X126586202Y-96877328D01*
X126586206Y-96877335D01*
X126672452Y-96992544D01*
X126672455Y-96992547D01*
X126787664Y-97078793D01*
X126787671Y-97078797D01*
X126922516Y-97129091D01*
X126982113Y-97135499D01*
X126982127Y-97135500D01*
X126982129Y-97135501D01*
X126985431Y-97135856D01*
X126985347Y-97136635D01*
X127048018Y-97158739D01*
X127090886Y-97213913D01*
X127099500Y-97259323D01*
X127099500Y-97850590D01*
X127079815Y-97917629D01*
X127027011Y-97963384D01*
X126974353Y-97972697D01*
X126974353Y-97974500D01*
X126780514Y-97974500D01*
X126593881Y-98004059D01*
X126414163Y-98062454D01*
X126245800Y-98148240D01*
X126158579Y-98211610D01*
X126092927Y-98259310D01*
X126092925Y-98259312D01*
X126092924Y-98259312D01*
X125962681Y-98389556D01*
X125901358Y-98423041D01*
X125831666Y-98418057D01*
X125787319Y-98389556D01*
X125657075Y-98259312D01*
X125657073Y-98259310D01*
X125504199Y-98148240D01*
X125485686Y-98138807D01*
X125335836Y-98062454D01*
X125156118Y-98004059D01*
X124969486Y-97974500D01*
X124969481Y-97974500D01*
X124780519Y-97974500D01*
X124780514Y-97974500D01*
X124593881Y-98004059D01*
X124414163Y-98062454D01*
X124245800Y-98148240D01*
X124158579Y-98211610D01*
X124092927Y-98259310D01*
X124092925Y-98259312D01*
X124092924Y-98259312D01*
X123959312Y-98392924D01*
X123959312Y-98392925D01*
X123959310Y-98392927D01*
X123933062Y-98429054D01*
X123848240Y-98545800D01*
X123762453Y-98714166D01*
X123740489Y-98781762D01*
X123701051Y-98839436D01*
X123636691Y-98866633D01*
X123567845Y-98854717D01*
X123516370Y-98807472D01*
X123512074Y-98799735D01*
X123466761Y-98710802D01*
X123450075Y-98687836D01*
X123355690Y-98557927D01*
X123222073Y-98424310D01*
X123069199Y-98313240D01*
X122900836Y-98227454D01*
X122721118Y-98169059D01*
X122580830Y-98146840D01*
X122517695Y-98116911D01*
X122480764Y-98057599D01*
X122481762Y-97987736D01*
X122512545Y-97936688D01*
X122808506Y-97640728D01*
X122808511Y-97640724D01*
X122818714Y-97630520D01*
X122818716Y-97630520D01*
X122930520Y-97518716D01*
X123005988Y-97388001D01*
X123009577Y-97381785D01*
X123050500Y-97229058D01*
X123050500Y-97228281D01*
X123052964Y-97220078D01*
X123071053Y-97192310D01*
X123088312Y-97163996D01*
X123090049Y-97163152D01*
X123091102Y-97161536D01*
X123121334Y-97147954D01*
X123151159Y-97133467D01*
X123154138Y-97133218D01*
X123154836Y-97132905D01*
X123155927Y-97133068D01*
X123171722Y-97131750D01*
X123253186Y-97131750D01*
X123253194Y-97131750D01*
X123290069Y-97128848D01*
X123290071Y-97128847D01*
X123290073Y-97128847D01*
X123331691Y-97116755D01*
X123447898Y-97082994D01*
X123569640Y-97010995D01*
X123637364Y-96993813D01*
X123703627Y-97015973D01*
X123707070Y-97018459D01*
X123787669Y-97078796D01*
X123787670Y-97078796D01*
X123787671Y-97078797D01*
X123922517Y-97129091D01*
X123922516Y-97129091D01*
X123929444Y-97129835D01*
X123982127Y-97135500D01*
X125477872Y-97135499D01*
X125537483Y-97129091D01*
X125672331Y-97078796D01*
X125787546Y-96992546D01*
X125873796Y-96877331D01*
X125924091Y-96742483D01*
X125930500Y-96682873D01*
X125930499Y-94637128D01*
X125924091Y-94577517D01*
X125898676Y-94509377D01*
X125873797Y-94442671D01*
X125873793Y-94442664D01*
X125822123Y-94373643D01*
X125787546Y-94327454D01*
X125672331Y-94241204D01*
X125672328Y-94241203D01*
X125672327Y-94241202D01*
X125665065Y-94237236D01*
X125615663Y-94187827D01*
X125600500Y-94128408D01*
X125600500Y-88224983D01*
X127024500Y-88224983D01*
X127024500Y-90625001D01*
X127024501Y-90625018D01*
X127035000Y-90727796D01*
X127035001Y-90727799D01*
X127085337Y-90879701D01*
X127090186Y-90894334D01*
X127182288Y-91043656D01*
X127306344Y-91167712D01*
X127455666Y-91259814D01*
X127622203Y-91314999D01*
X127724991Y-91325500D01*
X128325008Y-91325499D01*
X128325016Y-91325498D01*
X128325019Y-91325498D01*
X128381302Y-91319748D01*
X128427797Y-91314999D01*
X128594334Y-91259814D01*
X128743656Y-91167712D01*
X128867712Y-91043656D01*
X128959814Y-90894334D01*
X129014999Y-90727797D01*
X129025500Y-90625009D01*
X129025499Y-88224992D01*
X129014999Y-88122203D01*
X128959814Y-87955666D01*
X128867712Y-87806344D01*
X128743656Y-87682288D01*
X128594334Y-87590186D01*
X128427797Y-87535001D01*
X128427795Y-87535000D01*
X128325010Y-87524500D01*
X127724998Y-87524500D01*
X127724980Y-87524501D01*
X127622203Y-87535000D01*
X127622200Y-87535001D01*
X127455668Y-87590185D01*
X127455663Y-87590187D01*
X127306342Y-87682289D01*
X127182289Y-87806342D01*
X127090187Y-87955663D01*
X127090185Y-87955668D01*
X127062349Y-88039670D01*
X127035001Y-88122203D01*
X127035001Y-88122204D01*
X127035000Y-88122204D01*
X127024500Y-88224983D01*
X125600500Y-88224983D01*
X125600500Y-87970945D01*
X125600500Y-87970943D01*
X125559577Y-87818216D01*
X125559577Y-87818215D01*
X125496809Y-87709498D01*
X125480520Y-87681284D01*
X125368716Y-87569480D01*
X125368715Y-87569479D01*
X125364385Y-87565149D01*
X125364374Y-87565139D01*
X124311818Y-86512583D01*
X124278333Y-86451260D01*
X124275499Y-86424902D01*
X124275499Y-85924998D01*
X124275498Y-85924981D01*
X124264999Y-85822203D01*
X124264998Y-85822200D01*
X124261482Y-85811590D01*
X124209814Y-85655666D01*
X124117712Y-85506344D01*
X123993656Y-85382288D01*
X123864658Y-85302722D01*
X123844336Y-85290187D01*
X123844331Y-85290185D01*
X123807369Y-85277937D01*
X123677797Y-85235001D01*
X123677795Y-85235000D01*
X123575010Y-85224500D01*
X122874998Y-85224500D01*
X122874980Y-85224501D01*
X122772203Y-85235000D01*
X122772200Y-85235001D01*
X122605668Y-85290185D01*
X122605656Y-85290191D01*
X122585340Y-85302722D01*
X122517948Y-85321161D01*
X122451284Y-85300237D01*
X122406516Y-85246594D01*
X122396283Y-85194151D01*
X122448549Y-83059298D01*
X128974500Y-83059298D01*
X128974500Y-84590701D01*
X128977401Y-84627567D01*
X128977402Y-84627573D01*
X129023254Y-84785393D01*
X129023255Y-84785396D01*
X129106917Y-84926862D01*
X129106923Y-84926870D01*
X129138179Y-84958125D01*
X129171665Y-85019447D01*
X129174499Y-85045807D01*
X129174499Y-85179055D01*
X129174498Y-85179055D01*
X129174499Y-85179057D01*
X129174499Y-85179058D01*
X129215423Y-85331786D01*
X129215424Y-85331787D01*
X129231692Y-85359966D01*
X129231693Y-85359967D01*
X129294475Y-85468710D01*
X129294481Y-85468718D01*
X129413349Y-85587586D01*
X129413355Y-85587591D01*
X129538181Y-85712417D01*
X129571666Y-85773740D01*
X129574500Y-85800098D01*
X129574500Y-91348225D01*
X129554815Y-91415264D01*
X129502011Y-91461019D01*
X129485097Y-91467301D01*
X129464603Y-91473255D01*
X129323137Y-91556917D01*
X129323129Y-91556923D01*
X129206923Y-91673129D01*
X129206917Y-91673137D01*
X129123255Y-91814603D01*
X129123254Y-91814606D01*
X129077402Y-91972426D01*
X129077401Y-91972432D01*
X129074500Y-92009298D01*
X129074500Y-93540701D01*
X129077401Y-93577567D01*
X129077402Y-93577573D01*
X129123254Y-93735393D01*
X129123255Y-93735396D01*
X129206917Y-93876862D01*
X129206923Y-93876870D01*
X129323129Y-93993076D01*
X129323133Y-93993079D01*
X129323135Y-93993081D01*
X129464602Y-94076744D01*
X129506224Y-94088836D01*
X129622426Y-94122597D01*
X129622429Y-94122597D01*
X129622431Y-94122598D01*
X129659306Y-94125500D01*
X129659314Y-94125500D01*
X130090686Y-94125500D01*
X130090694Y-94125500D01*
X130127569Y-94122598D01*
X130127571Y-94122597D01*
X130127573Y-94122597D01*
X130169191Y-94110505D01*
X130285398Y-94076744D01*
X130410048Y-94003026D01*
X130433580Y-93989110D01*
X130434747Y-93991083D01*
X130489035Y-93969769D01*
X130557553Y-93983448D01*
X130566404Y-93989136D01*
X130566420Y-93989110D01*
X130596563Y-94006936D01*
X130714602Y-94076744D01*
X130756224Y-94088836D01*
X130872426Y-94122597D01*
X130872429Y-94122597D01*
X130872431Y-94122598D01*
X130909306Y-94125500D01*
X130909314Y-94125500D01*
X131340686Y-94125500D01*
X131340694Y-94125500D01*
X131377569Y-94122598D01*
X131377571Y-94122597D01*
X131377573Y-94122597D01*
X131419191Y-94110505D01*
X131535398Y-94076744D01*
X131676865Y-93993081D01*
X131793081Y-93876865D01*
X131876744Y-93735398D01*
X131922598Y-93577569D01*
X131925500Y-93540694D01*
X131925500Y-92009306D01*
X131922598Y-91972431D01*
X131921711Y-91969379D01*
X131876745Y-91814606D01*
X131876744Y-91814603D01*
X131876744Y-91814602D01*
X131793081Y-91673135D01*
X131793079Y-91673133D01*
X131793076Y-91673129D01*
X131676870Y-91556923D01*
X131676862Y-91556917D01*
X131535396Y-91473255D01*
X131535393Y-91473254D01*
X131377573Y-91427402D01*
X131377567Y-91427401D01*
X131339771Y-91424427D01*
X131274482Y-91399543D01*
X131233012Y-91343312D01*
X131225500Y-91300809D01*
X131225500Y-85800098D01*
X131234145Y-85770654D01*
X131240668Y-85740672D01*
X131244422Y-85735656D01*
X131245185Y-85733059D01*
X131261814Y-85712421D01*
X131383505Y-85590729D01*
X131383510Y-85590726D01*
X131393714Y-85580521D01*
X131393716Y-85580521D01*
X131505520Y-85468717D01*
X131584577Y-85331785D01*
X131625500Y-85179058D01*
X131625500Y-85045807D01*
X131645185Y-84978769D01*
X131661820Y-84958126D01*
X131693076Y-84926870D01*
X131693081Y-84926865D01*
X131776744Y-84785398D01*
X131822598Y-84627569D01*
X131825500Y-84590694D01*
X131825500Y-83059306D01*
X131822598Y-83022431D01*
X131776744Y-82864602D01*
X131693081Y-82723135D01*
X131693079Y-82723133D01*
X131693076Y-82723129D01*
X131576870Y-82606923D01*
X131576862Y-82606917D01*
X131435396Y-82523255D01*
X131435393Y-82523254D01*
X131277573Y-82477402D01*
X131277567Y-82477401D01*
X131240701Y-82474500D01*
X131240694Y-82474500D01*
X130809306Y-82474500D01*
X130809298Y-82474500D01*
X130772432Y-82477401D01*
X130772426Y-82477402D01*
X130614606Y-82523254D01*
X130614603Y-82523255D01*
X130466420Y-82610890D01*
X130465254Y-82608919D01*
X130410942Y-82630232D01*
X130342427Y-82616540D01*
X130333595Y-82610864D01*
X130333580Y-82610890D01*
X130185396Y-82523255D01*
X130185393Y-82523254D01*
X130027573Y-82477402D01*
X130027567Y-82477401D01*
X129990701Y-82474500D01*
X129990694Y-82474500D01*
X129559306Y-82474500D01*
X129559298Y-82474500D01*
X129522432Y-82477401D01*
X129522426Y-82477402D01*
X129364606Y-82523254D01*
X129364603Y-82523255D01*
X129223137Y-82606917D01*
X129223129Y-82606923D01*
X129106923Y-82723129D01*
X129106917Y-82723137D01*
X129023255Y-82864603D01*
X129023254Y-82864606D01*
X128977402Y-83022426D01*
X128977401Y-83022432D01*
X128974500Y-83059298D01*
X122448549Y-83059298D01*
X122541198Y-79274983D01*
X126924500Y-79274983D01*
X126924500Y-81675001D01*
X126924501Y-81675018D01*
X126935000Y-81777796D01*
X126935001Y-81777799D01*
X126942917Y-81801687D01*
X126990186Y-81944334D01*
X127082288Y-82093656D01*
X127206344Y-82217712D01*
X127355666Y-82309814D01*
X127522203Y-82364999D01*
X127624991Y-82375500D01*
X128225008Y-82375499D01*
X128225016Y-82375498D01*
X128225019Y-82375498D01*
X128294973Y-82368352D01*
X128327797Y-82364999D01*
X128494334Y-82309814D01*
X128643656Y-82217712D01*
X128767712Y-82093656D01*
X128859814Y-81944334D01*
X128914999Y-81777797D01*
X128925500Y-81675009D01*
X128925499Y-79274992D01*
X128914999Y-79172203D01*
X128859814Y-79005666D01*
X128767712Y-78856344D01*
X128643656Y-78732288D01*
X128494334Y-78640186D01*
X128327797Y-78585001D01*
X128327795Y-78585000D01*
X128225010Y-78574500D01*
X127624998Y-78574500D01*
X127624980Y-78574501D01*
X127522203Y-78585000D01*
X127522200Y-78585001D01*
X127355668Y-78640185D01*
X127355663Y-78640187D01*
X127206342Y-78732289D01*
X127082289Y-78856342D01*
X126990187Y-79005663D01*
X126990185Y-79005668D01*
X126981571Y-79031664D01*
X126935001Y-79172203D01*
X126935001Y-79172204D01*
X126935000Y-79172204D01*
X126924500Y-79274983D01*
X122541198Y-79274983D01*
X122652445Y-74730979D01*
X122645508Y-74634254D01*
X122637606Y-74587564D01*
X122612332Y-74493955D01*
X122543029Y-74367865D01*
X122501003Y-74312047D01*
X122500998Y-74312041D01*
X122500997Y-74312040D01*
X122500987Y-74312029D01*
X122448615Y-74259948D01*
X122398977Y-74210585D01*
X122398974Y-74210583D01*
X122272500Y-74141979D01*
X122206971Y-74117745D01*
X122066305Y-74087555D01*
X122066304Y-74087554D01*
X122066300Y-74087554D01*
X115934925Y-73666107D01*
X112399814Y-73423117D01*
X112399813Y-73423117D01*
X112399812Y-73423117D01*
X112375806Y-73424331D01*
X112279781Y-73429187D01*
X112222088Y-73439072D01*
X112222085Y-73439072D01*
X112222083Y-73439073D01*
X112222081Y-73439073D01*
X112222070Y-73439076D01*
X112106875Y-73473306D01*
X111984272Y-73548611D01*
X111930545Y-73593280D01*
X111834129Y-73700070D01*
X111771700Y-73829704D01*
X111764107Y-73853739D01*
X111725141Y-73911734D01*
X111661006Y-73939455D01*
X111631984Y-73939603D01*
X111364813Y-73909500D01*
X111364809Y-73909500D01*
X111159002Y-73909500D01*
X111091963Y-73889815D01*
X111046208Y-73837011D01*
X111037909Y-73812194D01*
X111037141Y-73808709D01*
X111012432Y-73696622D01*
X110943129Y-73570532D01*
X110901103Y-73514714D01*
X110901101Y-73514712D01*
X110900966Y-73514577D01*
X110799080Y-73413254D01*
X110672606Y-73344649D01*
X110615481Y-73323523D01*
X110610035Y-73321049D01*
X110512323Y-73300077D01*
X110466402Y-73290221D01*
X108788307Y-73174876D01*
X108660909Y-73182266D01*
X108660894Y-73182267D01*
X108599853Y-73193660D01*
X108599840Y-73193663D01*
X108478357Y-73232721D01*
X108478353Y-73232723D01*
X108358049Y-73311618D01*
X108358037Y-73311628D01*
X108305667Y-73357859D01*
X108305664Y-73357863D01*
X108212452Y-73467464D01*
X108191399Y-73514714D01*
X108156392Y-73593280D01*
X108153891Y-73598892D01*
X108153888Y-73598898D01*
X108134829Y-73666095D01*
X108134827Y-73666107D01*
X108115667Y-73808713D01*
X108133891Y-75780169D01*
X108134185Y-75793341D01*
X108134411Y-75799742D01*
X108135041Y-75812778D01*
X108135041Y-75812782D01*
X108135042Y-75812783D01*
X108164191Y-75953679D01*
X108164192Y-75953683D01*
X108164193Y-75953685D01*
X108164194Y-75953689D01*
X108187936Y-76019381D01*
X108187939Y-76019389D01*
X108255599Y-76146363D01*
X108356294Y-76249135D01*
X108356296Y-76249136D01*
X108358020Y-76250896D01*
X108390877Y-76312558D01*
X108385181Y-76382195D01*
X108351513Y-76430636D01*
X108334214Y-76445907D01*
X108334209Y-76445912D01*
X108240997Y-76555513D01*
X108182436Y-76686940D01*
X108163372Y-76754158D01*
X108163371Y-76754167D01*
X108144212Y-76896763D01*
X108160142Y-78619942D01*
X108175359Y-78738454D01*
X108175363Y-78738475D01*
X108189545Y-78794913D01*
X108189545Y-78794914D01*
X108232156Y-78906544D01*
X108302825Y-79004307D01*
X108316448Y-79023152D01*
X108365022Y-79073375D01*
X108478749Y-79161509D01*
X108612700Y-79214033D01*
X108680715Y-79230022D01*
X108680719Y-79230022D01*
X108680722Y-79230023D01*
X108752375Y-79236351D01*
X108824036Y-79242680D01*
X108824041Y-79242679D01*
X108824048Y-79242680D01*
X110087991Y-79173463D01*
X110087998Y-79173462D01*
X110088018Y-79173461D01*
X110176284Y-79160749D01*
X110218705Y-79150756D01*
X110303367Y-79122731D01*
X110425968Y-79047428D01*
X110476205Y-79005660D01*
X110477960Y-79004307D01*
X110479697Y-79002758D01*
X110479697Y-79002757D01*
X110479701Y-79002755D01*
X110576119Y-78895960D01*
X110638544Y-78766327D01*
X110642158Y-78754886D01*
X110681120Y-78696891D01*
X110745254Y-78669166D01*
X110787989Y-78671346D01*
X110827268Y-78680312D01*
X111095187Y-78710499D01*
X111095188Y-78710500D01*
X111095191Y-78710500D01*
X111364812Y-78710500D01*
X111364812Y-78710499D01*
X111632732Y-78680312D01*
X111895591Y-78620316D01*
X111924221Y-78610297D01*
X111993995Y-78606734D01*
X112054624Y-78641461D01*
X112082062Y-78685946D01*
X112085454Y-78695524D01*
X112085456Y-78695530D01*
X112157297Y-78794913D01*
X112169748Y-78812137D01*
X112218322Y-78862360D01*
X112332049Y-78950494D01*
X112466000Y-79003018D01*
X112534015Y-79019007D01*
X112534019Y-79019007D01*
X112534022Y-79019008D01*
X112605675Y-79025336D01*
X112677336Y-79031665D01*
X112677341Y-79031664D01*
X112677348Y-79031665D01*
X114887204Y-78910647D01*
X116646008Y-78814331D01*
X116714022Y-78830320D01*
X116762596Y-78880543D01*
X116776633Y-78931969D01*
X116852396Y-80451244D01*
X116836075Y-80519181D01*
X116785615Y-80567509D01*
X116717038Y-80580884D01*
X116689550Y-80575126D01*
X116537753Y-80524826D01*
X116537751Y-80524825D01*
X116436678Y-80514500D01*
X115863330Y-80514500D01*
X115863312Y-80514501D01*
X115762247Y-80524825D01*
X115598484Y-80579092D01*
X115598481Y-80579093D01*
X115451648Y-80669661D01*
X115329661Y-80791648D01*
X115239093Y-80938481D01*
X115239092Y-80938484D01*
X115184826Y-81102247D01*
X115184826Y-81102248D01*
X115184825Y-81102248D01*
X115174500Y-81203315D01*
X115174500Y-81801669D01*
X115174501Y-81801687D01*
X115184825Y-81902752D01*
X115239092Y-82066515D01*
X115239093Y-82066518D01*
X115329661Y-82213351D01*
X115353181Y-82236871D01*
X115386666Y-82298194D01*
X115389500Y-82324552D01*
X115389500Y-84494580D01*
X115389499Y-84494598D01*
X115389499Y-84502193D01*
X115389499Y-84660307D01*
X115407775Y-84728512D01*
X115412000Y-84760606D01*
X115412000Y-85277919D01*
X115412001Y-85277937D01*
X115422325Y-85379002D01*
X115476592Y-85542765D01*
X115476593Y-85542768D01*
X115499879Y-85580521D01*
X115567160Y-85689600D01*
X115689150Y-85811590D01*
X115740597Y-85843322D01*
X115787321Y-85895267D01*
X115799500Y-85948860D01*
X115799500Y-86792193D01*
X115779815Y-86859232D01*
X115727011Y-86904987D01*
X115657853Y-86914931D01*
X115594298Y-86885906D01*
X115546436Y-86844433D01*
X115546433Y-86844431D01*
X115546431Y-86844430D01*
X115415565Y-86784664D01*
X115415560Y-86784662D01*
X115415559Y-86784662D01*
X115348520Y-86764977D01*
X115348522Y-86764977D01*
X115348517Y-86764976D01*
X115301044Y-86758150D01*
X115206100Y-86744500D01*
X110940555Y-86744500D01*
X110940554Y-86744500D01*
X110850566Y-86752574D01*
X110807117Y-86760435D01*
X110720021Y-86784394D01*
X110593800Y-86853468D01*
X110537911Y-86895386D01*
X110436265Y-86997222D01*
X110367429Y-87123563D01*
X110367428Y-87123565D01*
X110345398Y-87182795D01*
X110344739Y-87184311D01*
X110343071Y-87189049D01*
X110312618Y-87329672D01*
X110312617Y-87329675D01*
X110177681Y-89241275D01*
X110169121Y-89278594D01*
X110164824Y-89289335D01*
X110164817Y-89289355D01*
X110137199Y-89384593D01*
X110137193Y-89384618D01*
X110128338Y-89432205D01*
X110128338Y-89432209D01*
X110119847Y-89530985D01*
X110119847Y-89531004D01*
X110193579Y-95429639D01*
X110193579Y-95429644D01*
X110193580Y-95429647D01*
X110208939Y-95533652D01*
X110213328Y-95563375D01*
X110213330Y-95563385D01*
X110231532Y-95626515D01*
X110231536Y-95626525D01*
X110286016Y-95750236D01*
X110286018Y-95750238D01*
X110286019Y-95750240D01*
X110377789Y-95861041D01*
X110377791Y-95861044D01*
X110429566Y-95907965D01*
X110435601Y-95912093D01*
X110436241Y-95912467D01*
X110548845Y-95988427D01*
X111993597Y-96687501D01*
X111993619Y-96687511D01*
X111993635Y-96687519D01*
X112006568Y-96693553D01*
X112012900Y-96696399D01*
X112012939Y-96696416D01*
X112012946Y-96696419D01*
X112026003Y-96702067D01*
X112165360Y-96737861D01*
X112228960Y-96744796D01*
X112232626Y-96745196D01*
X112234580Y-96745443D01*
X112234817Y-96745434D01*
X112234818Y-96745435D01*
X112234821Y-96745436D01*
X112378617Y-96740517D01*
X113728670Y-96499042D01*
X113798125Y-96506616D01*
X113852463Y-96550539D01*
X113874428Y-96616866D01*
X113874500Y-96621105D01*
X113874500Y-97086669D01*
X113874501Y-97086687D01*
X113884825Y-97187752D01*
X113898513Y-97229058D01*
X113939092Y-97351516D01*
X114029660Y-97498350D01*
X114151650Y-97620340D01*
X114190597Y-97644362D01*
X114237320Y-97696307D01*
X114249500Y-97749900D01*
X114249500Y-98263330D01*
X114249499Y-98263348D01*
X114249499Y-98429054D01*
X114249498Y-98429054D01*
X114290423Y-98581786D01*
X114294642Y-98589092D01*
X114301179Y-98600415D01*
X114301182Y-98600419D01*
X114301183Y-98600424D01*
X114301184Y-98600424D01*
X114369475Y-98718709D01*
X114369481Y-98718717D01*
X114488349Y-98837585D01*
X114488355Y-98837590D01*
X114638181Y-98987416D01*
X114671666Y-99048739D01*
X114674500Y-99075097D01*
X114674500Y-99775001D01*
X114674501Y-99775019D01*
X114685000Y-99877796D01*
X114685001Y-99877799D01*
X114722849Y-99992014D01*
X114740186Y-100044334D01*
X114832288Y-100193656D01*
X114956344Y-100317712D01*
X115105666Y-100409814D01*
X115272203Y-100464999D01*
X115374991Y-100475500D01*
X116175008Y-100475499D01*
X116175016Y-100475498D01*
X116175019Y-100475498D01*
X116231302Y-100469748D01*
X116277797Y-100464999D01*
X116444334Y-100409814D01*
X116593656Y-100317712D01*
X116687319Y-100224049D01*
X116748642Y-100190564D01*
X116818334Y-100195548D01*
X116862681Y-100224049D01*
X116956344Y-100317712D01*
X117105666Y-100409814D01*
X117272203Y-100464999D01*
X117374991Y-100475500D01*
X118175008Y-100475499D01*
X118175016Y-100475498D01*
X118175019Y-100475498D01*
X118231302Y-100469748D01*
X118277797Y-100464999D01*
X118444334Y-100409814D01*
X118593656Y-100317712D01*
X118717712Y-100193656D01*
X118754060Y-100134726D01*
X118806006Y-100088002D01*
X118874969Y-100076779D01*
X118939051Y-100104622D01*
X118947277Y-100112140D01*
X119656656Y-100821520D01*
X119656657Y-100821521D01*
X119656659Y-100821522D01*
X119702716Y-100848113D01*
X119750931Y-100898680D01*
X119764155Y-100967287D01*
X119738187Y-101032152D01*
X119681273Y-101072680D01*
X119640716Y-101079500D01*
X103834500Y-101079500D01*
X103767461Y-101059815D01*
X103721706Y-101007011D01*
X103710500Y-100955500D01*
X103710500Y-98183713D01*
X104869500Y-98183713D01*
X104869500Y-98396287D01*
X104877884Y-98449223D01*
X104901831Y-98600419D01*
X104902754Y-98606243D01*
X104939299Y-98718717D01*
X104968444Y-98808414D01*
X105064951Y-98997820D01*
X105189890Y-99169786D01*
X105340213Y-99320109D01*
X105512179Y-99445048D01*
X105512181Y-99445049D01*
X105512184Y-99445051D01*
X105701588Y-99541557D01*
X105903757Y-99607246D01*
X106113713Y-99640500D01*
X106113714Y-99640500D01*
X106326286Y-99640500D01*
X106326287Y-99640500D01*
X106536243Y-99607246D01*
X106738412Y-99541557D01*
X106927816Y-99445051D01*
X106962153Y-99420104D01*
X107099786Y-99320109D01*
X107099788Y-99320106D01*
X107099792Y-99320104D01*
X107250104Y-99169792D01*
X107250106Y-99169788D01*
X107250109Y-99169786D01*
X107375048Y-98997820D01*
X107375047Y-98997820D01*
X107375051Y-98997816D01*
X107471557Y-98808412D01*
X107537246Y-98606243D01*
X107570500Y-98396287D01*
X107570500Y-98183713D01*
X107537246Y-97973757D01*
X107471557Y-97771588D01*
X107375051Y-97582184D01*
X107375049Y-97582181D01*
X107375048Y-97582179D01*
X107250109Y-97410213D01*
X107099786Y-97259890D01*
X106927820Y-97134951D01*
X106738414Y-97038444D01*
X106738413Y-97038443D01*
X106738412Y-97038443D01*
X106536243Y-96972754D01*
X106536241Y-96972753D01*
X106536240Y-96972753D01*
X106374957Y-96947208D01*
X106326287Y-96939500D01*
X106113713Y-96939500D01*
X106065042Y-96947208D01*
X105903760Y-96972753D01*
X105701585Y-97038444D01*
X105512179Y-97134951D01*
X105340213Y-97259890D01*
X105189890Y-97410213D01*
X105064951Y-97582179D01*
X104968444Y-97771585D01*
X104902753Y-97973760D01*
X104871821Y-98169059D01*
X104869500Y-98183713D01*
X103710500Y-98183713D01*
X103710500Y-71553713D01*
X104749500Y-71553713D01*
X104749500Y-71766286D01*
X104782753Y-71976239D01*
X104848444Y-72178414D01*
X104944951Y-72367820D01*
X105069890Y-72539786D01*
X105220213Y-72690109D01*
X105392179Y-72815048D01*
X105392181Y-72815049D01*
X105392184Y-72815051D01*
X105581588Y-72911557D01*
X105783757Y-72977246D01*
X105993713Y-73010500D01*
X105993714Y-73010500D01*
X106206286Y-73010500D01*
X106206287Y-73010500D01*
X106416243Y-72977246D01*
X106618412Y-72911557D01*
X106807816Y-72815051D01*
X106829789Y-72799086D01*
X106979786Y-72690109D01*
X106979788Y-72690106D01*
X106979792Y-72690104D01*
X107130104Y-72539792D01*
X107130106Y-72539788D01*
X107130109Y-72539786D01*
X107255048Y-72367820D01*
X107255047Y-72367820D01*
X107255051Y-72367816D01*
X107351557Y-72178412D01*
X107417246Y-71976243D01*
X107450500Y-71766287D01*
X107450500Y-71553713D01*
X130099500Y-71553713D01*
X130099500Y-71766286D01*
X130132753Y-71976239D01*
X130198444Y-72178414D01*
X130294951Y-72367820D01*
X130419890Y-72539786D01*
X130570213Y-72690109D01*
X130742179Y-72815048D01*
X130742181Y-72815049D01*
X130742184Y-72815051D01*
X130931588Y-72911557D01*
X131133757Y-72977246D01*
X131343713Y-73010500D01*
X131343714Y-73010500D01*
X131556286Y-73010500D01*
X131556287Y-73010500D01*
X131766243Y-72977246D01*
X131968412Y-72911557D01*
X132157816Y-72815051D01*
X132179789Y-72799086D01*
X132329786Y-72690109D01*
X132329788Y-72690106D01*
X132329792Y-72690104D01*
X132480104Y-72539792D01*
X132480106Y-72539788D01*
X132480109Y-72539786D01*
X132605048Y-72367820D01*
X132605047Y-72367820D01*
X132605051Y-72367816D01*
X132701557Y-72178412D01*
X132767246Y-71976243D01*
X132800500Y-71766287D01*
X132800500Y-71553713D01*
X132767246Y-71343757D01*
X132701557Y-71141588D01*
X132605051Y-70952184D01*
X132605049Y-70952181D01*
X132605048Y-70952179D01*
X132480109Y-70780213D01*
X132329786Y-70629890D01*
X132157820Y-70504951D01*
X131968414Y-70408444D01*
X131968413Y-70408443D01*
X131968412Y-70408443D01*
X131766243Y-70342754D01*
X131766241Y-70342753D01*
X131766240Y-70342753D01*
X131604957Y-70317208D01*
X131556287Y-70309500D01*
X131343713Y-70309500D01*
X131295042Y-70317208D01*
X131133760Y-70342753D01*
X130931585Y-70408444D01*
X130742179Y-70504951D01*
X130570213Y-70629890D01*
X130419890Y-70780213D01*
X130294951Y-70952179D01*
X130198444Y-71141585D01*
X130132753Y-71343760D01*
X130099500Y-71553713D01*
X107450500Y-71553713D01*
X107417246Y-71343757D01*
X107351557Y-71141588D01*
X107255051Y-70952184D01*
X107255049Y-70952181D01*
X107255048Y-70952179D01*
X107130109Y-70780213D01*
X106979786Y-70629890D01*
X106807820Y-70504951D01*
X106618414Y-70408444D01*
X106618413Y-70408443D01*
X106618412Y-70408443D01*
X106416243Y-70342754D01*
X106416241Y-70342753D01*
X106416240Y-70342753D01*
X106254957Y-70317208D01*
X106206287Y-70309500D01*
X105993713Y-70309500D01*
X105945042Y-70317208D01*
X105783760Y-70342753D01*
X105581585Y-70408444D01*
X105392179Y-70504951D01*
X105220213Y-70629890D01*
X105069890Y-70780213D01*
X104944951Y-70952179D01*
X104848444Y-71141585D01*
X104782753Y-71343760D01*
X104749500Y-71553713D01*
X103710500Y-71553713D01*
X103710500Y-68294500D01*
X103730185Y-68227461D01*
X103782989Y-68181706D01*
X103834500Y-68170500D01*
X133845500Y-68170500D01*
X133912539Y-68190185D01*
G37*
%TD.AperFunction*%
%TA.AperFunction,Conductor*%
G36*
X122533350Y-87215209D02*
G01*
X122605666Y-87259814D01*
X122772203Y-87314999D01*
X122874991Y-87325500D01*
X123374902Y-87325499D01*
X123441941Y-87345183D01*
X123462583Y-87361818D01*
X124363181Y-88262416D01*
X124396666Y-88323739D01*
X124399500Y-88350097D01*
X124399500Y-94060500D01*
X124379815Y-94127539D01*
X124327011Y-94173294D01*
X124275500Y-94184500D01*
X123982130Y-94184500D01*
X123982117Y-94184501D01*
X123971005Y-94185696D01*
X123902245Y-94173288D01*
X123851110Y-94125676D01*
X123833833Y-94057976D01*
X123834684Y-94050142D01*
X123834601Y-94050136D01*
X123837999Y-94006951D01*
X123838000Y-94006944D01*
X123838000Y-93575556D01*
X123835098Y-93538681D01*
X123834753Y-93537494D01*
X123789245Y-93380856D01*
X123789244Y-93380853D01*
X123789244Y-93380852D01*
X123705581Y-93239385D01*
X123705579Y-93239383D01*
X123705576Y-93239379D01*
X123589370Y-93123173D01*
X123589362Y-93123167D01*
X123447896Y-93039505D01*
X123447893Y-93039504D01*
X123290073Y-92993652D01*
X123290067Y-92993651D01*
X123253201Y-92990750D01*
X123253194Y-92990750D01*
X122115629Y-92990750D01*
X122048590Y-92971065D01*
X122027948Y-92954431D01*
X120286819Y-91213302D01*
X120272115Y-91186374D01*
X120255523Y-91160556D01*
X120254631Y-91154355D01*
X120253334Y-91151979D01*
X120250500Y-91125621D01*
X120250500Y-90879701D01*
X120270185Y-90812662D01*
X120309402Y-90774163D01*
X120410850Y-90711590D01*
X120532840Y-90589600D01*
X120623408Y-90442766D01*
X120677674Y-90279003D01*
X120688000Y-90177927D01*
X120687999Y-89604574D01*
X120677674Y-89503497D01*
X120623408Y-89339734D01*
X120532840Y-89192900D01*
X120410850Y-89070910D01*
X120264016Y-88980342D01*
X120100253Y-88926076D01*
X120100251Y-88926075D01*
X119999178Y-88915750D01*
X119300830Y-88915750D01*
X119300812Y-88915751D01*
X119199747Y-88926075D01*
X119035984Y-88980342D01*
X119035981Y-88980343D01*
X118889148Y-89070911D01*
X118767161Y-89192898D01*
X118676593Y-89339731D01*
X118676592Y-89339734D01*
X118622326Y-89503497D01*
X118622326Y-89503498D01*
X118622325Y-89503498D01*
X118612000Y-89604565D01*
X118612000Y-90177919D01*
X118612001Y-90177937D01*
X118622325Y-90279002D01*
X118658609Y-90388499D01*
X118676592Y-90442766D01*
X118767160Y-90589600D01*
X118889150Y-90711590D01*
X118990596Y-90774162D01*
X119037321Y-90826110D01*
X119049500Y-90879701D01*
X119049500Y-91339048D01*
X119049499Y-91339066D01*
X119049499Y-91504772D01*
X119049498Y-91504772D01*
X119090424Y-91657507D01*
X119090425Y-91657508D01*
X119108492Y-91688800D01*
X119108493Y-91688801D01*
X119169477Y-91794430D01*
X119169481Y-91794435D01*
X119288349Y-91913303D01*
X119288355Y-91913308D01*
X120851218Y-93476171D01*
X120884703Y-93537494D01*
X120887156Y-93573566D01*
X120887000Y-93575538D01*
X120887000Y-94006951D01*
X120889901Y-94043817D01*
X120889902Y-94043823D01*
X120935754Y-94201643D01*
X120935755Y-94201646D01*
X120935756Y-94201648D01*
X120973181Y-94264931D01*
X121019417Y-94343112D01*
X121019423Y-94343120D01*
X121135629Y-94459326D01*
X121135633Y-94459329D01*
X121135635Y-94459331D01*
X121277102Y-94542994D01*
X121318724Y-94555086D01*
X121434926Y-94588847D01*
X121434929Y-94588847D01*
X121434931Y-94588848D01*
X121471806Y-94591750D01*
X121471814Y-94591750D01*
X123253186Y-94591750D01*
X123253194Y-94591750D01*
X123290069Y-94588848D01*
X123290071Y-94588847D01*
X123290073Y-94588847D01*
X123370905Y-94565363D01*
X123440774Y-94565562D01*
X123499444Y-94603504D01*
X123528288Y-94667142D01*
X123529500Y-94684439D01*
X123529500Y-95294902D01*
X123520855Y-95324342D01*
X123514332Y-95354329D01*
X123510577Y-95359344D01*
X123509815Y-95361941D01*
X123493185Y-95382578D01*
X123378736Y-95497028D01*
X123317413Y-95530512D01*
X123281327Y-95532964D01*
X123253201Y-95530750D01*
X123253194Y-95530750D01*
X121471806Y-95530750D01*
X121471798Y-95530750D01*
X121434932Y-95533651D01*
X121434926Y-95533652D01*
X121277106Y-95579504D01*
X121277103Y-95579505D01*
X121135637Y-95663167D01*
X121135629Y-95663173D01*
X121019423Y-95779379D01*
X121019417Y-95779387D01*
X120935755Y-95920853D01*
X120935754Y-95920856D01*
X120889902Y-96078676D01*
X120889901Y-96078682D01*
X120887000Y-96115548D01*
X120887000Y-96546951D01*
X120889901Y-96583817D01*
X120889902Y-96583823D01*
X120935754Y-96741643D01*
X120935755Y-96741646D01*
X120935756Y-96741648D01*
X120970974Y-96801199D01*
X121015996Y-96877328D01*
X121019418Y-96883114D01*
X121019423Y-96883120D01*
X121135629Y-96999326D01*
X121135633Y-96999329D01*
X121135635Y-96999331D01*
X121277102Y-97082994D01*
X121331421Y-97098775D01*
X121378475Y-97112446D01*
X121437361Y-97150052D01*
X121466567Y-97213524D01*
X121456821Y-97282711D01*
X121431561Y-97319203D01*
X120645441Y-98105322D01*
X120584118Y-98138807D01*
X120538362Y-98140114D01*
X120534485Y-98139500D01*
X120534481Y-98139500D01*
X120345519Y-98139500D01*
X120345514Y-98139500D01*
X120158881Y-98169059D01*
X119979163Y-98227454D01*
X119810800Y-98313240D01*
X119723579Y-98376610D01*
X119657927Y-98424310D01*
X119657925Y-98424312D01*
X119657924Y-98424312D01*
X119524312Y-98557924D01*
X119524307Y-98557930D01*
X119513316Y-98573058D01*
X119457985Y-98615722D01*
X119388371Y-98621700D01*
X119326577Y-98589092D01*
X119292222Y-98528252D01*
X119289000Y-98500170D01*
X119289000Y-96079342D01*
X119289001Y-96079329D01*
X119289001Y-95911226D01*
X119275555Y-95861045D01*
X119248077Y-95758498D01*
X119193042Y-95663173D01*
X119169024Y-95621572D01*
X119169018Y-95621564D01*
X118923781Y-95376327D01*
X118890296Y-95315004D01*
X118887846Y-95278899D01*
X118887999Y-95276955D01*
X118888000Y-95276936D01*
X118888000Y-94845563D01*
X118887999Y-94845548D01*
X118885098Y-94808682D01*
X118885097Y-94808679D01*
X118873337Y-94768200D01*
X118873536Y-94698330D01*
X118911211Y-94639890D01*
X118936347Y-94618111D01*
X119030567Y-94509377D01*
X119090338Y-94378500D01*
X119110023Y-94311461D01*
X119110024Y-94311457D01*
X119130500Y-94169041D01*
X119130500Y-93444021D01*
X119121045Y-93346707D01*
X119111854Y-93299857D01*
X119111849Y-93299841D01*
X119111848Y-93299835D01*
X119083841Y-93206184D01*
X119083840Y-93206183D01*
X119011075Y-93082060D01*
X118967521Y-93027427D01*
X118967519Y-93027425D01*
X118900209Y-92964093D01*
X118864873Y-92903818D01*
X118866104Y-92839191D01*
X118885098Y-92773819D01*
X118888000Y-92736944D01*
X118888000Y-92305556D01*
X118885098Y-92268681D01*
X118839244Y-92110852D01*
X118755581Y-91969385D01*
X118755579Y-91969383D01*
X118755576Y-91969379D01*
X118639370Y-91853173D01*
X118639362Y-91853167D01*
X118497896Y-91769505D01*
X118497893Y-91769504D01*
X118340073Y-91723652D01*
X118340067Y-91723651D01*
X118303201Y-91720750D01*
X118303194Y-91720750D01*
X117512597Y-91720750D01*
X117445558Y-91701065D01*
X117424916Y-91684431D01*
X117036819Y-91296334D01*
X117003334Y-91235011D01*
X117000500Y-91208653D01*
X117000500Y-87897014D01*
X117020185Y-87829975D01*
X117072989Y-87784220D01*
X117142147Y-87774276D01*
X117205703Y-87803301D01*
X117242203Y-87858004D01*
X117265776Y-87929129D01*
X117341338Y-88051571D01*
X117386120Y-88105203D01*
X117493116Y-88201396D01*
X117622879Y-88263550D01*
X117659683Y-88275091D01*
X117689539Y-88284455D01*
X117689542Y-88284455D01*
X117689547Y-88284457D01*
X117831563Y-88307533D01*
X118689557Y-88323228D01*
X121692533Y-88378161D01*
X121692533Y-88378160D01*
X121692540Y-88378161D01*
X121798652Y-88368878D01*
X121849655Y-88358920D01*
X121951464Y-88327608D01*
X122074372Y-88252806D01*
X122128280Y-88208357D01*
X122225131Y-88101963D01*
X122288087Y-87972588D01*
X122308083Y-87910180D01*
X122308827Y-87908114D01*
X122309407Y-87906050D01*
X122309409Y-87906046D01*
X122310935Y-87897014D01*
X122333363Y-87764185D01*
X122333364Y-87764179D01*
X122333365Y-87764174D01*
X122344294Y-87317711D01*
X122365613Y-87251178D01*
X122419521Y-87206729D01*
X122488903Y-87198481D01*
X122533350Y-87215209D01*
G37*
%TD.AperFunction*%
%TD*%
M02*
