%TF.GenerationSoftware,KiCad,Pcbnew,9.0.0*%
%TF.CreationDate,2026-02-01T14:29:33-06:00*%
%TF.ProjectId,Onboarding,4f6e626f-6172-4646-996e-672e6b696361,rev?*%
%TF.SameCoordinates,Original*%
%TF.FileFunction,Copper,L2,Bot*%
%TF.FilePolarity,Positive*%
%FSLAX46Y46*%
G04 Gerber Fmt 4.6, Leading zero omitted, Abs format (unit mm)*
G04 Created by KiCad (PCBNEW 9.0.0) date 2026-02-01 14:29:33*
%MOMM*%
%LPD*%
G01*
G04 APERTURE LIST*
G04 Aperture macros list*
%AMRoundRect*
0 Rectangle with rounded corners*
0 $1 Rounding radius*
0 $2 $3 $4 $5 $6 $7 $8 $9 X,Y pos of 4 corners*
0 Add a 4 corners polygon primitive as box body*
4,1,4,$2,$3,$4,$5,$6,$7,$8,$9,$2,$3,0*
0 Add four circle primitives for the rounded corners*
1,1,$1+$1,$2,$3*
1,1,$1+$1,$4,$5*
1,1,$1+$1,$6,$7*
1,1,$1+$1,$8,$9*
0 Add four rect primitives between the rounded corners*
20,1,$1+$1,$2,$3,$4,$5,0*
20,1,$1+$1,$4,$5,$6,$7,0*
20,1,$1+$1,$6,$7,$8,$9,0*
20,1,$1+$1,$8,$9,$2,$3,0*%
G04 Aperture macros list end*
%TA.AperFunction,ComponentPad*%
%ADD10R,2.200000X2.200000*%
%TD*%
%TA.AperFunction,ComponentPad*%
%ADD11O,2.200000X2.200000*%
%TD*%
%TA.AperFunction,ComponentPad*%
%ADD12R,1.600000X1.600000*%
%TD*%
%TA.AperFunction,ComponentPad*%
%ADD13C,1.600000*%
%TD*%
%TA.AperFunction,ComponentPad*%
%ADD14RoundRect,0.760000X-1.140000X-1.140000X1.140000X-1.140000X1.140000X1.140000X-1.140000X1.140000X0*%
%TD*%
%TA.AperFunction,ComponentPad*%
%ADD15C,3.800000*%
%TD*%
%TA.AperFunction,ComponentPad*%
%ADD16C,1.400000*%
%TD*%
%TA.AperFunction,ComponentPad*%
%ADD17RoundRect,0.760000X1.140000X-1.140000X1.140000X1.140000X-1.140000X1.140000X-1.140000X-1.140000X0*%
%TD*%
%TA.AperFunction,ComponentPad*%
%ADD18C,4.000000*%
%TD*%
%TA.AperFunction,ViaPad*%
%ADD19C,0.600000*%
%TD*%
G04 APERTURE END LIST*
D10*
%TO.P,D1,1,K*%
%TO.N,VCC*%
X163000000Y-104000000D03*
D11*
%TO.P,D1,2,A*%
%TO.N,Net-(D1-A)*%
X163000000Y-93840000D03*
%TD*%
D12*
%TO.P,C1,1*%
%TO.N,VCC*%
X172000000Y-109000000D03*
D13*
%TO.P,C1,2*%
%TO.N,GND*%
X177000000Y-109000000D03*
%TD*%
D14*
%TO.P,J2,1,Pin_1*%
%TO.N,GND*%
X160000000Y-110000000D03*
D15*
%TO.P,J2,2,Pin_2*%
%TO.N,VCC*%
X165000000Y-110000000D03*
%TD*%
D16*
%TO.P,TP1,1,1*%
%TO.N,Net-(U1-I_{PK})*%
X184000000Y-96000000D03*
X184000000Y-98000000D03*
%TD*%
%TO.P,TP2,1,1*%
%TO.N,Net-(D1-A)*%
X170000000Y-88000000D03*
X172000000Y-88000000D03*
%TD*%
D17*
%TO.P,J1,1,Pin_1*%
%TO.N,GND*%
X184000000Y-110000000D03*
D18*
%TO.P,J1,2,Pin_2*%
%TO.N,+12V*%
X184000000Y-105000000D03*
%TD*%
D19*
%TO.N,GND*%
X168000000Y-105000000D03*
X182000000Y-100000000D03*
%TD*%
%TA.AperFunction,Conductor*%
%TO.N,GND*%
G36*
X196442539Y-80520185D02*
G01*
X196488294Y-80572989D01*
X196499500Y-80624500D01*
X196499500Y-120375500D01*
X196479815Y-120442539D01*
X196427011Y-120488294D01*
X196375500Y-120499500D01*
X143624500Y-120499500D01*
X143557461Y-120479815D01*
X143511706Y-120427011D01*
X143500500Y-120375500D01*
X143500500Y-113893713D01*
X147649500Y-113893713D01*
X147649500Y-114106286D01*
X147682753Y-114316239D01*
X147748444Y-114518414D01*
X147844951Y-114707820D01*
X147969890Y-114879786D01*
X148120213Y-115030109D01*
X148292179Y-115155048D01*
X148292181Y-115155049D01*
X148292184Y-115155051D01*
X148481588Y-115251557D01*
X148683757Y-115317246D01*
X148893713Y-115350500D01*
X148893714Y-115350500D01*
X149106286Y-115350500D01*
X149106287Y-115350500D01*
X149316243Y-115317246D01*
X149518412Y-115251557D01*
X149707816Y-115155051D01*
X149729789Y-115139086D01*
X149879786Y-115030109D01*
X149879788Y-115030106D01*
X149879792Y-115030104D01*
X150030104Y-114879792D01*
X150030106Y-114879788D01*
X150030109Y-114879786D01*
X150155048Y-114707820D01*
X150155047Y-114707820D01*
X150155051Y-114707816D01*
X150251557Y-114518412D01*
X150317246Y-114316243D01*
X150350500Y-114106287D01*
X150350500Y-113893713D01*
X189649500Y-113893713D01*
X189649500Y-114106286D01*
X189682753Y-114316239D01*
X189748444Y-114518414D01*
X189844951Y-114707820D01*
X189969890Y-114879786D01*
X190120213Y-115030109D01*
X190292179Y-115155048D01*
X190292181Y-115155049D01*
X190292184Y-115155051D01*
X190481588Y-115251557D01*
X190683757Y-115317246D01*
X190893713Y-115350500D01*
X190893714Y-115350500D01*
X191106286Y-115350500D01*
X191106287Y-115350500D01*
X191316243Y-115317246D01*
X191518412Y-115251557D01*
X191707816Y-115155051D01*
X191729789Y-115139086D01*
X191879786Y-115030109D01*
X191879788Y-115030106D01*
X191879792Y-115030104D01*
X192030104Y-114879792D01*
X192030106Y-114879788D01*
X192030109Y-114879786D01*
X192155048Y-114707820D01*
X192155047Y-114707820D01*
X192155051Y-114707816D01*
X192251557Y-114518412D01*
X192317246Y-114316243D01*
X192350500Y-114106287D01*
X192350500Y-113893713D01*
X192317246Y-113683757D01*
X192251557Y-113481588D01*
X192155051Y-113292184D01*
X192155049Y-113292181D01*
X192155048Y-113292179D01*
X192030109Y-113120213D01*
X191879786Y-112969890D01*
X191707820Y-112844951D01*
X191518414Y-112748444D01*
X191518413Y-112748443D01*
X191518412Y-112748443D01*
X191316243Y-112682754D01*
X191316241Y-112682753D01*
X191316240Y-112682753D01*
X191154957Y-112657208D01*
X191106287Y-112649500D01*
X190893713Y-112649500D01*
X190845042Y-112657208D01*
X190683760Y-112682753D01*
X190481585Y-112748444D01*
X190292179Y-112844951D01*
X190120213Y-112969890D01*
X189969890Y-113120213D01*
X189844951Y-113292179D01*
X189748444Y-113481585D01*
X189682753Y-113683760D01*
X189649500Y-113893713D01*
X150350500Y-113893713D01*
X150317246Y-113683757D01*
X150251557Y-113481588D01*
X150155051Y-113292184D01*
X150155049Y-113292181D01*
X150155048Y-113292179D01*
X150030109Y-113120213D01*
X149879786Y-112969890D01*
X149707820Y-112844951D01*
X149518414Y-112748444D01*
X149518413Y-112748443D01*
X149518412Y-112748443D01*
X149316243Y-112682754D01*
X149316241Y-112682753D01*
X149316240Y-112682753D01*
X149154957Y-112657208D01*
X149106287Y-112649500D01*
X148893713Y-112649500D01*
X148845042Y-112657208D01*
X148683760Y-112682753D01*
X148481585Y-112748444D01*
X148292179Y-112844951D01*
X148120213Y-112969890D01*
X147969890Y-113120213D01*
X147844951Y-113292179D01*
X147748444Y-113481585D01*
X147682753Y-113683760D01*
X147649500Y-113893713D01*
X143500500Y-113893713D01*
X143500500Y-108795280D01*
X157600000Y-108795280D01*
X157600000Y-109750000D01*
X158672769Y-109750000D01*
X158650000Y-109893753D01*
X158650000Y-110106247D01*
X158672769Y-110250000D01*
X157600000Y-110250000D01*
X157600000Y-111204719D01*
X157610482Y-111337906D01*
X157610483Y-111337912D01*
X157665898Y-111557829D01*
X157665899Y-111557832D01*
X157759695Y-111764330D01*
X157759698Y-111764336D01*
X157888851Y-111950758D01*
X157888861Y-111950770D01*
X158049229Y-112111138D01*
X158049241Y-112111148D01*
X158235663Y-112240301D01*
X158235669Y-112240304D01*
X158442167Y-112334100D01*
X158442170Y-112334101D01*
X158662087Y-112389516D01*
X158662093Y-112389517D01*
X158795280Y-112399999D01*
X158795294Y-112400000D01*
X159750000Y-112400000D01*
X159750000Y-111327231D01*
X159893753Y-111350000D01*
X160106247Y-111350000D01*
X160250000Y-111327231D01*
X160250000Y-112400000D01*
X161204706Y-112400000D01*
X161204719Y-112399999D01*
X161337906Y-112389517D01*
X161337912Y-112389516D01*
X161557829Y-112334101D01*
X161557832Y-112334100D01*
X161764330Y-112240304D01*
X161764336Y-112240301D01*
X161950758Y-112111148D01*
X161950770Y-112111138D01*
X162111138Y-111950770D01*
X162111148Y-111950758D01*
X162240301Y-111764336D01*
X162240304Y-111764330D01*
X162334100Y-111557832D01*
X162334101Y-111557829D01*
X162389516Y-111337912D01*
X162389517Y-111337906D01*
X162399999Y-111204719D01*
X162400000Y-111204706D01*
X162400000Y-110496932D01*
X162419685Y-110429893D01*
X162472489Y-110384138D01*
X162541647Y-110374194D01*
X162605203Y-110403219D01*
X162642977Y-110461997D01*
X162644891Y-110469340D01*
X162689683Y-110665590D01*
X162689687Y-110665602D01*
X162778734Y-110920082D01*
X162895714Y-111162994D01*
X162895716Y-111162997D01*
X163039162Y-111391289D01*
X163207266Y-111602085D01*
X163397915Y-111792734D01*
X163608711Y-111960838D01*
X163837003Y-112104284D01*
X164079921Y-112221267D01*
X164271049Y-112288145D01*
X164334397Y-112310312D01*
X164334405Y-112310315D01*
X164334408Y-112310315D01*
X164334409Y-112310316D01*
X164597268Y-112370312D01*
X164865187Y-112400499D01*
X164865188Y-112400500D01*
X164865191Y-112400500D01*
X165134812Y-112400500D01*
X165134812Y-112400499D01*
X165402732Y-112370312D01*
X165665591Y-112310316D01*
X165920079Y-112221267D01*
X166162997Y-112104284D01*
X166391289Y-111960838D01*
X166602085Y-111792734D01*
X166792734Y-111602085D01*
X166960838Y-111391289D01*
X167104284Y-111162997D01*
X167221267Y-110920079D01*
X167310316Y-110665591D01*
X167370312Y-110402732D01*
X167400500Y-110134809D01*
X167400500Y-109865191D01*
X167370312Y-109597268D01*
X167310316Y-109334409D01*
X167221267Y-109079921D01*
X167104284Y-108837003D01*
X166960838Y-108608711D01*
X166792734Y-108397915D01*
X166602085Y-108207266D01*
X166532953Y-108152135D01*
X170699500Y-108152135D01*
X170699500Y-109847870D01*
X170699501Y-109847876D01*
X170705908Y-109907483D01*
X170756202Y-110042328D01*
X170756206Y-110042335D01*
X170842452Y-110157544D01*
X170842455Y-110157547D01*
X170957664Y-110243793D01*
X170957671Y-110243797D01*
X171092517Y-110294091D01*
X171092516Y-110294091D01*
X171099444Y-110294835D01*
X171152127Y-110300500D01*
X172847872Y-110300499D01*
X172907483Y-110294091D01*
X173042331Y-110243796D01*
X173157546Y-110157546D01*
X173243796Y-110042331D01*
X173263732Y-109988881D01*
X173263733Y-109988879D01*
X173294090Y-109907485D01*
X173294091Y-109907483D01*
X173295567Y-109893753D01*
X173300500Y-109847873D01*
X173300499Y-108897682D01*
X175700000Y-108897682D01*
X175700000Y-109102317D01*
X175732009Y-109304417D01*
X175795244Y-109499031D01*
X175888141Y-109681350D01*
X175888147Y-109681359D01*
X175920523Y-109725921D01*
X175920524Y-109725922D01*
X176600000Y-109046446D01*
X176600000Y-109052661D01*
X176627259Y-109154394D01*
X176679920Y-109245606D01*
X176754394Y-109320080D01*
X176845606Y-109372741D01*
X176947339Y-109400000D01*
X176953553Y-109400000D01*
X176274076Y-110079474D01*
X176318650Y-110111859D01*
X176500968Y-110204755D01*
X176695582Y-110267990D01*
X176897683Y-110300000D01*
X177102317Y-110300000D01*
X177304417Y-110267990D01*
X177499031Y-110204755D01*
X177681349Y-110111859D01*
X177699983Y-110098321D01*
X177725921Y-110079474D01*
X177046447Y-109400000D01*
X177052661Y-109400000D01*
X177154394Y-109372741D01*
X177245606Y-109320080D01*
X177320080Y-109245606D01*
X177372741Y-109154394D01*
X177400000Y-109052661D01*
X177400000Y-109046448D01*
X178079474Y-109725922D01*
X178079474Y-109725921D01*
X178111859Y-109681349D01*
X178204755Y-109499031D01*
X178267990Y-109304417D01*
X178300000Y-109102317D01*
X178300000Y-108897682D01*
X178267990Y-108695582D01*
X178204755Y-108500968D01*
X178111859Y-108318650D01*
X178079474Y-108274077D01*
X178079474Y-108274076D01*
X177400000Y-108953551D01*
X177400000Y-108947339D01*
X177372741Y-108845606D01*
X177320080Y-108754394D01*
X177245606Y-108679920D01*
X177154394Y-108627259D01*
X177052661Y-108600000D01*
X177046446Y-108600000D01*
X177725922Y-107920524D01*
X177725921Y-107920523D01*
X177681359Y-107888147D01*
X177681350Y-107888141D01*
X177499031Y-107795244D01*
X177304417Y-107732009D01*
X177102317Y-107700000D01*
X176897683Y-107700000D01*
X176695582Y-107732009D01*
X176500968Y-107795244D01*
X176318644Y-107888143D01*
X176274077Y-107920523D01*
X176274077Y-107920524D01*
X176953554Y-108600000D01*
X176947339Y-108600000D01*
X176845606Y-108627259D01*
X176754394Y-108679920D01*
X176679920Y-108754394D01*
X176627259Y-108845606D01*
X176600000Y-108947339D01*
X176600000Y-108953553D01*
X175920524Y-108274077D01*
X175920523Y-108274077D01*
X175888143Y-108318644D01*
X175795244Y-108500968D01*
X175732009Y-108695582D01*
X175700000Y-108897682D01*
X173300499Y-108897682D01*
X173300499Y-108152128D01*
X173294091Y-108092517D01*
X173294091Y-108092516D01*
X173263731Y-108011116D01*
X173243797Y-107957671D01*
X173243793Y-107957664D01*
X173157547Y-107842455D01*
X173157544Y-107842452D01*
X173042335Y-107756206D01*
X173042328Y-107756202D01*
X172907482Y-107705908D01*
X172907483Y-107705908D01*
X172847883Y-107699501D01*
X172847881Y-107699500D01*
X172847873Y-107699500D01*
X172847864Y-107699500D01*
X171152129Y-107699500D01*
X171152123Y-107699501D01*
X171092516Y-107705908D01*
X170957671Y-107756202D01*
X170957664Y-107756206D01*
X170842455Y-107842452D01*
X170842452Y-107842455D01*
X170756206Y-107957664D01*
X170756202Y-107957671D01*
X170705908Y-108092517D01*
X170699501Y-108152116D01*
X170699501Y-108152123D01*
X170699500Y-108152135D01*
X166532953Y-108152135D01*
X166391289Y-108039162D01*
X166162997Y-107895716D01*
X166162994Y-107895714D01*
X165920082Y-107778734D01*
X165665602Y-107689687D01*
X165665594Y-107689684D01*
X165468446Y-107644687D01*
X165402732Y-107629688D01*
X165402728Y-107629687D01*
X165402719Y-107629686D01*
X165134813Y-107599500D01*
X165134809Y-107599500D01*
X164865191Y-107599500D01*
X164865186Y-107599500D01*
X164597280Y-107629686D01*
X164597268Y-107629688D01*
X164334405Y-107689684D01*
X164334397Y-107689687D01*
X164079917Y-107778734D01*
X163837005Y-107895714D01*
X163608712Y-108039161D01*
X163397915Y-108207265D01*
X163207265Y-108397915D01*
X163039161Y-108608712D01*
X162895714Y-108837005D01*
X162778734Y-109079917D01*
X162689687Y-109334397D01*
X162689684Y-109334405D01*
X162644891Y-109530660D01*
X162610782Y-109591638D01*
X162549121Y-109624496D01*
X162479484Y-109618801D01*
X162423980Y-109576361D01*
X162400232Y-109510651D01*
X162400000Y-109503067D01*
X162400000Y-108795293D01*
X162399999Y-108795280D01*
X162389517Y-108662093D01*
X162389516Y-108662087D01*
X162334101Y-108442170D01*
X162334100Y-108442167D01*
X162240304Y-108235669D01*
X162240301Y-108235663D01*
X162111148Y-108049241D01*
X162111138Y-108049229D01*
X161950770Y-107888861D01*
X161950758Y-107888851D01*
X161764336Y-107759698D01*
X161764330Y-107759695D01*
X161557832Y-107665899D01*
X161557829Y-107665898D01*
X161337912Y-107610483D01*
X161337906Y-107610482D01*
X161204719Y-107600000D01*
X160250000Y-107600000D01*
X160250000Y-108672768D01*
X160106247Y-108650000D01*
X159893753Y-108650000D01*
X159750000Y-108672768D01*
X159750000Y-107600000D01*
X158795280Y-107600000D01*
X158662093Y-107610482D01*
X158662087Y-107610483D01*
X158442170Y-107665898D01*
X158442167Y-107665899D01*
X158235669Y-107759695D01*
X158235663Y-107759698D01*
X158049241Y-107888851D01*
X158049229Y-107888861D01*
X157888861Y-108049229D01*
X157888851Y-108049241D01*
X157759698Y-108235663D01*
X157759695Y-108235669D01*
X157665899Y-108442167D01*
X157665898Y-108442170D01*
X157610483Y-108662087D01*
X157610482Y-108662093D01*
X157600000Y-108795280D01*
X143500500Y-108795280D01*
X143500500Y-102852135D01*
X161399500Y-102852135D01*
X161399500Y-105147870D01*
X161399501Y-105147876D01*
X161405908Y-105207483D01*
X161456202Y-105342328D01*
X161456206Y-105342335D01*
X161542452Y-105457544D01*
X161542455Y-105457547D01*
X161657664Y-105543793D01*
X161657671Y-105543797D01*
X161792517Y-105594091D01*
X161792516Y-105594091D01*
X161799444Y-105594835D01*
X161852127Y-105600500D01*
X164147872Y-105600499D01*
X164207483Y-105594091D01*
X164342331Y-105543796D01*
X164457546Y-105457546D01*
X164543796Y-105342331D01*
X164594091Y-105207483D01*
X164600500Y-105147873D01*
X164600500Y-104859568D01*
X181499500Y-104859568D01*
X181499500Y-105140431D01*
X181530942Y-105419494D01*
X181530945Y-105419512D01*
X181593439Y-105693317D01*
X181593443Y-105693329D01*
X181686200Y-105958411D01*
X181808053Y-106211442D01*
X181808055Y-106211445D01*
X181957477Y-106449248D01*
X182132584Y-106668825D01*
X182331175Y-106867416D01*
X182550752Y-107042523D01*
X182788555Y-107191945D01*
X183041592Y-107313801D01*
X183118761Y-107340803D01*
X183170645Y-107358959D01*
X183227421Y-107399681D01*
X183253168Y-107464633D01*
X183239712Y-107533195D01*
X183191324Y-107583598D01*
X183129690Y-107600000D01*
X182795280Y-107600000D01*
X182662093Y-107610482D01*
X182662087Y-107610483D01*
X182442170Y-107665898D01*
X182442167Y-107665899D01*
X182235669Y-107759695D01*
X182235663Y-107759698D01*
X182049241Y-107888851D01*
X182049229Y-107888861D01*
X181888861Y-108049229D01*
X181888851Y-108049241D01*
X181759698Y-108235663D01*
X181759695Y-108235669D01*
X181665899Y-108442167D01*
X181665898Y-108442170D01*
X181610483Y-108662087D01*
X181610482Y-108662093D01*
X181600000Y-108795280D01*
X181600000Y-109750000D01*
X182672769Y-109750000D01*
X182650000Y-109893753D01*
X182650000Y-110106247D01*
X182672769Y-110250000D01*
X181600000Y-110250000D01*
X181600000Y-111204719D01*
X181610482Y-111337906D01*
X181610483Y-111337912D01*
X181665898Y-111557829D01*
X181665899Y-111557832D01*
X181759695Y-111764330D01*
X181759698Y-111764336D01*
X181888851Y-111950758D01*
X181888861Y-111950770D01*
X182049229Y-112111138D01*
X182049241Y-112111148D01*
X182235663Y-112240301D01*
X182235669Y-112240304D01*
X182442167Y-112334100D01*
X182442170Y-112334101D01*
X182662087Y-112389516D01*
X182662093Y-112389517D01*
X182795280Y-112399999D01*
X182795294Y-112400000D01*
X183750000Y-112400000D01*
X183750000Y-111327231D01*
X183893753Y-111350000D01*
X184106247Y-111350000D01*
X184250000Y-111327231D01*
X184250000Y-112400000D01*
X185204706Y-112400000D01*
X185204719Y-112399999D01*
X185337906Y-112389517D01*
X185337912Y-112389516D01*
X185557829Y-112334101D01*
X185557832Y-112334100D01*
X185764330Y-112240304D01*
X185764336Y-112240301D01*
X185950758Y-112111148D01*
X185950770Y-112111138D01*
X186111138Y-111950770D01*
X186111148Y-111950758D01*
X186240301Y-111764336D01*
X186240304Y-111764330D01*
X186334100Y-111557832D01*
X186334101Y-111557829D01*
X186389516Y-111337912D01*
X186389517Y-111337906D01*
X186399999Y-111204719D01*
X186400000Y-111204706D01*
X186400000Y-110250000D01*
X185327231Y-110250000D01*
X185350000Y-110106247D01*
X185350000Y-109893753D01*
X185327231Y-109750000D01*
X186400000Y-109750000D01*
X186400000Y-108795293D01*
X186399999Y-108795280D01*
X186389517Y-108662093D01*
X186389516Y-108662087D01*
X186334101Y-108442170D01*
X186334100Y-108442167D01*
X186240304Y-108235669D01*
X186240301Y-108235663D01*
X186111148Y-108049241D01*
X186111138Y-108049229D01*
X185950770Y-107888861D01*
X185950758Y-107888851D01*
X185764336Y-107759698D01*
X185764330Y-107759695D01*
X185557832Y-107665899D01*
X185557829Y-107665898D01*
X185337912Y-107610483D01*
X185337906Y-107610482D01*
X185204719Y-107600000D01*
X184870310Y-107600000D01*
X184803271Y-107580315D01*
X184757516Y-107527511D01*
X184747572Y-107458353D01*
X184776597Y-107394797D01*
X184829355Y-107358959D01*
X184867828Y-107345496D01*
X184958408Y-107313801D01*
X185211445Y-107191945D01*
X185449248Y-107042523D01*
X185668825Y-106867416D01*
X185867416Y-106668825D01*
X186042523Y-106449248D01*
X186191945Y-106211445D01*
X186313801Y-105958408D01*
X186406560Y-105693318D01*
X186469055Y-105419509D01*
X186500500Y-105140425D01*
X186500500Y-104859575D01*
X186469055Y-104580491D01*
X186406560Y-104306682D01*
X186313801Y-104041592D01*
X186191945Y-103788555D01*
X186042523Y-103550752D01*
X185867416Y-103331175D01*
X185668825Y-103132584D01*
X185449248Y-102957477D01*
X185211445Y-102808055D01*
X185211442Y-102808053D01*
X184958411Y-102686200D01*
X184693329Y-102593443D01*
X184693317Y-102593439D01*
X184419512Y-102530945D01*
X184419494Y-102530942D01*
X184140431Y-102499500D01*
X184140425Y-102499500D01*
X183859575Y-102499500D01*
X183859568Y-102499500D01*
X183580505Y-102530942D01*
X183580487Y-102530945D01*
X183306682Y-102593439D01*
X183306670Y-102593443D01*
X183041588Y-102686200D01*
X182788557Y-102808053D01*
X182550753Y-102957476D01*
X182331175Y-103132583D01*
X182132583Y-103331175D01*
X181957476Y-103550753D01*
X181808053Y-103788557D01*
X181686200Y-104041588D01*
X181593443Y-104306670D01*
X181593439Y-104306682D01*
X181530945Y-104580487D01*
X181530942Y-104580505D01*
X181499500Y-104859568D01*
X164600500Y-104859568D01*
X164600499Y-102852128D01*
X164594091Y-102792517D01*
X164554437Y-102686200D01*
X164543797Y-102657671D01*
X164543793Y-102657664D01*
X164457547Y-102542455D01*
X164457544Y-102542452D01*
X164342335Y-102456206D01*
X164342328Y-102456202D01*
X164207482Y-102405908D01*
X164207483Y-102405908D01*
X164147883Y-102399501D01*
X164147881Y-102399500D01*
X164147873Y-102399500D01*
X164147864Y-102399500D01*
X161852129Y-102399500D01*
X161852123Y-102399501D01*
X161792516Y-102405908D01*
X161657671Y-102456202D01*
X161657664Y-102456206D01*
X161542455Y-102542452D01*
X161542452Y-102542455D01*
X161456206Y-102657664D01*
X161456202Y-102657671D01*
X161405908Y-102792517D01*
X161404238Y-102808055D01*
X161399501Y-102852123D01*
X161399500Y-102852135D01*
X143500500Y-102852135D01*
X143500500Y-95905513D01*
X182799500Y-95905513D01*
X182799500Y-96094486D01*
X182829059Y-96281118D01*
X182887454Y-96460836D01*
X182973240Y-96629199D01*
X183084310Y-96782073D01*
X183084312Y-96782075D01*
X183214556Y-96912319D01*
X183248041Y-96973642D01*
X183243057Y-97043334D01*
X183214556Y-97087681D01*
X183084312Y-97217924D01*
X183084312Y-97217925D01*
X183084310Y-97217927D01*
X183036610Y-97283579D01*
X182973240Y-97370800D01*
X182887454Y-97539163D01*
X182829059Y-97718881D01*
X182799500Y-97905513D01*
X182799500Y-98094486D01*
X182829059Y-98281118D01*
X182887454Y-98460836D01*
X182973240Y-98629199D01*
X183084310Y-98782073D01*
X183217927Y-98915690D01*
X183370801Y-99026760D01*
X183450347Y-99067290D01*
X183539163Y-99112545D01*
X183539165Y-99112545D01*
X183539168Y-99112547D01*
X183635497Y-99143846D01*
X183718881Y-99170940D01*
X183905514Y-99200500D01*
X183905519Y-99200500D01*
X184094486Y-99200500D01*
X184281118Y-99170940D01*
X184460832Y-99112547D01*
X184629199Y-99026760D01*
X184782073Y-98915690D01*
X184915690Y-98782073D01*
X185026760Y-98629199D01*
X185112547Y-98460832D01*
X185170940Y-98281118D01*
X185200500Y-98094486D01*
X185200500Y-97905513D01*
X185170940Y-97718881D01*
X185112545Y-97539163D01*
X185026759Y-97370800D01*
X184915690Y-97217927D01*
X184785444Y-97087681D01*
X184751959Y-97026358D01*
X184756943Y-96956666D01*
X184785444Y-96912319D01*
X184915690Y-96782073D01*
X185026760Y-96629199D01*
X185112547Y-96460832D01*
X185170940Y-96281118D01*
X185200500Y-96094486D01*
X185200500Y-95905513D01*
X185170940Y-95718881D01*
X185112545Y-95539163D01*
X185026759Y-95370800D01*
X184992205Y-95323241D01*
X184915690Y-95217927D01*
X184782073Y-95084310D01*
X184629199Y-94973240D01*
X184460836Y-94887454D01*
X184281118Y-94829059D01*
X184094486Y-94799500D01*
X184094481Y-94799500D01*
X183905519Y-94799500D01*
X183905514Y-94799500D01*
X183718881Y-94829059D01*
X183539163Y-94887454D01*
X183370800Y-94973240D01*
X183283579Y-95036610D01*
X183217927Y-95084310D01*
X183217925Y-95084312D01*
X183217924Y-95084312D01*
X183084312Y-95217924D01*
X183084312Y-95217925D01*
X183084310Y-95217927D01*
X183036610Y-95283579D01*
X182973240Y-95370800D01*
X182887454Y-95539163D01*
X182829059Y-95718881D01*
X182799500Y-95905513D01*
X143500500Y-95905513D01*
X143500500Y-93714038D01*
X161399500Y-93714038D01*
X161399500Y-93965961D01*
X161438910Y-94214785D01*
X161516760Y-94454383D01*
X161631132Y-94678848D01*
X161779201Y-94882649D01*
X161779205Y-94882654D01*
X161957345Y-95060794D01*
X161957350Y-95060798D01*
X162135117Y-95189952D01*
X162161155Y-95208870D01*
X162304184Y-95281747D01*
X162385616Y-95323239D01*
X162385618Y-95323239D01*
X162385621Y-95323241D01*
X162625215Y-95401090D01*
X162874038Y-95440500D01*
X162874039Y-95440500D01*
X163125961Y-95440500D01*
X163125962Y-95440500D01*
X163374785Y-95401090D01*
X163614379Y-95323241D01*
X163838845Y-95208870D01*
X164042656Y-95060793D01*
X164220793Y-94882656D01*
X164368870Y-94678845D01*
X164483241Y-94454379D01*
X164561090Y-94214785D01*
X164600500Y-93965962D01*
X164600500Y-93714038D01*
X164561090Y-93465215D01*
X164483241Y-93225621D01*
X164483239Y-93225618D01*
X164483239Y-93225616D01*
X164441747Y-93144184D01*
X164368870Y-93001155D01*
X164349952Y-92975117D01*
X164220798Y-92797350D01*
X164220794Y-92797345D01*
X164042654Y-92619205D01*
X164042649Y-92619201D01*
X163838848Y-92471132D01*
X163838847Y-92471131D01*
X163838845Y-92471130D01*
X163768747Y-92435413D01*
X163614383Y-92356760D01*
X163374785Y-92278910D01*
X163125962Y-92239500D01*
X162874038Y-92239500D01*
X162749626Y-92259205D01*
X162625214Y-92278910D01*
X162385616Y-92356760D01*
X162161151Y-92471132D01*
X161957350Y-92619201D01*
X161957345Y-92619205D01*
X161779205Y-92797345D01*
X161779201Y-92797350D01*
X161631132Y-93001151D01*
X161516760Y-93225616D01*
X161438910Y-93465214D01*
X161399500Y-93714038D01*
X143500500Y-93714038D01*
X143500500Y-87905513D01*
X168799500Y-87905513D01*
X168799500Y-88094486D01*
X168829059Y-88281118D01*
X168887454Y-88460836D01*
X168973240Y-88629199D01*
X169084310Y-88782073D01*
X169217927Y-88915690D01*
X169370801Y-89026760D01*
X169450347Y-89067290D01*
X169539163Y-89112545D01*
X169539165Y-89112545D01*
X169539168Y-89112547D01*
X169635497Y-89143846D01*
X169718881Y-89170940D01*
X169905514Y-89200500D01*
X169905519Y-89200500D01*
X170094486Y-89200500D01*
X170281118Y-89170940D01*
X170460832Y-89112547D01*
X170629199Y-89026760D01*
X170782073Y-88915690D01*
X170912319Y-88785444D01*
X170973642Y-88751959D01*
X171043334Y-88756943D01*
X171087681Y-88785444D01*
X171217927Y-88915690D01*
X171370801Y-89026760D01*
X171450347Y-89067290D01*
X171539163Y-89112545D01*
X171539165Y-89112545D01*
X171539168Y-89112547D01*
X171635497Y-89143846D01*
X171718881Y-89170940D01*
X171905514Y-89200500D01*
X171905519Y-89200500D01*
X172094486Y-89200500D01*
X172281118Y-89170940D01*
X172460832Y-89112547D01*
X172629199Y-89026760D01*
X172782073Y-88915690D01*
X172915690Y-88782073D01*
X173026760Y-88629199D01*
X173112547Y-88460832D01*
X173170940Y-88281118D01*
X173200500Y-88094486D01*
X173200500Y-87905513D01*
X173170940Y-87718881D01*
X173112545Y-87539163D01*
X173026759Y-87370800D01*
X173012010Y-87350500D01*
X172915690Y-87217927D01*
X172782073Y-87084310D01*
X172629199Y-86973240D01*
X172460836Y-86887454D01*
X172281118Y-86829059D01*
X172094486Y-86799500D01*
X172094481Y-86799500D01*
X171905519Y-86799500D01*
X171905514Y-86799500D01*
X171718881Y-86829059D01*
X171539163Y-86887454D01*
X171370800Y-86973240D01*
X171292535Y-87030104D01*
X171217927Y-87084310D01*
X171217925Y-87084312D01*
X171217924Y-87084312D01*
X171087681Y-87214556D01*
X171026358Y-87248041D01*
X170956666Y-87243057D01*
X170912319Y-87214556D01*
X170782075Y-87084312D01*
X170782073Y-87084310D01*
X170629199Y-86973240D01*
X170460836Y-86887454D01*
X170281118Y-86829059D01*
X170094486Y-86799500D01*
X170094481Y-86799500D01*
X169905519Y-86799500D01*
X169905514Y-86799500D01*
X169718881Y-86829059D01*
X169539163Y-86887454D01*
X169370800Y-86973240D01*
X169292535Y-87030104D01*
X169217927Y-87084310D01*
X169217925Y-87084312D01*
X169217924Y-87084312D01*
X169084312Y-87217924D01*
X169084312Y-87217925D01*
X169084310Y-87217927D01*
X169036610Y-87283579D01*
X168973240Y-87370800D01*
X168887454Y-87539163D01*
X168829059Y-87718881D01*
X168799500Y-87905513D01*
X143500500Y-87905513D01*
X143500500Y-85893713D01*
X147649500Y-85893713D01*
X147649500Y-86106286D01*
X147682753Y-86316239D01*
X147748444Y-86518414D01*
X147844951Y-86707820D01*
X147969890Y-86879786D01*
X148120213Y-87030109D01*
X148292179Y-87155048D01*
X148292181Y-87155049D01*
X148292184Y-87155051D01*
X148481588Y-87251557D01*
X148683757Y-87317246D01*
X148893713Y-87350500D01*
X148893714Y-87350500D01*
X149106286Y-87350500D01*
X149106287Y-87350500D01*
X149316243Y-87317246D01*
X149518412Y-87251557D01*
X149707816Y-87155051D01*
X149805181Y-87084312D01*
X149879786Y-87030109D01*
X149879788Y-87030106D01*
X149879792Y-87030104D01*
X150030104Y-86879792D01*
X150030106Y-86879788D01*
X150030109Y-86879786D01*
X150155048Y-86707820D01*
X150155047Y-86707820D01*
X150155051Y-86707816D01*
X150251557Y-86518412D01*
X150317246Y-86316243D01*
X150350500Y-86106287D01*
X150350500Y-85893713D01*
X189649500Y-85893713D01*
X189649500Y-86106286D01*
X189682753Y-86316239D01*
X189748444Y-86518414D01*
X189844951Y-86707820D01*
X189969890Y-86879786D01*
X190120213Y-87030109D01*
X190292179Y-87155048D01*
X190292181Y-87155049D01*
X190292184Y-87155051D01*
X190481588Y-87251557D01*
X190683757Y-87317246D01*
X190893713Y-87350500D01*
X190893714Y-87350500D01*
X191106286Y-87350500D01*
X191106287Y-87350500D01*
X191316243Y-87317246D01*
X191518412Y-87251557D01*
X191707816Y-87155051D01*
X191805181Y-87084312D01*
X191879786Y-87030109D01*
X191879788Y-87030106D01*
X191879792Y-87030104D01*
X192030104Y-86879792D01*
X192030106Y-86879788D01*
X192030109Y-86879786D01*
X192155048Y-86707820D01*
X192155047Y-86707820D01*
X192155051Y-86707816D01*
X192251557Y-86518412D01*
X192317246Y-86316243D01*
X192350500Y-86106287D01*
X192350500Y-85893713D01*
X192317246Y-85683757D01*
X192251557Y-85481588D01*
X192155051Y-85292184D01*
X192155049Y-85292181D01*
X192155048Y-85292179D01*
X192030109Y-85120213D01*
X191879786Y-84969890D01*
X191707820Y-84844951D01*
X191518414Y-84748444D01*
X191518413Y-84748443D01*
X191518412Y-84748443D01*
X191316243Y-84682754D01*
X191316241Y-84682753D01*
X191316240Y-84682753D01*
X191154957Y-84657208D01*
X191106287Y-84649500D01*
X190893713Y-84649500D01*
X190845042Y-84657208D01*
X190683760Y-84682753D01*
X190481585Y-84748444D01*
X190292179Y-84844951D01*
X190120213Y-84969890D01*
X189969890Y-85120213D01*
X189844951Y-85292179D01*
X189748444Y-85481585D01*
X189682753Y-85683760D01*
X189649500Y-85893713D01*
X150350500Y-85893713D01*
X150317246Y-85683757D01*
X150251557Y-85481588D01*
X150155051Y-85292184D01*
X150155049Y-85292181D01*
X150155048Y-85292179D01*
X150030109Y-85120213D01*
X149879786Y-84969890D01*
X149707820Y-84844951D01*
X149518414Y-84748444D01*
X149518413Y-84748443D01*
X149518412Y-84748443D01*
X149316243Y-84682754D01*
X149316241Y-84682753D01*
X149316240Y-84682753D01*
X149154957Y-84657208D01*
X149106287Y-84649500D01*
X148893713Y-84649500D01*
X148845042Y-84657208D01*
X148683760Y-84682753D01*
X148481585Y-84748444D01*
X148292179Y-84844951D01*
X148120213Y-84969890D01*
X147969890Y-85120213D01*
X147844951Y-85292179D01*
X147748444Y-85481585D01*
X147682753Y-85683760D01*
X147649500Y-85893713D01*
X143500500Y-85893713D01*
X143500500Y-80624500D01*
X143520185Y-80557461D01*
X143572989Y-80511706D01*
X143624500Y-80500500D01*
X196375500Y-80500500D01*
X196442539Y-80520185D01*
G37*
%TD.AperFunction*%
%TD*%
M02*
