%TF.GenerationSoftware,KiCad,Pcbnew,9.0.4*%
%TF.CreationDate,2025-10-05T15:56:56-05:00*%
%TF.ProjectId,Onboarding,4f6e626f-6172-4646-996e-672e6b696361,rev?*%
%TF.SameCoordinates,Original*%
%TF.FileFunction,Legend,Top*%
%TF.FilePolarity,Positive*%
%FSLAX46Y46*%
G04 Gerber Fmt 4.6, Leading zero omitted, Abs format (unit mm)*
G04 Created by KiCad (PCBNEW 9.0.4) date 2025-10-05 15:56:56*
%MOMM*%
%LPD*%
G01*
G04 APERTURE LIST*
G04 Aperture macros list*
%AMRoundRect*
0 Rectangle with rounded corners*
0 $1 Rounding radius*
0 $2 $3 $4 $5 $6 $7 $8 $9 X,Y pos of 4 corners*
0 Add a 4 corners polygon primitive as box body*
4,1,4,$2,$3,$4,$5,$6,$7,$8,$9,$2,$3,0*
0 Add four circle primitives for the rounded corners*
1,1,$1+$1,$2,$3*
1,1,$1+$1,$4,$5*
1,1,$1+$1,$6,$7*
1,1,$1+$1,$8,$9*
0 Add four rect primitives between the rounded corners*
20,1,$1+$1,$2,$3,$4,$5,0*
20,1,$1+$1,$4,$5,$6,$7,0*
20,1,$1+$1,$6,$7,$8,$9,0*
20,1,$1+$1,$8,$9,$2,$3,0*%
G04 Aperture macros list end*
%ADD10C,0.150000*%
%ADD11C,0.254000*%
%ADD12C,0.120000*%
%ADD13C,0.100000*%
%ADD14RoundRect,0.237500X-0.250000X-0.237500X0.250000X-0.237500X0.250000X0.237500X-0.250000X0.237500X0*%
%ADD15RoundRect,0.760000X1.140000X1.140000X-1.140000X1.140000X-1.140000X-1.140000X1.140000X-1.140000X0*%
%ADD16C,4.000000*%
%ADD17RoundRect,0.250000X-0.550000X0.550000X-0.550000X-0.550000X0.550000X-0.550000X0.550000X0.550000X0*%
%ADD18C,1.600000*%
%ADD19C,2.200000*%
%ADD20RoundRect,0.150000X-0.700000X0.150000X-0.700000X-0.150000X0.700000X-0.150000X0.700000X0.150000X0*%
%ADD21RoundRect,0.250000X-1.150000X0.250000X-1.150000X-0.250000X1.150000X-0.250000X1.150000X0.250000X0*%
%ADD22C,1.400000*%
%ADD23RoundRect,0.250000X0.300000X-0.300000X0.300000X0.300000X-0.300000X0.300000X-0.300000X-0.300000X0*%
%ADD24RoundRect,0.250000X-0.250000X-0.475000X0.250000X-0.475000X0.250000X0.475000X-0.250000X0.475000X0*%
%ADD25RoundRect,0.150000X-0.825000X-0.150000X0.825000X-0.150000X0.825000X0.150000X-0.825000X0.150000X0*%
%ADD26RoundRect,0.250000X0.450000X-0.350000X0.450000X0.350000X-0.450000X0.350000X-0.450000X-0.350000X0*%
%ADD27RoundRect,0.760000X1.140000X-1.140000X1.140000X1.140000X-1.140000X1.140000X-1.140000X-1.140000X0*%
%ADD28C,3.800000*%
%ADD29R,2.350000X5.100000*%
G04 APERTURE END LIST*
D10*
X141920833Y-121024819D02*
X141587500Y-120548628D01*
X141349405Y-121024819D02*
X141349405Y-120024819D01*
X141349405Y-120024819D02*
X141730357Y-120024819D01*
X141730357Y-120024819D02*
X141825595Y-120072438D01*
X141825595Y-120072438D02*
X141873214Y-120120057D01*
X141873214Y-120120057D02*
X141920833Y-120215295D01*
X141920833Y-120215295D02*
X141920833Y-120358152D01*
X141920833Y-120358152D02*
X141873214Y-120453390D01*
X141873214Y-120453390D02*
X141825595Y-120501009D01*
X141825595Y-120501009D02*
X141730357Y-120548628D01*
X141730357Y-120548628D02*
X141349405Y-120548628D01*
X142301786Y-120120057D02*
X142349405Y-120072438D01*
X142349405Y-120072438D02*
X142444643Y-120024819D01*
X142444643Y-120024819D02*
X142682738Y-120024819D01*
X142682738Y-120024819D02*
X142777976Y-120072438D01*
X142777976Y-120072438D02*
X142825595Y-120120057D01*
X142825595Y-120120057D02*
X142873214Y-120215295D01*
X142873214Y-120215295D02*
X142873214Y-120310533D01*
X142873214Y-120310533D02*
X142825595Y-120453390D01*
X142825595Y-120453390D02*
X142254167Y-121024819D01*
X142254167Y-121024819D02*
X142873214Y-121024819D01*
X141166666Y-138454819D02*
X141166666Y-139169104D01*
X141166666Y-139169104D02*
X141119047Y-139311961D01*
X141119047Y-139311961D02*
X141023809Y-139407200D01*
X141023809Y-139407200D02*
X140880952Y-139454819D01*
X140880952Y-139454819D02*
X140785714Y-139454819D01*
X142071428Y-138788152D02*
X142071428Y-139454819D01*
X141833333Y-138407200D02*
X141595238Y-139121485D01*
X141595238Y-139121485D02*
X142214285Y-139121485D01*
X147428571Y-135114700D02*
X148571429Y-135114700D01*
X134428571Y-135114700D02*
X135571429Y-135114700D01*
X135000000Y-135686128D02*
X135000000Y-134543271D01*
X134109580Y-135264015D02*
X134157200Y-135311634D01*
X134157200Y-135311634D02*
X134204819Y-135454491D01*
X134204819Y-135454491D02*
X134204819Y-135549729D01*
X134204819Y-135549729D02*
X134157200Y-135692586D01*
X134157200Y-135692586D02*
X134061961Y-135787824D01*
X134061961Y-135787824D02*
X133966723Y-135835443D01*
X133966723Y-135835443D02*
X133776247Y-135883062D01*
X133776247Y-135883062D02*
X133633390Y-135883062D01*
X133633390Y-135883062D02*
X133442914Y-135835443D01*
X133442914Y-135835443D02*
X133347676Y-135787824D01*
X133347676Y-135787824D02*
X133252438Y-135692586D01*
X133252438Y-135692586D02*
X133204819Y-135549729D01*
X133204819Y-135549729D02*
X133204819Y-135454491D01*
X133204819Y-135454491D02*
X133252438Y-135311634D01*
X133252438Y-135311634D02*
X133300057Y-135264015D01*
X133204819Y-134930681D02*
X133204819Y-134311634D01*
X133204819Y-134311634D02*
X133585771Y-134644967D01*
X133585771Y-134644967D02*
X133585771Y-134502110D01*
X133585771Y-134502110D02*
X133633390Y-134406872D01*
X133633390Y-134406872D02*
X133681009Y-134359253D01*
X133681009Y-134359253D02*
X133776247Y-134311634D01*
X133776247Y-134311634D02*
X134014342Y-134311634D01*
X134014342Y-134311634D02*
X134109580Y-134359253D01*
X134109580Y-134359253D02*
X134157200Y-134406872D01*
X134157200Y-134406872D02*
X134204819Y-134502110D01*
X134204819Y-134502110D02*
X134204819Y-134787824D01*
X134204819Y-134787824D02*
X134157200Y-134883062D01*
X134157200Y-134883062D02*
X134109580Y-134930681D01*
X120738095Y-106304819D02*
X120738095Y-105304819D01*
X120738095Y-105781009D02*
X121309523Y-105781009D01*
X121309523Y-106304819D02*
X121309523Y-105304819D01*
X122309523Y-106304819D02*
X121738095Y-106304819D01*
X122023809Y-106304819D02*
X122023809Y-105304819D01*
X122023809Y-105304819D02*
X121928571Y-105447676D01*
X121928571Y-105447676D02*
X121833333Y-105542914D01*
X121833333Y-105542914D02*
X121738095Y-105590533D01*
X138529819Y-109958333D02*
X139244104Y-109958333D01*
X139244104Y-109958333D02*
X139386961Y-110005952D01*
X139386961Y-110005952D02*
X139482200Y-110101190D01*
X139482200Y-110101190D02*
X139529819Y-110244047D01*
X139529819Y-110244047D02*
X139529819Y-110339285D01*
X138625057Y-109529761D02*
X138577438Y-109482142D01*
X138577438Y-109482142D02*
X138529819Y-109386904D01*
X138529819Y-109386904D02*
X138529819Y-109148809D01*
X138529819Y-109148809D02*
X138577438Y-109053571D01*
X138577438Y-109053571D02*
X138625057Y-109005952D01*
X138625057Y-109005952D02*
X138720295Y-108958333D01*
X138720295Y-108958333D02*
X138815533Y-108958333D01*
X138815533Y-108958333D02*
X138958390Y-109005952D01*
X138958390Y-109005952D02*
X139529819Y-109577380D01*
X139529819Y-109577380D02*
X139529819Y-108958333D01*
X141338095Y-120154819D02*
X141909523Y-120154819D01*
X141623809Y-121154819D02*
X141623809Y-120154819D01*
X142242857Y-121154819D02*
X142242857Y-120154819D01*
X142242857Y-120154819D02*
X142623809Y-120154819D01*
X142623809Y-120154819D02*
X142719047Y-120202438D01*
X142719047Y-120202438D02*
X142766666Y-120250057D01*
X142766666Y-120250057D02*
X142814285Y-120345295D01*
X142814285Y-120345295D02*
X142814285Y-120488152D01*
X142814285Y-120488152D02*
X142766666Y-120583390D01*
X142766666Y-120583390D02*
X142719047Y-120631009D01*
X142719047Y-120631009D02*
X142623809Y-120678628D01*
X142623809Y-120678628D02*
X142242857Y-120678628D01*
X143766666Y-121154819D02*
X143195238Y-121154819D01*
X143480952Y-121154819D02*
X143480952Y-120154819D01*
X143480952Y-120154819D02*
X143385714Y-120297676D01*
X143385714Y-120297676D02*
X143290476Y-120392914D01*
X143290476Y-120392914D02*
X143195238Y-120440533D01*
X130654819Y-120161904D02*
X130654819Y-119590476D01*
X131654819Y-119876190D02*
X130654819Y-119876190D01*
X131654819Y-119257142D02*
X130654819Y-119257142D01*
X130654819Y-119257142D02*
X130654819Y-118876190D01*
X130654819Y-118876190D02*
X130702438Y-118780952D01*
X130702438Y-118780952D02*
X130750057Y-118733333D01*
X130750057Y-118733333D02*
X130845295Y-118685714D01*
X130845295Y-118685714D02*
X130988152Y-118685714D01*
X130988152Y-118685714D02*
X131083390Y-118733333D01*
X131083390Y-118733333D02*
X131131009Y-118780952D01*
X131131009Y-118780952D02*
X131178628Y-118876190D01*
X131178628Y-118876190D02*
X131178628Y-119257142D01*
X130750057Y-118304761D02*
X130702438Y-118257142D01*
X130702438Y-118257142D02*
X130654819Y-118161904D01*
X130654819Y-118161904D02*
X130654819Y-117923809D01*
X130654819Y-117923809D02*
X130702438Y-117828571D01*
X130702438Y-117828571D02*
X130750057Y-117780952D01*
X130750057Y-117780952D02*
X130845295Y-117733333D01*
X130845295Y-117733333D02*
X130940533Y-117733333D01*
X130940533Y-117733333D02*
X131083390Y-117780952D01*
X131083390Y-117780952D02*
X131654819Y-118352380D01*
X131654819Y-118352380D02*
X131654819Y-117733333D01*
X128049819Y-124965094D02*
X127049819Y-124965094D01*
X127049819Y-124965094D02*
X127049819Y-124726999D01*
X127049819Y-124726999D02*
X127097438Y-124584142D01*
X127097438Y-124584142D02*
X127192676Y-124488904D01*
X127192676Y-124488904D02*
X127287914Y-124441285D01*
X127287914Y-124441285D02*
X127478390Y-124393666D01*
X127478390Y-124393666D02*
X127621247Y-124393666D01*
X127621247Y-124393666D02*
X127811723Y-124441285D01*
X127811723Y-124441285D02*
X127906961Y-124488904D01*
X127906961Y-124488904D02*
X128002200Y-124584142D01*
X128002200Y-124584142D02*
X128049819Y-124726999D01*
X128049819Y-124726999D02*
X128049819Y-124965094D01*
X128049819Y-123441285D02*
X128049819Y-124012713D01*
X128049819Y-123726999D02*
X127049819Y-123726999D01*
X127049819Y-123726999D02*
X127192676Y-123822237D01*
X127192676Y-123822237D02*
X127287914Y-123917475D01*
X127287914Y-123917475D02*
X127335533Y-124012713D01*
X141833333Y-129179580D02*
X141785714Y-129227200D01*
X141785714Y-129227200D02*
X141642857Y-129274819D01*
X141642857Y-129274819D02*
X141547619Y-129274819D01*
X141547619Y-129274819D02*
X141404762Y-129227200D01*
X141404762Y-129227200D02*
X141309524Y-129131961D01*
X141309524Y-129131961D02*
X141261905Y-129036723D01*
X141261905Y-129036723D02*
X141214286Y-128846247D01*
X141214286Y-128846247D02*
X141214286Y-128703390D01*
X141214286Y-128703390D02*
X141261905Y-128512914D01*
X141261905Y-128512914D02*
X141309524Y-128417676D01*
X141309524Y-128417676D02*
X141404762Y-128322438D01*
X141404762Y-128322438D02*
X141547619Y-128274819D01*
X141547619Y-128274819D02*
X141642857Y-128274819D01*
X141642857Y-128274819D02*
X141785714Y-128322438D01*
X141785714Y-128322438D02*
X141833333Y-128370057D01*
X142785714Y-129274819D02*
X142214286Y-129274819D01*
X142500000Y-129274819D02*
X142500000Y-128274819D01*
X142500000Y-128274819D02*
X142404762Y-128417676D01*
X142404762Y-128417676D02*
X142309524Y-128512914D01*
X142309524Y-128512914D02*
X142214286Y-128560533D01*
X146429819Y-109983333D02*
X147144104Y-109983333D01*
X147144104Y-109983333D02*
X147286961Y-110030952D01*
X147286961Y-110030952D02*
X147382200Y-110126190D01*
X147382200Y-110126190D02*
X147429819Y-110269047D01*
X147429819Y-110269047D02*
X147429819Y-110364285D01*
X147429819Y-108983333D02*
X147429819Y-109554761D01*
X147429819Y-109269047D02*
X146429819Y-109269047D01*
X146429819Y-109269047D02*
X146572676Y-109364285D01*
X146572676Y-109364285D02*
X146667914Y-109459523D01*
X146667914Y-109459523D02*
X146715533Y-109554761D01*
X150738095Y-106304819D02*
X150738095Y-105304819D01*
X150738095Y-105781009D02*
X151309523Y-105781009D01*
X151309523Y-106304819D02*
X151309523Y-105304819D01*
X152214285Y-105638152D02*
X152214285Y-106304819D01*
X151976190Y-105257200D02*
X151738095Y-105971485D01*
X151738095Y-105971485D02*
X152357142Y-105971485D01*
X120738095Y-136804819D02*
X120738095Y-135804819D01*
X120738095Y-136281009D02*
X121309523Y-136281009D01*
X121309523Y-136804819D02*
X121309523Y-135804819D01*
X121738095Y-135900057D02*
X121785714Y-135852438D01*
X121785714Y-135852438D02*
X121880952Y-135804819D01*
X121880952Y-135804819D02*
X122119047Y-135804819D01*
X122119047Y-135804819D02*
X122214285Y-135852438D01*
X122214285Y-135852438D02*
X122261904Y-135900057D01*
X122261904Y-135900057D02*
X122309523Y-135995295D01*
X122309523Y-135995295D02*
X122309523Y-136090533D01*
X122309523Y-136090533D02*
X122261904Y-136233390D01*
X122261904Y-136233390D02*
X121690476Y-136804819D01*
X121690476Y-136804819D02*
X122309523Y-136804819D01*
X135238095Y-123554819D02*
X135238095Y-124364342D01*
X135238095Y-124364342D02*
X135285714Y-124459580D01*
X135285714Y-124459580D02*
X135333333Y-124507200D01*
X135333333Y-124507200D02*
X135428571Y-124554819D01*
X135428571Y-124554819D02*
X135619047Y-124554819D01*
X135619047Y-124554819D02*
X135714285Y-124507200D01*
X135714285Y-124507200D02*
X135761904Y-124459580D01*
X135761904Y-124459580D02*
X135809523Y-124364342D01*
X135809523Y-124364342D02*
X135809523Y-123554819D01*
X136809523Y-124554819D02*
X136238095Y-124554819D01*
X136523809Y-124554819D02*
X136523809Y-123554819D01*
X136523809Y-123554819D02*
X136428571Y-123697676D01*
X136428571Y-123697676D02*
X136333333Y-123792914D01*
X136333333Y-123792914D02*
X136238095Y-123840533D01*
X139804819Y-126166666D02*
X139328628Y-126499999D01*
X139804819Y-126738094D02*
X138804819Y-126738094D01*
X138804819Y-126738094D02*
X138804819Y-126357142D01*
X138804819Y-126357142D02*
X138852438Y-126261904D01*
X138852438Y-126261904D02*
X138900057Y-126214285D01*
X138900057Y-126214285D02*
X138995295Y-126166666D01*
X138995295Y-126166666D02*
X139138152Y-126166666D01*
X139138152Y-126166666D02*
X139233390Y-126214285D01*
X139233390Y-126214285D02*
X139281009Y-126261904D01*
X139281009Y-126261904D02*
X139328628Y-126357142D01*
X139328628Y-126357142D02*
X139328628Y-126738094D01*
X139804819Y-125214285D02*
X139804819Y-125785713D01*
X139804819Y-125499999D02*
X138804819Y-125499999D01*
X138804819Y-125499999D02*
X138947676Y-125595237D01*
X138947676Y-125595237D02*
X139042914Y-125690475D01*
X139042914Y-125690475D02*
X139090533Y-125785713D01*
X150738095Y-136804819D02*
X150738095Y-135804819D01*
X150738095Y-136281009D02*
X151309523Y-136281009D01*
X151309523Y-136804819D02*
X151309523Y-135804819D01*
X151690476Y-135804819D02*
X152309523Y-135804819D01*
X152309523Y-135804819D02*
X151976190Y-136185771D01*
X151976190Y-136185771D02*
X152119047Y-136185771D01*
X152119047Y-136185771D02*
X152214285Y-136233390D01*
X152214285Y-136233390D02*
X152261904Y-136281009D01*
X152261904Y-136281009D02*
X152309523Y-136376247D01*
X152309523Y-136376247D02*
X152309523Y-136614342D01*
X152309523Y-136614342D02*
X152261904Y-136709580D01*
X152261904Y-136709580D02*
X152214285Y-136757200D01*
X152214285Y-136757200D02*
X152119047Y-136804819D01*
X152119047Y-136804819D02*
X151833333Y-136804819D01*
X151833333Y-136804819D02*
X151738095Y-136757200D01*
X151738095Y-136757200D02*
X151690476Y-136709580D01*
X117954819Y-127833333D02*
X118669104Y-127833333D01*
X118669104Y-127833333D02*
X118811961Y-127880952D01*
X118811961Y-127880952D02*
X118907200Y-127976190D01*
X118907200Y-127976190D02*
X118954819Y-128119047D01*
X118954819Y-128119047D02*
X118954819Y-128214285D01*
X117954819Y-127452380D02*
X117954819Y-126833333D01*
X117954819Y-126833333D02*
X118335771Y-127166666D01*
X118335771Y-127166666D02*
X118335771Y-127023809D01*
X118335771Y-127023809D02*
X118383390Y-126928571D01*
X118383390Y-126928571D02*
X118431009Y-126880952D01*
X118431009Y-126880952D02*
X118526247Y-126833333D01*
X118526247Y-126833333D02*
X118764342Y-126833333D01*
X118764342Y-126833333D02*
X118859580Y-126880952D01*
X118859580Y-126880952D02*
X118907200Y-126928571D01*
X118907200Y-126928571D02*
X118954819Y-127023809D01*
X118954819Y-127023809D02*
X118954819Y-127309523D01*
X118954819Y-127309523D02*
X118907200Y-127404761D01*
X118907200Y-127404761D02*
X118859580Y-127452380D01*
X122614700Y-134571428D02*
X122614700Y-133428571D01*
X122614700Y-121571428D02*
X122614700Y-120428571D01*
X123186128Y-120999999D02*
X122043271Y-120999999D01*
D11*
X136074318Y-118211666D02*
X136074318Y-118816428D01*
X136074318Y-118816428D02*
X134804318Y-118816428D01*
X136074318Y-117123094D02*
X136074318Y-117848809D01*
X136074318Y-117485952D02*
X134804318Y-117485952D01*
X134804318Y-117485952D02*
X134985746Y-117606904D01*
X134985746Y-117606904D02*
X135106699Y-117727856D01*
X135106699Y-117727856D02*
X135167175Y-117848809D01*
D12*
%TO.C,R2*%
X141832776Y-121477500D02*
X142342224Y-121477500D01*
X141832776Y-122522500D02*
X142342224Y-122522500D01*
%TO.C,J4*%
X136290000Y-137710000D02*
X136290000Y-132290000D01*
X145010000Y-132290000D02*
X136290000Y-132290000D01*
X145010000Y-137710000D02*
X136290000Y-137710000D01*
X146710000Y-133590000D02*
X145010000Y-132290000D01*
X146710000Y-136410000D02*
X145010000Y-137710000D01*
X146710000Y-136410000D02*
X146710000Y-133590000D01*
%TO.C,C3*%
X127460000Y-136577349D02*
X124695000Y-136577349D01*
X127460000Y-136617349D02*
X124711000Y-136617349D01*
X127460000Y-136657349D02*
X124727000Y-136657349D01*
X127460000Y-136697349D02*
X124743000Y-136697349D01*
X127460000Y-136737349D02*
X124760000Y-136737349D01*
X127460000Y-136777349D02*
X124778000Y-136777349D01*
X127460000Y-136817349D02*
X124796000Y-136817349D01*
X127460000Y-136857349D02*
X124815000Y-136857349D01*
X127460000Y-136897349D02*
X124834000Y-136897349D01*
X127460000Y-136937349D02*
X124854000Y-136937349D01*
X127460000Y-136977349D02*
X124874000Y-136977349D01*
X127460000Y-137017349D02*
X124895000Y-137017349D01*
X127460000Y-137057349D02*
X124916000Y-137057349D01*
X127460000Y-137097349D02*
X124938000Y-137097349D01*
X127460000Y-137137349D02*
X124961000Y-137137349D01*
X127460000Y-137177349D02*
X124984000Y-137177349D01*
X127460000Y-137217349D02*
X125007000Y-137217349D01*
X127460000Y-137257349D02*
X125032000Y-137257349D01*
X127460000Y-137297349D02*
X125057000Y-137297349D01*
X127460000Y-137337349D02*
X125082000Y-137337349D01*
X127460000Y-137377349D02*
X125108000Y-137377349D01*
X127460000Y-137417349D02*
X125135000Y-137417349D01*
X127460000Y-137457349D02*
X125163000Y-137457349D01*
X127460000Y-137497349D02*
X125191000Y-137497349D01*
X127460000Y-137537349D02*
X125220000Y-137537349D01*
X127460000Y-137577349D02*
X125250000Y-137577349D01*
X127460000Y-137617349D02*
X125281000Y-137617349D01*
X127460000Y-137657349D02*
X125312000Y-137657349D01*
X127460000Y-137697349D02*
X125344000Y-137697349D01*
X127460000Y-137737349D02*
X125377000Y-137737349D01*
X127460000Y-137777349D02*
X125411000Y-137777349D01*
X127460000Y-137817349D02*
X125445000Y-137817349D01*
X127460000Y-137857349D02*
X125481000Y-137857349D01*
X127460000Y-137897349D02*
X125518000Y-137897349D01*
X127460000Y-137937349D02*
X125555000Y-137937349D01*
X127460000Y-137977349D02*
X125594000Y-137977349D01*
X127460000Y-138017349D02*
X125633000Y-138017349D01*
X127460000Y-138057349D02*
X125674000Y-138057349D01*
X127460000Y-138097349D02*
X125716000Y-138097349D01*
X127460000Y-138137349D02*
X125759000Y-138137349D01*
X127460000Y-138177349D02*
X125804000Y-138177349D01*
X127460000Y-138217349D02*
X125849000Y-138217349D01*
X127460000Y-138257349D02*
X125896000Y-138257349D01*
X127460000Y-138297349D02*
X125945000Y-138297349D01*
X127460000Y-138337349D02*
X125995000Y-138337349D01*
X127460000Y-138377349D02*
X126047000Y-138377349D01*
X127460000Y-138417349D02*
X126100000Y-138417349D01*
X127460000Y-138457349D02*
X126156000Y-138457349D01*
X127460000Y-138497349D02*
X126213000Y-138497349D01*
X127460000Y-138537349D02*
X126273000Y-138537349D01*
X127460000Y-138577349D02*
X126335000Y-138577349D01*
X127460000Y-138617349D02*
X126399000Y-138617349D01*
X129033000Y-139177349D02*
X127967000Y-139177349D01*
X129268000Y-139137349D02*
X127732000Y-139137349D01*
X129447000Y-139097349D02*
X127553000Y-139097349D01*
X129597000Y-139057349D02*
X127403000Y-139057349D01*
X129728000Y-139017349D02*
X127272000Y-139017349D01*
X129846000Y-138977349D02*
X127154000Y-138977349D01*
X129953000Y-138937349D02*
X127047000Y-138937349D01*
X130052000Y-138897349D02*
X126948000Y-138897349D01*
X130144000Y-138857349D02*
X126856000Y-138857349D01*
X130231000Y-138817349D02*
X126769000Y-138817349D01*
X130313000Y-138777349D02*
X126687000Y-138777349D01*
X130390000Y-138737349D02*
X126610000Y-138737349D01*
X130464000Y-138697349D02*
X126536000Y-138697349D01*
X130534000Y-138657349D02*
X126466000Y-138657349D01*
X130601000Y-138617349D02*
X129540000Y-138617349D01*
X130665000Y-138577349D02*
X129540000Y-138577349D01*
X130727000Y-138537349D02*
X129540000Y-138537349D01*
X130787000Y-138497349D02*
X129540000Y-138497349D01*
X130815000Y-130687651D02*
X130815000Y-131487651D01*
X130844000Y-138457349D02*
X129540000Y-138457349D01*
X130900000Y-138417349D02*
X129540000Y-138417349D01*
X130953000Y-138377349D02*
X129540000Y-138377349D01*
X131005000Y-138337349D02*
X129540000Y-138337349D01*
X131055000Y-138297349D02*
X129540000Y-138297349D01*
X131104000Y-138257349D02*
X129540000Y-138257349D01*
X131151000Y-138217349D02*
X129540000Y-138217349D01*
X131196000Y-138177349D02*
X129540000Y-138177349D01*
X131215000Y-131087651D02*
X130415000Y-131087651D01*
X131241000Y-138137349D02*
X129540000Y-138137349D01*
X131284000Y-138097349D02*
X129540000Y-138097349D01*
X131326000Y-138057349D02*
X129540000Y-138057349D01*
X131367000Y-138017349D02*
X129540000Y-138017349D01*
X131406000Y-137977349D02*
X129540000Y-137977349D01*
X131445000Y-137937349D02*
X129540000Y-137937349D01*
X131482000Y-137897349D02*
X129540000Y-137897349D01*
X131519000Y-137857349D02*
X129540000Y-137857349D01*
X131555000Y-137817349D02*
X129540000Y-137817349D01*
X131589000Y-137777349D02*
X129540000Y-137777349D01*
X131623000Y-137737349D02*
X129540000Y-137737349D01*
X131656000Y-137697349D02*
X129540000Y-137697349D01*
X131688000Y-137657349D02*
X129540000Y-137657349D01*
X131719000Y-137617349D02*
X129540000Y-137617349D01*
X131750000Y-137577349D02*
X129540000Y-137577349D01*
X131780000Y-137537349D02*
X129540000Y-137537349D01*
X131809000Y-137497349D02*
X129540000Y-137497349D01*
X131837000Y-137457349D02*
X129540000Y-137457349D01*
X131865000Y-137417349D02*
X129540000Y-137417349D01*
X131892000Y-137377349D02*
X129540000Y-137377349D01*
X131918000Y-137337349D02*
X129540000Y-137337349D01*
X131943000Y-137297349D02*
X129540000Y-137297349D01*
X131968000Y-137257349D02*
X129540000Y-137257349D01*
X131993000Y-137217349D02*
X129540000Y-137217349D01*
X132016000Y-137177349D02*
X129540000Y-137177349D01*
X132039000Y-137137349D02*
X129540000Y-137137349D01*
X132062000Y-137097349D02*
X129540000Y-137097349D01*
X132084000Y-137057349D02*
X129540000Y-137057349D01*
X132105000Y-137017349D02*
X129540000Y-137017349D01*
X132126000Y-136977349D02*
X129540000Y-136977349D01*
X132146000Y-136937349D02*
X129540000Y-136937349D01*
X132166000Y-136897349D02*
X129540000Y-136897349D01*
X132185000Y-136857349D02*
X129540000Y-136857349D01*
X132204000Y-136817349D02*
X129540000Y-136817349D01*
X132222000Y-136777349D02*
X129540000Y-136777349D01*
X132240000Y-136737349D02*
X129540000Y-136737349D01*
X132257000Y-136697349D02*
X129540000Y-136697349D01*
X132273000Y-136657349D02*
X129540000Y-136657349D01*
X132289000Y-136617349D02*
X129540000Y-136617349D01*
X132305000Y-136577349D02*
X129540000Y-136577349D01*
X132320000Y-136537349D02*
X124680000Y-136537349D01*
X132335000Y-136497349D02*
X124665000Y-136497349D01*
X132349000Y-136457349D02*
X124651000Y-136457349D01*
X132363000Y-136417349D02*
X124637000Y-136417349D01*
X132376000Y-136377349D02*
X124624000Y-136377349D01*
X132389000Y-136337349D02*
X124611000Y-136337349D01*
X132401000Y-136297349D02*
X124599000Y-136297349D01*
X132413000Y-136257349D02*
X124587000Y-136257349D01*
X132425000Y-136217349D02*
X124575000Y-136217349D01*
X132436000Y-136177349D02*
X124564000Y-136177349D01*
X132447000Y-136137349D02*
X124553000Y-136137349D01*
X132457000Y-136097349D02*
X124543000Y-136097349D01*
X132467000Y-136057349D02*
X124533000Y-136057349D01*
X132476000Y-136017349D02*
X124524000Y-136017349D01*
X132485000Y-135977349D02*
X124515000Y-135977349D01*
X132493000Y-135937349D02*
X124507000Y-135937349D01*
X132502000Y-135897349D02*
X124498000Y-135897349D01*
X132509000Y-135857349D02*
X124491000Y-135857349D01*
X132517000Y-135817349D02*
X124483000Y-135817349D01*
X132523000Y-135777349D02*
X124477000Y-135777349D01*
X132530000Y-135737349D02*
X124470000Y-135737349D01*
X132536000Y-135697349D02*
X124464000Y-135697349D01*
X132542000Y-135657349D02*
X124458000Y-135657349D01*
X132547000Y-135617349D02*
X124453000Y-135617349D01*
X132552000Y-135577349D02*
X124448000Y-135577349D01*
X132556000Y-135537349D02*
X124444000Y-135537349D01*
X132561000Y-135497349D02*
X124439000Y-135497349D01*
X132564000Y-135457349D02*
X124436000Y-135457349D01*
X132568000Y-135417349D02*
X124432000Y-135417349D01*
X132570000Y-135377349D02*
X124430000Y-135377349D01*
X132573000Y-135337349D02*
X124427000Y-135337349D01*
X132575000Y-135297349D02*
X124425000Y-135297349D01*
X132577000Y-135257349D02*
X124423000Y-135257349D01*
X132578000Y-135217349D02*
X124422000Y-135217349D01*
X132579000Y-135177349D02*
X124421000Y-135177349D01*
X132580000Y-135097349D02*
X124420000Y-135097349D01*
X132580000Y-135137349D02*
X124420000Y-135137349D01*
X132620000Y-135097349D02*
G75*
G02*
X124380000Y-135097349I-4120000J0D01*
G01*
X124380000Y-135097349D02*
G75*
G02*
X132620000Y-135097349I4120000J0D01*
G01*
%TO.C,J2*%
X133215000Y-106640000D02*
X133215000Y-108440000D01*
X133215000Y-108440000D02*
X132275000Y-108440000D01*
X133215000Y-112610000D02*
X133215000Y-110810000D01*
X134815000Y-106640000D02*
X133215000Y-106640000D01*
X134815000Y-112610000D02*
X133215000Y-112610000D01*
X137685000Y-107910000D02*
X137685000Y-111340000D01*
%TO.C,TP1*%
X140600000Y-118100000D02*
X140600000Y-119900000D01*
X140600000Y-119900000D02*
X144400000Y-119900000D01*
X144400000Y-118100000D02*
X140600000Y-118100000D01*
X144400000Y-119900000D02*
X144400000Y-118100000D01*
%TO.C,TP2*%
X128600000Y-117100000D02*
X128600000Y-120900000D01*
X128600000Y-120900000D02*
X130400000Y-120900000D01*
X130400000Y-117100000D02*
X128600000Y-117100000D01*
X130400000Y-120900000D02*
X130400000Y-117100000D01*
%TO.C,D1*%
X128500000Y-126310000D02*
X128500000Y-122450000D01*
X128500000Y-126310000D02*
X130500000Y-126310000D01*
X130500000Y-126310000D02*
X130500000Y-122450000D01*
%TO.C,C1*%
X141738748Y-129765000D02*
X142261252Y-129765000D01*
X141738748Y-131235000D02*
X142261252Y-131235000D01*
%TO.C,J1*%
X141115000Y-106665000D02*
X141115000Y-108465000D01*
X141115000Y-108465000D02*
X140175000Y-108465000D01*
X141115000Y-112635000D02*
X141115000Y-110835000D01*
X142715000Y-106665000D02*
X141115000Y-106665000D01*
X142715000Y-112635000D02*
X141115000Y-112635000D01*
X145585000Y-107935000D02*
X145585000Y-111365000D01*
%TO.C,U1*%
X136000000Y-124940000D02*
X134050000Y-124940000D01*
X136000000Y-124940000D02*
X137950000Y-124940000D01*
X136000000Y-130060000D02*
X134050000Y-130060000D01*
X136000000Y-130060000D02*
X137950000Y-130060000D01*
X133300000Y-125035000D02*
X133060000Y-124705000D01*
X133540000Y-124705000D01*
X133300000Y-125035000D01*
G36*
X133300000Y-125035000D02*
G01*
X133060000Y-124705000D01*
X133540000Y-124705000D01*
X133300000Y-125035000D01*
G37*
%TO.C,R1*%
X140265000Y-126227064D02*
X140265000Y-125772936D01*
X141735000Y-126227064D02*
X141735000Y-125772936D01*
%TO.C,J3*%
X119790000Y-122290000D02*
X125210000Y-122290000D01*
X119790000Y-131010000D02*
X119790000Y-122290000D01*
X121090000Y-132710000D02*
X119790000Y-131010000D01*
X121090000Y-132710000D02*
X123910000Y-132710000D01*
X123910000Y-132710000D02*
X125210000Y-131010000D01*
X125210000Y-131010000D02*
X125210000Y-122290000D01*
D13*
%TO.C,L1*%
X138500000Y-115000000D02*
X132500000Y-115000000D01*
X138500000Y-121000000D02*
X132500000Y-121000000D01*
%TD*%
%LPC*%
D14*
%TO.C,R2*%
X141175000Y-122000000D03*
X143000000Y-122000000D03*
%TD*%
D15*
%TO.C,J4*%
X144000000Y-135000000D03*
D16*
X139000000Y-135000000D03*
%TD*%
D17*
%TO.C,C3*%
X128500000Y-132597349D03*
D18*
X128500000Y-137597349D03*
%TD*%
D19*
%TO.C,H1*%
X121500000Y-109000000D03*
%TD*%
D20*
%TO.C,J2*%
X133125000Y-109000000D03*
X133125000Y-110250000D03*
D21*
X136475000Y-107150000D03*
X136475000Y-112100000D03*
%TD*%
D22*
%TO.C,TP1*%
X141500000Y-119000000D03*
X143500000Y-119000000D03*
%TD*%
%TO.C,TP2*%
X129500000Y-120000000D03*
X129500000Y-118000000D03*
%TD*%
D23*
%TO.C,D1*%
X129500000Y-125500000D03*
X129500000Y-122700000D03*
%TD*%
D24*
%TO.C,C1*%
X141050000Y-130500000D03*
X142950000Y-130500000D03*
%TD*%
D20*
%TO.C,J1*%
X141025000Y-109025000D03*
X141025000Y-110275000D03*
D21*
X144375000Y-107175000D03*
X144375000Y-112125000D03*
%TD*%
D19*
%TO.C,H4*%
X151500000Y-109000000D03*
%TD*%
%TO.C,H2*%
X121500000Y-139500000D03*
%TD*%
D25*
%TO.C,U1*%
X133525000Y-125595000D03*
X133525000Y-126865000D03*
X133525000Y-128135000D03*
X133525000Y-129405000D03*
X138475000Y-129405000D03*
X138475000Y-128135000D03*
X138475000Y-126865000D03*
X138475000Y-125595000D03*
%TD*%
D26*
%TO.C,R1*%
X141000000Y-127000000D03*
X141000000Y-125000000D03*
%TD*%
D19*
%TO.C,H3*%
X151500000Y-139500000D03*
%TD*%
D27*
%TO.C,J3*%
X122500000Y-130000000D03*
D28*
X122500000Y-125000000D03*
%TD*%
D29*
%TO.C,L1*%
X137575000Y-118000000D03*
X133425000Y-118000000D03*
%TD*%
%LPD*%
M02*
