%TF.GenerationSoftware,KiCad,Pcbnew,9.0.0*%
%TF.CreationDate,2026-02-01T14:29:33-06:00*%
%TF.ProjectId,Onboarding,4f6e626f-6172-4646-996e-672e6b696361,rev?*%
%TF.SameCoordinates,Original*%
%TF.FileFunction,Legend,Top*%
%TF.FilePolarity,Positive*%
%FSLAX46Y46*%
G04 Gerber Fmt 4.6, Leading zero omitted, Abs format (unit mm)*
G04 Created by KiCad (PCBNEW 9.0.0) date 2026-02-01 14:29:33*
%MOMM*%
%LPD*%
G01*
G04 APERTURE LIST*
G04 Aperture macros list*
%AMRoundRect*
0 Rectangle with rounded corners*
0 $1 Rounding radius*
0 $2 $3 $4 $5 $6 $7 $8 $9 X,Y pos of 4 corners*
0 Add a 4 corners polygon primitive as box body*
4,1,4,$2,$3,$4,$5,$6,$7,$8,$9,$2,$3,0*
0 Add four circle primitives for the rounded corners*
1,1,$1+$1,$2,$3*
1,1,$1+$1,$4,$5*
1,1,$1+$1,$6,$7*
1,1,$1+$1,$8,$9*
0 Add four rect primitives between the rounded corners*
20,1,$1+$1,$2,$3,$4,$5,0*
20,1,$1+$1,$4,$5,$6,$7,0*
20,1,$1+$1,$6,$7,$8,$9,0*
20,1,$1+$1,$8,$9,$2,$3,0*%
G04 Aperture macros list end*
%ADD10C,0.150000*%
%ADD11C,0.254000*%
%ADD12C,0.120000*%
%ADD13C,0.200000*%
%ADD14C,0.100000*%
%ADD15R,2.200000X2.200000*%
%ADD16O,2.200000X2.200000*%
%ADD17RoundRect,0.250000X-0.250000X-0.475000X0.250000X-0.475000X0.250000X0.475000X-0.250000X0.475000X0*%
%ADD18RoundRect,0.237500X-0.250000X-0.237500X0.250000X-0.237500X0.250000X0.237500X-0.250000X0.237500X0*%
%ADD19RoundRect,0.150000X-0.150000X-0.700000X0.150000X-0.700000X0.150000X0.700000X-0.150000X0.700000X0*%
%ADD20RoundRect,0.250000X-0.250000X-1.150000X0.250000X-1.150000X0.250000X1.150000X-0.250000X1.150000X0*%
%ADD21C,2.200000*%
%ADD22RoundRect,0.150000X-0.825000X-0.150000X0.825000X-0.150000X0.825000X0.150000X-0.825000X0.150000X0*%
%ADD23R,1.600000X1.600000*%
%ADD24C,1.600000*%
%ADD25RoundRect,0.760000X-1.140000X-1.140000X1.140000X-1.140000X1.140000X1.140000X-1.140000X1.140000X0*%
%ADD26C,3.800000*%
%ADD27C,1.400000*%
%ADD28R,4.300000X1.700000*%
%ADD29RoundRect,0.237500X-0.300000X-0.237500X0.300000X-0.237500X0.300000X0.237500X-0.300000X0.237500X0*%
%ADD30RoundRect,0.760000X1.140000X-1.140000X1.140000X1.140000X-1.140000X1.140000X-1.140000X-1.140000X0*%
%ADD31C,4.000000*%
%ADD32RoundRect,0.250000X-0.350000X-0.450000X0.350000X-0.450000X0.350000X0.450000X-0.350000X0.450000X0*%
G04 APERTURE END LIST*
D10*
X160984819Y-99658094D02*
X159984819Y-99658094D01*
X159984819Y-99658094D02*
X159984819Y-99419999D01*
X159984819Y-99419999D02*
X160032438Y-99277142D01*
X160032438Y-99277142D02*
X160127676Y-99181904D01*
X160127676Y-99181904D02*
X160222914Y-99134285D01*
X160222914Y-99134285D02*
X160413390Y-99086666D01*
X160413390Y-99086666D02*
X160556247Y-99086666D01*
X160556247Y-99086666D02*
X160746723Y-99134285D01*
X160746723Y-99134285D02*
X160841961Y-99181904D01*
X160841961Y-99181904D02*
X160937200Y-99277142D01*
X160937200Y-99277142D02*
X160984819Y-99419999D01*
X160984819Y-99419999D02*
X160984819Y-99658094D01*
X160984819Y-98134285D02*
X160984819Y-98705713D01*
X160984819Y-98419999D02*
X159984819Y-98419999D01*
X159984819Y-98419999D02*
X160127676Y-98515237D01*
X160127676Y-98515237D02*
X160222914Y-98610475D01*
X160222914Y-98610475D02*
X160270533Y-98705713D01*
X161354819Y-104261904D02*
X160354819Y-104261904D01*
X161354819Y-103690476D02*
X160783390Y-104119047D01*
X160354819Y-103690476D02*
X160926247Y-104261904D01*
X178883333Y-97679580D02*
X178835714Y-97727200D01*
X178835714Y-97727200D02*
X178692857Y-97774819D01*
X178692857Y-97774819D02*
X178597619Y-97774819D01*
X178597619Y-97774819D02*
X178454762Y-97727200D01*
X178454762Y-97727200D02*
X178359524Y-97631961D01*
X178359524Y-97631961D02*
X178311905Y-97536723D01*
X178311905Y-97536723D02*
X178264286Y-97346247D01*
X178264286Y-97346247D02*
X178264286Y-97203390D01*
X178264286Y-97203390D02*
X178311905Y-97012914D01*
X178311905Y-97012914D02*
X178359524Y-96917676D01*
X178359524Y-96917676D02*
X178454762Y-96822438D01*
X178454762Y-96822438D02*
X178597619Y-96774819D01*
X178597619Y-96774819D02*
X178692857Y-96774819D01*
X178692857Y-96774819D02*
X178835714Y-96822438D01*
X178835714Y-96822438D02*
X178883333Y-96870057D01*
X179740476Y-97108152D02*
X179740476Y-97774819D01*
X179502381Y-96727200D02*
X179264286Y-97441485D01*
X179264286Y-97441485D02*
X179883333Y-97441485D01*
X178920833Y-101024819D02*
X178587500Y-100548628D01*
X178349405Y-101024819D02*
X178349405Y-100024819D01*
X178349405Y-100024819D02*
X178730357Y-100024819D01*
X178730357Y-100024819D02*
X178825595Y-100072438D01*
X178825595Y-100072438D02*
X178873214Y-100120057D01*
X178873214Y-100120057D02*
X178920833Y-100215295D01*
X178920833Y-100215295D02*
X178920833Y-100358152D01*
X178920833Y-100358152D02*
X178873214Y-100453390D01*
X178873214Y-100453390D02*
X178825595Y-100501009D01*
X178825595Y-100501009D02*
X178730357Y-100548628D01*
X178730357Y-100548628D02*
X178349405Y-100548628D01*
X179777976Y-100358152D02*
X179777976Y-101024819D01*
X179539881Y-99977200D02*
X179301786Y-100691485D01*
X179301786Y-100691485D02*
X179920833Y-100691485D01*
X155191666Y-97454819D02*
X155191666Y-98169104D01*
X155191666Y-98169104D02*
X155144047Y-98311961D01*
X155144047Y-98311961D02*
X155048809Y-98407200D01*
X155048809Y-98407200D02*
X154905952Y-98454819D01*
X154905952Y-98454819D02*
X154810714Y-98454819D01*
X156096428Y-97788152D02*
X156096428Y-98454819D01*
X155858333Y-97407200D02*
X155620238Y-98121485D01*
X155620238Y-98121485D02*
X156239285Y-98121485D01*
X148238095Y-83254819D02*
X148238095Y-82254819D01*
X148238095Y-82731009D02*
X148809523Y-82731009D01*
X148809523Y-83254819D02*
X148809523Y-82254819D01*
X149809523Y-83254819D02*
X149238095Y-83254819D01*
X149523809Y-83254819D02*
X149523809Y-82254819D01*
X149523809Y-82254819D02*
X149428571Y-82397676D01*
X149428571Y-82397676D02*
X149333333Y-82492914D01*
X149333333Y-82492914D02*
X149238095Y-82540533D01*
X174920833Y-101024819D02*
X174587500Y-100548628D01*
X174349405Y-101024819D02*
X174349405Y-100024819D01*
X174349405Y-100024819D02*
X174730357Y-100024819D01*
X174730357Y-100024819D02*
X174825595Y-100072438D01*
X174825595Y-100072438D02*
X174873214Y-100120057D01*
X174873214Y-100120057D02*
X174920833Y-100215295D01*
X174920833Y-100215295D02*
X174920833Y-100358152D01*
X174920833Y-100358152D02*
X174873214Y-100453390D01*
X174873214Y-100453390D02*
X174825595Y-100501009D01*
X174825595Y-100501009D02*
X174730357Y-100548628D01*
X174730357Y-100548628D02*
X174349405Y-100548628D01*
X175301786Y-100120057D02*
X175349405Y-100072438D01*
X175349405Y-100072438D02*
X175444643Y-100024819D01*
X175444643Y-100024819D02*
X175682738Y-100024819D01*
X175682738Y-100024819D02*
X175777976Y-100072438D01*
X175777976Y-100072438D02*
X175825595Y-100120057D01*
X175825595Y-100120057D02*
X175873214Y-100215295D01*
X175873214Y-100215295D02*
X175873214Y-100310533D01*
X175873214Y-100310533D02*
X175825595Y-100453390D01*
X175825595Y-100453390D02*
X175254167Y-101024819D01*
X175254167Y-101024819D02*
X175873214Y-101024819D01*
X190238095Y-83254819D02*
X190238095Y-82254819D01*
X190238095Y-82731009D02*
X190809523Y-82731009D01*
X190809523Y-83254819D02*
X190809523Y-82254819D01*
X191714285Y-82588152D02*
X191714285Y-83254819D01*
X191476190Y-82207200D02*
X191238095Y-82921485D01*
X191238095Y-82921485D02*
X191857142Y-82921485D01*
X171763095Y-92054819D02*
X171763095Y-92864342D01*
X171763095Y-92864342D02*
X171810714Y-92959580D01*
X171810714Y-92959580D02*
X171858333Y-93007200D01*
X171858333Y-93007200D02*
X171953571Y-93054819D01*
X171953571Y-93054819D02*
X172144047Y-93054819D01*
X172144047Y-93054819D02*
X172239285Y-93007200D01*
X172239285Y-93007200D02*
X172286904Y-92959580D01*
X172286904Y-92959580D02*
X172334523Y-92864342D01*
X172334523Y-92864342D02*
X172334523Y-92054819D01*
X173334523Y-93054819D02*
X172763095Y-93054819D01*
X173048809Y-93054819D02*
X173048809Y-92054819D01*
X173048809Y-92054819D02*
X172953571Y-92197676D01*
X172953571Y-92197676D02*
X172858333Y-92292914D01*
X172858333Y-92292914D02*
X172763095Y-92340533D01*
X148238095Y-111254819D02*
X148238095Y-110254819D01*
X148238095Y-110731009D02*
X148809523Y-110731009D01*
X148809523Y-111254819D02*
X148809523Y-110254819D01*
X149238095Y-110350057D02*
X149285714Y-110302438D01*
X149285714Y-110302438D02*
X149380952Y-110254819D01*
X149380952Y-110254819D02*
X149619047Y-110254819D01*
X149619047Y-110254819D02*
X149714285Y-110302438D01*
X149714285Y-110302438D02*
X149761904Y-110350057D01*
X149761904Y-110350057D02*
X149809523Y-110445295D01*
X149809523Y-110445295D02*
X149809523Y-110540533D01*
X149809523Y-110540533D02*
X149761904Y-110683390D01*
X149761904Y-110683390D02*
X149190476Y-111254819D01*
X149190476Y-111254819D02*
X149809523Y-111254819D01*
X174333333Y-104109580D02*
X174285714Y-104157200D01*
X174285714Y-104157200D02*
X174142857Y-104204819D01*
X174142857Y-104204819D02*
X174047619Y-104204819D01*
X174047619Y-104204819D02*
X173904762Y-104157200D01*
X173904762Y-104157200D02*
X173809524Y-104061961D01*
X173809524Y-104061961D02*
X173761905Y-103966723D01*
X173761905Y-103966723D02*
X173714286Y-103776247D01*
X173714286Y-103776247D02*
X173714286Y-103633390D01*
X173714286Y-103633390D02*
X173761905Y-103442914D01*
X173761905Y-103442914D02*
X173809524Y-103347676D01*
X173809524Y-103347676D02*
X173904762Y-103252438D01*
X173904762Y-103252438D02*
X174047619Y-103204819D01*
X174047619Y-103204819D02*
X174142857Y-103204819D01*
X174142857Y-103204819D02*
X174285714Y-103252438D01*
X174285714Y-103252438D02*
X174333333Y-103300057D01*
X175285714Y-104204819D02*
X174714286Y-104204819D01*
X175000000Y-104204819D02*
X175000000Y-103204819D01*
X175000000Y-103204819D02*
X174904762Y-103347676D01*
X174904762Y-103347676D02*
X174809524Y-103442914D01*
X174809524Y-103442914D02*
X174714286Y-103490533D01*
X162166666Y-105454819D02*
X162166666Y-106169104D01*
X162166666Y-106169104D02*
X162119047Y-106311961D01*
X162119047Y-106311961D02*
X162023809Y-106407200D01*
X162023809Y-106407200D02*
X161880952Y-106454819D01*
X161880952Y-106454819D02*
X161785714Y-106454819D01*
X162595238Y-105550057D02*
X162642857Y-105502438D01*
X162642857Y-105502438D02*
X162738095Y-105454819D01*
X162738095Y-105454819D02*
X162976190Y-105454819D01*
X162976190Y-105454819D02*
X163071428Y-105502438D01*
X163071428Y-105502438D02*
X163119047Y-105550057D01*
X163119047Y-105550057D02*
X163166666Y-105645295D01*
X163166666Y-105645295D02*
X163166666Y-105740533D01*
X163166666Y-105740533D02*
X163119047Y-105883390D01*
X163119047Y-105883390D02*
X162547619Y-106454819D01*
X162547619Y-106454819D02*
X163166666Y-106454819D01*
X168428571Y-110114700D02*
X169571429Y-110114700D01*
X169000000Y-110686128D02*
X169000000Y-109543271D01*
X155428571Y-110114700D02*
X156571429Y-110114700D01*
X181754819Y-98361904D02*
X181754819Y-97790476D01*
X182754819Y-98076190D02*
X181754819Y-98076190D01*
X182754819Y-97457142D02*
X181754819Y-97457142D01*
X181754819Y-97457142D02*
X181754819Y-97076190D01*
X181754819Y-97076190D02*
X181802438Y-96980952D01*
X181802438Y-96980952D02*
X181850057Y-96933333D01*
X181850057Y-96933333D02*
X181945295Y-96885714D01*
X181945295Y-96885714D02*
X182088152Y-96885714D01*
X182088152Y-96885714D02*
X182183390Y-96933333D01*
X182183390Y-96933333D02*
X182231009Y-96980952D01*
X182231009Y-96980952D02*
X182278628Y-97076190D01*
X182278628Y-97076190D02*
X182278628Y-97457142D01*
X182754819Y-95933333D02*
X182754819Y-96504761D01*
X182754819Y-96219047D02*
X181754819Y-96219047D01*
X181754819Y-96219047D02*
X181897676Y-96314285D01*
X181897676Y-96314285D02*
X181992914Y-96409523D01*
X181992914Y-96409523D02*
X182040533Y-96504761D01*
X169838095Y-89154819D02*
X170409523Y-89154819D01*
X170123809Y-90154819D02*
X170123809Y-89154819D01*
X170742857Y-90154819D02*
X170742857Y-89154819D01*
X170742857Y-89154819D02*
X171123809Y-89154819D01*
X171123809Y-89154819D02*
X171219047Y-89202438D01*
X171219047Y-89202438D02*
X171266666Y-89250057D01*
X171266666Y-89250057D02*
X171314285Y-89345295D01*
X171314285Y-89345295D02*
X171314285Y-89488152D01*
X171314285Y-89488152D02*
X171266666Y-89583390D01*
X171266666Y-89583390D02*
X171219047Y-89631009D01*
X171219047Y-89631009D02*
X171123809Y-89678628D01*
X171123809Y-89678628D02*
X170742857Y-89678628D01*
X171695238Y-89250057D02*
X171742857Y-89202438D01*
X171742857Y-89202438D02*
X171838095Y-89154819D01*
X171838095Y-89154819D02*
X172076190Y-89154819D01*
X172076190Y-89154819D02*
X172171428Y-89202438D01*
X172171428Y-89202438D02*
X172219047Y-89250057D01*
X172219047Y-89250057D02*
X172266666Y-89345295D01*
X172266666Y-89345295D02*
X172266666Y-89440533D01*
X172266666Y-89440533D02*
X172219047Y-89583390D01*
X172219047Y-89583390D02*
X171647619Y-90154819D01*
X171647619Y-90154819D02*
X172266666Y-90154819D01*
D11*
X184574318Y-90611666D02*
X184574318Y-91216428D01*
X184574318Y-91216428D02*
X183304318Y-91216428D01*
X184574318Y-89523094D02*
X184574318Y-90248809D01*
X184574318Y-89885952D02*
X183304318Y-89885952D01*
X183304318Y-89885952D02*
X183485746Y-90006904D01*
X183485746Y-90006904D02*
X183606699Y-90127856D01*
X183606699Y-90127856D02*
X183667175Y-90248809D01*
D10*
X178920833Y-95024819D02*
X178587500Y-94548628D01*
X178349405Y-95024819D02*
X178349405Y-94024819D01*
X178349405Y-94024819D02*
X178730357Y-94024819D01*
X178730357Y-94024819D02*
X178825595Y-94072438D01*
X178825595Y-94072438D02*
X178873214Y-94120057D01*
X178873214Y-94120057D02*
X178920833Y-94215295D01*
X178920833Y-94215295D02*
X178920833Y-94358152D01*
X178920833Y-94358152D02*
X178873214Y-94453390D01*
X178873214Y-94453390D02*
X178825595Y-94501009D01*
X178825595Y-94501009D02*
X178730357Y-94548628D01*
X178730357Y-94548628D02*
X178349405Y-94548628D01*
X179254167Y-94024819D02*
X179873214Y-94024819D01*
X179873214Y-94024819D02*
X179539881Y-94405771D01*
X179539881Y-94405771D02*
X179682738Y-94405771D01*
X179682738Y-94405771D02*
X179777976Y-94453390D01*
X179777976Y-94453390D02*
X179825595Y-94501009D01*
X179825595Y-94501009D02*
X179873214Y-94596247D01*
X179873214Y-94596247D02*
X179873214Y-94834342D01*
X179873214Y-94834342D02*
X179825595Y-94929580D01*
X179825595Y-94929580D02*
X179777976Y-94977200D01*
X179777976Y-94977200D02*
X179682738Y-95024819D01*
X179682738Y-95024819D02*
X179397024Y-95024819D01*
X179397024Y-95024819D02*
X179301786Y-94977200D01*
X179301786Y-94977200D02*
X179254167Y-94929580D01*
X166970833Y-100929580D02*
X166923214Y-100977200D01*
X166923214Y-100977200D02*
X166780357Y-101024819D01*
X166780357Y-101024819D02*
X166685119Y-101024819D01*
X166685119Y-101024819D02*
X166542262Y-100977200D01*
X166542262Y-100977200D02*
X166447024Y-100881961D01*
X166447024Y-100881961D02*
X166399405Y-100786723D01*
X166399405Y-100786723D02*
X166351786Y-100596247D01*
X166351786Y-100596247D02*
X166351786Y-100453390D01*
X166351786Y-100453390D02*
X166399405Y-100262914D01*
X166399405Y-100262914D02*
X166447024Y-100167676D01*
X166447024Y-100167676D02*
X166542262Y-100072438D01*
X166542262Y-100072438D02*
X166685119Y-100024819D01*
X166685119Y-100024819D02*
X166780357Y-100024819D01*
X166780357Y-100024819D02*
X166923214Y-100072438D01*
X166923214Y-100072438D02*
X166970833Y-100120057D01*
X167351786Y-100120057D02*
X167399405Y-100072438D01*
X167399405Y-100072438D02*
X167494643Y-100024819D01*
X167494643Y-100024819D02*
X167732738Y-100024819D01*
X167732738Y-100024819D02*
X167827976Y-100072438D01*
X167827976Y-100072438D02*
X167875595Y-100120057D01*
X167875595Y-100120057D02*
X167923214Y-100215295D01*
X167923214Y-100215295D02*
X167923214Y-100310533D01*
X167923214Y-100310533D02*
X167875595Y-100453390D01*
X167875595Y-100453390D02*
X167304167Y-101024819D01*
X167304167Y-101024819D02*
X167923214Y-101024819D01*
X179454819Y-107833333D02*
X180169104Y-107833333D01*
X180169104Y-107833333D02*
X180311961Y-107880952D01*
X180311961Y-107880952D02*
X180407200Y-107976190D01*
X180407200Y-107976190D02*
X180454819Y-108119047D01*
X180454819Y-108119047D02*
X180454819Y-108214285D01*
X180454819Y-106833333D02*
X180454819Y-107404761D01*
X180454819Y-107119047D02*
X179454819Y-107119047D01*
X179454819Y-107119047D02*
X179597676Y-107214285D01*
X179597676Y-107214285D02*
X179692914Y-107309523D01*
X179692914Y-107309523D02*
X179740533Y-107404761D01*
X184114700Y-114571428D02*
X184114700Y-113428571D01*
X184114700Y-101571428D02*
X184114700Y-100428571D01*
X184686128Y-100999999D02*
X183543271Y-100999999D01*
X190238095Y-111254819D02*
X190238095Y-110254819D01*
X190238095Y-110731009D02*
X190809523Y-110731009D01*
X190809523Y-111254819D02*
X190809523Y-110254819D01*
X191190476Y-110254819D02*
X191809523Y-110254819D01*
X191809523Y-110254819D02*
X191476190Y-110635771D01*
X191476190Y-110635771D02*
X191619047Y-110635771D01*
X191619047Y-110635771D02*
X191714285Y-110683390D01*
X191714285Y-110683390D02*
X191761904Y-110731009D01*
X191761904Y-110731009D02*
X191809523Y-110826247D01*
X191809523Y-110826247D02*
X191809523Y-111064342D01*
X191809523Y-111064342D02*
X191761904Y-111159580D01*
X191761904Y-111159580D02*
X191714285Y-111207200D01*
X191714285Y-111207200D02*
X191619047Y-111254819D01*
X191619047Y-111254819D02*
X191333333Y-111254819D01*
X191333333Y-111254819D02*
X191238095Y-111207200D01*
X191238095Y-111207200D02*
X191190476Y-111159580D01*
X155191666Y-85854819D02*
X155191666Y-86569104D01*
X155191666Y-86569104D02*
X155144047Y-86711961D01*
X155144047Y-86711961D02*
X155048809Y-86807200D01*
X155048809Y-86807200D02*
X154905952Y-86854819D01*
X154905952Y-86854819D02*
X154810714Y-86854819D01*
X155572619Y-85854819D02*
X156191666Y-85854819D01*
X156191666Y-85854819D02*
X155858333Y-86235771D01*
X155858333Y-86235771D02*
X156001190Y-86235771D01*
X156001190Y-86235771D02*
X156096428Y-86283390D01*
X156096428Y-86283390D02*
X156144047Y-86331009D01*
X156144047Y-86331009D02*
X156191666Y-86426247D01*
X156191666Y-86426247D02*
X156191666Y-86664342D01*
X156191666Y-86664342D02*
X156144047Y-86759580D01*
X156144047Y-86759580D02*
X156096428Y-86807200D01*
X156096428Y-86807200D02*
X156001190Y-86854819D01*
X156001190Y-86854819D02*
X155715476Y-86854819D01*
X155715476Y-86854819D02*
X155620238Y-86807200D01*
X155620238Y-86807200D02*
X155572619Y-86759580D01*
X170833333Y-100804819D02*
X170500000Y-100328628D01*
X170261905Y-100804819D02*
X170261905Y-99804819D01*
X170261905Y-99804819D02*
X170642857Y-99804819D01*
X170642857Y-99804819D02*
X170738095Y-99852438D01*
X170738095Y-99852438D02*
X170785714Y-99900057D01*
X170785714Y-99900057D02*
X170833333Y-99995295D01*
X170833333Y-99995295D02*
X170833333Y-100138152D01*
X170833333Y-100138152D02*
X170785714Y-100233390D01*
X170785714Y-100233390D02*
X170738095Y-100281009D01*
X170738095Y-100281009D02*
X170642857Y-100328628D01*
X170642857Y-100328628D02*
X170261905Y-100328628D01*
X171785714Y-100804819D02*
X171214286Y-100804819D01*
X171500000Y-100804819D02*
X171500000Y-99804819D01*
X171500000Y-99804819D02*
X171404762Y-99947676D01*
X171404762Y-99947676D02*
X171309524Y-100042914D01*
X171309524Y-100042914D02*
X171214286Y-100090533D01*
D12*
%TO.C,D1*%
X161530000Y-96200000D02*
X161530000Y-101640000D01*
X161530000Y-100620000D02*
X164470000Y-100620000D01*
X161530000Y-100740000D02*
X164470000Y-100740000D01*
X161530000Y-100860000D02*
X164470000Y-100860000D01*
X161530000Y-101640000D02*
X164470000Y-101640000D01*
X163000000Y-95180000D02*
X163000000Y-96200000D01*
X163000000Y-102660000D02*
X163000000Y-101640000D01*
X164470000Y-96200000D02*
X161530000Y-96200000D01*
X164470000Y-101640000D02*
X164470000Y-96200000D01*
%TO.C,C4*%
X178788748Y-98265000D02*
X179311252Y-98265000D01*
X178788748Y-99735000D02*
X179311252Y-99735000D01*
%TO.C,R4*%
X178832776Y-101477500D02*
X179342224Y-101477500D01*
X178832776Y-102522500D02*
X179342224Y-102522500D01*
%TO.C,J4*%
X152540000Y-102260000D02*
X152540000Y-103860000D01*
X152540000Y-103860000D02*
X154340000Y-103860000D01*
X153810000Y-99390000D02*
X157240000Y-99390000D01*
X154340000Y-103860000D02*
X154340000Y-104800000D01*
X158510000Y-102260000D02*
X158510000Y-103860000D01*
X158510000Y-103860000D02*
X156710000Y-103860000D01*
%TO.C,R2*%
X174832776Y-101477500D02*
X175342224Y-101477500D01*
X174832776Y-102522500D02*
X175342224Y-102522500D01*
%TO.C,U1*%
X172525000Y-93440000D02*
X170575000Y-93440000D01*
X172525000Y-93440000D02*
X174475000Y-93440000D01*
X172525000Y-98560000D02*
X170575000Y-98560000D01*
X172525000Y-98560000D02*
X174475000Y-98560000D01*
X169825000Y-93535000D02*
X169585000Y-93205000D01*
X170065000Y-93205000D01*
X169825000Y-93535000D01*
G36*
X169825000Y-93535000D02*
G01*
X169585000Y-93205000D01*
X170065000Y-93205000D01*
X169825000Y-93535000D01*
G37*
%TO.C,C1*%
X170090302Y-106685000D02*
X170890302Y-106685000D01*
X170490302Y-106285000D02*
X170490302Y-107085000D01*
X174500000Y-104920000D02*
X174500000Y-113080000D01*
X174540000Y-104920000D02*
X174540000Y-113080000D01*
X174580000Y-104920000D02*
X174580000Y-113080000D01*
X174620000Y-104921000D02*
X174620000Y-113079000D01*
X174660000Y-104923000D02*
X174660000Y-113077000D01*
X174700000Y-104924000D02*
X174700000Y-113076000D01*
X174740000Y-104926000D02*
X174740000Y-113074000D01*
X174780000Y-104929000D02*
X174780000Y-113071000D01*
X174820000Y-104932000D02*
X174820000Y-113068000D01*
X174860000Y-104935000D02*
X174860000Y-113065000D01*
X174900000Y-104939000D02*
X174900000Y-113061000D01*
X174940000Y-104943000D02*
X174940000Y-113057000D01*
X174980000Y-104948000D02*
X174980000Y-113052000D01*
X175020000Y-104952000D02*
X175020000Y-113048000D01*
X175060000Y-104958000D02*
X175060000Y-113042000D01*
X175100000Y-104963000D02*
X175100000Y-113037000D01*
X175140000Y-104970000D02*
X175140000Y-113030000D01*
X175180000Y-104976000D02*
X175180000Y-113024000D01*
X175221000Y-104983000D02*
X175221000Y-113017000D01*
X175261000Y-104990000D02*
X175261000Y-113010000D01*
X175301000Y-104998000D02*
X175301000Y-113002000D01*
X175341000Y-105006000D02*
X175341000Y-112994000D01*
X175381000Y-105015000D02*
X175381000Y-112985000D01*
X175421000Y-105024000D02*
X175421000Y-112976000D01*
X175461000Y-105033000D02*
X175461000Y-112967000D01*
X175501000Y-105043000D02*
X175501000Y-112957000D01*
X175541000Y-105053000D02*
X175541000Y-112947000D01*
X175581000Y-105064000D02*
X175581000Y-112936000D01*
X175621000Y-105075000D02*
X175621000Y-112925000D01*
X175661000Y-105086000D02*
X175661000Y-112914000D01*
X175701000Y-105098000D02*
X175701000Y-112902000D01*
X175741000Y-105111000D02*
X175741000Y-112889000D01*
X175781000Y-105123000D02*
X175781000Y-112877000D01*
X175821000Y-105137000D02*
X175821000Y-112863000D01*
X175861000Y-105150000D02*
X175861000Y-112850000D01*
X175901000Y-105165000D02*
X175901000Y-112835000D01*
X175941000Y-105179000D02*
X175941000Y-112821000D01*
X175981000Y-105195000D02*
X175981000Y-107960000D01*
X175981000Y-110040000D02*
X175981000Y-112805000D01*
X176021000Y-105210000D02*
X176021000Y-107960000D01*
X176021000Y-110040000D02*
X176021000Y-112790000D01*
X176061000Y-105226000D02*
X176061000Y-107960000D01*
X176061000Y-110040000D02*
X176061000Y-112774000D01*
X176101000Y-105243000D02*
X176101000Y-107960000D01*
X176101000Y-110040000D02*
X176101000Y-112757000D01*
X176141000Y-105260000D02*
X176141000Y-107960000D01*
X176141000Y-110040000D02*
X176141000Y-112740000D01*
X176181000Y-105278000D02*
X176181000Y-107960000D01*
X176181000Y-110040000D02*
X176181000Y-112722000D01*
X176221000Y-105296000D02*
X176221000Y-107960000D01*
X176221000Y-110040000D02*
X176221000Y-112704000D01*
X176261000Y-105314000D02*
X176261000Y-107960000D01*
X176261000Y-110040000D02*
X176261000Y-112686000D01*
X176301000Y-105334000D02*
X176301000Y-107960000D01*
X176301000Y-110040000D02*
X176301000Y-112666000D01*
X176341000Y-105353000D02*
X176341000Y-107960000D01*
X176341000Y-110040000D02*
X176341000Y-112647000D01*
X176381000Y-105373000D02*
X176381000Y-107960000D01*
X176381000Y-110040000D02*
X176381000Y-112627000D01*
X176421000Y-105394000D02*
X176421000Y-107960000D01*
X176421000Y-110040000D02*
X176421000Y-112606000D01*
X176461000Y-105416000D02*
X176461000Y-107960000D01*
X176461000Y-110040000D02*
X176461000Y-112584000D01*
X176501000Y-105438000D02*
X176501000Y-107960000D01*
X176501000Y-110040000D02*
X176501000Y-112562000D01*
X176541000Y-105460000D02*
X176541000Y-107960000D01*
X176541000Y-110040000D02*
X176541000Y-112540000D01*
X176581000Y-105483000D02*
X176581000Y-107960000D01*
X176581000Y-110040000D02*
X176581000Y-112517000D01*
X176621000Y-105507000D02*
X176621000Y-107960000D01*
X176621000Y-110040000D02*
X176621000Y-112493000D01*
X176661000Y-105531000D02*
X176661000Y-107960000D01*
X176661000Y-110040000D02*
X176661000Y-112469000D01*
X176701000Y-105556000D02*
X176701000Y-107960000D01*
X176701000Y-110040000D02*
X176701000Y-112444000D01*
X176741000Y-105582000D02*
X176741000Y-107960000D01*
X176741000Y-110040000D02*
X176741000Y-112418000D01*
X176781000Y-105608000D02*
X176781000Y-107960000D01*
X176781000Y-110040000D02*
X176781000Y-112392000D01*
X176821000Y-105635000D02*
X176821000Y-107960000D01*
X176821000Y-110040000D02*
X176821000Y-112365000D01*
X176861000Y-105662000D02*
X176861000Y-107960000D01*
X176861000Y-110040000D02*
X176861000Y-112338000D01*
X176901000Y-105691000D02*
X176901000Y-107960000D01*
X176901000Y-110040000D02*
X176901000Y-112309000D01*
X176941000Y-105720000D02*
X176941000Y-107960000D01*
X176941000Y-110040000D02*
X176941000Y-112280000D01*
X176981000Y-105750000D02*
X176981000Y-107960000D01*
X176981000Y-110040000D02*
X176981000Y-112250000D01*
X177021000Y-105780000D02*
X177021000Y-107960000D01*
X177021000Y-110040000D02*
X177021000Y-112220000D01*
X177061000Y-105811000D02*
X177061000Y-107960000D01*
X177061000Y-110040000D02*
X177061000Y-112189000D01*
X177101000Y-105844000D02*
X177101000Y-107960000D01*
X177101000Y-110040000D02*
X177101000Y-112156000D01*
X177141000Y-105876000D02*
X177141000Y-107960000D01*
X177141000Y-110040000D02*
X177141000Y-112124000D01*
X177181000Y-105910000D02*
X177181000Y-107960000D01*
X177181000Y-110040000D02*
X177181000Y-112090000D01*
X177221000Y-105945000D02*
X177221000Y-107960000D01*
X177221000Y-110040000D02*
X177221000Y-112055000D01*
X177261000Y-105981000D02*
X177261000Y-107960000D01*
X177261000Y-110040000D02*
X177261000Y-112019000D01*
X177301000Y-106017000D02*
X177301000Y-107960000D01*
X177301000Y-110040000D02*
X177301000Y-111983000D01*
X177341000Y-106055000D02*
X177341000Y-107960000D01*
X177341000Y-110040000D02*
X177341000Y-111945000D01*
X177381000Y-106093000D02*
X177381000Y-107960000D01*
X177381000Y-110040000D02*
X177381000Y-111907000D01*
X177421000Y-106133000D02*
X177421000Y-107960000D01*
X177421000Y-110040000D02*
X177421000Y-111867000D01*
X177461000Y-106174000D02*
X177461000Y-107960000D01*
X177461000Y-110040000D02*
X177461000Y-111826000D01*
X177501000Y-106216000D02*
X177501000Y-107960000D01*
X177501000Y-110040000D02*
X177501000Y-111784000D01*
X177541000Y-106259000D02*
X177541000Y-107960000D01*
X177541000Y-110040000D02*
X177541000Y-111741000D01*
X177581000Y-106303000D02*
X177581000Y-107960000D01*
X177581000Y-110040000D02*
X177581000Y-111697000D01*
X177621000Y-106349000D02*
X177621000Y-107960000D01*
X177621000Y-110040000D02*
X177621000Y-111651000D01*
X177661000Y-106396000D02*
X177661000Y-107960000D01*
X177661000Y-110040000D02*
X177661000Y-111604000D01*
X177701000Y-106444000D02*
X177701000Y-107960000D01*
X177701000Y-110040000D02*
X177701000Y-111556000D01*
X177741000Y-106495000D02*
X177741000Y-107960000D01*
X177741000Y-110040000D02*
X177741000Y-111505000D01*
X177781000Y-106546000D02*
X177781000Y-107960000D01*
X177781000Y-110040000D02*
X177781000Y-111454000D01*
X177821000Y-106600000D02*
X177821000Y-107960000D01*
X177821000Y-110040000D02*
X177821000Y-111400000D01*
X177861000Y-106655000D02*
X177861000Y-107960000D01*
X177861000Y-110040000D02*
X177861000Y-111345000D01*
X177901000Y-106713000D02*
X177901000Y-107960000D01*
X177901000Y-110040000D02*
X177901000Y-111287000D01*
X177941000Y-106772000D02*
X177941000Y-107960000D01*
X177941000Y-110040000D02*
X177941000Y-111228000D01*
X177981000Y-106834000D02*
X177981000Y-107960000D01*
X177981000Y-110040000D02*
X177981000Y-111166000D01*
X178021000Y-106898000D02*
X178021000Y-107960000D01*
X178021000Y-110040000D02*
X178021000Y-111102000D01*
X178061000Y-106966000D02*
X178061000Y-111034000D01*
X178101000Y-107036000D02*
X178101000Y-110964000D01*
X178141000Y-107110000D02*
X178141000Y-110890000D01*
X178181000Y-107187000D02*
X178181000Y-110813000D01*
X178221000Y-107269000D02*
X178221000Y-110731000D01*
X178261000Y-107355000D02*
X178261000Y-110645000D01*
X178301000Y-107448000D02*
X178301000Y-110552000D01*
X178341000Y-107547000D02*
X178341000Y-110453000D01*
X178381000Y-107654000D02*
X178381000Y-110346000D01*
X178421000Y-107771000D02*
X178421000Y-110229000D01*
X178461000Y-107902000D02*
X178461000Y-110098000D01*
X178501000Y-108052000D02*
X178501000Y-109948000D01*
X178541000Y-108232000D02*
X178541000Y-109768000D01*
X178581000Y-108467000D02*
X178581000Y-109533000D01*
X178620000Y-109000000D02*
G75*
G02*
X170380000Y-109000000I-4120000J0D01*
G01*
X170380000Y-109000000D02*
G75*
G02*
X178620000Y-109000000I4120000J0D01*
G01*
%TO.C,J2*%
X157290000Y-108590000D02*
X157290000Y-111410000D01*
X157290000Y-108590000D02*
X158990000Y-107290000D01*
X157290000Y-111410000D02*
X158990000Y-112710000D01*
X158990000Y-107290000D02*
X167710000Y-107290000D01*
X158990000Y-112710000D02*
X167710000Y-112710000D01*
X167710000Y-107290000D02*
X167710000Y-112710000D01*
%TO.C,TP1*%
X183100000Y-95100000D02*
X183100000Y-98900000D01*
X183100000Y-98900000D02*
X184900000Y-98900000D01*
X184900000Y-95100000D02*
X183100000Y-95100000D01*
X184900000Y-98900000D02*
X184900000Y-95100000D01*
%TO.C,TP2*%
X169100000Y-87100000D02*
X169100000Y-88900000D01*
X169100000Y-88900000D02*
X172900000Y-88900000D01*
X172900000Y-87100000D02*
X169100000Y-87100000D01*
X172900000Y-88900000D02*
X172900000Y-87100000D01*
D13*
%TO.C,L1*%
X178000000Y-90800000D02*
X178000000Y-90000000D01*
D14*
X180000000Y-93300000D02*
X180000000Y-93300000D01*
X180000000Y-93400000D02*
X180000000Y-93400000D01*
D13*
X182000000Y-90800000D02*
X182000000Y-90000000D01*
D14*
X180000000Y-93300000D02*
G75*
G02*
X180000000Y-93400000I0J-50000D01*
G01*
X180000000Y-93400000D02*
G75*
G02*
X180000000Y-93300000I0J50000D01*
G01*
D12*
%TO.C,R3*%
X178832776Y-95477500D02*
X179342224Y-95477500D01*
X178832776Y-96522500D02*
X179342224Y-96522500D01*
%TO.C,C2*%
X166991233Y-101490000D02*
X167283767Y-101490000D01*
X166991233Y-102510000D02*
X167283767Y-102510000D01*
%TO.C,J1*%
X181290000Y-102290000D02*
X186710000Y-102290000D01*
X181290000Y-111010000D02*
X181290000Y-102290000D01*
X182590000Y-112710000D02*
X181290000Y-111010000D01*
X182590000Y-112710000D02*
X185410000Y-112710000D01*
X185410000Y-112710000D02*
X186710000Y-111010000D01*
X186710000Y-111010000D02*
X186710000Y-102290000D01*
%TO.C,J3*%
X152540000Y-90660000D02*
X152540000Y-92260000D01*
X152540000Y-92260000D02*
X154340000Y-92260000D01*
X153810000Y-87790000D02*
X157240000Y-87790000D01*
X154340000Y-92260000D02*
X154340000Y-93200000D01*
X158510000Y-90660000D02*
X158510000Y-92260000D01*
X158510000Y-92260000D02*
X156710000Y-92260000D01*
%TO.C,R1*%
X170772936Y-101265000D02*
X171227064Y-101265000D01*
X170772936Y-102735000D02*
X171227064Y-102735000D01*
%TD*%
%LPC*%
D15*
%TO.C,D1*%
X163000000Y-104000000D03*
D16*
X163000000Y-93840000D03*
%TD*%
D17*
%TO.C,C4*%
X178100000Y-99000000D03*
X180000000Y-99000000D03*
%TD*%
D18*
%TO.C,R4*%
X178175000Y-102000000D03*
X180000000Y-102000000D03*
%TD*%
D19*
%TO.C,J4*%
X154900000Y-103950000D03*
X156150000Y-103950000D03*
D20*
X153050000Y-100600000D03*
X158000000Y-100600000D03*
%TD*%
D21*
%TO.C,H1*%
X149000000Y-86000000D03*
%TD*%
D18*
%TO.C,R2*%
X174175000Y-102000000D03*
X176000000Y-102000000D03*
%TD*%
D21*
%TO.C,H4*%
X191000000Y-86000000D03*
%TD*%
D22*
%TO.C,U1*%
X170050000Y-94095000D03*
X170050000Y-95365000D03*
X170050000Y-96635000D03*
X170050000Y-97905000D03*
X175000000Y-97905000D03*
X175000000Y-96635000D03*
X175000000Y-95365000D03*
X175000000Y-94095000D03*
%TD*%
D21*
%TO.C,H2*%
X149000000Y-114000000D03*
%TD*%
D23*
%TO.C,C1*%
X172000000Y-109000000D03*
D24*
X177000000Y-109000000D03*
%TD*%
D25*
%TO.C,J2*%
X160000000Y-110000000D03*
D26*
X165000000Y-110000000D03*
%TD*%
D27*
%TO.C,TP1*%
X184000000Y-96000000D03*
X184000000Y-98000000D03*
%TD*%
%TO.C,TP2*%
X170000000Y-88000000D03*
X172000000Y-88000000D03*
%TD*%
D28*
%TO.C,L1*%
X180000000Y-92000000D03*
X180000000Y-88800000D03*
%TD*%
D18*
%TO.C,R3*%
X178175000Y-96000000D03*
X180000000Y-96000000D03*
%TD*%
D29*
%TO.C,C2*%
X166275000Y-102000000D03*
X168000000Y-102000000D03*
%TD*%
D30*
%TO.C,J1*%
X184000000Y-110000000D03*
D31*
X184000000Y-105000000D03*
%TD*%
D21*
%TO.C,H3*%
X191000000Y-114000000D03*
%TD*%
D19*
%TO.C,J3*%
X154900000Y-92350000D03*
X156150000Y-92350000D03*
D20*
X153050000Y-89000000D03*
X158000000Y-89000000D03*
%TD*%
D32*
%TO.C,R1*%
X170000000Y-102000000D03*
X172000000Y-102000000D03*
%TD*%
%LPD*%
M02*
