%TF.GenerationSoftware,KiCad,Pcbnew,9.0.4*%
%TF.CreationDate,2026-02-06T21:39:12-06:00*%
%TF.ProjectId,Onboarding,4f6e626f-6172-4646-996e-672e6b696361,rev?*%
%TF.SameCoordinates,Original*%
%TF.FileFunction,Legend,Top*%
%TF.FilePolarity,Positive*%
%FSLAX46Y46*%
G04 Gerber Fmt 4.6, Leading zero omitted, Abs format (unit mm)*
G04 Created by KiCad (PCBNEW 9.0.4) date 2026-02-06 21:39:12*
%MOMM*%
%LPD*%
G01*
G04 APERTURE LIST*
G04 Aperture macros list*
%AMRoundRect*
0 Rectangle with rounded corners*
0 $1 Rounding radius*
0 $2 $3 $4 $5 $6 $7 $8 $9 X,Y pos of 4 corners*
0 Add a 4 corners polygon primitive as box body*
4,1,4,$2,$3,$4,$5,$6,$7,$8,$9,$2,$3,0*
0 Add four circle primitives for the rounded corners*
1,1,$1+$1,$2,$3*
1,1,$1+$1,$4,$5*
1,1,$1+$1,$6,$7*
1,1,$1+$1,$8,$9*
0 Add four rect primitives between the rounded corners*
20,1,$1+$1,$2,$3,$4,$5,0*
20,1,$1+$1,$4,$5,$6,$7,0*
20,1,$1+$1,$6,$7,$8,$9,0*
20,1,$1+$1,$8,$9,$2,$3,0*%
G04 Aperture macros list end*
%ADD10C,0.150000*%
%ADD11C,0.254000*%
%ADD12C,0.120000*%
%ADD13C,0.200000*%
%ADD14C,0.100000*%
%ADD15RoundRect,0.237500X-0.250000X-0.237500X0.250000X-0.237500X0.250000X0.237500X-0.250000X0.237500X0*%
%ADD16RoundRect,0.250000X0.550000X-0.550000X0.550000X0.550000X-0.550000X0.550000X-0.550000X-0.550000X0*%
%ADD17C,1.600000*%
%ADD18RoundRect,0.237500X0.300000X0.237500X-0.300000X0.237500X-0.300000X-0.237500X0.300000X-0.237500X0*%
%ADD19C,1.400000*%
%ADD20RoundRect,0.150000X0.700000X-0.150000X0.700000X0.150000X-0.700000X0.150000X-0.700000X-0.150000X0*%
%ADD21RoundRect,0.250000X1.150000X-0.250000X1.150000X0.250000X-1.150000X0.250000X-1.150000X-0.250000X0*%
%ADD22C,2.200000*%
%ADD23RoundRect,0.250000X-0.450000X0.350000X-0.450000X-0.350000X0.450000X-0.350000X0.450000X0.350000X0*%
%ADD24RoundRect,0.150000X0.825000X0.150000X-0.825000X0.150000X-0.825000X-0.150000X0.825000X-0.150000X0*%
%ADD25R,1.200000X0.750000*%
%ADD26R,1.520000X10.160000*%
%ADD27RoundRect,0.250000X-0.250000X-0.475000X0.250000X-0.475000X0.250000X0.475000X-0.250000X0.475000X0*%
%ADD28C,4.000000*%
%ADD29RoundRect,0.760000X1.140000X-1.140000X1.140000X1.140000X-1.140000X1.140000X-1.140000X-1.140000X0*%
%ADD30C,3.800000*%
%ADD31RoundRect,0.760000X-1.140000X-1.140000X1.140000X-1.140000X1.140000X1.140000X-1.140000X1.140000X0*%
%ADD32RoundRect,0.237500X0.250000X0.237500X-0.250000X0.237500X-0.250000X-0.237500X0.250000X-0.237500X0*%
G04 APERTURE END LIST*
D10*
X172420833Y-101024819D02*
X172087500Y-100548628D01*
X171849405Y-101024819D02*
X171849405Y-100024819D01*
X171849405Y-100024819D02*
X172230357Y-100024819D01*
X172230357Y-100024819D02*
X172325595Y-100072438D01*
X172325595Y-100072438D02*
X172373214Y-100120057D01*
X172373214Y-100120057D02*
X172420833Y-100215295D01*
X172420833Y-100215295D02*
X172420833Y-100358152D01*
X172420833Y-100358152D02*
X172373214Y-100453390D01*
X172373214Y-100453390D02*
X172325595Y-100501009D01*
X172325595Y-100501009D02*
X172230357Y-100548628D01*
X172230357Y-100548628D02*
X171849405Y-100548628D01*
X172801786Y-100120057D02*
X172849405Y-100072438D01*
X172849405Y-100072438D02*
X172944643Y-100024819D01*
X172944643Y-100024819D02*
X173182738Y-100024819D01*
X173182738Y-100024819D02*
X173277976Y-100072438D01*
X173277976Y-100072438D02*
X173325595Y-100120057D01*
X173325595Y-100120057D02*
X173373214Y-100215295D01*
X173373214Y-100215295D02*
X173373214Y-100310533D01*
X173373214Y-100310533D02*
X173325595Y-100453390D01*
X173325595Y-100453390D02*
X172754167Y-101024819D01*
X172754167Y-101024819D02*
X173373214Y-101024819D01*
X165609580Y-94666666D02*
X165657200Y-94714285D01*
X165657200Y-94714285D02*
X165704819Y-94857142D01*
X165704819Y-94857142D02*
X165704819Y-94952380D01*
X165704819Y-94952380D02*
X165657200Y-95095237D01*
X165657200Y-95095237D02*
X165561961Y-95190475D01*
X165561961Y-95190475D02*
X165466723Y-95238094D01*
X165466723Y-95238094D02*
X165276247Y-95285713D01*
X165276247Y-95285713D02*
X165133390Y-95285713D01*
X165133390Y-95285713D02*
X164942914Y-95238094D01*
X164942914Y-95238094D02*
X164847676Y-95190475D01*
X164847676Y-95190475D02*
X164752438Y-95095237D01*
X164752438Y-95095237D02*
X164704819Y-94952380D01*
X164704819Y-94952380D02*
X164704819Y-94857142D01*
X164704819Y-94857142D02*
X164752438Y-94714285D01*
X164752438Y-94714285D02*
X164800057Y-94666666D01*
X165704819Y-93714285D02*
X165704819Y-94285713D01*
X165704819Y-93999999D02*
X164704819Y-93999999D01*
X164704819Y-93999999D02*
X164847676Y-94095237D01*
X164847676Y-94095237D02*
X164942914Y-94190475D01*
X164942914Y-94190475D02*
X164990533Y-94285713D01*
X163195833Y-107789580D02*
X163148214Y-107837200D01*
X163148214Y-107837200D02*
X163005357Y-107884819D01*
X163005357Y-107884819D02*
X162910119Y-107884819D01*
X162910119Y-107884819D02*
X162767262Y-107837200D01*
X162767262Y-107837200D02*
X162672024Y-107741961D01*
X162672024Y-107741961D02*
X162624405Y-107646723D01*
X162624405Y-107646723D02*
X162576786Y-107456247D01*
X162576786Y-107456247D02*
X162576786Y-107313390D01*
X162576786Y-107313390D02*
X162624405Y-107122914D01*
X162624405Y-107122914D02*
X162672024Y-107027676D01*
X162672024Y-107027676D02*
X162767262Y-106932438D01*
X162767262Y-106932438D02*
X162910119Y-106884819D01*
X162910119Y-106884819D02*
X163005357Y-106884819D01*
X163005357Y-106884819D02*
X163148214Y-106932438D01*
X163148214Y-106932438D02*
X163195833Y-106980057D01*
X163529167Y-106884819D02*
X164148214Y-106884819D01*
X164148214Y-106884819D02*
X163814881Y-107265771D01*
X163814881Y-107265771D02*
X163957738Y-107265771D01*
X163957738Y-107265771D02*
X164052976Y-107313390D01*
X164052976Y-107313390D02*
X164100595Y-107361009D01*
X164100595Y-107361009D02*
X164148214Y-107456247D01*
X164148214Y-107456247D02*
X164148214Y-107694342D01*
X164148214Y-107694342D02*
X164100595Y-107789580D01*
X164100595Y-107789580D02*
X164052976Y-107837200D01*
X164052976Y-107837200D02*
X163957738Y-107884819D01*
X163957738Y-107884819D02*
X163672024Y-107884819D01*
X163672024Y-107884819D02*
X163576786Y-107837200D01*
X163576786Y-107837200D02*
X163529167Y-107789580D01*
X163420833Y-96024819D02*
X163087500Y-95548628D01*
X162849405Y-96024819D02*
X162849405Y-95024819D01*
X162849405Y-95024819D02*
X163230357Y-95024819D01*
X163230357Y-95024819D02*
X163325595Y-95072438D01*
X163325595Y-95072438D02*
X163373214Y-95120057D01*
X163373214Y-95120057D02*
X163420833Y-95215295D01*
X163420833Y-95215295D02*
X163420833Y-95358152D01*
X163420833Y-95358152D02*
X163373214Y-95453390D01*
X163373214Y-95453390D02*
X163325595Y-95501009D01*
X163325595Y-95501009D02*
X163230357Y-95548628D01*
X163230357Y-95548628D02*
X162849405Y-95548628D01*
X164373214Y-96024819D02*
X163801786Y-96024819D01*
X164087500Y-96024819D02*
X164087500Y-95024819D01*
X164087500Y-95024819D02*
X163992262Y-95167676D01*
X163992262Y-95167676D02*
X163897024Y-95262914D01*
X163897024Y-95262914D02*
X163801786Y-95310533D01*
X169654819Y-103161904D02*
X169654819Y-102590476D01*
X170654819Y-102876190D02*
X169654819Y-102876190D01*
X170654819Y-102257142D02*
X169654819Y-102257142D01*
X169654819Y-102257142D02*
X169654819Y-101876190D01*
X169654819Y-101876190D02*
X169702438Y-101780952D01*
X169702438Y-101780952D02*
X169750057Y-101733333D01*
X169750057Y-101733333D02*
X169845295Y-101685714D01*
X169845295Y-101685714D02*
X169988152Y-101685714D01*
X169988152Y-101685714D02*
X170083390Y-101733333D01*
X170083390Y-101733333D02*
X170131009Y-101780952D01*
X170131009Y-101780952D02*
X170178628Y-101876190D01*
X170178628Y-101876190D02*
X170178628Y-102257142D01*
X169750057Y-101304761D02*
X169702438Y-101257142D01*
X169702438Y-101257142D02*
X169654819Y-101161904D01*
X169654819Y-101161904D02*
X169654819Y-100923809D01*
X169654819Y-100923809D02*
X169702438Y-100828571D01*
X169702438Y-100828571D02*
X169750057Y-100780952D01*
X169750057Y-100780952D02*
X169845295Y-100733333D01*
X169845295Y-100733333D02*
X169940533Y-100733333D01*
X169940533Y-100733333D02*
X170083390Y-100780952D01*
X170083390Y-100780952D02*
X170654819Y-101352380D01*
X170654819Y-101352380D02*
X170654819Y-100733333D01*
X160004819Y-117358333D02*
X160719104Y-117358333D01*
X160719104Y-117358333D02*
X160861961Y-117405952D01*
X160861961Y-117405952D02*
X160957200Y-117501190D01*
X160957200Y-117501190D02*
X161004819Y-117644047D01*
X161004819Y-117644047D02*
X161004819Y-117739285D01*
X160004819Y-116977380D02*
X160004819Y-116358333D01*
X160004819Y-116358333D02*
X160385771Y-116691666D01*
X160385771Y-116691666D02*
X160385771Y-116548809D01*
X160385771Y-116548809D02*
X160433390Y-116453571D01*
X160433390Y-116453571D02*
X160481009Y-116405952D01*
X160481009Y-116405952D02*
X160576247Y-116358333D01*
X160576247Y-116358333D02*
X160814342Y-116358333D01*
X160814342Y-116358333D02*
X160909580Y-116405952D01*
X160909580Y-116405952D02*
X160957200Y-116453571D01*
X160957200Y-116453571D02*
X161004819Y-116548809D01*
X161004819Y-116548809D02*
X161004819Y-116834523D01*
X161004819Y-116834523D02*
X160957200Y-116929761D01*
X160957200Y-116929761D02*
X160909580Y-116977380D01*
X167004819Y-117208333D02*
X167719104Y-117208333D01*
X167719104Y-117208333D02*
X167861961Y-117255952D01*
X167861961Y-117255952D02*
X167957200Y-117351190D01*
X167957200Y-117351190D02*
X168004819Y-117494047D01*
X168004819Y-117494047D02*
X168004819Y-117589285D01*
X167338152Y-116303571D02*
X168004819Y-116303571D01*
X166957200Y-116541666D02*
X167671485Y-116779761D01*
X167671485Y-116779761D02*
X167671485Y-116160714D01*
X175738095Y-118304819D02*
X175738095Y-117304819D01*
X175738095Y-117781009D02*
X176309523Y-117781009D01*
X176309523Y-118304819D02*
X176309523Y-117304819D01*
X177214285Y-117638152D02*
X177214285Y-118304819D01*
X176976190Y-117257200D02*
X176738095Y-117971485D01*
X176738095Y-117971485D02*
X177357142Y-117971485D01*
X148738095Y-118304819D02*
X148738095Y-117304819D01*
X148738095Y-117781009D02*
X149309523Y-117781009D01*
X149309523Y-118304819D02*
X149309523Y-117304819D01*
X150309523Y-118304819D02*
X149738095Y-118304819D01*
X150023809Y-118304819D02*
X150023809Y-117304819D01*
X150023809Y-117304819D02*
X149928571Y-117447676D01*
X149928571Y-117447676D02*
X149833333Y-117542914D01*
X149833333Y-117542914D02*
X149738095Y-117590533D01*
X159604819Y-101666666D02*
X159128628Y-101999999D01*
X159604819Y-102238094D02*
X158604819Y-102238094D01*
X158604819Y-102238094D02*
X158604819Y-101857142D01*
X158604819Y-101857142D02*
X158652438Y-101761904D01*
X158652438Y-101761904D02*
X158700057Y-101714285D01*
X158700057Y-101714285D02*
X158795295Y-101666666D01*
X158795295Y-101666666D02*
X158938152Y-101666666D01*
X158938152Y-101666666D02*
X159033390Y-101714285D01*
X159033390Y-101714285D02*
X159081009Y-101761904D01*
X159081009Y-101761904D02*
X159128628Y-101857142D01*
X159128628Y-101857142D02*
X159128628Y-102238094D01*
X158938152Y-100809523D02*
X159604819Y-100809523D01*
X158557200Y-101047618D02*
X159271485Y-101285713D01*
X159271485Y-101285713D02*
X159271485Y-100666666D01*
X162238095Y-104354819D02*
X162238095Y-105164342D01*
X162238095Y-105164342D02*
X162285714Y-105259580D01*
X162285714Y-105259580D02*
X162333333Y-105307200D01*
X162333333Y-105307200D02*
X162428571Y-105354819D01*
X162428571Y-105354819D02*
X162619047Y-105354819D01*
X162619047Y-105354819D02*
X162714285Y-105307200D01*
X162714285Y-105307200D02*
X162761904Y-105259580D01*
X162761904Y-105259580D02*
X162809523Y-105164342D01*
X162809523Y-105164342D02*
X162809523Y-104354819D01*
X163809523Y-105354819D02*
X163238095Y-105354819D01*
X163523809Y-105354819D02*
X163523809Y-104354819D01*
X163523809Y-104354819D02*
X163428571Y-104497676D01*
X163428571Y-104497676D02*
X163333333Y-104592914D01*
X163333333Y-104592914D02*
X163238095Y-104640533D01*
D11*
X171862618Y-105574318D02*
X171862618Y-104304318D01*
X171862618Y-104304318D02*
X172164999Y-104304318D01*
X172164999Y-104304318D02*
X172346428Y-104364794D01*
X172346428Y-104364794D02*
X172467380Y-104485746D01*
X172467380Y-104485746D02*
X172527857Y-104606699D01*
X172527857Y-104606699D02*
X172588333Y-104848603D01*
X172588333Y-104848603D02*
X172588333Y-105030032D01*
X172588333Y-105030032D02*
X172527857Y-105271937D01*
X172527857Y-105271937D02*
X172467380Y-105392889D01*
X172467380Y-105392889D02*
X172346428Y-105513842D01*
X172346428Y-105513842D02*
X172164999Y-105574318D01*
X172164999Y-105574318D02*
X171862618Y-105574318D01*
X173797857Y-105574318D02*
X173072142Y-105574318D01*
X173434999Y-105574318D02*
X173434999Y-104304318D01*
X173434999Y-104304318D02*
X173314047Y-104485746D01*
X173314047Y-104485746D02*
X173193095Y-104606699D01*
X173193095Y-104606699D02*
X173072142Y-104667175D01*
X153718333Y-112074318D02*
X153113571Y-112074318D01*
X153113571Y-112074318D02*
X153113571Y-110804318D01*
X154806905Y-112074318D02*
X154081190Y-112074318D01*
X154444047Y-112074318D02*
X154444047Y-110804318D01*
X154444047Y-110804318D02*
X154323095Y-110985746D01*
X154323095Y-110985746D02*
X154202143Y-111106699D01*
X154202143Y-111106699D02*
X154081190Y-111167175D01*
D10*
X156333333Y-93179580D02*
X156285714Y-93227200D01*
X156285714Y-93227200D02*
X156142857Y-93274819D01*
X156142857Y-93274819D02*
X156047619Y-93274819D01*
X156047619Y-93274819D02*
X155904762Y-93227200D01*
X155904762Y-93227200D02*
X155809524Y-93131961D01*
X155809524Y-93131961D02*
X155761905Y-93036723D01*
X155761905Y-93036723D02*
X155714286Y-92846247D01*
X155714286Y-92846247D02*
X155714286Y-92703390D01*
X155714286Y-92703390D02*
X155761905Y-92512914D01*
X155761905Y-92512914D02*
X155809524Y-92417676D01*
X155809524Y-92417676D02*
X155904762Y-92322438D01*
X155904762Y-92322438D02*
X156047619Y-92274819D01*
X156047619Y-92274819D02*
X156142857Y-92274819D01*
X156142857Y-92274819D02*
X156285714Y-92322438D01*
X156285714Y-92322438D02*
X156333333Y-92370057D01*
X156714286Y-92370057D02*
X156761905Y-92322438D01*
X156761905Y-92322438D02*
X156857143Y-92274819D01*
X156857143Y-92274819D02*
X157095238Y-92274819D01*
X157095238Y-92274819D02*
X157190476Y-92322438D01*
X157190476Y-92322438D02*
X157238095Y-92370057D01*
X157238095Y-92370057D02*
X157285714Y-92465295D01*
X157285714Y-92465295D02*
X157285714Y-92560533D01*
X157285714Y-92560533D02*
X157238095Y-92703390D01*
X157238095Y-92703390D02*
X156666667Y-93274819D01*
X156666667Y-93274819D02*
X157285714Y-93274819D01*
X148738095Y-87804819D02*
X148738095Y-86804819D01*
X148738095Y-87281009D02*
X149309523Y-87281009D01*
X149309523Y-87804819D02*
X149309523Y-86804819D01*
X149738095Y-86900057D02*
X149785714Y-86852438D01*
X149785714Y-86852438D02*
X149880952Y-86804819D01*
X149880952Y-86804819D02*
X150119047Y-86804819D01*
X150119047Y-86804819D02*
X150214285Y-86852438D01*
X150214285Y-86852438D02*
X150261904Y-86900057D01*
X150261904Y-86900057D02*
X150309523Y-86995295D01*
X150309523Y-86995295D02*
X150309523Y-87090533D01*
X150309523Y-87090533D02*
X150261904Y-87233390D01*
X150261904Y-87233390D02*
X149690476Y-87804819D01*
X149690476Y-87804819D02*
X150309523Y-87804819D01*
X145954819Y-99333333D02*
X146669104Y-99333333D01*
X146669104Y-99333333D02*
X146811961Y-99380952D01*
X146811961Y-99380952D02*
X146907200Y-99476190D01*
X146907200Y-99476190D02*
X146954819Y-99619047D01*
X146954819Y-99619047D02*
X146954819Y-99714285D01*
X146954819Y-98333333D02*
X146954819Y-98904761D01*
X146954819Y-98619047D02*
X145954819Y-98619047D01*
X145954819Y-98619047D02*
X146097676Y-98714285D01*
X146097676Y-98714285D02*
X146192914Y-98809523D01*
X146192914Y-98809523D02*
X146240533Y-98904761D01*
X150614700Y-106071428D02*
X150614700Y-104928571D01*
X150614700Y-93071428D02*
X150614700Y-91928571D01*
X151186128Y-92499999D02*
X150043271Y-92499999D01*
X167166666Y-105454819D02*
X167166666Y-106169104D01*
X167166666Y-106169104D02*
X167119047Y-106311961D01*
X167119047Y-106311961D02*
X167023809Y-106407200D01*
X167023809Y-106407200D02*
X166880952Y-106454819D01*
X166880952Y-106454819D02*
X166785714Y-106454819D01*
X167595238Y-105550057D02*
X167642857Y-105502438D01*
X167642857Y-105502438D02*
X167738095Y-105454819D01*
X167738095Y-105454819D02*
X167976190Y-105454819D01*
X167976190Y-105454819D02*
X168071428Y-105502438D01*
X168071428Y-105502438D02*
X168119047Y-105550057D01*
X168119047Y-105550057D02*
X168166666Y-105645295D01*
X168166666Y-105645295D02*
X168166666Y-105740533D01*
X168166666Y-105740533D02*
X168119047Y-105883390D01*
X168119047Y-105883390D02*
X167547619Y-106454819D01*
X167547619Y-106454819D02*
X168166666Y-106454819D01*
X160428571Y-110114700D02*
X161571429Y-110114700D01*
X173428571Y-110114700D02*
X174571429Y-110114700D01*
X174000000Y-110686128D02*
X174000000Y-109543271D01*
X175738095Y-87804819D02*
X175738095Y-86804819D01*
X175738095Y-87281009D02*
X176309523Y-87281009D01*
X176309523Y-87804819D02*
X176309523Y-86804819D01*
X176690476Y-86804819D02*
X177309523Y-86804819D01*
X177309523Y-86804819D02*
X176976190Y-87185771D01*
X176976190Y-87185771D02*
X177119047Y-87185771D01*
X177119047Y-87185771D02*
X177214285Y-87233390D01*
X177214285Y-87233390D02*
X177261904Y-87281009D01*
X177261904Y-87281009D02*
X177309523Y-87376247D01*
X177309523Y-87376247D02*
X177309523Y-87614342D01*
X177309523Y-87614342D02*
X177261904Y-87709580D01*
X177261904Y-87709580D02*
X177214285Y-87757200D01*
X177214285Y-87757200D02*
X177119047Y-87804819D01*
X177119047Y-87804819D02*
X176833333Y-87804819D01*
X176833333Y-87804819D02*
X176738095Y-87757200D01*
X176738095Y-87757200D02*
X176690476Y-87709580D01*
X156333333Y-98884819D02*
X156000000Y-98408628D01*
X155761905Y-98884819D02*
X155761905Y-97884819D01*
X155761905Y-97884819D02*
X156142857Y-97884819D01*
X156142857Y-97884819D02*
X156238095Y-97932438D01*
X156238095Y-97932438D02*
X156285714Y-97980057D01*
X156285714Y-97980057D02*
X156333333Y-98075295D01*
X156333333Y-98075295D02*
X156333333Y-98218152D01*
X156333333Y-98218152D02*
X156285714Y-98313390D01*
X156285714Y-98313390D02*
X156238095Y-98361009D01*
X156238095Y-98361009D02*
X156142857Y-98408628D01*
X156142857Y-98408628D02*
X155761905Y-98408628D01*
X156666667Y-97884819D02*
X157285714Y-97884819D01*
X157285714Y-97884819D02*
X156952381Y-98265771D01*
X156952381Y-98265771D02*
X157095238Y-98265771D01*
X157095238Y-98265771D02*
X157190476Y-98313390D01*
X157190476Y-98313390D02*
X157238095Y-98361009D01*
X157238095Y-98361009D02*
X157285714Y-98456247D01*
X157285714Y-98456247D02*
X157285714Y-98694342D01*
X157285714Y-98694342D02*
X157238095Y-98789580D01*
X157238095Y-98789580D02*
X157190476Y-98837200D01*
X157190476Y-98837200D02*
X157095238Y-98884819D01*
X157095238Y-98884819D02*
X156809524Y-98884819D01*
X156809524Y-98884819D02*
X156714286Y-98837200D01*
X156714286Y-98837200D02*
X156666667Y-98789580D01*
X158254819Y-97361904D02*
X158254819Y-96790476D01*
X159254819Y-97076190D02*
X158254819Y-97076190D01*
X159254819Y-96457142D02*
X158254819Y-96457142D01*
X158254819Y-96457142D02*
X158254819Y-96076190D01*
X158254819Y-96076190D02*
X158302438Y-95980952D01*
X158302438Y-95980952D02*
X158350057Y-95933333D01*
X158350057Y-95933333D02*
X158445295Y-95885714D01*
X158445295Y-95885714D02*
X158588152Y-95885714D01*
X158588152Y-95885714D02*
X158683390Y-95933333D01*
X158683390Y-95933333D02*
X158731009Y-95980952D01*
X158731009Y-95980952D02*
X158778628Y-96076190D01*
X158778628Y-96076190D02*
X158778628Y-96457142D01*
X159254819Y-94933333D02*
X159254819Y-95504761D01*
X159254819Y-95219047D02*
X158254819Y-95219047D01*
X158254819Y-95219047D02*
X158397676Y-95314285D01*
X158397676Y-95314285D02*
X158492914Y-95409523D01*
X158492914Y-95409523D02*
X158540533Y-95504761D01*
D12*
%TO.C,R2*%
X172332776Y-101477500D02*
X172842224Y-101477500D01*
X172332776Y-102522500D02*
X172842224Y-102522500D01*
%TO.C,C1*%
X174620000Y-94500000D02*
G75*
G02*
X166380000Y-94500000I-4120000J0D01*
G01*
X166380000Y-94500000D02*
G75*
G02*
X174620000Y-94500000I4120000J0D01*
G01*
X169967000Y-90420000D02*
X171033000Y-90420000D01*
X169732000Y-90460000D02*
X171268000Y-90460000D01*
X169553000Y-90500000D02*
X171447000Y-90500000D01*
X169403000Y-90540000D02*
X171597000Y-90540000D01*
X169272000Y-90580000D02*
X171728000Y-90580000D01*
X169154000Y-90620000D02*
X171846000Y-90620000D01*
X169047000Y-90660000D02*
X171953000Y-90660000D01*
X168948000Y-90700000D02*
X172052000Y-90700000D01*
X168856000Y-90740000D02*
X172144000Y-90740000D01*
X168769000Y-90780000D02*
X172231000Y-90780000D01*
X168687000Y-90820000D02*
X172313000Y-90820000D01*
X168610000Y-90860000D02*
X172390000Y-90860000D01*
X168536000Y-90900000D02*
X172464000Y-90900000D01*
X168466000Y-90940000D02*
X172534000Y-90940000D01*
X171540000Y-90980000D02*
X172601000Y-90980000D01*
X168399000Y-90980000D02*
X169460000Y-90980000D01*
X171540000Y-91020000D02*
X172665000Y-91020000D01*
X168335000Y-91020000D02*
X169460000Y-91020000D01*
X171540000Y-91060000D02*
X172727000Y-91060000D01*
X168273000Y-91060000D02*
X169460000Y-91060000D01*
X171540000Y-91100000D02*
X172787000Y-91100000D01*
X168213000Y-91100000D02*
X169460000Y-91100000D01*
X171540000Y-91140000D02*
X172844000Y-91140000D01*
X168156000Y-91140000D02*
X169460000Y-91140000D01*
X171540000Y-91180000D02*
X172900000Y-91180000D01*
X168100000Y-91180000D02*
X169460000Y-91180000D01*
X171540000Y-91220000D02*
X172953000Y-91220000D01*
X168047000Y-91220000D02*
X169460000Y-91220000D01*
X171540000Y-91260000D02*
X173005000Y-91260000D01*
X167995000Y-91260000D02*
X169460000Y-91260000D01*
X171540000Y-91300000D02*
X173055000Y-91300000D01*
X167945000Y-91300000D02*
X169460000Y-91300000D01*
X171540000Y-91340000D02*
X173104000Y-91340000D01*
X167896000Y-91340000D02*
X169460000Y-91340000D01*
X171540000Y-91380000D02*
X173151000Y-91380000D01*
X167849000Y-91380000D02*
X169460000Y-91380000D01*
X171540000Y-91420000D02*
X173196000Y-91420000D01*
X167804000Y-91420000D02*
X169460000Y-91420000D01*
X171540000Y-91460000D02*
X173241000Y-91460000D01*
X167759000Y-91460000D02*
X169460000Y-91460000D01*
X171540000Y-91500000D02*
X173284000Y-91500000D01*
X167716000Y-91500000D02*
X169460000Y-91500000D01*
X171540000Y-91540000D02*
X173326000Y-91540000D01*
X167674000Y-91540000D02*
X169460000Y-91540000D01*
X171540000Y-91580000D02*
X173367000Y-91580000D01*
X167633000Y-91580000D02*
X169460000Y-91580000D01*
X171540000Y-91620000D02*
X173406000Y-91620000D01*
X167594000Y-91620000D02*
X169460000Y-91620000D01*
X171540000Y-91660000D02*
X173445000Y-91660000D01*
X167555000Y-91660000D02*
X169460000Y-91660000D01*
X171540000Y-91700000D02*
X173482000Y-91700000D01*
X167518000Y-91700000D02*
X169460000Y-91700000D01*
X171540000Y-91740000D02*
X173519000Y-91740000D01*
X167481000Y-91740000D02*
X169460000Y-91740000D01*
X171540000Y-91780000D02*
X173555000Y-91780000D01*
X167445000Y-91780000D02*
X169460000Y-91780000D01*
X171540000Y-91820000D02*
X173589000Y-91820000D01*
X167411000Y-91820000D02*
X169460000Y-91820000D01*
X171540000Y-91860000D02*
X173623000Y-91860000D01*
X167377000Y-91860000D02*
X169460000Y-91860000D01*
X171540000Y-91900000D02*
X173656000Y-91900000D01*
X167344000Y-91900000D02*
X169460000Y-91900000D01*
X171540000Y-91940000D02*
X173688000Y-91940000D01*
X167312000Y-91940000D02*
X169460000Y-91940000D01*
X171540000Y-91980000D02*
X173719000Y-91980000D01*
X167281000Y-91980000D02*
X169460000Y-91980000D01*
X171540000Y-92020000D02*
X173750000Y-92020000D01*
X167250000Y-92020000D02*
X169460000Y-92020000D01*
X171540000Y-92060000D02*
X173780000Y-92060000D01*
X167220000Y-92060000D02*
X169460000Y-92060000D01*
X171540000Y-92100000D02*
X173809000Y-92100000D01*
X167191000Y-92100000D02*
X169460000Y-92100000D01*
X171540000Y-92140000D02*
X173837000Y-92140000D01*
X167163000Y-92140000D02*
X169460000Y-92140000D01*
X171540000Y-92180000D02*
X173865000Y-92180000D01*
X167135000Y-92180000D02*
X169460000Y-92180000D01*
X171540000Y-92220000D02*
X173892000Y-92220000D01*
X167108000Y-92220000D02*
X169460000Y-92220000D01*
X171540000Y-92260000D02*
X173918000Y-92260000D01*
X167082000Y-92260000D02*
X169460000Y-92260000D01*
X171540000Y-92300000D02*
X173943000Y-92300000D01*
X167057000Y-92300000D02*
X169460000Y-92300000D01*
X171540000Y-92340000D02*
X173968000Y-92340000D01*
X167032000Y-92340000D02*
X169460000Y-92340000D01*
X171540000Y-92380000D02*
X173993000Y-92380000D01*
X167007000Y-92380000D02*
X169460000Y-92380000D01*
X171540000Y-92420000D02*
X174016000Y-92420000D01*
X166984000Y-92420000D02*
X169460000Y-92420000D01*
X171540000Y-92460000D02*
X174039000Y-92460000D01*
X166961000Y-92460000D02*
X169460000Y-92460000D01*
X171540000Y-92500000D02*
X174062000Y-92500000D01*
X166938000Y-92500000D02*
X169460000Y-92500000D01*
X171540000Y-92540000D02*
X174084000Y-92540000D01*
X166916000Y-92540000D02*
X169460000Y-92540000D01*
X171540000Y-92580000D02*
X174105000Y-92580000D01*
X166895000Y-92580000D02*
X169460000Y-92580000D01*
X171540000Y-92620000D02*
X174126000Y-92620000D01*
X166874000Y-92620000D02*
X169460000Y-92620000D01*
X171540000Y-92660000D02*
X174146000Y-92660000D01*
X166854000Y-92660000D02*
X169460000Y-92660000D01*
X171540000Y-92700000D02*
X174166000Y-92700000D01*
X166834000Y-92700000D02*
X169460000Y-92700000D01*
X171540000Y-92740000D02*
X174185000Y-92740000D01*
X166815000Y-92740000D02*
X169460000Y-92740000D01*
X171540000Y-92780000D02*
X174204000Y-92780000D01*
X166796000Y-92780000D02*
X169460000Y-92780000D01*
X171540000Y-92820000D02*
X174222000Y-92820000D01*
X166778000Y-92820000D02*
X169460000Y-92820000D01*
X171540000Y-92860000D02*
X174240000Y-92860000D01*
X166760000Y-92860000D02*
X169460000Y-92860000D01*
X171540000Y-92900000D02*
X174257000Y-92900000D01*
X166743000Y-92900000D02*
X169460000Y-92900000D01*
X171540000Y-92940000D02*
X174273000Y-92940000D01*
X166727000Y-92940000D02*
X169460000Y-92940000D01*
X171540000Y-92980000D02*
X174289000Y-92980000D01*
X166711000Y-92980000D02*
X169460000Y-92980000D01*
X171540000Y-93020000D02*
X174305000Y-93020000D01*
X166695000Y-93020000D02*
X169460000Y-93020000D01*
X166680000Y-93060000D02*
X174320000Y-93060000D01*
X166665000Y-93100000D02*
X174335000Y-93100000D01*
X166651000Y-93140000D02*
X174349000Y-93140000D01*
X166637000Y-93180000D02*
X174363000Y-93180000D01*
X166624000Y-93220000D02*
X174376000Y-93220000D01*
X166611000Y-93260000D02*
X174389000Y-93260000D01*
X166599000Y-93300000D02*
X174401000Y-93300000D01*
X166587000Y-93340000D02*
X174413000Y-93340000D01*
X166575000Y-93380000D02*
X174425000Y-93380000D01*
X166564000Y-93420000D02*
X174436000Y-93420000D01*
X166553000Y-93460000D02*
X174447000Y-93460000D01*
X166543000Y-93500000D02*
X174457000Y-93500000D01*
X166533000Y-93540000D02*
X174467000Y-93540000D01*
X166524000Y-93580000D02*
X174476000Y-93580000D01*
X166515000Y-93620000D02*
X174485000Y-93620000D01*
X166507000Y-93660000D02*
X174493000Y-93660000D01*
X166498000Y-93700000D02*
X174502000Y-93700000D01*
X166491000Y-93740000D02*
X174509000Y-93740000D01*
X166483000Y-93780000D02*
X174517000Y-93780000D01*
X166477000Y-93820000D02*
X174523000Y-93820000D01*
X166470000Y-93860000D02*
X174530000Y-93860000D01*
X166464000Y-93900000D02*
X174536000Y-93900000D01*
X166458000Y-93940000D02*
X174542000Y-93940000D01*
X166453000Y-93980000D02*
X174547000Y-93980000D01*
X166448000Y-94020000D02*
X174552000Y-94020000D01*
X166444000Y-94060000D02*
X174556000Y-94060000D01*
X166439000Y-94100000D02*
X174561000Y-94100000D01*
X166436000Y-94140000D02*
X174564000Y-94140000D01*
X166432000Y-94180000D02*
X174568000Y-94180000D01*
X166430000Y-94220000D02*
X174570000Y-94220000D01*
X166427000Y-94260000D02*
X174573000Y-94260000D01*
X166425000Y-94300000D02*
X174575000Y-94300000D01*
X166423000Y-94340000D02*
X174577000Y-94340000D01*
X166422000Y-94380000D02*
X174578000Y-94380000D01*
X166421000Y-94420000D02*
X174579000Y-94420000D01*
X166420000Y-94460000D02*
X174580000Y-94460000D01*
X166420000Y-94500000D02*
X174580000Y-94500000D01*
X167785000Y-98509698D02*
X168585000Y-98509698D01*
X168185000Y-98909698D02*
X168185000Y-98109698D01*
%TO.C,C3*%
X163508767Y-105490000D02*
X163216233Y-105490000D01*
X163508767Y-106510000D02*
X163216233Y-106510000D01*
%TO.C,R1*%
X163332776Y-97522500D02*
X163842224Y-97522500D01*
X163332776Y-96477500D02*
X163842224Y-96477500D01*
%TO.C,TP2*%
X169400000Y-100100000D02*
X167600000Y-100100000D01*
X167600000Y-100100000D02*
X167600000Y-103900000D01*
X169400000Y-103900000D02*
X169400000Y-100100000D01*
X167600000Y-103900000D02*
X169400000Y-103900000D01*
%TO.C,J3*%
X164810000Y-120010000D02*
X166410000Y-120010000D01*
X166410000Y-120010000D02*
X166410000Y-118210000D01*
X161940000Y-118740000D02*
X161940000Y-115310000D01*
X166410000Y-118210000D02*
X167350000Y-118210000D01*
X164810000Y-114040000D02*
X166410000Y-114040000D01*
X166410000Y-114040000D02*
X166410000Y-115840000D01*
%TO.C,J4*%
X171810000Y-119860000D02*
X173410000Y-119860000D01*
X173410000Y-119860000D02*
X173410000Y-118060000D01*
X168940000Y-118590000D02*
X168940000Y-115160000D01*
X173410000Y-118060000D02*
X174350000Y-118060000D01*
X171810000Y-113890000D02*
X173410000Y-113890000D01*
X173410000Y-113890000D02*
X173410000Y-115690000D01*
%TO.C,R4*%
X158235000Y-101272936D02*
X158235000Y-101727064D01*
X156765000Y-101272936D02*
X156765000Y-101727064D01*
%TO.C,U1*%
X163000000Y-104060000D02*
X164950000Y-104060000D01*
X163000000Y-104060000D02*
X161050000Y-104060000D01*
X163000000Y-98940000D02*
X164950000Y-98940000D01*
X163000000Y-98940000D02*
X161050000Y-98940000D01*
X165940000Y-104295000D02*
X165460000Y-104295000D01*
X165700000Y-103965000D01*
X165940000Y-104295000D01*
G36*
X165940000Y-104295000D02*
G01*
X165460000Y-104295000D01*
X165700000Y-103965000D01*
X165940000Y-104295000D01*
G37*
D13*
%TO.C,D1*%
X175100000Y-105775000D02*
X171450000Y-105775000D01*
X174150000Y-104225000D02*
X171450000Y-104225000D01*
%TO.C,L1*%
X148340000Y-105975000D02*
X159520000Y-105975000D01*
X148340000Y-117025000D02*
X159520000Y-117025000D01*
D14*
X147730000Y-111500000D02*
X147730000Y-111500000D01*
X147830000Y-111500000D02*
X147830000Y-111500000D01*
X147830000Y-111500000D02*
G75*
G02*
X147730000Y-111500000I-50000J0D01*
G01*
X147730000Y-111500000D02*
G75*
G02*
X147830000Y-111500000I50000J0D01*
G01*
D12*
%TO.C,C2*%
X156238748Y-95235000D02*
X156761252Y-95235000D01*
X156238748Y-93765000D02*
X156761252Y-93765000D01*
%TO.C,J1*%
X147790000Y-93790000D02*
X153210000Y-93790000D01*
X153210000Y-102510000D02*
X153210000Y-93790000D01*
X147790000Y-102510000D02*
X147790000Y-93790000D01*
X151910000Y-104210000D02*
X153210000Y-102510000D01*
X149090000Y-104210000D02*
X147790000Y-102510000D01*
X149090000Y-104210000D02*
X151910000Y-104210000D01*
%TO.C,J2*%
X172710000Y-107290000D02*
X172710000Y-112710000D01*
X163990000Y-112710000D02*
X172710000Y-112710000D01*
X163990000Y-107290000D02*
X172710000Y-107290000D01*
X162290000Y-111410000D02*
X163990000Y-112710000D01*
X162290000Y-108590000D02*
X163990000Y-107290000D01*
X162290000Y-108590000D02*
X162290000Y-111410000D01*
%TO.C,R3*%
X156754724Y-96477500D02*
X156245276Y-96477500D01*
X156754724Y-97522500D02*
X156245276Y-97522500D01*
%TO.C,TP1*%
X159600000Y-97900000D02*
X161400000Y-97900000D01*
X161400000Y-97900000D02*
X161400000Y-94100000D01*
X159600000Y-94100000D02*
X159600000Y-97900000D01*
X161400000Y-94100000D02*
X159600000Y-94100000D01*
%TD*%
%LPC*%
D15*
%TO.C,R2*%
X171675000Y-102000000D03*
X173500000Y-102000000D03*
%TD*%
D16*
%TO.C,C1*%
X170500000Y-97000000D03*
D17*
X170500000Y-92000000D03*
%TD*%
D18*
%TO.C,C3*%
X162500000Y-106000000D03*
X164225000Y-106000000D03*
%TD*%
D15*
%TO.C,R1*%
X164500000Y-97000000D03*
X162675000Y-97000000D03*
%TD*%
D19*
%TO.C,TP2*%
X168500000Y-101000000D03*
X168500000Y-103000000D03*
%TD*%
D20*
%TO.C,J3*%
X166500000Y-117650000D03*
X166500000Y-116400000D03*
D21*
X163150000Y-119500000D03*
X163150000Y-114550000D03*
%TD*%
D20*
%TO.C,J4*%
X173500000Y-117500000D03*
X173500000Y-116250000D03*
D21*
X170150000Y-119350000D03*
X170150000Y-114400000D03*
%TD*%
D22*
%TO.C,H4*%
X176500000Y-121000000D03*
%TD*%
%TO.C,H1*%
X149500000Y-121000000D03*
%TD*%
D23*
%TO.C,R4*%
X157500000Y-100500000D03*
X157500000Y-102500000D03*
%TD*%
D24*
%TO.C,U1*%
X165475000Y-103405000D03*
X165475000Y-102135000D03*
X165475000Y-100865000D03*
X165475000Y-99595000D03*
X160525000Y-99595000D03*
X160525000Y-100865000D03*
X160525000Y-102135000D03*
X160525000Y-103405000D03*
%TD*%
D25*
%TO.C,D1*%
X174500000Y-105000000D03*
X171100000Y-105000000D03*
%TD*%
D26*
%TO.C,L1*%
X149360000Y-111500000D03*
X158500000Y-111500000D03*
%TD*%
D27*
%TO.C,C2*%
X157450000Y-94500000D03*
X155550000Y-94500000D03*
%TD*%
D22*
%TO.C,H2*%
X149500000Y-90500000D03*
%TD*%
D28*
%TO.C,J1*%
X150500000Y-96500000D03*
D29*
X150500000Y-101500000D03*
%TD*%
D30*
%TO.C,J2*%
X170000000Y-110000000D03*
D31*
X165000000Y-110000000D03*
%TD*%
D22*
%TO.C,H3*%
X176500000Y-90500000D03*
%TD*%
D32*
%TO.C,R3*%
X155587500Y-97000000D03*
X157412500Y-97000000D03*
%TD*%
D19*
%TO.C,TP1*%
X160500000Y-97000000D03*
X160500000Y-95000000D03*
%TD*%
%LPD*%
M02*
