%TF.GenerationSoftware,KiCad,Pcbnew,9.0.4*%
%TF.CreationDate,2025-10-12T15:21:27-05:00*%
%TF.ProjectId,Onboarding,4f6e626f-6172-4646-996e-672e6b696361,rev?*%
%TF.SameCoordinates,Original*%
%TF.FileFunction,Legend,Bot*%
%TF.FilePolarity,Positive*%
%FSLAX46Y46*%
G04 Gerber Fmt 4.6, Leading zero omitted, Abs format (unit mm)*
G04 Created by KiCad (PCBNEW 9.0.4) date 2025-10-12 15:21:27*
%MOMM*%
%LPD*%
G01*
G04 APERTURE LIST*
G04 Aperture macros list*
%AMRoundRect*
0 Rectangle with rounded corners*
0 $1 Rounding radius*
0 $2 $3 $4 $5 $6 $7 $8 $9 X,Y pos of 4 corners*
0 Add a 4 corners polygon primitive as box body*
4,1,4,$2,$3,$4,$5,$6,$7,$8,$9,$2,$3,0*
0 Add four circle primitives for the rounded corners*
1,1,$1+$1,$2,$3*
1,1,$1+$1,$4,$5*
1,1,$1+$1,$6,$7*
1,1,$1+$1,$8,$9*
0 Add four rect primitives between the rounded corners*
20,1,$1+$1,$2,$3,$4,$5,0*
20,1,$1+$1,$4,$5,$6,$7,0*
20,1,$1+$1,$6,$7,$8,$9,0*
20,1,$1+$1,$8,$9,$2,$3,0*%
G04 Aperture macros list end*
%ADD10C,0.150000*%
%ADD11C,0.120000*%
%ADD12C,1.400000*%
%ADD13RoundRect,0.237500X0.250000X0.237500X-0.250000X0.237500X-0.250000X-0.237500X0.250000X-0.237500X0*%
%ADD14RoundRect,0.760000X1.140000X1.140000X-1.140000X1.140000X-1.140000X-1.140000X1.140000X-1.140000X0*%
%ADD15C,4.000000*%
%ADD16RoundRect,0.249999X0.850001X-0.850001X0.850001X0.850001X-0.850001X0.850001X-0.850001X-0.850001X0*%
%ADD17C,2.200000*%
%ADD18RoundRect,0.237500X-0.237500X0.300000X-0.237500X-0.300000X0.237500X-0.300000X0.237500X0.300000X0*%
%ADD19RoundRect,0.250000X-0.550000X0.550000X-0.550000X-0.550000X0.550000X-0.550000X0.550000X0.550000X0*%
%ADD20C,1.600000*%
%ADD21C,3.800000*%
G04 APERTURE END LIST*
D10*
X81079166Y-100024819D02*
X81412499Y-99548628D01*
X81650594Y-100024819D02*
X81650594Y-99024819D01*
X81650594Y-99024819D02*
X81269642Y-99024819D01*
X81269642Y-99024819D02*
X81174404Y-99072438D01*
X81174404Y-99072438D02*
X81126785Y-99120057D01*
X81126785Y-99120057D02*
X81079166Y-99215295D01*
X81079166Y-99215295D02*
X81079166Y-99358152D01*
X81079166Y-99358152D02*
X81126785Y-99453390D01*
X81126785Y-99453390D02*
X81174404Y-99501009D01*
X81174404Y-99501009D02*
X81269642Y-99548628D01*
X81269642Y-99548628D02*
X81650594Y-99548628D01*
X80222023Y-99358152D02*
X80222023Y-100024819D01*
X80460118Y-98977200D02*
X80698213Y-99691485D01*
X80698213Y-99691485D02*
X80079166Y-99691485D01*
X75429580Y-99195833D02*
X75477200Y-99148214D01*
X75477200Y-99148214D02*
X75524819Y-99005357D01*
X75524819Y-99005357D02*
X75524819Y-98910119D01*
X75524819Y-98910119D02*
X75477200Y-98767262D01*
X75477200Y-98767262D02*
X75381961Y-98672024D01*
X75381961Y-98672024D02*
X75286723Y-98624405D01*
X75286723Y-98624405D02*
X75096247Y-98576786D01*
X75096247Y-98576786D02*
X74953390Y-98576786D01*
X74953390Y-98576786D02*
X74762914Y-98624405D01*
X74762914Y-98624405D02*
X74667676Y-98672024D01*
X74667676Y-98672024D02*
X74572438Y-98767262D01*
X74572438Y-98767262D02*
X74524819Y-98910119D01*
X74524819Y-98910119D02*
X74524819Y-99005357D01*
X74524819Y-99005357D02*
X74572438Y-99148214D01*
X74572438Y-99148214D02*
X74620057Y-99195833D01*
X74620057Y-99576786D02*
X74572438Y-99624405D01*
X74572438Y-99624405D02*
X74524819Y-99719643D01*
X74524819Y-99719643D02*
X74524819Y-99957738D01*
X74524819Y-99957738D02*
X74572438Y-100052976D01*
X74572438Y-100052976D02*
X74620057Y-100100595D01*
X74620057Y-100100595D02*
X74715295Y-100148214D01*
X74715295Y-100148214D02*
X74810533Y-100148214D01*
X74810533Y-100148214D02*
X74953390Y-100100595D01*
X74953390Y-100100595D02*
X75524819Y-99529167D01*
X75524819Y-99529167D02*
X75524819Y-100148214D01*
X83666666Y-102524819D02*
X83999999Y-102048628D01*
X84238094Y-102524819D02*
X84238094Y-101524819D01*
X84238094Y-101524819D02*
X83857142Y-101524819D01*
X83857142Y-101524819D02*
X83761904Y-101572438D01*
X83761904Y-101572438D02*
X83714285Y-101620057D01*
X83714285Y-101620057D02*
X83666666Y-101715295D01*
X83666666Y-101715295D02*
X83666666Y-101858152D01*
X83666666Y-101858152D02*
X83714285Y-101953390D01*
X83714285Y-101953390D02*
X83761904Y-102001009D01*
X83761904Y-102001009D02*
X83857142Y-102048628D01*
X83857142Y-102048628D02*
X84238094Y-102048628D01*
X83285713Y-101620057D02*
X83238094Y-101572438D01*
X83238094Y-101572438D02*
X83142856Y-101524819D01*
X83142856Y-101524819D02*
X82904761Y-101524819D01*
X82904761Y-101524819D02*
X82809523Y-101572438D01*
X82809523Y-101572438D02*
X82761904Y-101620057D01*
X82761904Y-101620057D02*
X82714285Y-101715295D01*
X82714285Y-101715295D02*
X82714285Y-101810533D01*
X82714285Y-101810533D02*
X82761904Y-101953390D01*
X82761904Y-101953390D02*
X83333332Y-102524819D01*
X83333332Y-102524819D02*
X82714285Y-102524819D01*
D11*
%TO.C,R4*%
X81167224Y-100477500D02*
X80657776Y-100477500D01*
X81167224Y-101522500D02*
X80657776Y-101522500D01*
%TO.C,C2*%
X75990000Y-99216233D02*
X75990000Y-99508767D01*
X77010000Y-99216233D02*
X77010000Y-99508767D01*
%TO.C,R2*%
X81167224Y-102977500D02*
X80657776Y-102977500D01*
X81167224Y-104022500D02*
X80657776Y-104022500D01*
%TD*%
%LPC*%
D12*
%TO.C,TP2*%
X86500000Y-89500000D03*
X88500000Y-89500000D03*
%TD*%
D13*
%TO.C,R4*%
X81825000Y-101000000D03*
X80000000Y-101000000D03*
%TD*%
D14*
%TO.C,J1*%
X93000000Y-98500000D03*
D15*
X88000000Y-98500000D03*
%TD*%
D16*
%TO.C,D1*%
X69500000Y-102080000D03*
D17*
X69500000Y-91920000D03*
%TD*%
%TO.C,H1*%
X66500000Y-85000000D03*
%TD*%
%TO.C,H2*%
X102500000Y-85000000D03*
%TD*%
D18*
%TO.C,C2*%
X76500000Y-98500000D03*
X76500000Y-100225000D03*
%TD*%
D17*
%TO.C,H3*%
X66500000Y-109000000D03*
%TD*%
D19*
%TO.C,C1*%
X75000000Y-104000000D03*
D20*
X75000000Y-109000000D03*
%TD*%
D17*
%TO.C,H4*%
X102500000Y-109000000D03*
%TD*%
D14*
%TO.C,J2*%
X90000000Y-107500000D03*
D21*
X85000000Y-107500000D03*
%TD*%
D12*
%TO.C,TP1*%
X70500000Y-89000000D03*
X72500000Y-89000000D03*
%TD*%
D13*
%TO.C,R2*%
X81825000Y-103500000D03*
X80000000Y-103500000D03*
%TD*%
%LPD*%
M02*
