%TF.GenerationSoftware,KiCad,Pcbnew,9.0.4*%
%TF.CreationDate,2025-10-12T14:16:22-05:00*%
%TF.ProjectId,Onboarding,4f6e626f-6172-4646-996e-672e6b696361,rev?*%
%TF.SameCoordinates,Original*%
%TF.FileFunction,Soldermask,Top*%
%TF.FilePolarity,Negative*%
%FSLAX46Y46*%
G04 Gerber Fmt 4.6, Leading zero omitted, Abs format (unit mm)*
G04 Created by KiCad (PCBNEW 9.0.4) date 2025-10-12 14:16:22*
%MOMM*%
%LPD*%
G01*
G04 APERTURE LIST*
G04 Aperture macros list*
%AMRoundRect*
0 Rectangle with rounded corners*
0 $1 Rounding radius*
0 $2 $3 $4 $5 $6 $7 $8 $9 X,Y pos of 4 corners*
0 Add a 4 corners polygon primitive as box body*
4,1,4,$2,$3,$4,$5,$6,$7,$8,$9,$2,$3,0*
0 Add four circle primitives for the rounded corners*
1,1,$1+$1,$2,$3*
1,1,$1+$1,$4,$5*
1,1,$1+$1,$6,$7*
1,1,$1+$1,$8,$9*
0 Add four rect primitives between the rounded corners*
20,1,$1+$1,$2,$3,$4,$5,0*
20,1,$1+$1,$4,$5,$6,$7,0*
20,1,$1+$1,$6,$7,$8,$9,0*
20,1,$1+$1,$8,$9,$2,$3,0*%
G04 Aperture macros list end*
%ADD10RoundRect,0.150000X-0.700000X0.150000X-0.700000X-0.150000X0.700000X-0.150000X0.700000X0.150000X0*%
%ADD11RoundRect,0.250000X-1.150000X0.250000X-1.150000X-0.250000X1.150000X-0.250000X1.150000X0.250000X0*%
%ADD12RoundRect,0.237500X-0.250000X-0.237500X0.250000X-0.237500X0.250000X0.237500X-0.250000X0.237500X0*%
%ADD13RoundRect,0.249999X-0.850001X-0.850001X0.850001X-0.850001X0.850001X0.850001X-0.850001X0.850001X0*%
%ADD14C,2.200000*%
%ADD15RoundRect,0.250000X0.350000X0.450000X-0.350000X0.450000X-0.350000X-0.450000X0.350000X-0.450000X0*%
%ADD16RoundRect,0.250000X-0.550000X-0.550000X0.550000X-0.550000X0.550000X0.550000X-0.550000X0.550000X0*%
%ADD17C,1.600000*%
%ADD18C,1.400000*%
%ADD19RoundRect,0.150000X-0.825000X-0.150000X0.825000X-0.150000X0.825000X0.150000X-0.825000X0.150000X0*%
%ADD20RoundRect,0.237500X0.237500X-0.300000X0.237500X0.300000X-0.237500X0.300000X-0.237500X-0.300000X0*%
%ADD21R,1.950000X1.400000*%
%ADD22RoundRect,0.237500X0.250000X0.237500X-0.250000X0.237500X-0.250000X-0.237500X0.250000X-0.237500X0*%
%ADD23RoundRect,0.760000X1.140000X1.140000X-1.140000X1.140000X-1.140000X-1.140000X1.140000X-1.140000X0*%
%ADD24C,3.800000*%
%ADD25RoundRect,0.250000X-0.250000X-0.475000X0.250000X-0.475000X0.250000X0.475000X-0.250000X0.475000X0*%
%ADD26RoundRect,0.760000X1.140000X-1.140000X1.140000X1.140000X-1.140000X1.140000X-1.140000X-1.140000X0*%
%ADD27C,4.000000*%
G04 APERTURE END LIST*
D10*
%TO.C,J3*%
X175260000Y-136906000D03*
X175260000Y-138156000D03*
D11*
X178610000Y-135056000D03*
X178610000Y-140006000D03*
%TD*%
D10*
%TO.C,J4*%
X185928000Y-136926000D03*
X185928000Y-138176000D03*
D11*
X189278000Y-135076000D03*
X189278000Y-140026000D03*
%TD*%
D12*
%TO.C,R4*%
X191619500Y-131318000D03*
X193444500Y-131318000D03*
%TD*%
%TO.C,R3*%
X195937500Y-121666000D03*
X197762500Y-121666000D03*
%TD*%
D13*
%TO.C,D1*%
X176022000Y-119888000D03*
D14*
X186182000Y-119888000D03*
%TD*%
D15*
%TO.C,R1*%
X197850000Y-117094000D03*
X195850000Y-117094000D03*
%TD*%
D16*
%TO.C,C1*%
X174889349Y-128016000D03*
D17*
X179889349Y-128016000D03*
%TD*%
D18*
%TO.C,TP2*%
X187468000Y-111252000D03*
X189468000Y-111252000D03*
%TD*%
D19*
%TO.C,U1*%
X186755000Y-123063000D03*
X186755000Y-124333000D03*
X186755000Y-125603000D03*
X186755000Y-126873000D03*
X191705000Y-126873000D03*
X191705000Y-125603000D03*
X191705000Y-124333000D03*
X191705000Y-123063000D03*
%TD*%
D20*
%TO.C,C2*%
X183134000Y-125576500D03*
X183134000Y-123851500D03*
%TD*%
D18*
%TO.C,TP1*%
X193818000Y-111252000D03*
X195818000Y-111252000D03*
%TD*%
D21*
%TO.C,L1*%
X190754000Y-119864000D03*
X190754000Y-116864000D03*
%TD*%
D22*
%TO.C,R2*%
X187094500Y-131318000D03*
X185269500Y-131318000D03*
%TD*%
D23*
%TO.C,J2*%
X180554000Y-113030000D03*
D24*
X175554000Y-113030000D03*
%TD*%
D25*
%TO.C,C4*%
X195900000Y-125984000D03*
X197800000Y-125984000D03*
%TD*%
D26*
%TO.C,J1*%
X197866000Y-137668000D03*
D27*
X197866000Y-132668000D03*
%TD*%
M02*
