%TF.GenerationSoftware,KiCad,Pcbnew,10.0.6*%
%TF.CreationDate,2026-09-19T20:33:17-05:00*%
%TF.ProjectId,Onboarding,4f6e626f-6172-4646-996e-672e6b696361,rev?*%
%TF.SameCoordinates,Original*%
%TF.FileFunction,Legend,Top*%
%TF.FilePolarity,Positive*%
%FSLAX46Y46*%
G04 Gerber Fmt 4.6, Leading zero omitted, Abs format (unit mm)*
G04 Created by KiCad (PCBNEW 10.0.6) date 2026-09-19 20:33:17*
%MOMM*%
%LPD*%
G01*
G04 APERTURE LIST*
G04 Aperture macros list*
%AMRoundRect*
0 Rectangle with rounded corners*
0 $1 Rounding radius*
0 $2 $3 $4 $5 $6 $7 $8 $9 X,Y pos of 4 corners*
0 Add a 4 corners polygon primitive as box body*
4,1,4,$2,$3,$4,$5,$6,$7,$8,$9,$2,$3,0*
0 Add four circle primitives for the rounded corners*
1,1,$1+$1,$2,$3*
1,1,$1+$1,$4,$5*
1,1,$1+$1,$6,$7*
1,1,$1+$1,$8,$9*
0 Add four rect primitives between the rounded corners*
20,1,$1+$1,$2,$3,$4,$5,0*
20,1,$1+$1,$4,$5,$6,$7,0*
20,1,$1+$1,$6,$7,$8,$9,0*
20,1,$1+$1,$8,$9,$2,$3,0*%
G04 Aperture macros list end*
%ADD10C,0.150000*%
%ADD11C,0.254000*%
%ADD12C,0.120000*%
%ADD13C,0.200000*%
%ADD14C,0.100000*%
%ADD15RoundRect,0.237500X-0.300000X-0.237500X0.300000X-0.237500X0.300000X0.237500X-0.300000X0.237500X0*%
%ADD16RoundRect,0.250000X-0.475000X0.250000X-0.475000X-0.250000X0.475000X-0.250000X0.475000X0.250000X0*%
%ADD17RoundRect,0.237500X0.250000X0.237500X-0.250000X0.237500X-0.250000X-0.237500X0.250000X-0.237500X0*%
%ADD18RoundRect,0.150000X-0.825000X-0.150000X0.825000X-0.150000X0.825000X0.150000X-0.825000X0.150000X0*%
%ADD19C,1.400000*%
%ADD20C,2.200000*%
%ADD21RoundRect,0.150000X-0.150000X-0.700000X0.150000X-0.700000X0.150000X0.700000X-0.150000X0.700000X0*%
%ADD22RoundRect,0.250000X-0.250000X-1.150000X0.250000X-1.150000X0.250000X1.150000X-0.250000X1.150000X0*%
%ADD23RoundRect,0.250000X-0.550000X0.550000X-0.550000X-0.550000X0.550000X-0.550000X0.550000X0.550000X0*%
%ADD24C,1.600000*%
%ADD25RoundRect,0.237500X-0.237500X0.250000X-0.237500X-0.250000X0.237500X-0.250000X0.237500X0.250000X0*%
%ADD26RoundRect,0.760000X1.140000X1.140000X-1.140000X1.140000X-1.140000X-1.140000X1.140000X-1.140000X0*%
%ADD27C,3.800000*%
%ADD28RoundRect,0.250000X-0.350000X-0.450000X0.350000X-0.450000X0.350000X0.450000X-0.350000X0.450000X0*%
%ADD29R,1.520000X10.160000*%
%ADD30RoundRect,0.250000X0.300000X-0.300000X0.300000X0.300000X-0.300000X0.300000X-0.300000X-0.300000X0*%
%ADD31RoundRect,0.237500X0.237500X-0.250000X0.237500X0.250000X-0.237500X0.250000X-0.237500X-0.250000X0*%
%ADD32RoundRect,0.760000X1.140000X-1.140000X1.140000X1.140000X-1.140000X1.140000X-1.140000X-1.140000X0*%
%ADD33C,4.000000*%
G04 APERTURE END LIST*
D10*
X136833333Y-112929580D02*
X136785714Y-112977200D01*
X136785714Y-112977200D02*
X136642857Y-113024819D01*
X136642857Y-113024819D02*
X136547619Y-113024819D01*
X136547619Y-113024819D02*
X136404762Y-112977200D01*
X136404762Y-112977200D02*
X136309524Y-112881961D01*
X136309524Y-112881961D02*
X136261905Y-112786723D01*
X136261905Y-112786723D02*
X136214286Y-112596247D01*
X136214286Y-112596247D02*
X136214286Y-112453390D01*
X136214286Y-112453390D02*
X136261905Y-112262914D01*
X136261905Y-112262914D02*
X136309524Y-112167676D01*
X136309524Y-112167676D02*
X136404762Y-112072438D01*
X136404762Y-112072438D02*
X136547619Y-112024819D01*
X136547619Y-112024819D02*
X136642857Y-112024819D01*
X136642857Y-112024819D02*
X136785714Y-112072438D01*
X136785714Y-112072438D02*
X136833333Y-112120057D01*
X137214286Y-112120057D02*
X137261905Y-112072438D01*
X137261905Y-112072438D02*
X137357143Y-112024819D01*
X137357143Y-112024819D02*
X137595238Y-112024819D01*
X137595238Y-112024819D02*
X137690476Y-112072438D01*
X137690476Y-112072438D02*
X137738095Y-112120057D01*
X137738095Y-112120057D02*
X137785714Y-112215295D01*
X137785714Y-112215295D02*
X137785714Y-112310533D01*
X137785714Y-112310533D02*
X137738095Y-112453390D01*
X137738095Y-112453390D02*
X137166667Y-113024819D01*
X137166667Y-113024819D02*
X137785714Y-113024819D01*
X131333333Y-98929580D02*
X131285714Y-98977200D01*
X131285714Y-98977200D02*
X131142857Y-99024819D01*
X131142857Y-99024819D02*
X131047619Y-99024819D01*
X131047619Y-99024819D02*
X130904762Y-98977200D01*
X130904762Y-98977200D02*
X130809524Y-98881961D01*
X130809524Y-98881961D02*
X130761905Y-98786723D01*
X130761905Y-98786723D02*
X130714286Y-98596247D01*
X130714286Y-98596247D02*
X130714286Y-98453390D01*
X130714286Y-98453390D02*
X130761905Y-98262914D01*
X130761905Y-98262914D02*
X130809524Y-98167676D01*
X130809524Y-98167676D02*
X130904762Y-98072438D01*
X130904762Y-98072438D02*
X131047619Y-98024819D01*
X131047619Y-98024819D02*
X131142857Y-98024819D01*
X131142857Y-98024819D02*
X131285714Y-98072438D01*
X131285714Y-98072438D02*
X131333333Y-98120057D01*
X132285714Y-99024819D02*
X131714286Y-99024819D01*
X132000000Y-99024819D02*
X132000000Y-98024819D01*
X132000000Y-98024819D02*
X131904762Y-98167676D01*
X131904762Y-98167676D02*
X131809524Y-98262914D01*
X131809524Y-98262914D02*
X131714286Y-98310533D01*
X145539580Y-111166666D02*
X145587200Y-111214285D01*
X145587200Y-111214285D02*
X145634819Y-111357142D01*
X145634819Y-111357142D02*
X145634819Y-111452380D01*
X145634819Y-111452380D02*
X145587200Y-111595237D01*
X145587200Y-111595237D02*
X145491961Y-111690475D01*
X145491961Y-111690475D02*
X145396723Y-111738094D01*
X145396723Y-111738094D02*
X145206247Y-111785713D01*
X145206247Y-111785713D02*
X145063390Y-111785713D01*
X145063390Y-111785713D02*
X144872914Y-111738094D01*
X144872914Y-111738094D02*
X144777676Y-111690475D01*
X144777676Y-111690475D02*
X144682438Y-111595237D01*
X144682438Y-111595237D02*
X144634819Y-111452380D01*
X144634819Y-111452380D02*
X144634819Y-111357142D01*
X144634819Y-111357142D02*
X144682438Y-111214285D01*
X144682438Y-111214285D02*
X144730057Y-111166666D01*
X144634819Y-110261904D02*
X144634819Y-110738094D01*
X144634819Y-110738094D02*
X145111009Y-110785713D01*
X145111009Y-110785713D02*
X145063390Y-110738094D01*
X145063390Y-110738094D02*
X145015771Y-110642856D01*
X145015771Y-110642856D02*
X145015771Y-110404761D01*
X145015771Y-110404761D02*
X145063390Y-110309523D01*
X145063390Y-110309523D02*
X145111009Y-110261904D01*
X145111009Y-110261904D02*
X145206247Y-110214285D01*
X145206247Y-110214285D02*
X145444342Y-110214285D01*
X145444342Y-110214285D02*
X145539580Y-110261904D01*
X145539580Y-110261904D02*
X145587200Y-110309523D01*
X145587200Y-110309523D02*
X145634819Y-110404761D01*
X145634819Y-110404761D02*
X145634819Y-110642856D01*
X145634819Y-110642856D02*
X145587200Y-110738094D01*
X145587200Y-110738094D02*
X145539580Y-110785713D01*
X136833333Y-110884819D02*
X136500000Y-110408628D01*
X136261905Y-110884819D02*
X136261905Y-109884819D01*
X136261905Y-109884819D02*
X136642857Y-109884819D01*
X136642857Y-109884819D02*
X136738095Y-109932438D01*
X136738095Y-109932438D02*
X136785714Y-109980057D01*
X136785714Y-109980057D02*
X136833333Y-110075295D01*
X136833333Y-110075295D02*
X136833333Y-110218152D01*
X136833333Y-110218152D02*
X136785714Y-110313390D01*
X136785714Y-110313390D02*
X136738095Y-110361009D01*
X136738095Y-110361009D02*
X136642857Y-110408628D01*
X136642857Y-110408628D02*
X136261905Y-110408628D01*
X137214286Y-109980057D02*
X137261905Y-109932438D01*
X137261905Y-109932438D02*
X137357143Y-109884819D01*
X137357143Y-109884819D02*
X137595238Y-109884819D01*
X137595238Y-109884819D02*
X137690476Y-109932438D01*
X137690476Y-109932438D02*
X137738095Y-109980057D01*
X137738095Y-109980057D02*
X137785714Y-110075295D01*
X137785714Y-110075295D02*
X137785714Y-110170533D01*
X137785714Y-110170533D02*
X137738095Y-110313390D01*
X137738095Y-110313390D02*
X137166667Y-110884819D01*
X137166667Y-110884819D02*
X137785714Y-110884819D01*
X134738095Y-101054819D02*
X134738095Y-101864342D01*
X134738095Y-101864342D02*
X134785714Y-101959580D01*
X134785714Y-101959580D02*
X134833333Y-102007200D01*
X134833333Y-102007200D02*
X134928571Y-102054819D01*
X134928571Y-102054819D02*
X135119047Y-102054819D01*
X135119047Y-102054819D02*
X135214285Y-102007200D01*
X135214285Y-102007200D02*
X135261904Y-101959580D01*
X135261904Y-101959580D02*
X135309523Y-101864342D01*
X135309523Y-101864342D02*
X135309523Y-101054819D01*
X136309523Y-102054819D02*
X135738095Y-102054819D01*
X136023809Y-102054819D02*
X136023809Y-101054819D01*
X136023809Y-101054819D02*
X135928571Y-101197676D01*
X135928571Y-101197676D02*
X135833333Y-101292914D01*
X135833333Y-101292914D02*
X135738095Y-101340533D01*
X141254819Y-102361904D02*
X141254819Y-101790476D01*
X142254819Y-102076190D02*
X141254819Y-102076190D01*
X142254819Y-101457142D02*
X141254819Y-101457142D01*
X141254819Y-101457142D02*
X141254819Y-101076190D01*
X141254819Y-101076190D02*
X141302438Y-100980952D01*
X141302438Y-100980952D02*
X141350057Y-100933333D01*
X141350057Y-100933333D02*
X141445295Y-100885714D01*
X141445295Y-100885714D02*
X141588152Y-100885714D01*
X141588152Y-100885714D02*
X141683390Y-100933333D01*
X141683390Y-100933333D02*
X141731009Y-100980952D01*
X141731009Y-100980952D02*
X141778628Y-101076190D01*
X141778628Y-101076190D02*
X141778628Y-101457142D01*
X142254819Y-99933333D02*
X142254819Y-100504761D01*
X142254819Y-100219047D02*
X141254819Y-100219047D01*
X141254819Y-100219047D02*
X141397676Y-100314285D01*
X141397676Y-100314285D02*
X141492914Y-100409523D01*
X141492914Y-100409523D02*
X141540533Y-100504761D01*
X147304819Y-88261904D02*
X146304819Y-88261904D01*
X146781009Y-88261904D02*
X146781009Y-87690476D01*
X147304819Y-87690476D02*
X146304819Y-87690476D01*
X146400057Y-87261904D02*
X146352438Y-87214285D01*
X146352438Y-87214285D02*
X146304819Y-87119047D01*
X146304819Y-87119047D02*
X146304819Y-86880952D01*
X146304819Y-86880952D02*
X146352438Y-86785714D01*
X146352438Y-86785714D02*
X146400057Y-86738095D01*
X146400057Y-86738095D02*
X146495295Y-86690476D01*
X146495295Y-86690476D02*
X146590533Y-86690476D01*
X146590533Y-86690476D02*
X146733390Y-86738095D01*
X146733390Y-86738095D02*
X147304819Y-87309523D01*
X147304819Y-87309523D02*
X147304819Y-86690476D01*
X148666666Y-88954819D02*
X148666666Y-89669104D01*
X148666666Y-89669104D02*
X148619047Y-89811961D01*
X148619047Y-89811961D02*
X148523809Y-89907200D01*
X148523809Y-89907200D02*
X148380952Y-89954819D01*
X148380952Y-89954819D02*
X148285714Y-89954819D01*
X149047619Y-88954819D02*
X149666666Y-88954819D01*
X149666666Y-88954819D02*
X149333333Y-89335771D01*
X149333333Y-89335771D02*
X149476190Y-89335771D01*
X149476190Y-89335771D02*
X149571428Y-89383390D01*
X149571428Y-89383390D02*
X149619047Y-89431009D01*
X149619047Y-89431009D02*
X149666666Y-89526247D01*
X149666666Y-89526247D02*
X149666666Y-89764342D01*
X149666666Y-89764342D02*
X149619047Y-89859580D01*
X149619047Y-89859580D02*
X149571428Y-89907200D01*
X149571428Y-89907200D02*
X149476190Y-89954819D01*
X149476190Y-89954819D02*
X149190476Y-89954819D01*
X149190476Y-89954819D02*
X149095238Y-89907200D01*
X149095238Y-89907200D02*
X149047619Y-89859580D01*
X131604819Y-123261904D02*
X130604819Y-123261904D01*
X131081009Y-123261904D02*
X131081009Y-122690476D01*
X131604819Y-122690476D02*
X130604819Y-122690476D01*
X130604819Y-122309523D02*
X130604819Y-121690476D01*
X130604819Y-121690476D02*
X130985771Y-122023809D01*
X130985771Y-122023809D02*
X130985771Y-121880952D01*
X130985771Y-121880952D02*
X131033390Y-121785714D01*
X131033390Y-121785714D02*
X131081009Y-121738095D01*
X131081009Y-121738095D02*
X131176247Y-121690476D01*
X131176247Y-121690476D02*
X131414342Y-121690476D01*
X131414342Y-121690476D02*
X131509580Y-121738095D01*
X131509580Y-121738095D02*
X131557200Y-121785714D01*
X131557200Y-121785714D02*
X131604819Y-121880952D01*
X131604819Y-121880952D02*
X131604819Y-122166666D01*
X131604819Y-122166666D02*
X131557200Y-122261904D01*
X131557200Y-122261904D02*
X131509580Y-122309523D01*
X135109580Y-111764015D02*
X135157200Y-111811634D01*
X135157200Y-111811634D02*
X135204819Y-111954491D01*
X135204819Y-111954491D02*
X135204819Y-112049729D01*
X135204819Y-112049729D02*
X135157200Y-112192586D01*
X135157200Y-112192586D02*
X135061961Y-112287824D01*
X135061961Y-112287824D02*
X134966723Y-112335443D01*
X134966723Y-112335443D02*
X134776247Y-112383062D01*
X134776247Y-112383062D02*
X134633390Y-112383062D01*
X134633390Y-112383062D02*
X134442914Y-112335443D01*
X134442914Y-112335443D02*
X134347676Y-112287824D01*
X134347676Y-112287824D02*
X134252438Y-112192586D01*
X134252438Y-112192586D02*
X134204819Y-112049729D01*
X134204819Y-112049729D02*
X134204819Y-111954491D01*
X134204819Y-111954491D02*
X134252438Y-111811634D01*
X134252438Y-111811634D02*
X134300057Y-111764015D01*
X134538152Y-110906872D02*
X135204819Y-110906872D01*
X134157200Y-111144967D02*
X134871485Y-111383062D01*
X134871485Y-111383062D02*
X134871485Y-110764015D01*
X148666666Y-96454819D02*
X148666666Y-97169104D01*
X148666666Y-97169104D02*
X148619047Y-97311961D01*
X148619047Y-97311961D02*
X148523809Y-97407200D01*
X148523809Y-97407200D02*
X148380952Y-97454819D01*
X148380952Y-97454819D02*
X148285714Y-97454819D01*
X149571428Y-96788152D02*
X149571428Y-97454819D01*
X149333333Y-96407200D02*
X149095238Y-97121485D01*
X149095238Y-97121485D02*
X149714285Y-97121485D01*
X127238095Y-91104819D02*
X127238095Y-90104819D01*
X127238095Y-90581009D02*
X127809523Y-90581009D01*
X127809523Y-91104819D02*
X127809523Y-90104819D01*
X128809523Y-91104819D02*
X128238095Y-91104819D01*
X128523809Y-91104819D02*
X128523809Y-90104819D01*
X128523809Y-90104819D02*
X128428571Y-90247676D01*
X128428571Y-90247676D02*
X128333333Y-90342914D01*
X128333333Y-90342914D02*
X128238095Y-90390533D01*
X141884819Y-111166666D02*
X141408628Y-111499999D01*
X141884819Y-111738094D02*
X140884819Y-111738094D01*
X140884819Y-111738094D02*
X140884819Y-111357142D01*
X140884819Y-111357142D02*
X140932438Y-111261904D01*
X140932438Y-111261904D02*
X140980057Y-111214285D01*
X140980057Y-111214285D02*
X141075295Y-111166666D01*
X141075295Y-111166666D02*
X141218152Y-111166666D01*
X141218152Y-111166666D02*
X141313390Y-111214285D01*
X141313390Y-111214285D02*
X141361009Y-111261904D01*
X141361009Y-111261904D02*
X141408628Y-111357142D01*
X141408628Y-111357142D02*
X141408628Y-111738094D01*
X141884819Y-110214285D02*
X141884819Y-110785713D01*
X141884819Y-110499999D02*
X140884819Y-110499999D01*
X140884819Y-110499999D02*
X141027676Y-110595237D01*
X141027676Y-110595237D02*
X141122914Y-110690475D01*
X141122914Y-110690475D02*
X141170533Y-110785713D01*
X138666666Y-121954819D02*
X138666666Y-122669104D01*
X138666666Y-122669104D02*
X138619047Y-122811961D01*
X138619047Y-122811961D02*
X138523809Y-122907200D01*
X138523809Y-122907200D02*
X138380952Y-122954819D01*
X138380952Y-122954819D02*
X138285714Y-122954819D01*
X139095238Y-122050057D02*
X139142857Y-122002438D01*
X139142857Y-122002438D02*
X139238095Y-121954819D01*
X139238095Y-121954819D02*
X139476190Y-121954819D01*
X139476190Y-121954819D02*
X139571428Y-122002438D01*
X139571428Y-122002438D02*
X139619047Y-122050057D01*
X139619047Y-122050057D02*
X139666666Y-122145295D01*
X139666666Y-122145295D02*
X139666666Y-122240533D01*
X139666666Y-122240533D02*
X139619047Y-122383390D01*
X139619047Y-122383390D02*
X139047619Y-122954819D01*
X139047619Y-122954819D02*
X139666666Y-122954819D01*
X144928571Y-118614700D02*
X146071429Y-118614700D01*
X131928571Y-118614700D02*
X133071429Y-118614700D01*
X132500000Y-119186128D02*
X132500000Y-118043271D01*
X138833333Y-99304819D02*
X138500000Y-98828628D01*
X138261905Y-99304819D02*
X138261905Y-98304819D01*
X138261905Y-98304819D02*
X138642857Y-98304819D01*
X138642857Y-98304819D02*
X138738095Y-98352438D01*
X138738095Y-98352438D02*
X138785714Y-98400057D01*
X138785714Y-98400057D02*
X138833333Y-98495295D01*
X138833333Y-98495295D02*
X138833333Y-98638152D01*
X138833333Y-98638152D02*
X138785714Y-98733390D01*
X138785714Y-98733390D02*
X138738095Y-98781009D01*
X138738095Y-98781009D02*
X138642857Y-98828628D01*
X138642857Y-98828628D02*
X138261905Y-98828628D01*
X139166667Y-98304819D02*
X139785714Y-98304819D01*
X139785714Y-98304819D02*
X139452381Y-98685771D01*
X139452381Y-98685771D02*
X139595238Y-98685771D01*
X139595238Y-98685771D02*
X139690476Y-98733390D01*
X139690476Y-98733390D02*
X139738095Y-98781009D01*
X139738095Y-98781009D02*
X139785714Y-98876247D01*
X139785714Y-98876247D02*
X139785714Y-99114342D01*
X139785714Y-99114342D02*
X139738095Y-99209580D01*
X139738095Y-99209580D02*
X139690476Y-99257200D01*
X139690476Y-99257200D02*
X139595238Y-99304819D01*
X139595238Y-99304819D02*
X139309524Y-99304819D01*
X139309524Y-99304819D02*
X139214286Y-99257200D01*
X139214286Y-99257200D02*
X139166667Y-99209580D01*
D11*
X137788333Y-92574318D02*
X137183571Y-92574318D01*
X137183571Y-92574318D02*
X137183571Y-91304318D01*
X138876905Y-92574318D02*
X138151190Y-92574318D01*
X138514047Y-92574318D02*
X138514047Y-91304318D01*
X138514047Y-91304318D02*
X138393095Y-91485746D01*
X138393095Y-91485746D02*
X138272143Y-91606699D01*
X138272143Y-91606699D02*
X138151190Y-91667175D01*
D10*
X147304819Y-122761904D02*
X146304819Y-122761904D01*
X146781009Y-122761904D02*
X146781009Y-122190476D01*
X147304819Y-122190476D02*
X146304819Y-122190476D01*
X146638152Y-121285714D02*
X147304819Y-121285714D01*
X146257200Y-121523809D02*
X146971485Y-121761904D01*
X146971485Y-121761904D02*
X146971485Y-121142857D01*
X127049819Y-104865094D02*
X126049819Y-104865094D01*
X126049819Y-104865094D02*
X126049819Y-104626999D01*
X126049819Y-104626999D02*
X126097438Y-104484142D01*
X126097438Y-104484142D02*
X126192676Y-104388904D01*
X126192676Y-104388904D02*
X126287914Y-104341285D01*
X126287914Y-104341285D02*
X126478390Y-104293666D01*
X126478390Y-104293666D02*
X126621247Y-104293666D01*
X126621247Y-104293666D02*
X126811723Y-104341285D01*
X126811723Y-104341285D02*
X126906961Y-104388904D01*
X126906961Y-104388904D02*
X127002200Y-104484142D01*
X127002200Y-104484142D02*
X127049819Y-104626999D01*
X127049819Y-104626999D02*
X127049819Y-104865094D01*
X127049819Y-103341285D02*
X127049819Y-103912713D01*
X127049819Y-103626999D02*
X126049819Y-103626999D01*
X126049819Y-103626999D02*
X126192676Y-103722237D01*
X126192676Y-103722237D02*
X126287914Y-103817475D01*
X126287914Y-103817475D02*
X126335533Y-103912713D01*
X126254819Y-98861904D02*
X126254819Y-98290476D01*
X127254819Y-98576190D02*
X126254819Y-98576190D01*
X127254819Y-97957142D02*
X126254819Y-97957142D01*
X126254819Y-97957142D02*
X126254819Y-97576190D01*
X126254819Y-97576190D02*
X126302438Y-97480952D01*
X126302438Y-97480952D02*
X126350057Y-97433333D01*
X126350057Y-97433333D02*
X126445295Y-97385714D01*
X126445295Y-97385714D02*
X126588152Y-97385714D01*
X126588152Y-97385714D02*
X126683390Y-97433333D01*
X126683390Y-97433333D02*
X126731009Y-97480952D01*
X126731009Y-97480952D02*
X126778628Y-97576190D01*
X126778628Y-97576190D02*
X126778628Y-97957142D01*
X126350057Y-97004761D02*
X126302438Y-96957142D01*
X126302438Y-96957142D02*
X126254819Y-96861904D01*
X126254819Y-96861904D02*
X126254819Y-96623809D01*
X126254819Y-96623809D02*
X126302438Y-96528571D01*
X126302438Y-96528571D02*
X126350057Y-96480952D01*
X126350057Y-96480952D02*
X126445295Y-96433333D01*
X126445295Y-96433333D02*
X126540533Y-96433333D01*
X126540533Y-96433333D02*
X126683390Y-96480952D01*
X126683390Y-96480952D02*
X127254819Y-97052380D01*
X127254819Y-97052380D02*
X127254819Y-96433333D01*
X142524819Y-105666666D02*
X142048628Y-105999999D01*
X142524819Y-106238094D02*
X141524819Y-106238094D01*
X141524819Y-106238094D02*
X141524819Y-105857142D01*
X141524819Y-105857142D02*
X141572438Y-105761904D01*
X141572438Y-105761904D02*
X141620057Y-105714285D01*
X141620057Y-105714285D02*
X141715295Y-105666666D01*
X141715295Y-105666666D02*
X141858152Y-105666666D01*
X141858152Y-105666666D02*
X141953390Y-105714285D01*
X141953390Y-105714285D02*
X142001009Y-105761904D01*
X142001009Y-105761904D02*
X142048628Y-105857142D01*
X142048628Y-105857142D02*
X142048628Y-106238094D01*
X141858152Y-104809523D02*
X142524819Y-104809523D01*
X141477200Y-105047618D02*
X142191485Y-105285713D01*
X142191485Y-105285713D02*
X142191485Y-104666666D01*
X144954819Y-113833333D02*
X145669104Y-113833333D01*
X145669104Y-113833333D02*
X145811961Y-113880952D01*
X145811961Y-113880952D02*
X145907200Y-113976190D01*
X145907200Y-113976190D02*
X145954819Y-114119047D01*
X145954819Y-114119047D02*
X145954819Y-114214285D01*
X145954819Y-112833333D02*
X145954819Y-113404761D01*
X145954819Y-113119047D02*
X144954819Y-113119047D01*
X144954819Y-113119047D02*
X145097676Y-113214285D01*
X145097676Y-113214285D02*
X145192914Y-113309523D01*
X145192914Y-113309523D02*
X145240533Y-113404761D01*
X149614700Y-107571428D02*
X149614700Y-106428571D01*
X150186128Y-106999999D02*
X149043271Y-106999999D01*
X149614700Y-120571428D02*
X149614700Y-119428571D01*
%TO.C,C2*%
D12*
X136853733Y-113490000D02*
X137146267Y-113490000D01*
X136853733Y-114510000D02*
X137146267Y-114510000D01*
%TO.C,C1*%
X131353733Y-99490000D02*
X131646267Y-99490000D01*
X131353733Y-100510000D02*
X131646267Y-100510000D01*
%TO.C,C5*%
X142765000Y-110738748D02*
X142765000Y-111261252D01*
X144235000Y-110738748D02*
X144235000Y-111261252D01*
%TO.C,R2*%
X137254724Y-108477500D02*
X136745276Y-108477500D01*
X137254724Y-109522500D02*
X136745276Y-109522500D01*
%TO.C,U1*%
X133440000Y-102440000D02*
X137560000Y-102440000D01*
X133440000Y-102535000D02*
X133440000Y-102440000D01*
X133440000Y-107560000D02*
X133440000Y-107465000D01*
X137560000Y-102440000D02*
X137560000Y-102535000D01*
X137560000Y-107465000D02*
X137560000Y-107560000D01*
X137560000Y-107560000D02*
X133440000Y-107560000D01*
X132900000Y-102530000D02*
X132660000Y-102200000D01*
X133140000Y-102200000D01*
X132900000Y-102530000D01*
G36*
X132900000Y-102530000D02*
G01*
X132660000Y-102200000D01*
X133140000Y-102200000D01*
X132900000Y-102530000D01*
G37*
%TO.C,TP1*%
X142600000Y-99100000D02*
X142600000Y-102900000D01*
X142600000Y-102900000D02*
X144400000Y-102900000D01*
X144400000Y-99100000D02*
X142600000Y-99100000D01*
X144400000Y-102900000D02*
X144400000Y-99100000D01*
%TO.C,J3*%
X146015000Y-93760000D02*
X146015000Y-95360000D01*
X146015000Y-95360000D02*
X147815000Y-95360000D01*
X147285000Y-90890000D02*
X150715000Y-90890000D01*
X147815000Y-95360000D02*
X147815000Y-96300000D01*
X151985000Y-93760000D02*
X151985000Y-95360000D01*
X151985000Y-95360000D02*
X150185000Y-95360000D01*
%TO.C,C4*%
X128460000Y-113077349D02*
X125695000Y-113077349D01*
X128460000Y-113117349D02*
X125711000Y-113117349D01*
X128460000Y-113157349D02*
X125727000Y-113157349D01*
X128460000Y-113197349D02*
X125743000Y-113197349D01*
X128460000Y-113237349D02*
X125760000Y-113237349D01*
X128460000Y-113277349D02*
X125778000Y-113277349D01*
X128460000Y-113317349D02*
X125796000Y-113317349D01*
X128460000Y-113357349D02*
X125815000Y-113357349D01*
X128460000Y-113397349D02*
X125834000Y-113397349D01*
X128460000Y-113437349D02*
X125854000Y-113437349D01*
X128460000Y-113477349D02*
X125874000Y-113477349D01*
X128460000Y-113517349D02*
X125895000Y-113517349D01*
X128460000Y-113557349D02*
X125916000Y-113557349D01*
X128460000Y-113597349D02*
X125938000Y-113597349D01*
X128460000Y-113637349D02*
X125961000Y-113637349D01*
X128460000Y-113677349D02*
X125984000Y-113677349D01*
X128460000Y-113717349D02*
X126007000Y-113717349D01*
X128460000Y-113757349D02*
X126032000Y-113757349D01*
X128460000Y-113797349D02*
X126057000Y-113797349D01*
X128460000Y-113837349D02*
X126082000Y-113837349D01*
X128460000Y-113877349D02*
X126108000Y-113877349D01*
X128460000Y-113917349D02*
X126135000Y-113917349D01*
X128460000Y-113957349D02*
X126163000Y-113957349D01*
X128460000Y-113997349D02*
X126191000Y-113997349D01*
X128460000Y-114037349D02*
X126220000Y-114037349D01*
X128460000Y-114077349D02*
X126250000Y-114077349D01*
X128460000Y-114117349D02*
X126281000Y-114117349D01*
X128460000Y-114157349D02*
X126312000Y-114157349D01*
X128460000Y-114197349D02*
X126344000Y-114197349D01*
X128460000Y-114237349D02*
X126377000Y-114237349D01*
X128460000Y-114277349D02*
X126411000Y-114277349D01*
X128460000Y-114317349D02*
X126445000Y-114317349D01*
X128460000Y-114357349D02*
X126481000Y-114357349D01*
X128460000Y-114397349D02*
X126518000Y-114397349D01*
X128460000Y-114437349D02*
X126555000Y-114437349D01*
X128460000Y-114477349D02*
X126594000Y-114477349D01*
X128460000Y-114517349D02*
X126633000Y-114517349D01*
X128460000Y-114557349D02*
X126674000Y-114557349D01*
X128460000Y-114597349D02*
X126716000Y-114597349D01*
X128460000Y-114637349D02*
X126759000Y-114637349D01*
X128460000Y-114677349D02*
X126804000Y-114677349D01*
X128460000Y-114717349D02*
X126849000Y-114717349D01*
X128460000Y-114757349D02*
X126896000Y-114757349D01*
X128460000Y-114797349D02*
X126945000Y-114797349D01*
X128460000Y-114837349D02*
X126995000Y-114837349D01*
X128460000Y-114877349D02*
X127047000Y-114877349D01*
X128460000Y-114917349D02*
X127100000Y-114917349D01*
X128460000Y-114957349D02*
X127156000Y-114957349D01*
X128460000Y-114997349D02*
X127213000Y-114997349D01*
X128460000Y-115037349D02*
X127273000Y-115037349D01*
X128460000Y-115077349D02*
X127335000Y-115077349D01*
X128460000Y-115117349D02*
X127399000Y-115117349D01*
X130033000Y-115677349D02*
X128967000Y-115677349D01*
X130268000Y-115637349D02*
X128732000Y-115637349D01*
X130447000Y-115597349D02*
X128553000Y-115597349D01*
X130597000Y-115557349D02*
X128403000Y-115557349D01*
X130728000Y-115517349D02*
X128272000Y-115517349D01*
X130846000Y-115477349D02*
X128154000Y-115477349D01*
X130953000Y-115437349D02*
X128047000Y-115437349D01*
X131052000Y-115397349D02*
X127948000Y-115397349D01*
X131144000Y-115357349D02*
X127856000Y-115357349D01*
X131231000Y-115317349D02*
X127769000Y-115317349D01*
X131313000Y-115277349D02*
X127687000Y-115277349D01*
X131390000Y-115237349D02*
X127610000Y-115237349D01*
X131464000Y-115197349D02*
X127536000Y-115197349D01*
X131534000Y-115157349D02*
X127466000Y-115157349D01*
X131601000Y-115117349D02*
X130540000Y-115117349D01*
X131665000Y-115077349D02*
X130540000Y-115077349D01*
X131727000Y-115037349D02*
X130540000Y-115037349D01*
X131787000Y-114997349D02*
X130540000Y-114997349D01*
X131815000Y-107187651D02*
X131815000Y-107987651D01*
X131844000Y-114957349D02*
X130540000Y-114957349D01*
X131900000Y-114917349D02*
X130540000Y-114917349D01*
X131953000Y-114877349D02*
X130540000Y-114877349D01*
X132005000Y-114837349D02*
X130540000Y-114837349D01*
X132055000Y-114797349D02*
X130540000Y-114797349D01*
X132104000Y-114757349D02*
X130540000Y-114757349D01*
X132151000Y-114717349D02*
X130540000Y-114717349D01*
X132196000Y-114677349D02*
X130540000Y-114677349D01*
X132215000Y-107587651D02*
X131415000Y-107587651D01*
X132241000Y-114637349D02*
X130540000Y-114637349D01*
X132284000Y-114597349D02*
X130540000Y-114597349D01*
X132326000Y-114557349D02*
X130540000Y-114557349D01*
X132367000Y-114517349D02*
X130540000Y-114517349D01*
X132406000Y-114477349D02*
X130540000Y-114477349D01*
X132445000Y-114437349D02*
X130540000Y-114437349D01*
X132482000Y-114397349D02*
X130540000Y-114397349D01*
X132519000Y-114357349D02*
X130540000Y-114357349D01*
X132555000Y-114317349D02*
X130540000Y-114317349D01*
X132589000Y-114277349D02*
X130540000Y-114277349D01*
X132623000Y-114237349D02*
X130540000Y-114237349D01*
X132656000Y-114197349D02*
X130540000Y-114197349D01*
X132688000Y-114157349D02*
X130540000Y-114157349D01*
X132719000Y-114117349D02*
X130540000Y-114117349D01*
X132750000Y-114077349D02*
X130540000Y-114077349D01*
X132780000Y-114037349D02*
X130540000Y-114037349D01*
X132809000Y-113997349D02*
X130540000Y-113997349D01*
X132837000Y-113957349D02*
X130540000Y-113957349D01*
X132865000Y-113917349D02*
X130540000Y-113917349D01*
X132892000Y-113877349D02*
X130540000Y-113877349D01*
X132918000Y-113837349D02*
X130540000Y-113837349D01*
X132943000Y-113797349D02*
X130540000Y-113797349D01*
X132968000Y-113757349D02*
X130540000Y-113757349D01*
X132993000Y-113717349D02*
X130540000Y-113717349D01*
X133016000Y-113677349D02*
X130540000Y-113677349D01*
X133039000Y-113637349D02*
X130540000Y-113637349D01*
X133062000Y-113597349D02*
X130540000Y-113597349D01*
X133084000Y-113557349D02*
X130540000Y-113557349D01*
X133105000Y-113517349D02*
X130540000Y-113517349D01*
X133126000Y-113477349D02*
X130540000Y-113477349D01*
X133146000Y-113437349D02*
X130540000Y-113437349D01*
X133166000Y-113397349D02*
X130540000Y-113397349D01*
X133185000Y-113357349D02*
X130540000Y-113357349D01*
X133204000Y-113317349D02*
X130540000Y-113317349D01*
X133222000Y-113277349D02*
X130540000Y-113277349D01*
X133240000Y-113237349D02*
X130540000Y-113237349D01*
X133257000Y-113197349D02*
X130540000Y-113197349D01*
X133273000Y-113157349D02*
X130540000Y-113157349D01*
X133289000Y-113117349D02*
X130540000Y-113117349D01*
X133305000Y-113077349D02*
X130540000Y-113077349D01*
X133320000Y-113037349D02*
X125680000Y-113037349D01*
X133335000Y-112997349D02*
X125665000Y-112997349D01*
X133349000Y-112957349D02*
X125651000Y-112957349D01*
X133363000Y-112917349D02*
X125637000Y-112917349D01*
X133376000Y-112877349D02*
X125624000Y-112877349D01*
X133389000Y-112837349D02*
X125611000Y-112837349D01*
X133401000Y-112797349D02*
X125599000Y-112797349D01*
X133413000Y-112757349D02*
X125587000Y-112757349D01*
X133425000Y-112717349D02*
X125575000Y-112717349D01*
X133436000Y-112677349D02*
X125564000Y-112677349D01*
X133447000Y-112637349D02*
X125553000Y-112637349D01*
X133457000Y-112597349D02*
X125543000Y-112597349D01*
X133467000Y-112557349D02*
X125533000Y-112557349D01*
X133476000Y-112517349D02*
X125524000Y-112517349D01*
X133485000Y-112477349D02*
X125515000Y-112477349D01*
X133493000Y-112437349D02*
X125507000Y-112437349D01*
X133502000Y-112397349D02*
X125498000Y-112397349D01*
X133509000Y-112357349D02*
X125491000Y-112357349D01*
X133517000Y-112317349D02*
X125483000Y-112317349D01*
X133523000Y-112277349D02*
X125477000Y-112277349D01*
X133530000Y-112237349D02*
X125470000Y-112237349D01*
X133536000Y-112197349D02*
X125464000Y-112197349D01*
X133542000Y-112157349D02*
X125458000Y-112157349D01*
X133547000Y-112117349D02*
X125453000Y-112117349D01*
X133552000Y-112077349D02*
X125448000Y-112077349D01*
X133556000Y-112037349D02*
X125444000Y-112037349D01*
X133561000Y-111997349D02*
X125439000Y-111997349D01*
X133564000Y-111957349D02*
X125436000Y-111957349D01*
X133568000Y-111917349D02*
X125432000Y-111917349D01*
X133570000Y-111877349D02*
X125430000Y-111877349D01*
X133573000Y-111837349D02*
X125427000Y-111837349D01*
X133575000Y-111797349D02*
X125425000Y-111797349D01*
X133577000Y-111757349D02*
X125423000Y-111757349D01*
X133578000Y-111717349D02*
X125422000Y-111717349D01*
X133579000Y-111677349D02*
X125421000Y-111677349D01*
X133580000Y-111597349D02*
X125420000Y-111597349D01*
X133580000Y-111637349D02*
X125420000Y-111637349D01*
X133620000Y-111597349D02*
G75*
G02*
X125380000Y-111597349I-4120000J0D01*
G01*
X125380000Y-111597349D02*
G75*
G02*
X133620000Y-111597349I4120000J0D01*
G01*
%TO.C,J4*%
X146015000Y-101260000D02*
X146015000Y-102860000D01*
X146015000Y-102860000D02*
X147815000Y-102860000D01*
X147285000Y-98390000D02*
X150715000Y-98390000D01*
X147815000Y-102860000D02*
X147815000Y-103800000D01*
X151985000Y-101260000D02*
X151985000Y-102860000D01*
X151985000Y-102860000D02*
X150185000Y-102860000D01*
%TO.C,R1*%
X139477500Y-110745276D02*
X139477500Y-111254724D01*
X140522500Y-110745276D02*
X140522500Y-111254724D01*
%TO.C,J2*%
X142510000Y-115790000D02*
X133790000Y-115790000D01*
X144210000Y-117090000D02*
X142510000Y-115790000D01*
X144210000Y-119910000D02*
X144210000Y-117090000D01*
X144210000Y-119910000D02*
X142510000Y-121210000D01*
X142510000Y-121210000D02*
X133790000Y-121210000D01*
X133790000Y-121210000D02*
X133790000Y-115790000D01*
%TO.C,R3*%
X138772936Y-99765000D02*
X139227064Y-99765000D01*
X138772936Y-101235000D02*
X139227064Y-101235000D01*
%TO.C,L1*%
D13*
X143590000Y-86475000D02*
X132410000Y-86475000D01*
X143590000Y-97525000D02*
X132410000Y-97525000D01*
D14*
X144100000Y-92000000D02*
X144100000Y-92000000D01*
X144200000Y-92000000D02*
X144200000Y-92000000D01*
X144100000Y-92000000D02*
G75*
G02*
X144200000Y-92000000I50000J0D01*
G01*
X144200000Y-92000000D02*
G75*
G02*
X144100000Y-92000000I-50000J0D01*
G01*
%TO.C,D1*%
D12*
X127500000Y-106210000D02*
X127500000Y-102350000D01*
X127500000Y-106210000D02*
X129500000Y-106210000D01*
X129500000Y-106210000D02*
X129500000Y-102350000D01*
%TO.C,TP2*%
X127600000Y-95600000D02*
X127600000Y-99400000D01*
X127600000Y-99400000D02*
X129400000Y-99400000D01*
X129400000Y-95600000D02*
X127600000Y-95600000D01*
X129400000Y-99400000D02*
X129400000Y-95600000D01*
%TO.C,R4*%
X142977500Y-105754724D02*
X142977500Y-105245276D01*
X144022500Y-105754724D02*
X144022500Y-105245276D01*
%TO.C,J1*%
X146790000Y-108290000D02*
X152210000Y-108290000D01*
X146790000Y-117010000D02*
X146790000Y-108290000D01*
X148090000Y-118710000D02*
X146790000Y-117010000D01*
X148090000Y-118710000D02*
X150910000Y-118710000D01*
X150910000Y-118710000D02*
X152210000Y-117010000D01*
X152210000Y-117010000D02*
X152210000Y-108290000D01*
%TD*%
%LPC*%
D15*
%TO.C,C2*%
X136137500Y-114000000D03*
X137862500Y-114000000D03*
%TD*%
%TO.C,C1*%
X130637500Y-100000000D03*
X132362500Y-100000000D03*
%TD*%
D16*
%TO.C,C5*%
X143500000Y-110050000D03*
X143500000Y-111950000D03*
%TD*%
D17*
%TO.C,R2*%
X137912500Y-109000000D03*
X136087500Y-109000000D03*
%TD*%
D18*
%TO.C,U1*%
X133025000Y-103095000D03*
X133025000Y-104365000D03*
X133025000Y-105635000D03*
X133025000Y-106905000D03*
X137975000Y-106905000D03*
X137975000Y-105635000D03*
X137975000Y-104365000D03*
X137975000Y-103095000D03*
%TD*%
D19*
%TO.C,TP1*%
X143500000Y-100000000D03*
X143500000Y-102000000D03*
%TD*%
D20*
%TO.C,H2*%
X150000000Y-87500000D03*
%TD*%
D21*
%TO.C,J3*%
X148375000Y-95450000D03*
X149625000Y-95450000D03*
D22*
X146525000Y-92100000D03*
X151475000Y-92100000D03*
%TD*%
D20*
%TO.C,H3*%
X128000000Y-122500000D03*
%TD*%
D23*
%TO.C,C4*%
X129500000Y-109097349D03*
D24*
X129500000Y-114097349D03*
%TD*%
D21*
%TO.C,J4*%
X148375000Y-102950000D03*
X149625000Y-102950000D03*
D22*
X146525000Y-99600000D03*
X151475000Y-99600000D03*
%TD*%
D20*
%TO.C,H1*%
X128000000Y-87500000D03*
%TD*%
D25*
%TO.C,R1*%
X140000000Y-110087500D03*
X140000000Y-111912500D03*
%TD*%
D26*
%TO.C,J2*%
X141500000Y-118500000D03*
D27*
X136500000Y-118500000D03*
%TD*%
D28*
%TO.C,R3*%
X138000000Y-100500000D03*
X140000000Y-100500000D03*
%TD*%
D29*
%TO.C,L1*%
X142570000Y-92000000D03*
X133430000Y-92000000D03*
%TD*%
D20*
%TO.C,H4*%
X150000000Y-122000000D03*
%TD*%
D30*
%TO.C,D1*%
X128500000Y-105400000D03*
X128500000Y-102600000D03*
%TD*%
D19*
%TO.C,TP2*%
X128500000Y-96500000D03*
X128500000Y-98500000D03*
%TD*%
D31*
%TO.C,R4*%
X143500000Y-106412500D03*
X143500000Y-104587500D03*
%TD*%
D32*
%TO.C,J1*%
X149500000Y-116000000D03*
D33*
X149500000Y-111000000D03*
%TD*%
%LPD*%
M02*
