%TF.GenerationSoftware,KiCad,Pcbnew,9.0.7*%
%TF.CreationDate,2026-03-06T18:26:03-06:00*%
%TF.ProjectId,Onboarding,4f6e626f-6172-4646-996e-672e6b696361,rev?*%
%TF.SameCoordinates,Original*%
%TF.FileFunction,Legend,Top*%
%TF.FilePolarity,Positive*%
%FSLAX46Y46*%
G04 Gerber Fmt 4.6, Leading zero omitted, Abs format (unit mm)*
G04 Created by KiCad (PCBNEW 9.0.7) date 2026-03-06 18:26:03*
%MOMM*%
%LPD*%
G01*
G04 APERTURE LIST*
G04 Aperture macros list*
%AMRoundRect*
0 Rectangle with rounded corners*
0 $1 Rounding radius*
0 $2 $3 $4 $5 $6 $7 $8 $9 X,Y pos of 4 corners*
0 Add a 4 corners polygon primitive as box body*
4,1,4,$2,$3,$4,$5,$6,$7,$8,$9,$2,$3,0*
0 Add four circle primitives for the rounded corners*
1,1,$1+$1,$2,$3*
1,1,$1+$1,$4,$5*
1,1,$1+$1,$6,$7*
1,1,$1+$1,$8,$9*
0 Add four rect primitives between the rounded corners*
20,1,$1+$1,$2,$3,$4,$5,0*
20,1,$1+$1,$4,$5,$6,$7,0*
20,1,$1+$1,$6,$7,$8,$9,0*
20,1,$1+$1,$8,$9,$2,$3,0*%
G04 Aperture macros list end*
%ADD10C,0.150000*%
%ADD11C,0.254000*%
%ADD12C,0.120000*%
%ADD13C,0.100000*%
%ADD14C,0.200000*%
%ADD15RoundRect,0.237500X0.237500X-0.250000X0.237500X0.250000X-0.237500X0.250000X-0.237500X-0.250000X0*%
%ADD16C,1.400000*%
%ADD17RoundRect,0.250000X0.250000X1.150000X-0.250000X1.150000X-0.250000X-1.150000X0.250000X-1.150000X0*%
%ADD18RoundRect,0.150000X0.150000X0.700000X-0.150000X0.700000X-0.150000X-0.700000X0.150000X-0.700000X0*%
%ADD19RoundRect,0.250000X0.475000X-0.250000X0.475000X0.250000X-0.475000X0.250000X-0.475000X-0.250000X0*%
%ADD20RoundRect,0.237500X-0.237500X0.250000X-0.237500X-0.250000X0.237500X-0.250000X0.237500X0.250000X0*%
%ADD21RoundRect,0.250000X-0.450000X0.350000X-0.450000X-0.350000X0.450000X-0.350000X0.450000X0.350000X0*%
%ADD22RoundRect,0.150000X0.825000X0.150000X-0.825000X0.150000X-0.825000X-0.150000X0.825000X-0.150000X0*%
%ADD23RoundRect,0.237500X-0.300000X-0.237500X0.300000X-0.237500X0.300000X0.237500X-0.300000X0.237500X0*%
%ADD24RoundRect,0.243750X-0.243750X-0.456250X0.243750X-0.456250X0.243750X0.456250X-0.243750X0.456250X0*%
%ADD25C,2.200000*%
%ADD26RoundRect,0.250000X-0.550000X-0.550000X0.550000X-0.550000X0.550000X0.550000X-0.550000X0.550000X0*%
%ADD27C,1.600000*%
%ADD28RoundRect,0.760000X-1.140000X-1.140000X1.140000X-1.140000X1.140000X1.140000X-1.140000X1.140000X0*%
%ADD29C,4.000000*%
%ADD30R,1.520000X10.160000*%
G04 APERTURE END LIST*
D10*
X106024819Y-86166666D02*
X105548628Y-86499999D01*
X106024819Y-86738094D02*
X105024819Y-86738094D01*
X105024819Y-86738094D02*
X105024819Y-86357142D01*
X105024819Y-86357142D02*
X105072438Y-86261904D01*
X105072438Y-86261904D02*
X105120057Y-86214285D01*
X105120057Y-86214285D02*
X105215295Y-86166666D01*
X105215295Y-86166666D02*
X105358152Y-86166666D01*
X105358152Y-86166666D02*
X105453390Y-86214285D01*
X105453390Y-86214285D02*
X105501009Y-86261904D01*
X105501009Y-86261904D02*
X105548628Y-86357142D01*
X105548628Y-86357142D02*
X105548628Y-86738094D01*
X105120057Y-85785713D02*
X105072438Y-85738094D01*
X105072438Y-85738094D02*
X105024819Y-85642856D01*
X105024819Y-85642856D02*
X105024819Y-85404761D01*
X105024819Y-85404761D02*
X105072438Y-85309523D01*
X105072438Y-85309523D02*
X105120057Y-85261904D01*
X105120057Y-85261904D02*
X105215295Y-85214285D01*
X105215295Y-85214285D02*
X105310533Y-85214285D01*
X105310533Y-85214285D02*
X105453390Y-85261904D01*
X105453390Y-85261904D02*
X106024819Y-85833332D01*
X106024819Y-85833332D02*
X106024819Y-85214285D01*
X109338095Y-96654819D02*
X109909523Y-96654819D01*
X109623809Y-97654819D02*
X109623809Y-96654819D01*
X110242857Y-97654819D02*
X110242857Y-96654819D01*
X110242857Y-96654819D02*
X110623809Y-96654819D01*
X110623809Y-96654819D02*
X110719047Y-96702438D01*
X110719047Y-96702438D02*
X110766666Y-96750057D01*
X110766666Y-96750057D02*
X110814285Y-96845295D01*
X110814285Y-96845295D02*
X110814285Y-96988152D01*
X110814285Y-96988152D02*
X110766666Y-97083390D01*
X110766666Y-97083390D02*
X110719047Y-97131009D01*
X110719047Y-97131009D02*
X110623809Y-97178628D01*
X110623809Y-97178628D02*
X110242857Y-97178628D01*
X111766666Y-97654819D02*
X111195238Y-97654819D01*
X111480952Y-97654819D02*
X111480952Y-96654819D01*
X111480952Y-96654819D02*
X111385714Y-96797676D01*
X111385714Y-96797676D02*
X111290476Y-96892914D01*
X111290476Y-96892914D02*
X111195238Y-96940533D01*
X88166666Y-90454819D02*
X88166666Y-91169104D01*
X88166666Y-91169104D02*
X88119047Y-91311961D01*
X88119047Y-91311961D02*
X88023809Y-91407200D01*
X88023809Y-91407200D02*
X87880952Y-91454819D01*
X87880952Y-91454819D02*
X87785714Y-91454819D01*
X88547619Y-90454819D02*
X89166666Y-90454819D01*
X89166666Y-90454819D02*
X88833333Y-90835771D01*
X88833333Y-90835771D02*
X88976190Y-90835771D01*
X88976190Y-90835771D02*
X89071428Y-90883390D01*
X89071428Y-90883390D02*
X89119047Y-90931009D01*
X89119047Y-90931009D02*
X89166666Y-91026247D01*
X89166666Y-91026247D02*
X89166666Y-91264342D01*
X89166666Y-91264342D02*
X89119047Y-91359580D01*
X89119047Y-91359580D02*
X89071428Y-91407200D01*
X89071428Y-91407200D02*
X88976190Y-91454819D01*
X88976190Y-91454819D02*
X88690476Y-91454819D01*
X88690476Y-91454819D02*
X88595238Y-91407200D01*
X88595238Y-91407200D02*
X88547619Y-91359580D01*
X90166666Y-82954819D02*
X90166666Y-83669104D01*
X90166666Y-83669104D02*
X90119047Y-83811961D01*
X90119047Y-83811961D02*
X90023809Y-83907200D01*
X90023809Y-83907200D02*
X89880952Y-83954819D01*
X89880952Y-83954819D02*
X89785714Y-83954819D01*
X91071428Y-83288152D02*
X91071428Y-83954819D01*
X90833333Y-82907200D02*
X90595238Y-83621485D01*
X90595238Y-83621485D02*
X91214285Y-83621485D01*
X99154819Y-100661904D02*
X99154819Y-100090476D01*
X100154819Y-100376190D02*
X99154819Y-100376190D01*
X100154819Y-99757142D02*
X99154819Y-99757142D01*
X99154819Y-99757142D02*
X99154819Y-99376190D01*
X99154819Y-99376190D02*
X99202438Y-99280952D01*
X99202438Y-99280952D02*
X99250057Y-99233333D01*
X99250057Y-99233333D02*
X99345295Y-99185714D01*
X99345295Y-99185714D02*
X99488152Y-99185714D01*
X99488152Y-99185714D02*
X99583390Y-99233333D01*
X99583390Y-99233333D02*
X99631009Y-99280952D01*
X99631009Y-99280952D02*
X99678628Y-99376190D01*
X99678628Y-99376190D02*
X99678628Y-99757142D01*
X99250057Y-98804761D02*
X99202438Y-98757142D01*
X99202438Y-98757142D02*
X99154819Y-98661904D01*
X99154819Y-98661904D02*
X99154819Y-98423809D01*
X99154819Y-98423809D02*
X99202438Y-98328571D01*
X99202438Y-98328571D02*
X99250057Y-98280952D01*
X99250057Y-98280952D02*
X99345295Y-98233333D01*
X99345295Y-98233333D02*
X99440533Y-98233333D01*
X99440533Y-98233333D02*
X99583390Y-98280952D01*
X99583390Y-98280952D02*
X100154819Y-98852380D01*
X100154819Y-98852380D02*
X100154819Y-98233333D01*
X87179580Y-100166666D02*
X87227200Y-100214285D01*
X87227200Y-100214285D02*
X87274819Y-100357142D01*
X87274819Y-100357142D02*
X87274819Y-100452380D01*
X87274819Y-100452380D02*
X87227200Y-100595237D01*
X87227200Y-100595237D02*
X87131961Y-100690475D01*
X87131961Y-100690475D02*
X87036723Y-100738094D01*
X87036723Y-100738094D02*
X86846247Y-100785713D01*
X86846247Y-100785713D02*
X86703390Y-100785713D01*
X86703390Y-100785713D02*
X86512914Y-100738094D01*
X86512914Y-100738094D02*
X86417676Y-100690475D01*
X86417676Y-100690475D02*
X86322438Y-100595237D01*
X86322438Y-100595237D02*
X86274819Y-100452380D01*
X86274819Y-100452380D02*
X86274819Y-100357142D01*
X86274819Y-100357142D02*
X86322438Y-100214285D01*
X86322438Y-100214285D02*
X86370057Y-100166666D01*
X86608152Y-99309523D02*
X87274819Y-99309523D01*
X86227200Y-99547618D02*
X86941485Y-99785713D01*
X86941485Y-99785713D02*
X86941485Y-99166666D01*
X93884819Y-100166666D02*
X93408628Y-100499999D01*
X93884819Y-100738094D02*
X92884819Y-100738094D01*
X92884819Y-100738094D02*
X92884819Y-100357142D01*
X92884819Y-100357142D02*
X92932438Y-100261904D01*
X92932438Y-100261904D02*
X92980057Y-100214285D01*
X92980057Y-100214285D02*
X93075295Y-100166666D01*
X93075295Y-100166666D02*
X93218152Y-100166666D01*
X93218152Y-100166666D02*
X93313390Y-100214285D01*
X93313390Y-100214285D02*
X93361009Y-100261904D01*
X93361009Y-100261904D02*
X93408628Y-100357142D01*
X93408628Y-100357142D02*
X93408628Y-100738094D01*
X92884819Y-99833332D02*
X92884819Y-99214285D01*
X92884819Y-99214285D02*
X93265771Y-99547618D01*
X93265771Y-99547618D02*
X93265771Y-99404761D01*
X93265771Y-99404761D02*
X93313390Y-99309523D01*
X93313390Y-99309523D02*
X93361009Y-99261904D01*
X93361009Y-99261904D02*
X93456247Y-99214285D01*
X93456247Y-99214285D02*
X93694342Y-99214285D01*
X93694342Y-99214285D02*
X93789580Y-99261904D01*
X93789580Y-99261904D02*
X93837200Y-99309523D01*
X93837200Y-99309523D02*
X93884819Y-99404761D01*
X93884819Y-99404761D02*
X93884819Y-99690475D01*
X93884819Y-99690475D02*
X93837200Y-99785713D01*
X93837200Y-99785713D02*
X93789580Y-99833332D01*
X96604819Y-99666666D02*
X96128628Y-99999999D01*
X96604819Y-100238094D02*
X95604819Y-100238094D01*
X95604819Y-100238094D02*
X95604819Y-99857142D01*
X95604819Y-99857142D02*
X95652438Y-99761904D01*
X95652438Y-99761904D02*
X95700057Y-99714285D01*
X95700057Y-99714285D02*
X95795295Y-99666666D01*
X95795295Y-99666666D02*
X95938152Y-99666666D01*
X95938152Y-99666666D02*
X96033390Y-99714285D01*
X96033390Y-99714285D02*
X96081009Y-99761904D01*
X96081009Y-99761904D02*
X96128628Y-99857142D01*
X96128628Y-99857142D02*
X96128628Y-100238094D01*
X96604819Y-98714285D02*
X96604819Y-99285713D01*
X96604819Y-98999999D02*
X95604819Y-98999999D01*
X95604819Y-98999999D02*
X95747676Y-99095237D01*
X95747676Y-99095237D02*
X95842914Y-99190475D01*
X95842914Y-99190475D02*
X95890533Y-99285713D01*
X107238095Y-102854819D02*
X107238095Y-103664342D01*
X107238095Y-103664342D02*
X107285714Y-103759580D01*
X107285714Y-103759580D02*
X107333333Y-103807200D01*
X107333333Y-103807200D02*
X107428571Y-103854819D01*
X107428571Y-103854819D02*
X107619047Y-103854819D01*
X107619047Y-103854819D02*
X107714285Y-103807200D01*
X107714285Y-103807200D02*
X107761904Y-103759580D01*
X107761904Y-103759580D02*
X107809523Y-103664342D01*
X107809523Y-103664342D02*
X107809523Y-102854819D01*
X108238095Y-102950057D02*
X108285714Y-102902438D01*
X108285714Y-102902438D02*
X108380952Y-102854819D01*
X108380952Y-102854819D02*
X108619047Y-102854819D01*
X108619047Y-102854819D02*
X108714285Y-102902438D01*
X108714285Y-102902438D02*
X108761904Y-102950057D01*
X108761904Y-102950057D02*
X108809523Y-103045295D01*
X108809523Y-103045295D02*
X108809523Y-103140533D01*
X108809523Y-103140533D02*
X108761904Y-103283390D01*
X108761904Y-103283390D02*
X108190476Y-103854819D01*
X108190476Y-103854819D02*
X108809523Y-103854819D01*
X115833333Y-95929580D02*
X115785714Y-95977200D01*
X115785714Y-95977200D02*
X115642857Y-96024819D01*
X115642857Y-96024819D02*
X115547619Y-96024819D01*
X115547619Y-96024819D02*
X115404762Y-95977200D01*
X115404762Y-95977200D02*
X115309524Y-95881961D01*
X115309524Y-95881961D02*
X115261905Y-95786723D01*
X115261905Y-95786723D02*
X115214286Y-95596247D01*
X115214286Y-95596247D02*
X115214286Y-95453390D01*
X115214286Y-95453390D02*
X115261905Y-95262914D01*
X115261905Y-95262914D02*
X115309524Y-95167676D01*
X115309524Y-95167676D02*
X115404762Y-95072438D01*
X115404762Y-95072438D02*
X115547619Y-95024819D01*
X115547619Y-95024819D02*
X115642857Y-95024819D01*
X115642857Y-95024819D02*
X115785714Y-95072438D01*
X115785714Y-95072438D02*
X115833333Y-95120057D01*
X116214286Y-95120057D02*
X116261905Y-95072438D01*
X116261905Y-95072438D02*
X116357143Y-95024819D01*
X116357143Y-95024819D02*
X116595238Y-95024819D01*
X116595238Y-95024819D02*
X116690476Y-95072438D01*
X116690476Y-95072438D02*
X116738095Y-95120057D01*
X116738095Y-95120057D02*
X116785714Y-95215295D01*
X116785714Y-95215295D02*
X116785714Y-95310533D01*
X116785714Y-95310533D02*
X116738095Y-95453390D01*
X116738095Y-95453390D02*
X116166667Y-96024819D01*
X116166667Y-96024819D02*
X116785714Y-96024819D01*
X103384819Y-99166666D02*
X102908628Y-99499999D01*
X103384819Y-99738094D02*
X102384819Y-99738094D01*
X102384819Y-99738094D02*
X102384819Y-99357142D01*
X102384819Y-99357142D02*
X102432438Y-99261904D01*
X102432438Y-99261904D02*
X102480057Y-99214285D01*
X102480057Y-99214285D02*
X102575295Y-99166666D01*
X102575295Y-99166666D02*
X102718152Y-99166666D01*
X102718152Y-99166666D02*
X102813390Y-99214285D01*
X102813390Y-99214285D02*
X102861009Y-99261904D01*
X102861009Y-99261904D02*
X102908628Y-99357142D01*
X102908628Y-99357142D02*
X102908628Y-99738094D01*
X102718152Y-98309523D02*
X103384819Y-98309523D01*
X102337200Y-98547618D02*
X103051485Y-98785713D01*
X103051485Y-98785713D02*
X103051485Y-98166666D01*
X109761905Y-90804819D02*
X109761905Y-89804819D01*
X109761905Y-89804819D02*
X110000000Y-89804819D01*
X110000000Y-89804819D02*
X110142857Y-89852438D01*
X110142857Y-89852438D02*
X110238095Y-89947676D01*
X110238095Y-89947676D02*
X110285714Y-90042914D01*
X110285714Y-90042914D02*
X110333333Y-90233390D01*
X110333333Y-90233390D02*
X110333333Y-90376247D01*
X110333333Y-90376247D02*
X110285714Y-90566723D01*
X110285714Y-90566723D02*
X110238095Y-90661961D01*
X110238095Y-90661961D02*
X110142857Y-90757200D01*
X110142857Y-90757200D02*
X110000000Y-90804819D01*
X110000000Y-90804819D02*
X109761905Y-90804819D01*
X110714286Y-89900057D02*
X110761905Y-89852438D01*
X110761905Y-89852438D02*
X110857143Y-89804819D01*
X110857143Y-89804819D02*
X111095238Y-89804819D01*
X111095238Y-89804819D02*
X111190476Y-89852438D01*
X111190476Y-89852438D02*
X111238095Y-89900057D01*
X111238095Y-89900057D02*
X111285714Y-89995295D01*
X111285714Y-89995295D02*
X111285714Y-90090533D01*
X111285714Y-90090533D02*
X111238095Y-90233390D01*
X111238095Y-90233390D02*
X110666667Y-90804819D01*
X110666667Y-90804819D02*
X111285714Y-90804819D01*
X83238095Y-76304819D02*
X83238095Y-75304819D01*
X83238095Y-75781009D02*
X83809523Y-75781009D01*
X83809523Y-76304819D02*
X83809523Y-75304819D01*
X84809523Y-76304819D02*
X84238095Y-76304819D01*
X84523809Y-76304819D02*
X84523809Y-75304819D01*
X84523809Y-75304819D02*
X84428571Y-75447676D01*
X84428571Y-75447676D02*
X84333333Y-75542914D01*
X84333333Y-75542914D02*
X84238095Y-75590533D01*
X115238095Y-76304819D02*
X115238095Y-75304819D01*
X115238095Y-75781009D02*
X115809523Y-75781009D01*
X115809523Y-76304819D02*
X115809523Y-75304819D01*
X116238095Y-75400057D02*
X116285714Y-75352438D01*
X116285714Y-75352438D02*
X116380952Y-75304819D01*
X116380952Y-75304819D02*
X116619047Y-75304819D01*
X116619047Y-75304819D02*
X116714285Y-75352438D01*
X116714285Y-75352438D02*
X116761904Y-75400057D01*
X116761904Y-75400057D02*
X116809523Y-75495295D01*
X116809523Y-75495295D02*
X116809523Y-75590533D01*
X116809523Y-75590533D02*
X116761904Y-75733390D01*
X116761904Y-75733390D02*
X116190476Y-76304819D01*
X116190476Y-76304819D02*
X116809523Y-76304819D01*
X115238095Y-98304819D02*
X115238095Y-97304819D01*
X115238095Y-97781009D02*
X115809523Y-97781009D01*
X115809523Y-98304819D02*
X115809523Y-97304819D01*
X116190476Y-97304819D02*
X116809523Y-97304819D01*
X116809523Y-97304819D02*
X116476190Y-97685771D01*
X116476190Y-97685771D02*
X116619047Y-97685771D01*
X116619047Y-97685771D02*
X116714285Y-97733390D01*
X116714285Y-97733390D02*
X116761904Y-97781009D01*
X116761904Y-97781009D02*
X116809523Y-97876247D01*
X116809523Y-97876247D02*
X116809523Y-98114342D01*
X116809523Y-98114342D02*
X116761904Y-98209580D01*
X116761904Y-98209580D02*
X116714285Y-98257200D01*
X116714285Y-98257200D02*
X116619047Y-98304819D01*
X116619047Y-98304819D02*
X116333333Y-98304819D01*
X116333333Y-98304819D02*
X116238095Y-98257200D01*
X116238095Y-98257200D02*
X116190476Y-98209580D01*
X83238095Y-98304819D02*
X83238095Y-97304819D01*
X83238095Y-97781009D02*
X83809523Y-97781009D01*
X83809523Y-98304819D02*
X83809523Y-97304819D01*
X84714285Y-97638152D02*
X84714285Y-98304819D01*
X84476190Y-97257200D02*
X84238095Y-97971485D01*
X84238095Y-97971485D02*
X84857142Y-97971485D01*
X112430682Y-80609580D02*
X112383063Y-80657200D01*
X112383063Y-80657200D02*
X112240206Y-80704819D01*
X112240206Y-80704819D02*
X112144968Y-80704819D01*
X112144968Y-80704819D02*
X112002111Y-80657200D01*
X112002111Y-80657200D02*
X111906873Y-80561961D01*
X111906873Y-80561961D02*
X111859254Y-80466723D01*
X111859254Y-80466723D02*
X111811635Y-80276247D01*
X111811635Y-80276247D02*
X111811635Y-80133390D01*
X111811635Y-80133390D02*
X111859254Y-79942914D01*
X111859254Y-79942914D02*
X111906873Y-79847676D01*
X111906873Y-79847676D02*
X112002111Y-79752438D01*
X112002111Y-79752438D02*
X112144968Y-79704819D01*
X112144968Y-79704819D02*
X112240206Y-79704819D01*
X112240206Y-79704819D02*
X112383063Y-79752438D01*
X112383063Y-79752438D02*
X112430682Y-79800057D01*
X113383063Y-80704819D02*
X112811635Y-80704819D01*
X113097349Y-80704819D02*
X113097349Y-79704819D01*
X113097349Y-79704819D02*
X113002111Y-79847676D01*
X113002111Y-79847676D02*
X112906873Y-79942914D01*
X112906873Y-79942914D02*
X112811635Y-79990533D01*
X101666666Y-74454819D02*
X101666666Y-75169104D01*
X101666666Y-75169104D02*
X101619047Y-75311961D01*
X101619047Y-75311961D02*
X101523809Y-75407200D01*
X101523809Y-75407200D02*
X101380952Y-75454819D01*
X101380952Y-75454819D02*
X101285714Y-75454819D01*
X102095238Y-74550057D02*
X102142857Y-74502438D01*
X102142857Y-74502438D02*
X102238095Y-74454819D01*
X102238095Y-74454819D02*
X102476190Y-74454819D01*
X102476190Y-74454819D02*
X102571428Y-74502438D01*
X102571428Y-74502438D02*
X102619047Y-74550057D01*
X102619047Y-74550057D02*
X102666666Y-74645295D01*
X102666666Y-74645295D02*
X102666666Y-74740533D01*
X102666666Y-74740533D02*
X102619047Y-74883390D01*
X102619047Y-74883390D02*
X102047619Y-75454819D01*
X102047619Y-75454819D02*
X102666666Y-75454819D01*
X107928571Y-79114700D02*
X109071429Y-79114700D01*
X108500000Y-79686128D02*
X108500000Y-78543271D01*
X94928571Y-79114700D02*
X96071429Y-79114700D01*
X86166666Y-89454819D02*
X86166666Y-90169104D01*
X86166666Y-90169104D02*
X86119047Y-90311961D01*
X86119047Y-90311961D02*
X86023809Y-90407200D01*
X86023809Y-90407200D02*
X85880952Y-90454819D01*
X85880952Y-90454819D02*
X85785714Y-90454819D01*
X87166666Y-90454819D02*
X86595238Y-90454819D01*
X86880952Y-90454819D02*
X86880952Y-89454819D01*
X86880952Y-89454819D02*
X86785714Y-89597676D01*
X86785714Y-89597676D02*
X86690476Y-89692914D01*
X86690476Y-89692914D02*
X86595238Y-89740533D01*
X92428571Y-94114700D02*
X93571429Y-94114700D01*
X93000000Y-94686128D02*
X93000000Y-93543271D01*
X79428571Y-94114700D02*
X80571429Y-94114700D01*
D11*
X98788333Y-90574318D02*
X98183571Y-90574318D01*
X98183571Y-90574318D02*
X98183571Y-89304318D01*
X99876905Y-90574318D02*
X99151190Y-90574318D01*
X99514047Y-90574318D02*
X99514047Y-89304318D01*
X99514047Y-89304318D02*
X99393095Y-89485746D01*
X99393095Y-89485746D02*
X99272143Y-89606699D01*
X99272143Y-89606699D02*
X99151190Y-89667175D01*
D12*
%TO.C,R2*%
X106477500Y-86254724D02*
X106477500Y-85745276D01*
X107522500Y-86254724D02*
X107522500Y-85745276D01*
%TO.C,TP1*%
X112400000Y-94600000D02*
X108600000Y-94600000D01*
X108600000Y-94600000D02*
X108600000Y-96400000D01*
X112400000Y-96400000D02*
X112400000Y-94600000D01*
X108600000Y-96400000D02*
X112400000Y-96400000D01*
%TO.C,J3*%
X91485000Y-85140000D02*
X89685000Y-85140000D01*
X89685000Y-85140000D02*
X89685000Y-84200000D01*
X85515000Y-85140000D02*
X87315000Y-85140000D01*
X91485000Y-86740000D02*
X91485000Y-85140000D01*
X85515000Y-86740000D02*
X85515000Y-85140000D01*
X90215000Y-89610000D02*
X86785000Y-89610000D01*
%TO.C,J4*%
X92215000Y-82110000D02*
X88785000Y-82110000D01*
X87515000Y-79240000D02*
X87515000Y-77640000D01*
X93485000Y-79240000D02*
X93485000Y-77640000D01*
X87515000Y-77640000D02*
X89315000Y-77640000D01*
X91685000Y-77640000D02*
X91685000Y-76700000D01*
X93485000Y-77640000D02*
X91685000Y-77640000D01*
%TO.C,TP2*%
X98900000Y-101400000D02*
X98900000Y-97600000D01*
X98900000Y-97600000D02*
X97100000Y-97600000D01*
X97100000Y-101400000D02*
X98900000Y-101400000D01*
X97100000Y-97600000D02*
X97100000Y-101400000D01*
%TO.C,C4*%
X89235000Y-100261252D02*
X89235000Y-99738748D01*
X87765000Y-100261252D02*
X87765000Y-99738748D01*
%TO.C,R3*%
X91477500Y-99745276D02*
X91477500Y-100254724D01*
X92522500Y-99745276D02*
X92522500Y-100254724D01*
%TO.C,R1*%
X93765000Y-99272936D02*
X93765000Y-99727064D01*
X95235000Y-99272936D02*
X95235000Y-99727064D01*
%TO.C,U2*%
X110940000Y-102795000D02*
X110460000Y-102795000D01*
X110700000Y-102465000D01*
X110940000Y-102795000D01*
G36*
X110940000Y-102795000D02*
G01*
X110460000Y-102795000D01*
X110700000Y-102465000D01*
X110940000Y-102795000D01*
G37*
X108000000Y-102560000D02*
X109950000Y-102560000D01*
X108000000Y-102560000D02*
X106050000Y-102560000D01*
X108000000Y-97440000D02*
X109950000Y-97440000D01*
X108000000Y-97440000D02*
X106050000Y-97440000D01*
%TO.C,C2*%
X115853733Y-97510000D02*
X116146267Y-97510000D01*
X115853733Y-96490000D02*
X116146267Y-96490000D01*
%TO.C,R4*%
X102022500Y-98745276D02*
X102022500Y-99254724D01*
X100977500Y-98745276D02*
X100977500Y-99254724D01*
%TO.C,D2*%
X108815000Y-91040000D02*
X108815000Y-92960000D01*
X108815000Y-92960000D02*
X111500000Y-92960000D01*
X111500000Y-91040000D02*
X108815000Y-91040000D01*
%TO.C,C1*%
X108187651Y-83185000D02*
X108987651Y-83185000D01*
X108587651Y-82785000D02*
X108587651Y-83585000D01*
X112597349Y-81420000D02*
X112597349Y-89580000D01*
X112637349Y-81420000D02*
X112637349Y-89580000D01*
X112677349Y-81421000D02*
X112677349Y-89579000D01*
X112717349Y-81422000D02*
X112717349Y-89578000D01*
X112757349Y-81423000D02*
X112757349Y-89577000D01*
X112797349Y-81425000D02*
X112797349Y-89575000D01*
X112837349Y-81427000D02*
X112837349Y-89573000D01*
X112877349Y-81430000D02*
X112877349Y-89570000D01*
X112917349Y-81432000D02*
X112917349Y-89568000D01*
X112957349Y-81436000D02*
X112957349Y-89564000D01*
X112997349Y-81439000D02*
X112997349Y-89561000D01*
X113037349Y-81444000D02*
X113037349Y-89556000D01*
X113077349Y-81448000D02*
X113077349Y-89552000D01*
X113117349Y-81453000D02*
X113117349Y-89547000D01*
X113157349Y-81458000D02*
X113157349Y-89542000D01*
X113197349Y-81464000D02*
X113197349Y-89536000D01*
X113237349Y-81470000D02*
X113237349Y-89530000D01*
X113277349Y-81477000D02*
X113277349Y-89523000D01*
X113317349Y-81483000D02*
X113317349Y-89517000D01*
X113357349Y-81491000D02*
X113357349Y-89509000D01*
X113397349Y-81498000D02*
X113397349Y-89502000D01*
X113437349Y-81507000D02*
X113437349Y-89493000D01*
X113477349Y-81515000D02*
X113477349Y-89485000D01*
X113517349Y-81524000D02*
X113517349Y-89476000D01*
X113557349Y-81533000D02*
X113557349Y-89467000D01*
X113597349Y-81543000D02*
X113597349Y-89457000D01*
X113637349Y-81553000D02*
X113637349Y-89447000D01*
X113677349Y-81564000D02*
X113677349Y-89436000D01*
X113717349Y-81575000D02*
X113717349Y-89425000D01*
X113757349Y-81587000D02*
X113757349Y-89413000D01*
X113797349Y-81599000D02*
X113797349Y-89401000D01*
X113837349Y-81611000D02*
X113837349Y-89389000D01*
X113877349Y-81624000D02*
X113877349Y-89376000D01*
X113917349Y-81637000D02*
X113917349Y-89363000D01*
X113957349Y-81651000D02*
X113957349Y-89349000D01*
X113997349Y-81665000D02*
X113997349Y-89335000D01*
X114037349Y-81680000D02*
X114037349Y-89320000D01*
X114077349Y-81695000D02*
X114077349Y-84460000D01*
X114077349Y-86540000D02*
X114077349Y-89305000D01*
X114117349Y-81711000D02*
X114117349Y-84460000D01*
X114117349Y-86540000D02*
X114117349Y-89289000D01*
X114157349Y-81727000D02*
X114157349Y-84460000D01*
X114157349Y-86540000D02*
X114157349Y-89273000D01*
X114197349Y-81743000D02*
X114197349Y-84460000D01*
X114197349Y-86540000D02*
X114197349Y-89257000D01*
X114237349Y-81760000D02*
X114237349Y-84460000D01*
X114237349Y-86540000D02*
X114237349Y-89240000D01*
X114277349Y-81778000D02*
X114277349Y-84460000D01*
X114277349Y-86540000D02*
X114277349Y-89222000D01*
X114317349Y-81796000D02*
X114317349Y-84460000D01*
X114317349Y-86540000D02*
X114317349Y-89204000D01*
X114357349Y-81815000D02*
X114357349Y-84460000D01*
X114357349Y-86540000D02*
X114357349Y-89185000D01*
X114397349Y-81834000D02*
X114397349Y-84460000D01*
X114397349Y-86540000D02*
X114397349Y-89166000D01*
X114437349Y-81854000D02*
X114437349Y-84460000D01*
X114437349Y-86540000D02*
X114437349Y-89146000D01*
X114477349Y-81874000D02*
X114477349Y-84460000D01*
X114477349Y-86540000D02*
X114477349Y-89126000D01*
X114517349Y-81895000D02*
X114517349Y-84460000D01*
X114517349Y-86540000D02*
X114517349Y-89105000D01*
X114557349Y-81916000D02*
X114557349Y-84460000D01*
X114557349Y-86540000D02*
X114557349Y-89084000D01*
X114597349Y-81938000D02*
X114597349Y-84460000D01*
X114597349Y-86540000D02*
X114597349Y-89062000D01*
X114637349Y-81961000D02*
X114637349Y-84460000D01*
X114637349Y-86540000D02*
X114637349Y-89039000D01*
X114677349Y-81984000D02*
X114677349Y-84460000D01*
X114677349Y-86540000D02*
X114677349Y-89016000D01*
X114717349Y-82007000D02*
X114717349Y-84460000D01*
X114717349Y-86540000D02*
X114717349Y-88993000D01*
X114757349Y-82032000D02*
X114757349Y-84460000D01*
X114757349Y-86540000D02*
X114757349Y-88968000D01*
X114797349Y-82057000D02*
X114797349Y-84460000D01*
X114797349Y-86540000D02*
X114797349Y-88943000D01*
X114837349Y-82082000D02*
X114837349Y-84460000D01*
X114837349Y-86540000D02*
X114837349Y-88918000D01*
X114877349Y-82108000D02*
X114877349Y-84460000D01*
X114877349Y-86540000D02*
X114877349Y-88892000D01*
X114917349Y-82135000D02*
X114917349Y-84460000D01*
X114917349Y-86540000D02*
X114917349Y-88865000D01*
X114957349Y-82163000D02*
X114957349Y-84460000D01*
X114957349Y-86540000D02*
X114957349Y-88837000D01*
X114997349Y-82191000D02*
X114997349Y-84460000D01*
X114997349Y-86540000D02*
X114997349Y-88809000D01*
X115037349Y-82220000D02*
X115037349Y-84460000D01*
X115037349Y-86540000D02*
X115037349Y-88780000D01*
X115077349Y-82250000D02*
X115077349Y-84460000D01*
X115077349Y-86540000D02*
X115077349Y-88750000D01*
X115117349Y-82281000D02*
X115117349Y-84460000D01*
X115117349Y-86540000D02*
X115117349Y-88719000D01*
X115157349Y-82312000D02*
X115157349Y-84460000D01*
X115157349Y-86540000D02*
X115157349Y-88688000D01*
X115197349Y-82344000D02*
X115197349Y-84460000D01*
X115197349Y-86540000D02*
X115197349Y-88656000D01*
X115237349Y-82377000D02*
X115237349Y-84460000D01*
X115237349Y-86540000D02*
X115237349Y-88623000D01*
X115277349Y-82411000D02*
X115277349Y-84460000D01*
X115277349Y-86540000D02*
X115277349Y-88589000D01*
X115317349Y-82445000D02*
X115317349Y-84460000D01*
X115317349Y-86540000D02*
X115317349Y-88555000D01*
X115357349Y-82481000D02*
X115357349Y-84460000D01*
X115357349Y-86540000D02*
X115357349Y-88519000D01*
X115397349Y-82518000D02*
X115397349Y-84460000D01*
X115397349Y-86540000D02*
X115397349Y-88482000D01*
X115437349Y-82555000D02*
X115437349Y-84460000D01*
X115437349Y-86540000D02*
X115437349Y-88445000D01*
X115477349Y-82594000D02*
X115477349Y-84460000D01*
X115477349Y-86540000D02*
X115477349Y-88406000D01*
X115517349Y-82633000D02*
X115517349Y-84460000D01*
X115517349Y-86540000D02*
X115517349Y-88367000D01*
X115557349Y-82674000D02*
X115557349Y-84460000D01*
X115557349Y-86540000D02*
X115557349Y-88326000D01*
X115597349Y-82716000D02*
X115597349Y-84460000D01*
X115597349Y-86540000D02*
X115597349Y-88284000D01*
X115637349Y-82759000D02*
X115637349Y-84460000D01*
X115637349Y-86540000D02*
X115637349Y-88241000D01*
X115677349Y-82804000D02*
X115677349Y-84460000D01*
X115677349Y-86540000D02*
X115677349Y-88196000D01*
X115717349Y-82849000D02*
X115717349Y-84460000D01*
X115717349Y-86540000D02*
X115717349Y-88151000D01*
X115757349Y-82896000D02*
X115757349Y-84460000D01*
X115757349Y-86540000D02*
X115757349Y-88104000D01*
X115797349Y-82945000D02*
X115797349Y-84460000D01*
X115797349Y-86540000D02*
X115797349Y-88055000D01*
X115837349Y-82995000D02*
X115837349Y-84460000D01*
X115837349Y-86540000D02*
X115837349Y-88005000D01*
X115877349Y-83047000D02*
X115877349Y-84460000D01*
X115877349Y-86540000D02*
X115877349Y-87953000D01*
X115917349Y-83100000D02*
X115917349Y-84460000D01*
X115917349Y-86540000D02*
X115917349Y-87900000D01*
X115957349Y-83156000D02*
X115957349Y-84460000D01*
X115957349Y-86540000D02*
X115957349Y-87844000D01*
X115997349Y-83213000D02*
X115997349Y-84460000D01*
X115997349Y-86540000D02*
X115997349Y-87787000D01*
X116037349Y-83273000D02*
X116037349Y-84460000D01*
X116037349Y-86540000D02*
X116037349Y-87727000D01*
X116077349Y-83335000D02*
X116077349Y-84460000D01*
X116077349Y-86540000D02*
X116077349Y-87665000D01*
X116117349Y-83399000D02*
X116117349Y-84460000D01*
X116117349Y-86540000D02*
X116117349Y-87601000D01*
X116157349Y-83466000D02*
X116157349Y-87534000D01*
X116197349Y-83536000D02*
X116197349Y-87464000D01*
X116237349Y-83610000D02*
X116237349Y-87390000D01*
X116277349Y-83687000D02*
X116277349Y-87313000D01*
X116317349Y-83769000D02*
X116317349Y-87231000D01*
X116357349Y-83856000D02*
X116357349Y-87144000D01*
X116397349Y-83948000D02*
X116397349Y-87052000D01*
X116437349Y-84047000D02*
X116437349Y-86953000D01*
X116477349Y-84154000D02*
X116477349Y-86846000D01*
X116517349Y-84272000D02*
X116517349Y-86728000D01*
X116557349Y-84403000D02*
X116557349Y-86597000D01*
X116597349Y-84553000D02*
X116597349Y-86447000D01*
X116637349Y-84732000D02*
X116637349Y-86268000D01*
X116677349Y-84967000D02*
X116677349Y-86033000D01*
X116717349Y-85500000D02*
G75*
G02*
X108477349Y-85500000I-4120000J0D01*
G01*
X108477349Y-85500000D02*
G75*
G02*
X116717349Y-85500000I4120000J0D01*
G01*
%TO.C,J2*%
X96790000Y-77590000D02*
X96790000Y-80410000D01*
X96790000Y-77590000D02*
X98490000Y-76290000D01*
X96790000Y-80410000D02*
X98490000Y-81710000D01*
X98490000Y-76290000D02*
X107210000Y-76290000D01*
X98490000Y-81710000D02*
X107210000Y-81710000D01*
X107210000Y-76290000D02*
X107210000Y-81710000D01*
%TO.C,J1*%
X81290000Y-92590000D02*
X81290000Y-95410000D01*
X81290000Y-92590000D02*
X82990000Y-91290000D01*
X81290000Y-95410000D02*
X82990000Y-96710000D01*
X82990000Y-91290000D02*
X91710000Y-91290000D01*
X82990000Y-96710000D02*
X91710000Y-96710000D01*
X91710000Y-91290000D02*
X91710000Y-96710000D01*
D13*
%TO.C,L1*%
X92800000Y-90000000D02*
X92800000Y-90000000D01*
X92900000Y-90000000D02*
X92900000Y-90000000D01*
D14*
X93410000Y-84475000D02*
X104590000Y-84475000D01*
X93410000Y-95525000D02*
X104590000Y-95525000D01*
D13*
X92800000Y-90000000D02*
G75*
G02*
X92900000Y-90000000I50000J0D01*
G01*
X92900000Y-90000000D02*
G75*
G02*
X92800000Y-90000000I-50000J0D01*
G01*
%TD*%
%LPC*%
D15*
%TO.C,R2*%
X107000000Y-85087500D03*
X107000000Y-86912500D03*
%TD*%
D16*
%TO.C,TP1*%
X109500000Y-95500000D03*
X111500000Y-95500000D03*
%TD*%
D17*
%TO.C,J3*%
X86025000Y-88400000D03*
X90975000Y-88400000D03*
D18*
X87875000Y-85050000D03*
X89125000Y-85050000D03*
%TD*%
%TO.C,J4*%
X91125000Y-77550000D03*
X89875000Y-77550000D03*
D17*
X92975000Y-80900000D03*
X88025000Y-80900000D03*
%TD*%
D16*
%TO.C,TP2*%
X98000000Y-98500000D03*
X98000000Y-100500000D03*
%TD*%
D19*
%TO.C,C4*%
X88500000Y-99050000D03*
X88500000Y-100950000D03*
%TD*%
D20*
%TO.C,R3*%
X92000000Y-99087500D03*
X92000000Y-100912500D03*
%TD*%
D21*
%TO.C,R1*%
X94500000Y-98500000D03*
X94500000Y-100500000D03*
%TD*%
D22*
%TO.C,U2*%
X105525000Y-101905000D03*
X105525000Y-100635000D03*
X105525000Y-99365000D03*
X105525000Y-98095000D03*
X110475000Y-98095000D03*
X110475000Y-99365000D03*
X110475000Y-100635000D03*
X110475000Y-101905000D03*
%TD*%
D23*
%TO.C,C2*%
X116862500Y-97000000D03*
X115137500Y-97000000D03*
%TD*%
D20*
%TO.C,R4*%
X101500000Y-99912500D03*
X101500000Y-98087500D03*
%TD*%
D24*
%TO.C,D2*%
X109562500Y-92000000D03*
X111437500Y-92000000D03*
%TD*%
D25*
%TO.C,H1*%
X84000000Y-79000000D03*
%TD*%
%TO.C,H2*%
X116000000Y-79000000D03*
%TD*%
%TO.C,H3*%
X116000000Y-101000000D03*
%TD*%
%TO.C,H4*%
X84000000Y-101000000D03*
%TD*%
D26*
%TO.C,C1*%
X110097349Y-85500000D03*
D27*
X115097349Y-85500000D03*
%TD*%
D28*
%TO.C,J2*%
X99500000Y-79000000D03*
D29*
X104500000Y-79000000D03*
%TD*%
D28*
%TO.C,J1*%
X84000000Y-94000000D03*
D29*
X89000000Y-94000000D03*
%TD*%
D30*
%TO.C,L1*%
X94430000Y-90000000D03*
X103570000Y-90000000D03*
%TD*%
%LPD*%
M02*
