%TF.GenerationSoftware,KiCad,Pcbnew,9.0.4*%
%TF.CreationDate,2025-09-25T14:49:47-05:00*%
%TF.ProjectId,Onboarding,4f6e626f-6172-4646-996e-672e6b696361,rev?*%
%TF.SameCoordinates,Original*%
%TF.FileFunction,Copper,L2,Bot*%
%TF.FilePolarity,Positive*%
%FSLAX46Y46*%
G04 Gerber Fmt 4.6, Leading zero omitted, Abs format (unit mm)*
G04 Created by KiCad (PCBNEW 9.0.4) date 2025-09-25 14:49:47*
%MOMM*%
%LPD*%
G01*
G04 APERTURE LIST*
G04 Aperture macros list*
%AMRoundRect*
0 Rectangle with rounded corners*
0 $1 Rounding radius*
0 $2 $3 $4 $5 $6 $7 $8 $9 X,Y pos of 4 corners*
0 Add a 4 corners polygon primitive as box body*
4,1,4,$2,$3,$4,$5,$6,$7,$8,$9,$2,$3,0*
0 Add four circle primitives for the rounded corners*
1,1,$1+$1,$2,$3*
1,1,$1+$1,$4,$5*
1,1,$1+$1,$6,$7*
1,1,$1+$1,$8,$9*
0 Add four rect primitives between the rounded corners*
20,1,$1+$1,$2,$3,$4,$5,0*
20,1,$1+$1,$4,$5,$6,$7,0*
20,1,$1+$1,$6,$7,$8,$9,0*
20,1,$1+$1,$8,$9,$2,$3,0*%
G04 Aperture macros list end*
%TA.AperFunction,ComponentPad*%
%ADD10RoundRect,0.250000X0.550000X-0.550000X0.550000X0.550000X-0.550000X0.550000X-0.550000X-0.550000X0*%
%TD*%
%TA.AperFunction,ComponentPad*%
%ADD11C,1.600000*%
%TD*%
%TA.AperFunction,ComponentPad*%
%ADD12RoundRect,0.760000X-1.140000X1.140000X-1.140000X-1.140000X1.140000X-1.140000X1.140000X1.140000X0*%
%TD*%
%TA.AperFunction,ComponentPad*%
%ADD13C,4.000000*%
%TD*%
%TA.AperFunction,ComponentPad*%
%ADD14RoundRect,0.760000X1.140000X-1.140000X1.140000X1.140000X-1.140000X1.140000X-1.140000X-1.140000X0*%
%TD*%
%TA.AperFunction,ComponentPad*%
%ADD15C,3.800000*%
%TD*%
%TA.AperFunction,ComponentPad*%
%ADD16C,1.400000*%
%TD*%
%TA.AperFunction,ViaPad*%
%ADD17C,0.600000*%
%TD*%
G04 APERTURE END LIST*
D10*
%TO.P,C1,1*%
%TO.N,VCC*%
X50700000Y-41602651D03*
D11*
%TO.P,C1,2*%
%TO.N,GND*%
X50700000Y-36602651D03*
%TD*%
D12*
%TO.P,J1,1,Pin_1*%
%TO.N,GND*%
X71100000Y-37900000D03*
D13*
%TO.P,J1,2,Pin_2*%
%TO.N,+12V*%
X71100000Y-42900000D03*
%TD*%
D14*
%TO.P,J2,1,Pin_1*%
%TO.N,GND*%
X43100000Y-48100000D03*
D15*
%TO.P,J2,2,Pin_2*%
%TO.N,VCC*%
X43100000Y-43100000D03*
%TD*%
D16*
%TO.P,TP3,1,1*%
%TO.N,Net-(D2-A)*%
X62600000Y-33000000D03*
X60600000Y-33000000D03*
%TD*%
%TO.P,TP2,1,1*%
%TO.N,Net-(U2-I_{PK})*%
X66200000Y-35000000D03*
X66200000Y-33000000D03*
%TD*%
D17*
%TO.N,GND*%
X53300000Y-48700000D03*
X65200000Y-52300000D03*
X59700000Y-50000000D03*
X52400000Y-51700000D03*
X59700000Y-47600000D03*
X67000000Y-51600000D03*
X51300000Y-46900000D03*
X59700000Y-48800000D03*
X64400000Y-51600000D03*
X59700000Y-51300000D03*
X52400000Y-48700000D03*
X51300000Y-47600000D03*
X66300000Y-52300000D03*
%TD*%
%TA.AperFunction,Conductor*%
%TO.N,GND*%
G36*
X74003736Y-25500726D02*
G01*
X74293796Y-25518271D01*
X74308659Y-25520076D01*
X74590798Y-25571780D01*
X74605335Y-25575363D01*
X74879172Y-25660695D01*
X74893163Y-25666000D01*
X75154743Y-25783727D01*
X75167989Y-25790680D01*
X75413465Y-25939075D01*
X75425776Y-25947573D01*
X75651573Y-26124473D01*
X75662781Y-26134403D01*
X75865596Y-26337218D01*
X75875526Y-26348426D01*
X75995481Y-26501538D01*
X76052422Y-26574217D01*
X76060926Y-26586537D01*
X76119091Y-26682753D01*
X76209316Y-26832004D01*
X76216275Y-26845263D01*
X76333997Y-27106831D01*
X76339306Y-27120832D01*
X76424635Y-27394663D01*
X76428219Y-27409201D01*
X76479923Y-27691340D01*
X76481728Y-27706205D01*
X76499274Y-27996263D01*
X76499500Y-28003750D01*
X76499500Y-51996249D01*
X76499274Y-52003736D01*
X76481728Y-52293794D01*
X76479923Y-52308659D01*
X76428219Y-52590798D01*
X76424635Y-52605336D01*
X76339306Y-52879167D01*
X76333997Y-52893168D01*
X76216275Y-53154736D01*
X76209316Y-53167995D01*
X76060928Y-53413459D01*
X76052422Y-53425782D01*
X75875526Y-53651573D01*
X75865596Y-53662781D01*
X75662781Y-53865596D01*
X75651573Y-53875526D01*
X75425782Y-54052422D01*
X75413459Y-54060928D01*
X75167995Y-54209316D01*
X75154736Y-54216275D01*
X74893168Y-54333997D01*
X74879167Y-54339306D01*
X74605336Y-54424635D01*
X74590798Y-54428219D01*
X74308659Y-54479923D01*
X74293794Y-54481728D01*
X74003736Y-54499274D01*
X73996249Y-54499500D01*
X38003751Y-54499500D01*
X37996264Y-54499274D01*
X37706205Y-54481728D01*
X37691340Y-54479923D01*
X37409201Y-54428219D01*
X37394663Y-54424635D01*
X37120832Y-54339306D01*
X37106831Y-54333997D01*
X36845263Y-54216275D01*
X36832004Y-54209316D01*
X36586540Y-54060928D01*
X36574217Y-54052422D01*
X36348426Y-53875526D01*
X36337218Y-53865596D01*
X36134403Y-53662781D01*
X36124473Y-53651573D01*
X35947573Y-53425776D01*
X35939075Y-53413465D01*
X35790680Y-53167989D01*
X35783727Y-53154743D01*
X35666000Y-52893163D01*
X35660693Y-52879167D01*
X35575364Y-52605336D01*
X35571780Y-52590798D01*
X35520076Y-52308659D01*
X35518271Y-52293794D01*
X35500726Y-52003736D01*
X35500500Y-51996249D01*
X35500500Y-51893713D01*
X36649500Y-51893713D01*
X36649500Y-52106286D01*
X36682753Y-52316239D01*
X36748444Y-52518414D01*
X36844951Y-52707820D01*
X36969890Y-52879786D01*
X37120213Y-53030109D01*
X37292179Y-53155048D01*
X37292181Y-53155049D01*
X37292184Y-53155051D01*
X37481588Y-53251557D01*
X37683757Y-53317246D01*
X37893713Y-53350500D01*
X37893714Y-53350500D01*
X38106286Y-53350500D01*
X38106287Y-53350500D01*
X38316243Y-53317246D01*
X38518412Y-53251557D01*
X38707816Y-53155051D01*
X38729789Y-53139086D01*
X38879786Y-53030109D01*
X38879788Y-53030106D01*
X38879792Y-53030104D01*
X39030104Y-52879792D01*
X39030106Y-52879788D01*
X39030109Y-52879786D01*
X39155048Y-52707820D01*
X39155047Y-52707820D01*
X39155051Y-52707816D01*
X39251557Y-52518412D01*
X39317246Y-52316243D01*
X39350500Y-52106287D01*
X39350500Y-51893713D01*
X72649500Y-51893713D01*
X72649500Y-52106286D01*
X72682753Y-52316239D01*
X72748444Y-52518414D01*
X72844951Y-52707820D01*
X72969890Y-52879786D01*
X73120213Y-53030109D01*
X73292179Y-53155048D01*
X73292181Y-53155049D01*
X73292184Y-53155051D01*
X73481588Y-53251557D01*
X73683757Y-53317246D01*
X73893713Y-53350500D01*
X73893714Y-53350500D01*
X74106286Y-53350500D01*
X74106287Y-53350500D01*
X74316243Y-53317246D01*
X74518412Y-53251557D01*
X74707816Y-53155051D01*
X74729789Y-53139086D01*
X74879786Y-53030109D01*
X74879788Y-53030106D01*
X74879792Y-53030104D01*
X75030104Y-52879792D01*
X75030106Y-52879788D01*
X75030109Y-52879786D01*
X75155048Y-52707820D01*
X75155047Y-52707820D01*
X75155051Y-52707816D01*
X75251557Y-52518412D01*
X75317246Y-52316243D01*
X75350500Y-52106287D01*
X75350500Y-51893713D01*
X75317246Y-51683757D01*
X75251557Y-51481588D01*
X75155051Y-51292184D01*
X75155049Y-51292181D01*
X75155048Y-51292179D01*
X75030109Y-51120213D01*
X74879786Y-50969890D01*
X74707820Y-50844951D01*
X74518414Y-50748444D01*
X74518413Y-50748443D01*
X74518412Y-50748443D01*
X74316243Y-50682754D01*
X74316241Y-50682753D01*
X74316240Y-50682753D01*
X74154957Y-50657208D01*
X74106287Y-50649500D01*
X73893713Y-50649500D01*
X73845042Y-50657208D01*
X73683760Y-50682753D01*
X73481585Y-50748444D01*
X73292179Y-50844951D01*
X73120213Y-50969890D01*
X72969890Y-51120213D01*
X72844951Y-51292179D01*
X72748444Y-51481585D01*
X72682753Y-51683760D01*
X72649500Y-51893713D01*
X39350500Y-51893713D01*
X39317246Y-51683757D01*
X39251557Y-51481588D01*
X39155051Y-51292184D01*
X39155049Y-51292181D01*
X39155048Y-51292179D01*
X39030109Y-51120213D01*
X38879786Y-50969890D01*
X38707820Y-50844951D01*
X38518414Y-50748444D01*
X38518413Y-50748443D01*
X38518412Y-50748443D01*
X38316243Y-50682754D01*
X38316241Y-50682753D01*
X38316240Y-50682753D01*
X38154957Y-50657208D01*
X38106287Y-50649500D01*
X37893713Y-50649500D01*
X37845042Y-50657208D01*
X37683760Y-50682753D01*
X37481585Y-50748444D01*
X37292179Y-50844951D01*
X37120213Y-50969890D01*
X36969890Y-51120213D01*
X36844951Y-51292179D01*
X36748444Y-51481585D01*
X36682753Y-51683760D01*
X36649500Y-51893713D01*
X35500500Y-51893713D01*
X35500500Y-42965186D01*
X40699500Y-42965186D01*
X40699500Y-43234813D01*
X40729686Y-43502719D01*
X40729688Y-43502731D01*
X40789684Y-43765594D01*
X40789687Y-43765602D01*
X40878734Y-44020082D01*
X40995714Y-44262994D01*
X40995716Y-44262997D01*
X41139162Y-44491289D01*
X41307266Y-44702085D01*
X41497915Y-44892734D01*
X41708711Y-45060838D01*
X41937003Y-45204284D01*
X42179921Y-45321267D01*
X42371049Y-45388145D01*
X42434397Y-45410312D01*
X42434405Y-45410315D01*
X42434408Y-45410315D01*
X42434409Y-45410316D01*
X42697268Y-45470312D01*
X42965187Y-45500499D01*
X42965188Y-45500500D01*
X42965191Y-45500500D01*
X43234812Y-45500500D01*
X43234812Y-45500499D01*
X43502732Y-45470312D01*
X43765591Y-45410316D01*
X44020079Y-45321267D01*
X44262997Y-45204284D01*
X44491289Y-45060838D01*
X44702085Y-44892734D01*
X44892734Y-44702085D01*
X45060838Y-44491289D01*
X45204284Y-44262997D01*
X45321267Y-44020079D01*
X45410316Y-43765591D01*
X45470312Y-43502732D01*
X45500500Y-43234809D01*
X45500500Y-42965191D01*
X45470312Y-42697268D01*
X45410316Y-42434409D01*
X45321267Y-42179921D01*
X45204284Y-41937003D01*
X45060838Y-41708711D01*
X44892734Y-41497915D01*
X44702085Y-41307266D01*
X44491289Y-41139162D01*
X44321670Y-41032583D01*
X44274007Y-41002634D01*
X49399500Y-41002634D01*
X49399500Y-42202652D01*
X49399501Y-42202669D01*
X49410000Y-42305447D01*
X49410001Y-42305450D01*
X49465185Y-42471982D01*
X49465187Y-42471987D01*
X49470441Y-42480505D01*
X49557288Y-42621307D01*
X49681344Y-42745363D01*
X49830666Y-42837465D01*
X49997203Y-42892650D01*
X50099991Y-42903151D01*
X51300008Y-42903150D01*
X51402797Y-42892650D01*
X51569334Y-42837465D01*
X51695626Y-42759568D01*
X68599500Y-42759568D01*
X68599500Y-43040431D01*
X68630942Y-43319494D01*
X68630945Y-43319512D01*
X68693439Y-43593317D01*
X68693443Y-43593329D01*
X68786200Y-43858411D01*
X68908053Y-44111442D01*
X68908055Y-44111445D01*
X69057477Y-44349248D01*
X69232584Y-44568825D01*
X69431175Y-44767416D01*
X69650752Y-44942523D01*
X69888555Y-45091945D01*
X70141592Y-45213801D01*
X70340680Y-45283465D01*
X70406670Y-45306556D01*
X70406682Y-45306560D01*
X70680491Y-45369055D01*
X70680497Y-45369055D01*
X70680505Y-45369057D01*
X70866547Y-45390018D01*
X70959569Y-45400499D01*
X70959572Y-45400500D01*
X70959575Y-45400500D01*
X71240428Y-45400500D01*
X71240429Y-45400499D01*
X71383055Y-45384429D01*
X71519494Y-45369057D01*
X71519499Y-45369056D01*
X71519509Y-45369055D01*
X71793318Y-45306560D01*
X72058408Y-45213801D01*
X72311445Y-45091945D01*
X72549248Y-44942523D01*
X72768825Y-44767416D01*
X72967416Y-44568825D01*
X73142523Y-44349248D01*
X73291945Y-44111445D01*
X73413801Y-43858408D01*
X73506560Y-43593318D01*
X73569055Y-43319509D01*
X73600500Y-43040425D01*
X73600500Y-42759575D01*
X73569055Y-42480491D01*
X73506560Y-42206682D01*
X73413801Y-41941592D01*
X73291945Y-41688555D01*
X73142523Y-41450752D01*
X72967416Y-41231175D01*
X72768825Y-41032584D01*
X72731266Y-41002632D01*
X72575902Y-40878733D01*
X72549248Y-40857477D01*
X72345874Y-40729688D01*
X72311442Y-40708053D01*
X72058411Y-40586200D01*
X71793329Y-40493443D01*
X71793317Y-40493439D01*
X71519512Y-40430945D01*
X71519494Y-40430942D01*
X71240431Y-40399500D01*
X71240425Y-40399500D01*
X70959575Y-40399500D01*
X70959568Y-40399500D01*
X70680505Y-40430942D01*
X70680487Y-40430945D01*
X70406682Y-40493439D01*
X70406670Y-40493443D01*
X70141588Y-40586200D01*
X69888557Y-40708053D01*
X69650753Y-40857476D01*
X69431175Y-41032583D01*
X69232583Y-41231175D01*
X69057476Y-41450753D01*
X68908053Y-41688557D01*
X68786200Y-41941588D01*
X68693443Y-42206670D01*
X68693439Y-42206682D01*
X68630945Y-42480487D01*
X68630942Y-42480505D01*
X68599500Y-42759568D01*
X51695626Y-42759568D01*
X51718656Y-42745363D01*
X51842712Y-42621307D01*
X51934814Y-42471985D01*
X51989999Y-42305448D01*
X52000500Y-42202660D01*
X52000499Y-41002643D01*
X51999791Y-40995716D01*
X51989999Y-40899854D01*
X51989998Y-40899851D01*
X51934814Y-40733317D01*
X51842712Y-40583995D01*
X51718656Y-40459939D01*
X51569334Y-40367837D01*
X51402797Y-40312652D01*
X51402795Y-40312651D01*
X51300010Y-40302151D01*
X50099998Y-40302151D01*
X50099981Y-40302152D01*
X49997203Y-40312651D01*
X49997200Y-40312652D01*
X49830668Y-40367836D01*
X49830663Y-40367838D01*
X49681342Y-40459940D01*
X49557289Y-40583993D01*
X49465187Y-40733314D01*
X49465186Y-40733317D01*
X49410001Y-40899854D01*
X49410001Y-40899855D01*
X49410000Y-40899855D01*
X49399500Y-41002634D01*
X44274007Y-41002634D01*
X44262994Y-40995714D01*
X44020082Y-40878734D01*
X43765602Y-40789687D01*
X43765594Y-40789684D01*
X43518640Y-40733319D01*
X43502732Y-40729688D01*
X43502728Y-40729687D01*
X43502719Y-40729686D01*
X43234813Y-40699500D01*
X43234809Y-40699500D01*
X42965191Y-40699500D01*
X42965186Y-40699500D01*
X42697280Y-40729686D01*
X42697268Y-40729688D01*
X42434405Y-40789684D01*
X42434397Y-40789687D01*
X42179917Y-40878734D01*
X41937005Y-40995714D01*
X41708712Y-41139161D01*
X41497915Y-41307265D01*
X41307265Y-41497915D01*
X41139161Y-41708712D01*
X40995714Y-41937005D01*
X40878734Y-42179917D01*
X40789687Y-42434397D01*
X40789684Y-42434405D01*
X40729688Y-42697268D01*
X40729686Y-42697280D01*
X40699500Y-42965186D01*
X35500500Y-42965186D01*
X35500500Y-32905513D01*
X59399500Y-32905513D01*
X59399500Y-33094486D01*
X59429059Y-33281118D01*
X59487454Y-33460836D01*
X59573240Y-33629199D01*
X59684310Y-33782073D01*
X59817927Y-33915690D01*
X59970801Y-34026760D01*
X60050347Y-34067290D01*
X60139163Y-34112545D01*
X60139165Y-34112545D01*
X60139168Y-34112547D01*
X60235497Y-34143846D01*
X60318881Y-34170940D01*
X60505514Y-34200500D01*
X60505519Y-34200500D01*
X60694486Y-34200500D01*
X60881118Y-34170940D01*
X61060832Y-34112547D01*
X61229199Y-34026760D01*
X61382073Y-33915690D01*
X61512319Y-33785444D01*
X61573642Y-33751959D01*
X61643334Y-33756943D01*
X61687681Y-33785444D01*
X61817927Y-33915690D01*
X61970801Y-34026760D01*
X62050347Y-34067290D01*
X62139163Y-34112545D01*
X62139165Y-34112545D01*
X62139168Y-34112547D01*
X62235497Y-34143846D01*
X62318881Y-34170940D01*
X62505514Y-34200500D01*
X62505519Y-34200500D01*
X62694486Y-34200500D01*
X62881118Y-34170940D01*
X63060832Y-34112547D01*
X63229199Y-34026760D01*
X63382073Y-33915690D01*
X63515690Y-33782073D01*
X63626760Y-33629199D01*
X63712547Y-33460832D01*
X63770940Y-33281118D01*
X63800500Y-33094486D01*
X63800500Y-32905513D01*
X64999500Y-32905513D01*
X64999500Y-33094486D01*
X65029059Y-33281118D01*
X65087454Y-33460836D01*
X65173240Y-33629199D01*
X65284310Y-33782073D01*
X65284312Y-33782075D01*
X65414556Y-33912319D01*
X65448041Y-33973642D01*
X65443057Y-34043334D01*
X65414556Y-34087681D01*
X65284312Y-34217924D01*
X65284312Y-34217925D01*
X65284310Y-34217927D01*
X65236610Y-34283579D01*
X65173240Y-34370800D01*
X65087454Y-34539163D01*
X65029059Y-34718881D01*
X64999500Y-34905513D01*
X64999500Y-35094486D01*
X65029059Y-35281118D01*
X65087454Y-35460836D01*
X65173240Y-35629199D01*
X65284310Y-35782073D01*
X65417927Y-35915690D01*
X65570801Y-36026760D01*
X65650347Y-36067290D01*
X65739163Y-36112545D01*
X65739165Y-36112545D01*
X65739168Y-36112547D01*
X65835497Y-36143846D01*
X65918881Y-36170940D01*
X66105514Y-36200500D01*
X66105519Y-36200500D01*
X66294486Y-36200500D01*
X66481118Y-36170940D01*
X66660832Y-36112547D01*
X66829199Y-36026760D01*
X66982073Y-35915690D01*
X67115690Y-35782073D01*
X67226760Y-35629199D01*
X67312547Y-35460832D01*
X67370940Y-35281118D01*
X67400500Y-35094486D01*
X67400500Y-34905513D01*
X67370940Y-34718881D01*
X67312545Y-34539163D01*
X67226759Y-34370800D01*
X67115690Y-34217927D01*
X66985444Y-34087681D01*
X66951959Y-34026358D01*
X66956943Y-33956666D01*
X66985444Y-33912319D01*
X67115690Y-33782073D01*
X67226760Y-33629199D01*
X67312547Y-33460832D01*
X67370940Y-33281118D01*
X67400500Y-33094486D01*
X67400500Y-32905513D01*
X67370940Y-32718881D01*
X67312545Y-32539163D01*
X67226759Y-32370800D01*
X67115690Y-32217927D01*
X66982073Y-32084310D01*
X66829199Y-31973240D01*
X66660836Y-31887454D01*
X66481118Y-31829059D01*
X66294486Y-31799500D01*
X66294481Y-31799500D01*
X66105519Y-31799500D01*
X66105514Y-31799500D01*
X65918881Y-31829059D01*
X65739163Y-31887454D01*
X65570800Y-31973240D01*
X65483579Y-32036610D01*
X65417927Y-32084310D01*
X65417925Y-32084312D01*
X65417924Y-32084312D01*
X65284312Y-32217924D01*
X65284312Y-32217925D01*
X65284310Y-32217927D01*
X65266052Y-32243057D01*
X65173240Y-32370800D01*
X65087454Y-32539163D01*
X65029059Y-32718881D01*
X64999500Y-32905513D01*
X63800500Y-32905513D01*
X63770940Y-32718881D01*
X63712545Y-32539163D01*
X63626759Y-32370800D01*
X63515690Y-32217927D01*
X63382073Y-32084310D01*
X63229199Y-31973240D01*
X63060836Y-31887454D01*
X62881118Y-31829059D01*
X62694486Y-31799500D01*
X62694481Y-31799500D01*
X62505519Y-31799500D01*
X62505514Y-31799500D01*
X62318881Y-31829059D01*
X62139163Y-31887454D01*
X61970800Y-31973240D01*
X61883579Y-32036610D01*
X61817927Y-32084310D01*
X61817925Y-32084312D01*
X61817924Y-32084312D01*
X61687681Y-32214556D01*
X61626358Y-32248041D01*
X61556666Y-32243057D01*
X61512319Y-32214556D01*
X61382075Y-32084312D01*
X61382073Y-32084310D01*
X61229199Y-31973240D01*
X61060836Y-31887454D01*
X60881118Y-31829059D01*
X60694486Y-31799500D01*
X60694481Y-31799500D01*
X60505519Y-31799500D01*
X60505514Y-31799500D01*
X60318881Y-31829059D01*
X60139163Y-31887454D01*
X59970800Y-31973240D01*
X59883579Y-32036610D01*
X59817927Y-32084310D01*
X59817925Y-32084312D01*
X59817924Y-32084312D01*
X59684312Y-32217924D01*
X59684312Y-32217925D01*
X59684310Y-32217927D01*
X59666052Y-32243057D01*
X59573240Y-32370800D01*
X59487454Y-32539163D01*
X59429059Y-32718881D01*
X59399500Y-32905513D01*
X35500500Y-32905513D01*
X35500500Y-28003750D01*
X35500726Y-27996263D01*
X35506929Y-27893713D01*
X36649500Y-27893713D01*
X36649500Y-28106286D01*
X36682753Y-28316239D01*
X36748444Y-28518414D01*
X36844951Y-28707820D01*
X36969890Y-28879786D01*
X37120213Y-29030109D01*
X37292179Y-29155048D01*
X37292181Y-29155049D01*
X37292184Y-29155051D01*
X37481588Y-29251557D01*
X37683757Y-29317246D01*
X37893713Y-29350500D01*
X37893714Y-29350500D01*
X38106286Y-29350500D01*
X38106287Y-29350500D01*
X38316243Y-29317246D01*
X38518412Y-29251557D01*
X38707816Y-29155051D01*
X38729789Y-29139086D01*
X38879786Y-29030109D01*
X38879788Y-29030106D01*
X38879792Y-29030104D01*
X39030104Y-28879792D01*
X39030106Y-28879788D01*
X39030109Y-28879786D01*
X39155048Y-28707820D01*
X39155047Y-28707820D01*
X39155051Y-28707816D01*
X39251557Y-28518412D01*
X39317246Y-28316243D01*
X39350500Y-28106287D01*
X39350500Y-27893713D01*
X72649500Y-27893713D01*
X72649500Y-28106286D01*
X72682753Y-28316239D01*
X72748444Y-28518414D01*
X72844951Y-28707820D01*
X72969890Y-28879786D01*
X73120213Y-29030109D01*
X73292179Y-29155048D01*
X73292181Y-29155049D01*
X73292184Y-29155051D01*
X73481588Y-29251557D01*
X73683757Y-29317246D01*
X73893713Y-29350500D01*
X73893714Y-29350500D01*
X74106286Y-29350500D01*
X74106287Y-29350500D01*
X74316243Y-29317246D01*
X74518412Y-29251557D01*
X74707816Y-29155051D01*
X74729789Y-29139086D01*
X74879786Y-29030109D01*
X74879788Y-29030106D01*
X74879792Y-29030104D01*
X75030104Y-28879792D01*
X75030106Y-28879788D01*
X75030109Y-28879786D01*
X75155048Y-28707820D01*
X75155047Y-28707820D01*
X75155051Y-28707816D01*
X75251557Y-28518412D01*
X75317246Y-28316243D01*
X75350500Y-28106287D01*
X75350500Y-27893713D01*
X75317246Y-27683757D01*
X75251557Y-27481588D01*
X75155051Y-27292184D01*
X75155049Y-27292181D01*
X75155048Y-27292179D01*
X75030109Y-27120213D01*
X74879786Y-26969890D01*
X74707820Y-26844951D01*
X74518414Y-26748444D01*
X74518413Y-26748443D01*
X74518412Y-26748443D01*
X74316243Y-26682754D01*
X74316241Y-26682753D01*
X74316240Y-26682753D01*
X74154957Y-26657208D01*
X74106287Y-26649500D01*
X73893713Y-26649500D01*
X73845042Y-26657208D01*
X73683760Y-26682753D01*
X73481585Y-26748444D01*
X73292179Y-26844951D01*
X73120213Y-26969890D01*
X72969890Y-27120213D01*
X72844951Y-27292179D01*
X72748444Y-27481585D01*
X72682753Y-27683760D01*
X72649500Y-27893713D01*
X39350500Y-27893713D01*
X39317246Y-27683757D01*
X39251557Y-27481588D01*
X39155051Y-27292184D01*
X39155049Y-27292181D01*
X39155048Y-27292179D01*
X39030109Y-27120213D01*
X38879786Y-26969890D01*
X38707820Y-26844951D01*
X38518414Y-26748444D01*
X38518413Y-26748443D01*
X38518412Y-26748443D01*
X38316243Y-26682754D01*
X38316241Y-26682753D01*
X38316240Y-26682753D01*
X38154957Y-26657208D01*
X38106287Y-26649500D01*
X37893713Y-26649500D01*
X37845042Y-26657208D01*
X37683760Y-26682753D01*
X37481585Y-26748444D01*
X37292179Y-26844951D01*
X37120213Y-26969890D01*
X36969890Y-27120213D01*
X36844951Y-27292179D01*
X36748444Y-27481585D01*
X36682753Y-27683760D01*
X36649500Y-27893713D01*
X35506929Y-27893713D01*
X35507677Y-27881354D01*
X35518271Y-27706205D01*
X35520076Y-27691340D01*
X35571780Y-27409201D01*
X35575364Y-27394663D01*
X35607298Y-27292184D01*
X35660696Y-27120822D01*
X35665998Y-27106841D01*
X35783731Y-26845249D01*
X35790676Y-26832016D01*
X35939080Y-26586526D01*
X35947567Y-26574230D01*
X36124480Y-26348417D01*
X36134395Y-26337226D01*
X36337226Y-26134395D01*
X36348417Y-26124480D01*
X36574230Y-25947567D01*
X36586526Y-25939080D01*
X36832016Y-25790676D01*
X36845249Y-25783731D01*
X37106841Y-25665998D01*
X37120822Y-25660696D01*
X37394668Y-25575362D01*
X37409197Y-25571780D01*
X37691344Y-25520075D01*
X37706201Y-25518271D01*
X37996264Y-25500726D01*
X38003751Y-25500500D01*
X38065892Y-25500500D01*
X73934108Y-25500500D01*
X73996249Y-25500500D01*
X74003736Y-25500726D01*
G37*
%TD.AperFunction*%
%TD*%
M02*
