%TF.GenerationSoftware,KiCad,Pcbnew,10.0.6*%
%TF.CreationDate,2026-09-19T19:50:07-05:00*%
%TF.ProjectId,Onboarding,4f6e626f-6172-4646-996e-672e6b696361,rev?*%
%TF.SameCoordinates,Original*%
%TF.FileFunction,Copper,L1,Top*%
%TF.FilePolarity,Positive*%
%FSLAX46Y46*%
G04 Gerber Fmt 4.6, Leading zero omitted, Abs format (unit mm)*
G04 Created by KiCad (PCBNEW 10.0.6) date 2026-09-19 19:50:07*
%MOMM*%
%LPD*%
G01*
G04 APERTURE LIST*
G04 Aperture macros list*
%AMRoundRect*
0 Rectangle with rounded corners*
0 $1 Rounding radius*
0 $2 $3 $4 $5 $6 $7 $8 $9 X,Y pos of 4 corners*
0 Add a 4 corners polygon primitive as box body*
4,1,4,$2,$3,$4,$5,$6,$7,$8,$9,$2,$3,0*
0 Add four circle primitives for the rounded corners*
1,1,$1+$1,$2,$3*
1,1,$1+$1,$4,$5*
1,1,$1+$1,$6,$7*
1,1,$1+$1,$8,$9*
0 Add four rect primitives between the rounded corners*
20,1,$1+$1,$2,$3,$4,$5,0*
20,1,$1+$1,$4,$5,$6,$7,0*
20,1,$1+$1,$6,$7,$8,$9,0*
20,1,$1+$1,$8,$9,$2,$3,0*%
G04 Aperture macros list end*
%TA.AperFunction,ComponentPad*%
%ADD10RoundRect,0.760000X1.140000X-1.140000X1.140000X1.140000X-1.140000X1.140000X-1.140000X-1.140000X0*%
%TD*%
%TA.AperFunction,ComponentPad*%
%ADD11C,4.000000*%
%TD*%
%TA.AperFunction,SMDPad,CuDef*%
%ADD12RoundRect,0.237500X-0.300000X-0.237500X0.300000X-0.237500X0.300000X0.237500X-0.300000X0.237500X0*%
%TD*%
%TA.AperFunction,SMDPad,CuDef*%
%ADD13RoundRect,0.250000X-0.475000X0.250000X-0.475000X-0.250000X0.475000X-0.250000X0.475000X0.250000X0*%
%TD*%
%TA.AperFunction,SMDPad,CuDef*%
%ADD14RoundRect,0.237500X-0.237500X0.250000X-0.237500X-0.250000X0.237500X-0.250000X0.237500X0.250000X0*%
%TD*%
%TA.AperFunction,ComponentPad*%
%ADD15C,1.400000*%
%TD*%
%TA.AperFunction,SMDPad,CuDef*%
%ADD16RoundRect,0.150000X-0.150000X-0.700000X0.150000X-0.700000X0.150000X0.700000X-0.150000X0.700000X0*%
%TD*%
%TA.AperFunction,SMDPad,CuDef*%
%ADD17RoundRect,0.250000X-0.250000X-1.150000X0.250000X-1.150000X0.250000X1.150000X-0.250000X1.150000X0*%
%TD*%
%TA.AperFunction,ComponentPad*%
%ADD18RoundRect,0.250000X-0.550000X0.550000X-0.550000X-0.550000X0.550000X-0.550000X0.550000X0.550000X0*%
%TD*%
%TA.AperFunction,ComponentPad*%
%ADD19C,1.600000*%
%TD*%
%TA.AperFunction,ComponentPad*%
%ADD20RoundRect,0.760000X-1.140000X1.140000X-1.140000X-1.140000X1.140000X-1.140000X1.140000X1.140000X0*%
%TD*%
%TA.AperFunction,ComponentPad*%
%ADD21C,3.800000*%
%TD*%
%TA.AperFunction,SMDPad,CuDef*%
%ADD22RoundRect,0.250000X-0.350000X-0.450000X0.350000X-0.450000X0.350000X0.450000X-0.350000X0.450000X0*%
%TD*%
%TA.AperFunction,SMDPad,CuDef*%
%ADD23R,1.520000X10.160000*%
%TD*%
%TA.AperFunction,SMDPad,CuDef*%
%ADD24RoundRect,0.250000X0.300000X-0.300000X0.300000X0.300000X-0.300000X0.300000X-0.300000X-0.300000X0*%
%TD*%
%TA.AperFunction,SMDPad,CuDef*%
%ADD25RoundRect,0.237500X0.237500X-0.250000X0.237500X0.250000X-0.237500X0.250000X-0.237500X-0.250000X0*%
%TD*%
%TA.AperFunction,SMDPad,CuDef*%
%ADD26RoundRect,0.150000X-0.825000X-0.150000X0.825000X-0.150000X0.825000X0.150000X-0.825000X0.150000X0*%
%TD*%
%TA.AperFunction,ViaPad*%
%ADD27C,0.600000*%
%TD*%
%TA.AperFunction,Conductor*%
%ADD28C,0.200000*%
%TD*%
G04 APERTURE END LIST*
D10*
%TO.P,J1,1,Pin_1_1*%
%TO.N,GND*%
X149500000Y-116000000D03*
D11*
%TO.P,J1,2,Pin_2_2*%
%TO.N,+12V*%
X149500000Y-111000000D03*
%TD*%
D12*
%TO.P,C1,1*%
%TO.N,Net-(U1-CT)*%
X130637500Y-100000000D03*
%TO.P,C1,2*%
%TO.N,GND*%
X132362500Y-100000000D03*
%TD*%
D13*
%TO.P,C5,1*%
%TO.N,+12V*%
X143500000Y-110050000D03*
%TO.P,C5,2*%
%TO.N,GND*%
X143500000Y-111950000D03*
%TD*%
D14*
%TO.P,R2,1*%
%TO.N,Net-(U1-COMP-)*%
X136500000Y-110087500D03*
%TO.P,R2,2*%
%TO.N,VCC*%
X136500000Y-111912500D03*
%TD*%
D15*
%TO.P,TP1,1,1_1*%
%TO.N,Net-(U1-I_{PK})*%
X143500000Y-100000000D03*
X143500000Y-102000000D03*
%TD*%
D16*
%TO.P,J3,1,Pin_1_1*%
%TO.N,/CAN-*%
X148375000Y-95450000D03*
%TO.P,J3,2,Pin_2_2*%
%TO.N,/CAN+*%
X149625000Y-95450000D03*
D17*
%TO.P,J3,MP*%
%TO.N,N/C*%
X146525000Y-92100000D03*
X151475000Y-92100000D03*
%TD*%
D18*
%TO.P,C4,1*%
%TO.N,VCC*%
X138500000Y-116597349D03*
D19*
%TO.P,C4,2*%
%TO.N,GND*%
X138500000Y-121597349D03*
%TD*%
D16*
%TO.P,J4,1,Pin_1_1*%
%TO.N,/CAN-*%
X148375000Y-102950000D03*
%TO.P,J4,2,Pin_2_2*%
%TO.N,/CAN+*%
X149625000Y-102950000D03*
D17*
%TO.P,J4,MP*%
%TO.N,N/C*%
X146525000Y-99600000D03*
X151475000Y-99600000D03*
%TD*%
D14*
%TO.P,R1,1*%
%TO.N,Net-(U1-COMP-)*%
X140000000Y-110087500D03*
%TO.P,R1,2*%
%TO.N,GND*%
X140000000Y-111912500D03*
%TD*%
D20*
%TO.P,J2,1,Pin_1_1*%
%TO.N,GND*%
X128500000Y-111500000D03*
D21*
%TO.P,J2,2,Pin_2_2*%
%TO.N,VCC*%
X128500000Y-116500000D03*
%TD*%
D22*
%TO.P,R3,1*%
%TO.N,Net-(U1-DC)*%
X138000000Y-100500000D03*
%TO.P,R3,2*%
%TO.N,Net-(U1-I_{PK})*%
X140000000Y-100500000D03*
%TD*%
D23*
%TO.P,L1,1,1_1*%
%TO.N,Net-(U1-I_{PK})*%
X142570000Y-92000000D03*
%TO.P,L1,2,2_2*%
%TO.N,Net-(D1-A)*%
X133430000Y-92000000D03*
%TD*%
D24*
%TO.P,D1,1,K_1*%
%TO.N,VCC*%
X128500000Y-105400000D03*
%TO.P,D1,2,A_2*%
%TO.N,Net-(D1-A)*%
X128500000Y-102600000D03*
%TD*%
D15*
%TO.P,TP2,1,1_1*%
%TO.N,Net-(D1-A)*%
X128500000Y-96500000D03*
X128500000Y-98500000D03*
%TD*%
D25*
%TO.P,R4,1*%
%TO.N,+12V*%
X143500000Y-106412500D03*
%TO.P,R4,2*%
%TO.N,Net-(U1-I_{PK})*%
X143500000Y-104587500D03*
%TD*%
D26*
%TO.P,U1,1,SC_1*%
%TO.N,Net-(D1-A)*%
X133025000Y-103095000D03*
%TO.P,U1,2,SE_2*%
%TO.N,GND*%
X133025000Y-104365000D03*
%TO.P,U1,3,CT_3*%
%TO.N,Net-(U1-CT)*%
X133025000Y-105635000D03*
%TO.P,U1,4,GND_4*%
%TO.N,GND*%
X133025000Y-106905000D03*
%TO.P,U1,5,COMP-_5*%
%TO.N,Net-(U1-COMP-)*%
X137975000Y-106905000D03*
%TO.P,U1,6,VCC_6*%
%TO.N,+12V*%
X137975000Y-105635000D03*
%TO.P,U1,7,I_{PK}_7*%
%TO.N,Net-(U1-I_{PK})*%
X137975000Y-104365000D03*
%TO.P,U1,8,DC_8*%
%TO.N,Net-(U1-DC)*%
X137975000Y-103095000D03*
%TD*%
D27*
%TO.N,GND*%
X132500000Y-101000000D03*
X132500000Y-99000000D03*
X133500000Y-100000000D03*
X134500000Y-105500000D03*
X133025000Y-106905000D03*
X133025000Y-104365000D03*
%TO.N,+12V*%
X137975000Y-105635000D03*
X148000000Y-107000000D03*
%TD*%
%TO.N,Net-(U1-COMP-)*%
D28*
X140000000Y-110087500D02*
X136500000Y-110087500D01*
%TO.N,Net-(U1-CT)*%
X130637500Y-104222499D02*
X130637500Y-100000000D01*
X133025000Y-105635000D02*
X132050001Y-105635000D01*
X132050001Y-105635000D02*
X130637500Y-104222499D01*
%TO.N,Net-(U1-COMP-)*%
X136500000Y-108380000D02*
X136500000Y-110087500D01*
X137975000Y-106905000D02*
X136500000Y-108380000D01*
%TO.N,Net-(U1-DC)*%
X138000000Y-103070000D02*
X137975000Y-103095000D01*
X138000000Y-100500000D02*
X138000000Y-103070000D01*
%TO.N,Net-(U1-COMP-)*%
X139587500Y-110500000D02*
X139587500Y-110175000D01*
%TO.N,/CAN-*%
X148775000Y-97125001D02*
X148775000Y-100774999D01*
X148775000Y-100774999D02*
X148375000Y-101174999D01*
X148375000Y-101174999D02*
X148375000Y-102450000D01*
X148375000Y-95450000D02*
X148375000Y-96725001D01*
X148375000Y-96725001D02*
X148775000Y-97125001D01*
%TO.N,/CAN+*%
X149625000Y-101174999D02*
X149625000Y-102450000D01*
X149225000Y-97125001D02*
X149225000Y-100774999D01*
X149225000Y-100774999D02*
X149625000Y-101174999D01*
X149625000Y-96725001D02*
X149225000Y-97125001D01*
X149625000Y-95450000D02*
X149625000Y-96725001D01*
%TD*%
%TA.AperFunction,Conductor*%
%TO.N,Net-(D1-A)*%
G36*
X134893106Y-86005023D02*
G01*
X134908104Y-86009427D01*
X134966855Y-86047172D01*
X134968042Y-86048541D01*
X134995518Y-86103402D01*
X134997163Y-86110960D01*
X135000000Y-86137331D01*
X135000000Y-98224421D01*
X134998738Y-98242067D01*
X134994500Y-98271542D01*
X134994500Y-102949539D01*
X134989475Y-102984482D01*
X134987563Y-102990992D01*
X134956269Y-103043730D01*
X134676850Y-103323148D01*
X134648594Y-103344300D01*
X134634873Y-103351792D01*
X134566700Y-103366650D01*
X134566191Y-103366614D01*
X134505866Y-103345903D01*
X134504521Y-103345001D01*
X134504520Y-103345000D01*
X134504519Y-103345000D01*
X134504517Y-103345000D01*
X131552703Y-103345000D01*
X131552898Y-103347480D01*
X131552898Y-103347483D01*
X131552899Y-103347486D01*
X131598718Y-103505198D01*
X131598719Y-103505199D01*
X131649869Y-103591690D01*
X131663329Y-103624318D01*
X131666742Y-103637771D01*
X131664148Y-103707593D01*
X131624217Y-103764928D01*
X131624204Y-103764938D01*
X131620707Y-103767747D01*
X131556114Y-103794383D01*
X131555393Y-103794457D01*
X131392078Y-103810790D01*
X131356811Y-103809268D01*
X131350140Y-103808013D01*
X131342305Y-103806539D01*
X131280062Y-103774797D01*
X131245530Y-103717034D01*
X131242296Y-103705070D01*
X131238000Y-103672713D01*
X131238000Y-102844996D01*
X131552703Y-102844996D01*
X131552704Y-102844999D01*
X131552705Y-102845000D01*
X132775000Y-102845000D01*
X133275000Y-102845000D01*
X134497295Y-102845000D01*
X134497295Y-102844996D01*
X134497294Y-102844995D01*
X134497100Y-102842513D01*
X134451281Y-102684801D01*
X134367685Y-102543447D01*
X134367678Y-102543438D01*
X134251561Y-102427321D01*
X134251552Y-102427314D01*
X134251551Y-102427313D01*
X134251546Y-102427310D01*
X134110199Y-102343718D01*
X134110196Y-102343717D01*
X134110165Y-102343707D01*
X133952505Y-102297902D01*
X133952501Y-102297901D01*
X133952495Y-102297900D01*
X133952489Y-102297899D01*
X133941963Y-102297070D01*
X133915654Y-102295000D01*
X133915649Y-102295000D01*
X133275000Y-102295000D01*
X133275000Y-102845000D01*
X132775000Y-102845000D01*
X132775000Y-102295000D01*
X132134344Y-102295000D01*
X132102772Y-102297484D01*
X132097510Y-102297899D01*
X132097504Y-102297900D01*
X132097497Y-102297901D01*
X132097493Y-102297902D01*
X131939833Y-102343707D01*
X131939802Y-102343717D01*
X131939799Y-102343718D01*
X131798452Y-102427310D01*
X131798447Y-102427313D01*
X131798436Y-102427322D01*
X131682321Y-102543437D01*
X131682312Y-102543449D01*
X131598719Y-102684799D01*
X131552899Y-102842514D01*
X131552898Y-102842519D01*
X131552703Y-102844996D01*
X131238000Y-102844996D01*
X131238000Y-101006280D01*
X131243023Y-100971345D01*
X131248596Y-100952365D01*
X131257854Y-100937958D01*
X131262489Y-100921472D01*
X131280705Y-100898813D01*
X131286976Y-100892657D01*
X131308738Y-100875612D01*
X131398350Y-100820340D01*
X131399707Y-100818982D01*
X131427964Y-100797827D01*
X131441688Y-100790333D01*
X131509946Y-100775482D01*
X131511756Y-100775611D01*
X131569953Y-100794977D01*
X131576471Y-100799166D01*
X131597106Y-100815796D01*
X131601649Y-100820339D01*
X131601653Y-100820342D01*
X131625423Y-100835004D01*
X131652515Y-100857614D01*
X131665746Y-100872323D01*
X131670436Y-100881376D01*
X131677086Y-100887005D01*
X131682483Y-100904628D01*
X131694469Y-100927764D01*
X131696416Y-100936330D01*
X131699500Y-100963813D01*
X131699500Y-101078846D01*
X131699500Y-101078848D01*
X131699499Y-101078848D01*
X131730257Y-101233471D01*
X131730264Y-101233502D01*
X131790598Y-101379165D01*
X131790603Y-101379174D01*
X131790613Y-101379191D01*
X131878211Y-101510290D01*
X131878212Y-101510291D01*
X131878217Y-101510297D01*
X131989701Y-101621781D01*
X131989707Y-101621786D01*
X131989711Y-101621789D01*
X132120814Y-101709390D01*
X132120827Y-101709397D01*
X132266498Y-101769735D01*
X132266503Y-101769737D01*
X132413513Y-101798979D01*
X132416247Y-101799703D01*
X132421155Y-101800500D01*
X132578844Y-101800500D01*
X132582964Y-101800500D01*
X132590814Y-101798118D01*
X132733497Y-101769737D01*
X132879179Y-101709394D01*
X133010289Y-101621789D01*
X133121789Y-101510289D01*
X133209394Y-101379179D01*
X133269737Y-101233497D01*
X133300500Y-101078842D01*
X133300500Y-100942329D01*
X133305523Y-100907393D01*
X133308778Y-100896310D01*
X133309927Y-100892394D01*
X133347672Y-100833644D01*
X133349041Y-100832457D01*
X133403920Y-100804977D01*
X133411479Y-100803333D01*
X133437832Y-100800500D01*
X133582964Y-100800500D01*
X133590814Y-100798118D01*
X133733497Y-100769737D01*
X133879179Y-100709394D01*
X134010289Y-100621789D01*
X134121789Y-100510289D01*
X134209394Y-100379179D01*
X134269737Y-100233497D01*
X134300500Y-100078842D01*
X134300500Y-99921158D01*
X134300500Y-99921155D01*
X134300500Y-99920973D01*
X134300065Y-99918972D01*
X134270397Y-99769824D01*
X134269994Y-99767467D01*
X134269738Y-99766508D01*
X134269737Y-99766506D01*
X134269737Y-99766503D01*
X134269735Y-99766498D01*
X134209397Y-99620827D01*
X134209390Y-99620814D01*
X134121789Y-99489711D01*
X134121786Y-99489707D01*
X134121781Y-99489701D01*
X134010297Y-99378217D01*
X134010291Y-99378212D01*
X134010290Y-99378211D01*
X133879191Y-99290613D01*
X133879190Y-99290612D01*
X133879185Y-99290609D01*
X133879172Y-99290602D01*
X133879165Y-99290598D01*
X133733502Y-99230264D01*
X133733471Y-99230257D01*
X133578847Y-99199500D01*
X133578845Y-99199500D01*
X133578842Y-99199500D01*
X133442330Y-99199500D01*
X133407389Y-99194475D01*
X133392390Y-99190070D01*
X133333644Y-99152327D01*
X133332457Y-99150958D01*
X133304977Y-99096083D01*
X133303332Y-99088521D01*
X133300500Y-99062168D01*
X133300500Y-98920971D01*
X133300064Y-98918966D01*
X133269738Y-98766505D01*
X133269736Y-98766501D01*
X133248365Y-98714906D01*
X133248365Y-98714905D01*
X133209400Y-98620833D01*
X133209395Y-98620824D01*
X133209390Y-98620814D01*
X133121789Y-98489711D01*
X133121786Y-98489707D01*
X133121781Y-98489701D01*
X133010297Y-98378217D01*
X133010291Y-98378212D01*
X133010290Y-98378211D01*
X132879191Y-98290613D01*
X132879190Y-98290612D01*
X132879185Y-98290609D01*
X132879172Y-98290602D01*
X132879165Y-98290598D01*
X132733502Y-98230264D01*
X132733471Y-98230257D01*
X132578847Y-98199500D01*
X132578845Y-98199500D01*
X132578842Y-98199500D01*
X132421158Y-98199500D01*
X132421155Y-98199500D01*
X132421153Y-98199500D01*
X132266527Y-98230257D01*
X132266496Y-98230264D01*
X132120833Y-98290598D01*
X132120824Y-98290603D01*
X132120807Y-98290613D01*
X131989708Y-98378211D01*
X131989707Y-98378212D01*
X131989701Y-98378217D01*
X131878217Y-98489701D01*
X131878212Y-98489707D01*
X131878211Y-98489708D01*
X131790613Y-98620807D01*
X131790603Y-98620824D01*
X131790598Y-98620833D01*
X131730264Y-98766496D01*
X131730257Y-98766527D01*
X131699500Y-98921150D01*
X131699500Y-99032268D01*
X131694475Y-99067208D01*
X131688901Y-99086188D01*
X131656799Y-99139730D01*
X131650531Y-99145884D01*
X131628756Y-99162940D01*
X131601648Y-99179660D01*
X131601639Y-99179670D01*
X131601638Y-99179669D01*
X131600284Y-99181024D01*
X131572023Y-99202179D01*
X131558306Y-99209668D01*
X131490051Y-99224517D01*
X131488245Y-99224388D01*
X131430044Y-99205020D01*
X131423529Y-99200833D01*
X131402893Y-99184203D01*
X131398351Y-99179661D01*
X131398350Y-99179660D01*
X131262849Y-99096082D01*
X131251518Y-99089093D01*
X131251513Y-99089091D01*
X131096221Y-99037632D01*
X131093401Y-99036466D01*
X131087748Y-99034824D01*
X130986687Y-99024500D01*
X130986678Y-99024500D01*
X130288330Y-99024500D01*
X130288312Y-99024501D01*
X130288290Y-99024503D01*
X130288280Y-99024504D01*
X130187250Y-99034824D01*
X130023477Y-99089094D01*
X129876651Y-99179658D01*
X129876647Y-99179661D01*
X129754662Y-99301646D01*
X129664091Y-99448485D01*
X129664088Y-99448493D01*
X129644409Y-99507882D01*
X129644408Y-99507883D01*
X129620123Y-99581167D01*
X129611677Y-99594110D01*
X129610190Y-99608673D01*
X129609367Y-99614919D01*
X129609184Y-99618521D01*
X129599500Y-99713305D01*
X129599500Y-99713315D01*
X129599500Y-100286669D01*
X129599501Y-100286687D01*
X129599503Y-100286711D01*
X129599504Y-100286718D01*
X129609824Y-100387752D01*
X129646108Y-100497248D01*
X129664090Y-100551513D01*
X129754661Y-100698351D01*
X129876650Y-100820340D01*
X129962921Y-100873552D01*
X129990015Y-100896163D01*
X130003246Y-100910873D01*
X130031969Y-100966314D01*
X130033916Y-100974880D01*
X130037000Y-101002363D01*
X130037000Y-103816250D01*
X130031975Y-103851194D01*
X130027570Y-103866192D01*
X129989810Y-103924950D01*
X129985968Y-103928280D01*
X129937131Y-103954276D01*
X129935216Y-103954794D01*
X129915177Y-103958481D01*
X129509213Y-103999078D01*
X129503059Y-103999539D01*
X129496887Y-103999846D01*
X129490728Y-104000000D01*
X126641830Y-104000000D01*
X126606889Y-103994975D01*
X126591890Y-103990570D01*
X126533144Y-103952827D01*
X126531957Y-103951458D01*
X126504477Y-103896583D01*
X126502832Y-103889021D01*
X126500000Y-103862668D01*
X126500000Y-102949995D01*
X127450001Y-102949995D01*
X127460493Y-103052694D01*
X127460493Y-103052695D01*
X127460494Y-103052697D01*
X127515641Y-103219119D01*
X127515643Y-103219124D01*
X127607684Y-103368345D01*
X127731654Y-103492315D01*
X127880875Y-103584356D01*
X127880880Y-103584358D01*
X128047299Y-103639504D01*
X128047300Y-103639504D01*
X128047302Y-103639505D01*
X128047309Y-103639506D01*
X128150019Y-103649999D01*
X128750000Y-103649999D01*
X128849960Y-103649999D01*
X128849972Y-103649999D01*
X128849986Y-103649998D01*
X128952697Y-103639505D01*
X129119119Y-103584358D01*
X129119124Y-103584356D01*
X129268345Y-103492315D01*
X129392315Y-103368345D01*
X129484356Y-103219124D01*
X129484358Y-103219119D01*
X129539505Y-103052697D01*
X129539506Y-103052690D01*
X129549999Y-102949986D01*
X129550000Y-102949973D01*
X129550000Y-102850000D01*
X128750000Y-102850000D01*
X128750000Y-103649999D01*
X128150019Y-103649999D01*
X128250000Y-103649998D01*
X128250000Y-102850000D01*
X127450001Y-102850000D01*
X127450001Y-102949995D01*
X126500000Y-102949995D01*
X126500000Y-102250007D01*
X127450000Y-102250007D01*
X127450000Y-102250010D01*
X127450000Y-102250013D01*
X127450000Y-102350000D01*
X128250000Y-102350000D01*
X128750000Y-102350000D01*
X129549999Y-102350000D01*
X129549999Y-102250028D01*
X129549998Y-102250013D01*
X129539505Y-102147302D01*
X129484358Y-101980880D01*
X129484356Y-101980875D01*
X129392315Y-101831654D01*
X129268345Y-101707684D01*
X129119124Y-101615643D01*
X129119119Y-101615641D01*
X129119110Y-101615638D01*
X128952699Y-101560494D01*
X128952694Y-101560493D01*
X128849991Y-101550000D01*
X128849986Y-101550000D01*
X128750000Y-101550000D01*
X128750000Y-102350000D01*
X128250000Y-102350000D01*
X128250000Y-101549999D01*
X128250000Y-101549998D01*
X128150036Y-101549999D01*
X128150016Y-101550000D01*
X128150012Y-101550001D01*
X128150003Y-101550001D01*
X128150002Y-101550002D01*
X128047304Y-101560493D01*
X128047302Y-101560494D01*
X127880887Y-101615638D01*
X127880879Y-101615641D01*
X127880877Y-101615642D01*
X127880875Y-101615643D01*
X127781394Y-101677003D01*
X127731652Y-101707685D01*
X127607685Y-101831652D01*
X127515641Y-101980879D01*
X127515638Y-101980888D01*
X127460494Y-102147299D01*
X127460493Y-102147304D01*
X127450000Y-102250007D01*
X126500000Y-102250007D01*
X126500000Y-96405552D01*
X127300000Y-96405552D01*
X127300000Y-96594447D01*
X127308219Y-96646341D01*
X127329548Y-96781003D01*
X127387912Y-96960634D01*
X127387913Y-96960636D01*
X127407917Y-96999895D01*
X127473666Y-97128933D01*
X127492116Y-97154328D01*
X128000106Y-96646339D01*
X128061426Y-96612856D01*
X128131118Y-96617840D01*
X128187051Y-96659712D01*
X128195171Y-96672022D01*
X128219927Y-96714901D01*
X128219929Y-96714904D01*
X128219930Y-96714905D01*
X128285095Y-96780070D01*
X128327976Y-96804827D01*
X128376191Y-96855392D01*
X128389416Y-96923998D01*
X128363449Y-96988864D01*
X128353658Y-96999895D01*
X127853554Y-97499999D01*
X127853554Y-97500000D01*
X128353658Y-98000104D01*
X128387143Y-98061427D01*
X128382159Y-98131119D01*
X128340287Y-98187052D01*
X128327976Y-98195172D01*
X128285101Y-98219925D01*
X128285093Y-98219931D01*
X128219931Y-98285093D01*
X128219927Y-98285098D01*
X128195172Y-98327976D01*
X128144605Y-98376192D01*
X128075998Y-98389414D01*
X128011133Y-98363446D01*
X128000104Y-98353657D01*
X127492116Y-97845668D01*
X127479444Y-97850917D01*
X127475100Y-97866321D01*
X127475881Y-97866719D01*
X127473882Y-97870640D01*
X127473846Y-97870771D01*
X127473670Y-97871057D01*
X127387913Y-98039361D01*
X127387912Y-98039364D01*
X127329548Y-98218995D01*
X127303705Y-98382157D01*
X127300000Y-98405552D01*
X127300000Y-98594447D01*
X127308219Y-98646341D01*
X127329548Y-98781003D01*
X127387912Y-98960634D01*
X127387913Y-98960636D01*
X127426551Y-99036466D01*
X127473666Y-99128933D01*
X127492116Y-99154328D01*
X128000106Y-98646339D01*
X128061426Y-98612856D01*
X128131118Y-98617840D01*
X128187051Y-98659712D01*
X128195171Y-98672022D01*
X128219927Y-98714901D01*
X128219929Y-98714904D01*
X128219930Y-98714905D01*
X128285095Y-98780070D01*
X128327976Y-98804827D01*
X128376191Y-98855393D01*
X128389415Y-98924000D01*
X128363447Y-98988865D01*
X128353657Y-98999895D01*
X127845669Y-99507881D01*
X127845669Y-99507882D01*
X127845673Y-99507886D01*
X127871056Y-99526327D01*
X127871059Y-99526329D01*
X128039362Y-99612085D01*
X128039367Y-99612086D01*
X128039368Y-99612087D01*
X128039864Y-99612248D01*
X128218997Y-99670451D01*
X128405553Y-99700000D01*
X128594446Y-99700000D01*
X128594447Y-99700000D01*
X128781002Y-99670451D01*
X128960637Y-99612085D01*
X129128937Y-99526331D01*
X129154328Y-99507883D01*
X129154328Y-99507882D01*
X128937044Y-99290598D01*
X128646342Y-98999895D01*
X128612857Y-98938572D01*
X128617841Y-98868880D01*
X128659713Y-98812947D01*
X128672017Y-98804830D01*
X128714905Y-98780070D01*
X128780070Y-98714905D01*
X128804828Y-98672021D01*
X128855391Y-98623808D01*
X128923997Y-98610583D01*
X128988863Y-98636549D01*
X128999895Y-98646341D01*
X129507882Y-99154328D01*
X129507883Y-99154328D01*
X129526331Y-99128937D01*
X129612085Y-98960637D01*
X129670451Y-98781002D01*
X129700000Y-98594447D01*
X129700000Y-98405552D01*
X129670451Y-98218997D01*
X129612085Y-98039362D01*
X129526329Y-97871059D01*
X129522887Y-97866321D01*
X129507886Y-97845673D01*
X129507882Y-97845669D01*
X129507881Y-97845669D01*
X128999895Y-98353656D01*
X128938572Y-98387141D01*
X128868881Y-98382157D01*
X128812947Y-98340286D01*
X128804827Y-98327975D01*
X128780072Y-98285098D01*
X128780068Y-98285093D01*
X128714904Y-98219929D01*
X128699574Y-98211078D01*
X128672021Y-98195171D01*
X128623807Y-98144607D01*
X128610583Y-98076000D01*
X128636550Y-98011135D01*
X128646333Y-98000112D01*
X129146446Y-97500000D01*
X128646341Y-96999895D01*
X128612856Y-96938572D01*
X128617840Y-96868880D01*
X128659712Y-96812947D01*
X128672005Y-96804837D01*
X128714905Y-96780070D01*
X128780070Y-96714905D01*
X128804828Y-96672021D01*
X128855391Y-96623808D01*
X128923997Y-96610583D01*
X128988863Y-96636549D01*
X128999895Y-96646341D01*
X129507882Y-97154328D01*
X129507883Y-97154328D01*
X129526331Y-97128937D01*
X129526884Y-97127852D01*
X132170000Y-97127852D01*
X132176400Y-97187370D01*
X132176402Y-97187377D01*
X132226646Y-97322088D01*
X132226648Y-97322091D01*
X132312807Y-97437185D01*
X132312809Y-97437187D01*
X132312812Y-97437190D01*
X132427906Y-97523350D01*
X132427913Y-97523354D01*
X132562620Y-97573596D01*
X132562627Y-97573598D01*
X132569468Y-97574333D01*
X132622138Y-97579998D01*
X132622155Y-97579999D01*
X132622172Y-97580000D01*
X133180000Y-97580000D01*
X133680000Y-97580000D01*
X134237828Y-97580000D01*
X134237836Y-97580000D01*
X134237847Y-97579999D01*
X134273560Y-97576158D01*
X134297372Y-97573598D01*
X134297379Y-97573596D01*
X134432086Y-97523354D01*
X134432093Y-97523350D01*
X134547187Y-97437190D01*
X134547190Y-97437187D01*
X134633350Y-97322093D01*
X134633354Y-97322086D01*
X134683596Y-97187379D01*
X134683598Y-97187372D01*
X134685069Y-97173689D01*
X134689998Y-97127860D01*
X134690000Y-97127827D01*
X134690000Y-92250000D01*
X133680000Y-92250000D01*
X133680000Y-97580000D01*
X133180000Y-97580000D01*
X133180000Y-92250000D01*
X132170000Y-92250000D01*
X132170000Y-97127852D01*
X129526884Y-97127852D01*
X129612085Y-96960637D01*
X129670451Y-96781002D01*
X129700000Y-96594447D01*
X129700000Y-96405552D01*
X129670451Y-96218997D01*
X129612085Y-96039362D01*
X129526329Y-95871059D01*
X129522887Y-95866321D01*
X129507886Y-95845673D01*
X129507882Y-95845669D01*
X129507881Y-95845669D01*
X128999895Y-96353656D01*
X128938572Y-96387141D01*
X128868881Y-96382157D01*
X128812947Y-96340286D01*
X128804827Y-96327975D01*
X128780072Y-96285098D01*
X128780068Y-96285093D01*
X128714906Y-96219931D01*
X128714898Y-96219925D01*
X128672024Y-96195172D01*
X128623808Y-96144606D01*
X128610584Y-96075999D01*
X128636552Y-96011134D01*
X128646342Y-96000104D01*
X129154328Y-95492116D01*
X129128933Y-95473666D01*
X129122635Y-95470457D01*
X128960636Y-95387913D01*
X128960634Y-95387912D01*
X128781003Y-95329548D01*
X128687724Y-95314774D01*
X128594447Y-95300000D01*
X128594446Y-95300000D01*
X128405554Y-95300000D01*
X128405553Y-95300000D01*
X128343367Y-95309849D01*
X128218995Y-95329548D01*
X128039364Y-95387912D01*
X128039361Y-95387913D01*
X127871057Y-95473670D01*
X127870771Y-95473846D01*
X127870640Y-95473882D01*
X127866719Y-95475881D01*
X127866321Y-95475100D01*
X127850917Y-95479444D01*
X127845668Y-95492116D01*
X128353657Y-96000104D01*
X128387142Y-96061427D01*
X128382158Y-96131118D01*
X128340287Y-96187052D01*
X128327976Y-96195172D01*
X128285098Y-96219927D01*
X128285093Y-96219931D01*
X128219931Y-96285093D01*
X128219927Y-96285098D01*
X128195172Y-96327976D01*
X128144605Y-96376192D01*
X128075998Y-96389414D01*
X128011133Y-96363446D01*
X128000104Y-96353657D01*
X127492116Y-95845668D01*
X127479444Y-95850917D01*
X127475100Y-95866321D01*
X127475881Y-95866719D01*
X127473882Y-95870640D01*
X127473846Y-95870771D01*
X127473670Y-95871057D01*
X127387913Y-96039361D01*
X127387912Y-96039364D01*
X127329548Y-96218995D01*
X127306669Y-96363446D01*
X127300000Y-96405552D01*
X126500000Y-96405552D01*
X126500000Y-94550346D01*
X126504356Y-94517770D01*
X126512762Y-94486897D01*
X126525524Y-94456606D01*
X130986971Y-86872146D01*
X132170000Y-86872146D01*
X132170000Y-86872155D01*
X132170000Y-91750000D01*
X133180000Y-91750000D01*
X133680000Y-91750000D01*
X134690000Y-91750000D01*
X134690000Y-86872172D01*
X134689999Y-86872155D01*
X134689998Y-86872146D01*
X134689998Y-86872138D01*
X134683598Y-86812628D01*
X134683596Y-86812621D01*
X134681113Y-86805964D01*
X134633354Y-86677913D01*
X134633350Y-86677906D01*
X134547190Y-86562812D01*
X134547187Y-86562809D01*
X134547185Y-86562807D01*
X134489317Y-86519487D01*
X134432093Y-86476649D01*
X134432088Y-86476646D01*
X134432089Y-86476646D01*
X134297377Y-86426402D01*
X134297370Y-86426400D01*
X134237852Y-86420000D01*
X134237844Y-86420000D01*
X133680000Y-86420000D01*
X133680000Y-91750000D01*
X133180000Y-91750000D01*
X133180000Y-86420000D01*
X132622146Y-86420000D01*
X132562628Y-86426400D01*
X132562621Y-86426402D01*
X132427910Y-86476646D01*
X132427907Y-86476648D01*
X132312813Y-86562807D01*
X132312807Y-86562813D01*
X132226648Y-86677907D01*
X132226646Y-86677910D01*
X132176402Y-86812621D01*
X132176400Y-86812628D01*
X132170000Y-86872146D01*
X130986971Y-86872146D01*
X131455004Y-86076490D01*
X131477039Y-86048934D01*
X131490962Y-86035872D01*
X131547064Y-86005684D01*
X131551459Y-86004637D01*
X131556760Y-86003375D01*
X131585492Y-86000000D01*
X134858170Y-86000000D01*
X134893106Y-86005023D01*
G37*
%TD.AperFunction*%
%TD*%
%TA.AperFunction,Conductor*%
%TO.N,GND*%
G36*
X141141830Y-111505500D02*
G01*
X142152450Y-111505500D01*
X142219489Y-111525185D01*
X142265244Y-111577989D01*
X142275808Y-111642104D01*
X142275000Y-111650007D01*
X142275000Y-111650013D01*
X142275000Y-111700000D01*
X144724999Y-111700000D01*
X144724999Y-111650028D01*
X144724998Y-111650013D01*
X144724190Y-111642100D01*
X144736960Y-111573407D01*
X144784842Y-111522524D01*
X144847548Y-111505500D01*
X145370500Y-111505500D01*
X145437539Y-111525185D01*
X145483294Y-111577989D01*
X145494500Y-111629500D01*
X145494500Y-113362673D01*
X145497391Y-113416649D01*
X145497394Y-113416681D01*
X145500222Y-113443010D01*
X145503588Y-113463786D01*
X145506018Y-113478785D01*
X145508882Y-113496457D01*
X145508886Y-113496483D01*
X145510529Y-113504033D01*
X145510529Y-113504035D01*
X145552481Y-113622923D01*
X145552482Y-113622926D01*
X145552484Y-113622929D01*
X145579964Y-113677804D01*
X145650030Y-113782610D01*
X145651217Y-113783979D01*
X145651219Y-113783981D01*
X145695317Y-113822175D01*
X145759905Y-113878116D01*
X145818651Y-113915859D01*
X145949446Y-113975585D01*
X145949447Y-113975585D01*
X145949448Y-113975586D01*
X145964447Y-113979991D01*
X146034931Y-113995327D01*
X146069872Y-114000352D01*
X146141830Y-114005500D01*
X147182397Y-114005500D01*
X147249436Y-114025185D01*
X147295191Y-114077989D01*
X147305135Y-114147147D01*
X147284325Y-114200116D01*
X147259698Y-114235662D01*
X147259697Y-114235664D01*
X147165900Y-114442162D01*
X147165894Y-114442182D01*
X147165893Y-114442183D01*
X147110489Y-114662058D01*
X147110485Y-114662078D01*
X147110483Y-114662087D01*
X147110482Y-114662093D01*
X147100000Y-114795280D01*
X147100000Y-115750000D01*
X148027583Y-115750000D01*
X148094622Y-115769685D01*
X148140377Y-115822489D01*
X148149921Y-115888865D01*
X148150382Y-115888902D01*
X148150220Y-115890949D01*
X148150321Y-115891647D01*
X148150058Y-115893389D01*
X148150000Y-115893755D01*
X148150000Y-116106244D01*
X148150058Y-116106611D01*
X148150039Y-116106752D01*
X148150382Y-116111098D01*
X148149468Y-116111169D01*
X148141098Y-116175904D01*
X148096098Y-116229352D01*
X148029345Y-116249987D01*
X148027583Y-116250000D01*
X147100000Y-116250000D01*
X147100000Y-117204719D01*
X147110482Y-117337906D01*
X147110483Y-117337912D01*
X147110485Y-117337923D01*
X147110489Y-117337940D01*
X147165893Y-117557815D01*
X147165894Y-117557816D01*
X147165900Y-117557836D01*
X147259697Y-117764334D01*
X147259698Y-117764336D01*
X147388847Y-117950752D01*
X147388854Y-117950762D01*
X147388857Y-117950765D01*
X147388873Y-117950783D01*
X147549215Y-118111125D01*
X147549224Y-118111133D01*
X147549229Y-118111138D01*
X147549241Y-118111148D01*
X147735663Y-118240301D01*
X147735669Y-118240304D01*
X147886178Y-118308668D01*
X147942162Y-118334098D01*
X147942163Y-118334098D01*
X147942167Y-118334100D01*
X147942170Y-118334101D01*
X147942182Y-118334104D01*
X147942183Y-118334105D01*
X148162058Y-118389509D01*
X148162062Y-118389509D01*
X148162087Y-118389516D01*
X148162093Y-118389517D01*
X148295280Y-118399999D01*
X148295294Y-118400000D01*
X149250000Y-118400000D01*
X149250000Y-117472416D01*
X149269685Y-117405377D01*
X149322489Y-117359622D01*
X149388865Y-117350077D01*
X149388902Y-117349618D01*
X149390945Y-117349778D01*
X149391647Y-117349678D01*
X149393272Y-117349923D01*
X149393753Y-117350000D01*
X149606241Y-117350000D01*
X149606247Y-117350000D01*
X149606591Y-117349945D01*
X149606723Y-117349962D01*
X149611098Y-117349618D01*
X149611170Y-117350536D01*
X149675882Y-117358892D01*
X149729339Y-117403882D01*
X149749987Y-117470631D01*
X149750000Y-117472416D01*
X149750000Y-118400000D01*
X150704696Y-118400000D01*
X150704706Y-118400000D01*
X150704719Y-118399999D01*
X150837906Y-118389517D01*
X150837912Y-118389516D01*
X150837940Y-118389509D01*
X151057815Y-118334105D01*
X151057815Y-118334104D01*
X151057829Y-118334101D01*
X151057832Y-118334100D01*
X151264330Y-118240304D01*
X151264336Y-118240301D01*
X151450758Y-118111148D01*
X151450770Y-118111138D01*
X151611138Y-117950770D01*
X151611148Y-117950758D01*
X151740301Y-117764336D01*
X151740304Y-117764330D01*
X151834100Y-117557832D01*
X151834101Y-117557829D01*
X151855624Y-117472416D01*
X151889509Y-117337940D01*
X151889509Y-117337939D01*
X151889516Y-117337912D01*
X151889517Y-117337906D01*
X151899999Y-117204719D01*
X151900000Y-117204706D01*
X151900000Y-116250000D01*
X150972417Y-116250000D01*
X150905378Y-116230315D01*
X150859623Y-116177511D01*
X150850078Y-116111134D01*
X150849618Y-116111098D01*
X150849779Y-116109050D01*
X150849679Y-116108353D01*
X150849942Y-116106611D01*
X150850000Y-116106244D01*
X150850000Y-115893755D01*
X150849942Y-115893389D01*
X150849960Y-115893247D01*
X150849618Y-115888902D01*
X150850531Y-115888830D01*
X150858902Y-115824096D01*
X150903902Y-115770648D01*
X150970655Y-115750013D01*
X150972417Y-115750000D01*
X151900000Y-115750000D01*
X151900000Y-114795300D01*
X151900000Y-114795293D01*
X151899999Y-114795280D01*
X151889517Y-114662093D01*
X151889516Y-114662087D01*
X151889509Y-114662058D01*
X151834105Y-114442183D01*
X151834104Y-114442182D01*
X151834101Y-114442170D01*
X151834100Y-114442167D01*
X151740304Y-114235669D01*
X151740301Y-114235663D01*
X151715673Y-114200115D01*
X151693677Y-114133799D01*
X151711025Y-114066118D01*
X151762211Y-114018559D01*
X151817602Y-114005500D01*
X151862668Y-114005500D01*
X151916738Y-114002600D01*
X151943109Y-113999763D01*
X151996544Y-113991099D01*
X152004102Y-113989454D01*
X152083342Y-113961485D01*
X152122961Y-113947502D01*
X152152887Y-113932514D01*
X152177824Y-113920025D01*
X152282610Y-113849969D01*
X152283979Y-113848782D01*
X152283985Y-113848774D01*
X152287102Y-113845657D01*
X152288475Y-113847029D01*
X152340502Y-113813555D01*
X152410372Y-113813518D01*
X152469170Y-113851262D01*
X152498228Y-113914802D01*
X152499500Y-113932514D01*
X152499500Y-121994363D01*
X152499443Y-121998117D01*
X152499329Y-122001881D01*
X152499160Y-122005614D01*
X152481954Y-122290054D01*
X152481275Y-122297523D01*
X152480373Y-122304947D01*
X152479247Y-122312343D01*
X152428893Y-122587117D01*
X152427319Y-122594449D01*
X152425530Y-122601705D01*
X152423520Y-122608911D01*
X152340421Y-122875586D01*
X152337980Y-122882663D01*
X152335321Y-122889675D01*
X152332452Y-122896600D01*
X152217816Y-123151308D01*
X152214543Y-123158031D01*
X152211062Y-123164665D01*
X152207381Y-123171192D01*
X152158801Y-123251555D01*
X152062863Y-123410257D01*
X152058807Y-123416530D01*
X152054549Y-123422699D01*
X152050117Y-123428723D01*
X151877837Y-123648621D01*
X151873038Y-123654379D01*
X151868072Y-123659984D01*
X151862941Y-123665434D01*
X151665434Y-123862941D01*
X151659984Y-123868072D01*
X151654379Y-123873038D01*
X151648621Y-123877837D01*
X151428723Y-124050117D01*
X151422699Y-124054549D01*
X151416530Y-124058807D01*
X151410255Y-124062863D01*
X151171192Y-124207381D01*
X151164665Y-124211062D01*
X151158031Y-124214543D01*
X151151308Y-124217816D01*
X150896600Y-124332452D01*
X150889675Y-124335321D01*
X150882663Y-124337980D01*
X150875586Y-124340421D01*
X150608911Y-124423520D01*
X150601708Y-124425529D01*
X150594439Y-124427321D01*
X150587117Y-124428893D01*
X150312343Y-124479247D01*
X150304947Y-124480373D01*
X150297523Y-124481275D01*
X150290054Y-124481954D01*
X150005614Y-124499160D01*
X150001881Y-124499329D01*
X149998117Y-124499443D01*
X149994363Y-124499500D01*
X128005637Y-124499500D01*
X128001884Y-124499443D01*
X127998119Y-124499329D01*
X127994385Y-124499160D01*
X127709944Y-124481954D01*
X127702475Y-124481275D01*
X127695051Y-124480373D01*
X127687655Y-124479247D01*
X127412881Y-124428893D01*
X127405566Y-124427322D01*
X127398282Y-124425526D01*
X127391087Y-124423520D01*
X127124407Y-124340420D01*
X127117334Y-124337980D01*
X127110310Y-124335316D01*
X127103420Y-124332461D01*
X127048880Y-124307915D01*
X126954096Y-124265255D01*
X126954096Y-124265256D01*
X126848683Y-124217813D01*
X126841951Y-124214535D01*
X126835324Y-124211057D01*
X126828820Y-124207389D01*
X126589727Y-124062854D01*
X126583483Y-124058817D01*
X126577283Y-124054538D01*
X126571275Y-124050117D01*
X126351377Y-123877837D01*
X126345619Y-123873038D01*
X126340014Y-123868072D01*
X126334564Y-123862941D01*
X126137057Y-123665434D01*
X126131926Y-123659984D01*
X126126960Y-123654379D01*
X126122161Y-123648621D01*
X125949872Y-123428711D01*
X125945444Y-123422691D01*
X125941192Y-123416532D01*
X125937147Y-123410275D01*
X125792602Y-123171167D01*
X125788941Y-123164674D01*
X125785463Y-123158047D01*
X125782191Y-123151329D01*
X125667532Y-122896567D01*
X125664672Y-122889662D01*
X125662018Y-122882663D01*
X125659581Y-122875599D01*
X125641084Y-122816241D01*
X125576478Y-122608911D01*
X125575141Y-122603516D01*
X125574468Y-122601703D01*
X125572677Y-122594437D01*
X125571107Y-122587127D01*
X125538866Y-122411193D01*
X125535663Y-122393713D01*
X126649500Y-122393713D01*
X126649500Y-122398157D01*
X126649500Y-122606291D01*
X126649916Y-122608916D01*
X126659534Y-122669644D01*
X126665801Y-122709209D01*
X126681226Y-122806598D01*
X126681601Y-122811362D01*
X126683770Y-122820553D01*
X126685623Y-122825074D01*
X126705528Y-122886335D01*
X126709107Y-122897349D01*
X126748445Y-123018418D01*
X126841532Y-123201111D01*
X126844951Y-123207820D01*
X126969890Y-123379786D01*
X126969892Y-123379788D01*
X127120216Y-123530112D01*
X127292183Y-123655052D01*
X127292471Y-123655197D01*
X127481588Y-123751557D01*
X127683757Y-123817246D01*
X127893713Y-123850500D01*
X127893714Y-123850500D01*
X128106286Y-123850500D01*
X128106287Y-123850500D01*
X128316243Y-123817246D01*
X128518412Y-123751557D01*
X128707816Y-123655051D01*
X128729789Y-123639086D01*
X128879786Y-123530109D01*
X128879786Y-123530108D01*
X128879844Y-123530066D01*
X128880605Y-123529290D01*
X129029290Y-123380605D01*
X129030065Y-123379845D01*
X129030124Y-123379765D01*
X129075546Y-123317246D01*
X129155048Y-123207820D01*
X129155047Y-123207820D01*
X129155051Y-123207816D01*
X129155053Y-123207810D01*
X129175445Y-123179744D01*
X129183730Y-123151529D01*
X129251557Y-123018412D01*
X129317246Y-122816243D01*
X129350500Y-122606287D01*
X129350500Y-122393713D01*
X129317246Y-122183757D01*
X129251557Y-121981588D01*
X129155197Y-121792471D01*
X129155052Y-121792183D01*
X129030112Y-121620216D01*
X128904921Y-121495025D01*
X137200000Y-121495025D01*
X137200000Y-121699671D01*
X137232008Y-121901759D01*
X137232009Y-121901766D01*
X137295244Y-122096380D01*
X137339767Y-122183760D01*
X137388145Y-122278707D01*
X137420517Y-122323263D01*
X137420521Y-122323268D01*
X137420523Y-122323270D01*
X137420524Y-122323271D01*
X137963503Y-121780291D01*
X138024824Y-121746808D01*
X138094515Y-121751792D01*
X138150449Y-121793663D01*
X138158567Y-121805971D01*
X138179920Y-121842955D01*
X138254394Y-121917429D01*
X138254395Y-121917430D01*
X138254397Y-121917431D01*
X138291373Y-121938779D01*
X138339588Y-121989345D01*
X138352812Y-122057952D01*
X138326844Y-122122817D01*
X138317054Y-122133847D01*
X137774075Y-122676822D01*
X137774076Y-122676822D01*
X137774076Y-122676823D01*
X137818650Y-122709208D01*
X137904786Y-122753096D01*
X138000963Y-122802102D01*
X138000965Y-122802102D01*
X138000968Y-122802104D01*
X138195582Y-122865339D01*
X138397683Y-122897349D01*
X138602316Y-122897349D01*
X138602317Y-122897349D01*
X138804417Y-122865339D01*
X138999031Y-122802104D01*
X139181349Y-122709208D01*
X139225921Y-122676823D01*
X138682945Y-122133847D01*
X138649460Y-122072524D01*
X138654444Y-122002832D01*
X138696316Y-121946899D01*
X138708618Y-121938783D01*
X138745606Y-121917429D01*
X138820080Y-121842955D01*
X138841430Y-121805974D01*
X138891995Y-121757760D01*
X138960602Y-121744536D01*
X139025467Y-121770503D01*
X139036498Y-121780294D01*
X139579473Y-122323269D01*
X139579474Y-122323270D01*
X139611859Y-122278698D01*
X139704755Y-122096380D01*
X139767989Y-121901767D01*
X139769266Y-121893707D01*
X148649500Y-121893707D01*
X148649500Y-122106291D01*
X148681551Y-122308654D01*
X148681552Y-122308659D01*
X148682754Y-122316243D01*
X148682755Y-122316248D01*
X148703048Y-122378702D01*
X148709369Y-122398157D01*
X148713605Y-122411192D01*
X148748445Y-122518418D01*
X148841532Y-122701111D01*
X148844951Y-122707820D01*
X148969890Y-122879786D01*
X148969892Y-122879788D01*
X149120216Y-123030112D01*
X149292183Y-123155052D01*
X149292471Y-123155197D01*
X149481588Y-123251557D01*
X149683757Y-123317246D01*
X149893713Y-123350500D01*
X149893714Y-123350500D01*
X150106286Y-123350500D01*
X150106287Y-123350500D01*
X150316243Y-123317246D01*
X150518412Y-123251557D01*
X150707816Y-123155051D01*
X150729789Y-123139086D01*
X150879786Y-123030109D01*
X150879786Y-123030108D01*
X150879844Y-123030066D01*
X150880605Y-123029290D01*
X151029290Y-122880605D01*
X151030065Y-122879845D01*
X151030124Y-122879765D01*
X151030548Y-122879182D01*
X151155048Y-122707820D01*
X151155047Y-122707820D01*
X151155051Y-122707816D01*
X151155053Y-122707810D01*
X151175445Y-122679744D01*
X151183730Y-122651529D01*
X151251557Y-122518412D01*
X151317246Y-122316243D01*
X151350500Y-122106287D01*
X151350500Y-121893713D01*
X151317246Y-121683757D01*
X151251557Y-121481588D01*
X151155197Y-121292471D01*
X151155052Y-121292183D01*
X151030112Y-121120216D01*
X150879788Y-120969892D01*
X150879786Y-120969890D01*
X150707820Y-120844951D01*
X150535911Y-120757359D01*
X150530571Y-120753479D01*
X150506254Y-120743406D01*
X150499734Y-120742374D01*
X150438726Y-120722551D01*
X150325074Y-120685623D01*
X150320552Y-120683770D01*
X150311362Y-120681600D01*
X150306599Y-120681226D01*
X150154957Y-120657208D01*
X150135489Y-120654124D01*
X150106290Y-120649500D01*
X150106287Y-120649500D01*
X149893713Y-120649500D01*
X149893709Y-120649500D01*
X149854776Y-120655666D01*
X149845042Y-120657208D01*
X149807654Y-120663129D01*
X149683763Y-120682752D01*
X149481582Y-120748445D01*
X149292182Y-120844949D01*
X149120210Y-120969892D01*
X148969892Y-121120210D01*
X148844949Y-121292182D01*
X148748445Y-121481580D01*
X148682752Y-121683759D01*
X148649500Y-121893707D01*
X139769266Y-121893707D01*
X139773110Y-121869442D01*
X139773110Y-121869441D01*
X139800000Y-121699666D01*
X139800000Y-121495031D01*
X139767990Y-121292931D01*
X139704755Y-121098317D01*
X139704753Y-121098314D01*
X139704753Y-121098312D01*
X139611859Y-120915999D01*
X139603156Y-120904021D01*
X139593615Y-120877282D01*
X139579473Y-120871424D01*
X139036497Y-121414402D01*
X138975174Y-121447887D01*
X138905483Y-121442903D01*
X138849549Y-121401032D01*
X138841430Y-121388723D01*
X138820080Y-121351743D01*
X138745606Y-121277269D01*
X138708625Y-121255918D01*
X138660410Y-121205352D01*
X138647186Y-121136745D01*
X138673154Y-121071880D01*
X138682936Y-121060858D01*
X139225922Y-120517873D01*
X139225921Y-120517872D01*
X139225920Y-120517871D01*
X139225919Y-120517870D01*
X139225914Y-120517866D01*
X139181360Y-120485496D01*
X139181357Y-120485493D01*
X139116198Y-120452293D01*
X138999031Y-120392593D01*
X138804417Y-120329358D01*
X138804411Y-120329357D01*
X138602322Y-120297349D01*
X138602317Y-120297349D01*
X138397683Y-120297349D01*
X138397678Y-120297349D01*
X138195587Y-120329357D01*
X138195585Y-120329357D01*
X138195582Y-120329358D01*
X138098275Y-120360975D01*
X138000963Y-120392594D01*
X137818640Y-120485494D01*
X137774077Y-120517871D01*
X137774077Y-120517872D01*
X137774077Y-120517873D01*
X138101155Y-120844951D01*
X138317055Y-121060850D01*
X138350540Y-121122173D01*
X138345556Y-121191864D01*
X138303685Y-121247798D01*
X138291374Y-121255918D01*
X138254397Y-121277266D01*
X138254392Y-121277270D01*
X138179921Y-121351741D01*
X138179915Y-121351749D01*
X138158568Y-121388723D01*
X138108001Y-121436938D01*
X138039393Y-121450160D01*
X137974529Y-121424192D01*
X137963501Y-121414403D01*
X137420524Y-120871426D01*
X137420523Y-120871426D01*
X137420522Y-120871426D01*
X137388145Y-120915989D01*
X137295245Y-121098312D01*
X137278613Y-121149500D01*
X137232009Y-121292931D01*
X137232008Y-121292934D01*
X137232008Y-121292936D01*
X137200000Y-121495025D01*
X128904921Y-121495025D01*
X128879788Y-121469892D01*
X128879786Y-121469890D01*
X128707820Y-121344951D01*
X128604249Y-121292179D01*
X128535911Y-121257359D01*
X128530571Y-121253479D01*
X128506254Y-121243406D01*
X128499734Y-121242374D01*
X128438726Y-121222551D01*
X128325074Y-121185623D01*
X128320552Y-121183770D01*
X128311362Y-121181600D01*
X128306599Y-121181226D01*
X128154957Y-121157208D01*
X128135489Y-121154124D01*
X128106290Y-121149500D01*
X128106287Y-121149500D01*
X127893713Y-121149500D01*
X127893709Y-121149500D01*
X127854776Y-121155666D01*
X127845042Y-121157208D01*
X127807654Y-121163129D01*
X127683763Y-121182752D01*
X127481582Y-121248445D01*
X127292182Y-121344949D01*
X127292179Y-121344950D01*
X127292179Y-121344951D01*
X127282822Y-121351749D01*
X127120210Y-121469892D01*
X126969892Y-121620210D01*
X126969890Y-121620213D01*
X126874294Y-121751792D01*
X126844949Y-121792182D01*
X126748445Y-121981580D01*
X126682752Y-122183759D01*
X126664211Y-122300829D01*
X126664198Y-122300910D01*
X126664140Y-122301281D01*
X126649500Y-122393713D01*
X125535663Y-122393713D01*
X125520750Y-122312339D01*
X125519624Y-122304936D01*
X125518723Y-122297515D01*
X125518045Y-122290060D01*
X125517358Y-122278707D01*
X125517358Y-122278704D01*
X125506929Y-122106286D01*
X125500837Y-122005575D01*
X125500669Y-122001848D01*
X125500556Y-121998084D01*
X125500500Y-121994363D01*
X125500500Y-120128541D01*
X125520185Y-120061502D01*
X125572989Y-120015747D01*
X125633349Y-120004857D01*
X125642330Y-120005500D01*
X143862668Y-120005500D01*
X143916738Y-120002600D01*
X143943109Y-119999763D01*
X143996544Y-119991099D01*
X144004102Y-119989454D01*
X144083342Y-119961485D01*
X144122961Y-119947502D01*
X144122963Y-119947501D01*
X144177824Y-119920025D01*
X144282610Y-119849969D01*
X144283979Y-119848782D01*
X144378110Y-119740104D01*
X144415853Y-119681361D01*
X144475583Y-119550563D01*
X144479988Y-119535565D01*
X144495328Y-119465066D01*
X144500353Y-119430122D01*
X144505500Y-119358170D01*
X144505500Y-114137331D01*
X144502600Y-114083261D01*
X144499763Y-114056890D01*
X144491099Y-114003455D01*
X144490423Y-114000349D01*
X144489457Y-113995910D01*
X144489456Y-113995907D01*
X144489454Y-113995897D01*
X144472372Y-113947501D01*
X144447502Y-113877037D01*
X144420029Y-113822183D01*
X144420025Y-113822175D01*
X144349969Y-113717389D01*
X144348782Y-113716020D01*
X144241297Y-113622926D01*
X144240087Y-113621878D01*
X144240083Y-113621875D01*
X144181343Y-113584137D01*
X144181338Y-113584134D01*
X144181337Y-113584134D01*
X144050525Y-113524405D01*
X144050520Y-113524403D01*
X144050519Y-113524403D01*
X144045883Y-113523042D01*
X144035527Y-113520001D01*
X143997588Y-113511747D01*
X143965045Y-113504667D01*
X143930110Y-113499645D01*
X143858172Y-113494500D01*
X143858170Y-113494500D01*
X139129500Y-113494500D01*
X139062461Y-113474815D01*
X139016706Y-113422011D01*
X139005500Y-113370500D01*
X139005500Y-112747846D01*
X139025185Y-112680807D01*
X139077989Y-112635052D01*
X139147147Y-112625108D01*
X139210703Y-112654133D01*
X139217181Y-112660165D01*
X139301955Y-112744939D01*
X139301958Y-112744941D01*
X139301961Y-112744944D01*
X139301965Y-112744947D01*
X139301973Y-112744952D01*
X139301980Y-112744957D01*
X139374431Y-112789645D01*
X139448688Y-112835448D01*
X139448699Y-112835453D01*
X139612347Y-112889680D01*
X139713352Y-112899999D01*
X139750000Y-112899999D01*
X140250000Y-112899999D01*
X140286628Y-112899999D01*
X140286640Y-112899999D01*
X140286654Y-112899998D01*
X140387652Y-112889680D01*
X140551300Y-112835453D01*
X140551311Y-112835448D01*
X140698034Y-112744947D01*
X140698038Y-112744944D01*
X140819944Y-112623038D01*
X140819947Y-112623034D01*
X140910448Y-112476311D01*
X140910453Y-112476300D01*
X140964680Y-112312652D01*
X140971082Y-112249995D01*
X142275001Y-112249995D01*
X142285493Y-112352694D01*
X142285493Y-112352695D01*
X142285494Y-112352697D01*
X142340641Y-112519119D01*
X142340643Y-112519124D01*
X142432684Y-112668345D01*
X142556654Y-112792315D01*
X142705875Y-112884356D01*
X142705880Y-112884358D01*
X142872299Y-112939504D01*
X142872300Y-112939504D01*
X142872302Y-112939505D01*
X142872309Y-112939506D01*
X142975019Y-112949999D01*
X143249999Y-112949999D01*
X143750000Y-112949999D01*
X144024960Y-112949999D01*
X144024972Y-112949999D01*
X144024986Y-112949998D01*
X144127697Y-112939505D01*
X144294119Y-112884358D01*
X144294124Y-112884356D01*
X144443345Y-112792315D01*
X144567315Y-112668345D01*
X144659356Y-112519124D01*
X144659358Y-112519119D01*
X144714505Y-112352697D01*
X144714506Y-112352690D01*
X144724999Y-112249986D01*
X144725000Y-112249973D01*
X144725000Y-112200000D01*
X143750000Y-112200000D01*
X143750000Y-112949999D01*
X143249999Y-112949999D01*
X143250000Y-112949998D01*
X143250000Y-112200000D01*
X142275001Y-112200000D01*
X142275001Y-112249995D01*
X140971082Y-112249995D01*
X140974999Y-112211654D01*
X140975000Y-112211641D01*
X140975000Y-112162500D01*
X140250000Y-112162500D01*
X140250000Y-112899999D01*
X139750000Y-112899999D01*
X139750000Y-112054329D01*
X139755023Y-112019393D01*
X139759427Y-112004395D01*
X139769069Y-111989386D01*
X139769685Y-111987290D01*
X139771334Y-111985860D01*
X139797172Y-111945644D01*
X139798541Y-111944457D01*
X139853420Y-111916977D01*
X139860979Y-111915333D01*
X139887332Y-111912500D01*
X140000000Y-111912500D01*
X140000000Y-111804329D01*
X140005023Y-111769393D01*
X140009427Y-111754395D01*
X140047172Y-111695644D01*
X140048541Y-111694457D01*
X140103420Y-111666977D01*
X140110979Y-111665333D01*
X140137332Y-111662500D01*
X140974999Y-111662500D01*
X140974999Y-111626752D01*
X140994684Y-111559713D01*
X141047488Y-111513958D01*
X141107845Y-111503068D01*
X141141830Y-111505500D01*
G37*
%TD.AperFunction*%
%TA.AperFunction,Conductor*%
G36*
X149998084Y-85000556D02*
G01*
X150001848Y-85000669D01*
X150005575Y-85000837D01*
X150290069Y-85018045D01*
X150297505Y-85018721D01*
X150304951Y-85019625D01*
X150312324Y-85020747D01*
X150587134Y-85071108D01*
X150594431Y-85072675D01*
X150601691Y-85074465D01*
X150601703Y-85074468D01*
X150608909Y-85076477D01*
X150875613Y-85159586D01*
X150882663Y-85162018D01*
X150889671Y-85164675D01*
X150896567Y-85167532D01*
X151151322Y-85282188D01*
X151158048Y-85285464D01*
X151164684Y-85288947D01*
X151171191Y-85292617D01*
X151410260Y-85437137D01*
X151416534Y-85441194D01*
X151422686Y-85445440D01*
X151428711Y-85449872D01*
X151648261Y-85621879D01*
X151648621Y-85622161D01*
X151654379Y-85626960D01*
X151659984Y-85631926D01*
X151665434Y-85637057D01*
X151862941Y-85834564D01*
X151868072Y-85840014D01*
X151873038Y-85845619D01*
X151877837Y-85851377D01*
X152050117Y-86071275D01*
X152054538Y-86077283D01*
X152058817Y-86083483D01*
X152062854Y-86089727D01*
X152207385Y-86328813D01*
X152211057Y-86335324D01*
X152214535Y-86341951D01*
X152217813Y-86348683D01*
X152232462Y-86381231D01*
X152265256Y-86454096D01*
X152272365Y-86469892D01*
X152275207Y-86476206D01*
X152332452Y-86603398D01*
X152335321Y-86610323D01*
X152337980Y-86617335D01*
X152340421Y-86624412D01*
X152423520Y-86891087D01*
X152425526Y-86898282D01*
X152427322Y-86905566D01*
X152428893Y-86912881D01*
X152479247Y-87187655D01*
X152480373Y-87195051D01*
X152481275Y-87202475D01*
X152481954Y-87209944D01*
X152499160Y-87494384D01*
X152499329Y-87498117D01*
X152499443Y-87501881D01*
X152499500Y-87505635D01*
X152499500Y-90345940D01*
X152494476Y-90380878D01*
X152491289Y-90391731D01*
X152453514Y-90450508D01*
X152389957Y-90479531D01*
X152320807Y-90469590D01*
X152313829Y-90466403D01*
X152277657Y-90441289D01*
X152193657Y-90357289D01*
X152193656Y-90357288D01*
X152044334Y-90265186D01*
X151886265Y-90212807D01*
X151883445Y-90211641D01*
X151877792Y-90209999D01*
X151775019Y-90199500D01*
X151775010Y-90199500D01*
X151174998Y-90199500D01*
X151174980Y-90199501D01*
X151174972Y-90199501D01*
X151174953Y-90199503D01*
X151072197Y-90210000D01*
X151072193Y-90210001D01*
X151072032Y-90210056D01*
X150905667Y-90265185D01*
X150905665Y-90265186D01*
X150905663Y-90265187D01*
X150806115Y-90326588D01*
X150756340Y-90357290D01*
X150632290Y-90481340D01*
X150540187Y-90630662D01*
X150540152Y-90630770D01*
X150495300Y-90766123D01*
X150486852Y-90779069D01*
X150485365Y-90793630D01*
X150484542Y-90799881D01*
X150484359Y-90803476D01*
X150474500Y-90899973D01*
X150474500Y-90899983D01*
X150474500Y-93300001D01*
X150474501Y-93300018D01*
X150485000Y-93402796D01*
X150485001Y-93402799D01*
X150540185Y-93569331D01*
X150540186Y-93569334D01*
X150632288Y-93718656D01*
X150756344Y-93842712D01*
X150905666Y-93934814D01*
X151072203Y-93989999D01*
X151174991Y-94000500D01*
X151775008Y-94000499D01*
X151775058Y-94000499D01*
X151775225Y-94000489D01*
X151776331Y-94000363D01*
X151821459Y-93995753D01*
X151831303Y-93994748D01*
X151831303Y-93994747D01*
X151877797Y-93989999D01*
X152044334Y-93934814D01*
X152193656Y-93842712D01*
X152275217Y-93761150D01*
X152303457Y-93740009D01*
X152313391Y-93734585D01*
X152381661Y-93719732D01*
X152447126Y-93744146D01*
X152488999Y-93800078D01*
X152489001Y-93800082D01*
X152491682Y-93807270D01*
X152499500Y-93850604D01*
X152499500Y-97845940D01*
X152494476Y-97880878D01*
X152491289Y-97891731D01*
X152453514Y-97950508D01*
X152389957Y-97979531D01*
X152320807Y-97969590D01*
X152313829Y-97966403D01*
X152277657Y-97941289D01*
X152193657Y-97857289D01*
X152193656Y-97857288D01*
X152044334Y-97765186D01*
X151886265Y-97712807D01*
X151883445Y-97711641D01*
X151877792Y-97709999D01*
X151775019Y-97699500D01*
X151775010Y-97699500D01*
X151174998Y-97699500D01*
X151174980Y-97699501D01*
X151174972Y-97699501D01*
X151174953Y-97699503D01*
X151072197Y-97710000D01*
X151072193Y-97710001D01*
X151072032Y-97710056D01*
X150905667Y-97765185D01*
X150905665Y-97765186D01*
X150905663Y-97765187D01*
X150806115Y-97826588D01*
X150756340Y-97857290D01*
X150632290Y-97981340D01*
X150540187Y-98130662D01*
X150540152Y-98130770D01*
X150495300Y-98266123D01*
X150486852Y-98279069D01*
X150485365Y-98293630D01*
X150484542Y-98299881D01*
X150484359Y-98303476D01*
X150474500Y-98399973D01*
X150474500Y-98399981D01*
X150474500Y-98399983D01*
X150474500Y-100800001D01*
X150474501Y-100800018D01*
X150485000Y-100902796D01*
X150485001Y-100902799D01*
X150517214Y-101000009D01*
X150540186Y-101069334D01*
X150632288Y-101218656D01*
X150756344Y-101342712D01*
X150905666Y-101434814D01*
X151072203Y-101489999D01*
X151174991Y-101500500D01*
X151775008Y-101500499D01*
X151775058Y-101500499D01*
X151775225Y-101500489D01*
X151776331Y-101500363D01*
X151821459Y-101495753D01*
X151831303Y-101494748D01*
X151831303Y-101494747D01*
X151877797Y-101489999D01*
X152044334Y-101434814D01*
X152193656Y-101342712D01*
X152275217Y-101261150D01*
X152303457Y-101240009D01*
X152313391Y-101234585D01*
X152381661Y-101219732D01*
X152447126Y-101244146D01*
X152488999Y-101300078D01*
X152489001Y-101300082D01*
X152491682Y-101307270D01*
X152499500Y-101350604D01*
X152499500Y-105075117D01*
X152479815Y-105142156D01*
X152427011Y-105187911D01*
X152357853Y-105197855D01*
X152294319Y-105168848D01*
X152240095Y-105121884D01*
X152240083Y-105121875D01*
X152181343Y-105084137D01*
X152181338Y-105084134D01*
X152181337Y-105084134D01*
X152050525Y-105024405D01*
X152050520Y-105024403D01*
X152050519Y-105024403D01*
X152045883Y-105023042D01*
X152035527Y-105020001D01*
X151997588Y-105011747D01*
X151965045Y-105004667D01*
X151930110Y-104999645D01*
X151858172Y-104994500D01*
X151858170Y-104994500D01*
X146129500Y-104994500D01*
X146062461Y-104974815D01*
X146016706Y-104922011D01*
X146005500Y-104870500D01*
X146005500Y-101615390D01*
X146025185Y-101548351D01*
X146077989Y-101502596D01*
X146142103Y-101492032D01*
X146224991Y-101500500D01*
X146825008Y-101500499D01*
X146825058Y-101500499D01*
X146825225Y-101500489D01*
X146826331Y-101500363D01*
X146871459Y-101495753D01*
X146881303Y-101494748D01*
X146881303Y-101494747D01*
X146927797Y-101489999D01*
X147094334Y-101434814D01*
X147243656Y-101342712D01*
X147367712Y-101218656D01*
X147459814Y-101069334D01*
X147514999Y-100902797D01*
X147525500Y-100800009D01*
X147525499Y-98399992D01*
X147514999Y-98297203D01*
X147459814Y-98130666D01*
X147367712Y-97981344D01*
X147243656Y-97857288D01*
X147094334Y-97765186D01*
X146936265Y-97712807D01*
X146933445Y-97711641D01*
X146927792Y-97709999D01*
X146825019Y-97699500D01*
X146825010Y-97699500D01*
X146224998Y-97699500D01*
X146224980Y-97699501D01*
X146224972Y-97699501D01*
X146224953Y-97699503D01*
X146122197Y-97710000D01*
X146122192Y-97710002D01*
X146122033Y-97710055D01*
X146063575Y-97729427D01*
X145993746Y-97731830D01*
X145933704Y-97696099D01*
X145902511Y-97633579D01*
X145900934Y-97621232D01*
X145882589Y-97382753D01*
X145675015Y-94684290D01*
X147574500Y-94684290D01*
X147574500Y-96215708D01*
X147577401Y-96252570D01*
X147577401Y-96252572D01*
X147577402Y-96252573D01*
X147577403Y-96252579D01*
X147623252Y-96410386D01*
X147623256Y-96410399D01*
X147706914Y-96551857D01*
X147706917Y-96551862D01*
X147706923Y-96551870D01*
X147706929Y-96551877D01*
X147725572Y-96570519D01*
X147746724Y-96598773D01*
X147759330Y-96621858D01*
X147774499Y-96681287D01*
X147774499Y-96761961D01*
X147768600Y-96782047D01*
X147815423Y-96956787D01*
X147835663Y-96991843D01*
X147844798Y-97014430D01*
X147856422Y-97027799D01*
X147894467Y-97093696D01*
X147894477Y-97093712D01*
X147894481Y-97093718D01*
X147894485Y-97093723D01*
X148015314Y-97214552D01*
X148015359Y-97214595D01*
X148125573Y-97324809D01*
X148146723Y-97353061D01*
X148159331Y-97376150D01*
X148174500Y-97435579D01*
X148174500Y-100457071D01*
X148169476Y-100492008D01*
X148162064Y-100517249D01*
X148130769Y-100569993D01*
X147894480Y-100806281D01*
X147894478Y-100806283D01*
X147889027Y-100815726D01*
X147875092Y-100839863D01*
X147866898Y-100854057D01*
X147815423Y-100943214D01*
X147774499Y-101095942D01*
X147774499Y-101095943D01*
X147774499Y-101095944D01*
X147774499Y-101266399D01*
X147774500Y-101266450D01*
X147774500Y-101711361D01*
X147769476Y-101746300D01*
X147762064Y-101771540D01*
X147730769Y-101824282D01*
X147706930Y-101848120D01*
X147706923Y-101848128D01*
X147706919Y-101848133D01*
X147706914Y-101848141D01*
X147623256Y-101989599D01*
X147623252Y-101989612D01*
X147577403Y-102147419D01*
X147577402Y-102147425D01*
X147577401Y-102147426D01*
X147577401Y-102147428D01*
X147574500Y-102184290D01*
X147574500Y-103715708D01*
X147577401Y-103752570D01*
X147577401Y-103752572D01*
X147577402Y-103752573D01*
X147577403Y-103752579D01*
X147623252Y-103910386D01*
X147623256Y-103910399D01*
X147706914Y-104051857D01*
X147706918Y-104051864D01*
X147706927Y-104051875D01*
X147823130Y-104168078D01*
X147823134Y-104168080D01*
X147823135Y-104168081D01*
X147839914Y-104178004D01*
X147952567Y-104244627D01*
X147964602Y-104251744D01*
X147981709Y-104256714D01*
X148006208Y-104263832D01*
X148006217Y-104263834D01*
X148006224Y-104263836D01*
X148111635Y-104294461D01*
X148112830Y-104294930D01*
X148121668Y-104297386D01*
X148123072Y-104297785D01*
X148123108Y-104297795D01*
X148123386Y-104297826D01*
X148127266Y-104297978D01*
X148159306Y-104300500D01*
X148159314Y-104300500D01*
X148590686Y-104300500D01*
X148590694Y-104300500D01*
X148622733Y-104297978D01*
X148626608Y-104297826D01*
X148626884Y-104297795D01*
X148626905Y-104297790D01*
X148628330Y-104297385D01*
X148637173Y-104294928D01*
X148638366Y-104294461D01*
X148669191Y-104285505D01*
X148785398Y-104251744D01*
X148912802Y-104176397D01*
X148930597Y-104167711D01*
X148934746Y-104166081D01*
X148934747Y-104166083D01*
X148955150Y-104158072D01*
X149024735Y-104151896D01*
X149034542Y-104153854D01*
X149077299Y-104171137D01*
X149096008Y-104183161D01*
X149108956Y-104189265D01*
X149214602Y-104251744D01*
X149231709Y-104256714D01*
X149256208Y-104263832D01*
X149256217Y-104263834D01*
X149256224Y-104263836D01*
X149361635Y-104294461D01*
X149362830Y-104294930D01*
X149371668Y-104297386D01*
X149373072Y-104297785D01*
X149373108Y-104297795D01*
X149373386Y-104297826D01*
X149377266Y-104297978D01*
X149409306Y-104300500D01*
X149409314Y-104300500D01*
X149840686Y-104300500D01*
X149840694Y-104300500D01*
X149872733Y-104297978D01*
X149876608Y-104297826D01*
X149876884Y-104297795D01*
X149876905Y-104297790D01*
X149878330Y-104297385D01*
X149887173Y-104294928D01*
X149888366Y-104294461D01*
X149919191Y-104285505D01*
X150035398Y-104251744D01*
X150176865Y-104168081D01*
X150293081Y-104051865D01*
X150376744Y-103910398D01*
X150422598Y-103752569D01*
X150425500Y-103715694D01*
X150425500Y-102184306D01*
X150422598Y-102147431D01*
X150422532Y-102147204D01*
X150421048Y-102142096D01*
X150377007Y-101990505D01*
X150376759Y-101989629D01*
X150376744Y-101989603D01*
X150376744Y-101989602D01*
X150293081Y-101848135D01*
X150293080Y-101848134D01*
X150293078Y-101848130D01*
X150274427Y-101829480D01*
X150253272Y-101801220D01*
X150250547Y-101796230D01*
X150249238Y-101793831D01*
X150240666Y-101778132D01*
X150225500Y-101718709D01*
X150225500Y-101095943D01*
X150225500Y-101095942D01*
X150218370Y-101069334D01*
X150199795Y-101000009D01*
X150184577Y-100943215D01*
X150168510Y-100915386D01*
X150107363Y-100809474D01*
X150105952Y-100806852D01*
X150105572Y-100806335D01*
X149988363Y-100689126D01*
X149988320Y-100689084D01*
X149874426Y-100575190D01*
X149853274Y-100546934D01*
X149840667Y-100523845D01*
X149825500Y-100464420D01*
X149825500Y-97442927D01*
X149830522Y-97407994D01*
X149837934Y-97382749D01*
X149869227Y-97330007D01*
X149976273Y-97222960D01*
X149976279Y-97222957D01*
X149993715Y-97205521D01*
X149993716Y-97205521D01*
X150105520Y-97093717D01*
X150184577Y-96956785D01*
X150225500Y-96804058D01*
X150225500Y-96688636D01*
X150230523Y-96653702D01*
X150237934Y-96628462D01*
X150269230Y-96575715D01*
X150293076Y-96551870D01*
X150293081Y-96551865D01*
X150376744Y-96410398D01*
X150422598Y-96252569D01*
X150425500Y-96215694D01*
X150425500Y-94684306D01*
X150422598Y-94647431D01*
X150422596Y-94647425D01*
X150376745Y-94489606D01*
X150376744Y-94489603D01*
X150376744Y-94489602D01*
X150293081Y-94348135D01*
X150293080Y-94348134D01*
X150293078Y-94348130D01*
X150176875Y-94231927D01*
X150176864Y-94231918D01*
X150176857Y-94231914D01*
X150035399Y-94148256D01*
X150035386Y-94148252D01*
X149877579Y-94102403D01*
X149877573Y-94102402D01*
X149877572Y-94102401D01*
X149877570Y-94102401D01*
X149840708Y-94099500D01*
X149840701Y-94099500D01*
X149840694Y-94099500D01*
X149409306Y-94099500D01*
X149409298Y-94099500D01*
X149409290Y-94099500D01*
X149372428Y-94102401D01*
X149372426Y-94102401D01*
X149372425Y-94102402D01*
X149372419Y-94102403D01*
X149214612Y-94148252D01*
X149214599Y-94148256D01*
X149087188Y-94223607D01*
X149069367Y-94232304D01*
X149044839Y-94241930D01*
X148975242Y-94248097D01*
X148965433Y-94246137D01*
X148922689Y-94228856D01*
X148902759Y-94216047D01*
X148890163Y-94210213D01*
X148785399Y-94148256D01*
X148785386Y-94148252D01*
X148627579Y-94102403D01*
X148627573Y-94102402D01*
X148627572Y-94102401D01*
X148627570Y-94102401D01*
X148590708Y-94099500D01*
X148590701Y-94099500D01*
X148590694Y-94099500D01*
X148159306Y-94099500D01*
X148159298Y-94099500D01*
X148159290Y-94099500D01*
X148122428Y-94102401D01*
X148122426Y-94102401D01*
X148122425Y-94102402D01*
X148122419Y-94102403D01*
X147964612Y-94148252D01*
X147964599Y-94148256D01*
X147823141Y-94231914D01*
X147823134Y-94231918D01*
X147823123Y-94231927D01*
X147706927Y-94348123D01*
X147706918Y-94348134D01*
X147706914Y-94348141D01*
X147623256Y-94489599D01*
X147623252Y-94489612D01*
X147577403Y-94647419D01*
X147577402Y-94647425D01*
X147577401Y-94647426D01*
X147577401Y-94647428D01*
X147574500Y-94684290D01*
X145675015Y-94684290D01*
X145619203Y-93958740D01*
X145633688Y-93890391D01*
X145682827Y-93840721D01*
X145751020Y-93825502D01*
X145807934Y-93843693D01*
X145955659Y-93934810D01*
X145955660Y-93934810D01*
X145955666Y-93934814D01*
X146122203Y-93989999D01*
X146224991Y-94000500D01*
X146825008Y-94000499D01*
X146825058Y-94000499D01*
X146825225Y-94000489D01*
X146826331Y-94000363D01*
X146871459Y-93995753D01*
X146881303Y-93994748D01*
X146881303Y-93994747D01*
X146927797Y-93989999D01*
X147094334Y-93934814D01*
X147243656Y-93842712D01*
X147367712Y-93718656D01*
X147459814Y-93569334D01*
X147514999Y-93402797D01*
X147525500Y-93300009D01*
X147525499Y-90899992D01*
X147525176Y-90896834D01*
X147514999Y-90797203D01*
X147514998Y-90797200D01*
X147459814Y-90630666D01*
X147367712Y-90481344D01*
X147243656Y-90357288D01*
X147094334Y-90265186D01*
X146936265Y-90212807D01*
X146933445Y-90211641D01*
X146927792Y-90209999D01*
X146825019Y-90199500D01*
X146825010Y-90199500D01*
X146224998Y-90199500D01*
X146224980Y-90199501D01*
X146224972Y-90199501D01*
X146224953Y-90199503D01*
X146122197Y-90210000D01*
X146122193Y-90210001D01*
X146122032Y-90210056D01*
X145955667Y-90265185D01*
X145955665Y-90265186D01*
X145955663Y-90265187D01*
X145856115Y-90326588D01*
X145806340Y-90357290D01*
X145682288Y-90481342D01*
X145588326Y-90633678D01*
X145536378Y-90680402D01*
X145467415Y-90691623D01*
X145403333Y-90663780D01*
X145364478Y-90605711D01*
X145359155Y-90578101D01*
X145114202Y-87393707D01*
X148649500Y-87393707D01*
X148649500Y-87606291D01*
X148682752Y-87816239D01*
X148748445Y-88018418D01*
X148841532Y-88201111D01*
X148844951Y-88207820D01*
X148969890Y-88379786D01*
X148969892Y-88379788D01*
X149120216Y-88530112D01*
X149292183Y-88655052D01*
X149292471Y-88655197D01*
X149481588Y-88751557D01*
X149683757Y-88817246D01*
X149893713Y-88850500D01*
X149893714Y-88850500D01*
X150106286Y-88850500D01*
X150106287Y-88850500D01*
X150316243Y-88817246D01*
X150518412Y-88751557D01*
X150707816Y-88655051D01*
X150729789Y-88639086D01*
X150879786Y-88530109D01*
X150879786Y-88530108D01*
X150879844Y-88530066D01*
X150880605Y-88529290D01*
X151029290Y-88380605D01*
X151030065Y-88379845D01*
X151030124Y-88379765D01*
X151155048Y-88207820D01*
X151155047Y-88207820D01*
X151155051Y-88207816D01*
X151155053Y-88207810D01*
X151175445Y-88179744D01*
X151183730Y-88151529D01*
X151251557Y-88018412D01*
X151317246Y-87816243D01*
X151350500Y-87606287D01*
X151350500Y-87393713D01*
X151317246Y-87183757D01*
X151251557Y-86981588D01*
X151155197Y-86792471D01*
X151155052Y-86792183D01*
X151030112Y-86620216D01*
X150879788Y-86469892D01*
X150879786Y-86469890D01*
X150707820Y-86344951D01*
X150535911Y-86257359D01*
X150530571Y-86253479D01*
X150506254Y-86243406D01*
X150499734Y-86242374D01*
X150438726Y-86222551D01*
X150325074Y-86185623D01*
X150320552Y-86183770D01*
X150311362Y-86181600D01*
X150306599Y-86181226D01*
X150154957Y-86157208D01*
X150135489Y-86154124D01*
X150106290Y-86149500D01*
X150106287Y-86149500D01*
X149893713Y-86149500D01*
X149893709Y-86149500D01*
X149854776Y-86155666D01*
X149845042Y-86157208D01*
X149807654Y-86163129D01*
X149683763Y-86182752D01*
X149481582Y-86248445D01*
X149292182Y-86344949D01*
X149292179Y-86344950D01*
X149292179Y-86344951D01*
X149287041Y-86348684D01*
X149120210Y-86469892D01*
X148969892Y-86620210D01*
X148844949Y-86792182D01*
X148748445Y-86981580D01*
X148682752Y-87183759D01*
X148649500Y-87393707D01*
X145114202Y-87393707D01*
X145036319Y-86381230D01*
X145036319Y-86381228D01*
X145012817Y-86075717D01*
X144998267Y-85988162D01*
X144987427Y-85946162D01*
X144957785Y-85862496D01*
X144950639Y-85851377D01*
X144880001Y-85741462D01*
X144879992Y-85741451D01*
X144834248Y-85688659D01*
X144834244Y-85688656D01*
X144834242Y-85688653D01*
X144725508Y-85594433D01*
X144725505Y-85594431D01*
X144725503Y-85594430D01*
X144594637Y-85534664D01*
X144594632Y-85534662D01*
X144594631Y-85534662D01*
X144549938Y-85521538D01*
X144527589Y-85514976D01*
X144455886Y-85504667D01*
X144385172Y-85494500D01*
X144385170Y-85494500D01*
X140124010Y-85494500D01*
X140124000Y-85494500D01*
X140123991Y-85494500D01*
X140123990Y-85494501D01*
X140016549Y-85506052D01*
X140016537Y-85506054D01*
X139965027Y-85517260D01*
X139862502Y-85551383D01*
X139862496Y-85551386D01*
X139741462Y-85629171D01*
X139741451Y-85629179D01*
X139688659Y-85674923D01*
X139594433Y-85783664D01*
X139594430Y-85783668D01*
X139534664Y-85914534D01*
X139514976Y-85981582D01*
X139494500Y-86124001D01*
X139494500Y-96513845D01*
X139474815Y-96580884D01*
X139422011Y-96626639D01*
X139401849Y-96633816D01*
X139382920Y-96638763D01*
X139382919Y-96638763D01*
X135660847Y-97611282D01*
X135591009Y-97609185D01*
X135533391Y-97569662D01*
X135506288Y-97505264D01*
X135505500Y-97491310D01*
X135505500Y-86137330D01*
X135504785Y-86124000D01*
X135502600Y-86083261D01*
X135499763Y-86056890D01*
X135491099Y-86003455D01*
X135489454Y-85995897D01*
X135478268Y-85964205D01*
X135447502Y-85877037D01*
X135420029Y-85822183D01*
X135420025Y-85822175D01*
X135349969Y-85717389D01*
X135348782Y-85716020D01*
X135251679Y-85631918D01*
X135240087Y-85621878D01*
X135240083Y-85621875D01*
X135181343Y-85584137D01*
X135181338Y-85584134D01*
X135181337Y-85584134D01*
X135050525Y-85524405D01*
X135050520Y-85524403D01*
X135050519Y-85524403D01*
X135045883Y-85523042D01*
X135035527Y-85520001D01*
X134996993Y-85511618D01*
X134965045Y-85504667D01*
X134930110Y-85499645D01*
X134858172Y-85494500D01*
X134858170Y-85494500D01*
X131585492Y-85494500D01*
X131585488Y-85494500D01*
X131526517Y-85497952D01*
X131526506Y-85497953D01*
X131497800Y-85501325D01*
X131497787Y-85501327D01*
X131439683Y-85511618D01*
X131434060Y-85512957D01*
X131433817Y-85513016D01*
X131429924Y-85513943D01*
X131429918Y-85513945D01*
X131307545Y-85560531D01*
X131307527Y-85560540D01*
X131251434Y-85590723D01*
X131251433Y-85590724D01*
X131145105Y-85667207D01*
X131145093Y-85667216D01*
X131131181Y-85680268D01*
X131082241Y-85733236D01*
X131060205Y-85760793D01*
X131034228Y-85798509D01*
X131019296Y-85820191D01*
X130551263Y-86615847D01*
X130551262Y-86615847D01*
X126089822Y-94200296D01*
X126089811Y-94200316D01*
X126059684Y-94260334D01*
X126059671Y-94260361D01*
X126046917Y-94290633D01*
X126046917Y-94290634D01*
X126025019Y-94354090D01*
X126025019Y-94354091D01*
X126016612Y-94384966D01*
X126003315Y-94450774D01*
X125998961Y-94483337D01*
X125998960Y-94483349D01*
X125994500Y-94550345D01*
X125994500Y-103862673D01*
X125997391Y-103916646D01*
X125997394Y-103916681D01*
X126000222Y-103943010D01*
X126008882Y-103996457D01*
X126008886Y-103996483D01*
X126010529Y-104004033D01*
X126010529Y-104004035D01*
X126052481Y-104122923D01*
X126052482Y-104122926D01*
X126079961Y-104177798D01*
X126079968Y-104177810D01*
X126080066Y-104177957D01*
X126080080Y-104178004D01*
X126081910Y-104181149D01*
X126081196Y-104181563D01*
X126100966Y-104244627D01*
X126089780Y-104298392D01*
X126034664Y-104419075D01*
X126014976Y-104486123D01*
X126011316Y-104511582D01*
X125996090Y-104617486D01*
X125994500Y-104628542D01*
X125994500Y-107862673D01*
X125997391Y-107916649D01*
X125997394Y-107916681D01*
X126000222Y-107943010D01*
X126008882Y-107996457D01*
X126008886Y-107996483D01*
X126010529Y-108004033D01*
X126010529Y-108004035D01*
X126052481Y-108122923D01*
X126052482Y-108122926D01*
X126052484Y-108122929D01*
X126079964Y-108177804D01*
X126150030Y-108282610D01*
X126151217Y-108283979D01*
X126259905Y-108378116D01*
X126318651Y-108415859D01*
X126318658Y-108415862D01*
X126449446Y-108475585D01*
X126449447Y-108475585D01*
X126449448Y-108475586D01*
X126464447Y-108479991D01*
X126534931Y-108495327D01*
X126569872Y-108500352D01*
X126641830Y-108505500D01*
X129964354Y-108505500D01*
X130031393Y-108525185D01*
X130057672Y-108547844D01*
X131576357Y-110283483D01*
X131619025Y-110320186D01*
X131653900Y-110350186D01*
X131684512Y-110376518D01*
X131742894Y-110413840D01*
X131742897Y-110413841D01*
X131742898Y-110413842D01*
X131872742Y-110472952D01*
X131872746Y-110472953D01*
X131872748Y-110472954D01*
X131889821Y-110477967D01*
X131896747Y-110480001D01*
X131967215Y-110495331D01*
X131967222Y-110495332D01*
X132002158Y-110500355D01*
X132074098Y-110505500D01*
X133944289Y-110505500D01*
X134011328Y-110525185D01*
X134057083Y-110577989D01*
X134067331Y-110614120D01*
X134263738Y-112185377D01*
X134263739Y-112185391D01*
X134274855Y-112274316D01*
X134274875Y-112274473D01*
X134274911Y-112274763D01*
X134409956Y-113355120D01*
X134398739Y-113424083D01*
X134352018Y-113476034D01*
X134286914Y-113494500D01*
X130817601Y-113494500D01*
X130750562Y-113474815D01*
X130704807Y-113422011D01*
X130694863Y-113352853D01*
X130715673Y-113299884D01*
X130740301Y-113264336D01*
X130740304Y-113264330D01*
X130834100Y-113057832D01*
X130834101Y-113057829D01*
X130861273Y-112949998D01*
X130889509Y-112837940D01*
X130889509Y-112837939D01*
X130889516Y-112837912D01*
X130889517Y-112837906D01*
X130899999Y-112704719D01*
X130900000Y-112704706D01*
X130900000Y-111750000D01*
X129972417Y-111750000D01*
X129905378Y-111730315D01*
X129859623Y-111677511D01*
X129850078Y-111611134D01*
X129849618Y-111611098D01*
X129849779Y-111609050D01*
X129849679Y-111608353D01*
X129849942Y-111606611D01*
X129850000Y-111606244D01*
X129850000Y-111393755D01*
X129849942Y-111393389D01*
X129849960Y-111393247D01*
X129849618Y-111388902D01*
X129850531Y-111388830D01*
X129858902Y-111324096D01*
X129903902Y-111270648D01*
X129970655Y-111250013D01*
X129972417Y-111250000D01*
X130900000Y-111250000D01*
X130900000Y-110295300D01*
X130900000Y-110295293D01*
X130899999Y-110295280D01*
X130889517Y-110162093D01*
X130889516Y-110162087D01*
X130886551Y-110150320D01*
X130834105Y-109942183D01*
X130834104Y-109942182D01*
X130834101Y-109942170D01*
X130834100Y-109942167D01*
X130786080Y-109836447D01*
X130740307Y-109735674D01*
X130740304Y-109735670D01*
X130740304Y-109735669D01*
X130740301Y-109735663D01*
X130611148Y-109549241D01*
X130611138Y-109549229D01*
X130556834Y-109494925D01*
X130556827Y-109494917D01*
X130450783Y-109388873D01*
X130450774Y-109388865D01*
X130450770Y-109388861D01*
X130450758Y-109388851D01*
X130264336Y-109259698D01*
X130264330Y-109259695D01*
X130200355Y-109230636D01*
X130057836Y-109165900D01*
X130057816Y-109165894D01*
X130057815Y-109165893D01*
X129837940Y-109110489D01*
X129837923Y-109110485D01*
X129837912Y-109110483D01*
X129837906Y-109110482D01*
X129787960Y-109106551D01*
X129704724Y-109100000D01*
X129704719Y-109100000D01*
X128750000Y-109100000D01*
X128750000Y-110027582D01*
X128730315Y-110094621D01*
X128677511Y-110140376D01*
X128611147Y-110149918D01*
X128611111Y-110150382D01*
X128609049Y-110150219D01*
X128608353Y-110150320D01*
X128606611Y-110150057D01*
X128606251Y-110150000D01*
X128606247Y-110150000D01*
X128393753Y-110150000D01*
X128393749Y-110150000D01*
X128393389Y-110150057D01*
X128393249Y-110150039D01*
X128388889Y-110150382D01*
X128388816Y-110149465D01*
X128324096Y-110141097D01*
X128270648Y-110096097D01*
X128250013Y-110029344D01*
X128250000Y-110027582D01*
X128250000Y-109100000D01*
X127295280Y-109100000D01*
X127295274Y-109100000D01*
X127195389Y-109107861D01*
X127162093Y-109110482D01*
X127162087Y-109110483D01*
X127162078Y-109110485D01*
X127162058Y-109110489D01*
X126942183Y-109165893D01*
X126942182Y-109165894D01*
X126942162Y-109165900D01*
X126735664Y-109259697D01*
X126735662Y-109259698D01*
X126549246Y-109388847D01*
X126549236Y-109388854D01*
X126549233Y-109388857D01*
X126549215Y-109388873D01*
X126388873Y-109549215D01*
X126388857Y-109549233D01*
X126388854Y-109549236D01*
X126388847Y-109549246D01*
X126259698Y-109735662D01*
X126259697Y-109735664D01*
X126165900Y-109942162D01*
X126165894Y-109942182D01*
X126165893Y-109942183D01*
X126110489Y-110162058D01*
X126110485Y-110162078D01*
X126110483Y-110162087D01*
X126110482Y-110162093D01*
X126110482Y-110162095D01*
X126103947Y-110245132D01*
X126100000Y-110295280D01*
X126100000Y-111250000D01*
X127027583Y-111250000D01*
X127094622Y-111269685D01*
X127140377Y-111322489D01*
X127149921Y-111388865D01*
X127150382Y-111388902D01*
X127150220Y-111390949D01*
X127150321Y-111391647D01*
X127150058Y-111393389D01*
X127150000Y-111393755D01*
X127150000Y-111606244D01*
X127150058Y-111606611D01*
X127150039Y-111606752D01*
X127150382Y-111611098D01*
X127149468Y-111611169D01*
X127141098Y-111675904D01*
X127096098Y-111729352D01*
X127029345Y-111749987D01*
X127027583Y-111750000D01*
X126100000Y-111750000D01*
X126100000Y-112704724D01*
X126103166Y-112744944D01*
X126110482Y-112837906D01*
X126110483Y-112837912D01*
X126110485Y-112837923D01*
X126110489Y-112837940D01*
X126165893Y-113057815D01*
X126165894Y-113057816D01*
X126165900Y-113057836D01*
X126259697Y-113264334D01*
X126259698Y-113264336D01*
X126284326Y-113299884D01*
X126306323Y-113366200D01*
X126288975Y-113433882D01*
X126237790Y-113481440D01*
X126182398Y-113494500D01*
X125637832Y-113494500D01*
X125636021Y-113494597D01*
X125631126Y-113494859D01*
X125563131Y-113478785D01*
X125514619Y-113428501D01*
X125500500Y-113371036D01*
X125500500Y-87505635D01*
X125500597Y-87502340D01*
X125500556Y-87501914D01*
X125500669Y-87498150D01*
X125500836Y-87494430D01*
X125506930Y-87393707D01*
X126649500Y-87393707D01*
X126649500Y-87606291D01*
X126682752Y-87816239D01*
X126748445Y-88018418D01*
X126841532Y-88201111D01*
X126844951Y-88207820D01*
X126969890Y-88379786D01*
X126969892Y-88379788D01*
X127120216Y-88530112D01*
X127292183Y-88655052D01*
X127292471Y-88655197D01*
X127481588Y-88751557D01*
X127683757Y-88817246D01*
X127893713Y-88850500D01*
X127893714Y-88850500D01*
X128106286Y-88850500D01*
X128106287Y-88850500D01*
X128316243Y-88817246D01*
X128518412Y-88751557D01*
X128707816Y-88655051D01*
X128729789Y-88639086D01*
X128879786Y-88530109D01*
X128879786Y-88530108D01*
X128879844Y-88530066D01*
X128880605Y-88529290D01*
X129029290Y-88380605D01*
X129030065Y-88379845D01*
X129030124Y-88379765D01*
X129155048Y-88207820D01*
X129155047Y-88207820D01*
X129155051Y-88207816D01*
X129155053Y-88207810D01*
X129175445Y-88179744D01*
X129183730Y-88151529D01*
X129251557Y-88018412D01*
X129317246Y-87816243D01*
X129350500Y-87606287D01*
X129350500Y-87393713D01*
X129317246Y-87183757D01*
X129251557Y-86981588D01*
X129251554Y-86981582D01*
X129222777Y-86925102D01*
X129218352Y-86916417D01*
X129218347Y-86916410D01*
X129195778Y-86872116D01*
X129155051Y-86792184D01*
X129147023Y-86781134D01*
X129030109Y-86620213D01*
X128879786Y-86469890D01*
X128707820Y-86344951D01*
X128535911Y-86257359D01*
X128530571Y-86253479D01*
X128506254Y-86243406D01*
X128499734Y-86242374D01*
X128438726Y-86222551D01*
X128325074Y-86185623D01*
X128320552Y-86183770D01*
X128311362Y-86181600D01*
X128306599Y-86181226D01*
X128154957Y-86157208D01*
X128135489Y-86154124D01*
X128106290Y-86149500D01*
X128106287Y-86149500D01*
X127893713Y-86149500D01*
X127893709Y-86149500D01*
X127854776Y-86155666D01*
X127845042Y-86157208D01*
X127807654Y-86163129D01*
X127683763Y-86182752D01*
X127481582Y-86248445D01*
X127292182Y-86344949D01*
X127292179Y-86344950D01*
X127292179Y-86344951D01*
X127287041Y-86348684D01*
X127120210Y-86469892D01*
X126969892Y-86620210D01*
X126844949Y-86792182D01*
X126748445Y-86981580D01*
X126682752Y-87183759D01*
X126649500Y-87393707D01*
X125506930Y-87393707D01*
X125507677Y-87381354D01*
X125518046Y-87209916D01*
X125518719Y-87202514D01*
X125519628Y-87195028D01*
X125520751Y-87187655D01*
X125521466Y-87183757D01*
X125568867Y-86925101D01*
X125571104Y-86912885D01*
X125572679Y-86905553D01*
X125574471Y-86898285D01*
X125576470Y-86891113D01*
X125659593Y-86624358D01*
X125662010Y-86617354D01*
X125664686Y-86610297D01*
X125667515Y-86603467D01*
X125782210Y-86348627D01*
X125785463Y-86341951D01*
X125788944Y-86335318D01*
X125792601Y-86328833D01*
X125880909Y-86182754D01*
X125937154Y-86089710D01*
X125941181Y-86083482D01*
X125945453Y-86077291D01*
X125949874Y-86071285D01*
X125961152Y-86056890D01*
X126122185Y-85851347D01*
X126126938Y-85845643D01*
X126131946Y-85839990D01*
X126137032Y-85834589D01*
X126334589Y-85637032D01*
X126339990Y-85631946D01*
X126345643Y-85626938D01*
X126351347Y-85622185D01*
X126571290Y-85449869D01*
X126577311Y-85445440D01*
X126583463Y-85441194D01*
X126589719Y-85437149D01*
X126828846Y-85292593D01*
X126835282Y-85288963D01*
X126841984Y-85285445D01*
X126848627Y-85282210D01*
X127103467Y-85167515D01*
X127110297Y-85164686D01*
X127117354Y-85162010D01*
X127124358Y-85159593D01*
X127391106Y-85076471D01*
X127398267Y-85074474D01*
X127405582Y-85072671D01*
X127412856Y-85071109D01*
X127687673Y-85020747D01*
X127695042Y-85019625D01*
X127702500Y-85018720D01*
X127709909Y-85018046D01*
X127994427Y-85000837D01*
X127998152Y-85000669D01*
X128001917Y-85000556D01*
X128005637Y-85000500D01*
X149994363Y-85000500D01*
X149998084Y-85000556D01*
G37*
%TD.AperFunction*%
%TA.AperFunction,Conductor*%
G36*
X134958164Y-103842591D02*
G01*
X134991661Y-103903908D01*
X134994500Y-103930289D01*
X134994500Y-104876000D01*
X134994501Y-104876009D01*
X135006052Y-104983450D01*
X135006054Y-104983462D01*
X135017260Y-105034972D01*
X135051383Y-105137497D01*
X135051386Y-105137503D01*
X135129171Y-105258537D01*
X135129179Y-105258548D01*
X135174923Y-105311340D01*
X135174926Y-105311343D01*
X135174930Y-105311347D01*
X135283664Y-105405567D01*
X135283667Y-105405568D01*
X135283668Y-105405569D01*
X135313762Y-105419313D01*
X135414541Y-105465338D01*
X135481580Y-105485023D01*
X135481584Y-105485024D01*
X135624000Y-105505500D01*
X135624003Y-105505500D01*
X136375500Y-105505500D01*
X136442539Y-105525185D01*
X136488294Y-105577989D01*
X136499500Y-105629500D01*
X136499500Y-105850708D01*
X136502401Y-105887570D01*
X136502401Y-105887572D01*
X136502402Y-105887573D01*
X136502403Y-105887579D01*
X136548252Y-106045386D01*
X136548256Y-106045399D01*
X136548258Y-106045403D01*
X136610412Y-106150501D01*
X136611621Y-106155267D01*
X136612376Y-106154856D01*
X136643408Y-106211688D01*
X136658259Y-106279961D01*
X136658259Y-106279963D01*
X136658130Y-106281766D01*
X136638760Y-106339959D01*
X136619869Y-106369352D01*
X136619579Y-106371852D01*
X136612161Y-106386541D01*
X136548256Y-106494600D01*
X136548252Y-106494612D01*
X136502403Y-106652419D01*
X136502402Y-106652425D01*
X136502401Y-106652426D01*
X136502401Y-106652428D01*
X136499500Y-106689290D01*
X136499500Y-107120708D01*
X136501148Y-107141642D01*
X136486783Y-107210019D01*
X136437732Y-107259776D01*
X136369566Y-107275114D01*
X136318689Y-107260520D01*
X136300831Y-107250893D01*
X136300817Y-107250886D01*
X136165790Y-107201343D01*
X136165781Y-107201340D01*
X136154709Y-107198993D01*
X136083255Y-107189109D01*
X136083224Y-107189106D01*
X136048015Y-107186778D01*
X135975899Y-107187167D01*
X134630241Y-107290678D01*
X134561890Y-107276193D01*
X134512220Y-107227054D01*
X134497001Y-107158861D01*
X134497112Y-107157334D01*
X134497295Y-107155000D01*
X131681347Y-107155000D01*
X131614308Y-107135315D01*
X131612564Y-107134174D01*
X131060717Y-106766276D01*
X131015856Y-106712711D01*
X131005500Y-106663102D01*
X131005500Y-105739096D01*
X131025185Y-105672057D01*
X131077989Y-105626302D01*
X131147147Y-105616358D01*
X131210703Y-105645383D01*
X131217181Y-105651415D01*
X131563392Y-105997626D01*
X131578265Y-106015604D01*
X131594047Y-106038824D01*
X131594314Y-106039217D01*
X131598490Y-106045796D01*
X131660485Y-106150624D01*
X131661654Y-106155229D01*
X131662490Y-106154773D01*
X131693760Y-106212039D01*
X131708615Y-106280267D01*
X131708484Y-106282108D01*
X131689148Y-106340292D01*
X131670262Y-106369712D01*
X131669979Y-106372153D01*
X131662555Y-106386857D01*
X131598718Y-106494800D01*
X131598718Y-106494801D01*
X131552925Y-106652426D01*
X131552899Y-106652514D01*
X131552898Y-106652519D01*
X131552703Y-106654996D01*
X131552704Y-106654999D01*
X131552705Y-106655000D01*
X134497295Y-106655000D01*
X134497295Y-106654996D01*
X134497294Y-106654995D01*
X134497100Y-106652513D01*
X134451281Y-106494801D01*
X134389180Y-106389794D01*
X134387973Y-106385035D01*
X134387266Y-106385422D01*
X134362593Y-106340292D01*
X134356266Y-106328720D01*
X134341379Y-106260460D01*
X134341510Y-106258624D01*
X134360872Y-106200432D01*
X134364856Y-106194232D01*
X134364855Y-106194231D01*
X134380099Y-106170506D01*
X134380362Y-106168247D01*
X134387784Y-106153548D01*
X134451744Y-106045398D01*
X134497598Y-105887569D01*
X134500500Y-105850694D01*
X134500500Y-105419306D01*
X134497598Y-105382431D01*
X134451744Y-105224602D01*
X134389500Y-105119353D01*
X134388337Y-105114767D01*
X134387526Y-105115211D01*
X134365634Y-105075155D01*
X134365635Y-105075155D01*
X134356257Y-105057996D01*
X134341381Y-104989733D01*
X134341510Y-104987915D01*
X134360885Y-104929706D01*
X134379732Y-104900383D01*
X134380030Y-104897822D01*
X134387444Y-104883140D01*
X134451281Y-104775198D01*
X134497100Y-104617486D01*
X134497295Y-104615001D01*
X134497295Y-104615000D01*
X133166830Y-104615000D01*
X133161382Y-104613400D01*
X133155812Y-104614510D01*
X133131889Y-104609975D01*
X133116890Y-104605570D01*
X133101885Y-104595930D01*
X133099791Y-104595315D01*
X133098362Y-104593666D01*
X133058144Y-104567827D01*
X133056957Y-104566458D01*
X133029477Y-104511583D01*
X133027832Y-104504021D01*
X133025000Y-104477668D01*
X133025000Y-104256829D01*
X133030023Y-104221893D01*
X133034427Y-104206895D01*
X133042293Y-104194650D01*
X133045633Y-104180501D01*
X133060777Y-104165879D01*
X133072172Y-104148144D01*
X133073541Y-104146957D01*
X133087742Y-104139845D01*
X133095898Y-104131972D01*
X133108467Y-104129467D01*
X133128420Y-104119477D01*
X133135979Y-104117833D01*
X133162332Y-104115000D01*
X134497295Y-104115000D01*
X134497295Y-104114996D01*
X134497294Y-104114995D01*
X134497100Y-104112513D01*
X134479480Y-104051865D01*
X134471818Y-104025490D01*
X134472017Y-103955620D01*
X134509959Y-103896950D01*
X134573598Y-103868107D01*
X134581956Y-103867218D01*
X134674345Y-103860556D01*
X134742518Y-103845698D01*
X134827144Y-103814116D01*
X134896835Y-103809118D01*
X134958164Y-103842591D01*
G37*
%TD.AperFunction*%
%TA.AperFunction,Conductor*%
G36*
X132541033Y-98707381D02*
G01*
X132574076Y-98713954D01*
X132579214Y-98716641D01*
X132597331Y-98721008D01*
X132628456Y-98733900D01*
X132649885Y-98745355D01*
X132677903Y-98764076D01*
X132696693Y-98779497D01*
X132720497Y-98803301D01*
X132723276Y-98808391D01*
X132735917Y-98822090D01*
X132742611Y-98832108D01*
X132751194Y-98859518D01*
X132753982Y-98864624D01*
X132753760Y-98867715D01*
X132763490Y-98898785D01*
X132745006Y-98966165D01*
X132693028Y-99012856D01*
X132639510Y-99025000D01*
X132612500Y-99025000D01*
X132612500Y-99750000D01*
X133399999Y-99750000D01*
X133408680Y-99741319D01*
X133413199Y-99738851D01*
X133416024Y-99734544D01*
X133443554Y-99722276D01*
X133470003Y-99707834D01*
X133475139Y-99708201D01*
X133479844Y-99706105D01*
X133496361Y-99705000D01*
X133516844Y-99705000D01*
X133541033Y-99707381D01*
X133574077Y-99713954D01*
X133597327Y-99721006D01*
X133628449Y-99733897D01*
X133629788Y-99734977D01*
X133631496Y-99735207D01*
X133649885Y-99745355D01*
X133677903Y-99764076D01*
X133696693Y-99779497D01*
X133720499Y-99803303D01*
X133735921Y-99822094D01*
X133754639Y-99850108D01*
X133766096Y-99871543D01*
X133778987Y-99902663D01*
X133786044Y-99925926D01*
X133792617Y-99958969D01*
X133795000Y-99983161D01*
X133795000Y-100016839D01*
X133792616Y-100041035D01*
X133786043Y-100074073D01*
X133778988Y-100097329D01*
X133766098Y-100128449D01*
X133754639Y-100149888D01*
X133735920Y-100177903D01*
X133720499Y-100196693D01*
X133696693Y-100220499D01*
X133677903Y-100235920D01*
X133649885Y-100254641D01*
X133628446Y-100266100D01*
X133597328Y-100278989D01*
X133574071Y-100286045D01*
X133571010Y-100286654D01*
X133541031Y-100292617D01*
X133516841Y-100295000D01*
X133496362Y-100295000D01*
X133429323Y-100275315D01*
X133408681Y-100258681D01*
X133400000Y-100250000D01*
X132612500Y-100250000D01*
X132612500Y-100974999D01*
X132639509Y-100974999D01*
X132706548Y-100994684D01*
X132752303Y-101047488D01*
X132762247Y-101116646D01*
X132742609Y-101167893D01*
X132735918Y-101177906D01*
X132734594Y-101179012D01*
X132734035Y-101180643D01*
X132720499Y-101196693D01*
X132696693Y-101220499D01*
X132677903Y-101235920D01*
X132649885Y-101254641D01*
X132628448Y-101266100D01*
X132627603Y-101266450D01*
X132597330Y-101278989D01*
X132595616Y-101279173D01*
X132594247Y-101280218D01*
X132574071Y-101286045D01*
X132557340Y-101289373D01*
X132541031Y-101292617D01*
X132516841Y-101295000D01*
X132483159Y-101295000D01*
X132458970Y-101292617D01*
X132425924Y-101286044D01*
X132402667Y-101278988D01*
X132371547Y-101266098D01*
X132350108Y-101254639D01*
X132322093Y-101235920D01*
X132303303Y-101220499D01*
X132279497Y-101196693D01*
X132264076Y-101177903D01*
X132245355Y-101149885D01*
X132233896Y-101128446D01*
X132229008Y-101116646D01*
X132221007Y-101097330D01*
X132213954Y-101074079D01*
X132207381Y-101041034D01*
X132205000Y-101016852D01*
X132205000Y-100963825D01*
X132205000Y-100963813D01*
X132201847Y-100907442D01*
X132198763Y-100879959D01*
X132189343Y-100824291D01*
X132187396Y-100815725D01*
X132184150Y-100806852D01*
X132167268Y-100760709D01*
X132165154Y-100754414D01*
X132160427Y-100738979D01*
X132157807Y-100733414D01*
X132153543Y-100723198D01*
X132143313Y-100695236D01*
X132143312Y-100695233D01*
X132131326Y-100672097D01*
X132126397Y-100662583D01*
X132112500Y-100605544D01*
X132112500Y-99394801D01*
X132122919Y-99345048D01*
X132173918Y-99228627D01*
X132179492Y-99209647D01*
X132194827Y-99139168D01*
X132199852Y-99104228D01*
X132205000Y-99032268D01*
X132205000Y-98983150D01*
X132207381Y-98958967D01*
X132213956Y-98925914D01*
X132214695Y-98923477D01*
X132214645Y-98922673D01*
X132215290Y-98921515D01*
X132221007Y-98902668D01*
X132233898Y-98871546D01*
X132245354Y-98850113D01*
X132264080Y-98822086D01*
X132279492Y-98803308D01*
X132303308Y-98779492D01*
X132305272Y-98777881D01*
X132305676Y-98777186D01*
X132306852Y-98776583D01*
X132322086Y-98764080D01*
X132350116Y-98745352D01*
X132371536Y-98733902D01*
X132402672Y-98721005D01*
X132425922Y-98713954D01*
X132458966Y-98707382D01*
X132483154Y-98705000D01*
X132516844Y-98705000D01*
X132541033Y-98707381D01*
G37*
%TD.AperFunction*%
%TD*%
%TA.AperFunction,Conductor*%
%TO.N,Net-(U1-I_{PK})*%
G36*
X144452211Y-86019685D02*
G01*
X144497966Y-86072489D01*
X144508806Y-86114489D01*
X144532308Y-86420000D01*
X145499635Y-98995255D01*
X145500000Y-99004765D01*
X145500000Y-105376000D01*
X145480315Y-105443039D01*
X145427511Y-105488794D01*
X145376000Y-105500000D01*
X144416380Y-105500000D01*
X144349341Y-105480315D01*
X144303586Y-105427511D01*
X144293642Y-105358353D01*
X144316762Y-105304560D01*
X144316154Y-105304185D01*
X144318690Y-105300072D01*
X144319113Y-105299090D01*
X144319948Y-105298033D01*
X144410448Y-105151311D01*
X144410453Y-105151300D01*
X144464680Y-104987652D01*
X144474999Y-104886654D01*
X144475000Y-104886641D01*
X144475000Y-104837500D01*
X142525001Y-104837500D01*
X142525001Y-104886654D01*
X142535319Y-104987652D01*
X142589546Y-105151300D01*
X142589551Y-105151311D01*
X142680051Y-105298033D01*
X142680887Y-105299090D01*
X142681234Y-105299950D01*
X142683846Y-105304185D01*
X142683122Y-105304631D01*
X142707027Y-105363886D01*
X142693986Y-105432527D01*
X142645905Y-105483222D01*
X142583620Y-105500000D01*
X142051362Y-105500000D01*
X141984323Y-105480315D01*
X141963681Y-105463681D01*
X141500000Y-105000000D01*
X139485729Y-105000000D01*
X139418690Y-104980315D01*
X139372935Y-104927511D01*
X139362991Y-104858353D01*
X139378997Y-104812878D01*
X139401282Y-104775196D01*
X139447100Y-104617486D01*
X139447295Y-104615001D01*
X139447295Y-104615000D01*
X136502705Y-104615000D01*
X136502704Y-104615001D01*
X136502899Y-104617486D01*
X136548717Y-104775196D01*
X136571003Y-104812878D01*
X136588186Y-104880602D01*
X136566026Y-104946865D01*
X136511561Y-104990628D01*
X136464271Y-105000000D01*
X135624000Y-105000000D01*
X135556961Y-104980315D01*
X135511206Y-104927511D01*
X135500000Y-104876000D01*
X135500000Y-104288345D01*
X142525000Y-104288345D01*
X142525000Y-104337500D01*
X143250000Y-104337500D01*
X143750000Y-104337500D01*
X144474999Y-104337500D01*
X144474999Y-104288360D01*
X144474998Y-104288345D01*
X144464680Y-104187347D01*
X144410453Y-104023699D01*
X144410448Y-104023688D01*
X144319947Y-103876965D01*
X144319944Y-103876961D01*
X144198038Y-103755055D01*
X144198034Y-103755052D01*
X144051311Y-103664551D01*
X144051300Y-103664546D01*
X143887652Y-103610319D01*
X143786654Y-103600000D01*
X143750000Y-103600000D01*
X143750000Y-104337500D01*
X143250000Y-104337500D01*
X143250000Y-103600000D01*
X143213361Y-103600000D01*
X143213343Y-103600001D01*
X143112347Y-103610319D01*
X142948699Y-103664546D01*
X142948688Y-103664551D01*
X142801965Y-103755052D01*
X142801961Y-103755055D01*
X142680055Y-103876961D01*
X142680052Y-103876965D01*
X142589551Y-104023688D01*
X142589546Y-104023699D01*
X142535319Y-104187347D01*
X142525000Y-104288345D01*
X135500000Y-104288345D01*
X135500000Y-102879298D01*
X136499500Y-102879298D01*
X136499500Y-103310701D01*
X136502401Y-103347567D01*
X136502402Y-103347573D01*
X136548254Y-103505393D01*
X136548255Y-103505396D01*
X136631917Y-103646862D01*
X136636702Y-103653031D01*
X136634369Y-103654840D01*
X136661210Y-103703995D01*
X136656226Y-103773687D01*
X136635470Y-103806021D01*
X136637097Y-103807283D01*
X136632313Y-103813449D01*
X136548718Y-103954801D01*
X136502899Y-104112513D01*
X136502704Y-104114998D01*
X136502705Y-104115000D01*
X139447295Y-104115000D01*
X139447295Y-104114998D01*
X139447100Y-104112513D01*
X139401281Y-103954801D01*
X139317685Y-103813447D01*
X139312900Y-103807278D01*
X139315366Y-103805364D01*
X139288802Y-103756776D01*
X139293749Y-103687082D01*
X139314856Y-103654232D01*
X139313301Y-103653026D01*
X139318077Y-103646868D01*
X139318081Y-103646865D01*
X139401744Y-103505398D01*
X139447598Y-103347569D01*
X139450500Y-103310694D01*
X139450500Y-103007882D01*
X142845669Y-103007882D01*
X142845670Y-103007883D01*
X142871059Y-103026329D01*
X143039362Y-103112085D01*
X143218997Y-103170451D01*
X143405553Y-103200000D01*
X143594447Y-103200000D01*
X143781002Y-103170451D01*
X143960637Y-103112085D01*
X144128937Y-103026331D01*
X144154328Y-103007883D01*
X144154328Y-103007882D01*
X143500001Y-102353554D01*
X143500000Y-102353554D01*
X142845669Y-103007882D01*
X139450500Y-103007882D01*
X139450500Y-102879306D01*
X139447598Y-102842431D01*
X139401744Y-102684602D01*
X139318081Y-102543135D01*
X139318079Y-102543133D01*
X139318076Y-102543129D01*
X139201870Y-102426923D01*
X139201862Y-102426917D01*
X139077811Y-102353554D01*
X139060398Y-102343256D01*
X139060397Y-102343255D01*
X139060396Y-102343255D01*
X139060393Y-102343254D01*
X138902573Y-102297402D01*
X138902567Y-102297401D01*
X138865701Y-102294500D01*
X138865694Y-102294500D01*
X138724500Y-102294500D01*
X138657461Y-102274815D01*
X138611706Y-102222011D01*
X138600500Y-102170500D01*
X138600500Y-101905552D01*
X142300000Y-101905552D01*
X142300000Y-102094447D01*
X142329548Y-102281002D01*
X142387914Y-102460637D01*
X142473666Y-102628933D01*
X142492116Y-102654328D01*
X143146446Y-102000000D01*
X143146446Y-101999999D01*
X143100369Y-101953922D01*
X143150000Y-101953922D01*
X143150000Y-102046078D01*
X143173852Y-102135095D01*
X143219930Y-102214905D01*
X143285095Y-102280070D01*
X143364905Y-102326148D01*
X143453922Y-102350000D01*
X143546078Y-102350000D01*
X143635095Y-102326148D01*
X143714905Y-102280070D01*
X143780070Y-102214905D01*
X143826148Y-102135095D01*
X143850000Y-102046078D01*
X143850000Y-101999999D01*
X143853554Y-101999999D01*
X143853554Y-102000000D01*
X144507882Y-102654328D01*
X144507883Y-102654328D01*
X144526331Y-102628937D01*
X144612085Y-102460637D01*
X144670451Y-102281002D01*
X144700000Y-102094447D01*
X144700000Y-101905552D01*
X144670451Y-101718997D01*
X144612085Y-101539362D01*
X144526329Y-101371059D01*
X144507883Y-101345670D01*
X144507882Y-101345669D01*
X143853554Y-101999999D01*
X143850000Y-101999999D01*
X143850000Y-101953922D01*
X143826148Y-101864905D01*
X143780070Y-101785095D01*
X143714905Y-101719930D01*
X143635095Y-101673852D01*
X143546078Y-101650000D01*
X143453922Y-101650000D01*
X143364905Y-101673852D01*
X143285095Y-101719930D01*
X143219930Y-101785095D01*
X143173852Y-101864905D01*
X143150000Y-101953922D01*
X143100369Y-101953922D01*
X142492116Y-101345669D01*
X142492116Y-101345670D01*
X142473669Y-101371060D01*
X142387914Y-101539362D01*
X142329548Y-101718997D01*
X142300000Y-101905552D01*
X138600500Y-101905552D01*
X138600500Y-101745908D01*
X138620185Y-101678869D01*
X138664271Y-101640363D01*
X138663187Y-101638605D01*
X138669332Y-101634814D01*
X138669334Y-101634814D01*
X138818656Y-101542712D01*
X138912675Y-101448692D01*
X138973994Y-101415210D01*
X139043686Y-101420194D01*
X139088034Y-101448695D01*
X139181654Y-101542315D01*
X139330875Y-101634356D01*
X139330880Y-101634358D01*
X139497302Y-101689505D01*
X139497309Y-101689506D01*
X139600019Y-101699999D01*
X139749999Y-101699999D01*
X140250000Y-101699999D01*
X140399972Y-101699999D01*
X140399986Y-101699998D01*
X140502697Y-101689505D01*
X140669119Y-101634358D01*
X140669124Y-101634356D01*
X140818345Y-101542315D01*
X140942315Y-101418345D01*
X141034356Y-101269124D01*
X141034358Y-101269119D01*
X141089505Y-101102697D01*
X141089506Y-101102690D01*
X141099998Y-101000000D01*
X142853554Y-101000000D01*
X143500000Y-101646446D01*
X144146446Y-101000000D01*
X143500000Y-100353554D01*
X142853554Y-101000000D01*
X141099998Y-101000000D01*
X141099999Y-100999986D01*
X141100000Y-100999973D01*
X141100000Y-100750000D01*
X140250000Y-100750000D01*
X140250000Y-101699999D01*
X139749999Y-101699999D01*
X139750000Y-101699998D01*
X139750000Y-100250000D01*
X140250000Y-100250000D01*
X141099999Y-100250000D01*
X141099999Y-100000028D01*
X141099998Y-100000011D01*
X141091139Y-99913287D01*
X141090348Y-99905552D01*
X142300000Y-99905552D01*
X142300000Y-100094447D01*
X142329548Y-100281002D01*
X142387914Y-100460637D01*
X142473666Y-100628933D01*
X142492116Y-100654328D01*
X143146446Y-100000000D01*
X143146446Y-99999999D01*
X143100369Y-99953922D01*
X143150000Y-99953922D01*
X143150000Y-100046078D01*
X143173852Y-100135095D01*
X143219930Y-100214905D01*
X143285095Y-100280070D01*
X143364905Y-100326148D01*
X143453922Y-100350000D01*
X143546078Y-100350000D01*
X143635095Y-100326148D01*
X143714905Y-100280070D01*
X143780070Y-100214905D01*
X143826148Y-100135095D01*
X143850000Y-100046078D01*
X143850000Y-99999999D01*
X143853554Y-99999999D01*
X143853554Y-100000000D01*
X144507882Y-100654328D01*
X144507883Y-100654328D01*
X144526331Y-100628937D01*
X144612085Y-100460637D01*
X144670451Y-100281002D01*
X144700000Y-100094447D01*
X144700000Y-99905552D01*
X144670451Y-99718997D01*
X144612085Y-99539362D01*
X144526329Y-99371059D01*
X144507883Y-99345670D01*
X144507882Y-99345669D01*
X143853554Y-99999999D01*
X143850000Y-99999999D01*
X143850000Y-99953922D01*
X143826148Y-99864905D01*
X143780070Y-99785095D01*
X143714905Y-99719930D01*
X143635095Y-99673852D01*
X143546078Y-99650000D01*
X143453922Y-99650000D01*
X143364905Y-99673852D01*
X143285095Y-99719930D01*
X143219930Y-99785095D01*
X143173852Y-99864905D01*
X143150000Y-99953922D01*
X143100369Y-99953922D01*
X142492116Y-99345669D01*
X142492116Y-99345670D01*
X142473669Y-99371060D01*
X142387914Y-99539362D01*
X142329548Y-99718997D01*
X142300000Y-99905552D01*
X141090348Y-99905552D01*
X141089505Y-99897303D01*
X141034358Y-99730880D01*
X141034356Y-99730875D01*
X140942315Y-99581654D01*
X140818345Y-99457684D01*
X140669124Y-99365643D01*
X140669119Y-99365641D01*
X140502697Y-99310494D01*
X140502690Y-99310493D01*
X140399986Y-99300000D01*
X140250000Y-99300000D01*
X140250000Y-100250000D01*
X139750000Y-100250000D01*
X139750000Y-99300000D01*
X139600027Y-99300000D01*
X139600012Y-99300001D01*
X139497302Y-99310494D01*
X139330880Y-99365641D01*
X139330875Y-99365643D01*
X139181657Y-99457682D01*
X139088034Y-99551305D01*
X139026710Y-99584789D01*
X138957019Y-99579805D01*
X138912672Y-99551304D01*
X138818657Y-99457289D01*
X138818656Y-99457288D01*
X138725888Y-99400069D01*
X138669336Y-99365187D01*
X138669331Y-99365185D01*
X138667862Y-99364698D01*
X138502797Y-99310001D01*
X138502795Y-99310000D01*
X138400010Y-99299500D01*
X137599998Y-99299500D01*
X137599980Y-99299501D01*
X137497203Y-99310000D01*
X137497200Y-99310001D01*
X137330668Y-99365185D01*
X137330663Y-99365187D01*
X137181342Y-99457289D01*
X137057289Y-99581342D01*
X136965187Y-99730663D01*
X136965185Y-99730668D01*
X136965115Y-99730880D01*
X136910001Y-99897203D01*
X136910001Y-99897204D01*
X136910000Y-99897204D01*
X136899500Y-99999983D01*
X136899500Y-101000001D01*
X136899501Y-101000019D01*
X136910000Y-101102796D01*
X136910001Y-101102799D01*
X136948393Y-101218656D01*
X136965186Y-101269334D01*
X137057288Y-101418656D01*
X137181344Y-101542712D01*
X137330666Y-101634814D01*
X137330667Y-101634814D01*
X137336813Y-101638605D01*
X137335706Y-101640399D01*
X137380337Y-101679687D01*
X137399500Y-101745908D01*
X137399500Y-102170500D01*
X137379815Y-102237539D01*
X137327011Y-102283294D01*
X137275500Y-102294500D01*
X137084298Y-102294500D01*
X137047432Y-102297401D01*
X137047426Y-102297402D01*
X136889606Y-102343254D01*
X136889603Y-102343255D01*
X136748137Y-102426917D01*
X136748129Y-102426923D01*
X136631923Y-102543129D01*
X136631917Y-102543137D01*
X136548255Y-102684603D01*
X136548254Y-102684606D01*
X136502402Y-102842426D01*
X136502401Y-102842432D01*
X136499500Y-102879298D01*
X135500000Y-102879298D01*
X135500000Y-98992116D01*
X142845669Y-98992116D01*
X143500000Y-99646446D01*
X143500001Y-99646446D01*
X144154328Y-98992116D01*
X144128933Y-98973666D01*
X143960637Y-98887914D01*
X143781002Y-98829548D01*
X143594447Y-98800000D01*
X143405553Y-98800000D01*
X143218997Y-98829548D01*
X143039362Y-98887914D01*
X142871060Y-98973669D01*
X142845670Y-98992116D01*
X142845669Y-98992116D01*
X135500000Y-98992116D01*
X135500000Y-98271544D01*
X135519685Y-98204505D01*
X135572489Y-98158750D01*
X135592650Y-98151572D01*
X139510709Y-97127844D01*
X141310000Y-97127844D01*
X141316401Y-97187372D01*
X141316403Y-97187379D01*
X141366645Y-97322086D01*
X141366649Y-97322093D01*
X141452809Y-97437187D01*
X141452812Y-97437190D01*
X141567906Y-97523350D01*
X141567913Y-97523354D01*
X141702620Y-97573596D01*
X141702627Y-97573598D01*
X141762155Y-97579999D01*
X141762172Y-97580000D01*
X142320000Y-97580000D01*
X142820000Y-97580000D01*
X143377828Y-97580000D01*
X143377844Y-97579999D01*
X143437372Y-97573598D01*
X143437379Y-97573596D01*
X143572086Y-97523354D01*
X143572093Y-97523350D01*
X143687187Y-97437190D01*
X143687190Y-97437187D01*
X143773350Y-97322093D01*
X143773354Y-97322086D01*
X143823596Y-97187379D01*
X143823598Y-97187372D01*
X143829999Y-97127844D01*
X143830000Y-97127827D01*
X143830000Y-92250000D01*
X142820000Y-92250000D01*
X142820000Y-97580000D01*
X142320000Y-97580000D01*
X142320000Y-92250000D01*
X141310000Y-92250000D01*
X141310000Y-97127844D01*
X139510709Y-97127844D01*
X140000000Y-97000000D01*
X140000000Y-86872155D01*
X141310000Y-86872155D01*
X141310000Y-91750000D01*
X142320000Y-91750000D01*
X142820000Y-91750000D01*
X143830000Y-91750000D01*
X143830000Y-86872172D01*
X143829999Y-86872155D01*
X143823598Y-86812627D01*
X143823596Y-86812620D01*
X143773354Y-86677913D01*
X143773350Y-86677906D01*
X143687190Y-86562812D01*
X143687187Y-86562809D01*
X143572093Y-86476649D01*
X143572086Y-86476645D01*
X143437379Y-86426403D01*
X143437372Y-86426401D01*
X143377844Y-86420000D01*
X142820000Y-86420000D01*
X142820000Y-91750000D01*
X142320000Y-91750000D01*
X142320000Y-86420000D01*
X141762155Y-86420000D01*
X141702627Y-86426401D01*
X141702620Y-86426403D01*
X141567913Y-86476645D01*
X141567906Y-86476649D01*
X141452812Y-86562809D01*
X141452809Y-86562812D01*
X141366649Y-86677906D01*
X141366645Y-86677913D01*
X141316403Y-86812620D01*
X141316401Y-86812627D01*
X141310000Y-86872155D01*
X140000000Y-86872155D01*
X140000000Y-86124000D01*
X140019685Y-86056961D01*
X140072489Y-86011206D01*
X140124000Y-86000000D01*
X144385172Y-86000000D01*
X144452211Y-86019685D01*
G37*
%TD.AperFunction*%
%TD*%
%TA.AperFunction,Conductor*%
%TO.N,VCC*%
G36*
X130055559Y-104468584D02*
G01*
X130080131Y-104483535D01*
X130087842Y-104489555D01*
X130118922Y-104525297D01*
X130156967Y-104591194D01*
X130156977Y-104591210D01*
X130156981Y-104591216D01*
X130156985Y-104591221D01*
X130277814Y-104712050D01*
X130277859Y-104712093D01*
X130451073Y-104885307D01*
X130472223Y-104913559D01*
X130484831Y-104936648D01*
X130500000Y-104996077D01*
X130500000Y-107000000D01*
X132000000Y-108000000D01*
X136014674Y-107691178D01*
X136049887Y-107693506D01*
X136060949Y-107695851D01*
X136122451Y-107729006D01*
X136156265Y-107790148D01*
X136151658Y-107859858D01*
X136149919Y-107864599D01*
X136121185Y-107909579D01*
X136019476Y-108011288D01*
X135973425Y-108091053D01*
X135973422Y-108091060D01*
X135948585Y-108134075D01*
X135946614Y-108136644D01*
X135940187Y-108148652D01*
X135939390Y-108152066D01*
X135899499Y-108300943D01*
X135899499Y-108471400D01*
X135899500Y-108471451D01*
X135899500Y-109107268D01*
X135894475Y-109142208D01*
X135888901Y-109161188D01*
X135856799Y-109214730D01*
X135850531Y-109220884D01*
X135828756Y-109237940D01*
X135801648Y-109254660D01*
X135679661Y-109376647D01*
X135679658Y-109376651D01*
X135589094Y-109523477D01*
X135589058Y-109523588D01*
X135545125Y-109656167D01*
X135536677Y-109669113D01*
X135535190Y-109683673D01*
X135534367Y-109689919D01*
X135534184Y-109693521D01*
X135524500Y-109788305D01*
X135524500Y-109788315D01*
X135524500Y-110386669D01*
X135524501Y-110386687D01*
X135524503Y-110386711D01*
X135524504Y-110386718D01*
X135534824Y-110487748D01*
X135589094Y-110651521D01*
X135679658Y-110798347D01*
X135679661Y-110798351D01*
X135781374Y-110900064D01*
X135802526Y-110928320D01*
X135810018Y-110942041D01*
X135824870Y-111010301D01*
X135824741Y-111012107D01*
X135805372Y-111070311D01*
X135801189Y-111076820D01*
X135784555Y-111097462D01*
X135680049Y-111201968D01*
X135589552Y-111348686D01*
X135589550Y-111348689D01*
X135589543Y-111348703D01*
X135535318Y-111512348D01*
X135525000Y-111613339D01*
X135525000Y-111613342D01*
X135525000Y-111613345D01*
X135525000Y-111662500D01*
X137474999Y-111662500D01*
X137474999Y-111613360D01*
X137474998Y-111613345D01*
X137464680Y-111512347D01*
X137410453Y-111348699D01*
X137410448Y-111348688D01*
X137364645Y-111274431D01*
X137319957Y-111201980D01*
X137319943Y-111201960D01*
X137218619Y-111100636D01*
X137218396Y-111100227D01*
X137217988Y-111100001D01*
X137214420Y-111095199D01*
X137214332Y-111095282D01*
X137212039Y-111092815D01*
X137206762Y-111084891D01*
X137197471Y-111072386D01*
X137196327Y-111070291D01*
X137196848Y-111070006D01*
X137189961Y-111059664D01*
X137187175Y-111053528D01*
X137187170Y-111053520D01*
X137186229Y-111051446D01*
X137187128Y-111051037D01*
X137176181Y-110989869D01*
X137175171Y-110989797D01*
X137175418Y-110986336D01*
X137175501Y-110986070D01*
X137175494Y-110986030D01*
X137175583Y-110985212D01*
X137175764Y-110985231D01*
X137192542Y-110931754D01*
X137192864Y-110931213D01*
X137211734Y-110906954D01*
X137320340Y-110798350D01*
X137349169Y-110751609D01*
X137352808Y-110746821D01*
X137363581Y-110738877D01*
X137381602Y-110720559D01*
X137381252Y-110720099D01*
X137384453Y-110717660D01*
X137384722Y-110717387D01*
X137385291Y-110717024D01*
X137385305Y-110717011D01*
X137387446Y-110715382D01*
X137388971Y-110714669D01*
X137389569Y-110714287D01*
X137389619Y-110714366D01*
X137435103Y-110693114D01*
X137435710Y-110692975D01*
X137435714Y-110692976D01*
X137444053Y-110691080D01*
X137471522Y-110688000D01*
X138358170Y-110688000D01*
X138393106Y-110693023D01*
X138408104Y-110697427D01*
X138466855Y-110735172D01*
X138468042Y-110736541D01*
X138495518Y-110791402D01*
X138497163Y-110798960D01*
X138500000Y-110825331D01*
X138500000Y-114000000D01*
X143858170Y-114000000D01*
X143893106Y-114005023D01*
X143908104Y-114009427D01*
X143966855Y-114047172D01*
X143968042Y-114048541D01*
X143995518Y-114103402D01*
X143997163Y-114110960D01*
X144000000Y-114137331D01*
X144000000Y-119358170D01*
X143994975Y-119393114D01*
X143990570Y-119408112D01*
X143952827Y-119466855D01*
X143951458Y-119468042D01*
X143896597Y-119495518D01*
X143889039Y-119497163D01*
X143862668Y-119500000D01*
X125642330Y-119500000D01*
X125607389Y-119494975D01*
X125592390Y-119490570D01*
X125533644Y-119452827D01*
X125532457Y-119451458D01*
X125504977Y-119396583D01*
X125503332Y-119389021D01*
X125500500Y-119362668D01*
X125500500Y-114141829D01*
X125505523Y-114106893D01*
X125509927Y-114091895D01*
X125547672Y-114033144D01*
X125549041Y-114031957D01*
X125603920Y-114004477D01*
X125611479Y-114002833D01*
X125637832Y-114000000D01*
X127630364Y-114000000D01*
X127665296Y-114005022D01*
X127672561Y-114007155D01*
X127731340Y-114044928D01*
X127760366Y-114108483D01*
X127750425Y-114177642D01*
X127707308Y-114228704D01*
X127702565Y-114231926D01*
X127673841Y-114246396D01*
X127580123Y-114279189D01*
X127580108Y-114279195D01*
X127580106Y-114279196D01*
X127337252Y-114396148D01*
X127108998Y-114539569D01*
X127108994Y-114539572D01*
X126988898Y-114635344D01*
X127635621Y-115282067D01*
X127669106Y-115343390D01*
X127664122Y-115413082D01*
X127623937Y-115466760D01*
X127624239Y-115467114D01*
X127622669Y-115468454D01*
X127622250Y-115469015D01*
X127620834Y-115470060D01*
X127620537Y-115470275D01*
X127620531Y-115470280D01*
X127470280Y-115620531D01*
X127470275Y-115620537D01*
X127470060Y-115620834D01*
X127469949Y-115620919D01*
X127467114Y-115624239D01*
X127466416Y-115623643D01*
X127414726Y-115663495D01*
X127345113Y-115669468D01*
X127283320Y-115636857D01*
X127282067Y-115635621D01*
X126635344Y-114988898D01*
X126539572Y-115108994D01*
X126539569Y-115108998D01*
X126396148Y-115337252D01*
X126279196Y-115580106D01*
X126279195Y-115580108D01*
X126279189Y-115580123D01*
X126190174Y-115834511D01*
X126190167Y-115834532D01*
X126190164Y-115834544D01*
X126130181Y-116097345D01*
X126130176Y-116097373D01*
X126130175Y-116097383D01*
X126100000Y-116365205D01*
X126100000Y-116634793D01*
X126130175Y-116902615D01*
X126130176Y-116902625D01*
X126130181Y-116902653D01*
X126190164Y-117165454D01*
X126190167Y-117165466D01*
X126190174Y-117165487D01*
X126279189Y-117419875D01*
X126279195Y-117419890D01*
X126279196Y-117419892D01*
X126396148Y-117662746D01*
X126396152Y-117662752D01*
X126539568Y-117890998D01*
X126635346Y-118011099D01*
X127282066Y-117364377D01*
X127343389Y-117330893D01*
X127413080Y-117335877D01*
X127466752Y-117376055D01*
X127467106Y-117375753D01*
X127468448Y-117377324D01*
X127469014Y-117377748D01*
X127470067Y-117379176D01*
X127470276Y-117379464D01*
X127470278Y-117379466D01*
X127620534Y-117529722D01*
X127620537Y-117529724D01*
X127620823Y-117529932D01*
X127620905Y-117530038D01*
X127624239Y-117532886D01*
X127623640Y-117533586D01*
X127663489Y-117585262D01*
X127669468Y-117654875D01*
X127636862Y-117716670D01*
X127635619Y-117717931D01*
X126988899Y-118364651D01*
X126988899Y-118364652D01*
X126988900Y-118364653D01*
X127108993Y-118460427D01*
X127108995Y-118460428D01*
X127113403Y-118463244D01*
X127114112Y-118463643D01*
X127337252Y-118603850D01*
X127580106Y-118720802D01*
X127580108Y-118720803D01*
X127580123Y-118720809D01*
X127834511Y-118809824D01*
X127834532Y-118809831D01*
X127834536Y-118809832D01*
X127834548Y-118809836D01*
X128097348Y-118869818D01*
X128097366Y-118869821D01*
X128097369Y-118869821D01*
X128097373Y-118869822D01*
X128097386Y-118869824D01*
X128230501Y-118884821D01*
X128364628Y-118899933D01*
X128365195Y-118900000D01*
X128634784Y-118900000D01*
X128635316Y-118900000D01*
X128637776Y-118899662D01*
X128780336Y-118883600D01*
X128902612Y-118869824D01*
X128902625Y-118869822D01*
X128902626Y-118869821D01*
X128902633Y-118869821D01*
X128902651Y-118869818D01*
X129165451Y-118809836D01*
X129165463Y-118809832D01*
X129165466Y-118809831D01*
X129165487Y-118809824D01*
X129419875Y-118720809D01*
X129419873Y-118720809D01*
X129419881Y-118720807D01*
X129419895Y-118720801D01*
X129662752Y-118603847D01*
X129890999Y-118460431D01*
X130011098Y-118364653D01*
X130011099Y-118364652D01*
X130011099Y-118364651D01*
X129364379Y-117717933D01*
X129330894Y-117656610D01*
X129335878Y-117586919D01*
X129376055Y-117533247D01*
X129375753Y-117532894D01*
X129377325Y-117531550D01*
X129377749Y-117530985D01*
X129379182Y-117529929D01*
X129379462Y-117529725D01*
X129379462Y-117529724D01*
X129379466Y-117529722D01*
X129529722Y-117379466D01*
X129529925Y-117379185D01*
X129530030Y-117379104D01*
X129532888Y-117375759D01*
X129533590Y-117376358D01*
X129585250Y-117336514D01*
X129654863Y-117330527D01*
X129716661Y-117363126D01*
X129717932Y-117364379D01*
X130364652Y-118011099D01*
X130364653Y-118011098D01*
X130460431Y-117890999D01*
X130603847Y-117662752D01*
X130720801Y-117419895D01*
X130720807Y-117419881D01*
X130740228Y-117364378D01*
X130809824Y-117165487D01*
X130809831Y-117165466D01*
X130809832Y-117165463D01*
X130809836Y-117165451D01*
X130869818Y-116902651D01*
X130869821Y-116902634D01*
X130869822Y-116902623D01*
X130869824Y-116902613D01*
X130883789Y-116778657D01*
X130899168Y-116642160D01*
X130900000Y-116637372D01*
X130900000Y-116365195D01*
X130899933Y-116364628D01*
X130881086Y-116197349D01*
X130869824Y-116097386D01*
X130869822Y-116097373D01*
X130869821Y-116097366D01*
X130869818Y-116097348D01*
X130852576Y-116021805D01*
X130846996Y-115997356D01*
X137200000Y-115997356D01*
X137200000Y-115997359D01*
X137200000Y-115997362D01*
X137200000Y-116347349D01*
X137991277Y-116347349D01*
X138058316Y-116367034D01*
X138104071Y-116419838D01*
X138114015Y-116488996D01*
X138111052Y-116503442D01*
X138100000Y-116544688D01*
X138100000Y-116650009D01*
X138111052Y-116691256D01*
X138109389Y-116761106D01*
X138070226Y-116818968D01*
X138005998Y-116846472D01*
X137991277Y-116847349D01*
X137200001Y-116847349D01*
X137200001Y-117197344D01*
X137210493Y-117300043D01*
X137210493Y-117300044D01*
X137210494Y-117300046D01*
X137236811Y-117379464D01*
X137250206Y-117419890D01*
X137265641Y-117466468D01*
X137265643Y-117466473D01*
X137357684Y-117615694D01*
X137481654Y-117739664D01*
X137630875Y-117831705D01*
X137630880Y-117831707D01*
X137797299Y-117886853D01*
X137797300Y-117886853D01*
X137797302Y-117886854D01*
X137797309Y-117886855D01*
X137900019Y-117897348D01*
X138249999Y-117897348D01*
X138250000Y-117897347D01*
X138250000Y-117106071D01*
X138269685Y-117039032D01*
X138322489Y-116993277D01*
X138391647Y-116983333D01*
X138406082Y-116986294D01*
X138447339Y-116997349D01*
X138552659Y-116997349D01*
X138552661Y-116997349D01*
X138593907Y-116986297D01*
X138663755Y-116987958D01*
X138721618Y-117027120D01*
X138749123Y-117091348D01*
X138750000Y-117106071D01*
X138750000Y-117897348D01*
X139099960Y-117897348D01*
X139099972Y-117897348D01*
X139099986Y-117897347D01*
X139202697Y-117886854D01*
X139369119Y-117831707D01*
X139369124Y-117831705D01*
X139518345Y-117739664D01*
X139642315Y-117615694D01*
X139734356Y-117466473D01*
X139734358Y-117466468D01*
X139789505Y-117300046D01*
X139789506Y-117300039D01*
X139799999Y-117197335D01*
X139800000Y-117197322D01*
X139800000Y-116847349D01*
X139008723Y-116847349D01*
X138941684Y-116827664D01*
X138895929Y-116774860D01*
X138885985Y-116705702D01*
X138888948Y-116691256D01*
X138900000Y-116650010D01*
X138900000Y-116544688D01*
X138888948Y-116503441D01*
X138890611Y-116433592D01*
X138929774Y-116375730D01*
X138994002Y-116348226D01*
X139008723Y-116347349D01*
X139799999Y-116347349D01*
X139799999Y-115997381D01*
X139799999Y-115997377D01*
X139799998Y-115997362D01*
X139789505Y-115894651D01*
X139734358Y-115728229D01*
X139734356Y-115728224D01*
X139642315Y-115579003D01*
X139518345Y-115455033D01*
X139369124Y-115362992D01*
X139369119Y-115362990D01*
X139369110Y-115362987D01*
X139202699Y-115307843D01*
X139202694Y-115307842D01*
X139099991Y-115297349D01*
X139099986Y-115297349D01*
X138750000Y-115297349D01*
X138750000Y-116088626D01*
X138730315Y-116155665D01*
X138677511Y-116201420D01*
X138608353Y-116211364D01*
X138593911Y-116208401D01*
X138552661Y-116197349D01*
X138552660Y-116197349D01*
X138447339Y-116197349D01*
X138406092Y-116208400D01*
X138336243Y-116206738D01*
X138278381Y-116167575D01*
X138250877Y-116103347D01*
X138250000Y-116088626D01*
X138250000Y-115297349D01*
X137900028Y-115297349D01*
X137900012Y-115297350D01*
X137900002Y-115297350D01*
X137900002Y-115297351D01*
X137797304Y-115307842D01*
X137797302Y-115307843D01*
X137630887Y-115362987D01*
X137630879Y-115362990D01*
X137630877Y-115362991D01*
X137630875Y-115362992D01*
X137595636Y-115384728D01*
X137481652Y-115455034D01*
X137357685Y-115579001D01*
X137357002Y-115580108D01*
X137305569Y-115663495D01*
X137265641Y-115728228D01*
X137265638Y-115728237D01*
X137210494Y-115894648D01*
X137210493Y-115894653D01*
X137200000Y-115997356D01*
X130846996Y-115997356D01*
X130809836Y-115834548D01*
X130809832Y-115834536D01*
X130809831Y-115834532D01*
X130809824Y-115834511D01*
X130720809Y-115580123D01*
X130720803Y-115580108D01*
X130720802Y-115580106D01*
X130603850Y-115337252D01*
X130578777Y-115297349D01*
X130463643Y-115114112D01*
X130463244Y-115113403D01*
X130460428Y-115108995D01*
X130460427Y-115108994D01*
X130460427Y-115108993D01*
X130364653Y-114988900D01*
X130364652Y-114988899D01*
X129717931Y-115635619D01*
X129656608Y-115669104D01*
X129586916Y-115664120D01*
X129533239Y-115623937D01*
X129532886Y-115624239D01*
X129531544Y-115622668D01*
X129530983Y-115622248D01*
X129529932Y-115620823D01*
X129529724Y-115620537D01*
X129529719Y-115620531D01*
X129379468Y-115470280D01*
X129379466Y-115470278D01*
X129379166Y-115470060D01*
X129379161Y-115470056D01*
X129379075Y-115469944D01*
X129375761Y-115467114D01*
X129376355Y-115466417D01*
X129336502Y-115414721D01*
X129330532Y-115345106D01*
X129363146Y-115283315D01*
X129364305Y-115282139D01*
X130011099Y-114635346D01*
X130011098Y-114635345D01*
X130011099Y-114635345D01*
X129935797Y-114575294D01*
X129890998Y-114539568D01*
X129662752Y-114396152D01*
X129662753Y-114396152D01*
X129662746Y-114396148D01*
X129419892Y-114279196D01*
X129419890Y-114279195D01*
X129419875Y-114279189D01*
X129327677Y-114246928D01*
X129296359Y-114230647D01*
X129290208Y-114226235D01*
X129247206Y-114171166D01*
X129240803Y-114101590D01*
X129273032Y-114039598D01*
X129330599Y-114005644D01*
X129336143Y-114004169D01*
X129368025Y-114000000D01*
X135000000Y-114000000D01*
X134999998Y-113999982D01*
X134776458Y-112211663D01*
X135525001Y-112211663D01*
X135535319Y-112312653D01*
X135589545Y-112476297D01*
X135589550Y-112476309D01*
X135589552Y-112476312D01*
X135680041Y-112623018D01*
X135680048Y-112623028D01*
X135680052Y-112623034D01*
X135680055Y-112623038D01*
X135680057Y-112623040D01*
X135680059Y-112623043D01*
X135801955Y-112744939D01*
X135801958Y-112744941D01*
X135801961Y-112744944D01*
X135801965Y-112744947D01*
X135801973Y-112744952D01*
X135801980Y-112744957D01*
X135874431Y-112789645D01*
X135948688Y-112835448D01*
X135948699Y-112835453D01*
X136112347Y-112889680D01*
X136213352Y-112899999D01*
X136250000Y-112899999D01*
X136750000Y-112899999D01*
X136786628Y-112899999D01*
X136786640Y-112899999D01*
X136786654Y-112899998D01*
X136887652Y-112889680D01*
X137051300Y-112835453D01*
X137051311Y-112835448D01*
X137198034Y-112744947D01*
X137198038Y-112744944D01*
X137319944Y-112623038D01*
X137319947Y-112623034D01*
X137410448Y-112476311D01*
X137410453Y-112476300D01*
X137464680Y-112312652D01*
X137474999Y-112211654D01*
X137475000Y-112211641D01*
X137475000Y-112162500D01*
X136750000Y-112162500D01*
X136750000Y-112899999D01*
X136250000Y-112899999D01*
X136250000Y-112162500D01*
X135525001Y-112162500D01*
X135525001Y-112211663D01*
X134776458Y-112211663D01*
X134765815Y-112126518D01*
X134500000Y-110000000D01*
X132074098Y-110000000D01*
X132039162Y-109994977D01*
X132015166Y-109987931D01*
X131956784Y-109950609D01*
X130250000Y-108000000D01*
X126641830Y-108000000D01*
X126606889Y-107994975D01*
X126591890Y-107990570D01*
X126533144Y-107952827D01*
X126531957Y-107951458D01*
X126504477Y-107896583D01*
X126502832Y-107889021D01*
X126500000Y-107862668D01*
X126500000Y-105749995D01*
X127450001Y-105749995D01*
X127460493Y-105852694D01*
X127460493Y-105852695D01*
X127460494Y-105852697D01*
X127515641Y-106019119D01*
X127515643Y-106019124D01*
X127607684Y-106168345D01*
X127731654Y-106292315D01*
X127880875Y-106384356D01*
X127880880Y-106384358D01*
X128047299Y-106439504D01*
X128047300Y-106439504D01*
X128047302Y-106439505D01*
X128047309Y-106439506D01*
X128150019Y-106449999D01*
X128750000Y-106449999D01*
X128849960Y-106449999D01*
X128849972Y-106449999D01*
X128849986Y-106449998D01*
X128952697Y-106439505D01*
X129119119Y-106384358D01*
X129119124Y-106384356D01*
X129268345Y-106292315D01*
X129392315Y-106168345D01*
X129484356Y-106019124D01*
X129484358Y-106019119D01*
X129539505Y-105852697D01*
X129539506Y-105852690D01*
X129549999Y-105749986D01*
X129550000Y-105749973D01*
X129550000Y-105650000D01*
X128750000Y-105650000D01*
X128750000Y-106449999D01*
X128150019Y-106449999D01*
X128250000Y-106449998D01*
X128250000Y-105650000D01*
X127450001Y-105650000D01*
X127450001Y-105749995D01*
X126500000Y-105749995D01*
X126500000Y-104628541D01*
X126519685Y-104561502D01*
X126572489Y-104515747D01*
X126632849Y-104504857D01*
X126641830Y-104505500D01*
X127463322Y-104505500D01*
X127530361Y-104525185D01*
X127576116Y-104577989D01*
X127586060Y-104647147D01*
X127568862Y-104694593D01*
X127515644Y-104780874D01*
X127515641Y-104780879D01*
X127515638Y-104780888D01*
X127460494Y-104947299D01*
X127460493Y-104947304D01*
X127450000Y-105050007D01*
X127450000Y-105050010D01*
X127450000Y-105050013D01*
X127450000Y-105150000D01*
X129549999Y-105150000D01*
X129549999Y-105050028D01*
X129549998Y-105050013D01*
X129539505Y-104947302D01*
X129484358Y-104780880D01*
X129484356Y-104780875D01*
X129430321Y-104693272D01*
X129411881Y-104625881D01*
X129432803Y-104559217D01*
X129486445Y-104514448D01*
X129528153Y-104504415D01*
X129528172Y-104504415D01*
X129540821Y-104503627D01*
X129546975Y-104503166D01*
X129559513Y-104502069D01*
X129965477Y-104461472D01*
X129986421Y-104458503D01*
X130055559Y-104468584D01*
G37*
%TD.AperFunction*%
%TD*%
%TA.AperFunction,Conductor*%
%TO.N,+12V*%
G36*
X139136988Y-105402620D02*
G01*
X139137325Y-105401883D01*
X139142454Y-105404225D01*
X139144019Y-105404685D01*
X139144023Y-105404687D01*
X139145393Y-105405567D01*
X139274763Y-105464650D01*
X139276270Y-105465338D01*
X139343309Y-105485023D01*
X139343313Y-105485024D01*
X139485729Y-105505500D01*
X141239254Y-105505500D01*
X141306293Y-105525185D01*
X141326935Y-105541819D01*
X141606239Y-105821123D01*
X141606255Y-105821137D01*
X141606262Y-105821144D01*
X141646480Y-105857271D01*
X141646492Y-105857281D01*
X141646500Y-105857288D01*
X141661778Y-105869600D01*
X141667143Y-105873923D01*
X141682506Y-105885001D01*
X141711026Y-105905567D01*
X141841903Y-105965338D01*
X141908942Y-105985023D01*
X141908946Y-105985024D01*
X142051362Y-106005500D01*
X142401000Y-106005500D01*
X142468039Y-106025185D01*
X142513794Y-106077989D01*
X142525000Y-106129500D01*
X142525000Y-106162500D01*
X144474999Y-106162500D01*
X144474999Y-106129500D01*
X144494684Y-106062461D01*
X144547488Y-106016706D01*
X144598999Y-106005500D01*
X145375990Y-106005500D01*
X145376000Y-106005500D01*
X145483456Y-105993947D01*
X145534967Y-105982741D01*
X145569197Y-105971347D01*
X145637497Y-105948616D01*
X145637501Y-105948613D01*
X145637504Y-105948613D01*
X145758543Y-105870825D01*
X145811347Y-105825070D01*
X145905567Y-105716336D01*
X145965338Y-105585459D01*
X145965339Y-105585457D01*
X145966884Y-105581315D01*
X145968803Y-105582030D01*
X146002040Y-105530298D01*
X146065592Y-105501265D01*
X146083256Y-105500000D01*
X151858170Y-105500000D01*
X151893106Y-105505023D01*
X151908104Y-105509427D01*
X151966855Y-105547172D01*
X151968042Y-105548541D01*
X151995518Y-105603402D01*
X151997163Y-105610960D01*
X152000000Y-105637331D01*
X152000000Y-109868281D01*
X151994976Y-109903220D01*
X151992091Y-109913044D01*
X151954314Y-109971821D01*
X151890757Y-110000844D01*
X151821599Y-109990897D01*
X151774612Y-109953426D01*
X151771990Y-109949997D01*
X151758773Y-109928478D01*
X151752147Y-109914720D01*
X151691507Y-109788799D01*
X151542115Y-109551043D01*
X151486158Y-109480875D01*
X151435810Y-109417740D01*
X150717931Y-110135619D01*
X150656608Y-110169104D01*
X150586916Y-110164120D01*
X150533239Y-110123937D01*
X150532886Y-110124239D01*
X150531544Y-110122668D01*
X150530983Y-110122248D01*
X150529932Y-110120823D01*
X150529724Y-110120537D01*
X150529719Y-110120531D01*
X150379464Y-109970276D01*
X150379457Y-109970270D01*
X150379161Y-109970055D01*
X150379075Y-109969944D01*
X150375753Y-109967106D01*
X150376349Y-109966407D01*
X150336502Y-109914720D01*
X150330532Y-109845105D01*
X150363146Y-109783314D01*
X150364305Y-109782138D01*
X151082257Y-109064187D01*
X151082256Y-109064186D01*
X151082257Y-109064186D01*
X150948962Y-108957888D01*
X150948958Y-108957885D01*
X150711197Y-108808490D01*
X150458218Y-108686662D01*
X150287003Y-108626751D01*
X150193617Y-108594075D01*
X150193187Y-108593922D01*
X149919429Y-108531439D01*
X149919397Y-108531434D01*
X149640407Y-108500000D01*
X149640401Y-108500000D01*
X149359598Y-108500000D01*
X149359591Y-108500000D01*
X149080601Y-108531434D01*
X149080569Y-108531439D01*
X148806808Y-108593923D01*
X148806347Y-108594087D01*
X148541780Y-108686662D01*
X148288801Y-108808490D01*
X148051044Y-108957883D01*
X147917740Y-109064186D01*
X148635621Y-109782067D01*
X148669106Y-109843390D01*
X148664122Y-109913082D01*
X148623937Y-109966760D01*
X148624239Y-109967114D01*
X148622669Y-109968454D01*
X148622250Y-109969015D01*
X148620834Y-109970060D01*
X148620537Y-109970275D01*
X148620531Y-109970280D01*
X148470280Y-110120531D01*
X148470275Y-110120537D01*
X148470060Y-110120834D01*
X148469949Y-110120919D01*
X148467114Y-110124239D01*
X148466416Y-110123643D01*
X148414726Y-110163495D01*
X148345113Y-110169468D01*
X148283320Y-110136857D01*
X148282067Y-110135621D01*
X147564186Y-109417740D01*
X147457883Y-109551044D01*
X147308490Y-109788801D01*
X147186662Y-110041780D01*
X147094087Y-110306347D01*
X147093923Y-110306808D01*
X147031439Y-110580569D01*
X147031434Y-110580601D01*
X147000000Y-110859591D01*
X147000000Y-111140407D01*
X147031434Y-111419397D01*
X147031439Y-111419429D01*
X147093922Y-111693187D01*
X147094087Y-111693651D01*
X147186662Y-111958218D01*
X147308490Y-112211197D01*
X147457885Y-112448958D01*
X147457888Y-112448962D01*
X147564186Y-112582257D01*
X147564186Y-112582256D01*
X147564187Y-112582257D01*
X148282067Y-111864376D01*
X148343388Y-111830893D01*
X148413079Y-111835877D01*
X148466751Y-111876055D01*
X148467106Y-111875753D01*
X148468452Y-111877329D01*
X148469013Y-111877749D01*
X148470055Y-111879161D01*
X148470270Y-111879457D01*
X148470276Y-111879464D01*
X148470278Y-111879466D01*
X148620534Y-112029722D01*
X148620537Y-112029724D01*
X148620823Y-112029932D01*
X148620905Y-112030038D01*
X148624239Y-112032886D01*
X148623640Y-112033586D01*
X148663489Y-112085262D01*
X148669468Y-112154875D01*
X148636862Y-112216670D01*
X148635619Y-112217931D01*
X147917741Y-112935809D01*
X147917741Y-112935810D01*
X147917741Y-112935811D01*
X148051043Y-113042115D01*
X148288799Y-113191507D01*
X148288801Y-113191508D01*
X148423849Y-113256544D01*
X148453145Y-113276228D01*
X148460744Y-113283089D01*
X148497311Y-113342625D01*
X148495886Y-113412480D01*
X148456920Y-113470475D01*
X148402781Y-113496551D01*
X148398554Y-113497426D01*
X148373419Y-113500000D01*
X146141830Y-113500000D01*
X146106889Y-113494975D01*
X146091890Y-113490570D01*
X146033144Y-113452827D01*
X146031957Y-113451458D01*
X146004477Y-113396583D01*
X146002832Y-113389021D01*
X146000000Y-113362668D01*
X146000000Y-111000000D01*
X144652852Y-111000000D01*
X144617915Y-110994976D01*
X144607399Y-110991888D01*
X144608140Y-110989364D01*
X144556218Y-110963371D01*
X144520568Y-110903280D01*
X144522642Y-110845281D01*
X144520067Y-110844722D01*
X144520422Y-110843089D01*
X144522881Y-110838583D01*
X144523065Y-110833455D01*
X144523081Y-110833408D01*
X144523600Y-110831851D01*
X144526101Y-110832684D01*
X144553897Y-110781763D01*
X144567218Y-110768443D01*
X144567315Y-110768345D01*
X144659356Y-110619124D01*
X144659358Y-110619119D01*
X144714505Y-110452697D01*
X144714506Y-110452690D01*
X144724999Y-110349986D01*
X144725000Y-110349973D01*
X144725000Y-110300000D01*
X142275001Y-110300000D01*
X142275001Y-110349995D01*
X142285493Y-110452694D01*
X142285493Y-110452695D01*
X142285494Y-110452697D01*
X142340641Y-110619119D01*
X142340643Y-110619124D01*
X142432684Y-110768345D01*
X142432685Y-110768346D01*
X142440050Y-110775711D01*
X142461199Y-110803961D01*
X142466620Y-110813888D01*
X142481474Y-110882161D01*
X142457060Y-110947626D01*
X142401128Y-110989499D01*
X142401124Y-110989501D01*
X142393936Y-110992182D01*
X142350602Y-111000000D01*
X141141830Y-111000000D01*
X141106889Y-110994975D01*
X141091890Y-110990570D01*
X141033144Y-110952827D01*
X141031957Y-110951458D01*
X141004477Y-110896583D01*
X141002832Y-110889021D01*
X141000000Y-110862668D01*
X141000000Y-109750007D01*
X142275000Y-109750007D01*
X142275000Y-109750010D01*
X142275000Y-109750013D01*
X142275000Y-109800000D01*
X143250000Y-109800000D01*
X143750000Y-109800000D01*
X144724999Y-109800000D01*
X144724999Y-109750028D01*
X144724998Y-109750013D01*
X144714505Y-109647302D01*
X144659358Y-109480880D01*
X144659356Y-109480875D01*
X144567315Y-109331654D01*
X144443345Y-109207684D01*
X144294124Y-109115643D01*
X144294119Y-109115641D01*
X144294110Y-109115638D01*
X144127699Y-109060494D01*
X144127694Y-109060493D01*
X144024991Y-109050000D01*
X144024986Y-109050000D01*
X143750000Y-109050000D01*
X143750000Y-109800000D01*
X143250000Y-109800000D01*
X143250000Y-109050000D01*
X142975037Y-109050000D01*
X142975029Y-109050000D01*
X142975019Y-109050000D01*
X142975006Y-109050001D01*
X142872304Y-109060493D01*
X142872302Y-109060494D01*
X142705887Y-109115638D01*
X142705879Y-109115641D01*
X142705877Y-109115642D01*
X142705875Y-109115643D01*
X142606394Y-109177003D01*
X142556652Y-109207685D01*
X142432685Y-109331652D01*
X142340641Y-109480879D01*
X142340638Y-109480888D01*
X142285494Y-109647299D01*
X142285493Y-109647304D01*
X142275000Y-109750007D01*
X141000000Y-109750007D01*
X141000000Y-108500000D01*
X139624999Y-107399999D01*
X139502573Y-107302058D01*
X139478432Y-107276313D01*
X139469470Y-107263503D01*
X139447169Y-107197291D01*
X139446498Y-107180206D01*
X139447655Y-107163932D01*
X139447100Y-107163889D01*
X139447597Y-107157572D01*
X139447598Y-107157569D01*
X139450500Y-107120694D01*
X139450500Y-106711663D01*
X142525001Y-106711663D01*
X142535319Y-106812653D01*
X142589545Y-106976297D01*
X142589550Y-106976309D01*
X142589552Y-106976312D01*
X142680041Y-107123018D01*
X142680048Y-107123028D01*
X142680052Y-107123034D01*
X142680055Y-107123038D01*
X142680057Y-107123040D01*
X142680059Y-107123043D01*
X142801955Y-107244939D01*
X142801958Y-107244941D01*
X142801961Y-107244944D01*
X142801965Y-107244947D01*
X142801973Y-107244952D01*
X142801980Y-107244957D01*
X142874431Y-107289645D01*
X142948688Y-107335448D01*
X142948699Y-107335453D01*
X143112347Y-107389680D01*
X143213352Y-107399999D01*
X143250000Y-107399999D01*
X143750000Y-107399999D01*
X143786628Y-107399999D01*
X143786640Y-107399999D01*
X143786654Y-107399998D01*
X143887652Y-107389680D01*
X144051300Y-107335453D01*
X144051311Y-107335448D01*
X144198034Y-107244947D01*
X144198038Y-107244944D01*
X144319944Y-107123038D01*
X144319947Y-107123034D01*
X144321389Y-107120697D01*
X144327783Y-107110329D01*
X144410448Y-106976311D01*
X144410453Y-106976300D01*
X144464680Y-106812652D01*
X144474999Y-106711654D01*
X144475000Y-106711641D01*
X144475000Y-106662500D01*
X143750000Y-106662500D01*
X143750000Y-107399999D01*
X143250000Y-107399999D01*
X143250000Y-106662500D01*
X142525001Y-106662500D01*
X142525001Y-106711663D01*
X139450500Y-106711663D01*
X139450500Y-106689306D01*
X139447598Y-106652431D01*
X139401744Y-106494602D01*
X139339500Y-106389353D01*
X139338337Y-106384767D01*
X139337526Y-106385211D01*
X139315634Y-106345155D01*
X139315635Y-106345155D01*
X139306257Y-106327996D01*
X139291381Y-106259733D01*
X139291510Y-106257915D01*
X139310885Y-106199706D01*
X139329732Y-106170383D01*
X139330030Y-106167822D01*
X139337444Y-106153140D01*
X139401281Y-106045198D01*
X139447100Y-105887486D01*
X139447295Y-105885001D01*
X139447295Y-105885000D01*
X138116830Y-105885000D01*
X138111382Y-105883400D01*
X138105812Y-105884510D01*
X138081889Y-105879975D01*
X138066890Y-105875570D01*
X138051885Y-105865930D01*
X138049791Y-105865315D01*
X138048362Y-105863666D01*
X138008144Y-105837827D01*
X138006957Y-105836458D01*
X137979477Y-105781583D01*
X137977832Y-105774021D01*
X137975000Y-105747668D01*
X137975000Y-105526829D01*
X137980023Y-105491893D01*
X137984427Y-105476895D01*
X137992293Y-105464650D01*
X137995633Y-105450501D01*
X138010777Y-105435879D01*
X138022172Y-105418144D01*
X138023541Y-105416957D01*
X138037742Y-105409845D01*
X138045898Y-105401972D01*
X138058467Y-105399467D01*
X138078420Y-105389477D01*
X138085979Y-105387833D01*
X138112332Y-105385000D01*
X139076980Y-105385000D01*
X139136988Y-105402620D01*
G37*
%TD.AperFunction*%
%TA.AperFunction,Conductor*%
G36*
X150716661Y-111863126D02*
G01*
X150717932Y-111864379D01*
X151435809Y-112582257D01*
X151435809Y-112582256D01*
X151435810Y-112582257D01*
X151542116Y-112448956D01*
X151691509Y-112211197D01*
X151744364Y-112101444D01*
X151756544Y-112076151D01*
X151776222Y-112046860D01*
X151779642Y-112043072D01*
X151783084Y-112039258D01*
X151842617Y-112002689D01*
X151912473Y-112004110D01*
X151970470Y-112043072D01*
X151996551Y-112097217D01*
X151997426Y-112101444D01*
X152000000Y-112126579D01*
X152000000Y-113358170D01*
X151994975Y-113393114D01*
X151990570Y-113408112D01*
X151952827Y-113466855D01*
X151951458Y-113468042D01*
X151896597Y-113495518D01*
X151889039Y-113497163D01*
X151862668Y-113500000D01*
X150631719Y-113500000D01*
X150596783Y-113494977D01*
X150586958Y-113492092D01*
X150528180Y-113454317D01*
X150499156Y-113390761D01*
X150509100Y-113321602D01*
X150546570Y-113274614D01*
X150550010Y-113271984D01*
X150571516Y-113258775D01*
X150711200Y-113191507D01*
X150948956Y-113042116D01*
X151082257Y-112935810D01*
X151082256Y-112935809D01*
X151082257Y-112935809D01*
X150364379Y-112217933D01*
X150330894Y-112156610D01*
X150335878Y-112086919D01*
X150376055Y-112033247D01*
X150375753Y-112032894D01*
X150377325Y-112031550D01*
X150377749Y-112030985D01*
X150379182Y-112029929D01*
X150379462Y-112029725D01*
X150379462Y-112029724D01*
X150379466Y-112029722D01*
X150529722Y-111879466D01*
X150529925Y-111879185D01*
X150530030Y-111879104D01*
X150532888Y-111875759D01*
X150533590Y-111876358D01*
X150585250Y-111836514D01*
X150654863Y-111830527D01*
X150716661Y-111863126D01*
G37*
%TD.AperFunction*%
%TD*%
M02*
