%TF.GenerationSoftware,KiCad,Pcbnew,9.0.4*%
%TF.CreationDate,2025-10-12T14:42:54-05:00*%
%TF.ProjectId,Onboarding,4f6e626f-6172-4646-996e-672e6b696361,rev?*%
%TF.SameCoordinates,Original*%
%TF.FileFunction,Soldermask,Top*%
%TF.FilePolarity,Negative*%
%FSLAX46Y46*%
G04 Gerber Fmt 4.6, Leading zero omitted, Abs format (unit mm)*
G04 Created by KiCad (PCBNEW 9.0.4) date 2025-10-12 14:42:54*
%MOMM*%
%LPD*%
G01*
G04 APERTURE LIST*
G04 Aperture macros list*
%AMRoundRect*
0 Rectangle with rounded corners*
0 $1 Rounding radius*
0 $2 $3 $4 $5 $6 $7 $8 $9 X,Y pos of 4 corners*
0 Add a 4 corners polygon primitive as box body*
4,1,4,$2,$3,$4,$5,$6,$7,$8,$9,$2,$3,0*
0 Add four circle primitives for the rounded corners*
1,1,$1+$1,$2,$3*
1,1,$1+$1,$4,$5*
1,1,$1+$1,$6,$7*
1,1,$1+$1,$8,$9*
0 Add four rect primitives between the rounded corners*
20,1,$1+$1,$2,$3,$4,$5,0*
20,1,$1+$1,$4,$5,$6,$7,0*
20,1,$1+$1,$6,$7,$8,$9,0*
20,1,$1+$1,$8,$9,$2,$3,0*%
G04 Aperture macros list end*
%ADD10C,1.400000*%
%ADD11RoundRect,0.237500X-0.250000X-0.237500X0.250000X-0.237500X0.250000X0.237500X-0.250000X0.237500X0*%
%ADD12RoundRect,0.760000X1.140000X1.140000X-1.140000X1.140000X-1.140000X-1.140000X1.140000X-1.140000X0*%
%ADD13C,4.000000*%
%ADD14RoundRect,0.249999X0.850001X-0.850001X0.850001X0.850001X-0.850001X0.850001X-0.850001X-0.850001X0*%
%ADD15C,2.200000*%
%ADD16RoundRect,0.150000X0.150000X0.700000X-0.150000X0.700000X-0.150000X-0.700000X0.150000X-0.700000X0*%
%ADD17RoundRect,0.250000X0.250000X1.150000X-0.250000X1.150000X-0.250000X-1.150000X0.250000X-1.150000X0*%
%ADD18RoundRect,0.237500X-0.300000X-0.237500X0.300000X-0.237500X0.300000X0.237500X-0.300000X0.237500X0*%
%ADD19RoundRect,0.250000X-0.250000X-0.475000X0.250000X-0.475000X0.250000X0.475000X-0.250000X0.475000X0*%
%ADD20RoundRect,0.250000X-0.350000X-0.450000X0.350000X-0.450000X0.350000X0.450000X-0.350000X0.450000X0*%
%ADD21R,1.700000X2.000000*%
%ADD22RoundRect,0.250000X-0.550000X-0.550000X0.550000X-0.550000X0.550000X0.550000X-0.550000X0.550000X0*%
%ADD23C,1.600000*%
%ADD24RoundRect,0.760000X-1.140000X-1.140000X1.140000X-1.140000X1.140000X1.140000X-1.140000X1.140000X0*%
%ADD25C,3.800000*%
%ADD26RoundRect,0.150000X-0.825000X-0.150000X0.825000X-0.150000X0.825000X0.150000X-0.825000X0.150000X0*%
G04 APERTURE END LIST*
D10*
%TO.C,TP2*%
X86500000Y-85000000D03*
X88500000Y-85000000D03*
%TD*%
D11*
%TO.C,R4*%
X70175000Y-96000000D03*
X72000000Y-96000000D03*
%TD*%
D12*
%TO.C,J1*%
X93000000Y-98500000D03*
D13*
X88000000Y-98500000D03*
%TD*%
D14*
%TO.C,D1*%
X66000000Y-102080000D03*
D15*
X66000000Y-91920000D03*
%TD*%
D16*
%TO.C,J3*%
X102125000Y-90550000D03*
X100875000Y-90550000D03*
D17*
X103975000Y-93900000D03*
X99025000Y-93900000D03*
%TD*%
D18*
%TO.C,C2*%
X70137500Y-92000000D03*
X71862500Y-92000000D03*
%TD*%
D11*
%TO.C,R3*%
X92000000Y-85000000D03*
X93825000Y-85000000D03*
%TD*%
D19*
%TO.C,C3*%
X92100000Y-91000000D03*
X94000000Y-91000000D03*
%TD*%
D20*
%TO.C,R1*%
X86500000Y-91000000D03*
X88500000Y-91000000D03*
%TD*%
D21*
%TO.C,L1*%
X79500000Y-85000000D03*
X79500000Y-91000000D03*
%TD*%
D16*
%TO.C,J4*%
X102125000Y-97550000D03*
X100875000Y-97550000D03*
D17*
X103975000Y-100900000D03*
X99025000Y-100900000D03*
%TD*%
D22*
%TO.C,C1*%
X88597349Y-107000000D03*
D23*
X93597349Y-107000000D03*
%TD*%
D24*
%TO.C,J2*%
X75000000Y-107000000D03*
D25*
X80000000Y-107000000D03*
%TD*%
D10*
%TO.C,TP1*%
X70500000Y-86000000D03*
X72500000Y-86000000D03*
%TD*%
D11*
%TO.C,R2*%
X70087500Y-100500000D03*
X71912500Y-100500000D03*
%TD*%
D26*
%TO.C,U1*%
X76500000Y-95960000D03*
X76500000Y-97230000D03*
X76500000Y-98500000D03*
X76500000Y-99770000D03*
X81450000Y-99770000D03*
X81450000Y-98500000D03*
X81450000Y-97230000D03*
X81450000Y-95960000D03*
%TD*%
M02*
