%TF.GenerationSoftware,KiCad,Pcbnew,9.0.4*%
%TF.CreationDate,2026-02-06T21:39:12-06:00*%
%TF.ProjectId,Onboarding,4f6e626f-6172-4646-996e-672e6b696361,rev?*%
%TF.SameCoordinates,Original*%
%TF.FileFunction,Soldermask,Top*%
%TF.FilePolarity,Negative*%
%FSLAX46Y46*%
G04 Gerber Fmt 4.6, Leading zero omitted, Abs format (unit mm)*
G04 Created by KiCad (PCBNEW 9.0.4) date 2026-02-06 21:39:12*
%MOMM*%
%LPD*%
G01*
G04 APERTURE LIST*
G04 Aperture macros list*
%AMRoundRect*
0 Rectangle with rounded corners*
0 $1 Rounding radius*
0 $2 $3 $4 $5 $6 $7 $8 $9 X,Y pos of 4 corners*
0 Add a 4 corners polygon primitive as box body*
4,1,4,$2,$3,$4,$5,$6,$7,$8,$9,$2,$3,0*
0 Add four circle primitives for the rounded corners*
1,1,$1+$1,$2,$3*
1,1,$1+$1,$4,$5*
1,1,$1+$1,$6,$7*
1,1,$1+$1,$8,$9*
0 Add four rect primitives between the rounded corners*
20,1,$1+$1,$2,$3,$4,$5,0*
20,1,$1+$1,$4,$5,$6,$7,0*
20,1,$1+$1,$6,$7,$8,$9,0*
20,1,$1+$1,$8,$9,$2,$3,0*%
G04 Aperture macros list end*
%ADD10RoundRect,0.237500X-0.250000X-0.237500X0.250000X-0.237500X0.250000X0.237500X-0.250000X0.237500X0*%
%ADD11RoundRect,0.250000X0.550000X-0.550000X0.550000X0.550000X-0.550000X0.550000X-0.550000X-0.550000X0*%
%ADD12C,1.600000*%
%ADD13RoundRect,0.237500X0.300000X0.237500X-0.300000X0.237500X-0.300000X-0.237500X0.300000X-0.237500X0*%
%ADD14C,1.400000*%
%ADD15RoundRect,0.150000X0.700000X-0.150000X0.700000X0.150000X-0.700000X0.150000X-0.700000X-0.150000X0*%
%ADD16RoundRect,0.250000X1.150000X-0.250000X1.150000X0.250000X-1.150000X0.250000X-1.150000X-0.250000X0*%
%ADD17RoundRect,0.250000X-0.450000X0.350000X-0.450000X-0.350000X0.450000X-0.350000X0.450000X0.350000X0*%
%ADD18RoundRect,0.150000X0.825000X0.150000X-0.825000X0.150000X-0.825000X-0.150000X0.825000X-0.150000X0*%
%ADD19R,1.200000X0.750000*%
%ADD20R,1.520000X10.160000*%
%ADD21RoundRect,0.250000X-0.250000X-0.475000X0.250000X-0.475000X0.250000X0.475000X-0.250000X0.475000X0*%
%ADD22C,4.000000*%
%ADD23RoundRect,0.760000X1.140000X-1.140000X1.140000X1.140000X-1.140000X1.140000X-1.140000X-1.140000X0*%
%ADD24C,3.800000*%
%ADD25RoundRect,0.760000X-1.140000X-1.140000X1.140000X-1.140000X1.140000X1.140000X-1.140000X1.140000X0*%
%ADD26RoundRect,0.237500X0.250000X0.237500X-0.250000X0.237500X-0.250000X-0.237500X0.250000X-0.237500X0*%
G04 APERTURE END LIST*
D10*
%TO.C,R2*%
X171675000Y-102000000D03*
X173500000Y-102000000D03*
%TD*%
D11*
%TO.C,C1*%
X170500000Y-97000000D03*
D12*
X170500000Y-92000000D03*
%TD*%
D13*
%TO.C,C3*%
X162500000Y-106000000D03*
X164225000Y-106000000D03*
%TD*%
D10*
%TO.C,R1*%
X164500000Y-97000000D03*
X162675000Y-97000000D03*
%TD*%
D14*
%TO.C,TP2*%
X168500000Y-101000000D03*
X168500000Y-103000000D03*
%TD*%
D15*
%TO.C,J3*%
X166500000Y-117650000D03*
X166500000Y-116400000D03*
D16*
X163150000Y-119500000D03*
X163150000Y-114550000D03*
%TD*%
D15*
%TO.C,J4*%
X173500000Y-117500000D03*
X173500000Y-116250000D03*
D16*
X170150000Y-119350000D03*
X170150000Y-114400000D03*
%TD*%
D17*
%TO.C,R4*%
X157500000Y-100500000D03*
X157500000Y-102500000D03*
%TD*%
D18*
%TO.C,U1*%
X165475000Y-103405000D03*
X165475000Y-102135000D03*
X165475000Y-100865000D03*
X165475000Y-99595000D03*
X160525000Y-99595000D03*
X160525000Y-100865000D03*
X160525000Y-102135000D03*
X160525000Y-103405000D03*
%TD*%
D19*
%TO.C,D1*%
X174500000Y-105000000D03*
X171100000Y-105000000D03*
%TD*%
D20*
%TO.C,L1*%
X149360000Y-111500000D03*
X158500000Y-111500000D03*
%TD*%
D21*
%TO.C,C2*%
X157450000Y-94500000D03*
X155550000Y-94500000D03*
%TD*%
D22*
%TO.C,J1*%
X150500000Y-96500000D03*
D23*
X150500000Y-101500000D03*
%TD*%
D24*
%TO.C,J2*%
X170000000Y-110000000D03*
D25*
X165000000Y-110000000D03*
%TD*%
D26*
%TO.C,R3*%
X155587500Y-97000000D03*
X157412500Y-97000000D03*
%TD*%
D14*
%TO.C,TP1*%
X160500000Y-97000000D03*
X160500000Y-95000000D03*
%TD*%
M02*
