%TF.GenerationSoftware,KiCad,Pcbnew,9.0.4*%
%TF.CreationDate,2025-09-25T14:49:47-05:00*%
%TF.ProjectId,Onboarding,4f6e626f-6172-4646-996e-672e6b696361,rev?*%
%TF.SameCoordinates,Original*%
%TF.FileFunction,Copper,L1,Top*%
%TF.FilePolarity,Positive*%
%FSLAX46Y46*%
G04 Gerber Fmt 4.6, Leading zero omitted, Abs format (unit mm)*
G04 Created by KiCad (PCBNEW 9.0.4) date 2025-09-25 14:49:47*
%MOMM*%
%LPD*%
G01*
G04 APERTURE LIST*
G04 Aperture macros list*
%AMRoundRect*
0 Rectangle with rounded corners*
0 $1 Rounding radius*
0 $2 $3 $4 $5 $6 $7 $8 $9 X,Y pos of 4 corners*
0 Add a 4 corners polygon primitive as box body*
4,1,4,$2,$3,$4,$5,$6,$7,$8,$9,$2,$3,0*
0 Add four circle primitives for the rounded corners*
1,1,$1+$1,$2,$3*
1,1,$1+$1,$4,$5*
1,1,$1+$1,$6,$7*
1,1,$1+$1,$8,$9*
0 Add four rect primitives between the rounded corners*
20,1,$1+$1,$2,$3,$4,$5,0*
20,1,$1+$1,$4,$5,$6,$7,0*
20,1,$1+$1,$6,$7,$8,$9,0*
20,1,$1+$1,$8,$9,$2,$3,0*%
G04 Aperture macros list end*
%TA.AperFunction,ComponentPad*%
%ADD10RoundRect,0.250000X0.550000X-0.550000X0.550000X0.550000X-0.550000X0.550000X-0.550000X-0.550000X0*%
%TD*%
%TA.AperFunction,ComponentPad*%
%ADD11C,1.600000*%
%TD*%
%TA.AperFunction,ComponentPad*%
%ADD12RoundRect,0.760000X-1.140000X1.140000X-1.140000X-1.140000X1.140000X-1.140000X1.140000X1.140000X0*%
%TD*%
%TA.AperFunction,ComponentPad*%
%ADD13C,4.000000*%
%TD*%
%TA.AperFunction,SMDPad,CuDef*%
%ADD14RoundRect,0.150000X-0.825000X-0.150000X0.825000X-0.150000X0.825000X0.150000X-0.825000X0.150000X0*%
%TD*%
%TA.AperFunction,SMDPad,CuDef*%
%ADD15RoundRect,0.237500X0.237500X-0.250000X0.237500X0.250000X-0.237500X0.250000X-0.237500X-0.250000X0*%
%TD*%
%TA.AperFunction,ComponentPad*%
%ADD16RoundRect,0.760000X1.140000X-1.140000X1.140000X1.140000X-1.140000X1.140000X-1.140000X-1.140000X0*%
%TD*%
%TA.AperFunction,ComponentPad*%
%ADD17C,3.800000*%
%TD*%
%TA.AperFunction,SMDPad,CuDef*%
%ADD18RoundRect,0.150000X0.700000X-0.150000X0.700000X0.150000X-0.700000X0.150000X-0.700000X-0.150000X0*%
%TD*%
%TA.AperFunction,SMDPad,CuDef*%
%ADD19RoundRect,0.250000X1.150000X-0.250000X1.150000X0.250000X-1.150000X0.250000X-1.150000X-0.250000X0*%
%TD*%
%TA.AperFunction,SMDPad,CuDef*%
%ADD20RoundRect,0.237500X0.300000X0.237500X-0.300000X0.237500X-0.300000X-0.237500X0.300000X-0.237500X0*%
%TD*%
%TA.AperFunction,SMDPad,CuDef*%
%ADD21RoundRect,0.250000X0.350000X0.450000X-0.350000X0.450000X-0.350000X-0.450000X0.350000X-0.450000X0*%
%TD*%
%TA.AperFunction,SMDPad,CuDef*%
%ADD22RoundRect,0.249999X0.850001X3.500001X-0.850001X3.500001X-0.850001X-3.500001X0.850001X-3.500001X0*%
%TD*%
%TA.AperFunction,SMDPad,CuDef*%
%ADD23RoundRect,0.237500X0.250000X0.237500X-0.250000X0.237500X-0.250000X-0.237500X0.250000X-0.237500X0*%
%TD*%
%TA.AperFunction,SMDPad,CuDef*%
%ADD24RoundRect,0.250000X-0.475000X0.250000X-0.475000X-0.250000X0.475000X-0.250000X0.475000X0.250000X0*%
%TD*%
%TA.AperFunction,ComponentPad*%
%ADD25C,1.400000*%
%TD*%
%TA.AperFunction,SMDPad,CuDef*%
%ADD26RoundRect,0.237500X-0.250000X-0.237500X0.250000X-0.237500X0.250000X0.237500X-0.250000X0.237500X0*%
%TD*%
%TA.AperFunction,SMDPad,CuDef*%
%ADD27RoundRect,0.250000X-0.300000X-0.300000X0.300000X-0.300000X0.300000X0.300000X-0.300000X0.300000X0*%
%TD*%
%TA.AperFunction,ViaPad*%
%ADD28C,0.600000*%
%TD*%
%TA.AperFunction,Conductor*%
%ADD29C,0.200000*%
%TD*%
G04 APERTURE END LIST*
D10*
%TO.P,C1,1*%
%TO.N,VCC*%
X50700000Y-41602651D03*
D11*
%TO.P,C1,2*%
%TO.N,GND*%
X50700000Y-36602651D03*
%TD*%
D12*
%TO.P,J1,1,Pin_1*%
%TO.N,GND*%
X71100000Y-37900000D03*
D13*
%TO.P,J1,2,Pin_2*%
%TO.N,+12V*%
X71100000Y-42900000D03*
%TD*%
D14*
%TO.P,U2,1,SC*%
%TO.N,Net-(D2-A)*%
X57425000Y-47495000D03*
%TO.P,U2,2,SE*%
%TO.N,GND*%
X57425000Y-48765000D03*
%TO.P,U2,3,CT*%
%TO.N,Net-(U2-CT)*%
X57425000Y-50035000D03*
%TO.P,U2,4,GND*%
%TO.N,GND*%
X57425000Y-51305000D03*
%TO.P,U2,5,COMP-*%
%TO.N,Net-(U2-COMP-)*%
X62375000Y-51305000D03*
%TO.P,U2,6,VCC*%
%TO.N,+12V*%
X62375000Y-50035000D03*
%TO.P,U2,7,I_{PK}*%
%TO.N,Net-(U2-I_{PK})*%
X62375000Y-48765000D03*
%TO.P,U2,8,DC*%
%TO.N,Net-(U2-DC)*%
X62375000Y-47495000D03*
%TD*%
D15*
%TO.P,R3,1*%
%TO.N,+12V*%
X68900000Y-49412500D03*
%TO.P,R3,2*%
%TO.N,Net-(U2-I_{PK})*%
X68900000Y-47587500D03*
%TD*%
D16*
%TO.P,J2,1,Pin_1*%
%TO.N,GND*%
X43100000Y-48100000D03*
D17*
%TO.P,J2,2,Pin_2*%
%TO.N,VCC*%
X43100000Y-43100000D03*
%TD*%
D18*
%TO.P,J4,1,Pin_1*%
%TO.N,/CAN-*%
X44925000Y-34525000D03*
%TO.P,J4,2,Pin_2*%
%TO.N,/CAN+*%
X44925000Y-33275000D03*
D19*
%TO.P,J4,MP*%
%TO.N,N/C*%
X41575000Y-36375000D03*
X41575000Y-31425000D03*
%TD*%
D20*
%TO.P,C2,1*%
%TO.N,Net-(U2-CT)*%
X54162500Y-47500000D03*
%TO.P,C2,2*%
%TO.N,GND*%
X52437500Y-47500000D03*
%TD*%
D21*
%TO.P,R1,1*%
%TO.N,Net-(U2-I_{PK})*%
X66500000Y-45900000D03*
%TO.P,R1,2*%
%TO.N,Net-(U2-DC)*%
X64500000Y-45900000D03*
%TD*%
D18*
%TO.P,J3,1,Pin_1*%
%TO.N,/CAN-*%
X56850000Y-31825000D03*
%TO.P,J3,2,Pin_2*%
%TO.N,/CAN+*%
X56850000Y-30575000D03*
D19*
%TO.P,J3,MP*%
%TO.N,N/C*%
X53500000Y-33675000D03*
X53500000Y-28725000D03*
%TD*%
D22*
%TO.P,L1,1,1*%
%TO.N,Net-(U2-I_{PK})*%
X63000000Y-40600000D03*
%TO.P,L1,2,2*%
%TO.N,Net-(D2-A)*%
X57000000Y-40600000D03*
%TD*%
D23*
%TO.P,R4,1*%
%TO.N,Net-(U2-COMP-)*%
X54212500Y-52700000D03*
%TO.P,R4,2*%
%TO.N,GND*%
X52387500Y-52700000D03*
%TD*%
D24*
%TO.P,C4,1*%
%TO.N,+12V*%
X65700000Y-49450000D03*
%TO.P,C4,2*%
%TO.N,GND*%
X65700000Y-51350000D03*
%TD*%
D25*
%TO.P,TP3,1,1*%
%TO.N,Net-(D2-A)*%
X62600000Y-33000000D03*
X60600000Y-33000000D03*
%TD*%
D26*
%TO.P,R2,1*%
%TO.N,VCC*%
X52387500Y-50100000D03*
%TO.P,R2,2*%
%TO.N,Net-(U2-COMP-)*%
X54212500Y-50100000D03*
%TD*%
D27*
%TO.P,D2,1,K*%
%TO.N,VCC*%
X50300000Y-45000000D03*
%TO.P,D2,2,A*%
%TO.N,Net-(D2-A)*%
X53100000Y-45000000D03*
%TD*%
D25*
%TO.P,TP2,1,1*%
%TO.N,Net-(U2-I_{PK})*%
X66200000Y-35000000D03*
X66200000Y-33000000D03*
%TD*%
D28*
%TO.N,GND*%
X53300000Y-48700000D03*
X65200000Y-52300000D03*
X59700000Y-50000000D03*
X52400000Y-51700000D03*
X59700000Y-47600000D03*
X67000000Y-51600000D03*
X51300000Y-46900000D03*
X59700000Y-48800000D03*
X64400000Y-51600000D03*
X59700000Y-51300000D03*
X52400000Y-48700000D03*
X51300000Y-47600000D03*
X66300000Y-52300000D03*
%TD*%
D29*
%TO.N,VCC*%
X50300000Y-45000000D02*
X50300000Y-48012500D01*
X50300000Y-48012500D02*
X52387500Y-50100000D01*
%TO.N,Net-(U2-CT)*%
X56697500Y-50035000D02*
X54162500Y-47500000D01*
X57425000Y-50035000D02*
X56697500Y-50035000D01*
%TO.N,Net-(D2-A)*%
X57000000Y-36600000D02*
X60600000Y-33000000D01*
X57000000Y-40600000D02*
X57000000Y-36600000D01*
X60600000Y-33000000D02*
X62600000Y-33000000D01*
%TO.N,Net-(U2-I_{PK})*%
X64400000Y-35000000D02*
X63000000Y-36400000D01*
X66200000Y-35000000D02*
X64400000Y-35000000D01*
X63000000Y-36400000D02*
X63000000Y-40600000D01*
X66200000Y-33000000D02*
X66200000Y-35000000D01*
%TO.N,Net-(U2-DC)*%
X63970000Y-45900000D02*
X64500000Y-45900000D01*
X62375000Y-47495000D02*
X63970000Y-45900000D01*
%TO.N,Net-(U2-COMP-)*%
X62375000Y-51305000D02*
X60980000Y-52700000D01*
X54212500Y-50100000D02*
X54212500Y-52700000D01*
X60980000Y-52700000D02*
X54212500Y-52700000D01*
%TO.N,/CAN+*%
X48706802Y-33675000D02*
X51406802Y-30975000D01*
X55574999Y-30575000D02*
X56850000Y-30575000D01*
X55174999Y-30975000D02*
X55574999Y-30575000D01*
X46200001Y-33275000D02*
X46600001Y-33675000D01*
X46600001Y-33675000D02*
X48706802Y-33675000D01*
X51406802Y-30975000D02*
X55174999Y-30975000D01*
X44925000Y-33275000D02*
X46200001Y-33275000D01*
%TO.N,/CAN-*%
X55574999Y-31825000D02*
X56850000Y-31825000D01*
X46600001Y-34125000D02*
X48893198Y-34125000D01*
X55174999Y-31425000D02*
X55574999Y-31825000D01*
X46200001Y-34525000D02*
X46600001Y-34125000D01*
X51593198Y-31425000D02*
X55174999Y-31425000D01*
X44925000Y-34525000D02*
X46200001Y-34525000D01*
X48893198Y-34125000D02*
X51593198Y-31425000D01*
%TD*%
%TA.AperFunction,Conductor*%
%TO.N,+12V*%
G36*
X73943039Y-40419685D02*
G01*
X73988794Y-40472489D01*
X74000000Y-40524000D01*
X74000000Y-50476000D01*
X73980315Y-50543039D01*
X73927511Y-50588794D01*
X73876000Y-50600000D01*
X66787730Y-50600000D01*
X66720691Y-50580315D01*
X66700049Y-50563681D01*
X66643657Y-50507289D01*
X66643656Y-50507288D01*
X66494334Y-50415186D01*
X66327797Y-50360001D01*
X66327795Y-50360000D01*
X66225010Y-50349500D01*
X65174998Y-50349500D01*
X65174980Y-50349501D01*
X65072203Y-50360000D01*
X65072200Y-50360001D01*
X64905668Y-50415185D01*
X64905663Y-50415187D01*
X64756342Y-50507289D01*
X64699951Y-50563681D01*
X64638628Y-50597166D01*
X64612270Y-50600000D01*
X63573360Y-50600000D01*
X63510239Y-50582732D01*
X63478025Y-50563681D01*
X63460398Y-50553256D01*
X63460397Y-50553255D01*
X63460396Y-50553255D01*
X63460393Y-50553254D01*
X63302573Y-50507402D01*
X63302567Y-50507401D01*
X63265701Y-50504500D01*
X63265694Y-50504500D01*
X61484306Y-50504500D01*
X61484298Y-50504500D01*
X61447432Y-50507401D01*
X61358594Y-50533211D01*
X61288725Y-50533011D01*
X61230055Y-50495068D01*
X61201212Y-50431429D01*
X61200000Y-50414134D01*
X61200000Y-49892614D01*
X61200275Y-49891675D01*
X61200014Y-49890731D01*
X61210102Y-49858210D01*
X61219685Y-49825575D01*
X61220424Y-49824934D01*
X61220715Y-49823998D01*
X61246809Y-49802071D01*
X61272489Y-49779820D01*
X61273702Y-49779473D01*
X61274207Y-49779050D01*
X61277822Y-49778297D01*
X61308219Y-49769622D01*
X61316247Y-49768591D01*
X61357147Y-49768709D01*
X61357151Y-49768709D01*
X61499625Y-49748639D01*
X61521669Y-49742234D01*
X61531227Y-49741008D01*
X61535331Y-49741661D01*
X61547008Y-49740000D01*
X63202991Y-49740000D01*
X63237573Y-49744920D01*
X63239467Y-49745470D01*
X63242988Y-49746493D01*
X63271522Y-49758838D01*
X63305698Y-49779050D01*
X63320326Y-49787701D01*
X63321680Y-49788513D01*
X63325808Y-49791026D01*
X63345973Y-49805567D01*
X63358935Y-49811486D01*
X63359748Y-49812027D01*
X63361300Y-49812630D01*
X63361734Y-49812894D01*
X63365488Y-49814480D01*
X63461242Y-49858210D01*
X63476850Y-49865338D01*
X63543889Y-49885023D01*
X63543893Y-49885024D01*
X63686309Y-49905500D01*
X63686312Y-49905500D01*
X63756523Y-49905500D01*
X63782625Y-49904824D01*
X63782630Y-49904823D01*
X63782658Y-49904823D01*
X63795474Y-49904159D01*
X63821674Y-49902117D01*
X63822756Y-49901844D01*
X63835383Y-49899355D01*
X63845660Y-49897877D01*
X63845661Y-49897878D01*
X63853659Y-49896728D01*
X63863341Y-49895337D01*
X63863342Y-49895336D01*
X63863354Y-49895335D01*
X63933868Y-49879997D01*
X64002953Y-49848444D01*
X64003458Y-49849674D01*
X64025733Y-49840541D01*
X64025749Y-49840534D01*
X64044725Y-49829365D01*
X64064744Y-49820223D01*
X64084996Y-49807207D01*
X64084995Y-49807206D01*
X64111400Y-49790236D01*
X64115520Y-49787701D01*
X64149749Y-49767557D01*
X64930954Y-49142592D01*
X64973633Y-49104282D01*
X64976824Y-49101072D01*
X64977177Y-49100720D01*
X64982312Y-49095621D01*
X64984624Y-49093892D01*
X65061958Y-49016556D01*
X65062080Y-49016436D01*
X65062346Y-49016291D01*
X65084336Y-48998903D01*
X65108419Y-48984048D01*
X65134497Y-48971888D01*
X65165771Y-48961525D01*
X65192205Y-48955872D01*
X65194523Y-48955635D01*
X65207063Y-48955000D01*
X66192944Y-48955000D01*
X66205485Y-48955636D01*
X66207803Y-48955872D01*
X66234238Y-48961528D01*
X66265492Y-48971885D01*
X66291581Y-48984050D01*
X66336538Y-49011780D01*
X66463992Y-49067860D01*
X66529088Y-49086321D01*
X66667007Y-49105500D01*
X66667012Y-49105500D01*
X68133500Y-49105500D01*
X68133507Y-49105500D01*
X68271424Y-49086322D01*
X68336521Y-49067861D01*
X68463981Y-49011778D01*
X68551238Y-48957955D01*
X68577322Y-48945792D01*
X68605814Y-48936350D01*
X68632337Y-48930688D01*
X68632929Y-48930627D01*
X68645387Y-48930000D01*
X69154612Y-48930000D01*
X69167034Y-48930623D01*
X69167618Y-48930683D01*
X69194184Y-48936350D01*
X69277994Y-48964122D01*
X69321064Y-48976306D01*
X69342420Y-48981338D01*
X69386417Y-48989667D01*
X69530297Y-48989666D01*
X69599455Y-48979722D01*
X69737504Y-48939187D01*
X69858543Y-48861399D01*
X69911347Y-48815644D01*
X70005567Y-48706910D01*
X70065338Y-48576033D01*
X70085023Y-48508994D01*
X70085024Y-48508990D01*
X70105500Y-48366574D01*
X70105500Y-47047583D01*
X70103850Y-47006776D01*
X70102234Y-46986823D01*
X70097296Y-46946288D01*
X70054170Y-46809023D01*
X70023954Y-46746024D01*
X69943903Y-46626469D01*
X69039217Y-45621263D01*
X68278043Y-44775514D01*
X68271552Y-44763475D01*
X68263967Y-44756501D01*
X68250257Y-44723978D01*
X68204046Y-44547534D01*
X68200000Y-44516118D01*
X68200000Y-40524000D01*
X68219685Y-40456961D01*
X68272489Y-40411206D01*
X68324000Y-40400000D01*
X73876000Y-40400000D01*
X73943039Y-40419685D01*
G37*
%TD.AperFunction*%
%TD*%
%TA.AperFunction,Conductor*%
%TO.N,Net-(U2-I_{PK})*%
G36*
X69568168Y-46964631D02*
G01*
X69598384Y-47027630D01*
X69600000Y-47047583D01*
X69600000Y-48366574D01*
X69580315Y-48433613D01*
X69527511Y-48479368D01*
X69458353Y-48489312D01*
X69436997Y-48484280D01*
X69287755Y-48434826D01*
X69287751Y-48434825D01*
X69186678Y-48424500D01*
X68613330Y-48424500D01*
X68613312Y-48424501D01*
X68512247Y-48434825D01*
X68348484Y-48489092D01*
X68348481Y-48489093D01*
X68198604Y-48581539D01*
X68133507Y-48600000D01*
X66667007Y-48600000D01*
X66601911Y-48581539D01*
X66494340Y-48515189D01*
X66494335Y-48515187D01*
X66494334Y-48515186D01*
X66327797Y-48460001D01*
X66327795Y-48460000D01*
X66225010Y-48449500D01*
X65174998Y-48449500D01*
X65174980Y-48449501D01*
X65072203Y-48460000D01*
X65072200Y-48460001D01*
X64905668Y-48515185D01*
X64905663Y-48515187D01*
X64756345Y-48607287D01*
X64627182Y-48736450D01*
X64626849Y-48736117D01*
X64615170Y-48747863D01*
X63833965Y-49372828D01*
X63811690Y-49381961D01*
X63791438Y-49394977D01*
X63773745Y-49397520D01*
X63769319Y-49399336D01*
X63756503Y-49400000D01*
X63686309Y-49400000D01*
X63619270Y-49380315D01*
X63608242Y-49371428D01*
X63608031Y-49371702D01*
X63601862Y-49366917D01*
X63460396Y-49283255D01*
X63460393Y-49283254D01*
X63302573Y-49237402D01*
X63302567Y-49237401D01*
X63265701Y-49234500D01*
X63265694Y-49234500D01*
X61484306Y-49234500D01*
X61484298Y-49234500D01*
X61447432Y-49237401D01*
X61358594Y-49263211D01*
X61288725Y-49263011D01*
X61230055Y-49225068D01*
X61201212Y-49161429D01*
X61200000Y-49144134D01*
X61200000Y-48385865D01*
X61219685Y-48318826D01*
X61272489Y-48273071D01*
X61341647Y-48263127D01*
X61358595Y-48266789D01*
X61447426Y-48292597D01*
X61447429Y-48292597D01*
X61447431Y-48292598D01*
X61484306Y-48295500D01*
X61484314Y-48295500D01*
X63265686Y-48295500D01*
X63265694Y-48295500D01*
X63302569Y-48292598D01*
X63302571Y-48292597D01*
X63302573Y-48292597D01*
X63344191Y-48280505D01*
X63460398Y-48246744D01*
X63601865Y-48163081D01*
X63718081Y-48046865D01*
X63801744Y-47905398D01*
X63803994Y-47897653D01*
X63841597Y-47838769D01*
X63844469Y-47836343D01*
X64709577Y-47128527D01*
X64773926Y-47101311D01*
X64788094Y-47100499D01*
X64900008Y-47100499D01*
X65002797Y-47089999D01*
X65169334Y-47034814D01*
X65318656Y-46942712D01*
X65442712Y-46818656D01*
X65534814Y-46669334D01*
X65589999Y-46502797D01*
X65600500Y-46400009D01*
X65600499Y-45399992D01*
X65600498Y-45399986D01*
X65600338Y-45396836D01*
X65600409Y-45396832D01*
X65600000Y-45388788D01*
X65600000Y-45000000D01*
X67400000Y-45000000D01*
X67800000Y-45000000D01*
X69568168Y-46964631D01*
G37*
%TD.AperFunction*%
%TD*%
%TA.AperFunction,Conductor*%
%TO.N,Net-(D2-A)*%
G36*
X58543039Y-36619685D02*
G01*
X58588794Y-36672489D01*
X58600000Y-36724000D01*
X58600000Y-47874135D01*
X58580315Y-47941174D01*
X58527511Y-47986929D01*
X58458353Y-47996873D01*
X58441405Y-47993211D01*
X58352573Y-47967402D01*
X58352567Y-47967401D01*
X58315701Y-47964500D01*
X58315694Y-47964500D01*
X56534306Y-47964500D01*
X56534298Y-47964500D01*
X56497432Y-47967401D01*
X56497429Y-47967402D01*
X56430219Y-47986929D01*
X56402176Y-47995076D01*
X56367582Y-48000000D01*
X56255225Y-48000000D01*
X56188186Y-47980315D01*
X56163057Y-47958952D01*
X54400000Y-46000000D01*
X52829500Y-46000000D01*
X52762461Y-45980315D01*
X52716706Y-45927511D01*
X52705500Y-45876000D01*
X52705500Y-45792005D01*
X52705499Y-45792004D01*
X52700355Y-45720064D01*
X52695332Y-45685129D01*
X52680002Y-45614658D01*
X52656811Y-45563878D01*
X52611780Y-45461537D01*
X52581079Y-45411763D01*
X52578556Y-45406687D01*
X52578013Y-45403634D01*
X52571886Y-45390493D01*
X52561529Y-45359240D01*
X52555874Y-45332810D01*
X52555637Y-45330491D01*
X52555000Y-45317936D01*
X52555000Y-44682057D01*
X52555639Y-44669489D01*
X52555872Y-44667202D01*
X52561528Y-44640763D01*
X52571888Y-44609501D01*
X52584052Y-44583415D01*
X52611779Y-44538464D01*
X52667860Y-44411008D01*
X52686321Y-44345912D01*
X52705500Y-44207993D01*
X52705500Y-42926917D01*
X52716824Y-42875147D01*
X55566813Y-36672230D01*
X55612689Y-36619531D01*
X55679489Y-36600000D01*
X58476000Y-36600000D01*
X58543039Y-36619685D01*
G37*
%TD.AperFunction*%
%TD*%
%TA.AperFunction,Conductor*%
%TO.N,VCC*%
G36*
X52143039Y-40619685D02*
G01*
X52188794Y-40672489D01*
X52200000Y-40724000D01*
X52200000Y-44207993D01*
X52181539Y-44273089D01*
X52115189Y-44380659D01*
X52115186Y-44380666D01*
X52060001Y-44547203D01*
X52060001Y-44547204D01*
X52060000Y-44547204D01*
X52049500Y-44649983D01*
X52049500Y-45350001D01*
X52049501Y-45350019D01*
X52060000Y-45452796D01*
X52060001Y-45452799D01*
X52115185Y-45619331D01*
X52115186Y-45619334D01*
X52181539Y-45726910D01*
X52186235Y-45743468D01*
X52194977Y-45757071D01*
X52200000Y-45792006D01*
X52200000Y-45876000D01*
X52180315Y-45943039D01*
X52127511Y-45988794D01*
X52076000Y-46000000D01*
X45106485Y-46000000D01*
X45039446Y-45980315D01*
X45035868Y-45977928D01*
X44864583Y-45859260D01*
X44864579Y-45859258D01*
X44658002Y-45765426D01*
X44505140Y-45726909D01*
X44437983Y-45709987D01*
X44404671Y-45707365D01*
X44304739Y-45699500D01*
X44304736Y-45699500D01*
X41895264Y-45699500D01*
X41895260Y-45699500D01*
X41762017Y-45709987D01*
X41541997Y-45765426D01*
X41335420Y-45859258D01*
X41335416Y-45859260D01*
X41164132Y-45977928D01*
X41097815Y-45999925D01*
X41093515Y-46000000D01*
X40724000Y-46000000D01*
X40656961Y-45980315D01*
X40611206Y-45927511D01*
X40600000Y-45876000D01*
X40600000Y-40724000D01*
X40619685Y-40656961D01*
X40672489Y-40611206D01*
X40724000Y-40600000D01*
X52076000Y-40600000D01*
X52143039Y-40619685D01*
G37*
%TD.AperFunction*%
%TD*%
%TA.AperFunction,Conductor*%
%TO.N,Net-(U2-I_{PK})*%
G36*
X65571333Y-36619685D02*
G01*
X65617088Y-36672489D01*
X65624248Y-36692583D01*
X67799999Y-44999999D01*
X67800000Y-45000000D01*
X65512730Y-45000000D01*
X65445691Y-44980315D01*
X65425049Y-44963681D01*
X65318657Y-44857289D01*
X65318656Y-44857288D01*
X65169334Y-44765186D01*
X65002797Y-44710001D01*
X65002795Y-44710000D01*
X64900010Y-44699500D01*
X64099998Y-44699500D01*
X64099980Y-44699501D01*
X63997203Y-44710000D01*
X63997200Y-44710001D01*
X63830668Y-44765185D01*
X63830663Y-44765187D01*
X63681342Y-44857289D01*
X63574951Y-44963681D01*
X63513628Y-44997166D01*
X63487270Y-45000000D01*
X61724000Y-45000000D01*
X61656961Y-44980315D01*
X61611206Y-44927511D01*
X61600000Y-44876000D01*
X61600000Y-36724000D01*
X61619685Y-36656961D01*
X61672489Y-36611206D01*
X61724000Y-36600000D01*
X65504294Y-36600000D01*
X65571333Y-36619685D01*
G37*
%TD.AperFunction*%
%TD*%
%TA.AperFunction,Conductor*%
%TO.N,GND*%
G36*
X52501251Y-46411088D02*
G01*
X52620034Y-46465335D01*
X52620041Y-46465338D01*
X52687080Y-46485023D01*
X52687084Y-46485024D01*
X52829500Y-46505500D01*
X53276448Y-46505500D01*
X53343487Y-46525185D01*
X53389242Y-46577989D01*
X53399186Y-46647147D01*
X53370161Y-46710703D01*
X53364129Y-46717181D01*
X53279661Y-46801648D01*
X53189093Y-46948481D01*
X53189091Y-46948486D01*
X53178783Y-46979593D01*
X53134826Y-47112247D01*
X53134826Y-47112248D01*
X53134825Y-47112248D01*
X53124500Y-47213315D01*
X53124500Y-47786669D01*
X53124501Y-47786687D01*
X53134825Y-47887752D01*
X53149904Y-47933255D01*
X53187109Y-48045533D01*
X53189092Y-48051515D01*
X53189093Y-48051518D01*
X53223395Y-48107129D01*
X53279660Y-48198350D01*
X53401650Y-48320340D01*
X53548484Y-48410908D01*
X53712247Y-48465174D01*
X53813323Y-48475500D01*
X54237402Y-48475499D01*
X54304441Y-48495183D01*
X54325083Y-48511818D01*
X54744323Y-48931058D01*
X54777808Y-48992381D01*
X54772824Y-49062073D01*
X54730952Y-49118006D01*
X54665488Y-49142423D01*
X54617639Y-49136445D01*
X54612755Y-49134826D01*
X54612751Y-49134825D01*
X54511678Y-49124500D01*
X53913330Y-49124500D01*
X53913312Y-49124501D01*
X53812247Y-49134825D01*
X53648484Y-49189092D01*
X53648481Y-49189093D01*
X53501648Y-49279661D01*
X53387681Y-49393629D01*
X53326358Y-49427114D01*
X53256666Y-49422130D01*
X53212319Y-49393629D01*
X53098351Y-49279661D01*
X53098350Y-49279660D01*
X52966252Y-49198181D01*
X52951518Y-49189093D01*
X52951513Y-49189091D01*
X52922485Y-49179472D01*
X52787753Y-49134826D01*
X52787751Y-49134825D01*
X52686684Y-49124500D01*
X52686677Y-49124500D01*
X52312597Y-49124500D01*
X52245558Y-49104815D01*
X52224916Y-49088181D01*
X50936819Y-47800084D01*
X50903334Y-47738761D01*
X50900500Y-47712403D01*
X50900500Y-46629500D01*
X50920185Y-46562461D01*
X50972989Y-46516706D01*
X51024500Y-46505500D01*
X52075990Y-46505500D01*
X52076000Y-46505500D01*
X52183456Y-46493947D01*
X52234967Y-46482741D01*
X52337504Y-46448613D01*
X52382698Y-46419567D01*
X52449736Y-46399882D01*
X52501251Y-46411088D01*
G37*
%TD.AperFunction*%
%TA.AperFunction,Conductor*%
G36*
X74003736Y-25500726D02*
G01*
X74293796Y-25518271D01*
X74308659Y-25520076D01*
X74590798Y-25571780D01*
X74605335Y-25575363D01*
X74879172Y-25660695D01*
X74893163Y-25666000D01*
X75154743Y-25783727D01*
X75167989Y-25790680D01*
X75413465Y-25939075D01*
X75425776Y-25947573D01*
X75651573Y-26124473D01*
X75662781Y-26134403D01*
X75865596Y-26337218D01*
X75875526Y-26348426D01*
X75995481Y-26501538D01*
X76052422Y-26574217D01*
X76060926Y-26586537D01*
X76119091Y-26682753D01*
X76209316Y-26832004D01*
X76216275Y-26845263D01*
X76333997Y-27106831D01*
X76339306Y-27120832D01*
X76424635Y-27394663D01*
X76428219Y-27409201D01*
X76479923Y-27691340D01*
X76481728Y-27706205D01*
X76499274Y-27996263D01*
X76499500Y-28003750D01*
X76499500Y-51996249D01*
X76499274Y-52003736D01*
X76481728Y-52293794D01*
X76479923Y-52308659D01*
X76428219Y-52590798D01*
X76424635Y-52605336D01*
X76339306Y-52879167D01*
X76333997Y-52893168D01*
X76216275Y-53154736D01*
X76209316Y-53167995D01*
X76060928Y-53413459D01*
X76052422Y-53425782D01*
X75875526Y-53651573D01*
X75865596Y-53662781D01*
X75662781Y-53865596D01*
X75651573Y-53875526D01*
X75425782Y-54052422D01*
X75413459Y-54060928D01*
X75167995Y-54209316D01*
X75154736Y-54216275D01*
X74893168Y-54333997D01*
X74879167Y-54339306D01*
X74605336Y-54424635D01*
X74590798Y-54428219D01*
X74308659Y-54479923D01*
X74293794Y-54481728D01*
X74003736Y-54499274D01*
X73996249Y-54499500D01*
X38003751Y-54499500D01*
X37996264Y-54499274D01*
X37706205Y-54481728D01*
X37691340Y-54479923D01*
X37409201Y-54428219D01*
X37394663Y-54424635D01*
X37120832Y-54339306D01*
X37106831Y-54333997D01*
X36845263Y-54216275D01*
X36832004Y-54209316D01*
X36586540Y-54060928D01*
X36574217Y-54052422D01*
X36348426Y-53875526D01*
X36337218Y-53865596D01*
X36134403Y-53662781D01*
X36124473Y-53651573D01*
X36092613Y-53610907D01*
X35947573Y-53425776D01*
X35939075Y-53413465D01*
X35790680Y-53167989D01*
X35783727Y-53154743D01*
X35666000Y-52893163D01*
X35660693Y-52879167D01*
X35575364Y-52605336D01*
X35571780Y-52590798D01*
X35520076Y-52308659D01*
X35518271Y-52293794D01*
X35506881Y-52105500D01*
X35500726Y-52003736D01*
X35500500Y-51996249D01*
X35500500Y-51893713D01*
X36649500Y-51893713D01*
X36649500Y-52106286D01*
X36681552Y-52308659D01*
X36682754Y-52316243D01*
X36714297Y-52413323D01*
X36748444Y-52518414D01*
X36844951Y-52707820D01*
X36969890Y-52879786D01*
X37120213Y-53030109D01*
X37292179Y-53155048D01*
X37292181Y-53155049D01*
X37292184Y-53155051D01*
X37481588Y-53251557D01*
X37683757Y-53317246D01*
X37893713Y-53350500D01*
X37893714Y-53350500D01*
X38106286Y-53350500D01*
X38106287Y-53350500D01*
X38316243Y-53317246D01*
X38518412Y-53251557D01*
X38707816Y-53155051D01*
X38729789Y-53139086D01*
X38879786Y-53030109D01*
X38879788Y-53030106D01*
X38879792Y-53030104D01*
X39030104Y-52879792D01*
X39030106Y-52879788D01*
X39030109Y-52879786D01*
X39155048Y-52707820D01*
X39155047Y-52707820D01*
X39155051Y-52707816D01*
X39251557Y-52518412D01*
X39317246Y-52316243D01*
X39350500Y-52106287D01*
X39350500Y-51893713D01*
X39317246Y-51683757D01*
X39251557Y-51481588D01*
X39155051Y-51292184D01*
X39155049Y-51292181D01*
X39155048Y-51292179D01*
X39030109Y-51120213D01*
X38879786Y-50969890D01*
X38707820Y-50844951D01*
X38518414Y-50748444D01*
X38518413Y-50748443D01*
X38518412Y-50748443D01*
X38316243Y-50682754D01*
X38316241Y-50682753D01*
X38316240Y-50682753D01*
X38154957Y-50657208D01*
X38106287Y-50649500D01*
X37893713Y-50649500D01*
X37845042Y-50657208D01*
X37683760Y-50682753D01*
X37481585Y-50748444D01*
X37292179Y-50844951D01*
X37120213Y-50969890D01*
X36969890Y-51120213D01*
X36844951Y-51292179D01*
X36748444Y-51481585D01*
X36682753Y-51683760D01*
X36649500Y-51893713D01*
X35500500Y-51893713D01*
X35500500Y-40724000D01*
X40094500Y-40724000D01*
X40094500Y-45876000D01*
X40094501Y-45876009D01*
X40106052Y-45983450D01*
X40106054Y-45983462D01*
X40117260Y-46034972D01*
X40151383Y-46137497D01*
X40151386Y-46137503D01*
X40229171Y-46258537D01*
X40229179Y-46258548D01*
X40274923Y-46311340D01*
X40274926Y-46311343D01*
X40274930Y-46311347D01*
X40383664Y-46405567D01*
X40383667Y-46405568D01*
X40383668Y-46405569D01*
X40497866Y-46457723D01*
X40514541Y-46465338D01*
X40581580Y-46485023D01*
X40581584Y-46485024D01*
X40724000Y-46505500D01*
X40724003Y-46505500D01*
X41093555Y-46505500D01*
X41102297Y-46505424D01*
X41105234Y-46505372D01*
X41106631Y-46505348D01*
X41115340Y-46505121D01*
X41256960Y-46479720D01*
X41323277Y-46457723D01*
X41323283Y-46457721D01*
X41452010Y-46393448D01*
X41576736Y-46307035D01*
X41596045Y-46296078D01*
X41699474Y-46249098D01*
X41720435Y-46241764D01*
X41834047Y-46213137D01*
X41854607Y-46209762D01*
X41899234Y-46206250D01*
X41910275Y-46205382D01*
X41920002Y-46205000D01*
X44279996Y-46205000D01*
X44289724Y-46205382D01*
X44345387Y-46209762D01*
X44365955Y-46213139D01*
X44479556Y-46241764D01*
X44500539Y-46249106D01*
X44603937Y-46296071D01*
X44623266Y-46307038D01*
X44747992Y-46393449D01*
X44755331Y-46398439D01*
X44757150Y-46399653D01*
X44758904Y-46400823D01*
X44758909Y-46400826D01*
X44766149Y-46405567D01*
X44766158Y-46405571D01*
X44880347Y-46457721D01*
X44897026Y-46465338D01*
X44964065Y-46485023D01*
X44964069Y-46485024D01*
X45106485Y-46505500D01*
X49575500Y-46505500D01*
X49642539Y-46525185D01*
X49688294Y-46577989D01*
X49699500Y-46629500D01*
X49699500Y-47925830D01*
X49699499Y-47925848D01*
X49699499Y-48091554D01*
X49699498Y-48091554D01*
X49740424Y-48244289D01*
X49740425Y-48244291D01*
X49741844Y-48246748D01*
X49741848Y-48246753D01*
X49819477Y-48381212D01*
X49819481Y-48381217D01*
X49938349Y-48500085D01*
X49938355Y-48500090D01*
X51363181Y-49924916D01*
X51396666Y-49986239D01*
X51399500Y-50012597D01*
X51399500Y-50386669D01*
X51399501Y-50386687D01*
X51409825Y-50487752D01*
X51442668Y-50586862D01*
X51460312Y-50640110D01*
X51464092Y-50651515D01*
X51464093Y-50651518D01*
X51483359Y-50682753D01*
X51554660Y-50798350D01*
X51676650Y-50920340D01*
X51823484Y-51010908D01*
X51987247Y-51065174D01*
X52088323Y-51075500D01*
X52686676Y-51075499D01*
X52686684Y-51075498D01*
X52686687Y-51075498D01*
X52742030Y-51069844D01*
X52787753Y-51065174D01*
X52951516Y-51010908D01*
X53098350Y-50920340D01*
X53212319Y-50806371D01*
X53216438Y-50804121D01*
X53218984Y-50800178D01*
X53246816Y-50787533D01*
X53273642Y-50772886D01*
X53278322Y-50773220D01*
X53282597Y-50771279D01*
X53312846Y-50775689D01*
X53343334Y-50777870D01*
X53348379Y-50780870D01*
X53351735Y-50781360D01*
X53366630Y-50791724D01*
X53381389Y-50800501D01*
X53384634Y-50803324D01*
X53501650Y-50920340D01*
X53561736Y-50957401D01*
X53569389Y-50964059D01*
X53582967Y-50985280D01*
X53599821Y-51004017D01*
X53602500Y-51015807D01*
X53607046Y-51022912D01*
X53607020Y-51035698D01*
X53612000Y-51057610D01*
X53612000Y-51742388D01*
X53592315Y-51809427D01*
X53553098Y-51847926D01*
X53501650Y-51879659D01*
X53379661Y-52001648D01*
X53289093Y-52148481D01*
X53289092Y-52148484D01*
X53234826Y-52312247D01*
X53234826Y-52312248D01*
X53234825Y-52312248D01*
X53224500Y-52413315D01*
X53224500Y-52986669D01*
X53224501Y-52986687D01*
X53234825Y-53087752D01*
X53261416Y-53167995D01*
X53289092Y-53251516D01*
X53379660Y-53398350D01*
X53501650Y-53520340D01*
X53648484Y-53610908D01*
X53812247Y-53665174D01*
X53913323Y-53675500D01*
X54511676Y-53675499D01*
X54511684Y-53675498D01*
X54511687Y-53675498D01*
X54567030Y-53669844D01*
X54612753Y-53665174D01*
X54776516Y-53610908D01*
X54923350Y-53520340D01*
X55045340Y-53398350D01*
X55069362Y-53359404D01*
X55121310Y-53312679D01*
X55174901Y-53300500D01*
X60893331Y-53300500D01*
X60893347Y-53300501D01*
X60900943Y-53300501D01*
X61059054Y-53300501D01*
X61059057Y-53300501D01*
X61211785Y-53259577D01*
X61261904Y-53230639D01*
X61348716Y-53180520D01*
X61460520Y-53068716D01*
X61460520Y-53068714D01*
X61470728Y-53058507D01*
X61470729Y-53058504D01*
X62387416Y-52141819D01*
X62448739Y-52108334D01*
X62475097Y-52105500D01*
X63265686Y-52105500D01*
X63265694Y-52105500D01*
X63302569Y-52102598D01*
X63302571Y-52102597D01*
X63302573Y-52102597D01*
X63344191Y-52090505D01*
X63460398Y-52056744D01*
X63601865Y-51973081D01*
X63718081Y-51856865D01*
X63801744Y-51715398D01*
X63847598Y-51557569D01*
X63850500Y-51520694D01*
X63850500Y-51229500D01*
X63870185Y-51162461D01*
X63922989Y-51116706D01*
X63974500Y-51105500D01*
X64612272Y-51105500D01*
X64622418Y-51104955D01*
X64666310Y-51102603D01*
X64666318Y-51102602D01*
X64666320Y-51102602D01*
X64666321Y-51102602D01*
X64673314Y-51101849D01*
X64692668Y-51099769D01*
X64692678Y-51099767D01*
X64692681Y-51099767D01*
X64702280Y-51098211D01*
X64746080Y-51091114D01*
X64880889Y-51040832D01*
X64942212Y-51007347D01*
X64942215Y-51007346D01*
X65057397Y-50921120D01*
X65067865Y-50910650D01*
X65074751Y-50905455D01*
X65077238Y-50904516D01*
X65084334Y-50898904D01*
X65108421Y-50884047D01*
X65134499Y-50871887D01*
X65165766Y-50861526D01*
X65192196Y-50855873D01*
X65194515Y-50855636D01*
X65207063Y-50855000D01*
X66192944Y-50855000D01*
X66205485Y-50855636D01*
X66207803Y-50855872D01*
X66234238Y-50861528D01*
X66265489Y-50871884D01*
X66291575Y-50884047D01*
X66315664Y-50898905D01*
X66338244Y-50916760D01*
X66342607Y-50921123D01*
X66342623Y-50921137D01*
X66342630Y-50921144D01*
X66382848Y-50957271D01*
X66382860Y-50957281D01*
X66382868Y-50957288D01*
X66403510Y-50973922D01*
X66447394Y-51005567D01*
X66578271Y-51065338D01*
X66645310Y-51085023D01*
X66645314Y-51085024D01*
X66787730Y-51105500D01*
X72737931Y-51105500D01*
X72804970Y-51125185D01*
X72850725Y-51177989D01*
X72860669Y-51247147D01*
X72846167Y-51287336D01*
X72847161Y-51287843D01*
X72748444Y-51481585D01*
X72682753Y-51683760D01*
X72649500Y-51893713D01*
X72649500Y-52106286D01*
X72681552Y-52308659D01*
X72682754Y-52316243D01*
X72714297Y-52413323D01*
X72748444Y-52518414D01*
X72844951Y-52707820D01*
X72969890Y-52879786D01*
X73120213Y-53030109D01*
X73292179Y-53155048D01*
X73292181Y-53155049D01*
X73292184Y-53155051D01*
X73481588Y-53251557D01*
X73683757Y-53317246D01*
X73893713Y-53350500D01*
X73893714Y-53350500D01*
X74106286Y-53350500D01*
X74106287Y-53350500D01*
X74316243Y-53317246D01*
X74518412Y-53251557D01*
X74707816Y-53155051D01*
X74729789Y-53139086D01*
X74879786Y-53030109D01*
X74879788Y-53030106D01*
X74879792Y-53030104D01*
X75030104Y-52879792D01*
X75030106Y-52879788D01*
X75030109Y-52879786D01*
X75155048Y-52707820D01*
X75155047Y-52707820D01*
X75155051Y-52707816D01*
X75251557Y-52518412D01*
X75317246Y-52316243D01*
X75350500Y-52106287D01*
X75350500Y-51893713D01*
X75317246Y-51683757D01*
X75251557Y-51481588D01*
X75155051Y-51292184D01*
X75155049Y-51292181D01*
X75155048Y-51292179D01*
X75030109Y-51120213D01*
X74879786Y-50969890D01*
X74707820Y-50844951D01*
X74627686Y-50804121D01*
X74547824Y-50763429D01*
X74497029Y-50715456D01*
X74480234Y-50647635D01*
X74484562Y-50621553D01*
X74484414Y-50621524D01*
X74484535Y-50620906D01*
X74484410Y-50620875D01*
X74485022Y-50618422D01*
X74485023Y-50618420D01*
X74485024Y-50618416D01*
X74505500Y-50476000D01*
X74505500Y-40524000D01*
X74493947Y-40416544D01*
X74482741Y-40365033D01*
X74474892Y-40341451D01*
X74448616Y-40262502D01*
X74448613Y-40262496D01*
X74370828Y-40141462D01*
X74370825Y-40141457D01*
X74364937Y-40134662D01*
X74325076Y-40088659D01*
X74325072Y-40088656D01*
X74325070Y-40088653D01*
X74216336Y-39994433D01*
X74216333Y-39994431D01*
X74216331Y-39994430D01*
X74085465Y-39934664D01*
X74085460Y-39934662D01*
X74085459Y-39934662D01*
X74018420Y-39914977D01*
X74018422Y-39914977D01*
X74018417Y-39914976D01*
X73956347Y-39906052D01*
X73876000Y-39894500D01*
X68324000Y-39894500D01*
X68323991Y-39894500D01*
X68323990Y-39894501D01*
X68216549Y-39906052D01*
X68216537Y-39906054D01*
X68165027Y-39917260D01*
X68062502Y-39951383D01*
X68062496Y-39951386D01*
X67941462Y-40029171D01*
X67941451Y-40029179D01*
X67888659Y-40074923D01*
X67794433Y-40183664D01*
X67794430Y-40183668D01*
X67734664Y-40314534D01*
X67714976Y-40381582D01*
X67709949Y-40416549D01*
X67694502Y-40523990D01*
X67694500Y-40524001D01*
X67694500Y-41639115D01*
X67674815Y-41706154D01*
X67622011Y-41751909D01*
X67552853Y-41761853D01*
X67489297Y-41732828D01*
X67451523Y-41674050D01*
X67450546Y-41670532D01*
X67320475Y-41173897D01*
X66113255Y-36564510D01*
X66100422Y-36522910D01*
X66093262Y-36502816D01*
X66076907Y-36462496D01*
X66031306Y-36391540D01*
X66011621Y-36324501D01*
X66031305Y-36257461D01*
X66084109Y-36211706D01*
X66135621Y-36200500D01*
X66294486Y-36200500D01*
X66481118Y-36170940D01*
X66660832Y-36112547D01*
X66829199Y-36026760D01*
X66982073Y-35915690D01*
X67115690Y-35782073D01*
X67226760Y-35629199D01*
X67312547Y-35460832D01*
X67370940Y-35281118D01*
X67371633Y-35276744D01*
X67400500Y-35094486D01*
X67400500Y-34905513D01*
X67370940Y-34718881D01*
X67312545Y-34539163D01*
X67262234Y-34440423D01*
X67226760Y-34370801D01*
X67115690Y-34217927D01*
X66985444Y-34087681D01*
X66951959Y-34026358D01*
X66956943Y-33956666D01*
X66985444Y-33912319D01*
X67008705Y-33889058D01*
X67115690Y-33782073D01*
X67226760Y-33629199D01*
X67312547Y-33460832D01*
X67370940Y-33281118D01*
X67372352Y-33272200D01*
X67400500Y-33094486D01*
X67400500Y-32905513D01*
X67370940Y-32718881D01*
X67334560Y-32606917D01*
X67312547Y-32539168D01*
X67312545Y-32539165D01*
X67312545Y-32539163D01*
X67233779Y-32384577D01*
X67226760Y-32370801D01*
X67115690Y-32217927D01*
X66982073Y-32084310D01*
X66829199Y-31973240D01*
X66660836Y-31887454D01*
X66481118Y-31829059D01*
X66294486Y-31799500D01*
X66294481Y-31799500D01*
X66105519Y-31799500D01*
X66105514Y-31799500D01*
X65918881Y-31829059D01*
X65739163Y-31887454D01*
X65570800Y-31973240D01*
X65494971Y-32028334D01*
X65417927Y-32084310D01*
X65417925Y-32084312D01*
X65417924Y-32084312D01*
X65284312Y-32217924D01*
X65284312Y-32217925D01*
X65284310Y-32217927D01*
X65271618Y-32235396D01*
X65173240Y-32370800D01*
X65087454Y-32539163D01*
X65029059Y-32718881D01*
X64999500Y-32905513D01*
X64999500Y-33094486D01*
X65029059Y-33281118D01*
X65087454Y-33460836D01*
X65121459Y-33527573D01*
X65173240Y-33629199D01*
X65284310Y-33782073D01*
X65284312Y-33782075D01*
X65414556Y-33912319D01*
X65448041Y-33973642D01*
X65443057Y-34043334D01*
X65414556Y-34087681D01*
X65284312Y-34217924D01*
X65284312Y-34217925D01*
X65284310Y-34217927D01*
X65244710Y-34272432D01*
X65189526Y-34348386D01*
X65134196Y-34391051D01*
X65089208Y-34399500D01*
X64486669Y-34399500D01*
X64486653Y-34399499D01*
X64479057Y-34399499D01*
X64320943Y-34399499D01*
X64241010Y-34420917D01*
X64168216Y-34440422D01*
X64138050Y-34457839D01*
X64138049Y-34457838D01*
X64031287Y-34519477D01*
X64031282Y-34519481D01*
X62519481Y-36031282D01*
X62519480Y-36031284D01*
X62518779Y-36032497D01*
X62517920Y-36033316D01*
X62514530Y-36037735D01*
X62513841Y-36037206D01*
X62468216Y-36080713D01*
X62411391Y-36094500D01*
X61724000Y-36094500D01*
X61723991Y-36094500D01*
X61723990Y-36094501D01*
X61616549Y-36106052D01*
X61616537Y-36106054D01*
X61565027Y-36117260D01*
X61462502Y-36151383D01*
X61462496Y-36151386D01*
X61341462Y-36229171D01*
X61341451Y-36229179D01*
X61288659Y-36274923D01*
X61194433Y-36383664D01*
X61194430Y-36383668D01*
X61134664Y-36514534D01*
X61114976Y-36581582D01*
X61109949Y-36616549D01*
X61094500Y-36724000D01*
X61094500Y-44876000D01*
X61094501Y-44876009D01*
X61106052Y-44983450D01*
X61106054Y-44983462D01*
X61117260Y-45034972D01*
X61151383Y-45137497D01*
X61151386Y-45137503D01*
X61229171Y-45258537D01*
X61229179Y-45258548D01*
X61274923Y-45311340D01*
X61274926Y-45311343D01*
X61274930Y-45311347D01*
X61383664Y-45405567D01*
X61514541Y-45465338D01*
X61581580Y-45485023D01*
X61581584Y-45485024D01*
X61724000Y-45505500D01*
X63215901Y-45505500D01*
X63282940Y-45525185D01*
X63328695Y-45577989D01*
X63338639Y-45647147D01*
X63309614Y-45710703D01*
X63303582Y-45717181D01*
X62362584Y-46658181D01*
X62301261Y-46691666D01*
X62274903Y-46694500D01*
X61484298Y-46694500D01*
X61447432Y-46697401D01*
X61447426Y-46697402D01*
X61289606Y-46743254D01*
X61289603Y-46743255D01*
X61148137Y-46826917D01*
X61148129Y-46826923D01*
X61031923Y-46943129D01*
X61031917Y-46943137D01*
X60948255Y-47084603D01*
X60948254Y-47084606D01*
X60902402Y-47242426D01*
X60902401Y-47242432D01*
X60899500Y-47279298D01*
X60899500Y-47710701D01*
X60902401Y-47747567D01*
X60902402Y-47747573D01*
X60921446Y-47813120D01*
X60921247Y-47882989D01*
X60891329Y-47933255D01*
X60891553Y-47933449D01*
X60890471Y-47934696D01*
X60890061Y-47935387D01*
X60888655Y-47936792D01*
X60794433Y-48045529D01*
X60794430Y-48045533D01*
X60734664Y-48176399D01*
X60714976Y-48243447D01*
X60714501Y-48246753D01*
X60695169Y-48381216D01*
X60694500Y-48385866D01*
X60694500Y-49144135D01*
X60695736Y-49179460D01*
X60696949Y-49196774D01*
X60700652Y-49231932D01*
X60700652Y-49231934D01*
X60700653Y-49231936D01*
X60715563Y-49283256D01*
X60740796Y-49370110D01*
X60769635Y-49433740D01*
X60779339Y-49448935D01*
X60781814Y-49457457D01*
X60787625Y-49464163D01*
X60791410Y-49490491D01*
X60798829Y-49516031D01*
X60796566Y-49526358D01*
X60797568Y-49533321D01*
X60787624Y-49567186D01*
X60759961Y-49627758D01*
X60759133Y-49629533D01*
X60738005Y-49673924D01*
X60737972Y-49674011D01*
X60736023Y-49680172D01*
X60734663Y-49683152D01*
X60729227Y-49701662D01*
X60728849Y-49702859D01*
X60728833Y-49702882D01*
X60726370Y-49711292D01*
X60725781Y-49713244D01*
X60722554Y-49723625D01*
X60722497Y-49723915D01*
X60717209Y-49740962D01*
X60716204Y-49745264D01*
X60715991Y-49745214D01*
X60715762Y-49746220D01*
X60715812Y-49746231D01*
X60714873Y-49750553D01*
X60707905Y-49799131D01*
X60707612Y-49801070D01*
X60694578Y-49882716D01*
X60694471Y-49889525D01*
X60694500Y-49889977D01*
X60694500Y-50414135D01*
X60695736Y-50449460D01*
X60696949Y-50466774D01*
X60700652Y-50501932D01*
X60700652Y-50501934D01*
X60700653Y-50501936D01*
X60734495Y-50618422D01*
X60740796Y-50640110D01*
X60769638Y-50703746D01*
X60769639Y-50703747D01*
X60847074Y-50825002D01*
X60847077Y-50825005D01*
X60884248Y-50857401D01*
X60921854Y-50916288D01*
X60921854Y-50985474D01*
X60902403Y-51052428D01*
X60902401Y-51052436D01*
X60899500Y-51089298D01*
X60899500Y-51520701D01*
X60902401Y-51557567D01*
X60902402Y-51557573D01*
X60948254Y-51715394D01*
X60948256Y-51715400D01*
X60961396Y-51737618D01*
X60968396Y-51765213D01*
X60978347Y-51791891D01*
X60976877Y-51798644D01*
X60978577Y-51805342D01*
X60969548Y-51832338D01*
X60963496Y-51860164D01*
X60957616Y-51868018D01*
X60956417Y-51871605D01*
X60942345Y-51888419D01*
X60767582Y-52063182D01*
X60706262Y-52096666D01*
X60679903Y-52099500D01*
X55174901Y-52099500D01*
X55107862Y-52079815D01*
X55069362Y-52040596D01*
X55045340Y-52001650D01*
X54923349Y-51879659D01*
X54871902Y-51847926D01*
X54825178Y-51795978D01*
X54813000Y-51742388D01*
X54813000Y-51057610D01*
X54832685Y-50990571D01*
X54871901Y-50952073D01*
X54923350Y-50920340D01*
X55045340Y-50798350D01*
X55135908Y-50651516D01*
X55190174Y-50487753D01*
X55200500Y-50386677D01*
X55200499Y-49813324D01*
X55197343Y-49782432D01*
X55190174Y-49712247D01*
X55190173Y-49712243D01*
X55188557Y-49707367D01*
X55186152Y-49637539D01*
X55221881Y-49577496D01*
X55284400Y-49546300D01*
X55353860Y-49553857D01*
X55393942Y-49580677D01*
X55913181Y-50099916D01*
X55946666Y-50161239D01*
X55949500Y-50187597D01*
X55949500Y-50250701D01*
X55952401Y-50287567D01*
X55952402Y-50287573D01*
X55998254Y-50445393D01*
X55998255Y-50445396D01*
X55998256Y-50445398D01*
X56010894Y-50466767D01*
X56081917Y-50586862D01*
X56081923Y-50586870D01*
X56198129Y-50703076D01*
X56198133Y-50703079D01*
X56198135Y-50703081D01*
X56339602Y-50786744D01*
X56342318Y-50787533D01*
X56497426Y-50832597D01*
X56497429Y-50832597D01*
X56497431Y-50832598D01*
X56534306Y-50835500D01*
X56534314Y-50835500D01*
X58315686Y-50835500D01*
X58315694Y-50835500D01*
X58352569Y-50832598D01*
X58352571Y-50832597D01*
X58352573Y-50832597D01*
X58394191Y-50820505D01*
X58510398Y-50786744D01*
X58651865Y-50703081D01*
X58768081Y-50586865D01*
X58851744Y-50445398D01*
X58897598Y-50287569D01*
X58900500Y-50250694D01*
X58900500Y-49819306D01*
X58897598Y-49782431D01*
X58888336Y-49750553D01*
X58863836Y-49666224D01*
X58851744Y-49624602D01*
X58768081Y-49483135D01*
X58768079Y-49483133D01*
X58768076Y-49483129D01*
X58651870Y-49366923D01*
X58651862Y-49366917D01*
X58510396Y-49283255D01*
X58510393Y-49283254D01*
X58352573Y-49237402D01*
X58352567Y-49237401D01*
X58315701Y-49234500D01*
X58315694Y-49234500D01*
X56797597Y-49234500D01*
X56730558Y-49214815D01*
X56709916Y-49198181D01*
X56228916Y-48717181D01*
X56195431Y-48655858D01*
X56200415Y-48586166D01*
X56242287Y-48530233D01*
X56307751Y-48505816D01*
X56316597Y-48505500D01*
X56367584Y-48505500D01*
X56377587Y-48504791D01*
X56438815Y-48500456D01*
X56438827Y-48500454D01*
X56438831Y-48500454D01*
X56473382Y-48495536D01*
X56473385Y-48495535D01*
X56473409Y-48495532D01*
X56543209Y-48480504D01*
X56551337Y-48478142D01*
X56562416Y-48474924D01*
X56597012Y-48470000D01*
X58252991Y-48470000D01*
X58287585Y-48474923D01*
X58300370Y-48478638D01*
X58300390Y-48478643D01*
X58334621Y-48487304D01*
X58334643Y-48487308D01*
X58334644Y-48487309D01*
X58351592Y-48490971D01*
X58386417Y-48497228D01*
X58530297Y-48497227D01*
X58599455Y-48487283D01*
X58737504Y-48446748D01*
X58858543Y-48368960D01*
X58911347Y-48323205D01*
X59005567Y-48214471D01*
X59065338Y-48083594D01*
X59085023Y-48016555D01*
X59085024Y-48016551D01*
X59105500Y-47874135D01*
X59105500Y-36724000D01*
X59093947Y-36616544D01*
X59082741Y-36565033D01*
X59068719Y-36522904D01*
X59048616Y-36462502D01*
X59048613Y-36462496D01*
X58997950Y-36383664D01*
X58970825Y-36341457D01*
X58970820Y-36341451D01*
X58925076Y-36288659D01*
X58925072Y-36288656D01*
X58925070Y-36288653D01*
X58816336Y-36194433D01*
X58816333Y-36194431D01*
X58816331Y-36194430D01*
X58685465Y-36134664D01*
X58685460Y-36134662D01*
X58685459Y-36134662D01*
X58618420Y-36114977D01*
X58618422Y-36114977D01*
X58618417Y-36114976D01*
X58615169Y-36114509D01*
X58551615Y-36085480D01*
X58513845Y-36026699D01*
X58513849Y-35956830D01*
X58545141Y-35904093D01*
X60239169Y-34210064D01*
X60300490Y-34176581D01*
X60346246Y-34175274D01*
X60505514Y-34200500D01*
X60505519Y-34200500D01*
X60694486Y-34200500D01*
X60881118Y-34170940D01*
X60911753Y-34160986D01*
X61060832Y-34112547D01*
X61229199Y-34026760D01*
X61382073Y-33915690D01*
X61512319Y-33785444D01*
X61573642Y-33751959D01*
X61643334Y-33756943D01*
X61687681Y-33785444D01*
X61817927Y-33915690D01*
X61970801Y-34026760D01*
X62050347Y-34067290D01*
X62139163Y-34112545D01*
X62139165Y-34112545D01*
X62139168Y-34112547D01*
X62235497Y-34143846D01*
X62318881Y-34170940D01*
X62505514Y-34200500D01*
X62505519Y-34200500D01*
X62694486Y-34200500D01*
X62881118Y-34170940D01*
X62911753Y-34160986D01*
X63060832Y-34112547D01*
X63229199Y-34026760D01*
X63382073Y-33915690D01*
X63515690Y-33782073D01*
X63626760Y-33629199D01*
X63712547Y-33460832D01*
X63770940Y-33281118D01*
X63772352Y-33272200D01*
X63800500Y-33094486D01*
X63800500Y-32905513D01*
X63770940Y-32718881D01*
X63734560Y-32606917D01*
X63712547Y-32539168D01*
X63712545Y-32539165D01*
X63712545Y-32539163D01*
X63633779Y-32384577D01*
X63626760Y-32370801D01*
X63515690Y-32217927D01*
X63382073Y-32084310D01*
X63229199Y-31973240D01*
X63060836Y-31887454D01*
X62881118Y-31829059D01*
X62694486Y-31799500D01*
X62694481Y-31799500D01*
X62505519Y-31799500D01*
X62505514Y-31799500D01*
X62318881Y-31829059D01*
X62139163Y-31887454D01*
X61970800Y-31973240D01*
X61894971Y-32028334D01*
X61817927Y-32084310D01*
X61817925Y-32084312D01*
X61817924Y-32084312D01*
X61687681Y-32214556D01*
X61626358Y-32248041D01*
X61556666Y-32243057D01*
X61512319Y-32214556D01*
X61382075Y-32084312D01*
X61382073Y-32084310D01*
X61229199Y-31973240D01*
X61060836Y-31887454D01*
X60881118Y-31829059D01*
X60694486Y-31799500D01*
X60694481Y-31799500D01*
X60505519Y-31799500D01*
X60505514Y-31799500D01*
X60318881Y-31829059D01*
X60139163Y-31887454D01*
X59970800Y-31973240D01*
X59894971Y-32028334D01*
X59817927Y-32084310D01*
X59817925Y-32084312D01*
X59817924Y-32084312D01*
X59684312Y-32217924D01*
X59684312Y-32217925D01*
X59684310Y-32217927D01*
X59671618Y-32235396D01*
X59573240Y-32370800D01*
X59487454Y-32539163D01*
X59429059Y-32718881D01*
X59399500Y-32905513D01*
X59399500Y-33094486D01*
X59424725Y-33253751D01*
X59415770Y-33323045D01*
X59389933Y-33360830D01*
X56692584Y-36058181D01*
X56631261Y-36091666D01*
X56604903Y-36094500D01*
X55679489Y-36094500D01*
X55659177Y-36097408D01*
X55537631Y-36114812D01*
X55470829Y-36134344D01*
X55340370Y-36193652D01*
X55340369Y-36193652D01*
X55231420Y-36287620D01*
X55231418Y-36287622D01*
X55181727Y-36344704D01*
X55178269Y-36351583D01*
X55107475Y-36461187D01*
X52942176Y-41173897D01*
X52896300Y-41226596D01*
X52829216Y-41246127D01*
X52762221Y-41226288D01*
X52716588Y-41173380D01*
X52705500Y-41122127D01*
X52705500Y-40724010D01*
X52705500Y-40724000D01*
X52693947Y-40616544D01*
X52682741Y-40565033D01*
X52669084Y-40524000D01*
X52648616Y-40462502D01*
X52648613Y-40462496D01*
X52619081Y-40416544D01*
X52570825Y-40341457D01*
X52570820Y-40341451D01*
X52525076Y-40288659D01*
X52525072Y-40288656D01*
X52525070Y-40288653D01*
X52416336Y-40194433D01*
X52416333Y-40194431D01*
X52416331Y-40194430D01*
X52285465Y-40134664D01*
X52285460Y-40134662D01*
X52285459Y-40134662D01*
X52218420Y-40114977D01*
X52218422Y-40114977D01*
X52218417Y-40114976D01*
X52156347Y-40106052D01*
X52076000Y-40094500D01*
X40724000Y-40094500D01*
X40723991Y-40094500D01*
X40723990Y-40094501D01*
X40616549Y-40106052D01*
X40616537Y-40106054D01*
X40565027Y-40117260D01*
X40462502Y-40151383D01*
X40462496Y-40151386D01*
X40341462Y-40229171D01*
X40341451Y-40229179D01*
X40288659Y-40274923D01*
X40194433Y-40383664D01*
X40194430Y-40383668D01*
X40134664Y-40514534D01*
X40114976Y-40581582D01*
X40109949Y-40616549D01*
X40094500Y-40724000D01*
X35500500Y-40724000D01*
X35500500Y-36074983D01*
X39674500Y-36074983D01*
X39674500Y-36675001D01*
X39674501Y-36675019D01*
X39685000Y-36777796D01*
X39685001Y-36777799D01*
X39740185Y-36944331D01*
X39740186Y-36944334D01*
X39832288Y-37093656D01*
X39956344Y-37217712D01*
X40105666Y-37309814D01*
X40272203Y-37364999D01*
X40374991Y-37375500D01*
X42775008Y-37375499D01*
X42877797Y-37364999D01*
X43044334Y-37309814D01*
X43193656Y-37217712D01*
X43317712Y-37093656D01*
X43409814Y-36944334D01*
X43464999Y-36777797D01*
X43475500Y-36675009D01*
X43475499Y-36074992D01*
X43474976Y-36069876D01*
X43464999Y-35972203D01*
X43464998Y-35972200D01*
X43447528Y-35919480D01*
X43409814Y-35805666D01*
X43317712Y-35656344D01*
X43193656Y-35532288D01*
X43044334Y-35440186D01*
X42877797Y-35385001D01*
X42877795Y-35385000D01*
X42775010Y-35374500D01*
X40374998Y-35374500D01*
X40374981Y-35374501D01*
X40272203Y-35385000D01*
X40272200Y-35385001D01*
X40105668Y-35440185D01*
X40105663Y-35440187D01*
X39956342Y-35532289D01*
X39832289Y-35656342D01*
X39740187Y-35805663D01*
X39740186Y-35805666D01*
X39685001Y-35972203D01*
X39685001Y-35972204D01*
X39685000Y-35972204D01*
X39674500Y-36074983D01*
X35500500Y-36074983D01*
X35500500Y-33059298D01*
X43574500Y-33059298D01*
X43574500Y-33490701D01*
X43577401Y-33527567D01*
X43577402Y-33527573D01*
X43623254Y-33685393D01*
X43623255Y-33685396D01*
X43710890Y-33833580D01*
X43708919Y-33834745D01*
X43730232Y-33889058D01*
X43716540Y-33957573D01*
X43710864Y-33966404D01*
X43710890Y-33966420D01*
X43623255Y-34114603D01*
X43623254Y-34114606D01*
X43577402Y-34272426D01*
X43577401Y-34272432D01*
X43574500Y-34309298D01*
X43574500Y-34740701D01*
X43577401Y-34777567D01*
X43577402Y-34777573D01*
X43623254Y-34935393D01*
X43623255Y-34935396D01*
X43706917Y-35076862D01*
X43706923Y-35076870D01*
X43823129Y-35193076D01*
X43823133Y-35193079D01*
X43823135Y-35193081D01*
X43964602Y-35276744D01*
X44006224Y-35288836D01*
X44122426Y-35322597D01*
X44122429Y-35322597D01*
X44122431Y-35322598D01*
X44159306Y-35325500D01*
X44159314Y-35325500D01*
X45690686Y-35325500D01*
X45690694Y-35325500D01*
X45727569Y-35322598D01*
X45727571Y-35322597D01*
X45727573Y-35322597D01*
X45769191Y-35310505D01*
X45885398Y-35276744D01*
X46026865Y-35193081D01*
X46058125Y-35161821D01*
X46119447Y-35128335D01*
X46145807Y-35125501D01*
X46279055Y-35125501D01*
X46279058Y-35125501D01*
X46431786Y-35084577D01*
X46481905Y-35055639D01*
X46568717Y-35005520D01*
X46680521Y-34893716D01*
X46680522Y-34893713D01*
X46812418Y-34761818D01*
X46873742Y-34728334D01*
X46900099Y-34725500D01*
X48806529Y-34725500D01*
X48806545Y-34725501D01*
X48814141Y-34725501D01*
X48972252Y-34725501D01*
X48972255Y-34725501D01*
X49124983Y-34684577D01*
X49175102Y-34655639D01*
X49261914Y-34605520D01*
X49373718Y-34493716D01*
X49373718Y-34493714D01*
X49383926Y-34483507D01*
X49383927Y-34483504D01*
X50492449Y-33374983D01*
X51599500Y-33374983D01*
X51599500Y-33975001D01*
X51599501Y-33975019D01*
X51610000Y-34077796D01*
X51610001Y-34077799D01*
X51665185Y-34244331D01*
X51665186Y-34244334D01*
X51757288Y-34393656D01*
X51881344Y-34517712D01*
X52030666Y-34609814D01*
X52197203Y-34664999D01*
X52299991Y-34675500D01*
X54700008Y-34675499D01*
X54802797Y-34664999D01*
X54969334Y-34609814D01*
X55118656Y-34517712D01*
X55242712Y-34393656D01*
X55334814Y-34244334D01*
X55389999Y-34077797D01*
X55400500Y-33975009D01*
X55400499Y-33374992D01*
X55399052Y-33360830D01*
X55389999Y-33272203D01*
X55389998Y-33272200D01*
X55383885Y-33253751D01*
X55334814Y-33105666D01*
X55242712Y-32956344D01*
X55118656Y-32832288D01*
X54969334Y-32740186D01*
X54802797Y-32685001D01*
X54802795Y-32685000D01*
X54700010Y-32674500D01*
X52299998Y-32674500D01*
X52299981Y-32674501D01*
X52197203Y-32685000D01*
X52197200Y-32685001D01*
X52030668Y-32740185D01*
X52030663Y-32740187D01*
X51881342Y-32832289D01*
X51757289Y-32956342D01*
X51665187Y-33105663D01*
X51665186Y-33105666D01*
X51610001Y-33272203D01*
X51610001Y-33272204D01*
X51610000Y-33272204D01*
X51599500Y-33374983D01*
X50492449Y-33374983D01*
X51805615Y-32061819D01*
X51866938Y-32028334D01*
X51893296Y-32025500D01*
X54874902Y-32025500D01*
X54904342Y-32034144D01*
X54934329Y-32040668D01*
X54939344Y-32044422D01*
X54941941Y-32045185D01*
X54962583Y-32061819D01*
X55090138Y-32189374D01*
X55090148Y-32189385D01*
X55094478Y-32193715D01*
X55094479Y-32193716D01*
X55206283Y-32305520D01*
X55206285Y-32305521D01*
X55206289Y-32305524D01*
X55319352Y-32370800D01*
X55343215Y-32384577D01*
X55455018Y-32414534D01*
X55495941Y-32425500D01*
X55495942Y-32425500D01*
X55633752Y-32425500D01*
X55638300Y-32425835D01*
X55666911Y-32436575D01*
X55696231Y-32445185D01*
X55701800Y-32449672D01*
X55703713Y-32450391D01*
X55705249Y-32452452D01*
X55716874Y-32461820D01*
X55748129Y-32493076D01*
X55748133Y-32493079D01*
X55748135Y-32493081D01*
X55889602Y-32576744D01*
X55931224Y-32588836D01*
X56047426Y-32622597D01*
X56047429Y-32622597D01*
X56047431Y-32622598D01*
X56084306Y-32625500D01*
X56084314Y-32625500D01*
X57615686Y-32625500D01*
X57615694Y-32625500D01*
X57652569Y-32622598D01*
X57652571Y-32622597D01*
X57652573Y-32622597D01*
X57706543Y-32606917D01*
X57810398Y-32576744D01*
X57951865Y-32493081D01*
X58068081Y-32376865D01*
X58151744Y-32235398D01*
X58197598Y-32077569D01*
X58200500Y-32040694D01*
X58200500Y-31609306D01*
X58197598Y-31572431D01*
X58151744Y-31414602D01*
X58068081Y-31273135D01*
X58064110Y-31266420D01*
X58066083Y-31265252D01*
X58044769Y-31210965D01*
X58058448Y-31142447D01*
X58064136Y-31133595D01*
X58064110Y-31133580D01*
X58078026Y-31110048D01*
X58151744Y-30985398D01*
X58197598Y-30827569D01*
X58200500Y-30790694D01*
X58200500Y-30359306D01*
X58197598Y-30322431D01*
X58151744Y-30164602D01*
X58068081Y-30023135D01*
X58068079Y-30023133D01*
X58068076Y-30023129D01*
X57951870Y-29906923D01*
X57951862Y-29906917D01*
X57810396Y-29823255D01*
X57810393Y-29823254D01*
X57652573Y-29777402D01*
X57652567Y-29777401D01*
X57615701Y-29774500D01*
X57615694Y-29774500D01*
X56084306Y-29774500D01*
X56084298Y-29774500D01*
X56047432Y-29777401D01*
X56047426Y-29777402D01*
X55889606Y-29823254D01*
X55889603Y-29823255D01*
X55748137Y-29906917D01*
X55748129Y-29906923D01*
X55716874Y-29938180D01*
X55655552Y-29971666D01*
X55629192Y-29974500D01*
X55495939Y-29974500D01*
X55455018Y-29985464D01*
X55455018Y-29985465D01*
X55417750Y-29995451D01*
X55343213Y-30015423D01*
X55343208Y-30015426D01*
X55206289Y-30094475D01*
X55206281Y-30094481D01*
X54962582Y-30338181D01*
X54901259Y-30371666D01*
X54874901Y-30374500D01*
X51493472Y-30374500D01*
X51493456Y-30374499D01*
X51485860Y-30374499D01*
X51327745Y-30374499D01*
X51251381Y-30394961D01*
X51175016Y-30415423D01*
X51175011Y-30415426D01*
X51038092Y-30494475D01*
X51038084Y-30494481D01*
X48494386Y-33038181D01*
X48433063Y-33071666D01*
X48406705Y-33074500D01*
X46900098Y-33074500D01*
X46870657Y-33065855D01*
X46840671Y-33059332D01*
X46835655Y-33055577D01*
X46833059Y-33054815D01*
X46812417Y-33038181D01*
X46687591Y-32913355D01*
X46687589Y-32913352D01*
X46568718Y-32794481D01*
X46568710Y-32794475D01*
X46445144Y-32723135D01*
X46445141Y-32723134D01*
X46445132Y-32723129D01*
X46431786Y-32715423D01*
X46279058Y-32674499D01*
X46145807Y-32674499D01*
X46078768Y-32654814D01*
X46058125Y-32638179D01*
X46026870Y-32606923D01*
X46026862Y-32606917D01*
X45885396Y-32523255D01*
X45885393Y-32523254D01*
X45727573Y-32477402D01*
X45727567Y-32477401D01*
X45690701Y-32474500D01*
X45690694Y-32474500D01*
X44159306Y-32474500D01*
X44159298Y-32474500D01*
X44122432Y-32477401D01*
X44122426Y-32477402D01*
X43964606Y-32523254D01*
X43964603Y-32523255D01*
X43823137Y-32606917D01*
X43823129Y-32606923D01*
X43706923Y-32723129D01*
X43706919Y-32723135D01*
X43623255Y-32864603D01*
X43623254Y-32864606D01*
X43577402Y-33022426D01*
X43577401Y-33022432D01*
X43574500Y-33059298D01*
X35500500Y-33059298D01*
X35500500Y-31124983D01*
X39674500Y-31124983D01*
X39674500Y-31725001D01*
X39674501Y-31725019D01*
X39685000Y-31827796D01*
X39685001Y-31827799D01*
X39704769Y-31887453D01*
X39740186Y-31994334D01*
X39832288Y-32143656D01*
X39956344Y-32267712D01*
X40105666Y-32359814D01*
X40272203Y-32414999D01*
X40374991Y-32425500D01*
X42775008Y-32425499D01*
X42877797Y-32414999D01*
X43044334Y-32359814D01*
X43193656Y-32267712D01*
X43317712Y-32143656D01*
X43409814Y-31994334D01*
X43464999Y-31827797D01*
X43475500Y-31725009D01*
X43475499Y-31124992D01*
X43464999Y-31022203D01*
X43409814Y-30855666D01*
X43317712Y-30706344D01*
X43193656Y-30582288D01*
X43100888Y-30525069D01*
X43044336Y-30490187D01*
X43044331Y-30490185D01*
X43042862Y-30489698D01*
X42877797Y-30435001D01*
X42877795Y-30435000D01*
X42775010Y-30424500D01*
X40374998Y-30424500D01*
X40374981Y-30424501D01*
X40272203Y-30435000D01*
X40272200Y-30435001D01*
X40105668Y-30490185D01*
X40105663Y-30490187D01*
X39956342Y-30582289D01*
X39832289Y-30706342D01*
X39740187Y-30855663D01*
X39740186Y-30855666D01*
X39685001Y-31022203D01*
X39685001Y-31022204D01*
X39685000Y-31022204D01*
X39674500Y-31124983D01*
X35500500Y-31124983D01*
X35500500Y-28003750D01*
X35500726Y-27996263D01*
X35506929Y-27893713D01*
X36649500Y-27893713D01*
X36649500Y-28106287D01*
X36682754Y-28316243D01*
X36704612Y-28383516D01*
X36748444Y-28518414D01*
X36844951Y-28707820D01*
X36969890Y-28879786D01*
X37120213Y-29030109D01*
X37292179Y-29155048D01*
X37292181Y-29155049D01*
X37292184Y-29155051D01*
X37481588Y-29251557D01*
X37683757Y-29317246D01*
X37893713Y-29350500D01*
X37893714Y-29350500D01*
X38106286Y-29350500D01*
X38106287Y-29350500D01*
X38316243Y-29317246D01*
X38518412Y-29251557D01*
X38707816Y-29155051D01*
X38729789Y-29139086D01*
X38879786Y-29030109D01*
X38879788Y-29030106D01*
X38879792Y-29030104D01*
X39030104Y-28879792D01*
X39030106Y-28879788D01*
X39030109Y-28879786D01*
X39155048Y-28707820D01*
X39155047Y-28707820D01*
X39155051Y-28707816D01*
X39251557Y-28518412D01*
X39281914Y-28424983D01*
X51599500Y-28424983D01*
X51599500Y-29025001D01*
X51599501Y-29025019D01*
X51610000Y-29127796D01*
X51610001Y-29127799D01*
X51619031Y-29155048D01*
X51665186Y-29294334D01*
X51757288Y-29443656D01*
X51881344Y-29567712D01*
X52030666Y-29659814D01*
X52197203Y-29714999D01*
X52299991Y-29725500D01*
X54700008Y-29725499D01*
X54802797Y-29714999D01*
X54969334Y-29659814D01*
X55118656Y-29567712D01*
X55242712Y-29443656D01*
X55334814Y-29294334D01*
X55389999Y-29127797D01*
X55400500Y-29025009D01*
X55400499Y-28424992D01*
X55389999Y-28322203D01*
X55334814Y-28155666D01*
X55242712Y-28006344D01*
X55130081Y-27893713D01*
X72649500Y-27893713D01*
X72649500Y-28106287D01*
X72682754Y-28316243D01*
X72704612Y-28383516D01*
X72748444Y-28518414D01*
X72844951Y-28707820D01*
X72969890Y-28879786D01*
X73120213Y-29030109D01*
X73292179Y-29155048D01*
X73292181Y-29155049D01*
X73292184Y-29155051D01*
X73481588Y-29251557D01*
X73683757Y-29317246D01*
X73893713Y-29350500D01*
X73893714Y-29350500D01*
X74106286Y-29350500D01*
X74106287Y-29350500D01*
X74316243Y-29317246D01*
X74518412Y-29251557D01*
X74707816Y-29155051D01*
X74729789Y-29139086D01*
X74879786Y-29030109D01*
X74879788Y-29030106D01*
X74879792Y-29030104D01*
X75030104Y-28879792D01*
X75030106Y-28879788D01*
X75030109Y-28879786D01*
X75155048Y-28707820D01*
X75155047Y-28707820D01*
X75155051Y-28707816D01*
X75251557Y-28518412D01*
X75317246Y-28316243D01*
X75350500Y-28106287D01*
X75350500Y-27893713D01*
X75317246Y-27683757D01*
X75251557Y-27481588D01*
X75155051Y-27292184D01*
X75155049Y-27292181D01*
X75155048Y-27292179D01*
X75030109Y-27120213D01*
X74879786Y-26969890D01*
X74707820Y-26844951D01*
X74518414Y-26748444D01*
X74518413Y-26748443D01*
X74518412Y-26748443D01*
X74316243Y-26682754D01*
X74316241Y-26682753D01*
X74316240Y-26682753D01*
X74154957Y-26657208D01*
X74106287Y-26649500D01*
X73893713Y-26649500D01*
X73845042Y-26657208D01*
X73683760Y-26682753D01*
X73481585Y-26748444D01*
X73292179Y-26844951D01*
X73120213Y-26969890D01*
X72969890Y-27120213D01*
X72844951Y-27292179D01*
X72748444Y-27481585D01*
X72682753Y-27683760D01*
X72665897Y-27790185D01*
X72649500Y-27893713D01*
X55130081Y-27893713D01*
X55118656Y-27882288D01*
X54969334Y-27790186D01*
X54802797Y-27735001D01*
X54802795Y-27735000D01*
X54700010Y-27724500D01*
X52299998Y-27724500D01*
X52299981Y-27724501D01*
X52197203Y-27735000D01*
X52197200Y-27735001D01*
X52030668Y-27790185D01*
X52030663Y-27790187D01*
X51881342Y-27882289D01*
X51757289Y-28006342D01*
X51665187Y-28155663D01*
X51665186Y-28155666D01*
X51610001Y-28322203D01*
X51610001Y-28322204D01*
X51610000Y-28322204D01*
X51599500Y-28424983D01*
X39281914Y-28424983D01*
X39317246Y-28316243D01*
X39350500Y-28106287D01*
X39350500Y-27893713D01*
X39317246Y-27683757D01*
X39251557Y-27481588D01*
X39155051Y-27292184D01*
X39155049Y-27292181D01*
X39155048Y-27292179D01*
X39030109Y-27120213D01*
X38879786Y-26969890D01*
X38707820Y-26844951D01*
X38518414Y-26748444D01*
X38518413Y-26748443D01*
X38518412Y-26748443D01*
X38316243Y-26682754D01*
X38316241Y-26682753D01*
X38316240Y-26682753D01*
X38154957Y-26657208D01*
X38106287Y-26649500D01*
X37893713Y-26649500D01*
X37845042Y-26657208D01*
X37683760Y-26682753D01*
X37481585Y-26748444D01*
X37292179Y-26844951D01*
X37120213Y-26969890D01*
X36969890Y-27120213D01*
X36844951Y-27292179D01*
X36748444Y-27481585D01*
X36682753Y-27683760D01*
X36665897Y-27790185D01*
X36649500Y-27893713D01*
X35506929Y-27893713D01*
X35507677Y-27881354D01*
X35517164Y-27724501D01*
X35518271Y-27706201D01*
X35520076Y-27691340D01*
X35571780Y-27409201D01*
X35575364Y-27394663D01*
X35607298Y-27292184D01*
X35660696Y-27120822D01*
X35665998Y-27106841D01*
X35783731Y-26845249D01*
X35790676Y-26832016D01*
X35939080Y-26586526D01*
X35947567Y-26574230D01*
X36124480Y-26348417D01*
X36134395Y-26337226D01*
X36337226Y-26134395D01*
X36348417Y-26124480D01*
X36574230Y-25947567D01*
X36586526Y-25939080D01*
X36832016Y-25790676D01*
X36845249Y-25783731D01*
X37106841Y-25665998D01*
X37120822Y-25660696D01*
X37394668Y-25575362D01*
X37409197Y-25571780D01*
X37691344Y-25520075D01*
X37706201Y-25518271D01*
X37996264Y-25500726D01*
X38003751Y-25500500D01*
X38065892Y-25500500D01*
X73934108Y-25500500D01*
X73996249Y-25500500D01*
X74003736Y-25500726D01*
G37*
%TD.AperFunction*%
%TD*%
M02*
