%TF.GenerationSoftware,KiCad,Pcbnew,9.0.4*%
%TF.CreationDate,2025-10-12T15:21:27-05:00*%
%TF.ProjectId,Onboarding,4f6e626f-6172-4646-996e-672e6b696361,rev?*%
%TF.SameCoordinates,Original*%
%TF.FileFunction,Legend,Top*%
%TF.FilePolarity,Positive*%
%FSLAX46Y46*%
G04 Gerber Fmt 4.6, Leading zero omitted, Abs format (unit mm)*
G04 Created by KiCad (PCBNEW 9.0.4) date 2025-10-12 15:21:27*
%MOMM*%
%LPD*%
G01*
G04 APERTURE LIST*
G04 Aperture macros list*
%AMRoundRect*
0 Rectangle with rounded corners*
0 $1 Rounding radius*
0 $2 $3 $4 $5 $6 $7 $8 $9 X,Y pos of 4 corners*
0 Add a 4 corners polygon primitive as box body*
4,1,4,$2,$3,$4,$5,$6,$7,$8,$9,$2,$3,0*
0 Add four circle primitives for the rounded corners*
1,1,$1+$1,$2,$3*
1,1,$1+$1,$4,$5*
1,1,$1+$1,$6,$7*
1,1,$1+$1,$8,$9*
0 Add four rect primitives between the rounded corners*
20,1,$1+$1,$2,$3,$4,$5,0*
20,1,$1+$1,$4,$5,$6,$7,0*
20,1,$1+$1,$6,$7,$8,$9,0*
20,1,$1+$1,$8,$9,$2,$3,0*%
G04 Aperture macros list end*
%ADD10C,0.150000*%
%ADD11C,0.254000*%
%ADD12C,0.120000*%
%ADD13C,0.127000*%
%ADD14RoundRect,0.250000X0.250000X1.150000X-0.250000X1.150000X-0.250000X-1.150000X0.250000X-1.150000X0*%
%ADD15RoundRect,0.150000X0.150000X0.700000X-0.150000X0.700000X-0.150000X-0.700000X0.150000X-0.700000X0*%
%ADD16R,2.000000X1.700000*%
%ADD17RoundRect,0.150000X-0.825000X-0.150000X0.825000X-0.150000X0.825000X0.150000X-0.825000X0.150000X0*%
%ADD18RoundRect,0.250000X-0.350000X-0.450000X0.350000X-0.450000X0.350000X0.450000X-0.350000X0.450000X0*%
%ADD19C,1.400000*%
%ADD20RoundRect,0.760000X1.140000X1.140000X-1.140000X1.140000X-1.140000X-1.140000X1.140000X-1.140000X0*%
%ADD21C,4.000000*%
%ADD22RoundRect,0.249999X0.850001X-0.850001X0.850001X0.850001X-0.850001X0.850001X-0.850001X-0.850001X0*%
%ADD23C,2.200000*%
%ADD24RoundRect,0.237500X-0.237500X0.250000X-0.237500X-0.250000X0.237500X-0.250000X0.237500X0.250000X0*%
%ADD25RoundRect,0.250000X-0.250000X-0.475000X0.250000X-0.475000X0.250000X0.475000X-0.250000X0.475000X0*%
%ADD26RoundRect,0.250000X-0.550000X0.550000X-0.550000X-0.550000X0.550000X-0.550000X0.550000X0.550000X0*%
%ADD27C,1.600000*%
%ADD28C,3.800000*%
G04 APERTURE END LIST*
D10*
X101166666Y-102954819D02*
X101166666Y-103669104D01*
X101166666Y-103669104D02*
X101119047Y-103811961D01*
X101119047Y-103811961D02*
X101023809Y-103907200D01*
X101023809Y-103907200D02*
X100880952Y-103954819D01*
X100880952Y-103954819D02*
X100785714Y-103954819D01*
X102071428Y-103288152D02*
X102071428Y-103954819D01*
X101833333Y-102907200D02*
X101595238Y-103621485D01*
X101595238Y-103621485D02*
X102214285Y-103621485D01*
D11*
X86074318Y-85211666D02*
X86074318Y-85816428D01*
X86074318Y-85816428D02*
X84804318Y-85816428D01*
X86074318Y-84123094D02*
X86074318Y-84848809D01*
X86074318Y-84485952D02*
X84804318Y-84485952D01*
X84804318Y-84485952D02*
X84985746Y-84606904D01*
X84985746Y-84606904D02*
X85106699Y-84727856D01*
X85106699Y-84727856D02*
X85167175Y-84848809D01*
D10*
X78213095Y-93919819D02*
X78213095Y-94729342D01*
X78213095Y-94729342D02*
X78260714Y-94824580D01*
X78260714Y-94824580D02*
X78308333Y-94872200D01*
X78308333Y-94872200D02*
X78403571Y-94919819D01*
X78403571Y-94919819D02*
X78594047Y-94919819D01*
X78594047Y-94919819D02*
X78689285Y-94872200D01*
X78689285Y-94872200D02*
X78736904Y-94824580D01*
X78736904Y-94824580D02*
X78784523Y-94729342D01*
X78784523Y-94729342D02*
X78784523Y-93919819D01*
X79784523Y-94919819D02*
X79213095Y-94919819D01*
X79498809Y-94919819D02*
X79498809Y-93919819D01*
X79498809Y-93919819D02*
X79403571Y-94062676D01*
X79403571Y-94062676D02*
X79308333Y-94157914D01*
X79308333Y-94157914D02*
X79213095Y-94205533D01*
X84333333Y-92804819D02*
X84000000Y-92328628D01*
X83761905Y-92804819D02*
X83761905Y-91804819D01*
X83761905Y-91804819D02*
X84142857Y-91804819D01*
X84142857Y-91804819D02*
X84238095Y-91852438D01*
X84238095Y-91852438D02*
X84285714Y-91900057D01*
X84285714Y-91900057D02*
X84333333Y-91995295D01*
X84333333Y-91995295D02*
X84333333Y-92138152D01*
X84333333Y-92138152D02*
X84285714Y-92233390D01*
X84285714Y-92233390D02*
X84238095Y-92281009D01*
X84238095Y-92281009D02*
X84142857Y-92328628D01*
X84142857Y-92328628D02*
X83761905Y-92328628D01*
X85285714Y-92804819D02*
X84714286Y-92804819D01*
X85000000Y-92804819D02*
X85000000Y-91804819D01*
X85000000Y-91804819D02*
X84904762Y-91947676D01*
X84904762Y-91947676D02*
X84809524Y-92042914D01*
X84809524Y-92042914D02*
X84714286Y-92090533D01*
X88238095Y-90954819D02*
X88809523Y-90954819D01*
X88523809Y-91954819D02*
X88523809Y-90954819D01*
X89142857Y-91954819D02*
X89142857Y-90954819D01*
X89142857Y-90954819D02*
X89523809Y-90954819D01*
X89523809Y-90954819D02*
X89619047Y-91002438D01*
X89619047Y-91002438D02*
X89666666Y-91050057D01*
X89666666Y-91050057D02*
X89714285Y-91145295D01*
X89714285Y-91145295D02*
X89714285Y-91288152D01*
X89714285Y-91288152D02*
X89666666Y-91383390D01*
X89666666Y-91383390D02*
X89619047Y-91431009D01*
X89619047Y-91431009D02*
X89523809Y-91478628D01*
X89523809Y-91478628D02*
X89142857Y-91478628D01*
X90095238Y-91050057D02*
X90142857Y-91002438D01*
X90142857Y-91002438D02*
X90238095Y-90954819D01*
X90238095Y-90954819D02*
X90476190Y-90954819D01*
X90476190Y-90954819D02*
X90571428Y-91002438D01*
X90571428Y-91002438D02*
X90619047Y-91050057D01*
X90619047Y-91050057D02*
X90666666Y-91145295D01*
X90666666Y-91145295D02*
X90666666Y-91240533D01*
X90666666Y-91240533D02*
X90619047Y-91383390D01*
X90619047Y-91383390D02*
X90047619Y-91954819D01*
X90047619Y-91954819D02*
X90666666Y-91954819D01*
X95666666Y-101454819D02*
X95666666Y-102169104D01*
X95666666Y-102169104D02*
X95619047Y-102311961D01*
X95619047Y-102311961D02*
X95523809Y-102407200D01*
X95523809Y-102407200D02*
X95380952Y-102454819D01*
X95380952Y-102454819D02*
X95285714Y-102454819D01*
X96666666Y-102454819D02*
X96095238Y-102454819D01*
X96380952Y-102454819D02*
X96380952Y-101454819D01*
X96380952Y-101454819D02*
X96285714Y-101597676D01*
X96285714Y-101597676D02*
X96190476Y-101692914D01*
X96190476Y-101692914D02*
X96095238Y-101740533D01*
X83428571Y-98614700D02*
X84571429Y-98614700D01*
X84000000Y-99186128D02*
X84000000Y-98043271D01*
X96428571Y-98614700D02*
X97571429Y-98614700D01*
X72454819Y-97738094D02*
X71454819Y-97738094D01*
X71454819Y-97738094D02*
X71454819Y-97499999D01*
X71454819Y-97499999D02*
X71502438Y-97357142D01*
X71502438Y-97357142D02*
X71597676Y-97261904D01*
X71597676Y-97261904D02*
X71692914Y-97214285D01*
X71692914Y-97214285D02*
X71883390Y-97166666D01*
X71883390Y-97166666D02*
X72026247Y-97166666D01*
X72026247Y-97166666D02*
X72216723Y-97214285D01*
X72216723Y-97214285D02*
X72311961Y-97261904D01*
X72311961Y-97261904D02*
X72407200Y-97357142D01*
X72407200Y-97357142D02*
X72454819Y-97499999D01*
X72454819Y-97499999D02*
X72454819Y-97738094D01*
X72454819Y-96214285D02*
X72454819Y-96785713D01*
X72454819Y-96499999D02*
X71454819Y-96499999D01*
X71454819Y-96499999D02*
X71597676Y-96595237D01*
X71597676Y-96595237D02*
X71692914Y-96690475D01*
X71692914Y-96690475D02*
X71740533Y-96785713D01*
X72454819Y-102341904D02*
X71454819Y-102341904D01*
X72454819Y-101770476D02*
X71883390Y-102199047D01*
X71454819Y-101770476D02*
X72026247Y-102341904D01*
X65738095Y-88954819D02*
X65738095Y-87954819D01*
X65738095Y-88431009D02*
X66309523Y-88431009D01*
X66309523Y-88954819D02*
X66309523Y-87954819D01*
X67309523Y-88954819D02*
X66738095Y-88954819D01*
X67023809Y-88954819D02*
X67023809Y-87954819D01*
X67023809Y-87954819D02*
X66928571Y-88097676D01*
X66928571Y-88097676D02*
X66833333Y-88192914D01*
X66833333Y-88192914D02*
X66738095Y-88240533D01*
X101738095Y-88454819D02*
X101738095Y-87454819D01*
X101738095Y-87931009D02*
X102309523Y-87931009D01*
X102309523Y-88454819D02*
X102309523Y-87454819D01*
X102738095Y-87550057D02*
X102785714Y-87502438D01*
X102785714Y-87502438D02*
X102880952Y-87454819D01*
X102880952Y-87454819D02*
X103119047Y-87454819D01*
X103119047Y-87454819D02*
X103214285Y-87502438D01*
X103214285Y-87502438D02*
X103261904Y-87550057D01*
X103261904Y-87550057D02*
X103309523Y-87645295D01*
X103309523Y-87645295D02*
X103309523Y-87740533D01*
X103309523Y-87740533D02*
X103261904Y-87883390D01*
X103261904Y-87883390D02*
X102690476Y-88454819D01*
X102690476Y-88454819D02*
X103309523Y-88454819D01*
X89454819Y-94666666D02*
X88978628Y-94999999D01*
X89454819Y-95238094D02*
X88454819Y-95238094D01*
X88454819Y-95238094D02*
X88454819Y-94857142D01*
X88454819Y-94857142D02*
X88502438Y-94761904D01*
X88502438Y-94761904D02*
X88550057Y-94714285D01*
X88550057Y-94714285D02*
X88645295Y-94666666D01*
X88645295Y-94666666D02*
X88788152Y-94666666D01*
X88788152Y-94666666D02*
X88883390Y-94714285D01*
X88883390Y-94714285D02*
X88931009Y-94761904D01*
X88931009Y-94761904D02*
X88978628Y-94857142D01*
X88978628Y-94857142D02*
X88978628Y-95238094D01*
X88454819Y-94333332D02*
X88454819Y-93714285D01*
X88454819Y-93714285D02*
X88835771Y-94047618D01*
X88835771Y-94047618D02*
X88835771Y-93904761D01*
X88835771Y-93904761D02*
X88883390Y-93809523D01*
X88883390Y-93809523D02*
X88931009Y-93761904D01*
X88931009Y-93761904D02*
X89026247Y-93714285D01*
X89026247Y-93714285D02*
X89264342Y-93714285D01*
X89264342Y-93714285D02*
X89359580Y-93761904D01*
X89359580Y-93761904D02*
X89407200Y-93809523D01*
X89407200Y-93809523D02*
X89454819Y-93904761D01*
X89454819Y-93904761D02*
X89454819Y-94190475D01*
X89454819Y-94190475D02*
X89407200Y-94285713D01*
X89407200Y-94285713D02*
X89359580Y-94333332D01*
X91883333Y-92679580D02*
X91835714Y-92727200D01*
X91835714Y-92727200D02*
X91692857Y-92774819D01*
X91692857Y-92774819D02*
X91597619Y-92774819D01*
X91597619Y-92774819D02*
X91454762Y-92727200D01*
X91454762Y-92727200D02*
X91359524Y-92631961D01*
X91359524Y-92631961D02*
X91311905Y-92536723D01*
X91311905Y-92536723D02*
X91264286Y-92346247D01*
X91264286Y-92346247D02*
X91264286Y-92203390D01*
X91264286Y-92203390D02*
X91311905Y-92012914D01*
X91311905Y-92012914D02*
X91359524Y-91917676D01*
X91359524Y-91917676D02*
X91454762Y-91822438D01*
X91454762Y-91822438D02*
X91597619Y-91774819D01*
X91597619Y-91774819D02*
X91692857Y-91774819D01*
X91692857Y-91774819D02*
X91835714Y-91822438D01*
X91835714Y-91822438D02*
X91883333Y-91870057D01*
X92216667Y-91774819D02*
X92835714Y-91774819D01*
X92835714Y-91774819D02*
X92502381Y-92155771D01*
X92502381Y-92155771D02*
X92645238Y-92155771D01*
X92645238Y-92155771D02*
X92740476Y-92203390D01*
X92740476Y-92203390D02*
X92788095Y-92251009D01*
X92788095Y-92251009D02*
X92835714Y-92346247D01*
X92835714Y-92346247D02*
X92835714Y-92584342D01*
X92835714Y-92584342D02*
X92788095Y-92679580D01*
X92788095Y-92679580D02*
X92740476Y-92727200D01*
X92740476Y-92727200D02*
X92645238Y-92774819D01*
X92645238Y-92774819D02*
X92359524Y-92774819D01*
X92359524Y-92774819D02*
X92264286Y-92727200D01*
X92264286Y-92727200D02*
X92216667Y-92679580D01*
X65738095Y-106304819D02*
X65738095Y-105304819D01*
X65738095Y-105781009D02*
X66309523Y-105781009D01*
X66309523Y-106304819D02*
X66309523Y-105304819D01*
X66690476Y-105304819D02*
X67309523Y-105304819D01*
X67309523Y-105304819D02*
X66976190Y-105685771D01*
X66976190Y-105685771D02*
X67119047Y-105685771D01*
X67119047Y-105685771D02*
X67214285Y-105733390D01*
X67214285Y-105733390D02*
X67261904Y-105781009D01*
X67261904Y-105781009D02*
X67309523Y-105876247D01*
X67309523Y-105876247D02*
X67309523Y-106114342D01*
X67309523Y-106114342D02*
X67261904Y-106209580D01*
X67261904Y-106209580D02*
X67214285Y-106257200D01*
X67214285Y-106257200D02*
X67119047Y-106304819D01*
X67119047Y-106304819D02*
X66833333Y-106304819D01*
X66833333Y-106304819D02*
X66738095Y-106257200D01*
X66738095Y-106257200D02*
X66690476Y-106209580D01*
X80359580Y-105666666D02*
X80407200Y-105714285D01*
X80407200Y-105714285D02*
X80454819Y-105857142D01*
X80454819Y-105857142D02*
X80454819Y-105952380D01*
X80454819Y-105952380D02*
X80407200Y-106095237D01*
X80407200Y-106095237D02*
X80311961Y-106190475D01*
X80311961Y-106190475D02*
X80216723Y-106238094D01*
X80216723Y-106238094D02*
X80026247Y-106285713D01*
X80026247Y-106285713D02*
X79883390Y-106285713D01*
X79883390Y-106285713D02*
X79692914Y-106238094D01*
X79692914Y-106238094D02*
X79597676Y-106190475D01*
X79597676Y-106190475D02*
X79502438Y-106095237D01*
X79502438Y-106095237D02*
X79454819Y-105952380D01*
X79454819Y-105952380D02*
X79454819Y-105857142D01*
X79454819Y-105857142D02*
X79502438Y-105714285D01*
X79502438Y-105714285D02*
X79550057Y-105666666D01*
X80454819Y-104714285D02*
X80454819Y-105285713D01*
X80454819Y-104999999D02*
X79454819Y-104999999D01*
X79454819Y-104999999D02*
X79597676Y-105095237D01*
X79597676Y-105095237D02*
X79692914Y-105190475D01*
X79692914Y-105190475D02*
X79740533Y-105285713D01*
X101738095Y-106304819D02*
X101738095Y-105304819D01*
X101738095Y-105781009D02*
X102309523Y-105781009D01*
X102309523Y-106304819D02*
X102309523Y-105304819D01*
X103214285Y-105638152D02*
X103214285Y-106304819D01*
X102976190Y-105257200D02*
X102738095Y-105971485D01*
X102738095Y-105971485D02*
X103357142Y-105971485D01*
X92666666Y-109954819D02*
X92666666Y-110669104D01*
X92666666Y-110669104D02*
X92619047Y-110811961D01*
X92619047Y-110811961D02*
X92523809Y-110907200D01*
X92523809Y-110907200D02*
X92380952Y-110954819D01*
X92380952Y-110954819D02*
X92285714Y-110954819D01*
X93095238Y-110050057D02*
X93142857Y-110002438D01*
X93142857Y-110002438D02*
X93238095Y-109954819D01*
X93238095Y-109954819D02*
X93476190Y-109954819D01*
X93476190Y-109954819D02*
X93571428Y-110002438D01*
X93571428Y-110002438D02*
X93619047Y-110050057D01*
X93619047Y-110050057D02*
X93666666Y-110145295D01*
X93666666Y-110145295D02*
X93666666Y-110240533D01*
X93666666Y-110240533D02*
X93619047Y-110383390D01*
X93619047Y-110383390D02*
X93047619Y-110954819D01*
X93047619Y-110954819D02*
X93666666Y-110954819D01*
X93428571Y-107614700D02*
X94571429Y-107614700D01*
X80428571Y-107614700D02*
X81571429Y-107614700D01*
X81000000Y-108186128D02*
X81000000Y-107043271D01*
X70338095Y-90154819D02*
X70909523Y-90154819D01*
X70623809Y-91154819D02*
X70623809Y-90154819D01*
X71242857Y-91154819D02*
X71242857Y-90154819D01*
X71242857Y-90154819D02*
X71623809Y-90154819D01*
X71623809Y-90154819D02*
X71719047Y-90202438D01*
X71719047Y-90202438D02*
X71766666Y-90250057D01*
X71766666Y-90250057D02*
X71814285Y-90345295D01*
X71814285Y-90345295D02*
X71814285Y-90488152D01*
X71814285Y-90488152D02*
X71766666Y-90583390D01*
X71766666Y-90583390D02*
X71719047Y-90631009D01*
X71719047Y-90631009D02*
X71623809Y-90678628D01*
X71623809Y-90678628D02*
X71242857Y-90678628D01*
X72766666Y-91154819D02*
X72195238Y-91154819D01*
X72480952Y-91154819D02*
X72480952Y-90154819D01*
X72480952Y-90154819D02*
X72385714Y-90297676D01*
X72385714Y-90297676D02*
X72290476Y-90392914D01*
X72290476Y-90392914D02*
X72195238Y-90440533D01*
D12*
%TO.C,J3*%
X104485000Y-92240000D02*
X104485000Y-90640000D01*
X104485000Y-90640000D02*
X102685000Y-90640000D01*
X103215000Y-95110000D02*
X99785000Y-95110000D01*
X102685000Y-90640000D02*
X102685000Y-89700000D01*
X98515000Y-92240000D02*
X98515000Y-90640000D01*
X98515000Y-90640000D02*
X100315000Y-90640000D01*
%TO.C,J4*%
X104485000Y-99240000D02*
X104485000Y-97640000D01*
X104485000Y-97640000D02*
X102685000Y-97640000D01*
X103215000Y-102110000D02*
X99785000Y-102110000D01*
X102685000Y-97640000D02*
X102685000Y-96700000D01*
X98515000Y-99240000D02*
X98515000Y-97640000D01*
X98515000Y-97640000D02*
X100315000Y-97640000D01*
D13*
%TO.C,L1*%
X83350000Y-84200000D02*
X75700000Y-84200000D01*
X83360000Y-91800000D02*
X75640000Y-91800000D01*
D12*
%TO.C,U1*%
X76275000Y-95400000D02*
X76035000Y-95070000D01*
X76515000Y-95070000D01*
X76275000Y-95400000D01*
G36*
X76275000Y-95400000D02*
G01*
X76035000Y-95070000D01*
X76515000Y-95070000D01*
X76275000Y-95400000D01*
G37*
X78975000Y-100425000D02*
X80925000Y-100425000D01*
X78975000Y-100425000D02*
X77025000Y-100425000D01*
X78975000Y-95305000D02*
X80925000Y-95305000D01*
X78975000Y-95305000D02*
X77025000Y-95305000D01*
%TO.C,R1*%
X83272936Y-94735000D02*
X83727064Y-94735000D01*
X83272936Y-93265000D02*
X83727064Y-93265000D01*
%TO.C,TP2*%
X85600000Y-88600000D02*
X85600000Y-90400000D01*
X85600000Y-90400000D02*
X89400000Y-90400000D01*
X89400000Y-88600000D02*
X85600000Y-88600000D01*
X89400000Y-90400000D02*
X89400000Y-88600000D01*
%TO.C,J1*%
X85290000Y-101210000D02*
X85290000Y-95790000D01*
X94010000Y-95790000D02*
X85290000Y-95790000D01*
X94010000Y-101210000D02*
X85290000Y-101210000D01*
X95710000Y-97090000D02*
X94010000Y-95790000D01*
X95710000Y-99910000D02*
X94010000Y-101210000D01*
X95710000Y-99910000D02*
X95710000Y-97090000D01*
%TO.C,D1*%
X68030000Y-98700000D02*
X70970000Y-98700000D01*
X68030000Y-98820000D02*
X70970000Y-98820000D01*
X68030000Y-98940000D02*
X70970000Y-98940000D01*
X69500000Y-93260000D02*
X69500000Y-94280000D01*
X69500000Y-100740000D02*
X69500000Y-99720000D01*
X68030000Y-99720000D02*
X70970000Y-99720000D01*
X70970000Y-94280000D01*
X68030000Y-94280000D01*
X68030000Y-99720000D01*
%TO.C,R3*%
X88022500Y-92745276D02*
X88022500Y-93254724D01*
X86977500Y-92745276D02*
X86977500Y-93254724D01*
%TO.C,C3*%
X91788748Y-93265000D02*
X92311252Y-93265000D01*
X91788748Y-94735000D02*
X92311252Y-94735000D01*
%TO.C,C1*%
X77315000Y-102090302D02*
X77315000Y-102890302D01*
X77715000Y-102490302D02*
X76915000Y-102490302D01*
X79080000Y-106500000D02*
X70920000Y-106500000D01*
X79080000Y-106540000D02*
X70920000Y-106540000D01*
X79079000Y-106580000D02*
X70921000Y-106580000D01*
X79078000Y-106620000D02*
X70922000Y-106620000D01*
X79077000Y-106660000D02*
X70923000Y-106660000D01*
X79075000Y-106700000D02*
X70925000Y-106700000D01*
X79073000Y-106740000D02*
X70927000Y-106740000D01*
X79070000Y-106780000D02*
X70930000Y-106780000D01*
X79068000Y-106820000D02*
X70932000Y-106820000D01*
X79064000Y-106860000D02*
X70936000Y-106860000D01*
X79061000Y-106900000D02*
X70939000Y-106900000D01*
X79056000Y-106940000D02*
X70944000Y-106940000D01*
X79052000Y-106980000D02*
X70948000Y-106980000D01*
X79047000Y-107020000D02*
X70953000Y-107020000D01*
X79042000Y-107060000D02*
X70958000Y-107060000D01*
X79036000Y-107100000D02*
X70964000Y-107100000D01*
X79030000Y-107140000D02*
X70970000Y-107140000D01*
X79023000Y-107180000D02*
X70977000Y-107180000D01*
X79017000Y-107220000D02*
X70983000Y-107220000D01*
X79009000Y-107260000D02*
X70991000Y-107260000D01*
X79002000Y-107300000D02*
X70998000Y-107300000D01*
X78993000Y-107340000D02*
X71007000Y-107340000D01*
X78985000Y-107380000D02*
X71015000Y-107380000D01*
X78976000Y-107420000D02*
X71024000Y-107420000D01*
X78967000Y-107460000D02*
X71033000Y-107460000D01*
X78957000Y-107500000D02*
X71043000Y-107500000D01*
X78947000Y-107540000D02*
X71053000Y-107540000D01*
X78936000Y-107580000D02*
X71064000Y-107580000D01*
X78925000Y-107620000D02*
X71075000Y-107620000D01*
X78913000Y-107660000D02*
X71087000Y-107660000D01*
X78901000Y-107700000D02*
X71099000Y-107700000D01*
X78889000Y-107740000D02*
X71111000Y-107740000D01*
X78876000Y-107780000D02*
X71124000Y-107780000D01*
X78863000Y-107820000D02*
X71137000Y-107820000D01*
X78849000Y-107860000D02*
X71151000Y-107860000D01*
X78835000Y-107900000D02*
X71165000Y-107900000D01*
X78820000Y-107940000D02*
X71180000Y-107940000D01*
X78805000Y-107980000D02*
X76040000Y-107980000D01*
X73960000Y-107980000D02*
X71195000Y-107980000D01*
X78789000Y-108020000D02*
X76040000Y-108020000D01*
X73960000Y-108020000D02*
X71211000Y-108020000D01*
X78773000Y-108060000D02*
X76040000Y-108060000D01*
X73960000Y-108060000D02*
X71227000Y-108060000D01*
X78757000Y-108100000D02*
X76040000Y-108100000D01*
X73960000Y-108100000D02*
X71243000Y-108100000D01*
X78740000Y-108140000D02*
X76040000Y-108140000D01*
X73960000Y-108140000D02*
X71260000Y-108140000D01*
X78722000Y-108180000D02*
X76040000Y-108180000D01*
X73960000Y-108180000D02*
X71278000Y-108180000D01*
X78704000Y-108220000D02*
X76040000Y-108220000D01*
X73960000Y-108220000D02*
X71296000Y-108220000D01*
X78685000Y-108260000D02*
X76040000Y-108260000D01*
X73960000Y-108260000D02*
X71315000Y-108260000D01*
X78666000Y-108300000D02*
X76040000Y-108300000D01*
X73960000Y-108300000D02*
X71334000Y-108300000D01*
X78646000Y-108340000D02*
X76040000Y-108340000D01*
X73960000Y-108340000D02*
X71354000Y-108340000D01*
X78626000Y-108380000D02*
X76040000Y-108380000D01*
X73960000Y-108380000D02*
X71374000Y-108380000D01*
X78605000Y-108420000D02*
X76040000Y-108420000D01*
X73960000Y-108420000D02*
X71395000Y-108420000D01*
X78584000Y-108460000D02*
X76040000Y-108460000D01*
X73960000Y-108460000D02*
X71416000Y-108460000D01*
X78562000Y-108500000D02*
X76040000Y-108500000D01*
X73960000Y-108500000D02*
X71438000Y-108500000D01*
X78539000Y-108540000D02*
X76040000Y-108540000D01*
X73960000Y-108540000D02*
X71461000Y-108540000D01*
X78516000Y-108580000D02*
X76040000Y-108580000D01*
X73960000Y-108580000D02*
X71484000Y-108580000D01*
X78493000Y-108620000D02*
X76040000Y-108620000D01*
X73960000Y-108620000D02*
X71507000Y-108620000D01*
X78468000Y-108660000D02*
X76040000Y-108660000D01*
X73960000Y-108660000D02*
X71532000Y-108660000D01*
X78443000Y-108700000D02*
X76040000Y-108700000D01*
X73960000Y-108700000D02*
X71557000Y-108700000D01*
X78418000Y-108740000D02*
X76040000Y-108740000D01*
X73960000Y-108740000D02*
X71582000Y-108740000D01*
X78392000Y-108780000D02*
X76040000Y-108780000D01*
X73960000Y-108780000D02*
X71608000Y-108780000D01*
X78365000Y-108820000D02*
X76040000Y-108820000D01*
X73960000Y-108820000D02*
X71635000Y-108820000D01*
X78337000Y-108860000D02*
X76040000Y-108860000D01*
X73960000Y-108860000D02*
X71663000Y-108860000D01*
X78309000Y-108900000D02*
X76040000Y-108900000D01*
X73960000Y-108900000D02*
X71691000Y-108900000D01*
X78280000Y-108940000D02*
X76040000Y-108940000D01*
X73960000Y-108940000D02*
X71720000Y-108940000D01*
X78250000Y-108980000D02*
X76040000Y-108980000D01*
X73960000Y-108980000D02*
X71750000Y-108980000D01*
X78219000Y-109020000D02*
X76040000Y-109020000D01*
X73960000Y-109020000D02*
X71781000Y-109020000D01*
X78188000Y-109060000D02*
X76040000Y-109060000D01*
X73960000Y-109060000D02*
X71812000Y-109060000D01*
X78156000Y-109100000D02*
X76040000Y-109100000D01*
X73960000Y-109100000D02*
X71844000Y-109100000D01*
X78123000Y-109140000D02*
X76040000Y-109140000D01*
X73960000Y-109140000D02*
X71877000Y-109140000D01*
X78089000Y-109180000D02*
X76040000Y-109180000D01*
X73960000Y-109180000D02*
X71911000Y-109180000D01*
X78055000Y-109220000D02*
X76040000Y-109220000D01*
X73960000Y-109220000D02*
X71945000Y-109220000D01*
X78019000Y-109260000D02*
X76040000Y-109260000D01*
X73960000Y-109260000D02*
X71981000Y-109260000D01*
X77982000Y-109300000D02*
X76040000Y-109300000D01*
X73960000Y-109300000D02*
X72018000Y-109300000D01*
X77945000Y-109340000D02*
X76040000Y-109340000D01*
X73960000Y-109340000D02*
X72055000Y-109340000D01*
X77906000Y-109380000D02*
X76040000Y-109380000D01*
X73960000Y-109380000D02*
X72094000Y-109380000D01*
X77867000Y-109420000D02*
X76040000Y-109420000D01*
X73960000Y-109420000D02*
X72133000Y-109420000D01*
X77826000Y-109460000D02*
X76040000Y-109460000D01*
X73960000Y-109460000D02*
X72174000Y-109460000D01*
X77784000Y-109500000D02*
X76040000Y-109500000D01*
X73960000Y-109500000D02*
X72216000Y-109500000D01*
X77741000Y-109540000D02*
X76040000Y-109540000D01*
X73960000Y-109540000D02*
X72259000Y-109540000D01*
X77696000Y-109580000D02*
X76040000Y-109580000D01*
X73960000Y-109580000D02*
X72304000Y-109580000D01*
X77651000Y-109620000D02*
X76040000Y-109620000D01*
X73960000Y-109620000D02*
X72349000Y-109620000D01*
X77604000Y-109660000D02*
X76040000Y-109660000D01*
X73960000Y-109660000D02*
X72396000Y-109660000D01*
X77555000Y-109700000D02*
X76040000Y-109700000D01*
X73960000Y-109700000D02*
X72445000Y-109700000D01*
X77505000Y-109740000D02*
X76040000Y-109740000D01*
X73960000Y-109740000D02*
X72495000Y-109740000D01*
X77453000Y-109780000D02*
X76040000Y-109780000D01*
X73960000Y-109780000D02*
X72547000Y-109780000D01*
X77400000Y-109820000D02*
X76040000Y-109820000D01*
X73960000Y-109820000D02*
X72600000Y-109820000D01*
X77344000Y-109860000D02*
X76040000Y-109860000D01*
X73960000Y-109860000D02*
X72656000Y-109860000D01*
X77287000Y-109900000D02*
X76040000Y-109900000D01*
X73960000Y-109900000D02*
X72713000Y-109900000D01*
X77227000Y-109940000D02*
X76040000Y-109940000D01*
X73960000Y-109940000D02*
X72773000Y-109940000D01*
X77165000Y-109980000D02*
X76040000Y-109980000D01*
X73960000Y-109980000D02*
X72835000Y-109980000D01*
X77101000Y-110020000D02*
X76040000Y-110020000D01*
X73960000Y-110020000D02*
X72899000Y-110020000D01*
X77034000Y-110060000D02*
X72966000Y-110060000D01*
X76964000Y-110100000D02*
X73036000Y-110100000D01*
X76890000Y-110140000D02*
X73110000Y-110140000D01*
X76813000Y-110180000D02*
X73187000Y-110180000D01*
X76731000Y-110220000D02*
X73269000Y-110220000D01*
X76644000Y-110260000D02*
X73356000Y-110260000D01*
X76552000Y-110300000D02*
X73448000Y-110300000D01*
X76453000Y-110340000D02*
X73547000Y-110340000D01*
X76346000Y-110380000D02*
X73654000Y-110380000D01*
X76228000Y-110420000D02*
X73772000Y-110420000D01*
X76097000Y-110460000D02*
X73903000Y-110460000D01*
X75947000Y-110500000D02*
X74053000Y-110500000D01*
X75768000Y-110540000D02*
X74232000Y-110540000D01*
X75533000Y-110580000D02*
X74467000Y-110580000D01*
X79120000Y-106500000D02*
G75*
G02*
X70880000Y-106500000I-4120000J0D01*
G01*
X70880000Y-106500000D02*
G75*
G02*
X79120000Y-106500000I4120000J0D01*
G01*
%TO.C,J2*%
X92710000Y-108910000D02*
X92710000Y-106090000D01*
X92710000Y-108910000D02*
X91010000Y-110210000D01*
X92710000Y-106090000D02*
X91010000Y-104790000D01*
X91010000Y-110210000D02*
X82290000Y-110210000D01*
X91010000Y-104790000D02*
X82290000Y-104790000D01*
X82290000Y-110210000D02*
X82290000Y-104790000D01*
%TO.C,TP1*%
X69600000Y-88100000D02*
X69600000Y-89900000D01*
X69600000Y-89900000D02*
X73400000Y-89900000D01*
X73400000Y-88100000D02*
X69600000Y-88100000D01*
X73400000Y-89900000D02*
X73400000Y-88100000D01*
%TD*%
%LPC*%
D14*
%TO.C,J3*%
X99025000Y-93900000D03*
X103975000Y-93900000D03*
D15*
X100875000Y-90550000D03*
X102125000Y-90550000D03*
%TD*%
D14*
%TO.C,J4*%
X99025000Y-100900000D03*
X103975000Y-100900000D03*
D15*
X100875000Y-97550000D03*
X102125000Y-97550000D03*
%TD*%
D16*
%TO.C,L1*%
X82500000Y-88000000D03*
X76500000Y-88000000D03*
%TD*%
D17*
%TO.C,U1*%
X81450000Y-95960000D03*
X81450000Y-97230000D03*
X81450000Y-98500000D03*
X81450000Y-99770000D03*
X76500000Y-99770000D03*
X76500000Y-98500000D03*
X76500000Y-97230000D03*
X76500000Y-95960000D03*
%TD*%
D18*
%TO.C,R1*%
X84500000Y-94000000D03*
X82500000Y-94000000D03*
%TD*%
D19*
%TO.C,TP2*%
X86500000Y-89500000D03*
X88500000Y-89500000D03*
%TD*%
D20*
%TO.C,J1*%
X93000000Y-98500000D03*
D21*
X88000000Y-98500000D03*
%TD*%
D22*
%TO.C,D1*%
X69500000Y-102080000D03*
D23*
X69500000Y-91920000D03*
%TD*%
%TO.C,H1*%
X66500000Y-85000000D03*
%TD*%
%TO.C,H2*%
X102500000Y-85000000D03*
%TD*%
D24*
%TO.C,R3*%
X87500000Y-92087500D03*
X87500000Y-93912500D03*
%TD*%
D25*
%TO.C,C3*%
X91100000Y-94000000D03*
X93000000Y-94000000D03*
%TD*%
D23*
%TO.C,H3*%
X66500000Y-109000000D03*
%TD*%
D26*
%TO.C,C1*%
X75000000Y-104000000D03*
D27*
X75000000Y-109000000D03*
%TD*%
D23*
%TO.C,H4*%
X102500000Y-109000000D03*
%TD*%
D20*
%TO.C,J2*%
X90000000Y-107500000D03*
D28*
X85000000Y-107500000D03*
%TD*%
D19*
%TO.C,TP1*%
X70500000Y-89000000D03*
X72500000Y-89000000D03*
%TD*%
%LPD*%
M02*
