%TF.GenerationSoftware,KiCad,Pcbnew,9.0.4*%
%TF.CreationDate,2025-10-05T14:54:46-05:00*%
%TF.ProjectId,Onboarding,4f6e626f-6172-4646-996e-672e6b696361,rev?*%
%TF.SameCoordinates,Original*%
%TF.FileFunction,Legend,Bot*%
%TF.FilePolarity,Positive*%
%FSLAX46Y46*%
G04 Gerber Fmt 4.6, Leading zero omitted, Abs format (unit mm)*
G04 Created by KiCad (PCBNEW 9.0.4) date 2025-10-05 14:54:46*
%MOMM*%
%LPD*%
G01*
G04 APERTURE LIST*
G04 Aperture macros list*
%AMRoundRect*
0 Rectangle with rounded corners*
0 $1 Rounding radius*
0 $2 $3 $4 $5 $6 $7 $8 $9 X,Y pos of 4 corners*
0 Add a 4 corners polygon primitive as box body*
4,1,4,$2,$3,$4,$5,$6,$7,$8,$9,$2,$3,0*
0 Add four circle primitives for the rounded corners*
1,1,$1+$1,$2,$3*
1,1,$1+$1,$4,$5*
1,1,$1+$1,$6,$7*
1,1,$1+$1,$8,$9*
0 Add four rect primitives between the rounded corners*
20,1,$1+$1,$2,$3,$4,$5,0*
20,1,$1+$1,$4,$5,$6,$7,0*
20,1,$1+$1,$6,$7,$8,$9,0*
20,1,$1+$1,$8,$9,$2,$3,0*%
G04 Aperture macros list end*
%ADD10C,0.150000*%
%ADD11C,0.120000*%
%ADD12RoundRect,0.237500X0.237500X-0.300000X0.237500X0.300000X-0.237500X0.300000X-0.237500X-0.300000X0*%
%ADD13RoundRect,0.250000X0.550000X-0.550000X0.550000X0.550000X-0.550000X0.550000X-0.550000X-0.550000X0*%
%ADD14C,1.600000*%
%ADD15C,2.200000*%
%ADD16RoundRect,0.760000X1.140000X-1.140000X1.140000X1.140000X-1.140000X1.140000X-1.140000X-1.140000X0*%
%ADD17C,3.800000*%
%ADD18C,1.400000*%
%ADD19RoundRect,0.760000X-1.140000X1.140000X-1.140000X-1.140000X1.140000X-1.140000X1.140000X1.140000X0*%
%ADD20C,4.000000*%
G04 APERTURE END LIST*
D10*
X152789580Y-110970833D02*
X152837200Y-110923214D01*
X152837200Y-110923214D02*
X152884819Y-110780357D01*
X152884819Y-110780357D02*
X152884819Y-110685119D01*
X152884819Y-110685119D02*
X152837200Y-110542262D01*
X152837200Y-110542262D02*
X152741961Y-110447024D01*
X152741961Y-110447024D02*
X152646723Y-110399405D01*
X152646723Y-110399405D02*
X152456247Y-110351786D01*
X152456247Y-110351786D02*
X152313390Y-110351786D01*
X152313390Y-110351786D02*
X152122914Y-110399405D01*
X152122914Y-110399405D02*
X152027676Y-110447024D01*
X152027676Y-110447024D02*
X151932438Y-110542262D01*
X151932438Y-110542262D02*
X151884819Y-110685119D01*
X151884819Y-110685119D02*
X151884819Y-110780357D01*
X151884819Y-110780357D02*
X151932438Y-110923214D01*
X151932438Y-110923214D02*
X151980057Y-110970833D01*
X151980057Y-111351786D02*
X151932438Y-111399405D01*
X151932438Y-111399405D02*
X151884819Y-111494643D01*
X151884819Y-111494643D02*
X151884819Y-111732738D01*
X151884819Y-111732738D02*
X151932438Y-111827976D01*
X151932438Y-111827976D02*
X151980057Y-111875595D01*
X151980057Y-111875595D02*
X152075295Y-111923214D01*
X152075295Y-111923214D02*
X152170533Y-111923214D01*
X152170533Y-111923214D02*
X152313390Y-111875595D01*
X152313390Y-111875595D02*
X152884819Y-111304167D01*
X152884819Y-111304167D02*
X152884819Y-111923214D01*
D11*
%TO.C,C2*%
X151510000Y-111283767D02*
X151510000Y-110991233D01*
X150490000Y-111283767D02*
X150490000Y-110991233D01*
%TD*%
%LPC*%
D12*
%TO.C,C2*%
X151000000Y-110275000D03*
X151000000Y-112000000D03*
%TD*%
D13*
%TO.C,C1*%
X142500000Y-101000000D03*
D14*
X142500000Y-96000000D03*
%TD*%
D15*
%TO.C,H2*%
X173500000Y-84000000D03*
%TD*%
%TO.C,H4*%
X126000000Y-115000000D03*
%TD*%
%TO.C,H1*%
X126000000Y-84000000D03*
%TD*%
D16*
%TO.C,J2*%
X135500000Y-108500000D03*
D17*
X135500000Y-103500000D03*
%TD*%
D18*
%TO.C,TP2*%
X154000000Y-88500000D03*
X156000000Y-88500000D03*
%TD*%
D19*
%TO.C,J1*%
X167500000Y-97000000D03*
D20*
X167500000Y-102000000D03*
%TD*%
D15*
%TO.C,H3*%
X173500000Y-115000000D03*
%TD*%
D18*
%TO.C,TP1*%
X163000000Y-90000000D03*
X163000000Y-88000000D03*
%TD*%
%LPD*%
M02*
