%TF.GenerationSoftware,KiCad,Pcbnew,9.0.4*%
%TF.CreationDate,2025-10-05T15:56:56-05:00*%
%TF.ProjectId,Onboarding,4f6e626f-6172-4646-996e-672e6b696361,rev?*%
%TF.SameCoordinates,Original*%
%TF.FileFunction,Legend,Bot*%
%TF.FilePolarity,Positive*%
%FSLAX46Y46*%
G04 Gerber Fmt 4.6, Leading zero omitted, Abs format (unit mm)*
G04 Created by KiCad (PCBNEW 9.0.4) date 2025-10-05 15:56:56*
%MOMM*%
%LPD*%
G01*
G04 APERTURE LIST*
G04 Aperture macros list*
%AMRoundRect*
0 Rectangle with rounded corners*
0 $1 Rounding radius*
0 $2 $3 $4 $5 $6 $7 $8 $9 X,Y pos of 4 corners*
0 Add a 4 corners polygon primitive as box body*
4,1,4,$2,$3,$4,$5,$6,$7,$8,$9,$2,$3,0*
0 Add four circle primitives for the rounded corners*
1,1,$1+$1,$2,$3*
1,1,$1+$1,$4,$5*
1,1,$1+$1,$6,$7*
1,1,$1+$1,$8,$9*
0 Add four rect primitives between the rounded corners*
20,1,$1+$1,$2,$3,$4,$5,0*
20,1,$1+$1,$4,$5,$6,$7,0*
20,1,$1+$1,$6,$7,$8,$9,0*
20,1,$1+$1,$8,$9,$2,$3,0*%
G04 Aperture macros list end*
%ADD10C,0.150000*%
%ADD11C,0.120000*%
%ADD12RoundRect,0.760000X1.140000X1.140000X-1.140000X1.140000X-1.140000X-1.140000X1.140000X-1.140000X0*%
%ADD13C,4.000000*%
%ADD14RoundRect,0.250000X-0.550000X0.550000X-0.550000X-0.550000X0.550000X-0.550000X0.550000X0.550000X0*%
%ADD15C,1.600000*%
%ADD16C,2.200000*%
%ADD17C,1.400000*%
%ADD18RoundRect,0.760000X1.140000X-1.140000X1.140000X1.140000X-1.140000X1.140000X-1.140000X-1.140000X0*%
%ADD19C,3.800000*%
%ADD20RoundRect,0.237500X-0.237500X0.300000X-0.237500X-0.300000X0.237500X-0.300000X0.237500X0.300000X0*%
%ADD21RoundRect,0.237500X-0.250000X-0.237500X0.250000X-0.237500X0.250000X0.237500X-0.250000X0.237500X0*%
%ADD22RoundRect,0.237500X-0.237500X0.250000X-0.237500X-0.250000X0.237500X-0.250000X0.237500X0.250000X0*%
G04 APERTURE END LIST*
D10*
X132429580Y-128833333D02*
X132477200Y-128785714D01*
X132477200Y-128785714D02*
X132524819Y-128642857D01*
X132524819Y-128642857D02*
X132524819Y-128547619D01*
X132524819Y-128547619D02*
X132477200Y-128404762D01*
X132477200Y-128404762D02*
X132381961Y-128309524D01*
X132381961Y-128309524D02*
X132286723Y-128261905D01*
X132286723Y-128261905D02*
X132096247Y-128214286D01*
X132096247Y-128214286D02*
X131953390Y-128214286D01*
X131953390Y-128214286D02*
X131762914Y-128261905D01*
X131762914Y-128261905D02*
X131667676Y-128309524D01*
X131667676Y-128309524D02*
X131572438Y-128404762D01*
X131572438Y-128404762D02*
X131524819Y-128547619D01*
X131524819Y-128547619D02*
X131524819Y-128642857D01*
X131524819Y-128642857D02*
X131572438Y-128785714D01*
X131572438Y-128785714D02*
X131620057Y-128833333D01*
X131620057Y-129214286D02*
X131572438Y-129261905D01*
X131572438Y-129261905D02*
X131524819Y-129357143D01*
X131524819Y-129357143D02*
X131524819Y-129595238D01*
X131524819Y-129595238D02*
X131572438Y-129690476D01*
X131572438Y-129690476D02*
X131620057Y-129738095D01*
X131620057Y-129738095D02*
X131715295Y-129785714D01*
X131715295Y-129785714D02*
X131810533Y-129785714D01*
X131810533Y-129785714D02*
X131953390Y-129738095D01*
X131953390Y-129738095D02*
X132524819Y-129166667D01*
X132524819Y-129166667D02*
X132524819Y-129785714D01*
X133666666Y-127384819D02*
X133999999Y-126908628D01*
X134238094Y-127384819D02*
X134238094Y-126384819D01*
X134238094Y-126384819D02*
X133857142Y-126384819D01*
X133857142Y-126384819D02*
X133761904Y-126432438D01*
X133761904Y-126432438D02*
X133714285Y-126480057D01*
X133714285Y-126480057D02*
X133666666Y-126575295D01*
X133666666Y-126575295D02*
X133666666Y-126718152D01*
X133666666Y-126718152D02*
X133714285Y-126813390D01*
X133714285Y-126813390D02*
X133761904Y-126861009D01*
X133761904Y-126861009D02*
X133857142Y-126908628D01*
X133857142Y-126908628D02*
X134238094Y-126908628D01*
X133333332Y-126384819D02*
X132714285Y-126384819D01*
X132714285Y-126384819D02*
X133047618Y-126765771D01*
X133047618Y-126765771D02*
X132904761Y-126765771D01*
X132904761Y-126765771D02*
X132809523Y-126813390D01*
X132809523Y-126813390D02*
X132761904Y-126861009D01*
X132761904Y-126861009D02*
X132714285Y-126956247D01*
X132714285Y-126956247D02*
X132714285Y-127194342D01*
X132714285Y-127194342D02*
X132761904Y-127289580D01*
X132761904Y-127289580D02*
X132809523Y-127337200D01*
X132809523Y-127337200D02*
X132904761Y-127384819D01*
X132904761Y-127384819D02*
X133190475Y-127384819D01*
X133190475Y-127384819D02*
X133285713Y-127337200D01*
X133285713Y-127337200D02*
X133333332Y-127289580D01*
X135024819Y-129920833D02*
X134548628Y-129587500D01*
X135024819Y-129349405D02*
X134024819Y-129349405D01*
X134024819Y-129349405D02*
X134024819Y-129730357D01*
X134024819Y-129730357D02*
X134072438Y-129825595D01*
X134072438Y-129825595D02*
X134120057Y-129873214D01*
X134120057Y-129873214D02*
X134215295Y-129920833D01*
X134215295Y-129920833D02*
X134358152Y-129920833D01*
X134358152Y-129920833D02*
X134453390Y-129873214D01*
X134453390Y-129873214D02*
X134501009Y-129825595D01*
X134501009Y-129825595D02*
X134548628Y-129730357D01*
X134548628Y-129730357D02*
X134548628Y-129349405D01*
X134358152Y-130777976D02*
X135024819Y-130777976D01*
X133977200Y-130539881D02*
X134691485Y-130301786D01*
X134691485Y-130301786D02*
X134691485Y-130920833D01*
D11*
%TO.C,C2*%
X132990000Y-128853733D02*
X132990000Y-129146267D01*
X134010000Y-128853733D02*
X134010000Y-129146267D01*
%TO.C,R3*%
X133245276Y-124977500D02*
X133754724Y-124977500D01*
X133245276Y-126022500D02*
X133754724Y-126022500D01*
%TO.C,R4*%
X135477500Y-129832776D02*
X135477500Y-130342224D01*
X136522500Y-129832776D02*
X136522500Y-130342224D01*
%TD*%
%LPC*%
D12*
%TO.C,J4*%
X144000000Y-135000000D03*
D13*
X139000000Y-135000000D03*
%TD*%
D14*
%TO.C,C3*%
X128500000Y-132597349D03*
D15*
X128500000Y-137597349D03*
%TD*%
D16*
%TO.C,H1*%
X121500000Y-109000000D03*
%TD*%
D17*
%TO.C,TP1*%
X141500000Y-119000000D03*
X143500000Y-119000000D03*
%TD*%
%TO.C,TP2*%
X129500000Y-120000000D03*
X129500000Y-118000000D03*
%TD*%
D16*
%TO.C,H4*%
X151500000Y-109000000D03*
%TD*%
%TO.C,H2*%
X121500000Y-139500000D03*
%TD*%
%TO.C,H3*%
X151500000Y-139500000D03*
%TD*%
D18*
%TO.C,J3*%
X122500000Y-130000000D03*
D19*
X122500000Y-125000000D03*
%TD*%
D20*
%TO.C,C2*%
X133500000Y-128137500D03*
X133500000Y-129862500D03*
%TD*%
D21*
%TO.C,R3*%
X132587500Y-125500000D03*
X134412500Y-125500000D03*
%TD*%
D22*
%TO.C,R4*%
X136000000Y-129175000D03*
X136000000Y-131000000D03*
%TD*%
%LPD*%
M02*
