%TF.GenerationSoftware,KiCad,Pcbnew,9.0.7*%
%TF.CreationDate,2026-03-06T18:08:20-06:00*%
%TF.ProjectId,Onboarding,4f6e626f-6172-4646-996e-672e6b696361,rev?*%
%TF.SameCoordinates,Original*%
%TF.FileFunction,Soldermask,Top*%
%TF.FilePolarity,Negative*%
%FSLAX46Y46*%
G04 Gerber Fmt 4.6, Leading zero omitted, Abs format (unit mm)*
G04 Created by KiCad (PCBNEW 9.0.7) date 2026-03-06 18:08:20*
%MOMM*%
%LPD*%
G01*
G04 APERTURE LIST*
G04 Aperture macros list*
%AMRoundRect*
0 Rectangle with rounded corners*
0 $1 Rounding radius*
0 $2 $3 $4 $5 $6 $7 $8 $9 X,Y pos of 4 corners*
0 Add a 4 corners polygon primitive as box body*
4,1,4,$2,$3,$4,$5,$6,$7,$8,$9,$2,$3,0*
0 Add four circle primitives for the rounded corners*
1,1,$1+$1,$2,$3*
1,1,$1+$1,$4,$5*
1,1,$1+$1,$6,$7*
1,1,$1+$1,$8,$9*
0 Add four rect primitives between the rounded corners*
20,1,$1+$1,$2,$3,$4,$5,0*
20,1,$1+$1,$4,$5,$6,$7,0*
20,1,$1+$1,$6,$7,$8,$9,0*
20,1,$1+$1,$8,$9,$2,$3,0*%
G04 Aperture macros list end*
%ADD10RoundRect,0.250000X0.250000X1.150000X-0.250000X1.150000X-0.250000X-1.150000X0.250000X-1.150000X0*%
%ADD11RoundRect,0.150000X0.150000X0.700000X-0.150000X0.700000X-0.150000X-0.700000X0.150000X-0.700000X0*%
%ADD12C,1.400000*%
%ADD13RoundRect,0.250000X0.475000X-0.250000X0.475000X0.250000X-0.475000X0.250000X-0.475000X-0.250000X0*%
%ADD14RoundRect,0.237500X-0.237500X0.250000X-0.237500X-0.250000X0.237500X-0.250000X0.237500X0.250000X0*%
%ADD15RoundRect,0.250000X-0.450000X0.350000X-0.450000X-0.350000X0.450000X-0.350000X0.450000X0.350000X0*%
%ADD16RoundRect,0.150000X0.825000X0.150000X-0.825000X0.150000X-0.825000X-0.150000X0.825000X-0.150000X0*%
%ADD17RoundRect,0.237500X0.237500X-0.300000X0.237500X0.300000X-0.237500X0.300000X-0.237500X-0.300000X0*%
%ADD18RoundRect,0.243750X-0.456250X0.243750X-0.456250X-0.243750X0.456250X-0.243750X0.456250X0.243750X0*%
%ADD19RoundRect,0.250000X-0.550000X-0.550000X0.550000X-0.550000X0.550000X0.550000X-0.550000X0.550000X0*%
%ADD20C,1.600000*%
%ADD21RoundRect,0.760000X-1.140000X-1.140000X1.140000X-1.140000X1.140000X1.140000X-1.140000X1.140000X0*%
%ADD22C,4.000000*%
%ADD23R,1.520000X10.160000*%
G04 APERTURE END LIST*
D10*
%TO.C,J3*%
X86025000Y-88400000D03*
X90975000Y-88400000D03*
D11*
X87875000Y-85050000D03*
X89125000Y-85050000D03*
%TD*%
%TO.C,J4*%
X91125000Y-77550000D03*
X89875000Y-77550000D03*
D10*
X92975000Y-80900000D03*
X88025000Y-80900000D03*
%TD*%
D12*
%TO.C,TP2*%
X98000000Y-98500000D03*
X98000000Y-100500000D03*
%TD*%
D13*
%TO.C,C4*%
X88500000Y-99050000D03*
X88500000Y-100950000D03*
%TD*%
D14*
%TO.C,R3*%
X92000000Y-99087500D03*
X92000000Y-100912500D03*
%TD*%
D15*
%TO.C,R1*%
X94500000Y-98500000D03*
X94500000Y-100500000D03*
%TD*%
D16*
%TO.C,U2*%
X105525000Y-101905000D03*
X105525000Y-100635000D03*
X105525000Y-99365000D03*
X105525000Y-98095000D03*
X110475000Y-98095000D03*
X110475000Y-99365000D03*
X110475000Y-100635000D03*
X110475000Y-101905000D03*
%TD*%
D17*
%TO.C,C2*%
X111000000Y-94137500D03*
X111000000Y-95862500D03*
%TD*%
D12*
%TO.C,TP1*%
X117500000Y-91000000D03*
X117500000Y-93000000D03*
%TD*%
D14*
%TO.C,R2*%
X107500000Y-95912500D03*
X107500000Y-94087500D03*
%TD*%
%TO.C,R4*%
X101500000Y-99912500D03*
X101500000Y-98087500D03*
%TD*%
D18*
%TO.C,D2*%
X117000000Y-85062500D03*
X117000000Y-86937500D03*
%TD*%
D19*
%TO.C,C1*%
X108097349Y-86000000D03*
D20*
X113097349Y-86000000D03*
%TD*%
D21*
%TO.C,J2*%
X99500000Y-79000000D03*
D22*
X104500000Y-79000000D03*
%TD*%
D21*
%TO.C,J1*%
X84000000Y-94000000D03*
D22*
X89000000Y-94000000D03*
%TD*%
D23*
%TO.C,L1*%
X94430000Y-90000000D03*
X103570000Y-90000000D03*
%TD*%
M02*
