%TF.GenerationSoftware,KiCad,Pcbnew,10.0.6*%
%TF.CreationDate,2026-09-20T12:41:32-05:00*%
%TF.ProjectId,Onboarding,4f6e626f-6172-4646-996e-672e6b696361,rev?*%
%TF.SameCoordinates,Original*%
%TF.FileFunction,Legend,Top*%
%TF.FilePolarity,Positive*%
%FSLAX46Y46*%
G04 Gerber Fmt 4.6, Leading zero omitted, Abs format (unit mm)*
G04 Created by KiCad (PCBNEW 10.0.6) date 2026-09-20 12:41:32*
%MOMM*%
%LPD*%
G01*
G04 APERTURE LIST*
G04 Aperture macros list*
%AMRoundRect*
0 Rectangle with rounded corners*
0 $1 Rounding radius*
0 $2 $3 $4 $5 $6 $7 $8 $9 X,Y pos of 4 corners*
0 Add a 4 corners polygon primitive as box body*
4,1,4,$2,$3,$4,$5,$6,$7,$8,$9,$2,$3,0*
0 Add four circle primitives for the rounded corners*
1,1,$1+$1,$2,$3*
1,1,$1+$1,$4,$5*
1,1,$1+$1,$6,$7*
1,1,$1+$1,$8,$9*
0 Add four rect primitives between the rounded corners*
20,1,$1+$1,$2,$3,$4,$5,0*
20,1,$1+$1,$4,$5,$6,$7,0*
20,1,$1+$1,$6,$7,$8,$9,0*
20,1,$1+$1,$8,$9,$2,$3,0*%
G04 Aperture macros list end*
%ADD10C,0.150000*%
%ADD11C,0.254000*%
%ADD12C,0.120000*%
%ADD13C,0.200000*%
%ADD14C,0.100000*%
%ADD15RoundRect,0.250000X-0.250000X-1.150000X0.250000X-1.150000X0.250000X1.150000X-0.250000X1.150000X0*%
%ADD16RoundRect,0.150000X-0.150000X-0.700000X0.150000X-0.700000X0.150000X0.700000X-0.150000X0.700000X0*%
%ADD17RoundRect,0.250000X-0.475000X0.250000X-0.475000X-0.250000X0.475000X-0.250000X0.475000X0.250000X0*%
%ADD18C,1.600000*%
%ADD19RoundRect,0.250000X-0.550000X-0.550000X0.550000X-0.550000X0.550000X0.550000X-0.550000X0.550000X0*%
%ADD20C,3.800000*%
%ADD21RoundRect,0.760000X1.140000X1.140000X-1.140000X1.140000X-1.140000X-1.140000X1.140000X-1.140000X0*%
%ADD22RoundRect,0.237500X-0.237500X0.250000X-0.237500X-0.250000X0.237500X-0.250000X0.237500X0.250000X0*%
%ADD23RoundRect,0.237500X0.300000X0.237500X-0.300000X0.237500X-0.300000X-0.237500X0.300000X-0.237500X0*%
%ADD24RoundRect,0.150000X-0.825000X-0.150000X0.825000X-0.150000X0.825000X0.150000X-0.825000X0.150000X0*%
%ADD25C,1.400000*%
%ADD26C,2.200000*%
%ADD27R,1.520000X10.160000*%
%ADD28RoundRect,0.237500X0.237500X-0.250000X0.237500X0.250000X-0.237500X0.250000X-0.237500X-0.250000X0*%
%ADD29RoundRect,0.760000X-1.140000X-1.140000X1.140000X-1.140000X1.140000X1.140000X-1.140000X1.140000X0*%
%ADD30C,4.000000*%
G04 APERTURE END LIST*
D10*
X144166666Y-95954819D02*
X144166666Y-96669104D01*
X144166666Y-96669104D02*
X144119047Y-96811961D01*
X144119047Y-96811961D02*
X144023809Y-96907200D01*
X144023809Y-96907200D02*
X143880952Y-96954819D01*
X143880952Y-96954819D02*
X143785714Y-96954819D01*
X144547619Y-95954819D02*
X145166666Y-95954819D01*
X145166666Y-95954819D02*
X144833333Y-96335771D01*
X144833333Y-96335771D02*
X144976190Y-96335771D01*
X144976190Y-96335771D02*
X145071428Y-96383390D01*
X145071428Y-96383390D02*
X145119047Y-96431009D01*
X145119047Y-96431009D02*
X145166666Y-96526247D01*
X145166666Y-96526247D02*
X145166666Y-96764342D01*
X145166666Y-96764342D02*
X145119047Y-96859580D01*
X145119047Y-96859580D02*
X145071428Y-96907200D01*
X145071428Y-96907200D02*
X144976190Y-96954819D01*
X144976190Y-96954819D02*
X144690476Y-96954819D01*
X144690476Y-96954819D02*
X144595238Y-96907200D01*
X144595238Y-96907200D02*
X144547619Y-96859580D01*
X144166666Y-102454819D02*
X144166666Y-103169104D01*
X144166666Y-103169104D02*
X144119047Y-103311961D01*
X144119047Y-103311961D02*
X144023809Y-103407200D01*
X144023809Y-103407200D02*
X143880952Y-103454819D01*
X143880952Y-103454819D02*
X143785714Y-103454819D01*
X145071428Y-102788152D02*
X145071428Y-103454819D01*
X144833333Y-102407200D02*
X144595238Y-103121485D01*
X144595238Y-103121485D02*
X145214285Y-103121485D01*
X151583333Y-107109580D02*
X151535714Y-107157200D01*
X151535714Y-107157200D02*
X151392857Y-107204819D01*
X151392857Y-107204819D02*
X151297619Y-107204819D01*
X151297619Y-107204819D02*
X151154762Y-107157200D01*
X151154762Y-107157200D02*
X151059524Y-107061961D01*
X151059524Y-107061961D02*
X151011905Y-106966723D01*
X151011905Y-106966723D02*
X150964286Y-106776247D01*
X150964286Y-106776247D02*
X150964286Y-106633390D01*
X150964286Y-106633390D02*
X151011905Y-106442914D01*
X151011905Y-106442914D02*
X151059524Y-106347676D01*
X151059524Y-106347676D02*
X151154762Y-106252438D01*
X151154762Y-106252438D02*
X151297619Y-106204819D01*
X151297619Y-106204819D02*
X151392857Y-106204819D01*
X151392857Y-106204819D02*
X151535714Y-106252438D01*
X151535714Y-106252438D02*
X151583333Y-106300057D01*
X152488095Y-106204819D02*
X152011905Y-106204819D01*
X152011905Y-106204819D02*
X151964286Y-106681009D01*
X151964286Y-106681009D02*
X152011905Y-106633390D01*
X152011905Y-106633390D02*
X152107143Y-106585771D01*
X152107143Y-106585771D02*
X152345238Y-106585771D01*
X152345238Y-106585771D02*
X152440476Y-106633390D01*
X152440476Y-106633390D02*
X152488095Y-106681009D01*
X152488095Y-106681009D02*
X152535714Y-106776247D01*
X152535714Y-106776247D02*
X152535714Y-107014342D01*
X152535714Y-107014342D02*
X152488095Y-107109580D01*
X152488095Y-107109580D02*
X152440476Y-107157200D01*
X152440476Y-107157200D02*
X152345238Y-107204819D01*
X152345238Y-107204819D02*
X152107143Y-107204819D01*
X152107143Y-107204819D02*
X152011905Y-107157200D01*
X152011905Y-107157200D02*
X151964286Y-107109580D01*
X138930682Y-118859580D02*
X138883063Y-118907200D01*
X138883063Y-118907200D02*
X138740206Y-118954819D01*
X138740206Y-118954819D02*
X138644968Y-118954819D01*
X138644968Y-118954819D02*
X138502111Y-118907200D01*
X138502111Y-118907200D02*
X138406873Y-118811961D01*
X138406873Y-118811961D02*
X138359254Y-118716723D01*
X138359254Y-118716723D02*
X138311635Y-118526247D01*
X138311635Y-118526247D02*
X138311635Y-118383390D01*
X138311635Y-118383390D02*
X138359254Y-118192914D01*
X138359254Y-118192914D02*
X138406873Y-118097676D01*
X138406873Y-118097676D02*
X138502111Y-118002438D01*
X138502111Y-118002438D02*
X138644968Y-117954819D01*
X138644968Y-117954819D02*
X138740206Y-117954819D01*
X138740206Y-117954819D02*
X138883063Y-118002438D01*
X138883063Y-118002438D02*
X138930682Y-118050057D01*
X139787825Y-118288152D02*
X139787825Y-118954819D01*
X139549730Y-117907200D02*
X139311635Y-118621485D01*
X139311635Y-118621485D02*
X139930682Y-118621485D01*
X129166666Y-114454819D02*
X129166666Y-115169104D01*
X129166666Y-115169104D02*
X129119047Y-115311961D01*
X129119047Y-115311961D02*
X129023809Y-115407200D01*
X129023809Y-115407200D02*
X128880952Y-115454819D01*
X128880952Y-115454819D02*
X128785714Y-115454819D01*
X129595238Y-114550057D02*
X129642857Y-114502438D01*
X129642857Y-114502438D02*
X129738095Y-114454819D01*
X129738095Y-114454819D02*
X129976190Y-114454819D01*
X129976190Y-114454819D02*
X130071428Y-114502438D01*
X130071428Y-114502438D02*
X130119047Y-114550057D01*
X130119047Y-114550057D02*
X130166666Y-114645295D01*
X130166666Y-114645295D02*
X130166666Y-114740533D01*
X130166666Y-114740533D02*
X130119047Y-114883390D01*
X130119047Y-114883390D02*
X129547619Y-115454819D01*
X129547619Y-115454819D02*
X130166666Y-115454819D01*
X137928571Y-111114700D02*
X139071429Y-111114700D01*
X124928571Y-111114700D02*
X126071429Y-111114700D01*
X125500000Y-111686128D02*
X125500000Y-110543271D01*
X138333333Y-112704819D02*
X138000000Y-112228628D01*
X137761905Y-112704819D02*
X137761905Y-111704819D01*
X137761905Y-111704819D02*
X138142857Y-111704819D01*
X138142857Y-111704819D02*
X138238095Y-111752438D01*
X138238095Y-111752438D02*
X138285714Y-111800057D01*
X138285714Y-111800057D02*
X138333333Y-111895295D01*
X138333333Y-111895295D02*
X138333333Y-112038152D01*
X138333333Y-112038152D02*
X138285714Y-112133390D01*
X138285714Y-112133390D02*
X138238095Y-112181009D01*
X138238095Y-112181009D02*
X138142857Y-112228628D01*
X138142857Y-112228628D02*
X137761905Y-112228628D01*
X139285714Y-112704819D02*
X138714286Y-112704819D01*
X139000000Y-112704819D02*
X139000000Y-111704819D01*
X139000000Y-111704819D02*
X138904762Y-111847676D01*
X138904762Y-111847676D02*
X138809524Y-111942914D01*
X138809524Y-111942914D02*
X138714286Y-111990533D01*
X129833333Y-107289580D02*
X129785714Y-107337200D01*
X129785714Y-107337200D02*
X129642857Y-107384819D01*
X129642857Y-107384819D02*
X129547619Y-107384819D01*
X129547619Y-107384819D02*
X129404762Y-107337200D01*
X129404762Y-107337200D02*
X129309524Y-107241961D01*
X129309524Y-107241961D02*
X129261905Y-107146723D01*
X129261905Y-107146723D02*
X129214286Y-106956247D01*
X129214286Y-106956247D02*
X129214286Y-106813390D01*
X129214286Y-106813390D02*
X129261905Y-106622914D01*
X129261905Y-106622914D02*
X129309524Y-106527676D01*
X129309524Y-106527676D02*
X129404762Y-106432438D01*
X129404762Y-106432438D02*
X129547619Y-106384819D01*
X129547619Y-106384819D02*
X129642857Y-106384819D01*
X129642857Y-106384819D02*
X129785714Y-106432438D01*
X129785714Y-106432438D02*
X129833333Y-106480057D01*
X130785714Y-107384819D02*
X130214286Y-107384819D01*
X130500000Y-107384819D02*
X130500000Y-106384819D01*
X130500000Y-106384819D02*
X130404762Y-106527676D01*
X130404762Y-106527676D02*
X130309524Y-106622914D01*
X130309524Y-106622914D02*
X130214286Y-106670533D01*
X134738095Y-101054819D02*
X134738095Y-101864342D01*
X134738095Y-101864342D02*
X134785714Y-101959580D01*
X134785714Y-101959580D02*
X134833333Y-102007200D01*
X134833333Y-102007200D02*
X134928571Y-102054819D01*
X134928571Y-102054819D02*
X135119047Y-102054819D01*
X135119047Y-102054819D02*
X135214285Y-102007200D01*
X135214285Y-102007200D02*
X135261904Y-101959580D01*
X135261904Y-101959580D02*
X135309523Y-101864342D01*
X135309523Y-101864342D02*
X135309523Y-101054819D01*
X136309523Y-102054819D02*
X135738095Y-102054819D01*
X136023809Y-102054819D02*
X136023809Y-101054819D01*
X136023809Y-101054819D02*
X135928571Y-101197676D01*
X135928571Y-101197676D02*
X135833333Y-101292914D01*
X135833333Y-101292914D02*
X135738095Y-101340533D01*
X142754819Y-92611904D02*
X142754819Y-92040476D01*
X143754819Y-92326190D02*
X142754819Y-92326190D01*
X143754819Y-91707142D02*
X142754819Y-91707142D01*
X142754819Y-91707142D02*
X142754819Y-91326190D01*
X142754819Y-91326190D02*
X142802438Y-91230952D01*
X142802438Y-91230952D02*
X142850057Y-91183333D01*
X142850057Y-91183333D02*
X142945295Y-91135714D01*
X142945295Y-91135714D02*
X143088152Y-91135714D01*
X143088152Y-91135714D02*
X143183390Y-91183333D01*
X143183390Y-91183333D02*
X143231009Y-91230952D01*
X143231009Y-91230952D02*
X143278628Y-91326190D01*
X143278628Y-91326190D02*
X143278628Y-91707142D01*
X143754819Y-90183333D02*
X143754819Y-90754761D01*
X143754819Y-90469047D02*
X142754819Y-90469047D01*
X142754819Y-90469047D02*
X142897676Y-90564285D01*
X142897676Y-90564285D02*
X142992914Y-90659523D01*
X142992914Y-90659523D02*
X143040533Y-90754761D01*
X147304819Y-92011904D02*
X146304819Y-92011904D01*
X146781009Y-92011904D02*
X146781009Y-91440476D01*
X147304819Y-91440476D02*
X146304819Y-91440476D01*
X146400057Y-91011904D02*
X146352438Y-90964285D01*
X146352438Y-90964285D02*
X146304819Y-90869047D01*
X146304819Y-90869047D02*
X146304819Y-90630952D01*
X146304819Y-90630952D02*
X146352438Y-90535714D01*
X146352438Y-90535714D02*
X146400057Y-90488095D01*
X146400057Y-90488095D02*
X146495295Y-90440476D01*
X146495295Y-90440476D02*
X146590533Y-90440476D01*
X146590533Y-90440476D02*
X146733390Y-90488095D01*
X146733390Y-90488095D02*
X147304819Y-91059523D01*
X147304819Y-91059523D02*
X147304819Y-90440476D01*
X127238095Y-119804819D02*
X127238095Y-118804819D01*
X127238095Y-119281009D02*
X127809523Y-119281009D01*
X127809523Y-119804819D02*
X127809523Y-118804819D01*
X128190476Y-118804819D02*
X128809523Y-118804819D01*
X128809523Y-118804819D02*
X128476190Y-119185771D01*
X128476190Y-119185771D02*
X128619047Y-119185771D01*
X128619047Y-119185771D02*
X128714285Y-119233390D01*
X128714285Y-119233390D02*
X128761904Y-119281009D01*
X128761904Y-119281009D02*
X128809523Y-119376247D01*
X128809523Y-119376247D02*
X128809523Y-119614342D01*
X128809523Y-119614342D02*
X128761904Y-119709580D01*
X128761904Y-119709580D02*
X128714285Y-119757200D01*
X128714285Y-119757200D02*
X128619047Y-119804819D01*
X128619047Y-119804819D02*
X128333333Y-119804819D01*
X128333333Y-119804819D02*
X128238095Y-119757200D01*
X128238095Y-119757200D02*
X128190476Y-119709580D01*
X126988095Y-94604819D02*
X126988095Y-93604819D01*
X126988095Y-94081009D02*
X127559523Y-94081009D01*
X127559523Y-94604819D02*
X127559523Y-93604819D01*
X128559523Y-94604819D02*
X127988095Y-94604819D01*
X128273809Y-94604819D02*
X128273809Y-93604819D01*
X128273809Y-93604819D02*
X128178571Y-93747676D01*
X128178571Y-93747676D02*
X128083333Y-93842914D01*
X128083333Y-93842914D02*
X127988095Y-93890533D01*
D11*
X136788333Y-96074318D02*
X136183571Y-96074318D01*
X136183571Y-96074318D02*
X136183571Y-94804318D01*
X137876905Y-96074318D02*
X137151190Y-96074318D01*
X137514047Y-96074318D02*
X137514047Y-94804318D01*
X137514047Y-94804318D02*
X137393095Y-94985746D01*
X137393095Y-94985746D02*
X137272143Y-95106699D01*
X137272143Y-95106699D02*
X137151190Y-95167175D01*
D10*
X147304819Y-122761904D02*
X146304819Y-122761904D01*
X146781009Y-122761904D02*
X146781009Y-122190476D01*
X147304819Y-122190476D02*
X146304819Y-122190476D01*
X146638152Y-121285714D02*
X147304819Y-121285714D01*
X146257200Y-121523809D02*
X146971485Y-121761904D01*
X146971485Y-121761904D02*
X146971485Y-121142857D01*
X127654819Y-98161904D02*
X127654819Y-97590476D01*
X128654819Y-97876190D02*
X127654819Y-97876190D01*
X128654819Y-97257142D02*
X127654819Y-97257142D01*
X127654819Y-97257142D02*
X127654819Y-96876190D01*
X127654819Y-96876190D02*
X127702438Y-96780952D01*
X127702438Y-96780952D02*
X127750057Y-96733333D01*
X127750057Y-96733333D02*
X127845295Y-96685714D01*
X127845295Y-96685714D02*
X127988152Y-96685714D01*
X127988152Y-96685714D02*
X128083390Y-96733333D01*
X128083390Y-96733333D02*
X128131009Y-96780952D01*
X128131009Y-96780952D02*
X128178628Y-96876190D01*
X128178628Y-96876190D02*
X128178628Y-97257142D01*
X127750057Y-96304761D02*
X127702438Y-96257142D01*
X127702438Y-96257142D02*
X127654819Y-96161904D01*
X127654819Y-96161904D02*
X127654819Y-95923809D01*
X127654819Y-95923809D02*
X127702438Y-95828571D01*
X127702438Y-95828571D02*
X127750057Y-95780952D01*
X127750057Y-95780952D02*
X127845295Y-95733333D01*
X127845295Y-95733333D02*
X127940533Y-95733333D01*
X127940533Y-95733333D02*
X128083390Y-95780952D01*
X128083390Y-95780952D02*
X128654819Y-96352380D01*
X128654819Y-96352380D02*
X128654819Y-95733333D01*
X141774819Y-105166666D02*
X141298628Y-105499999D01*
X141774819Y-105738094D02*
X140774819Y-105738094D01*
X140774819Y-105738094D02*
X140774819Y-105357142D01*
X140774819Y-105357142D02*
X140822438Y-105261904D01*
X140822438Y-105261904D02*
X140870057Y-105214285D01*
X140870057Y-105214285D02*
X140965295Y-105166666D01*
X140965295Y-105166666D02*
X141108152Y-105166666D01*
X141108152Y-105166666D02*
X141203390Y-105214285D01*
X141203390Y-105214285D02*
X141251009Y-105261904D01*
X141251009Y-105261904D02*
X141298628Y-105357142D01*
X141298628Y-105357142D02*
X141298628Y-105738094D01*
X141108152Y-104309523D02*
X141774819Y-104309523D01*
X140727200Y-104547618D02*
X141441485Y-104785713D01*
X141441485Y-104785713D02*
X141441485Y-104166666D01*
X144666666Y-106454819D02*
X144666666Y-107169104D01*
X144666666Y-107169104D02*
X144619047Y-107311961D01*
X144619047Y-107311961D02*
X144523809Y-107407200D01*
X144523809Y-107407200D02*
X144380952Y-107454819D01*
X144380952Y-107454819D02*
X144285714Y-107454819D01*
X145666666Y-107454819D02*
X145095238Y-107454819D01*
X145380952Y-107454819D02*
X145380952Y-106454819D01*
X145380952Y-106454819D02*
X145285714Y-106597676D01*
X145285714Y-106597676D02*
X145190476Y-106692914D01*
X145190476Y-106692914D02*
X145095238Y-106740533D01*
X150928571Y-111114700D02*
X152071429Y-111114700D01*
X151500000Y-111686128D02*
X151500000Y-110543271D01*
X137928571Y-111114700D02*
X139071429Y-111114700D01*
%TO.C,J3*%
D12*
X151985000Y-98860000D02*
X150185000Y-98860000D01*
X151985000Y-97260000D02*
X151985000Y-98860000D01*
X147815000Y-98860000D02*
X147815000Y-99800000D01*
X147285000Y-94390000D02*
X150715000Y-94390000D01*
X146015000Y-98860000D02*
X147815000Y-98860000D01*
X146015000Y-97260000D02*
X146015000Y-98860000D01*
%TO.C,J4*%
X151985000Y-105360000D02*
X150185000Y-105360000D01*
X151985000Y-103760000D02*
X151985000Y-105360000D01*
X147815000Y-105360000D02*
X147815000Y-106300000D01*
X147285000Y-100890000D02*
X150715000Y-100890000D01*
X146015000Y-105360000D02*
X147815000Y-105360000D01*
X146015000Y-103760000D02*
X146015000Y-105360000D01*
%TO.C,C5*%
X151015000Y-108988748D02*
X151015000Y-109511252D01*
X152485000Y-108988748D02*
X152485000Y-109511252D01*
%TO.C,C4*%
X137717349Y-118500000D02*
G75*
G02*
X129477349Y-118500000I-4120000J0D01*
G01*
X129477349Y-118500000D02*
G75*
G02*
X137717349Y-118500000I4120000J0D01*
G01*
X133637349Y-114420000D02*
X133637349Y-122580000D01*
X133597349Y-114420000D02*
X133597349Y-122580000D01*
X133677349Y-114421000D02*
X133677349Y-122579000D01*
X133717349Y-114422000D02*
X133717349Y-122578000D01*
X133757349Y-114423000D02*
X133757349Y-122577000D01*
X133797349Y-114425000D02*
X133797349Y-122575000D01*
X133837349Y-114427000D02*
X133837349Y-122573000D01*
X133877349Y-114430000D02*
X133877349Y-122570000D01*
X133917349Y-114432000D02*
X133917349Y-122568000D01*
X133957349Y-114436000D02*
X133957349Y-122564000D01*
X133997349Y-114439000D02*
X133997349Y-122561000D01*
X134037349Y-114444000D02*
X134037349Y-122556000D01*
X134077349Y-114448000D02*
X134077349Y-122552000D01*
X134117349Y-114453000D02*
X134117349Y-122547000D01*
X134157349Y-114458000D02*
X134157349Y-122542000D01*
X134197349Y-114464000D02*
X134197349Y-122536000D01*
X134237349Y-114470000D02*
X134237349Y-122530000D01*
X134277349Y-114477000D02*
X134277349Y-122523000D01*
X134317349Y-114483000D02*
X134317349Y-122517000D01*
X134357349Y-114491000D02*
X134357349Y-122509000D01*
X134397349Y-114498000D02*
X134397349Y-122502000D01*
X134437349Y-114507000D02*
X134437349Y-122493000D01*
X134477349Y-114515000D02*
X134477349Y-122485000D01*
X134517349Y-114524000D02*
X134517349Y-122476000D01*
X134557349Y-114533000D02*
X134557349Y-122467000D01*
X134597349Y-114543000D02*
X134597349Y-122457000D01*
X134637349Y-114553000D02*
X134637349Y-122447000D01*
X134677349Y-114564000D02*
X134677349Y-122436000D01*
X134717349Y-114575000D02*
X134717349Y-122425000D01*
X134757349Y-114587000D02*
X134757349Y-122413000D01*
X134797349Y-114599000D02*
X134797349Y-122401000D01*
X134837349Y-114611000D02*
X134837349Y-122389000D01*
X134877349Y-114624000D02*
X134877349Y-122376000D01*
X134917349Y-114637000D02*
X134917349Y-122363000D01*
X134957349Y-114651000D02*
X134957349Y-122349000D01*
X134997349Y-114665000D02*
X134997349Y-122335000D01*
X135037349Y-114680000D02*
X135037349Y-122320000D01*
X135077349Y-114695000D02*
X135077349Y-117460000D01*
X135117349Y-114711000D02*
X135117349Y-117460000D01*
X135157349Y-114727000D02*
X135157349Y-117460000D01*
X135197349Y-114743000D02*
X135197349Y-117460000D01*
X135237349Y-114760000D02*
X135237349Y-117460000D01*
X135277349Y-114778000D02*
X135277349Y-117460000D01*
X135317349Y-114796000D02*
X135317349Y-117460000D01*
X135357349Y-114815000D02*
X135357349Y-117460000D01*
X135397349Y-114834000D02*
X135397349Y-117460000D01*
X135437349Y-114854000D02*
X135437349Y-117460000D01*
X135477349Y-114874000D02*
X135477349Y-117460000D01*
X135517349Y-114895000D02*
X135517349Y-117460000D01*
X135557349Y-114916000D02*
X135557349Y-117460000D01*
X135597349Y-114938000D02*
X135597349Y-117460000D01*
X135637349Y-114961000D02*
X135637349Y-117460000D01*
X135677349Y-114984000D02*
X135677349Y-117460000D01*
X135717349Y-115007000D02*
X135717349Y-117460000D01*
X135757349Y-115032000D02*
X135757349Y-117460000D01*
X135797349Y-115057000D02*
X135797349Y-117460000D01*
X135837349Y-115082000D02*
X135837349Y-117460000D01*
X135877349Y-115108000D02*
X135877349Y-117460000D01*
X135917349Y-115135000D02*
X135917349Y-117460000D01*
X135957349Y-115163000D02*
X135957349Y-117460000D01*
X135997349Y-115191000D02*
X135997349Y-117460000D01*
X136037349Y-115220000D02*
X136037349Y-117460000D01*
X136077349Y-115250000D02*
X136077349Y-117460000D01*
X136117349Y-115281000D02*
X136117349Y-117460000D01*
X136157349Y-115312000D02*
X136157349Y-117460000D01*
X136197349Y-115344000D02*
X136197349Y-117460000D01*
X136237349Y-115377000D02*
X136237349Y-117460000D01*
X136277349Y-115411000D02*
X136277349Y-117460000D01*
X136317349Y-115445000D02*
X136317349Y-117460000D01*
X136357349Y-115481000D02*
X136357349Y-117460000D01*
X136397349Y-115518000D02*
X136397349Y-117460000D01*
X136437349Y-115555000D02*
X136437349Y-117460000D01*
X136477349Y-115594000D02*
X136477349Y-117460000D01*
X136517349Y-115633000D02*
X136517349Y-117460000D01*
X136557349Y-115674000D02*
X136557349Y-117460000D01*
X136597349Y-115716000D02*
X136597349Y-117460000D01*
X136637349Y-115759000D02*
X136637349Y-117460000D01*
X129587651Y-115785000D02*
X129587651Y-116585000D01*
X136677349Y-115804000D02*
X136677349Y-117460000D01*
X136717349Y-115849000D02*
X136717349Y-117460000D01*
X136757349Y-115896000D02*
X136757349Y-117460000D01*
X136797349Y-115945000D02*
X136797349Y-117460000D01*
X136837349Y-115995000D02*
X136837349Y-117460000D01*
X136877349Y-116047000D02*
X136877349Y-117460000D01*
X136917349Y-116100000D02*
X136917349Y-117460000D01*
X136957349Y-116156000D02*
X136957349Y-117460000D01*
X129187651Y-116185000D02*
X129987651Y-116185000D01*
X136997349Y-116213000D02*
X136997349Y-117460000D01*
X137037349Y-116273000D02*
X137037349Y-117460000D01*
X137077349Y-116335000D02*
X137077349Y-117460000D01*
X137117349Y-116399000D02*
X137117349Y-117460000D01*
X137157349Y-116466000D02*
X137157349Y-120534000D01*
X137197349Y-116536000D02*
X137197349Y-120464000D01*
X137237349Y-116610000D02*
X137237349Y-120390000D01*
X137277349Y-116687000D02*
X137277349Y-120313000D01*
X137317349Y-116769000D02*
X137317349Y-120231000D01*
X137357349Y-116856000D02*
X137357349Y-120144000D01*
X137397349Y-116948000D02*
X137397349Y-120052000D01*
X137437349Y-117047000D02*
X137437349Y-119953000D01*
X137477349Y-117154000D02*
X137477349Y-119846000D01*
X137517349Y-117272000D02*
X137517349Y-119728000D01*
X137557349Y-117403000D02*
X137557349Y-119597000D01*
X137597349Y-117553000D02*
X137597349Y-119447000D01*
X137637349Y-117732000D02*
X137637349Y-119268000D01*
X137677349Y-117967000D02*
X137677349Y-119033000D01*
X137117349Y-119540000D02*
X137117349Y-120601000D01*
X137077349Y-119540000D02*
X137077349Y-120665000D01*
X137037349Y-119540000D02*
X137037349Y-120727000D01*
X136997349Y-119540000D02*
X136997349Y-120787000D01*
X136957349Y-119540000D02*
X136957349Y-120844000D01*
X136917349Y-119540000D02*
X136917349Y-120900000D01*
X136877349Y-119540000D02*
X136877349Y-120953000D01*
X136837349Y-119540000D02*
X136837349Y-121005000D01*
X136797349Y-119540000D02*
X136797349Y-121055000D01*
X136757349Y-119540000D02*
X136757349Y-121104000D01*
X136717349Y-119540000D02*
X136717349Y-121151000D01*
X136677349Y-119540000D02*
X136677349Y-121196000D01*
X136637349Y-119540000D02*
X136637349Y-121241000D01*
X136597349Y-119540000D02*
X136597349Y-121284000D01*
X136557349Y-119540000D02*
X136557349Y-121326000D01*
X136517349Y-119540000D02*
X136517349Y-121367000D01*
X136477349Y-119540000D02*
X136477349Y-121406000D01*
X136437349Y-119540000D02*
X136437349Y-121445000D01*
X136397349Y-119540000D02*
X136397349Y-121482000D01*
X136357349Y-119540000D02*
X136357349Y-121519000D01*
X136317349Y-119540000D02*
X136317349Y-121555000D01*
X136277349Y-119540000D02*
X136277349Y-121589000D01*
X136237349Y-119540000D02*
X136237349Y-121623000D01*
X136197349Y-119540000D02*
X136197349Y-121656000D01*
X136157349Y-119540000D02*
X136157349Y-121688000D01*
X136117349Y-119540000D02*
X136117349Y-121719000D01*
X136077349Y-119540000D02*
X136077349Y-121750000D01*
X136037349Y-119540000D02*
X136037349Y-121780000D01*
X135997349Y-119540000D02*
X135997349Y-121809000D01*
X135957349Y-119540000D02*
X135957349Y-121837000D01*
X135917349Y-119540000D02*
X135917349Y-121865000D01*
X135877349Y-119540000D02*
X135877349Y-121892000D01*
X135837349Y-119540000D02*
X135837349Y-121918000D01*
X135797349Y-119540000D02*
X135797349Y-121943000D01*
X135757349Y-119540000D02*
X135757349Y-121968000D01*
X135717349Y-119540000D02*
X135717349Y-121993000D01*
X135677349Y-119540000D02*
X135677349Y-122016000D01*
X135637349Y-119540000D02*
X135637349Y-122039000D01*
X135597349Y-119540000D02*
X135597349Y-122062000D01*
X135557349Y-119540000D02*
X135557349Y-122084000D01*
X135517349Y-119540000D02*
X135517349Y-122105000D01*
X135477349Y-119540000D02*
X135477349Y-122126000D01*
X135437349Y-119540000D02*
X135437349Y-122146000D01*
X135397349Y-119540000D02*
X135397349Y-122166000D01*
X135357349Y-119540000D02*
X135357349Y-122185000D01*
X135317349Y-119540000D02*
X135317349Y-122204000D01*
X135277349Y-119540000D02*
X135277349Y-122222000D01*
X135237349Y-119540000D02*
X135237349Y-122240000D01*
X135197349Y-119540000D02*
X135197349Y-122257000D01*
X135157349Y-119540000D02*
X135157349Y-122273000D01*
X135117349Y-119540000D02*
X135117349Y-122289000D01*
X135077349Y-119540000D02*
X135077349Y-122305000D01*
%TO.C,J2*%
X137210000Y-112410000D02*
X137210000Y-109590000D01*
X137210000Y-112410000D02*
X135510000Y-113710000D01*
X137210000Y-109590000D02*
X135510000Y-108290000D01*
X135510000Y-113710000D02*
X126790000Y-113710000D01*
X135510000Y-108290000D02*
X126790000Y-108290000D01*
X126790000Y-113710000D02*
X126790000Y-108290000D01*
%TO.C,R1*%
X137977500Y-108995276D02*
X137977500Y-109504724D01*
X139022500Y-108995276D02*
X139022500Y-109504724D01*
%TO.C,C1*%
X130146267Y-106010000D02*
X129853733Y-106010000D01*
X130146267Y-104990000D02*
X129853733Y-104990000D01*
%TO.C,U1*%
X133440000Y-102440000D02*
X137560000Y-102440000D01*
X133440000Y-102535000D02*
X133440000Y-102440000D01*
X133440000Y-107560000D02*
X133440000Y-107465000D01*
X137560000Y-102440000D02*
X137560000Y-102535000D01*
X137560000Y-107465000D02*
X137560000Y-107560000D01*
X137560000Y-107560000D02*
X133440000Y-107560000D01*
X132900000Y-102530000D02*
X132660000Y-102200000D01*
X133140000Y-102200000D01*
X132900000Y-102530000D01*
G36*
X132900000Y-102530000D02*
G01*
X132660000Y-102200000D01*
X133140000Y-102200000D01*
X132900000Y-102530000D01*
G37*
%TO.C,TP1*%
X144100000Y-89350000D02*
X144100000Y-93150000D01*
X144100000Y-93150000D02*
X145900000Y-93150000D01*
X145900000Y-89350000D02*
X144100000Y-89350000D01*
X145900000Y-93150000D02*
X145900000Y-89350000D01*
%TO.C,L1*%
D13*
X142590000Y-89975000D02*
X131410000Y-89975000D01*
X142590000Y-101025000D02*
X131410000Y-101025000D01*
D14*
X143100000Y-95500000D02*
X143100000Y-95500000D01*
X143200000Y-95500000D02*
X143200000Y-95500000D01*
X143100000Y-95500000D02*
G75*
G02*
X143200000Y-95500000I50000J0D01*
G01*
X143200000Y-95500000D02*
G75*
G02*
X143100000Y-95500000I-50000J0D01*
G01*
%TO.C,TP2*%
D12*
X127400000Y-98900000D02*
X127400000Y-95100000D01*
X127400000Y-95100000D02*
X125600000Y-95100000D01*
X125600000Y-98900000D02*
X127400000Y-98900000D01*
X125600000Y-95100000D02*
X125600000Y-98900000D01*
%TO.C,R4*%
X142227500Y-105254724D02*
X142227500Y-104745276D01*
X143272500Y-105254724D02*
X143272500Y-104745276D01*
%TO.C,J1*%
X150210000Y-108290000D02*
X150210000Y-113710000D01*
X141490000Y-108290000D02*
X150210000Y-108290000D01*
X139790000Y-109590000D02*
X141490000Y-108290000D01*
X139790000Y-109590000D02*
X139790000Y-112410000D01*
X139790000Y-112410000D02*
X141490000Y-113710000D01*
X141490000Y-113710000D02*
X150210000Y-113710000D01*
%TD*%
%LPC*%
D15*
%TO.C,J3*%
X151475000Y-95600000D03*
X146525000Y-95600000D03*
D16*
X149625000Y-98950000D03*
X148375000Y-98950000D03*
%TD*%
D15*
%TO.C,J4*%
X151475000Y-102100000D03*
X146525000Y-102100000D03*
D16*
X149625000Y-105450000D03*
X148375000Y-105450000D03*
%TD*%
D17*
%TO.C,C5*%
X151750000Y-108300000D03*
X151750000Y-110200000D03*
%TD*%
D18*
%TO.C,C4*%
X136097349Y-118500000D03*
D19*
X131097349Y-118500000D03*
%TD*%
D20*
%TO.C,J2*%
X129500000Y-111000000D03*
D21*
X134500000Y-111000000D03*
%TD*%
D22*
%TO.C,R1*%
X138500000Y-108337500D03*
X138500000Y-110162500D03*
%TD*%
D23*
%TO.C,C1*%
X130862500Y-105500000D03*
X129137500Y-105500000D03*
%TD*%
D24*
%TO.C,U1*%
X133025000Y-103095000D03*
X133025000Y-104365000D03*
X133025000Y-105635000D03*
X133025000Y-106905000D03*
X137975000Y-106905000D03*
X137975000Y-105635000D03*
X137975000Y-104365000D03*
X137975000Y-103095000D03*
%TD*%
D25*
%TO.C,TP1*%
X145000000Y-90250000D03*
X145000000Y-92250000D03*
%TD*%
D26*
%TO.C,H2*%
X150000000Y-91250000D03*
%TD*%
%TO.C,H3*%
X128000000Y-122500000D03*
%TD*%
%TO.C,H1*%
X127750000Y-91000000D03*
%TD*%
D27*
%TO.C,L1*%
X141570000Y-95500000D03*
X132430000Y-95500000D03*
%TD*%
D26*
%TO.C,H4*%
X150000000Y-122000000D03*
%TD*%
D25*
%TO.C,TP2*%
X126500000Y-98000000D03*
X126500000Y-96000000D03*
%TD*%
D28*
%TO.C,R4*%
X142750000Y-105912500D03*
X142750000Y-104087500D03*
%TD*%
D29*
%TO.C,J1*%
X142500000Y-111000000D03*
D30*
X147500000Y-111000000D03*
%TD*%
%LPD*%
M02*
