%TF.GenerationSoftware,KiCad,Pcbnew,10.0.6*%
%TF.CreationDate,2026-09-19T19:50:07-05:00*%
%TF.ProjectId,Onboarding,4f6e626f-6172-4646-996e-672e6b696361,rev?*%
%TF.SameCoordinates,Original*%
%TF.FileFunction,Copper,L2,Bot*%
%TF.FilePolarity,Positive*%
%FSLAX46Y46*%
G04 Gerber Fmt 4.6, Leading zero omitted, Abs format (unit mm)*
G04 Created by KiCad (PCBNEW 10.0.6) date 2026-09-19 19:50:07*
%MOMM*%
%LPD*%
G01*
G04 APERTURE LIST*
G04 Aperture macros list*
%AMRoundRect*
0 Rectangle with rounded corners*
0 $1 Rounding radius*
0 $2 $3 $4 $5 $6 $7 $8 $9 X,Y pos of 4 corners*
0 Add a 4 corners polygon primitive as box body*
4,1,4,$2,$3,$4,$5,$6,$7,$8,$9,$2,$3,0*
0 Add four circle primitives for the rounded corners*
1,1,$1+$1,$2,$3*
1,1,$1+$1,$4,$5*
1,1,$1+$1,$6,$7*
1,1,$1+$1,$8,$9*
0 Add four rect primitives between the rounded corners*
20,1,$1+$1,$2,$3,$4,$5,0*
20,1,$1+$1,$4,$5,$6,$7,0*
20,1,$1+$1,$6,$7,$8,$9,0*
20,1,$1+$1,$8,$9,$2,$3,0*%
G04 Aperture macros list end*
%TA.AperFunction,ComponentPad*%
%ADD10RoundRect,0.760000X1.140000X-1.140000X1.140000X1.140000X-1.140000X1.140000X-1.140000X-1.140000X0*%
%TD*%
%TA.AperFunction,ComponentPad*%
%ADD11C,4.000000*%
%TD*%
%TA.AperFunction,ComponentPad*%
%ADD12C,1.400000*%
%TD*%
%TA.AperFunction,ComponentPad*%
%ADD13RoundRect,0.250000X-0.550000X0.550000X-0.550000X-0.550000X0.550000X-0.550000X0.550000X0.550000X0*%
%TD*%
%TA.AperFunction,ComponentPad*%
%ADD14C,1.600000*%
%TD*%
%TA.AperFunction,ComponentPad*%
%ADD15RoundRect,0.760000X-1.140000X1.140000X-1.140000X-1.140000X1.140000X-1.140000X1.140000X1.140000X0*%
%TD*%
%TA.AperFunction,ComponentPad*%
%ADD16C,3.800000*%
%TD*%
%TA.AperFunction,ViaPad*%
%ADD17C,0.600000*%
%TD*%
G04 APERTURE END LIST*
D10*
%TO.P,J1,1,Pin_1_1*%
%TO.N,GND*%
X149500000Y-116000000D03*
D11*
%TO.P,J1,2,Pin_2_2*%
%TO.N,+12V*%
X149500000Y-111000000D03*
%TD*%
D12*
%TO.P,TP1,1,1_1*%
%TO.N,Net-(U1-I_{PK})*%
X143500000Y-100000000D03*
X143500000Y-102000000D03*
%TD*%
D13*
%TO.P,C4,1*%
%TO.N,VCC*%
X138500000Y-116597349D03*
D14*
%TO.P,C4,2*%
%TO.N,GND*%
X138500000Y-121597349D03*
%TD*%
D15*
%TO.P,J2,1,Pin_1_1*%
%TO.N,GND*%
X128500000Y-111500000D03*
D16*
%TO.P,J2,2,Pin_2_2*%
%TO.N,VCC*%
X128500000Y-116500000D03*
%TD*%
D12*
%TO.P,TP2,1,1_1*%
%TO.N,Net-(D1-A)*%
X128500000Y-96500000D03*
X128500000Y-98500000D03*
%TD*%
D17*
%TO.N,GND*%
X132500000Y-101000000D03*
X132500000Y-99000000D03*
X133500000Y-100000000D03*
X134500000Y-105500000D03*
X133025000Y-106905000D03*
X133025000Y-104365000D03*
%TO.N,+12V*%
X137975000Y-105635000D03*
X148000000Y-107000000D03*
%TD*%
%TA.AperFunction,Conductor*%
%TO.N,GND*%
G36*
X149998084Y-85000556D02*
G01*
X150001848Y-85000669D01*
X150005575Y-85000837D01*
X150290069Y-85018045D01*
X150297505Y-85018721D01*
X150304951Y-85019625D01*
X150312324Y-85020747D01*
X150587134Y-85071108D01*
X150594431Y-85072675D01*
X150601691Y-85074465D01*
X150601703Y-85074468D01*
X150608909Y-85076477D01*
X150875613Y-85159586D01*
X150882663Y-85162018D01*
X150889671Y-85164675D01*
X150896567Y-85167532D01*
X151151322Y-85282188D01*
X151158048Y-85285464D01*
X151164684Y-85288947D01*
X151171191Y-85292617D01*
X151410260Y-85437137D01*
X151416534Y-85441194D01*
X151422686Y-85445440D01*
X151428711Y-85449872D01*
X151648621Y-85622161D01*
X151654379Y-85626960D01*
X151659984Y-85631926D01*
X151665434Y-85637057D01*
X151862941Y-85834564D01*
X151868072Y-85840014D01*
X151873038Y-85845619D01*
X151877837Y-85851377D01*
X152050117Y-86071275D01*
X152054538Y-86077283D01*
X152058817Y-86083483D01*
X152062854Y-86089727D01*
X152207385Y-86328813D01*
X152211062Y-86335333D01*
X152214543Y-86341967D01*
X152217816Y-86348690D01*
X152332452Y-86603398D01*
X152335321Y-86610323D01*
X152337980Y-86617335D01*
X152340421Y-86624412D01*
X152423520Y-86891087D01*
X152425526Y-86898282D01*
X152427322Y-86905566D01*
X152428893Y-86912881D01*
X152479247Y-87187655D01*
X152480373Y-87195051D01*
X152481275Y-87202475D01*
X152481954Y-87209944D01*
X152499160Y-87494384D01*
X152499329Y-87498117D01*
X152499443Y-87501881D01*
X152499500Y-87505635D01*
X152499500Y-121994363D01*
X152499443Y-121998117D01*
X152499329Y-122001881D01*
X152499160Y-122005614D01*
X152481954Y-122290054D01*
X152481275Y-122297523D01*
X152480373Y-122304947D01*
X152479247Y-122312343D01*
X152428893Y-122587117D01*
X152427319Y-122594449D01*
X152425530Y-122601705D01*
X152423520Y-122608911D01*
X152340421Y-122875586D01*
X152337980Y-122882663D01*
X152335321Y-122889675D01*
X152332452Y-122896600D01*
X152217816Y-123151308D01*
X152214543Y-123158031D01*
X152211062Y-123164665D01*
X152207381Y-123171192D01*
X152158801Y-123251555D01*
X152062863Y-123410257D01*
X152058807Y-123416530D01*
X152054549Y-123422699D01*
X152050117Y-123428723D01*
X151877837Y-123648621D01*
X151873038Y-123654379D01*
X151868072Y-123659984D01*
X151862941Y-123665434D01*
X151665434Y-123862941D01*
X151659984Y-123868072D01*
X151654379Y-123873038D01*
X151648621Y-123877837D01*
X151428723Y-124050117D01*
X151422699Y-124054549D01*
X151416530Y-124058807D01*
X151410255Y-124062863D01*
X151171192Y-124207381D01*
X151164665Y-124211062D01*
X151158031Y-124214543D01*
X151151308Y-124217816D01*
X150896600Y-124332452D01*
X150889675Y-124335321D01*
X150882663Y-124337980D01*
X150875586Y-124340421D01*
X150608911Y-124423520D01*
X150601708Y-124425529D01*
X150594439Y-124427321D01*
X150587117Y-124428893D01*
X150312343Y-124479247D01*
X150304947Y-124480373D01*
X150297523Y-124481275D01*
X150290054Y-124481954D01*
X150005614Y-124499160D01*
X150001881Y-124499329D01*
X149998117Y-124499443D01*
X149994363Y-124499500D01*
X128005637Y-124499500D01*
X128001884Y-124499443D01*
X127998119Y-124499329D01*
X127994385Y-124499160D01*
X127709944Y-124481954D01*
X127702475Y-124481275D01*
X127695051Y-124480373D01*
X127687655Y-124479247D01*
X127412881Y-124428893D01*
X127405566Y-124427322D01*
X127398282Y-124425526D01*
X127391087Y-124423520D01*
X127124407Y-124340420D01*
X127117334Y-124337980D01*
X127110310Y-124335316D01*
X127103420Y-124332461D01*
X127048880Y-124307915D01*
X126954096Y-124265255D01*
X126954096Y-124265256D01*
X126848683Y-124217813D01*
X126841951Y-124214535D01*
X126835324Y-124211057D01*
X126828820Y-124207389D01*
X126589727Y-124062854D01*
X126583483Y-124058817D01*
X126577283Y-124054538D01*
X126571275Y-124050117D01*
X126351377Y-123877837D01*
X126345619Y-123873038D01*
X126340014Y-123868072D01*
X126334564Y-123862941D01*
X126137057Y-123665434D01*
X126131926Y-123659984D01*
X126126960Y-123654379D01*
X126122161Y-123648621D01*
X125949872Y-123428711D01*
X125945444Y-123422691D01*
X125941192Y-123416532D01*
X125937147Y-123410275D01*
X125792602Y-123171167D01*
X125788941Y-123164674D01*
X125785463Y-123158047D01*
X125782191Y-123151329D01*
X125667532Y-122896567D01*
X125664672Y-122889662D01*
X125662018Y-122882663D01*
X125659581Y-122875599D01*
X125641084Y-122816241D01*
X125576478Y-122608911D01*
X125575141Y-122603516D01*
X125574468Y-122601703D01*
X125572677Y-122594437D01*
X125571107Y-122587127D01*
X125538866Y-122411193D01*
X125535663Y-122393713D01*
X126649500Y-122393713D01*
X126649500Y-122398157D01*
X126649500Y-122606291D01*
X126649916Y-122608916D01*
X126659534Y-122669644D01*
X126665801Y-122709209D01*
X126681226Y-122806598D01*
X126681601Y-122811362D01*
X126683770Y-122820553D01*
X126685623Y-122825074D01*
X126705528Y-122886335D01*
X126709107Y-122897349D01*
X126748445Y-123018418D01*
X126841532Y-123201111D01*
X126844951Y-123207820D01*
X126969890Y-123379786D01*
X126969892Y-123379788D01*
X127120216Y-123530112D01*
X127292183Y-123655052D01*
X127292471Y-123655197D01*
X127481588Y-123751557D01*
X127683757Y-123817246D01*
X127893713Y-123850500D01*
X127893714Y-123850500D01*
X128106286Y-123850500D01*
X128106287Y-123850500D01*
X128316243Y-123817246D01*
X128518412Y-123751557D01*
X128707816Y-123655051D01*
X128729789Y-123639086D01*
X128879786Y-123530109D01*
X128879786Y-123530108D01*
X128879844Y-123530066D01*
X128880605Y-123529290D01*
X129029290Y-123380605D01*
X129030065Y-123379845D01*
X129030124Y-123379765D01*
X129075546Y-123317246D01*
X129155048Y-123207820D01*
X129155047Y-123207820D01*
X129155051Y-123207816D01*
X129155053Y-123207810D01*
X129175445Y-123179744D01*
X129183730Y-123151529D01*
X129251557Y-123018412D01*
X129317246Y-122816243D01*
X129350500Y-122606287D01*
X129350500Y-122393713D01*
X129317246Y-122183757D01*
X129251557Y-121981588D01*
X129155197Y-121792471D01*
X129155052Y-121792183D01*
X129030112Y-121620216D01*
X128904921Y-121495025D01*
X137200000Y-121495025D01*
X137200000Y-121699671D01*
X137232008Y-121901759D01*
X137232009Y-121901766D01*
X137295244Y-122096380D01*
X137339767Y-122183760D01*
X137388145Y-122278707D01*
X137420517Y-122323263D01*
X137420521Y-122323268D01*
X137420523Y-122323270D01*
X137420524Y-122323271D01*
X137963503Y-121780291D01*
X138024824Y-121746808D01*
X138094515Y-121751792D01*
X138150449Y-121793663D01*
X138158567Y-121805971D01*
X138179920Y-121842955D01*
X138254394Y-121917429D01*
X138254395Y-121917430D01*
X138254397Y-121917431D01*
X138291373Y-121938779D01*
X138339588Y-121989345D01*
X138352812Y-122057952D01*
X138326844Y-122122817D01*
X138317054Y-122133847D01*
X137774075Y-122676822D01*
X137774076Y-122676822D01*
X137774076Y-122676823D01*
X137818650Y-122709208D01*
X137904786Y-122753096D01*
X138000963Y-122802102D01*
X138000965Y-122802102D01*
X138000968Y-122802104D01*
X138195582Y-122865339D01*
X138397683Y-122897349D01*
X138602316Y-122897349D01*
X138602317Y-122897349D01*
X138804417Y-122865339D01*
X138999031Y-122802104D01*
X139181349Y-122709208D01*
X139225921Y-122676823D01*
X138682945Y-122133847D01*
X138649460Y-122072524D01*
X138654444Y-122002832D01*
X138696316Y-121946899D01*
X138708618Y-121938783D01*
X138745606Y-121917429D01*
X138820080Y-121842955D01*
X138841430Y-121805974D01*
X138891995Y-121757760D01*
X138960602Y-121744536D01*
X139025467Y-121770503D01*
X139036498Y-121780294D01*
X139579473Y-122323269D01*
X139579474Y-122323270D01*
X139611859Y-122278698D01*
X139704755Y-122096380D01*
X139767989Y-121901767D01*
X139769266Y-121893707D01*
X148649500Y-121893707D01*
X148649500Y-122106291D01*
X148681551Y-122308654D01*
X148681552Y-122308659D01*
X148682754Y-122316243D01*
X148682755Y-122316248D01*
X148703048Y-122378702D01*
X148709369Y-122398157D01*
X148713605Y-122411192D01*
X148748445Y-122518418D01*
X148841532Y-122701111D01*
X148844951Y-122707820D01*
X148969890Y-122879786D01*
X148969892Y-122879788D01*
X149120216Y-123030112D01*
X149292183Y-123155052D01*
X149292471Y-123155197D01*
X149481588Y-123251557D01*
X149683757Y-123317246D01*
X149893713Y-123350500D01*
X149893714Y-123350500D01*
X150106286Y-123350500D01*
X150106287Y-123350500D01*
X150316243Y-123317246D01*
X150518412Y-123251557D01*
X150707816Y-123155051D01*
X150729789Y-123139086D01*
X150879786Y-123030109D01*
X150879786Y-123030108D01*
X150879844Y-123030066D01*
X150880605Y-123029290D01*
X151029290Y-122880605D01*
X151030065Y-122879845D01*
X151030124Y-122879765D01*
X151030548Y-122879182D01*
X151155048Y-122707820D01*
X151155047Y-122707820D01*
X151155051Y-122707816D01*
X151155053Y-122707810D01*
X151175445Y-122679744D01*
X151183730Y-122651529D01*
X151251557Y-122518412D01*
X151317246Y-122316243D01*
X151350500Y-122106287D01*
X151350500Y-121893713D01*
X151317246Y-121683757D01*
X151251557Y-121481588D01*
X151155197Y-121292471D01*
X151155052Y-121292183D01*
X151030112Y-121120216D01*
X150879788Y-120969892D01*
X150879786Y-120969890D01*
X150707820Y-120844951D01*
X150535911Y-120757359D01*
X150530571Y-120753479D01*
X150506254Y-120743406D01*
X150499734Y-120742374D01*
X150438726Y-120722551D01*
X150325074Y-120685623D01*
X150320552Y-120683770D01*
X150311362Y-120681600D01*
X150306599Y-120681226D01*
X150154957Y-120657208D01*
X150135489Y-120654124D01*
X150106290Y-120649500D01*
X150106287Y-120649500D01*
X149893713Y-120649500D01*
X149893709Y-120649500D01*
X149854776Y-120655666D01*
X149845042Y-120657208D01*
X149807654Y-120663129D01*
X149683763Y-120682752D01*
X149481582Y-120748445D01*
X149292182Y-120844949D01*
X149120210Y-120969892D01*
X148969892Y-121120210D01*
X148844949Y-121292182D01*
X148748445Y-121481580D01*
X148682752Y-121683759D01*
X148649500Y-121893707D01*
X139769266Y-121893707D01*
X139773110Y-121869442D01*
X139773110Y-121869441D01*
X139800000Y-121699666D01*
X139800000Y-121495031D01*
X139767990Y-121292931D01*
X139704755Y-121098317D01*
X139704753Y-121098314D01*
X139704753Y-121098312D01*
X139611859Y-120915999D01*
X139603156Y-120904021D01*
X139593615Y-120877282D01*
X139579473Y-120871424D01*
X139036497Y-121414402D01*
X138975174Y-121447887D01*
X138905483Y-121442903D01*
X138849549Y-121401032D01*
X138841430Y-121388723D01*
X138820080Y-121351743D01*
X138745606Y-121277269D01*
X138708625Y-121255918D01*
X138660410Y-121205352D01*
X138647186Y-121136745D01*
X138673154Y-121071880D01*
X138682936Y-121060858D01*
X139225922Y-120517873D01*
X139225921Y-120517872D01*
X139225920Y-120517871D01*
X139225919Y-120517870D01*
X139225914Y-120517866D01*
X139181360Y-120485496D01*
X139181357Y-120485493D01*
X139116198Y-120452293D01*
X138999031Y-120392593D01*
X138804417Y-120329358D01*
X138804411Y-120329357D01*
X138602322Y-120297349D01*
X138602317Y-120297349D01*
X138397683Y-120297349D01*
X138397678Y-120297349D01*
X138195587Y-120329357D01*
X138195585Y-120329357D01*
X138195582Y-120329358D01*
X138098275Y-120360975D01*
X138000963Y-120392594D01*
X137818640Y-120485494D01*
X137774077Y-120517871D01*
X137774077Y-120517872D01*
X137774077Y-120517873D01*
X138101155Y-120844951D01*
X138317055Y-121060850D01*
X138350540Y-121122173D01*
X138345556Y-121191864D01*
X138303685Y-121247798D01*
X138291374Y-121255918D01*
X138254397Y-121277266D01*
X138254392Y-121277270D01*
X138179921Y-121351741D01*
X138179915Y-121351749D01*
X138158568Y-121388723D01*
X138108001Y-121436938D01*
X138039393Y-121450160D01*
X137974529Y-121424192D01*
X137963501Y-121414403D01*
X137420524Y-120871426D01*
X137420523Y-120871426D01*
X137420522Y-120871426D01*
X137388145Y-120915989D01*
X137295245Y-121098312D01*
X137278613Y-121149500D01*
X137232009Y-121292931D01*
X137232008Y-121292934D01*
X137232008Y-121292936D01*
X137200000Y-121495025D01*
X128904921Y-121495025D01*
X128879788Y-121469892D01*
X128879786Y-121469890D01*
X128707820Y-121344951D01*
X128604249Y-121292179D01*
X128535911Y-121257359D01*
X128530571Y-121253479D01*
X128506254Y-121243406D01*
X128499734Y-121242374D01*
X128438726Y-121222551D01*
X128325074Y-121185623D01*
X128320552Y-121183770D01*
X128311362Y-121181600D01*
X128306599Y-121181226D01*
X128154957Y-121157208D01*
X128135489Y-121154124D01*
X128106290Y-121149500D01*
X128106287Y-121149500D01*
X127893713Y-121149500D01*
X127893709Y-121149500D01*
X127854776Y-121155666D01*
X127845042Y-121157208D01*
X127807654Y-121163129D01*
X127683763Y-121182752D01*
X127481582Y-121248445D01*
X127292182Y-121344949D01*
X127292179Y-121344950D01*
X127292179Y-121344951D01*
X127282822Y-121351749D01*
X127120210Y-121469892D01*
X126969892Y-121620210D01*
X126969890Y-121620213D01*
X126874294Y-121751792D01*
X126844949Y-121792182D01*
X126748445Y-121981580D01*
X126682752Y-122183759D01*
X126664211Y-122300829D01*
X126664198Y-122300910D01*
X126664140Y-122301281D01*
X126649500Y-122393713D01*
X125535663Y-122393713D01*
X125520750Y-122312339D01*
X125519624Y-122304936D01*
X125518723Y-122297515D01*
X125518045Y-122290060D01*
X125517358Y-122278707D01*
X125517358Y-122278704D01*
X125506929Y-122106286D01*
X125500837Y-122005575D01*
X125500669Y-122001848D01*
X125500556Y-121998084D01*
X125500500Y-121994363D01*
X125500500Y-116365181D01*
X126099500Y-116365181D01*
X126099500Y-116634817D01*
X126129683Y-116902706D01*
X126129688Y-116902733D01*
X126189681Y-117165586D01*
X126189763Y-117165859D01*
X126190146Y-117166914D01*
X126278731Y-117420075D01*
X126278737Y-117420089D01*
X126395713Y-117662992D01*
X126395917Y-117663350D01*
X126396603Y-117664409D01*
X126539162Y-117891289D01*
X126707266Y-118102085D01*
X126897915Y-118292734D01*
X127108711Y-118460838D01*
X127337003Y-118604284D01*
X127579921Y-118721267D01*
X127771049Y-118788145D01*
X127824540Y-118806862D01*
X127830787Y-118809658D01*
X127831645Y-118809814D01*
X127837109Y-118810933D01*
X128069925Y-118864071D01*
X128097268Y-118870312D01*
X128097272Y-118870312D01*
X128097281Y-118870314D01*
X128226150Y-118884833D01*
X128347790Y-118898538D01*
X128355393Y-118900500D01*
X128634812Y-118900500D01*
X128660310Y-118900500D01*
X128665444Y-118897696D01*
X128677914Y-118895642D01*
X128826388Y-118878913D01*
X128902718Y-118870314D01*
X128902721Y-118870313D01*
X128902732Y-118870312D01*
X129165591Y-118810316D01*
X129420079Y-118721267D01*
X129662997Y-118604284D01*
X129891289Y-118460838D01*
X130102085Y-118292734D01*
X130292734Y-118102085D01*
X130460838Y-117891289D01*
X130604284Y-117662997D01*
X130721267Y-117420079D01*
X130810316Y-117165591D01*
X130870312Y-116902732D01*
X130900500Y-116634809D01*
X130900500Y-116365191D01*
X130870312Y-116097268D01*
X130847502Y-115997332D01*
X137199500Y-115997332D01*
X137199500Y-117197350D01*
X137199501Y-117197367D01*
X137210000Y-117300145D01*
X137210001Y-117300148D01*
X137222513Y-117337906D01*
X137265186Y-117466683D01*
X137357288Y-117616005D01*
X137481344Y-117740061D01*
X137630666Y-117832163D01*
X137797203Y-117887348D01*
X137899991Y-117897849D01*
X139100008Y-117897848D01*
X139202797Y-117887348D01*
X139369334Y-117832163D01*
X139518656Y-117740061D01*
X139642712Y-117616005D01*
X139734814Y-117466683D01*
X139789999Y-117300146D01*
X139800500Y-117197358D01*
X139800499Y-115997341D01*
X139789999Y-115894552D01*
X139734814Y-115728015D01*
X139642712Y-115578693D01*
X139518656Y-115454637D01*
X139369334Y-115362535D01*
X139211265Y-115310156D01*
X139208445Y-115308990D01*
X139202792Y-115307348D01*
X139100019Y-115296849D01*
X139100010Y-115296849D01*
X137899998Y-115296849D01*
X137899981Y-115296850D01*
X137885959Y-115298282D01*
X137797198Y-115307349D01*
X137797193Y-115307350D01*
X137797032Y-115307405D01*
X137630667Y-115362534D01*
X137630665Y-115362535D01*
X137630663Y-115362536D01*
X137531115Y-115423937D01*
X137481340Y-115454639D01*
X137357290Y-115578689D01*
X137265187Y-115728011D01*
X137265187Y-115728012D01*
X137265186Y-115728015D01*
X137220300Y-115863472D01*
X137211852Y-115876418D01*
X137210365Y-115890979D01*
X137209542Y-115897230D01*
X137209387Y-115900262D01*
X137209396Y-115900453D01*
X137209355Y-115900863D01*
X137199500Y-115997332D01*
X130847502Y-115997332D01*
X130810316Y-115834409D01*
X130809852Y-115833084D01*
X130780780Y-115750000D01*
X130721267Y-115579921D01*
X130604284Y-115337003D01*
X130460838Y-115108711D01*
X130292734Y-114897915D01*
X130102085Y-114707266D01*
X129891289Y-114539162D01*
X129769702Y-114462763D01*
X129664409Y-114396603D01*
X129663350Y-114395917D01*
X129662992Y-114395713D01*
X129420089Y-114278737D01*
X129420075Y-114278731D01*
X129166914Y-114190146D01*
X129165859Y-114189763D01*
X129165586Y-114189681D01*
X128998816Y-114151618D01*
X128998810Y-114151614D01*
X128998810Y-114151617D01*
X128986712Y-114148855D01*
X128953775Y-114136184D01*
X128948444Y-114133202D01*
X128899549Y-114083294D01*
X128885397Y-114014872D01*
X128910483Y-113949662D01*
X128966840Y-113908366D01*
X128966981Y-113908315D01*
X128969586Y-113907375D01*
X129011711Y-113900000D01*
X129704696Y-113900000D01*
X129704706Y-113900000D01*
X129704719Y-113899999D01*
X129837906Y-113889517D01*
X129837912Y-113889516D01*
X129840464Y-113888873D01*
X130057815Y-113834105D01*
X130057815Y-113834104D01*
X130057829Y-113834101D01*
X130057832Y-113834100D01*
X130264330Y-113740304D01*
X130264336Y-113740301D01*
X130450758Y-113611148D01*
X130450770Y-113611138D01*
X130611138Y-113450770D01*
X130611148Y-113450758D01*
X130740301Y-113264336D01*
X130740304Y-113264330D01*
X130834100Y-113057832D01*
X130834101Y-113057829D01*
X130889516Y-112837912D01*
X130889517Y-112837906D01*
X130899999Y-112704719D01*
X130900000Y-112704706D01*
X130900000Y-111750000D01*
X129972417Y-111750000D01*
X129905378Y-111730315D01*
X129859623Y-111677511D01*
X129850078Y-111611134D01*
X129849618Y-111611098D01*
X129849779Y-111609050D01*
X129849679Y-111608353D01*
X129849942Y-111606611D01*
X129850000Y-111606244D01*
X129850000Y-111393755D01*
X129849942Y-111393389D01*
X129849960Y-111393247D01*
X129849618Y-111388902D01*
X129850531Y-111388830D01*
X129858902Y-111324096D01*
X129903902Y-111270648D01*
X129970655Y-111250013D01*
X129972417Y-111250000D01*
X130900000Y-111250000D01*
X130900000Y-110295300D01*
X130900000Y-110295293D01*
X130899999Y-110295280D01*
X130889517Y-110162093D01*
X130889516Y-110162087D01*
X130886551Y-110150320D01*
X130834105Y-109942183D01*
X130834104Y-109942182D01*
X130834101Y-109942170D01*
X130834100Y-109942167D01*
X130740304Y-109735669D01*
X130740301Y-109735663D01*
X130611148Y-109549241D01*
X130611138Y-109549229D01*
X130611133Y-109549224D01*
X130611125Y-109549215D01*
X130450783Y-109388873D01*
X130450774Y-109388865D01*
X130450770Y-109388861D01*
X130450758Y-109388851D01*
X130264336Y-109259698D01*
X130264330Y-109259695D01*
X130226522Y-109242521D01*
X130057836Y-109165900D01*
X130057816Y-109165894D01*
X130057815Y-109165893D01*
X129837940Y-109110489D01*
X129837923Y-109110485D01*
X129837912Y-109110483D01*
X129837906Y-109110482D01*
X129787960Y-109106551D01*
X129704724Y-109100000D01*
X129704719Y-109100000D01*
X128750000Y-109100000D01*
X128750000Y-110027582D01*
X128730315Y-110094621D01*
X128677511Y-110140376D01*
X128611147Y-110149918D01*
X128611111Y-110150382D01*
X128609049Y-110150219D01*
X128608353Y-110150320D01*
X128606611Y-110150057D01*
X128606251Y-110150000D01*
X128606247Y-110150000D01*
X128393753Y-110150000D01*
X128393749Y-110150000D01*
X128393389Y-110150057D01*
X128393249Y-110150039D01*
X128388889Y-110150382D01*
X128388816Y-110149465D01*
X128324096Y-110141097D01*
X128270648Y-110096097D01*
X128250013Y-110029344D01*
X128250000Y-110027582D01*
X128250000Y-109100000D01*
X127295280Y-109100000D01*
X127295274Y-109100000D01*
X127195389Y-109107861D01*
X127162093Y-109110482D01*
X127162087Y-109110483D01*
X127162078Y-109110485D01*
X127162058Y-109110489D01*
X126942183Y-109165893D01*
X126942182Y-109165894D01*
X126942162Y-109165900D01*
X126735664Y-109259697D01*
X126735662Y-109259698D01*
X126549246Y-109388847D01*
X126549236Y-109388854D01*
X126549233Y-109388857D01*
X126549215Y-109388873D01*
X126388873Y-109549215D01*
X126388857Y-109549233D01*
X126388854Y-109549236D01*
X126388847Y-109549246D01*
X126259698Y-109735662D01*
X126259697Y-109735664D01*
X126165900Y-109942162D01*
X126165894Y-109942182D01*
X126165893Y-109942183D01*
X126110489Y-110162058D01*
X126110485Y-110162078D01*
X126110483Y-110162087D01*
X126110482Y-110162093D01*
X126100000Y-110295280D01*
X126100000Y-111250000D01*
X127027583Y-111250000D01*
X127094622Y-111269685D01*
X127140377Y-111322489D01*
X127149921Y-111388865D01*
X127150382Y-111388902D01*
X127150220Y-111390949D01*
X127150321Y-111391647D01*
X127150058Y-111393389D01*
X127150000Y-111393755D01*
X127150000Y-111606244D01*
X127150058Y-111606611D01*
X127150039Y-111606752D01*
X127150382Y-111611098D01*
X127149468Y-111611169D01*
X127141098Y-111675904D01*
X127096098Y-111729352D01*
X127029345Y-111749987D01*
X127027583Y-111750000D01*
X126100000Y-111750000D01*
X126100000Y-112704719D01*
X126110482Y-112837906D01*
X126110483Y-112837912D01*
X126110485Y-112837923D01*
X126110489Y-112837940D01*
X126165893Y-113057815D01*
X126165894Y-113057816D01*
X126165900Y-113057836D01*
X126259697Y-113264334D01*
X126259698Y-113264336D01*
X126388847Y-113450752D01*
X126388854Y-113450762D01*
X126388857Y-113450765D01*
X126388873Y-113450783D01*
X126549215Y-113611125D01*
X126549224Y-113611133D01*
X126549229Y-113611138D01*
X126549241Y-113611148D01*
X126735663Y-113740301D01*
X126735669Y-113740304D01*
X126886178Y-113808668D01*
X126942162Y-113834098D01*
X126942163Y-113834098D01*
X126942167Y-113834100D01*
X126942170Y-113834101D01*
X126942182Y-113834104D01*
X126942183Y-113834105D01*
X127162058Y-113889509D01*
X127162062Y-113889509D01*
X127162087Y-113889516D01*
X127162093Y-113889517D01*
X127295280Y-113899999D01*
X127295294Y-113900000D01*
X127985237Y-113900000D01*
X128020154Y-113905018D01*
X128024029Y-113906155D01*
X128026015Y-113906738D01*
X128084799Y-113944503D01*
X128113833Y-114008055D01*
X128103900Y-114077215D01*
X128058154Y-114130025D01*
X128055715Y-114131593D01*
X128016255Y-114148178D01*
X128007695Y-114150132D01*
X128007691Y-114150133D01*
X127834412Y-114189681D01*
X127834137Y-114189764D01*
X127833084Y-114190146D01*
X127579923Y-114278731D01*
X127579901Y-114278740D01*
X127337010Y-114395710D01*
X127108709Y-114539162D01*
X127108707Y-114539163D01*
X126897921Y-114707258D01*
X126707258Y-114897921D01*
X126539163Y-115108707D01*
X126539162Y-115108709D01*
X126395710Y-115337010D01*
X126278740Y-115579901D01*
X126278731Y-115579923D01*
X126190146Y-115833084D01*
X126189764Y-115834137D01*
X126189681Y-115834412D01*
X126129688Y-116097265D01*
X126129683Y-116097292D01*
X126099500Y-116365181D01*
X125500500Y-116365181D01*
X125500500Y-105124000D01*
X136494500Y-105124000D01*
X136494500Y-106876000D01*
X136494501Y-106876009D01*
X136506052Y-106983450D01*
X136506054Y-106983462D01*
X136517260Y-107034972D01*
X136551383Y-107137497D01*
X136551386Y-107137503D01*
X136629171Y-107258537D01*
X136629179Y-107258548D01*
X136674923Y-107311340D01*
X136674926Y-107311343D01*
X136674930Y-107311347D01*
X136783664Y-107405567D01*
X136914541Y-107465338D01*
X136981580Y-107485023D01*
X136981584Y-107485024D01*
X137124000Y-107505500D01*
X139290166Y-107505500D01*
X139357205Y-107525185D01*
X139364561Y-107530296D01*
X141163633Y-108879600D01*
X141178476Y-108890318D01*
X141185837Y-108895433D01*
X141200997Y-108905567D01*
X141331874Y-108965338D01*
X141398913Y-108985023D01*
X141398917Y-108985024D01*
X141541333Y-109005500D01*
X141541336Y-109005500D01*
X146448638Y-109005500D01*
X146448640Y-109005500D01*
X146458786Y-109004955D01*
X146502678Y-109002603D01*
X146502686Y-109002602D01*
X146502688Y-109002602D01*
X146502689Y-109002602D01*
X146509682Y-109001849D01*
X146529036Y-108999769D01*
X146529046Y-108999767D01*
X146529049Y-108999767D01*
X146538648Y-108998211D01*
X146582448Y-108991114D01*
X146717257Y-108940832D01*
X146778580Y-108907347D01*
X146893762Y-108821123D01*
X147173066Y-108541817D01*
X147234387Y-108508334D01*
X147260746Y-108505500D01*
X148373535Y-108505500D01*
X148440574Y-108525185D01*
X148486329Y-108577989D01*
X148496273Y-108647147D01*
X148467248Y-108710703D01*
X148427336Y-108741220D01*
X148288562Y-108808049D01*
X148050754Y-108957475D01*
X147831175Y-109132582D01*
X147632582Y-109331175D01*
X147457475Y-109550754D01*
X147308049Y-109788562D01*
X147186206Y-110041572D01*
X147186197Y-110041594D01*
X147093450Y-110306645D01*
X147093443Y-110306666D01*
X147093440Y-110306678D01*
X147030945Y-110580484D01*
X147030939Y-110580519D01*
X146999500Y-110859561D01*
X146999500Y-111140437D01*
X147030939Y-111419479D01*
X147030945Y-111419512D01*
X147093439Y-111693317D01*
X147093440Y-111693320D01*
X147093443Y-111693332D01*
X147093450Y-111693353D01*
X147186197Y-111958404D01*
X147186203Y-111958418D01*
X147308052Y-112211440D01*
X147308256Y-112211798D01*
X147308942Y-112212857D01*
X147457477Y-112449248D01*
X147632584Y-112668825D01*
X147831175Y-112867416D01*
X148050752Y-113042523D01*
X148288555Y-113191945D01*
X148288557Y-113191946D01*
X148541592Y-113313801D01*
X148541599Y-113313804D01*
X148594633Y-113332360D01*
X148618756Y-113340801D01*
X148618760Y-113340804D01*
X148618761Y-113340803D01*
X148653819Y-113353071D01*
X148685131Y-113369349D01*
X148691284Y-113373762D01*
X148734288Y-113428829D01*
X148740694Y-113498404D01*
X148708468Y-113560398D01*
X148650913Y-113594352D01*
X148649004Y-113594860D01*
X148645369Y-113595827D01*
X148613474Y-113600000D01*
X148295274Y-113600000D01*
X148195389Y-113607861D01*
X148162093Y-113610482D01*
X148162087Y-113610483D01*
X148162078Y-113610485D01*
X148162058Y-113610489D01*
X147942183Y-113665893D01*
X147942182Y-113665894D01*
X147942162Y-113665900D01*
X147735664Y-113759697D01*
X147735662Y-113759698D01*
X147549246Y-113888847D01*
X147549236Y-113888854D01*
X147549233Y-113888857D01*
X147549215Y-113888873D01*
X147388873Y-114049215D01*
X147388857Y-114049233D01*
X147388854Y-114049236D01*
X147388847Y-114049246D01*
X147259698Y-114235662D01*
X147259697Y-114235664D01*
X147165900Y-114442162D01*
X147165894Y-114442182D01*
X147165893Y-114442183D01*
X147110489Y-114662058D01*
X147110485Y-114662078D01*
X147110483Y-114662087D01*
X147110482Y-114662093D01*
X147100000Y-114795280D01*
X147100000Y-115750000D01*
X148027583Y-115750000D01*
X148094622Y-115769685D01*
X148140377Y-115822489D01*
X148149921Y-115888865D01*
X148150382Y-115888902D01*
X148150220Y-115890949D01*
X148150321Y-115891647D01*
X148150058Y-115893389D01*
X148150000Y-115893755D01*
X148150000Y-116106244D01*
X148150058Y-116106611D01*
X148150039Y-116106752D01*
X148150382Y-116111098D01*
X148149468Y-116111169D01*
X148141098Y-116175904D01*
X148096098Y-116229352D01*
X148029345Y-116249987D01*
X148027583Y-116250000D01*
X147100000Y-116250000D01*
X147100000Y-117204719D01*
X147110482Y-117337906D01*
X147110483Y-117337912D01*
X147110485Y-117337923D01*
X147110489Y-117337940D01*
X147165893Y-117557815D01*
X147165894Y-117557816D01*
X147165900Y-117557836D01*
X147242521Y-117726522D01*
X147259695Y-117764330D01*
X147259698Y-117764336D01*
X147306688Y-117832163D01*
X147388847Y-117950752D01*
X147388854Y-117950762D01*
X147388857Y-117950765D01*
X147388873Y-117950783D01*
X147549215Y-118111125D01*
X147549224Y-118111133D01*
X147549229Y-118111138D01*
X147549241Y-118111148D01*
X147735663Y-118240301D01*
X147735669Y-118240304D01*
X147851097Y-118292734D01*
X147942162Y-118334098D01*
X147942163Y-118334098D01*
X147942167Y-118334100D01*
X147942170Y-118334101D01*
X147942182Y-118334104D01*
X147942183Y-118334105D01*
X148162058Y-118389509D01*
X148162062Y-118389509D01*
X148162087Y-118389516D01*
X148162093Y-118389517D01*
X148295280Y-118399999D01*
X148295294Y-118400000D01*
X149250000Y-118400000D01*
X149250000Y-117472416D01*
X149269685Y-117405377D01*
X149322489Y-117359622D01*
X149388865Y-117350077D01*
X149388902Y-117349618D01*
X149390945Y-117349778D01*
X149391647Y-117349678D01*
X149393272Y-117349923D01*
X149393753Y-117350000D01*
X149606241Y-117350000D01*
X149606247Y-117350000D01*
X149606591Y-117349945D01*
X149606723Y-117349962D01*
X149611098Y-117349618D01*
X149611170Y-117350536D01*
X149675882Y-117358892D01*
X149729339Y-117403882D01*
X149749987Y-117470631D01*
X149750000Y-117472416D01*
X149750000Y-118400000D01*
X150704696Y-118400000D01*
X150704706Y-118400000D01*
X150704719Y-118399999D01*
X150837906Y-118389517D01*
X150837912Y-118389516D01*
X150837940Y-118389509D01*
X151057815Y-118334105D01*
X151057815Y-118334104D01*
X151057829Y-118334101D01*
X151057832Y-118334100D01*
X151264330Y-118240304D01*
X151264336Y-118240301D01*
X151450758Y-118111148D01*
X151450770Y-118111138D01*
X151611138Y-117950770D01*
X151611148Y-117950758D01*
X151740301Y-117764336D01*
X151740304Y-117764330D01*
X151834100Y-117557832D01*
X151834101Y-117557829D01*
X151855624Y-117472416D01*
X151889509Y-117337940D01*
X151889509Y-117337939D01*
X151889516Y-117337912D01*
X151889517Y-117337906D01*
X151899999Y-117204719D01*
X151900000Y-117204706D01*
X151900000Y-116250000D01*
X150972417Y-116250000D01*
X150905378Y-116230315D01*
X150859623Y-116177511D01*
X150850078Y-116111134D01*
X150849618Y-116111098D01*
X150849779Y-116109050D01*
X150849679Y-116108353D01*
X150849942Y-116106611D01*
X150850000Y-116106244D01*
X150850000Y-115893755D01*
X150849942Y-115893389D01*
X150849960Y-115893247D01*
X150849618Y-115888902D01*
X150850531Y-115888830D01*
X150858902Y-115824096D01*
X150903902Y-115770648D01*
X150970655Y-115750013D01*
X150972417Y-115750000D01*
X151900000Y-115750000D01*
X151900000Y-114795300D01*
X151900000Y-114795293D01*
X151899999Y-114795280D01*
X151889517Y-114662093D01*
X151889516Y-114662087D01*
X151889509Y-114662058D01*
X151834105Y-114442183D01*
X151834104Y-114442182D01*
X151834101Y-114442170D01*
X151834100Y-114442167D01*
X151740304Y-114235669D01*
X151740301Y-114235663D01*
X151611148Y-114049241D01*
X151611138Y-114049229D01*
X151611133Y-114049224D01*
X151611125Y-114049215D01*
X151450783Y-113888873D01*
X151450774Y-113888865D01*
X151450770Y-113888861D01*
X151450758Y-113888851D01*
X151264336Y-113759698D01*
X151264330Y-113759695D01*
X151226522Y-113742521D01*
X151057836Y-113665900D01*
X151057816Y-113665894D01*
X151057815Y-113665893D01*
X150837940Y-113610489D01*
X150837923Y-113610485D01*
X150837912Y-113610483D01*
X150837906Y-113610482D01*
X150787960Y-113606551D01*
X150704724Y-113600000D01*
X150704719Y-113600000D01*
X150388140Y-113600000D01*
X150353197Y-113594975D01*
X150345931Y-113592841D01*
X150287156Y-113555063D01*
X150258135Y-113491505D01*
X150268083Y-113422347D01*
X150311191Y-113371298D01*
X150315935Y-113368075D01*
X150344666Y-113353601D01*
X150346181Y-113353071D01*
X150367828Y-113345496D01*
X150436662Y-113321409D01*
X150458406Y-113313802D01*
X150458406Y-113313801D01*
X150458408Y-113313801D01*
X150711445Y-113191945D01*
X150949248Y-113042523D01*
X151168825Y-112867416D01*
X151367416Y-112668825D01*
X151542523Y-112449248D01*
X151691945Y-112211445D01*
X151813801Y-111958408D01*
X151906560Y-111693318D01*
X151969055Y-111419509D01*
X151969059Y-111419479D01*
X151988154Y-111250000D01*
X152000500Y-111140425D01*
X152000500Y-110859575D01*
X151990018Y-110766547D01*
X151969057Y-110580505D01*
X151969054Y-110580487D01*
X151906560Y-110306682D01*
X151906556Y-110306670D01*
X151851868Y-110150382D01*
X151813801Y-110041592D01*
X151691945Y-109788555D01*
X151542523Y-109550752D01*
X151367416Y-109331175D01*
X151168825Y-109132584D01*
X151168822Y-109132582D01*
X151113060Y-109088113D01*
X150949248Y-108957477D01*
X150712857Y-108808942D01*
X150711798Y-108808256D01*
X150711440Y-108808052D01*
X150458418Y-108686203D01*
X150458404Y-108686197D01*
X150193353Y-108593450D01*
X150193332Y-108593443D01*
X150193320Y-108593440D01*
X150193317Y-108593439D01*
X150081467Y-108567910D01*
X149919514Y-108530945D01*
X149919483Y-108530940D01*
X149892549Y-108527905D01*
X149828135Y-108500837D01*
X149788581Y-108443242D01*
X149786444Y-108373405D01*
X149812719Y-108323486D01*
X149905567Y-108216336D01*
X149965338Y-108085459D01*
X149985023Y-108018420D01*
X149985024Y-108018416D01*
X150005500Y-107876000D01*
X150005500Y-105624000D01*
X149993947Y-105516544D01*
X149982741Y-105465033D01*
X149982637Y-105464722D01*
X149948616Y-105362502D01*
X149948613Y-105362496D01*
X149870828Y-105241462D01*
X149870825Y-105241457D01*
X149870820Y-105241451D01*
X149825076Y-105188659D01*
X149825072Y-105188656D01*
X149825070Y-105188653D01*
X149716336Y-105094433D01*
X149716333Y-105094431D01*
X149716331Y-105094430D01*
X149585465Y-105034664D01*
X149585460Y-105034662D01*
X149585459Y-105034662D01*
X149518420Y-105014977D01*
X149518422Y-105014977D01*
X149518417Y-105014976D01*
X149470944Y-105008150D01*
X149376000Y-104994500D01*
X149375998Y-104994500D01*
X142121231Y-104994500D01*
X142075179Y-104985631D01*
X140989570Y-104551387D01*
X140959908Y-104539522D01*
X140867770Y-104512491D01*
X140867766Y-104512490D01*
X140867759Y-104512488D01*
X140855865Y-104510197D01*
X140821708Y-104503619D01*
X140726129Y-104494500D01*
X140726121Y-104494500D01*
X137124000Y-104494500D01*
X137123991Y-104494500D01*
X137123990Y-104494501D01*
X137016549Y-104506052D01*
X137016537Y-104506054D01*
X136965027Y-104517260D01*
X136862502Y-104551383D01*
X136862496Y-104551386D01*
X136741462Y-104629171D01*
X136741451Y-104629179D01*
X136688659Y-104674923D01*
X136594433Y-104783664D01*
X136594430Y-104783668D01*
X136534664Y-104914534D01*
X136534662Y-104914541D01*
X136514977Y-104981580D01*
X136514976Y-104981584D01*
X136494500Y-105124000D01*
X125500500Y-105124000D01*
X125500500Y-99905507D01*
X142299500Y-99905507D01*
X142299500Y-100094491D01*
X142329058Y-100281112D01*
X142329059Y-100281118D01*
X142387454Y-100460836D01*
X142473240Y-100629199D01*
X142584310Y-100782073D01*
X142584312Y-100782075D01*
X142701948Y-100899711D01*
X142723100Y-100927967D01*
X142730592Y-100941688D01*
X142745444Y-101009948D01*
X142745315Y-101011754D01*
X142725947Y-101069956D01*
X142721768Y-101076459D01*
X142705132Y-101097103D01*
X142579817Y-101222417D01*
X142575685Y-101229796D01*
X142536610Y-101283578D01*
X142536610Y-101283579D01*
X142473240Y-101370799D01*
X142430347Y-101454981D01*
X142387454Y-101539163D01*
X142329059Y-101718881D01*
X142329058Y-101718884D01*
X142329058Y-101718886D01*
X142299500Y-101905507D01*
X142299500Y-102094491D01*
X142329058Y-102281112D01*
X142329059Y-102281118D01*
X142387454Y-102460836D01*
X142473240Y-102629199D01*
X142584310Y-102782073D01*
X142717927Y-102915690D01*
X142804229Y-102978393D01*
X142870796Y-103026757D01*
X142870797Y-103026757D01*
X142870801Y-103026760D01*
X142950347Y-103067290D01*
X143032722Y-103109263D01*
X143034320Y-103110199D01*
X143038037Y-103111999D01*
X143040021Y-103112985D01*
X143043775Y-103114043D01*
X143135497Y-103143846D01*
X143218881Y-103170940D01*
X143405514Y-103200500D01*
X143405519Y-103200500D01*
X143594485Y-103200500D01*
X143594486Y-103200500D01*
X143781118Y-103170940D01*
X143960832Y-103112547D01*
X144129199Y-103026760D01*
X144282073Y-102915690D01*
X144415690Y-102782073D01*
X144526760Y-102629199D01*
X144612547Y-102460832D01*
X144670940Y-102281118D01*
X144700500Y-102094486D01*
X144700500Y-101905513D01*
X144670940Y-101718881D01*
X144612545Y-101539163D01*
X144526759Y-101370800D01*
X144415690Y-101217927D01*
X144298051Y-101100288D01*
X144276899Y-101072032D01*
X144269407Y-101058311D01*
X144254555Y-100990051D01*
X144254684Y-100988242D01*
X144274050Y-100930047D01*
X144278243Y-100923523D01*
X144294860Y-100902902D01*
X144415690Y-100782073D01*
X144526760Y-100629199D01*
X144612547Y-100460832D01*
X144670940Y-100281118D01*
X144700500Y-100094486D01*
X144700500Y-99905513D01*
X144670940Y-99718881D01*
X144612545Y-99539163D01*
X144526759Y-99370800D01*
X144415690Y-99217927D01*
X144282073Y-99084310D01*
X144129199Y-98973240D01*
X144104847Y-98960832D01*
X143960836Y-98887454D01*
X143781118Y-98829059D01*
X143781112Y-98829058D01*
X143594491Y-98799500D01*
X143594486Y-98799500D01*
X143594481Y-98799500D01*
X143405519Y-98799500D01*
X143405514Y-98799500D01*
X143405509Y-98799500D01*
X143218886Y-98829058D01*
X143218884Y-98829058D01*
X143218881Y-98829059D01*
X143039163Y-98887454D01*
X142954981Y-98930347D01*
X142870799Y-98973240D01*
X142783579Y-99036610D01*
X142783578Y-99036610D01*
X142729794Y-99075686D01*
X142722419Y-99079816D01*
X142579817Y-99222418D01*
X142575685Y-99229797D01*
X142537705Y-99282072D01*
X142537705Y-99282073D01*
X142473239Y-99370800D01*
X142450367Y-99415690D01*
X142387454Y-99539163D01*
X142329059Y-99718881D01*
X142329058Y-99718884D01*
X142329058Y-99718886D01*
X142299500Y-99905507D01*
X125500500Y-99905507D01*
X125500500Y-96405507D01*
X127299500Y-96405507D01*
X127299500Y-96594491D01*
X127329058Y-96781112D01*
X127329059Y-96781118D01*
X127387454Y-96960836D01*
X127473240Y-97129199D01*
X127584310Y-97282073D01*
X127584312Y-97282075D01*
X127701948Y-97399711D01*
X127723100Y-97427967D01*
X127730592Y-97441688D01*
X127745444Y-97509948D01*
X127745315Y-97511754D01*
X127725947Y-97569956D01*
X127721768Y-97576459D01*
X127705132Y-97597103D01*
X127579817Y-97722417D01*
X127575685Y-97729796D01*
X127536610Y-97783578D01*
X127536610Y-97783579D01*
X127473240Y-97870799D01*
X127430347Y-97954981D01*
X127387454Y-98039163D01*
X127329059Y-98218881D01*
X127329058Y-98218884D01*
X127329058Y-98218886D01*
X127299500Y-98405507D01*
X127299500Y-98594491D01*
X127329058Y-98781112D01*
X127329059Y-98781118D01*
X127387454Y-98960836D01*
X127450368Y-99084310D01*
X127473240Y-99129199D01*
X127584310Y-99282073D01*
X127717927Y-99415690D01*
X127804229Y-99478393D01*
X127870796Y-99526757D01*
X127870797Y-99526757D01*
X127870801Y-99526760D01*
X127950347Y-99567290D01*
X128032722Y-99609263D01*
X128034320Y-99610199D01*
X128038037Y-99611999D01*
X128040021Y-99612985D01*
X128043775Y-99614043D01*
X128135497Y-99643846D01*
X128218881Y-99670940D01*
X128405514Y-99700500D01*
X128405519Y-99700500D01*
X128594485Y-99700500D01*
X128594486Y-99700500D01*
X128781118Y-99670940D01*
X128960832Y-99612547D01*
X129129199Y-99526760D01*
X129282073Y-99415690D01*
X129415690Y-99282073D01*
X129526760Y-99129199D01*
X129612547Y-98960832D01*
X129670940Y-98781118D01*
X129700500Y-98594486D01*
X129700500Y-98405513D01*
X129670940Y-98218881D01*
X129612545Y-98039163D01*
X129526759Y-97870800D01*
X129415690Y-97717927D01*
X129298051Y-97600288D01*
X129276899Y-97572032D01*
X129269407Y-97558311D01*
X129254555Y-97490051D01*
X129254684Y-97488242D01*
X129274050Y-97430047D01*
X129278243Y-97423523D01*
X129294860Y-97402902D01*
X129415690Y-97282073D01*
X129526760Y-97129199D01*
X129612547Y-96960832D01*
X129670940Y-96781118D01*
X129700500Y-96594486D01*
X129700500Y-96405513D01*
X129670940Y-96218881D01*
X129612545Y-96039163D01*
X129526759Y-95870800D01*
X129415690Y-95717927D01*
X129282073Y-95584310D01*
X129129199Y-95473240D01*
X128960836Y-95387454D01*
X128781118Y-95329059D01*
X128781112Y-95329058D01*
X128594491Y-95299500D01*
X128594486Y-95299500D01*
X128594481Y-95299500D01*
X128405519Y-95299500D01*
X128405514Y-95299500D01*
X128405509Y-95299500D01*
X128218886Y-95329058D01*
X128218884Y-95329058D01*
X128218881Y-95329059D01*
X128039163Y-95387454D01*
X127954981Y-95430347D01*
X127870799Y-95473240D01*
X127783579Y-95536610D01*
X127783578Y-95536610D01*
X127729794Y-95575686D01*
X127722419Y-95579816D01*
X127579816Y-95722419D01*
X127575686Y-95729794D01*
X127536610Y-95783578D01*
X127536610Y-95783579D01*
X127473240Y-95870799D01*
X127430347Y-95954981D01*
X127387454Y-96039163D01*
X127329059Y-96218881D01*
X127329058Y-96218884D01*
X127329058Y-96218886D01*
X127299500Y-96405507D01*
X125500500Y-96405507D01*
X125500500Y-87505635D01*
X125500597Y-87502340D01*
X125500556Y-87501914D01*
X125500669Y-87498150D01*
X125500836Y-87494430D01*
X125506930Y-87393707D01*
X126649500Y-87393707D01*
X126649500Y-87606291D01*
X126682752Y-87816239D01*
X126748445Y-88018418D01*
X126841532Y-88201111D01*
X126844951Y-88207820D01*
X126969890Y-88379786D01*
X126969892Y-88379788D01*
X127120216Y-88530112D01*
X127292183Y-88655052D01*
X127292471Y-88655197D01*
X127481588Y-88751557D01*
X127683757Y-88817246D01*
X127893713Y-88850500D01*
X127893714Y-88850500D01*
X128106286Y-88850500D01*
X128106287Y-88850500D01*
X128316243Y-88817246D01*
X128518412Y-88751557D01*
X128707816Y-88655051D01*
X128729789Y-88639086D01*
X128879786Y-88530109D01*
X128879786Y-88530108D01*
X128879844Y-88530066D01*
X128880605Y-88529290D01*
X129029290Y-88380605D01*
X129030065Y-88379845D01*
X129030124Y-88379765D01*
X129155048Y-88207820D01*
X129155047Y-88207820D01*
X129155051Y-88207816D01*
X129155053Y-88207810D01*
X129175445Y-88179744D01*
X129183730Y-88151529D01*
X129251557Y-88018412D01*
X129317246Y-87816243D01*
X129350500Y-87606287D01*
X129350500Y-87393713D01*
X129350499Y-87393707D01*
X148649500Y-87393707D01*
X148649500Y-87606291D01*
X148682752Y-87816239D01*
X148748445Y-88018418D01*
X148841532Y-88201111D01*
X148844951Y-88207820D01*
X148969890Y-88379786D01*
X148969892Y-88379788D01*
X149120216Y-88530112D01*
X149292183Y-88655052D01*
X149292471Y-88655197D01*
X149481588Y-88751557D01*
X149683757Y-88817246D01*
X149893713Y-88850500D01*
X149893714Y-88850500D01*
X150106286Y-88850500D01*
X150106287Y-88850500D01*
X150316243Y-88817246D01*
X150518412Y-88751557D01*
X150707816Y-88655051D01*
X150729789Y-88639086D01*
X150879786Y-88530109D01*
X150879786Y-88530108D01*
X150879844Y-88530066D01*
X150880605Y-88529290D01*
X151029290Y-88380605D01*
X151030065Y-88379845D01*
X151030124Y-88379765D01*
X151155048Y-88207820D01*
X151155047Y-88207820D01*
X151155051Y-88207816D01*
X151155053Y-88207810D01*
X151175445Y-88179744D01*
X151183730Y-88151529D01*
X151251557Y-88018412D01*
X151317246Y-87816243D01*
X151350500Y-87606287D01*
X151350500Y-87393713D01*
X151317246Y-87183757D01*
X151251557Y-86981588D01*
X151155197Y-86792471D01*
X151155052Y-86792183D01*
X151030112Y-86620216D01*
X150879788Y-86469892D01*
X150879786Y-86469890D01*
X150707820Y-86344951D01*
X150535911Y-86257359D01*
X150530571Y-86253479D01*
X150506254Y-86243406D01*
X150499734Y-86242374D01*
X150438726Y-86222551D01*
X150325074Y-86185623D01*
X150320552Y-86183770D01*
X150311362Y-86181600D01*
X150306599Y-86181226D01*
X150154957Y-86157208D01*
X150135489Y-86154124D01*
X150106290Y-86149500D01*
X150106287Y-86149500D01*
X149893713Y-86149500D01*
X149893709Y-86149500D01*
X149854776Y-86155666D01*
X149845042Y-86157208D01*
X149807654Y-86163129D01*
X149683763Y-86182752D01*
X149481582Y-86248445D01*
X149292182Y-86344949D01*
X149292179Y-86344950D01*
X149292179Y-86344951D01*
X149287041Y-86348684D01*
X149120210Y-86469892D01*
X148969892Y-86620210D01*
X148844949Y-86792182D01*
X148748445Y-86981580D01*
X148682752Y-87183759D01*
X148649500Y-87393707D01*
X129350499Y-87393707D01*
X129317246Y-87183757D01*
X129251557Y-86981588D01*
X129155197Y-86792471D01*
X129155052Y-86792183D01*
X129030112Y-86620216D01*
X128879788Y-86469892D01*
X128879786Y-86469890D01*
X128707820Y-86344951D01*
X128535911Y-86257359D01*
X128530571Y-86253479D01*
X128506254Y-86243406D01*
X128499734Y-86242374D01*
X128438726Y-86222551D01*
X128325074Y-86185623D01*
X128320552Y-86183770D01*
X128311362Y-86181600D01*
X128306599Y-86181226D01*
X128154957Y-86157208D01*
X128135489Y-86154124D01*
X128106290Y-86149500D01*
X128106287Y-86149500D01*
X127893713Y-86149500D01*
X127893709Y-86149500D01*
X127854776Y-86155666D01*
X127845042Y-86157208D01*
X127807654Y-86163129D01*
X127683763Y-86182752D01*
X127481582Y-86248445D01*
X127292182Y-86344949D01*
X127292179Y-86344950D01*
X127292179Y-86344951D01*
X127287041Y-86348684D01*
X127120210Y-86469892D01*
X126969892Y-86620210D01*
X126844949Y-86792182D01*
X126748445Y-86981580D01*
X126682752Y-87183759D01*
X126649500Y-87393707D01*
X125506930Y-87393707D01*
X125507677Y-87381354D01*
X125518046Y-87209916D01*
X125518719Y-87202514D01*
X125519628Y-87195028D01*
X125520751Y-87187655D01*
X125521465Y-87183759D01*
X125571110Y-86912855D01*
X125572668Y-86905598D01*
X125574479Y-86898251D01*
X125576469Y-86891114D01*
X125607298Y-86792184D01*
X125625712Y-86733090D01*
X125659589Y-86624376D01*
X125662018Y-86617335D01*
X125664684Y-86610301D01*
X125667515Y-86603467D01*
X125782210Y-86348627D01*
X125785459Y-86341957D01*
X125788944Y-86335318D01*
X125792601Y-86328833D01*
X125880909Y-86182754D01*
X125937154Y-86089710D01*
X125941181Y-86083482D01*
X125945453Y-86077291D01*
X125949874Y-86071285D01*
X125949882Y-86071275D01*
X126122185Y-85851347D01*
X126126938Y-85845643D01*
X126131946Y-85839990D01*
X126137032Y-85834589D01*
X126334589Y-85637032D01*
X126339990Y-85631946D01*
X126345643Y-85626938D01*
X126351347Y-85622185D01*
X126571290Y-85449869D01*
X126577311Y-85445440D01*
X126583463Y-85441194D01*
X126589719Y-85437149D01*
X126828846Y-85292593D01*
X126835282Y-85288963D01*
X126841984Y-85285445D01*
X126848627Y-85282210D01*
X127103467Y-85167515D01*
X127110297Y-85164686D01*
X127117354Y-85162010D01*
X127124358Y-85159593D01*
X127391106Y-85076471D01*
X127398267Y-85074474D01*
X127405582Y-85072671D01*
X127412856Y-85071109D01*
X127687673Y-85020747D01*
X127695042Y-85019625D01*
X127702500Y-85018720D01*
X127709909Y-85018046D01*
X127994427Y-85000837D01*
X127998152Y-85000669D01*
X128001917Y-85000556D01*
X128005637Y-85000500D01*
X149994363Y-85000500D01*
X149998084Y-85000556D01*
G37*
%TD.AperFunction*%
%TD*%
%TA.AperFunction,Conductor*%
%TO.N,+12V*%
G36*
X140772172Y-105008868D02*
G01*
X142000000Y-105500000D01*
X149376000Y-105500000D01*
X149443039Y-105519685D01*
X149488794Y-105572489D01*
X149500000Y-105624000D01*
X149500000Y-107876000D01*
X149480315Y-107943039D01*
X149427511Y-107988794D01*
X149376000Y-108000000D01*
X146999999Y-108000000D01*
X146536319Y-108463681D01*
X146474996Y-108497166D01*
X146448638Y-108500000D01*
X141541333Y-108500000D01*
X141474294Y-108480315D01*
X141466933Y-108475200D01*
X139500000Y-107000000D01*
X139499999Y-107000000D01*
X137124000Y-107000000D01*
X137056961Y-106980315D01*
X137011206Y-106927511D01*
X137000000Y-106876000D01*
X137000000Y-105124000D01*
X137019685Y-105056961D01*
X137072489Y-105011206D01*
X137124000Y-105000000D01*
X140726121Y-105000000D01*
X140772172Y-105008868D01*
G37*
%TD.AperFunction*%
%TD*%
M02*
