%TF.GenerationSoftware,KiCad,Pcbnew,10.0.6*%
%TF.CreationDate,2026-09-27T15:33:06-05:00*%
%TF.ProjectId,Onboarding,4f6e626f-6172-4646-996e-672e6b696361,rev?*%
%TF.SameCoordinates,Original*%
%TF.FileFunction,Legend,Bot*%
%TF.FilePolarity,Positive*%
%FSLAX46Y46*%
G04 Gerber Fmt 4.6, Leading zero omitted, Abs format (unit mm)*
G04 Created by KiCad (PCBNEW 10.0.6) date 2026-09-27 15:33:06*
%MOMM*%
%LPD*%
G01*
G04 APERTURE LIST*
G04 Aperture macros list*
%AMRoundRect*
0 Rectangle with rounded corners*
0 $1 Rounding radius*
0 $2 $3 $4 $5 $6 $7 $8 $9 X,Y pos of 4 corners*
0 Add a 4 corners polygon primitive as box body*
4,1,4,$2,$3,$4,$5,$6,$7,$8,$9,$2,$3,0*
0 Add four circle primitives for the rounded corners*
1,1,$1+$1,$2,$3*
1,1,$1+$1,$4,$5*
1,1,$1+$1,$6,$7*
1,1,$1+$1,$8,$9*
0 Add four rect primitives between the rounded corners*
20,1,$1+$1,$2,$3,$4,$5,0*
20,1,$1+$1,$4,$5,$6,$7,0*
20,1,$1+$1,$6,$7,$8,$9,0*
20,1,$1+$1,$8,$9,$2,$3,0*%
G04 Aperture macros list end*
%ADD10C,0.254000*%
%ADD11C,0.150000*%
%ADD12C,0.200000*%
%ADD13C,0.100000*%
%ADD14C,0.120000*%
%ADD15R,3.680000X3.050000*%
%ADD16RoundRect,0.250000X0.550000X-0.550000X0.550000X0.550000X-0.550000X0.550000X-0.550000X-0.550000X0*%
%ADD17C,1.600000*%
%ADD18RoundRect,0.250000X0.475000X-0.250000X0.475000X0.250000X-0.475000X0.250000X-0.475000X-0.250000X0*%
%ADD19C,3.800000*%
%ADD20RoundRect,0.760000X-1.140000X1.140000X-1.140000X-1.140000X1.140000X-1.140000X1.140000X1.140000X0*%
%ADD21C,2.200000*%
%ADD22C,1.400000*%
%ADD23C,4.000000*%
%ADD24RoundRect,0.760000X-1.140000X-1.140000X1.140000X-1.140000X1.140000X1.140000X-1.140000X1.140000X0*%
%ADD25RoundRect,0.150000X-0.700000X0.150000X-0.700000X-0.150000X0.700000X-0.150000X0.700000X0.150000X0*%
%ADD26RoundRect,0.250000X-1.150000X0.250000X-1.150000X-0.250000X1.150000X-0.250000X1.150000X0.250000X0*%
%ADD27RoundRect,0.250000X0.300000X0.300000X-0.300000X0.300000X-0.300000X-0.300000X0.300000X-0.300000X0*%
G04 APERTURE END LIST*
D10*
X142054318Y-103541333D02*
X142054318Y-102936571D01*
X142054318Y-102936571D02*
X140784318Y-102936571D01*
X142054318Y-104629905D02*
X142054318Y-103904190D01*
X142054318Y-104267047D02*
X140784318Y-104267047D01*
X140784318Y-104267047D02*
X140965746Y-104146095D01*
X140965746Y-104146095D02*
X141086699Y-104025143D01*
X141086699Y-104025143D02*
X141147175Y-103904190D01*
D11*
X148539580Y-90383333D02*
X148587200Y-90335714D01*
X148587200Y-90335714D02*
X148634819Y-90192857D01*
X148634819Y-90192857D02*
X148634819Y-90097619D01*
X148634819Y-90097619D02*
X148587200Y-89954762D01*
X148587200Y-89954762D02*
X148491961Y-89859524D01*
X148491961Y-89859524D02*
X148396723Y-89811905D01*
X148396723Y-89811905D02*
X148206247Y-89764286D01*
X148206247Y-89764286D02*
X148063390Y-89764286D01*
X148063390Y-89764286D02*
X147872914Y-89811905D01*
X147872914Y-89811905D02*
X147777676Y-89859524D01*
X147777676Y-89859524D02*
X147682438Y-89954762D01*
X147682438Y-89954762D02*
X147634819Y-90097619D01*
X147634819Y-90097619D02*
X147634819Y-90192857D01*
X147634819Y-90192857D02*
X147682438Y-90335714D01*
X147682438Y-90335714D02*
X147730057Y-90383333D01*
X147968152Y-91240476D02*
X148634819Y-91240476D01*
X147587200Y-91002381D02*
X148301485Y-90764286D01*
X148301485Y-90764286D02*
X148301485Y-91383333D01*
X136333333Y-86954819D02*
X136333333Y-87669104D01*
X136333333Y-87669104D02*
X136380952Y-87811961D01*
X136380952Y-87811961D02*
X136476190Y-87907200D01*
X136476190Y-87907200D02*
X136619047Y-87954819D01*
X136619047Y-87954819D02*
X136714285Y-87954819D01*
X135333333Y-87954819D02*
X135904761Y-87954819D01*
X135619047Y-87954819D02*
X135619047Y-86954819D01*
X135619047Y-86954819D02*
X135714285Y-87097676D01*
X135714285Y-87097676D02*
X135809523Y-87192914D01*
X135809523Y-87192914D02*
X135904761Y-87240533D01*
X145571428Y-91614700D02*
X144428571Y-91614700D01*
X144999999Y-92186128D02*
X144999999Y-91043271D01*
X132571428Y-91614700D02*
X131428571Y-91614700D01*
X158004819Y-95041666D02*
X158719104Y-95041666D01*
X158719104Y-95041666D02*
X158861961Y-94994047D01*
X158861961Y-94994047D02*
X158957200Y-94898809D01*
X158957200Y-94898809D02*
X159004819Y-94755952D01*
X159004819Y-94755952D02*
X159004819Y-94660714D01*
X158004819Y-95422619D02*
X158004819Y-96041666D01*
X158004819Y-96041666D02*
X158385771Y-95708333D01*
X158385771Y-95708333D02*
X158385771Y-95851190D01*
X158385771Y-95851190D02*
X158433390Y-95946428D01*
X158433390Y-95946428D02*
X158481009Y-95994047D01*
X158481009Y-95994047D02*
X158576247Y-96041666D01*
X158576247Y-96041666D02*
X158814342Y-96041666D01*
X158814342Y-96041666D02*
X158909580Y-95994047D01*
X158909580Y-95994047D02*
X158957200Y-95946428D01*
X158957200Y-95946428D02*
X159004819Y-95851190D01*
X159004819Y-95851190D02*
X159004819Y-95565476D01*
X159004819Y-95565476D02*
X158957200Y-95470238D01*
X158957200Y-95470238D02*
X158909580Y-95422619D01*
X150004819Y-92041666D02*
X150719104Y-92041666D01*
X150719104Y-92041666D02*
X150861961Y-91994047D01*
X150861961Y-91994047D02*
X150957200Y-91898809D01*
X150957200Y-91898809D02*
X151004819Y-91755952D01*
X151004819Y-91755952D02*
X151004819Y-91660714D01*
X150338152Y-92946428D02*
X151004819Y-92946428D01*
X149957200Y-92708333D02*
X150671485Y-92470238D01*
X150671485Y-92470238D02*
X150671485Y-93089285D01*
X152765094Y-105049819D02*
X152765094Y-104049819D01*
X152765094Y-104049819D02*
X152526999Y-104049819D01*
X152526999Y-104049819D02*
X152384142Y-104097438D01*
X152384142Y-104097438D02*
X152288904Y-104192676D01*
X152288904Y-104192676D02*
X152241285Y-104287914D01*
X152241285Y-104287914D02*
X152193666Y-104478390D01*
X152193666Y-104478390D02*
X152193666Y-104621247D01*
X152193666Y-104621247D02*
X152241285Y-104811723D01*
X152241285Y-104811723D02*
X152288904Y-104906961D01*
X152288904Y-104906961D02*
X152384142Y-105002200D01*
X152384142Y-105002200D02*
X152526999Y-105049819D01*
X152526999Y-105049819D02*
X152765094Y-105049819D01*
X151812713Y-104145057D02*
X151765094Y-104097438D01*
X151765094Y-104097438D02*
X151669856Y-104049819D01*
X151669856Y-104049819D02*
X151431761Y-104049819D01*
X151431761Y-104049819D02*
X151336523Y-104097438D01*
X151336523Y-104097438D02*
X151288904Y-104145057D01*
X151288904Y-104145057D02*
X151241285Y-104240295D01*
X151241285Y-104240295D02*
X151241285Y-104335533D01*
X151241285Y-104335533D02*
X151288904Y-104478390D01*
X151288904Y-104478390D02*
X151860332Y-105049819D01*
X151860332Y-105049819D02*
X151241285Y-105049819D01*
%TO.C,L1*%
D12*
X140980000Y-97000000D02*
G75*
G02*
X140980000Y-97100000I0J-50000D01*
G01*
X140980000Y-97100000D02*
G75*
G02*
X140980000Y-97000000I0J50000D01*
G01*
X140980000Y-97000000D02*
G75*
G02*
X140980000Y-97100000I0J-50000D01*
G01*
X140980000Y-97000000D02*
X140980000Y-97000000D01*
X140980000Y-97100000D02*
X140980000Y-97100000D01*
X140980000Y-97000000D02*
X140980000Y-97000000D01*
D13*
X138980000Y-108445000D02*
X137035000Y-108445000D01*
X138980000Y-108445000D02*
X138980000Y-108445000D01*
X137035000Y-108445000D02*
X138980000Y-108445000D01*
X137035000Y-108445000D02*
X137035000Y-108445000D01*
X137035000Y-106250000D02*
X137035000Y-106250000D01*
X137035000Y-108445000D02*
X137035000Y-106250000D01*
X137035000Y-108445000D02*
X137035000Y-108445000D01*
X137035000Y-106250000D02*
X137035000Y-108445000D01*
X143980000Y-108445000D02*
X145925000Y-108445000D01*
X143980000Y-108445000D02*
X143980000Y-108445000D01*
X145925000Y-108445000D02*
X143980000Y-108445000D01*
X145925000Y-108445000D02*
X145925000Y-108445000D01*
X145925000Y-106250000D02*
X145925000Y-106250000D01*
X145925000Y-108445000D02*
X145925000Y-106250000D01*
X145925000Y-108445000D02*
X145925000Y-108445000D01*
X145925000Y-106250000D02*
X145925000Y-108445000D01*
X145925000Y-99555000D02*
X145925000Y-99555000D01*
X145925000Y-101750000D02*
X145925000Y-99555000D01*
X145925000Y-101750000D02*
X145925000Y-101750000D01*
X145925000Y-99555000D02*
X145925000Y-101750000D01*
X145980000Y-99555000D02*
X143980000Y-99555000D01*
X145980000Y-99555000D02*
X145980000Y-99555000D01*
X143980000Y-99555000D02*
X145980000Y-99555000D01*
X143980000Y-99555000D02*
X143980000Y-99555000D01*
X138980000Y-99555000D02*
X137035000Y-99555000D01*
X138980000Y-99555000D02*
X138980000Y-99555000D01*
X137035000Y-99555000D02*
X138980000Y-99555000D01*
X137035000Y-99555000D02*
X137035000Y-99555000D01*
X137035000Y-101750000D02*
X137035000Y-101750000D01*
X137035000Y-99555000D02*
X137035000Y-101750000D01*
X137035000Y-99555000D02*
X137035000Y-99555000D01*
X137035000Y-101750000D02*
X137035000Y-99555000D01*
%TO.C,C4*%
D14*
X147235000Y-90811252D02*
X147235000Y-90288748D01*
X145765000Y-90811252D02*
X145765000Y-90288748D01*
%TO.C,J1*%
X143710000Y-94210000D02*
X143710000Y-88790000D01*
X134990000Y-88790000D02*
X143710000Y-88790000D01*
X134990000Y-94210000D02*
X143710000Y-94210000D01*
X133290000Y-90090000D02*
X134990000Y-88790000D01*
X133290000Y-92910000D02*
X134990000Y-94210000D01*
X133290000Y-92910000D02*
X133290000Y-90090000D01*
%TO.C,J3*%
X162810000Y-92390000D02*
X164410000Y-92390000D01*
X164410000Y-92390000D02*
X164410000Y-94190000D01*
X159940000Y-93660000D02*
X159940000Y-97090000D01*
X164410000Y-94190000D02*
X165350000Y-94190000D01*
X162810000Y-98360000D02*
X164410000Y-98360000D01*
X164410000Y-98360000D02*
X164410000Y-96560000D01*
%TO.C,J4*%
X156410000Y-95360000D02*
X156410000Y-93560000D01*
X154810000Y-95360000D02*
X156410000Y-95360000D01*
X156410000Y-91190000D02*
X157350000Y-91190000D01*
X151940000Y-90660000D02*
X151940000Y-94090000D01*
X156410000Y-89390000D02*
X156410000Y-91190000D01*
X154810000Y-89390000D02*
X156410000Y-89390000D01*
%TO.C,D2*%
X154110000Y-105500000D02*
X154110000Y-107500000D01*
X154110000Y-105500000D02*
X150250000Y-105500000D01*
X154110000Y-107500000D02*
X150250000Y-107500000D01*
%TD*%
%LPC*%
D15*
%TO.C,L1*%
X136500000Y-104000000D03*
X141480000Y-108980000D03*
X146460000Y-104000000D03*
X141480000Y-99020000D03*
%TD*%
D16*
%TO.C,C1*%
X159000000Y-106000000D03*
D17*
X159000000Y-101000000D03*
%TD*%
D18*
%TO.C,C4*%
X146500000Y-91500000D03*
X146500000Y-89600000D03*
%TD*%
D19*
%TO.C,J2*%
X130000000Y-102000000D03*
D20*
X130000000Y-97000000D03*
%TD*%
D21*
%TO.C,H2*%
X129000000Y-109902651D03*
%TD*%
D22*
%TO.C,TP2*%
X154500000Y-108500000D03*
X154500000Y-110500000D03*
%TD*%
D21*
%TO.C,H1*%
X129500000Y-88402651D03*
%TD*%
D23*
%TO.C,J1*%
X141000000Y-91500000D03*
D24*
X136000000Y-91500000D03*
%TD*%
D25*
%TO.C,J3*%
X164500000Y-94750000D03*
X164500000Y-96000000D03*
D26*
X161150000Y-92900000D03*
X161150000Y-97850000D03*
%TD*%
D22*
%TO.C,TP1*%
X151000000Y-108500000D03*
X151000000Y-110500000D03*
%TD*%
D21*
%TO.C,H3*%
X162000000Y-88902651D03*
%TD*%
%TO.C,H4*%
X163500000Y-109500000D03*
%TD*%
D26*
%TO.C,J4*%
X153150000Y-94850000D03*
X153150000Y-89900000D03*
D25*
X156500000Y-93000000D03*
X156500000Y-91750000D03*
%TD*%
D27*
%TO.C,D2*%
X153300000Y-106500000D03*
X150500000Y-106500000D03*
%TD*%
%LPD*%
M02*
