%TF.GenerationSoftware,KiCad,Pcbnew,9.0.4*%
%TF.CreationDate,2025-09-28T15:06:45-05:00*%
%TF.ProjectId,Onboarding,4f6e626f-6172-4646-996e-672e6b696361,rev?*%
%TF.SameCoordinates,Original*%
%TF.FileFunction,Soldermask,Top*%
%TF.FilePolarity,Negative*%
%FSLAX46Y46*%
G04 Gerber Fmt 4.6, Leading zero omitted, Abs format (unit mm)*
G04 Created by KiCad (PCBNEW 9.0.4) date 2025-09-28 15:06:45*
%MOMM*%
%LPD*%
G01*
G04 APERTURE LIST*
G04 Aperture macros list*
%AMRoundRect*
0 Rectangle with rounded corners*
0 $1 Rounding radius*
0 $2 $3 $4 $5 $6 $7 $8 $9 X,Y pos of 4 corners*
0 Add a 4 corners polygon primitive as box body*
4,1,4,$2,$3,$4,$5,$6,$7,$8,$9,$2,$3,0*
0 Add four circle primitives for the rounded corners*
1,1,$1+$1,$2,$3*
1,1,$1+$1,$4,$5*
1,1,$1+$1,$6,$7*
1,1,$1+$1,$8,$9*
0 Add four rect primitives between the rounded corners*
20,1,$1+$1,$2,$3,$4,$5,0*
20,1,$1+$1,$4,$5,$6,$7,0*
20,1,$1+$1,$6,$7,$8,$9,0*
20,1,$1+$1,$8,$9,$2,$3,0*%
G04 Aperture macros list end*
%ADD10RoundRect,0.760000X1.140000X-1.140000X1.140000X1.140000X-1.140000X1.140000X-1.140000X-1.140000X0*%
%ADD11C,3.800000*%
%ADD12C,1.400000*%
%ADD13RoundRect,0.237500X-0.250000X-0.237500X0.250000X-0.237500X0.250000X0.237500X-0.250000X0.237500X0*%
%ADD14RoundRect,0.250000X-0.550000X-0.550000X0.550000X-0.550000X0.550000X0.550000X-0.550000X0.550000X0*%
%ADD15C,1.600000*%
%ADD16RoundRect,0.250000X-0.350000X-0.450000X0.350000X-0.450000X0.350000X0.450000X-0.350000X0.450000X0*%
%ADD17RoundRect,0.760000X-1.140000X-1.140000X1.140000X-1.140000X1.140000X1.140000X-1.140000X1.140000X0*%
%ADD18C,4.000000*%
%ADD19RoundRect,0.250000X0.250000X0.475000X-0.250000X0.475000X-0.250000X-0.475000X0.250000X-0.475000X0*%
%ADD20RoundRect,0.237500X0.237500X-0.250000X0.237500X0.250000X-0.237500X0.250000X-0.237500X-0.250000X0*%
%ADD21RoundRect,0.250000X-0.300000X-0.300000X0.300000X-0.300000X0.300000X0.300000X-0.300000X0.300000X0*%
%ADD22RoundRect,0.150000X0.825000X0.150000X-0.825000X0.150000X-0.825000X-0.150000X0.825000X-0.150000X0*%
%ADD23RoundRect,0.150000X-0.150000X-0.700000X0.150000X-0.700000X0.150000X0.700000X-0.150000X0.700000X0*%
%ADD24RoundRect,0.250000X-0.250000X-1.150000X0.250000X-1.150000X0.250000X1.150000X-0.250000X1.150000X0*%
%ADD25RoundRect,0.237500X-0.300000X-0.237500X0.300000X-0.237500X0.300000X0.237500X-0.300000X0.237500X0*%
%ADD26R,1.400000X1.950000*%
G04 APERTURE END LIST*
D10*
%TO.C,J2*%
X111230000Y-81310000D03*
D11*
X111230000Y-76310000D03*
%TD*%
D12*
%TO.C,TP1*%
X124875000Y-99175000D03*
X126875000Y-99175000D03*
%TD*%
D13*
%TO.C,R1*%
X116400000Y-84991250D03*
X118225000Y-84991250D03*
%TD*%
D14*
%TO.C,C1*%
X119747349Y-78910000D03*
D15*
X124747349Y-78910000D03*
%TD*%
D16*
%TO.C,R4*%
X115775000Y-99275000D03*
X117775000Y-99275000D03*
%TD*%
D17*
%TO.C,J1*%
X107900000Y-89375000D03*
D18*
X112900000Y-89375000D03*
%TD*%
D19*
%TO.C,C3*%
X111500000Y-93600000D03*
X109600000Y-93600000D03*
%TD*%
D20*
%TO.C,R2*%
X116150000Y-81502500D03*
X116150000Y-79677500D03*
%TD*%
D21*
%TO.C,D1*%
X120425000Y-86275000D03*
X123225000Y-86275000D03*
%TD*%
D20*
%TO.C,R3*%
X114850000Y-96787500D03*
X114850000Y-94962500D03*
%TD*%
D22*
%TO.C,U1*%
X122362500Y-96331250D03*
X122362500Y-95061250D03*
X122362500Y-93791250D03*
X122362500Y-92521250D03*
X117412500Y-92521250D03*
X117412500Y-93791250D03*
X117412500Y-95061250D03*
X117412500Y-96331250D03*
%TD*%
D23*
%TO.C,J4*%
X129775000Y-83825000D03*
X131025000Y-83825000D03*
D24*
X127925000Y-80475000D03*
X132875000Y-80475000D03*
%TD*%
D12*
%TO.C,TP2*%
X120440000Y-99340000D03*
X122440000Y-99340000D03*
%TD*%
D25*
%TO.C,C2*%
X119650000Y-89891250D03*
X121375000Y-89891250D03*
%TD*%
D23*
%TO.C,J3*%
X129875000Y-92775000D03*
X131125000Y-92775000D03*
D24*
X128025000Y-89425000D03*
X132975000Y-89425000D03*
%TD*%
D26*
%TO.C,L1*%
X127730000Y-95660000D03*
X124730000Y-95660000D03*
%TD*%
M02*
