%TF.GenerationSoftware,KiCad,Pcbnew,9.0.4*%
%TF.CreationDate,2026-01-28T15:19:22-06:00*%
%TF.ProjectId,Onboarding,4f6e626f-6172-4646-996e-672e6b696361,rev?*%
%TF.SameCoordinates,Original*%
%TF.FileFunction,Copper,L1,Top*%
%TF.FilePolarity,Positive*%
%FSLAX46Y46*%
G04 Gerber Fmt 4.6, Leading zero omitted, Abs format (unit mm)*
G04 Created by KiCad (PCBNEW 9.0.4) date 2026-01-28 15:19:22*
%MOMM*%
%LPD*%
G01*
G04 APERTURE LIST*
G04 Aperture macros list*
%AMRoundRect*
0 Rectangle with rounded corners*
0 $1 Rounding radius*
0 $2 $3 $4 $5 $6 $7 $8 $9 X,Y pos of 4 corners*
0 Add a 4 corners polygon primitive as box body*
4,1,4,$2,$3,$4,$5,$6,$7,$8,$9,$2,$3,0*
0 Add four circle primitives for the rounded corners*
1,1,$1+$1,$2,$3*
1,1,$1+$1,$4,$5*
1,1,$1+$1,$6,$7*
1,1,$1+$1,$8,$9*
0 Add four rect primitives between the rounded corners*
20,1,$1+$1,$2,$3,$4,$5,0*
20,1,$1+$1,$4,$5,$6,$7,0*
20,1,$1+$1,$6,$7,$8,$9,0*
20,1,$1+$1,$8,$9,$2,$3,0*%
G04 Aperture macros list end*
%TA.AperFunction,SMDPad,CuDef*%
%ADD10RoundRect,0.250000X-0.250000X-0.475000X0.250000X-0.475000X0.250000X0.475000X-0.250000X0.475000X0*%
%TD*%
%TA.AperFunction,ComponentPad*%
%ADD11RoundRect,0.760000X1.140000X1.140000X-1.140000X1.140000X-1.140000X-1.140000X1.140000X-1.140000X0*%
%TD*%
%TA.AperFunction,ComponentPad*%
%ADD12C,3.800000*%
%TD*%
%TA.AperFunction,SMDPad,CuDef*%
%ADD13RoundRect,0.237500X-0.250000X-0.237500X0.250000X-0.237500X0.250000X0.237500X-0.250000X0.237500X0*%
%TD*%
%TA.AperFunction,SMDPad,CuDef*%
%ADD14R,10.160000X1.520000*%
%TD*%
%TA.AperFunction,ComponentPad*%
%ADD15RoundRect,0.250000X0.550000X0.550000X-0.550000X0.550000X-0.550000X-0.550000X0.550000X-0.550000X0*%
%TD*%
%TA.AperFunction,ComponentPad*%
%ADD16C,1.600000*%
%TD*%
%TA.AperFunction,ComponentPad*%
%ADD17RoundRect,0.760000X-1.140000X-1.140000X1.140000X-1.140000X1.140000X1.140000X-1.140000X1.140000X0*%
%TD*%
%TA.AperFunction,ComponentPad*%
%ADD18C,4.000000*%
%TD*%
%TA.AperFunction,SMDPad,CuDef*%
%ADD19RoundRect,0.150000X-0.150000X-0.700000X0.150000X-0.700000X0.150000X0.700000X-0.150000X0.700000X0*%
%TD*%
%TA.AperFunction,SMDPad,CuDef*%
%ADD20RoundRect,0.250000X-0.250000X-1.150000X0.250000X-1.150000X0.250000X1.150000X-0.250000X1.150000X0*%
%TD*%
%TA.AperFunction,SMDPad,CuDef*%
%ADD21RoundRect,0.250000X-0.450000X0.350000X-0.450000X-0.350000X0.450000X-0.350000X0.450000X0.350000X0*%
%TD*%
%TA.AperFunction,SMDPad,CuDef*%
%ADD22RoundRect,0.250000X0.300000X-0.300000X0.300000X0.300000X-0.300000X0.300000X-0.300000X-0.300000X0*%
%TD*%
%TA.AperFunction,ComponentPad*%
%ADD23C,1.400000*%
%TD*%
%TA.AperFunction,SMDPad,CuDef*%
%ADD24RoundRect,0.150000X0.150000X-0.825000X0.150000X0.825000X-0.150000X0.825000X-0.150000X-0.825000X0*%
%TD*%
%TA.AperFunction,SMDPad,CuDef*%
%ADD25RoundRect,0.237500X-0.300000X-0.237500X0.300000X-0.237500X0.300000X0.237500X-0.300000X0.237500X0*%
%TD*%
%TA.AperFunction,ViaPad*%
%ADD26C,0.600000*%
%TD*%
%TA.AperFunction,Conductor*%
%ADD27C,0.200000*%
%TD*%
G04 APERTURE END LIST*
D10*
%TO.P,C1,1*%
%TO.N,+12V*%
X158300000Y-87000000D03*
%TO.P,C1,2*%
%TO.N,GND*%
X160200000Y-87000000D03*
%TD*%
D11*
%TO.P,J2,1,Pin_1*%
%TO.N,GND*%
X155750000Y-111000000D03*
D12*
%TO.P,J2,2,Pin_2*%
%TO.N,VCC*%
X150750000Y-111000000D03*
%TD*%
D13*
%TO.P,R2,1*%
%TO.N,VCC*%
X150337500Y-105000000D03*
%TO.P,R2,2*%
%TO.N,Net-(U1-COMP-)*%
X152162500Y-105000000D03*
%TD*%
D14*
%TO.P,L1,1*%
%TO.N,/PIR*%
X143250000Y-97025000D03*
%TO.P,L1,2*%
%TO.N,/GHS*%
X143250000Y-87885000D03*
%TD*%
D15*
%TO.P,C2,1*%
%TO.N,VCC*%
X145250000Y-107500000D03*
D16*
%TO.P,C2,2*%
%TO.N,GND*%
X140250000Y-107500000D03*
%TD*%
D17*
%TO.P,J1,1,Pin_1*%
%TO.N,GND*%
X149750000Y-81750000D03*
D18*
%TO.P,J1,2,Pin_2*%
%TO.N,+12V*%
X154750000Y-81750000D03*
%TD*%
D19*
%TO.P,J3,1,Pin_1*%
%TO.N,/CAN-*%
X160000000Y-99000000D03*
%TO.P,J3,2,Pin_2*%
%TO.N,/CAN+*%
X161250000Y-99000000D03*
D20*
%TO.P,J3,MP*%
%TO.N,N/C*%
X158150000Y-95650000D03*
X163100000Y-95650000D03*
%TD*%
D21*
%TO.P,R1,1*%
%TO.N,/GHS*%
X152250000Y-86750000D03*
%TO.P,R1,2*%
%TO.N,Net-(U1-DC)*%
X152250000Y-88750000D03*
%TD*%
D19*
%TO.P,J4,1,Pin_1*%
%TO.N,/CAN-*%
X160000000Y-106000000D03*
%TO.P,J4,2,Pin_2*%
%TO.N,/CAN+*%
X161250000Y-106000000D03*
D20*
%TO.P,J4,MP*%
%TO.N,N/C*%
X158150000Y-102650000D03*
X163100000Y-102650000D03*
%TD*%
D22*
%TO.P,D1,1,K*%
%TO.N,VCC*%
X147750000Y-102900000D03*
%TO.P,D1,2,A*%
%TO.N,/PIR*%
X147750000Y-100100000D03*
%TD*%
D23*
%TO.P,TP2,1,1*%
%TO.N,/PIR*%
X142750000Y-100455000D03*
X140750000Y-100455000D03*
%TD*%
D13*
%TO.P,R3,1*%
%TO.N,/GHS*%
X154175000Y-87000000D03*
%TO.P,R3,2*%
%TO.N,+12V*%
X156000000Y-87000000D03*
%TD*%
D24*
%TO.P,U1,1,SC*%
%TO.N,/PIR*%
X152095000Y-95975000D03*
%TO.P,U1,2,SE*%
%TO.N,GND*%
X153365000Y-95975000D03*
%TO.P,U1,3,CT*%
%TO.N,Net-(U1-CT)*%
X154635000Y-95975000D03*
%TO.P,U1,4,GND*%
%TO.N,GND*%
X155905000Y-95975000D03*
%TO.P,U1,5,COMP-*%
%TO.N,Net-(U1-COMP-)*%
X155905000Y-91025000D03*
%TO.P,U1,6,VCC*%
%TO.N,+12V*%
X154635000Y-91025000D03*
%TO.P,U1,7,I_{PK}*%
%TO.N,/GHS*%
X153365000Y-91025000D03*
%TO.P,U1,8,DC*%
%TO.N,Net-(U1-DC)*%
X152095000Y-91025000D03*
%TD*%
D25*
%TO.P,C3,1*%
%TO.N,Net-(U1-CT)*%
X153525000Y-99000000D03*
%TO.P,C3,2*%
%TO.N,GND*%
X155250000Y-99000000D03*
%TD*%
D23*
%TO.P,TP1,1,1*%
%TO.N,/GHS*%
X143250000Y-84455000D03*
X141250000Y-84455000D03*
%TD*%
D13*
%TO.P,R4,1*%
%TO.N,Net-(U1-COMP-)*%
X158425000Y-90500000D03*
%TO.P,R4,2*%
%TO.N,GND*%
X160250000Y-90500000D03*
%TD*%
D26*
%TO.N,Net-(U1-COMP-)*%
X157250000Y-90500000D03*
X156750000Y-105000000D03*
%TD*%
D27*
%TO.N,Net-(U1-COMP-)*%
X156300000Y-90455000D02*
X156250000Y-90505000D01*
X158425000Y-90500000D02*
X157250000Y-90500000D01*
X152162500Y-105000000D02*
X156750000Y-105000000D01*
X157250000Y-90500000D02*
X156430000Y-90500000D01*
X156430000Y-90500000D02*
X155905000Y-91025000D01*
%TO.N,/CAN-*%
X160000000Y-104724999D02*
X160000000Y-106000000D01*
X160400000Y-104324999D02*
X160000000Y-104724999D01*
X160000000Y-99000000D02*
X160000000Y-100275001D01*
X160400000Y-100675001D02*
X160400000Y-104324999D01*
X160000000Y-100275001D02*
X160400000Y-100675001D01*
%TO.N,/CAN+*%
X161250000Y-104724999D02*
X161250000Y-106000000D01*
X161250000Y-99000000D02*
X161250000Y-100275001D01*
X160850000Y-104324999D02*
X161250000Y-104724999D01*
X161250000Y-100275001D02*
X160850000Y-100675001D01*
X160850000Y-100675001D02*
X160850000Y-104324999D01*
%TO.N,Net-(U1-DC)*%
X152250000Y-90870000D02*
X152095000Y-91025000D01*
X152250000Y-88750000D02*
X152250000Y-90870000D01*
%TO.N,Net-(U1-CT)*%
X153525000Y-99000000D02*
X154635000Y-97890000D01*
X154635000Y-97890000D02*
X154635000Y-95975000D01*
%TD*%
%TA.AperFunction,Conductor*%
%TO.N,/PIR*%
G36*
X152555700Y-94769685D02*
G01*
X152601455Y-94822489D01*
X152611399Y-94891647D01*
X152607737Y-94908595D01*
X152567402Y-95047426D01*
X152567401Y-95047432D01*
X152564500Y-95084298D01*
X152564500Y-96865701D01*
X152567401Y-96902567D01*
X152567402Y-96902573D01*
X152613254Y-97060393D01*
X152613255Y-97060396D01*
X152659043Y-97137820D01*
X152676226Y-97205544D01*
X152669948Y-97240153D01*
X151769902Y-99940292D01*
X151730028Y-99997667D01*
X151690057Y-100019181D01*
X147098122Y-101488601D01*
X147060330Y-101494500D01*
X146820757Y-101494500D01*
X146704066Y-101508153D01*
X146648360Y-101521370D01*
X146537973Y-101561592D01*
X146419937Y-101643860D01*
X146419934Y-101643862D01*
X146368883Y-101691563D01*
X146368881Y-101691565D01*
X146359398Y-101703376D01*
X146302075Y-101743323D01*
X146300505Y-101743837D01*
X145518434Y-101994101D01*
X145480642Y-102000000D01*
X137874000Y-102000000D01*
X137806961Y-101980315D01*
X137761206Y-101927511D01*
X137750000Y-101876000D01*
X137750000Y-96110707D01*
X137769685Y-96043668D01*
X137822489Y-95997913D01*
X137859998Y-95987500D01*
X147354364Y-94908595D01*
X148743022Y-94750793D01*
X148757023Y-94750000D01*
X152488661Y-94750000D01*
X152555700Y-94769685D01*
G37*
%TD.AperFunction*%
%TD*%
%TA.AperFunction,Conductor*%
%TO.N,VCC*%
G36*
X149521168Y-102019685D02*
G01*
X149534827Y-102029852D01*
X151206698Y-103462884D01*
X151244788Y-103521459D01*
X151250000Y-103557032D01*
X151250000Y-104397602D01*
X151240317Y-104441282D01*
X151241364Y-104441629D01*
X151239092Y-104448482D01*
X151239092Y-104448484D01*
X151184826Y-104612247D01*
X151184826Y-104612248D01*
X151184825Y-104612248D01*
X151174500Y-104713315D01*
X151174500Y-105286669D01*
X151174501Y-105286687D01*
X151184825Y-105387752D01*
X151215566Y-105480520D01*
X151239092Y-105551516D01*
X151329660Y-105698350D01*
X151451650Y-105820340D01*
X151503485Y-105852312D01*
X151537587Y-105883449D01*
X152749999Y-107500000D01*
X152750000Y-107500000D01*
X152876000Y-107500000D01*
X152943039Y-107519685D01*
X152988794Y-107572489D01*
X153000000Y-107624000D01*
X153000000Y-113126000D01*
X152980315Y-113193039D01*
X152927511Y-113238794D01*
X152876000Y-113250000D01*
X149541333Y-113250000D01*
X149474294Y-113230315D01*
X149466933Y-113225200D01*
X149334666Y-113126000D01*
X143549600Y-108787200D01*
X143507779Y-108731229D01*
X143500000Y-108688000D01*
X143500000Y-107533898D01*
X143517245Y-107470816D01*
X144492528Y-105820338D01*
X146714003Y-102060918D01*
X146765055Y-102013216D01*
X146820758Y-102000000D01*
X149454129Y-102000000D01*
X149521168Y-102019685D01*
G37*
%TD.AperFunction*%
%TD*%
%TA.AperFunction,Conductor*%
%TO.N,+12V*%
G36*
X156979889Y-79519685D02*
G01*
X157025644Y-79572489D01*
X157029516Y-79581991D01*
X159169218Y-85525606D01*
X159242670Y-85729638D01*
X159250000Y-85771639D01*
X159250000Y-86231484D01*
X159243706Y-86270488D01*
X159210001Y-86372203D01*
X159210000Y-86372204D01*
X159199500Y-86474983D01*
X159199500Y-87525001D01*
X159199501Y-87525019D01*
X159210000Y-87627796D01*
X159227955Y-87681979D01*
X159243706Y-87729513D01*
X159250000Y-87768515D01*
X159250000Y-88890535D01*
X159230315Y-88957574D01*
X159177511Y-89003329D01*
X159141380Y-89013577D01*
X155250000Y-89499999D01*
X155250000Y-89742093D01*
X155232732Y-89805214D01*
X155153255Y-89939603D01*
X155153254Y-89939606D01*
X155107402Y-90097426D01*
X155107401Y-90097432D01*
X155104500Y-90134298D01*
X155104500Y-91915701D01*
X155107401Y-91952567D01*
X155107402Y-91952573D01*
X155153254Y-92110393D01*
X155153255Y-92110396D01*
X155153256Y-92110398D01*
X155205765Y-92199186D01*
X155232732Y-92244785D01*
X155237082Y-92260686D01*
X155244977Y-92272971D01*
X155250000Y-92307906D01*
X155250000Y-92376000D01*
X155230315Y-92443039D01*
X155177511Y-92488794D01*
X155126000Y-92500000D01*
X154495040Y-92500000D01*
X154428001Y-92480315D01*
X154382246Y-92427511D01*
X154371655Y-92363662D01*
X154383542Y-92244785D01*
X154388102Y-92199186D01*
X154388494Y-92102672D01*
X154384185Y-92055738D01*
X154366230Y-91960920D01*
X154353092Y-91915701D01*
X154344924Y-91887585D01*
X154340000Y-91852990D01*
X154340000Y-90197007D01*
X154344918Y-90162431D01*
X154346492Y-90157010D01*
X154358837Y-90128478D01*
X154387707Y-90079661D01*
X154393858Y-90070263D01*
X154405567Y-90054027D01*
X154411269Y-90041541D01*
X154411458Y-90041258D01*
X154411813Y-90040350D01*
X154465338Y-89923150D01*
X154485023Y-89856111D01*
X154485024Y-89856107D01*
X154505500Y-89713691D01*
X154505500Y-88830546D01*
X154525185Y-88763507D01*
X154559095Y-88728472D01*
X155320888Y-88203100D01*
X155397115Y-88138541D01*
X155431031Y-88103502D01*
X155493067Y-88025224D01*
X155552838Y-87894347D01*
X155572523Y-87827308D01*
X155572524Y-87827304D01*
X155593000Y-87684888D01*
X155593000Y-87602397D01*
X155587855Y-87530455D01*
X155582832Y-87495520D01*
X155567500Y-87425043D01*
X155567022Y-87423996D01*
X155561922Y-87410922D01*
X155559376Y-87403117D01*
X155558705Y-87399365D01*
X155523742Y-87293857D01*
X155523670Y-87293635D01*
X155523659Y-87293286D01*
X155518188Y-87267656D01*
X155518128Y-87267067D01*
X155517500Y-87254603D01*
X155517500Y-86745382D01*
X155518125Y-86732948D01*
X155518185Y-86732357D01*
X155523852Y-86705812D01*
X155563479Y-86586229D01*
X155563677Y-86584197D01*
X155563676Y-86581120D01*
X155563913Y-86580111D01*
X155576446Y-86530751D01*
X155576573Y-86527061D01*
X155581019Y-86507006D01*
X155593000Y-86397602D01*
X155593000Y-85863642D01*
X155585657Y-85777795D01*
X155578505Y-85736293D01*
X155556695Y-85652953D01*
X155489734Y-85525604D01*
X155448747Y-85469019D01*
X155348623Y-85365696D01*
X155223442Y-85294764D01*
X155223430Y-85294758D01*
X155163622Y-85271373D01*
X155161751Y-85270542D01*
X155158360Y-85269316D01*
X155018280Y-85236531D01*
X155018276Y-85236530D01*
X155018271Y-85236529D01*
X154980880Y-85233263D01*
X154657673Y-85205035D01*
X154592600Y-85179592D01*
X154575054Y-85163058D01*
X152280592Y-82535039D01*
X152251329Y-82471592D01*
X152250000Y-82453486D01*
X152250000Y-79624000D01*
X152269685Y-79556961D01*
X152322489Y-79511206D01*
X152374000Y-79500000D01*
X156912850Y-79500000D01*
X156979889Y-79519685D01*
G37*
%TD.AperFunction*%
%TD*%
%TA.AperFunction,Conductor*%
%TO.N,/GHS*%
G36*
X144261814Y-82519685D02*
G01*
X144286943Y-82541048D01*
X146499998Y-84999999D01*
X146499999Y-84999999D01*
X146500000Y-85000000D01*
X154974290Y-85740112D01*
X155039361Y-85765555D01*
X155080348Y-85822140D01*
X155087500Y-85863642D01*
X155087500Y-86397602D01*
X155077817Y-86441282D01*
X155078864Y-86441629D01*
X155076592Y-86448482D01*
X155076592Y-86448484D01*
X155022326Y-86612247D01*
X155022326Y-86612248D01*
X155022325Y-86612248D01*
X155012000Y-86713315D01*
X155012000Y-87286669D01*
X155012001Y-87286687D01*
X155022325Y-87387752D01*
X155022326Y-87387755D01*
X155078864Y-87558372D01*
X155077814Y-87558719D01*
X155078317Y-87560989D01*
X155082477Y-87567462D01*
X155087500Y-87602397D01*
X155087500Y-87684888D01*
X155067815Y-87751927D01*
X155033899Y-87786966D01*
X154000000Y-88499999D01*
X154000000Y-89713691D01*
X153980315Y-89780730D01*
X153971428Y-89791757D01*
X153971702Y-89791969D01*
X153966917Y-89798137D01*
X153883255Y-89939603D01*
X153883254Y-89939606D01*
X153837402Y-90097426D01*
X153837401Y-90097432D01*
X153834500Y-90134298D01*
X153834500Y-91915701D01*
X153837401Y-91952567D01*
X153837402Y-91952573D01*
X153880802Y-92101953D01*
X153885111Y-92148887D01*
X153764378Y-93356213D01*
X153738120Y-93420961D01*
X153681025Y-93461234D01*
X153611221Y-93464247D01*
X153610063Y-93463955D01*
X137343070Y-89273972D01*
X137283060Y-89238187D01*
X137251922Y-89175639D01*
X137250000Y-89153891D01*
X137250000Y-88349983D01*
X151049500Y-88349983D01*
X151049500Y-89150001D01*
X151049501Y-89150019D01*
X151060000Y-89252796D01*
X151060001Y-89252799D01*
X151115185Y-89419331D01*
X151115186Y-89419334D01*
X151207288Y-89568656D01*
X151331344Y-89692712D01*
X151343465Y-89700188D01*
X151390189Y-89752134D01*
X151401412Y-89821097D01*
X151385100Y-89868846D01*
X151343257Y-89939599D01*
X151343254Y-89939606D01*
X151297402Y-90097426D01*
X151297401Y-90097432D01*
X151294500Y-90134298D01*
X151294500Y-91915701D01*
X151297401Y-91952567D01*
X151297402Y-91952573D01*
X151343254Y-92110393D01*
X151343255Y-92110396D01*
X151426917Y-92251862D01*
X151426923Y-92251870D01*
X151543129Y-92368076D01*
X151543133Y-92368079D01*
X151543135Y-92368081D01*
X151684602Y-92451744D01*
X151726224Y-92463836D01*
X151842426Y-92497597D01*
X151842429Y-92497597D01*
X151842431Y-92497598D01*
X151879306Y-92500500D01*
X151879314Y-92500500D01*
X152310686Y-92500500D01*
X152310694Y-92500500D01*
X152347569Y-92497598D01*
X152347571Y-92497597D01*
X152347573Y-92497597D01*
X152389191Y-92485505D01*
X152505398Y-92451744D01*
X152646865Y-92368081D01*
X152763081Y-92251865D01*
X152846744Y-92110398D01*
X152892598Y-91952569D01*
X152895500Y-91915694D01*
X152895500Y-90134306D01*
X152892598Y-90097431D01*
X152855424Y-89969478D01*
X152850500Y-89934883D01*
X152850500Y-89930300D01*
X152870185Y-89863261D01*
X152922989Y-89817506D01*
X152935482Y-89812599D01*
X153019334Y-89784814D01*
X153168656Y-89692712D01*
X153292712Y-89568656D01*
X153384814Y-89419334D01*
X153439999Y-89252797D01*
X153450500Y-89150009D01*
X153450499Y-88349992D01*
X153439999Y-88247203D01*
X153384814Y-88080666D01*
X153292712Y-87931344D01*
X153168656Y-87807288D01*
X153019334Y-87715186D01*
X152852797Y-87660001D01*
X152852795Y-87660000D01*
X152750010Y-87649500D01*
X151749998Y-87649500D01*
X151749980Y-87649501D01*
X151647203Y-87660000D01*
X151647200Y-87660001D01*
X151480668Y-87715185D01*
X151480663Y-87715187D01*
X151331342Y-87807289D01*
X151207289Y-87931342D01*
X151115187Y-88080663D01*
X151115186Y-88080666D01*
X151060001Y-88247203D01*
X151060001Y-88247204D01*
X151060000Y-88247204D01*
X151049500Y-88349983D01*
X137250000Y-88349983D01*
X137250000Y-87534345D01*
X137267671Y-87470548D01*
X137377999Y-87286669D01*
X140213878Y-82560202D01*
X140265249Y-82512844D01*
X140320207Y-82500000D01*
X144194775Y-82500000D01*
X144261814Y-82519685D01*
G37*
%TD.AperFunction*%
%TD*%
%TA.AperFunction,Conductor*%
%TO.N,GND*%
G36*
X164006922Y-78251280D02*
G01*
X164097266Y-78261459D01*
X164124331Y-78267636D01*
X164203540Y-78295352D01*
X164228553Y-78307398D01*
X164299606Y-78352043D01*
X164321313Y-78369355D01*
X164380644Y-78428686D01*
X164397957Y-78450395D01*
X164442600Y-78521444D01*
X164454648Y-78546462D01*
X164482362Y-78625666D01*
X164488540Y-78652735D01*
X164498720Y-78743076D01*
X164499500Y-78756961D01*
X164499500Y-116743038D01*
X164498720Y-116756922D01*
X164498720Y-116756923D01*
X164488540Y-116847264D01*
X164482362Y-116874333D01*
X164454648Y-116953537D01*
X164442600Y-116978555D01*
X164397957Y-117049604D01*
X164380644Y-117071313D01*
X164321313Y-117130644D01*
X164299604Y-117147957D01*
X164228555Y-117192600D01*
X164203537Y-117204648D01*
X164124333Y-117232362D01*
X164097264Y-117238540D01*
X164017075Y-117247576D01*
X164006921Y-117248720D01*
X163993038Y-117249500D01*
X136506962Y-117249500D01*
X136493078Y-117248720D01*
X136480553Y-117247308D01*
X136402735Y-117238540D01*
X136375666Y-117232362D01*
X136296462Y-117204648D01*
X136271444Y-117192600D01*
X136200395Y-117147957D01*
X136178686Y-117130644D01*
X136119355Y-117071313D01*
X136102042Y-117049604D01*
X136057399Y-116978555D01*
X136045351Y-116953537D01*
X136017637Y-116874333D01*
X136011459Y-116847263D01*
X136001280Y-116756922D01*
X136000500Y-116743038D01*
X136000500Y-114893713D01*
X136899500Y-114893713D01*
X136899500Y-115106286D01*
X136932753Y-115316239D01*
X136998444Y-115518414D01*
X137094951Y-115707820D01*
X137219890Y-115879786D01*
X137370213Y-116030109D01*
X137542179Y-116155048D01*
X137542181Y-116155049D01*
X137542184Y-116155051D01*
X137731588Y-116251557D01*
X137933757Y-116317246D01*
X138143713Y-116350500D01*
X138143714Y-116350500D01*
X138356286Y-116350500D01*
X138356287Y-116350500D01*
X138566243Y-116317246D01*
X138768412Y-116251557D01*
X138957816Y-116155051D01*
X138979789Y-116139086D01*
X139129786Y-116030109D01*
X139129788Y-116030106D01*
X139129792Y-116030104D01*
X139280104Y-115879792D01*
X139280106Y-115879788D01*
X139280109Y-115879786D01*
X139405048Y-115707820D01*
X139405047Y-115707820D01*
X139405051Y-115707816D01*
X139501557Y-115518412D01*
X139567246Y-115316243D01*
X139600500Y-115106287D01*
X139600500Y-114893713D01*
X160899500Y-114893713D01*
X160899500Y-115106286D01*
X160932753Y-115316239D01*
X160998444Y-115518414D01*
X161094951Y-115707820D01*
X161219890Y-115879786D01*
X161370213Y-116030109D01*
X161542179Y-116155048D01*
X161542181Y-116155049D01*
X161542184Y-116155051D01*
X161731588Y-116251557D01*
X161933757Y-116317246D01*
X162143713Y-116350500D01*
X162143714Y-116350500D01*
X162356286Y-116350500D01*
X162356287Y-116350500D01*
X162566243Y-116317246D01*
X162768412Y-116251557D01*
X162957816Y-116155051D01*
X162979789Y-116139086D01*
X163129786Y-116030109D01*
X163129788Y-116030106D01*
X163129792Y-116030104D01*
X163280104Y-115879792D01*
X163280106Y-115879788D01*
X163280109Y-115879786D01*
X163405048Y-115707820D01*
X163405047Y-115707820D01*
X163405051Y-115707816D01*
X163501557Y-115518412D01*
X163567246Y-115316243D01*
X163600500Y-115106287D01*
X163600500Y-114893713D01*
X163567246Y-114683757D01*
X163501557Y-114481588D01*
X163405051Y-114292184D01*
X163405049Y-114292181D01*
X163405048Y-114292179D01*
X163280109Y-114120213D01*
X163129786Y-113969890D01*
X162957820Y-113844951D01*
X162768414Y-113748444D01*
X162768413Y-113748443D01*
X162768412Y-113748443D01*
X162566243Y-113682754D01*
X162566241Y-113682753D01*
X162566240Y-113682753D01*
X162394573Y-113655564D01*
X162356287Y-113649500D01*
X162143713Y-113649500D01*
X162105427Y-113655564D01*
X161933760Y-113682753D01*
X161731585Y-113748444D01*
X161542179Y-113844951D01*
X161370213Y-113969890D01*
X161219890Y-114120213D01*
X161094951Y-114292179D01*
X160998444Y-114481585D01*
X160932753Y-114683760D01*
X160899500Y-114893713D01*
X139600500Y-114893713D01*
X139567246Y-114683757D01*
X139501557Y-114481588D01*
X139405051Y-114292184D01*
X139405049Y-114292181D01*
X139405048Y-114292179D01*
X139280109Y-114120213D01*
X139129786Y-113969890D01*
X138957820Y-113844951D01*
X138768414Y-113748444D01*
X138768413Y-113748443D01*
X138768412Y-113748443D01*
X138566243Y-113682754D01*
X138566241Y-113682753D01*
X138566240Y-113682753D01*
X138394573Y-113655564D01*
X138356287Y-113649500D01*
X138143713Y-113649500D01*
X138105427Y-113655564D01*
X137933760Y-113682753D01*
X137731585Y-113748444D01*
X137542179Y-113844951D01*
X137370213Y-113969890D01*
X137219890Y-114120213D01*
X137094951Y-114292179D01*
X136998444Y-114481585D01*
X136932753Y-114683760D01*
X136899500Y-114893713D01*
X136000500Y-114893713D01*
X136000500Y-96110707D01*
X137244500Y-96110707D01*
X137244500Y-101876000D01*
X137244501Y-101876009D01*
X137256052Y-101983450D01*
X137256054Y-101983462D01*
X137267260Y-102034972D01*
X137301383Y-102137497D01*
X137301386Y-102137503D01*
X137379171Y-102258537D01*
X137379179Y-102258548D01*
X137424923Y-102311340D01*
X137424926Y-102311343D01*
X137424930Y-102311347D01*
X137533664Y-102405567D01*
X137664541Y-102465338D01*
X137731580Y-102485023D01*
X137731584Y-102485024D01*
X137874000Y-102505500D01*
X137874003Y-102505500D01*
X145480635Y-102505500D01*
X145480642Y-102505500D01*
X145558602Y-102499452D01*
X145596394Y-102493553D01*
X145632340Y-102485050D01*
X145702107Y-102488772D01*
X145758789Y-102529623D01*
X145784388Y-102594635D01*
X145770774Y-102663165D01*
X145767639Y-102668801D01*
X143082049Y-107213647D01*
X143082039Y-107213667D01*
X143029636Y-107337518D01*
X143029635Y-107337520D01*
X143012393Y-107400595D01*
X143012392Y-107400599D01*
X142996829Y-107516549D01*
X142994500Y-107533900D01*
X142994500Y-108688002D01*
X143002490Y-108777519D01*
X143010271Y-108820763D01*
X143033993Y-108907461D01*
X143087651Y-109005937D01*
X143102834Y-109033800D01*
X143128002Y-109067484D01*
X143144656Y-109089773D01*
X143246299Y-109191599D01*
X143246300Y-109191600D01*
X149163633Y-113629600D01*
X149178476Y-113640318D01*
X149185837Y-113645433D01*
X149200997Y-113655567D01*
X149331874Y-113715338D01*
X149398913Y-113735023D01*
X149398917Y-113735024D01*
X149541333Y-113755500D01*
X149541336Y-113755500D01*
X152875990Y-113755500D01*
X152876000Y-113755500D01*
X152983456Y-113743947D01*
X153034967Y-113732741D01*
X153069197Y-113721347D01*
X153137497Y-113698616D01*
X153137501Y-113698613D01*
X153137504Y-113698613D01*
X153258543Y-113620825D01*
X153311347Y-113575070D01*
X153405567Y-113466336D01*
X153465338Y-113335459D01*
X153485023Y-113268420D01*
X153485024Y-113268416D01*
X153505500Y-113126000D01*
X153505500Y-107624000D01*
X153493947Y-107516544D01*
X153482741Y-107465033D01*
X153482637Y-107464722D01*
X153448616Y-107362502D01*
X153448613Y-107362496D01*
X153440903Y-107350499D01*
X153370825Y-107241457D01*
X153370820Y-107241451D01*
X153325076Y-107188659D01*
X153325072Y-107188656D01*
X153325070Y-107188653D01*
X153216336Y-107094433D01*
X153216333Y-107094431D01*
X153216331Y-107094430D01*
X153085462Y-107034663D01*
X153057553Y-107026467D01*
X152998776Y-106988690D01*
X152993292Y-106981891D01*
X152858804Y-106802573D01*
X152385980Y-106172140D01*
X152361505Y-106106701D01*
X152376295Y-106038414D01*
X152425656Y-105988964D01*
X152472579Y-105974385D01*
X152562753Y-105965174D01*
X152726516Y-105910908D01*
X152873350Y-105820340D01*
X152995340Y-105698350D01*
X153019362Y-105659404D01*
X153071310Y-105612679D01*
X153124901Y-105600500D01*
X156170234Y-105600500D01*
X156237273Y-105620185D01*
X156239125Y-105621398D01*
X156370814Y-105709390D01*
X156370827Y-105709397D01*
X156516498Y-105769735D01*
X156516503Y-105769737D01*
X156671153Y-105800499D01*
X156671156Y-105800500D01*
X156671158Y-105800500D01*
X156828844Y-105800500D01*
X156828845Y-105800499D01*
X156983497Y-105769737D01*
X157129179Y-105709394D01*
X157260289Y-105621789D01*
X157371789Y-105510289D01*
X157459394Y-105379179D01*
X157519737Y-105233497D01*
X157550500Y-105078842D01*
X157550500Y-104921158D01*
X157550500Y-104921155D01*
X157550499Y-104921153D01*
X157534816Y-104842310D01*
X157519737Y-104766503D01*
X157478527Y-104667012D01*
X157471058Y-104597543D01*
X157502333Y-104535064D01*
X157562422Y-104499412D01*
X157632088Y-104501853D01*
X157747203Y-104539999D01*
X157849991Y-104550500D01*
X158450008Y-104550499D01*
X158450016Y-104550498D01*
X158450019Y-104550498D01*
X158506302Y-104544748D01*
X158552797Y-104539999D01*
X158719334Y-104484814D01*
X158868656Y-104392712D01*
X158992712Y-104268656D01*
X159084814Y-104119334D01*
X159139999Y-103952797D01*
X159150500Y-103850009D01*
X159150499Y-101449992D01*
X159139999Y-101347203D01*
X159084814Y-101180666D01*
X158992712Y-101031344D01*
X158868656Y-100907288D01*
X158719334Y-100815186D01*
X158552797Y-100760001D01*
X158552795Y-100760000D01*
X158450010Y-100749500D01*
X157849998Y-100749500D01*
X157849980Y-100749501D01*
X157747203Y-100760000D01*
X157747200Y-100760001D01*
X157580668Y-100815185D01*
X157580663Y-100815187D01*
X157431342Y-100907289D01*
X157307289Y-101031342D01*
X157215187Y-101180663D01*
X157215186Y-101180666D01*
X157160001Y-101347203D01*
X157160001Y-101347204D01*
X157160000Y-101347204D01*
X157149500Y-101449983D01*
X157149500Y-103850001D01*
X157149501Y-103850018D01*
X157160000Y-103952796D01*
X157160001Y-103952799D01*
X157209394Y-104101856D01*
X157211796Y-104171684D01*
X157176064Y-104231726D01*
X157113544Y-104262919D01*
X157044236Y-104255421D01*
X156983501Y-104230264D01*
X156983489Y-104230261D01*
X156828845Y-104199500D01*
X156828842Y-104199500D01*
X156671158Y-104199500D01*
X156671155Y-104199500D01*
X156516510Y-104230261D01*
X156516498Y-104230264D01*
X156370827Y-104290602D01*
X156370814Y-104290609D01*
X156239125Y-104378602D01*
X156172447Y-104399480D01*
X156170234Y-104399500D01*
X153124901Y-104399500D01*
X153057862Y-104379815D01*
X153019362Y-104340596D01*
X152995340Y-104301650D01*
X152873351Y-104179661D01*
X152873350Y-104179660D01*
X152747210Y-104101856D01*
X152726518Y-104089093D01*
X152726513Y-104089091D01*
X152725069Y-104088612D01*
X152562753Y-104034826D01*
X152562751Y-104034825D01*
X152461684Y-104024500D01*
X151879500Y-104024500D01*
X151812461Y-104004815D01*
X151766706Y-103952011D01*
X151755500Y-103900500D01*
X151755500Y-103557031D01*
X151755499Y-103557030D01*
X151750160Y-103483751D01*
X151744948Y-103448178D01*
X151729040Y-103376440D01*
X151700523Y-103314875D01*
X151668571Y-103245890D01*
X151668568Y-103245885D01*
X151630478Y-103187310D01*
X151630477Y-103187309D01*
X151630475Y-103187307D01*
X151630472Y-103187302D01*
X151629289Y-103185842D01*
X151627784Y-103184235D01*
X151535673Y-103079080D01*
X151535671Y-103079078D01*
X151535670Y-103079077D01*
X151535669Y-103079076D01*
X149863796Y-101646043D01*
X149836656Y-101624353D01*
X149823005Y-101614192D01*
X149794466Y-101594433D01*
X149663591Y-101534663D01*
X149596546Y-101514976D01*
X149493402Y-101500146D01*
X149429846Y-101471121D01*
X149392072Y-101412342D01*
X149392072Y-101342473D01*
X149429847Y-101283695D01*
X149473253Y-101259309D01*
X151844121Y-100500631D01*
X151929638Y-100464300D01*
X151969609Y-100442786D01*
X152047039Y-100391411D01*
X152145128Y-100286150D01*
X152185002Y-100228775D01*
X152249461Y-100100145D01*
X152390278Y-99677690D01*
X152430151Y-99620318D01*
X152494714Y-99593610D01*
X152563468Y-99606046D01*
X152613452Y-99651807D01*
X152642160Y-99698350D01*
X152764150Y-99820340D01*
X152910984Y-99910908D01*
X153074747Y-99965174D01*
X153175823Y-99975500D01*
X153874176Y-99975499D01*
X153874184Y-99975498D01*
X153874187Y-99975498D01*
X153929530Y-99969844D01*
X153975253Y-99965174D01*
X154139016Y-99910908D01*
X154285850Y-99820340D01*
X154407840Y-99698350D01*
X154498408Y-99551516D01*
X154552674Y-99387753D01*
X154563000Y-99286677D01*
X154562999Y-98862595D01*
X154582683Y-98795557D01*
X154599313Y-98774920D01*
X155003713Y-98370521D01*
X155003716Y-98370520D01*
X155115520Y-98258716D01*
X155129617Y-98234298D01*
X159199500Y-98234298D01*
X159199500Y-99765701D01*
X159202401Y-99802567D01*
X159202402Y-99802573D01*
X159248254Y-99960393D01*
X159248255Y-99960396D01*
X159331917Y-100101862D01*
X159331923Y-100101870D01*
X159363179Y-100133125D01*
X159396665Y-100194447D01*
X159399499Y-100220807D01*
X159399499Y-100354055D01*
X159399498Y-100354055D01*
X159399499Y-100354057D01*
X159399499Y-100354058D01*
X159440423Y-100506786D01*
X159465073Y-100549481D01*
X159519477Y-100643713D01*
X159519481Y-100643718D01*
X159638349Y-100762586D01*
X159638355Y-100762591D01*
X159763181Y-100887417D01*
X159796666Y-100948740D01*
X159799500Y-100975098D01*
X159799500Y-104024901D01*
X159779815Y-104091940D01*
X159763181Y-104112582D01*
X159519481Y-104356281D01*
X159519475Y-104356289D01*
X159470902Y-104440422D01*
X159470902Y-104440423D01*
X159440423Y-104493214D01*
X159399499Y-104645942D01*
X159399499Y-104645944D01*
X159399499Y-104779192D01*
X159379814Y-104846231D01*
X159363180Y-104866873D01*
X159331923Y-104898129D01*
X159331917Y-104898137D01*
X159248255Y-105039603D01*
X159248254Y-105039606D01*
X159202402Y-105197426D01*
X159202401Y-105197432D01*
X159199500Y-105234298D01*
X159199500Y-106765701D01*
X159202401Y-106802567D01*
X159202402Y-106802573D01*
X159248254Y-106960393D01*
X159248255Y-106960396D01*
X159331917Y-107101862D01*
X159331923Y-107101870D01*
X159448129Y-107218076D01*
X159448133Y-107218079D01*
X159448135Y-107218081D01*
X159589602Y-107301744D01*
X159631224Y-107313836D01*
X159747426Y-107347597D01*
X159747429Y-107347597D01*
X159747431Y-107347598D01*
X159784306Y-107350500D01*
X159784314Y-107350500D01*
X160215686Y-107350500D01*
X160215694Y-107350500D01*
X160252569Y-107347598D01*
X160252571Y-107347597D01*
X160252573Y-107347597D01*
X160294191Y-107335505D01*
X160410398Y-107301744D01*
X160535048Y-107228026D01*
X160558580Y-107214110D01*
X160559747Y-107216083D01*
X160614035Y-107194769D01*
X160682553Y-107208448D01*
X160691404Y-107214136D01*
X160691420Y-107214110D01*
X160732034Y-107238128D01*
X160839602Y-107301744D01*
X160881224Y-107313836D01*
X160997426Y-107347597D01*
X160997429Y-107347597D01*
X160997431Y-107347598D01*
X161034306Y-107350500D01*
X161034314Y-107350500D01*
X161465686Y-107350500D01*
X161465694Y-107350500D01*
X161502569Y-107347598D01*
X161502571Y-107347597D01*
X161502573Y-107347597D01*
X161544191Y-107335505D01*
X161660398Y-107301744D01*
X161801865Y-107218081D01*
X161918081Y-107101865D01*
X162001744Y-106960398D01*
X162047598Y-106802569D01*
X162050500Y-106765694D01*
X162050500Y-105234306D01*
X162047598Y-105197431D01*
X162001744Y-105039602D01*
X161918081Y-104898135D01*
X161918079Y-104898133D01*
X161918076Y-104898129D01*
X161886819Y-104866872D01*
X161873407Y-104842310D01*
X161857226Y-104819474D01*
X161855591Y-104809682D01*
X161853334Y-104805549D01*
X161850627Y-104784802D01*
X161850500Y-104781998D01*
X161850500Y-104645942D01*
X161846572Y-104631284D01*
X161824926Y-104550499D01*
X161809577Y-104493215D01*
X161804726Y-104484812D01*
X161730524Y-104356289D01*
X161730521Y-104356285D01*
X161730520Y-104356283D01*
X161618716Y-104244479D01*
X161618715Y-104244478D01*
X161614385Y-104240148D01*
X161614374Y-104240138D01*
X161486819Y-104112583D01*
X161453334Y-104051260D01*
X161450500Y-104024902D01*
X161450500Y-101449983D01*
X162099500Y-101449983D01*
X162099500Y-103850001D01*
X162099501Y-103850018D01*
X162110000Y-103952796D01*
X162110001Y-103952799D01*
X162159394Y-104101856D01*
X162165186Y-104119334D01*
X162257288Y-104268656D01*
X162381344Y-104392712D01*
X162530666Y-104484814D01*
X162697203Y-104539999D01*
X162799991Y-104550500D01*
X163400008Y-104550499D01*
X163400016Y-104550498D01*
X163400019Y-104550498D01*
X163456302Y-104544748D01*
X163502797Y-104539999D01*
X163669334Y-104484814D01*
X163818656Y-104392712D01*
X163942712Y-104268656D01*
X164034814Y-104119334D01*
X164089999Y-103952797D01*
X164100500Y-103850009D01*
X164100499Y-101449992D01*
X164089999Y-101347203D01*
X164034814Y-101180666D01*
X163942712Y-101031344D01*
X163818656Y-100907288D01*
X163669334Y-100815186D01*
X163502797Y-100760001D01*
X163502795Y-100760000D01*
X163400010Y-100749500D01*
X162799998Y-100749500D01*
X162799980Y-100749501D01*
X162697203Y-100760000D01*
X162697200Y-100760001D01*
X162530668Y-100815185D01*
X162530663Y-100815187D01*
X162381342Y-100907289D01*
X162257289Y-101031342D01*
X162165187Y-101180663D01*
X162165186Y-101180666D01*
X162110001Y-101347203D01*
X162110001Y-101347204D01*
X162110000Y-101347204D01*
X162099500Y-101449983D01*
X161450500Y-101449983D01*
X161450500Y-100975098D01*
X161459145Y-100945654D01*
X161465668Y-100915672D01*
X161469422Y-100910656D01*
X161470185Y-100908059D01*
X161486814Y-100887421D01*
X161608505Y-100765729D01*
X161608510Y-100765726D01*
X161618714Y-100755521D01*
X161618716Y-100755521D01*
X161730520Y-100643717D01*
X161809577Y-100506785D01*
X161850500Y-100354058D01*
X161850500Y-100220807D01*
X161870185Y-100153769D01*
X161886820Y-100133126D01*
X161918076Y-100101870D01*
X161918081Y-100101865D01*
X162001744Y-99960398D01*
X162047598Y-99802569D01*
X162050500Y-99765694D01*
X162050500Y-98234306D01*
X162047598Y-98197431D01*
X162039591Y-98169872D01*
X162001745Y-98039606D01*
X162001744Y-98039603D01*
X162001744Y-98039602D01*
X161918081Y-97898135D01*
X161918079Y-97898133D01*
X161918076Y-97898129D01*
X161801870Y-97781923D01*
X161801862Y-97781917D01*
X161660396Y-97698255D01*
X161660393Y-97698254D01*
X161502573Y-97652402D01*
X161502567Y-97652401D01*
X161465701Y-97649500D01*
X161465694Y-97649500D01*
X161034306Y-97649500D01*
X161034298Y-97649500D01*
X160997432Y-97652401D01*
X160997426Y-97652402D01*
X160839606Y-97698254D01*
X160839603Y-97698255D01*
X160691420Y-97785890D01*
X160690254Y-97783919D01*
X160635942Y-97805232D01*
X160567427Y-97791540D01*
X160558595Y-97785864D01*
X160558580Y-97785890D01*
X160410396Y-97698255D01*
X160410393Y-97698254D01*
X160252573Y-97652402D01*
X160252567Y-97652401D01*
X160215701Y-97649500D01*
X160215694Y-97649500D01*
X159784306Y-97649500D01*
X159784298Y-97649500D01*
X159747432Y-97652401D01*
X159747426Y-97652402D01*
X159589606Y-97698254D01*
X159589603Y-97698255D01*
X159448137Y-97781917D01*
X159448129Y-97781923D01*
X159331923Y-97898129D01*
X159331917Y-97898137D01*
X159248255Y-98039603D01*
X159248254Y-98039606D01*
X159202402Y-98197426D01*
X159202401Y-98197432D01*
X159199500Y-98234298D01*
X155129617Y-98234298D01*
X155165639Y-98171904D01*
X155194577Y-98121785D01*
X155235500Y-97969057D01*
X155235500Y-97810943D01*
X155235500Y-97320808D01*
X155255185Y-97253769D01*
X155271820Y-97233126D01*
X155303076Y-97201870D01*
X155303081Y-97201865D01*
X155386744Y-97060398D01*
X155432598Y-96902569D01*
X155435500Y-96865694D01*
X155435500Y-95084306D01*
X155432598Y-95047431D01*
X155423279Y-95015356D01*
X155386745Y-94889606D01*
X155386744Y-94889603D01*
X155386744Y-94889602D01*
X155303081Y-94748135D01*
X155303079Y-94748133D01*
X155303076Y-94748129D01*
X155186870Y-94631923D01*
X155186862Y-94631917D01*
X155142452Y-94605653D01*
X155045398Y-94548256D01*
X155045393Y-94548254D01*
X154887573Y-94502402D01*
X154887567Y-94502401D01*
X154850701Y-94499500D01*
X154850694Y-94499500D01*
X154419306Y-94499500D01*
X154419298Y-94499500D01*
X154382432Y-94502401D01*
X154382426Y-94502402D01*
X154224606Y-94548254D01*
X154224603Y-94548255D01*
X154083137Y-94631917D01*
X154083129Y-94631923D01*
X153966923Y-94748129D01*
X153966917Y-94748137D01*
X153883255Y-94889603D01*
X153883254Y-94889606D01*
X153837402Y-95047426D01*
X153837401Y-95047432D01*
X153834500Y-95084298D01*
X153834500Y-96865701D01*
X153837401Y-96902567D01*
X153837402Y-96902573D01*
X153883254Y-97060393D01*
X153883255Y-97060396D01*
X153966917Y-97201862D01*
X153966923Y-97201870D01*
X153998180Y-97233126D01*
X154031666Y-97294448D01*
X154034500Y-97320808D01*
X154034500Y-97589902D01*
X154014815Y-97656941D01*
X153998181Y-97677583D01*
X153687582Y-97988181D01*
X153626259Y-98021666D01*
X153599901Y-98024500D01*
X153175830Y-98024500D01*
X153175812Y-98024501D01*
X153124004Y-98029794D01*
X153055311Y-98017024D01*
X153004427Y-97969143D01*
X152987507Y-97901353D01*
X152993764Y-97867231D01*
X153149507Y-97400006D01*
X153167331Y-97330377D01*
X153173609Y-97295768D01*
X153181378Y-97224305D01*
X153166201Y-97081227D01*
X153149018Y-97013503D01*
X153094149Y-96880501D01*
X153088840Y-96871524D01*
X153076492Y-96842986D01*
X153074920Y-96837573D01*
X153070000Y-96802991D01*
X153070000Y-95147007D01*
X153074924Y-95112411D01*
X153093165Y-95049628D01*
X153101835Y-95015356D01*
X153105497Y-94998408D01*
X153111754Y-94963583D01*
X153111753Y-94819703D01*
X153101809Y-94750545D01*
X153061274Y-94612496D01*
X152983486Y-94491457D01*
X152983481Y-94491451D01*
X152947549Y-94449983D01*
X157149500Y-94449983D01*
X157149500Y-96850001D01*
X157149501Y-96850018D01*
X157160000Y-96952796D01*
X157160001Y-96952799D01*
X157202560Y-97081232D01*
X157215186Y-97119334D01*
X157307288Y-97268656D01*
X157431344Y-97392712D01*
X157580666Y-97484814D01*
X157747203Y-97539999D01*
X157849991Y-97550500D01*
X158450008Y-97550499D01*
X158450016Y-97550498D01*
X158450019Y-97550498D01*
X158506302Y-97544748D01*
X158552797Y-97539999D01*
X158719334Y-97484814D01*
X158868656Y-97392712D01*
X158992712Y-97268656D01*
X159084814Y-97119334D01*
X159139999Y-96952797D01*
X159150500Y-96850009D01*
X159150499Y-94449992D01*
X159150498Y-94449983D01*
X162099500Y-94449983D01*
X162099500Y-96850001D01*
X162099501Y-96850018D01*
X162110000Y-96952796D01*
X162110001Y-96952799D01*
X162152560Y-97081232D01*
X162165186Y-97119334D01*
X162257288Y-97268656D01*
X162381344Y-97392712D01*
X162530666Y-97484814D01*
X162697203Y-97539999D01*
X162799991Y-97550500D01*
X163400008Y-97550499D01*
X163400016Y-97550498D01*
X163400019Y-97550498D01*
X163456302Y-97544748D01*
X163502797Y-97539999D01*
X163669334Y-97484814D01*
X163818656Y-97392712D01*
X163942712Y-97268656D01*
X164034814Y-97119334D01*
X164089999Y-96952797D01*
X164100500Y-96850009D01*
X164100499Y-94449992D01*
X164089999Y-94347203D01*
X164034814Y-94180666D01*
X163942712Y-94031344D01*
X163818656Y-93907288D01*
X163669334Y-93815186D01*
X163502797Y-93760001D01*
X163502795Y-93760000D01*
X163400010Y-93749500D01*
X162799998Y-93749500D01*
X162799980Y-93749501D01*
X162697203Y-93760000D01*
X162697200Y-93760001D01*
X162530668Y-93815185D01*
X162530663Y-93815187D01*
X162381342Y-93907289D01*
X162257289Y-94031342D01*
X162165187Y-94180663D01*
X162165186Y-94180666D01*
X162110001Y-94347203D01*
X162110001Y-94347204D01*
X162110000Y-94347204D01*
X162099500Y-94449983D01*
X159150498Y-94449983D01*
X159149341Y-94438659D01*
X159139999Y-94347203D01*
X159139998Y-94347200D01*
X159139080Y-94344430D01*
X159084814Y-94180666D01*
X158992712Y-94031344D01*
X158868656Y-93907288D01*
X158719334Y-93815186D01*
X158552797Y-93760001D01*
X158552795Y-93760000D01*
X158450010Y-93749500D01*
X157849998Y-93749500D01*
X157849980Y-93749501D01*
X157747203Y-93760000D01*
X157747200Y-93760001D01*
X157580668Y-93815185D01*
X157580663Y-93815187D01*
X157431342Y-93907289D01*
X157307289Y-94031342D01*
X157215187Y-94180663D01*
X157215186Y-94180666D01*
X157160001Y-94347203D01*
X157160001Y-94347204D01*
X157160000Y-94347204D01*
X157149500Y-94449983D01*
X152947549Y-94449983D01*
X152937737Y-94438659D01*
X152937733Y-94438656D01*
X152937731Y-94438653D01*
X152828997Y-94344433D01*
X152828994Y-94344431D01*
X152828992Y-94344430D01*
X152698126Y-94284664D01*
X152698121Y-94284662D01*
X152698120Y-94284662D01*
X152631081Y-94264977D01*
X152631083Y-94264977D01*
X152631078Y-94264976D01*
X152583605Y-94258150D01*
X152488661Y-94244500D01*
X148757023Y-94244500D01*
X148757009Y-94244500D01*
X148728441Y-94245308D01*
X148714460Y-94246100D01*
X148685933Y-94248527D01*
X137802921Y-95485233D01*
X137724777Y-95500420D01*
X137687279Y-95510830D01*
X137687268Y-95510833D01*
X137612503Y-95538090D01*
X137612491Y-95538096D01*
X137491462Y-95615877D01*
X137491451Y-95615886D01*
X137438659Y-95661630D01*
X137344433Y-95770371D01*
X137344430Y-95770375D01*
X137284664Y-95901241D01*
X137284662Y-95901248D01*
X137264977Y-95968287D01*
X137264976Y-95968291D01*
X137244500Y-96110707D01*
X136000500Y-96110707D01*
X136000500Y-87534344D01*
X136744500Y-87534344D01*
X136744500Y-87534345D01*
X136744500Y-88375741D01*
X136744500Y-89153891D01*
X136746463Y-89198392D01*
X136748385Y-89220140D01*
X136754258Y-89264301D01*
X136754259Y-89264306D01*
X136754260Y-89264308D01*
X136799394Y-89400913D01*
X136799394Y-89400914D01*
X136799396Y-89400918D01*
X136830534Y-89463466D01*
X136912327Y-89581826D01*
X137024159Y-89672353D01*
X137036413Y-89679660D01*
X137076861Y-89703780D01*
X137077152Y-89703981D01*
X137084169Y-89708138D01*
X137084174Y-89708142D01*
X137216981Y-89763494D01*
X153483974Y-93953477D01*
X153484039Y-93953493D01*
X153484130Y-93953517D01*
X153484129Y-93953517D01*
X153486430Y-93954103D01*
X153486466Y-93954112D01*
X153487624Y-93954404D01*
X153489854Y-93954961D01*
X153633020Y-93969277D01*
X153702824Y-93966264D01*
X153844217Y-93939668D01*
X153972397Y-93874311D01*
X154029492Y-93834038D01*
X154029493Y-93834037D01*
X154029505Y-93834025D01*
X154029755Y-93833816D01*
X154030754Y-93832845D01*
X154049442Y-93815185D01*
X154134067Y-93735215D01*
X154206565Y-93610935D01*
X154232823Y-93546187D01*
X154232824Y-93546184D01*
X154267369Y-93406512D01*
X154297246Y-93107734D01*
X154323503Y-93042990D01*
X154380597Y-93002716D01*
X154438273Y-92997338D01*
X154495040Y-93005500D01*
X154495043Y-93005500D01*
X155125990Y-93005500D01*
X155126000Y-93005500D01*
X155233456Y-92993947D01*
X155284967Y-92982741D01*
X155319197Y-92971347D01*
X155387497Y-92948616D01*
X155387501Y-92948613D01*
X155387504Y-92948613D01*
X155508543Y-92870825D01*
X155561347Y-92825070D01*
X155655567Y-92716336D01*
X155715338Y-92585459D01*
X155715339Y-92585457D01*
X155716884Y-92581315D01*
X155718985Y-92582098D01*
X155751737Y-92530934D01*
X155815240Y-92501794D01*
X155833109Y-92500500D01*
X156120686Y-92500500D01*
X156120694Y-92500500D01*
X156157569Y-92497598D01*
X156157571Y-92497597D01*
X156157573Y-92497597D01*
X156199191Y-92485505D01*
X156315398Y-92451744D01*
X156456865Y-92368081D01*
X156573081Y-92251865D01*
X156656744Y-92110398D01*
X156702598Y-91952569D01*
X156705500Y-91915694D01*
X156705500Y-91326495D01*
X156725185Y-91259456D01*
X156777989Y-91213701D01*
X156847147Y-91203757D01*
X156876952Y-91211934D01*
X156947702Y-91241239D01*
X157016503Y-91269737D01*
X157171153Y-91300499D01*
X157171156Y-91300500D01*
X157171158Y-91300500D01*
X157328844Y-91300500D01*
X157328845Y-91300499D01*
X157483497Y-91269737D01*
X157534264Y-91248707D01*
X157603733Y-91241239D01*
X157666212Y-91272514D01*
X157669398Y-91275588D01*
X157714150Y-91320340D01*
X157860984Y-91410908D01*
X158024747Y-91465174D01*
X158125823Y-91475500D01*
X158724176Y-91475499D01*
X158724184Y-91475498D01*
X158724187Y-91475498D01*
X158779530Y-91469844D01*
X158825253Y-91465174D01*
X158989016Y-91410908D01*
X159135850Y-91320340D01*
X159257840Y-91198350D01*
X159348408Y-91051516D01*
X159402674Y-90887753D01*
X159413000Y-90786677D01*
X159412999Y-90213324D01*
X159402674Y-90112247D01*
X159348408Y-89948484D01*
X159257840Y-89801650D01*
X159173897Y-89717707D01*
X159140412Y-89656384D01*
X159145396Y-89586692D01*
X159187268Y-89530759D01*
X159236896Y-89508508D01*
X159279316Y-89499894D01*
X159315447Y-89489646D01*
X159368139Y-89470269D01*
X159387499Y-89463150D01*
X159387499Y-89463149D01*
X159387504Y-89463148D01*
X159508543Y-89385360D01*
X159561347Y-89339605D01*
X159655567Y-89230871D01*
X159715338Y-89099994D01*
X159735023Y-89032955D01*
X159735024Y-89032951D01*
X159755500Y-88890535D01*
X159755500Y-87768515D01*
X159755500Y-87768507D01*
X159755499Y-87768504D01*
X159749045Y-87687998D01*
X159749044Y-87687981D01*
X159742750Y-87648979D01*
X159723547Y-87570508D01*
X159711528Y-87534238D01*
X159705872Y-87507804D01*
X159705637Y-87505499D01*
X159705000Y-87492944D01*
X159705000Y-86507057D01*
X159705639Y-86494489D01*
X159705872Y-86492202D01*
X159711528Y-86465763D01*
X159723548Y-86429492D01*
X159742747Y-86351032D01*
X159742748Y-86351025D01*
X159742750Y-86351018D01*
X159749044Y-86312014D01*
X159751205Y-86285057D01*
X159755500Y-86231493D01*
X159755500Y-85771642D01*
X159755498Y-85771618D01*
X159747973Y-85684733D01*
X159740643Y-85642732D01*
X159718289Y-85558415D01*
X157858995Y-80393713D01*
X160899500Y-80393713D01*
X160899500Y-80606286D01*
X160932753Y-80816239D01*
X160998444Y-81018414D01*
X161094951Y-81207820D01*
X161219890Y-81379786D01*
X161370213Y-81530109D01*
X161542179Y-81655048D01*
X161542181Y-81655049D01*
X161542184Y-81655051D01*
X161731588Y-81751557D01*
X161933757Y-81817246D01*
X162143713Y-81850500D01*
X162143714Y-81850500D01*
X162356286Y-81850500D01*
X162356287Y-81850500D01*
X162566243Y-81817246D01*
X162768412Y-81751557D01*
X162957816Y-81655051D01*
X162979789Y-81639086D01*
X163129786Y-81530109D01*
X163129788Y-81530106D01*
X163129792Y-81530104D01*
X163280104Y-81379792D01*
X163280106Y-81379788D01*
X163280109Y-81379786D01*
X163405048Y-81207820D01*
X163405047Y-81207820D01*
X163405051Y-81207816D01*
X163501557Y-81018412D01*
X163567246Y-80816243D01*
X163600500Y-80606287D01*
X163600500Y-80393713D01*
X163567246Y-80183757D01*
X163501557Y-79981588D01*
X163405051Y-79792184D01*
X163405049Y-79792181D01*
X163405048Y-79792179D01*
X163280109Y-79620213D01*
X163129786Y-79469890D01*
X162957820Y-79344951D01*
X162768414Y-79248444D01*
X162768413Y-79248443D01*
X162768412Y-79248443D01*
X162566243Y-79182754D01*
X162566241Y-79182753D01*
X162566240Y-79182753D01*
X162404957Y-79157208D01*
X162356287Y-79149500D01*
X162143713Y-79149500D01*
X162095042Y-79157208D01*
X161933760Y-79182753D01*
X161731585Y-79248444D01*
X161542179Y-79344951D01*
X161370213Y-79469890D01*
X161219890Y-79620213D01*
X161094951Y-79792179D01*
X160998444Y-79981585D01*
X160932753Y-80183760D01*
X160899500Y-80393713D01*
X157858995Y-80393713D01*
X157581899Y-79624001D01*
X157505135Y-79410768D01*
X157497642Y-79391233D01*
X157493770Y-79381731D01*
X157485463Y-79362496D01*
X157407675Y-79241457D01*
X157407670Y-79241451D01*
X157361926Y-79188659D01*
X157361922Y-79188656D01*
X157361920Y-79188653D01*
X157253186Y-79094433D01*
X157253183Y-79094431D01*
X157253181Y-79094430D01*
X157122315Y-79034664D01*
X157122310Y-79034662D01*
X157122309Y-79034662D01*
X157055270Y-79014977D01*
X157055272Y-79014977D01*
X157055267Y-79014976D01*
X156993197Y-79006052D01*
X156912850Y-78994500D01*
X152374000Y-78994500D01*
X152373991Y-78994500D01*
X152373990Y-78994501D01*
X152266549Y-79006052D01*
X152266537Y-79006054D01*
X152215027Y-79017260D01*
X152112502Y-79051383D01*
X152112496Y-79051386D01*
X151991462Y-79129171D01*
X151991451Y-79129179D01*
X151938659Y-79174923D01*
X151844433Y-79283664D01*
X151844430Y-79283668D01*
X151784664Y-79414534D01*
X151768408Y-79469896D01*
X151764977Y-79481580D01*
X151764976Y-79481584D01*
X151745045Y-79620213D01*
X151744500Y-79624001D01*
X151744500Y-82453482D01*
X151745856Y-82490498D01*
X151747183Y-82508583D01*
X151751248Y-82545412D01*
X151792297Y-82683298D01*
X151821563Y-82746752D01*
X151821564Y-82746753D01*
X151899798Y-82867493D01*
X153679030Y-84905381D01*
X153708292Y-84968828D01*
X153698607Y-85038023D01*
X153653050Y-85090998D01*
X153586085Y-85110933D01*
X153574832Y-85110464D01*
X146791141Y-84518003D01*
X146726069Y-84492560D01*
X146709764Y-84477428D01*
X144662678Y-82202886D01*
X144614359Y-82155913D01*
X144589230Y-82134550D01*
X144589228Y-82134548D01*
X144535112Y-82094434D01*
X144535108Y-82094431D01*
X144404237Y-82034663D01*
X144337192Y-82014976D01*
X144287030Y-82007764D01*
X144194775Y-81994500D01*
X140320207Y-81994500D01*
X140320206Y-81994500D01*
X140281861Y-81998921D01*
X140205169Y-82007764D01*
X140205167Y-82007764D01*
X140205160Y-82007765D01*
X140150215Y-82020606D01*
X140041210Y-82059702D01*
X140041205Y-82059705D01*
X139922615Y-82141182D01*
X139871244Y-82188540D01*
X139780415Y-82300123D01*
X139780408Y-82300133D01*
X136834210Y-87210464D01*
X136780517Y-87335602D01*
X136780514Y-87335611D01*
X136762841Y-87399414D01*
X136744500Y-87534344D01*
X136000500Y-87534344D01*
X136000500Y-80393713D01*
X136899500Y-80393713D01*
X136899500Y-80606286D01*
X136932753Y-80816239D01*
X136998444Y-81018414D01*
X137094951Y-81207820D01*
X137219890Y-81379786D01*
X137370213Y-81530109D01*
X137542179Y-81655048D01*
X137542181Y-81655049D01*
X137542184Y-81655051D01*
X137731588Y-81751557D01*
X137933757Y-81817246D01*
X138143713Y-81850500D01*
X138143714Y-81850500D01*
X138356286Y-81850500D01*
X138356287Y-81850500D01*
X138566243Y-81817246D01*
X138768412Y-81751557D01*
X138957816Y-81655051D01*
X138979789Y-81639086D01*
X139129786Y-81530109D01*
X139129788Y-81530106D01*
X139129792Y-81530104D01*
X139280104Y-81379792D01*
X139280106Y-81379788D01*
X139280109Y-81379786D01*
X139405048Y-81207820D01*
X139405047Y-81207820D01*
X139405051Y-81207816D01*
X139501557Y-81018412D01*
X139567246Y-80816243D01*
X139600500Y-80606287D01*
X139600500Y-80393713D01*
X139567246Y-80183757D01*
X139501557Y-79981588D01*
X139405051Y-79792184D01*
X139405049Y-79792181D01*
X139405048Y-79792179D01*
X139280109Y-79620213D01*
X139129786Y-79469890D01*
X138957820Y-79344951D01*
X138768414Y-79248444D01*
X138768413Y-79248443D01*
X138768412Y-79248443D01*
X138566243Y-79182754D01*
X138566241Y-79182753D01*
X138566240Y-79182753D01*
X138404957Y-79157208D01*
X138356287Y-79149500D01*
X138143713Y-79149500D01*
X138095042Y-79157208D01*
X137933760Y-79182753D01*
X137731585Y-79248444D01*
X137542179Y-79344951D01*
X137370213Y-79469890D01*
X137219890Y-79620213D01*
X137094951Y-79792179D01*
X136998444Y-79981585D01*
X136932753Y-80183760D01*
X136899500Y-80393713D01*
X136000500Y-80393713D01*
X136000500Y-78756961D01*
X136001280Y-78743077D01*
X136001280Y-78743076D01*
X136011460Y-78652729D01*
X136017635Y-78625670D01*
X136045353Y-78546456D01*
X136057396Y-78521450D01*
X136102046Y-78450389D01*
X136119351Y-78428690D01*
X136178690Y-78369351D01*
X136200389Y-78352046D01*
X136271450Y-78307396D01*
X136296456Y-78295353D01*
X136375670Y-78267635D01*
X136402733Y-78261459D01*
X136465419Y-78254396D01*
X136493079Y-78251280D01*
X136506962Y-78250500D01*
X136565892Y-78250500D01*
X163934108Y-78250500D01*
X163993038Y-78250500D01*
X164006922Y-78251280D01*
G37*
%TD.AperFunction*%
%TD*%
M02*
