%TF.GenerationSoftware,KiCad,Pcbnew,9.0.4*%
%TF.CreationDate,2025-09-25T14:49:47-05:00*%
%TF.ProjectId,Onboarding,4f6e626f-6172-4646-996e-672e6b696361,rev?*%
%TF.SameCoordinates,Original*%
%TF.FileFunction,Legend,Top*%
%TF.FilePolarity,Positive*%
%FSLAX46Y46*%
G04 Gerber Fmt 4.6, Leading zero omitted, Abs format (unit mm)*
G04 Created by KiCad (PCBNEW 9.0.4) date 2025-09-25 14:49:47*
%MOMM*%
%LPD*%
G01*
G04 APERTURE LIST*
G04 Aperture macros list*
%AMRoundRect*
0 Rectangle with rounded corners*
0 $1 Rounding radius*
0 $2 $3 $4 $5 $6 $7 $8 $9 X,Y pos of 4 corners*
0 Add a 4 corners polygon primitive as box body*
4,1,4,$2,$3,$4,$5,$6,$7,$8,$9,$2,$3,0*
0 Add four circle primitives for the rounded corners*
1,1,$1+$1,$2,$3*
1,1,$1+$1,$4,$5*
1,1,$1+$1,$6,$7*
1,1,$1+$1,$8,$9*
0 Add four rect primitives between the rounded corners*
20,1,$1+$1,$2,$3,$4,$5,0*
20,1,$1+$1,$4,$5,$6,$7,0*
20,1,$1+$1,$6,$7,$8,$9,0*
20,1,$1+$1,$8,$9,$2,$3,0*%
G04 Aperture macros list end*
%ADD10C,0.100000*%
%ADD11C,0.150000*%
%ADD12C,0.120000*%
%ADD13RoundRect,0.250000X0.550000X-0.550000X0.550000X0.550000X-0.550000X0.550000X-0.550000X-0.550000X0*%
%ADD14C,1.600000*%
%ADD15RoundRect,0.760000X-1.140000X1.140000X-1.140000X-1.140000X1.140000X-1.140000X1.140000X1.140000X0*%
%ADD16C,4.000000*%
%ADD17RoundRect,0.150000X-0.825000X-0.150000X0.825000X-0.150000X0.825000X0.150000X-0.825000X0.150000X0*%
%ADD18C,2.200000*%
%ADD19RoundRect,0.237500X0.237500X-0.250000X0.237500X0.250000X-0.237500X0.250000X-0.237500X-0.250000X0*%
%ADD20RoundRect,0.760000X1.140000X-1.140000X1.140000X1.140000X-1.140000X1.140000X-1.140000X-1.140000X0*%
%ADD21C,3.800000*%
%ADD22RoundRect,0.150000X0.700000X-0.150000X0.700000X0.150000X-0.700000X0.150000X-0.700000X-0.150000X0*%
%ADD23RoundRect,0.250000X1.150000X-0.250000X1.150000X0.250000X-1.150000X0.250000X-1.150000X-0.250000X0*%
%ADD24RoundRect,0.237500X0.300000X0.237500X-0.300000X0.237500X-0.300000X-0.237500X0.300000X-0.237500X0*%
%ADD25RoundRect,0.250000X0.350000X0.450000X-0.350000X0.450000X-0.350000X-0.450000X0.350000X-0.450000X0*%
%ADD26RoundRect,0.249999X0.850001X3.500001X-0.850001X3.500001X-0.850001X-3.500001X0.850001X-3.500001X0*%
%ADD27RoundRect,0.237500X0.250000X0.237500X-0.250000X0.237500X-0.250000X-0.237500X0.250000X-0.237500X0*%
%ADD28RoundRect,0.250000X-0.475000X0.250000X-0.475000X-0.250000X0.475000X-0.250000X0.475000X0.250000X0*%
%ADD29C,1.400000*%
%ADD30RoundRect,0.237500X-0.250000X-0.237500X0.250000X-0.237500X0.250000X0.237500X-0.250000X0.237500X0*%
%ADD31RoundRect,0.250000X-0.300000X-0.300000X0.300000X-0.300000X0.300000X0.300000X-0.300000X0.300000X0*%
G04 APERTURE END LIST*
D10*
X59799122Y-28248839D02*
X59899122Y-28282172D01*
X59899122Y-28282172D02*
X60065789Y-28282172D01*
X60065789Y-28282172D02*
X60132455Y-28248839D01*
X60132455Y-28248839D02*
X60165789Y-28215505D01*
X60165789Y-28215505D02*
X60199122Y-28148839D01*
X60199122Y-28148839D02*
X60199122Y-28082172D01*
X60199122Y-28082172D02*
X60165789Y-28015505D01*
X60165789Y-28015505D02*
X60132455Y-27982172D01*
X60132455Y-27982172D02*
X60065789Y-27948839D01*
X60065789Y-27948839D02*
X59932455Y-27915505D01*
X59932455Y-27915505D02*
X59865789Y-27882172D01*
X59865789Y-27882172D02*
X59832455Y-27848839D01*
X59832455Y-27848839D02*
X59799122Y-27782172D01*
X59799122Y-27782172D02*
X59799122Y-27715505D01*
X59799122Y-27715505D02*
X59832455Y-27648839D01*
X59832455Y-27648839D02*
X59865789Y-27615505D01*
X59865789Y-27615505D02*
X59932455Y-27582172D01*
X59932455Y-27582172D02*
X60099122Y-27582172D01*
X60099122Y-27582172D02*
X60199122Y-27615505D01*
X60399122Y-27815505D02*
X60665789Y-27815505D01*
X60499122Y-27582172D02*
X60499122Y-28182172D01*
X60499122Y-28182172D02*
X60532456Y-28248839D01*
X60532456Y-28248839D02*
X60599122Y-28282172D01*
X60599122Y-28282172D02*
X60665789Y-28282172D01*
X61199122Y-28282172D02*
X61199122Y-27915505D01*
X61199122Y-27915505D02*
X61165789Y-27848839D01*
X61165789Y-27848839D02*
X61099122Y-27815505D01*
X61099122Y-27815505D02*
X60965789Y-27815505D01*
X60965789Y-27815505D02*
X60899122Y-27848839D01*
X61199122Y-28248839D02*
X61132456Y-28282172D01*
X61132456Y-28282172D02*
X60965789Y-28282172D01*
X60965789Y-28282172D02*
X60899122Y-28248839D01*
X60899122Y-28248839D02*
X60865789Y-28182172D01*
X60865789Y-28182172D02*
X60865789Y-28115505D01*
X60865789Y-28115505D02*
X60899122Y-28048839D01*
X60899122Y-28048839D02*
X60965789Y-28015505D01*
X60965789Y-28015505D02*
X61132456Y-28015505D01*
X61132456Y-28015505D02*
X61199122Y-27982172D01*
X61532455Y-28282172D02*
X61532455Y-27815505D01*
X61532455Y-27882172D02*
X61565789Y-27848839D01*
X61565789Y-27848839D02*
X61632455Y-27815505D01*
X61632455Y-27815505D02*
X61732455Y-27815505D01*
X61732455Y-27815505D02*
X61799122Y-27848839D01*
X61799122Y-27848839D02*
X61832455Y-27915505D01*
X61832455Y-27915505D02*
X61832455Y-28282172D01*
X61832455Y-27915505D02*
X61865789Y-27848839D01*
X61865789Y-27848839D02*
X61932455Y-27815505D01*
X61932455Y-27815505D02*
X62032455Y-27815505D01*
X62032455Y-27815505D02*
X62099122Y-27848839D01*
X62099122Y-27848839D02*
X62132455Y-27915505D01*
X62132455Y-27915505D02*
X62132455Y-28282172D01*
X62465788Y-27815505D02*
X62465788Y-28515505D01*
X62465788Y-27848839D02*
X62532455Y-27815505D01*
X62532455Y-27815505D02*
X62665788Y-27815505D01*
X62665788Y-27815505D02*
X62732455Y-27848839D01*
X62732455Y-27848839D02*
X62765788Y-27882172D01*
X62765788Y-27882172D02*
X62799122Y-27948839D01*
X62799122Y-27948839D02*
X62799122Y-28148839D01*
X62799122Y-28148839D02*
X62765788Y-28215505D01*
X62765788Y-28215505D02*
X62732455Y-28248839D01*
X62732455Y-28248839D02*
X62665788Y-28282172D01*
X62665788Y-28282172D02*
X62532455Y-28282172D01*
X62532455Y-28282172D02*
X62465788Y-28248839D01*
X63365788Y-28248839D02*
X63299121Y-28282172D01*
X63299121Y-28282172D02*
X63165788Y-28282172D01*
X63165788Y-28282172D02*
X63099121Y-28248839D01*
X63099121Y-28248839D02*
X63065788Y-28182172D01*
X63065788Y-28182172D02*
X63065788Y-27915505D01*
X63065788Y-27915505D02*
X63099121Y-27848839D01*
X63099121Y-27848839D02*
X63165788Y-27815505D01*
X63165788Y-27815505D02*
X63299121Y-27815505D01*
X63299121Y-27815505D02*
X63365788Y-27848839D01*
X63365788Y-27848839D02*
X63399121Y-27915505D01*
X63399121Y-27915505D02*
X63399121Y-27982172D01*
X63399121Y-27982172D02*
X63065788Y-28048839D01*
X63999121Y-28282172D02*
X63999121Y-27582172D01*
X63999121Y-28248839D02*
X63932455Y-28282172D01*
X63932455Y-28282172D02*
X63799121Y-28282172D01*
X63799121Y-28282172D02*
X63732455Y-28248839D01*
X63732455Y-28248839D02*
X63699121Y-28215505D01*
X63699121Y-28215505D02*
X63665788Y-28148839D01*
X63665788Y-28148839D02*
X63665788Y-27948839D01*
X63665788Y-27948839D02*
X63699121Y-27882172D01*
X63699121Y-27882172D02*
X63732455Y-27848839D01*
X63732455Y-27848839D02*
X63799121Y-27815505D01*
X63799121Y-27815505D02*
X63932455Y-27815505D01*
X63932455Y-27815505D02*
X63999121Y-27848839D01*
X64599121Y-28248839D02*
X64532454Y-28282172D01*
X64532454Y-28282172D02*
X64399121Y-28282172D01*
X64399121Y-28282172D02*
X64332454Y-28248839D01*
X64332454Y-28248839D02*
X64299121Y-28182172D01*
X64299121Y-28182172D02*
X64299121Y-27915505D01*
X64299121Y-27915505D02*
X64332454Y-27848839D01*
X64332454Y-27848839D02*
X64399121Y-27815505D01*
X64399121Y-27815505D02*
X64532454Y-27815505D01*
X64532454Y-27815505D02*
X64599121Y-27848839D01*
X64599121Y-27848839D02*
X64632454Y-27915505D01*
X64632454Y-27915505D02*
X64632454Y-27982172D01*
X64632454Y-27982172D02*
X64299121Y-28048839D01*
X65599121Y-27582172D02*
X65732454Y-27582172D01*
X65732454Y-27582172D02*
X65799121Y-27615505D01*
X65799121Y-27615505D02*
X65865787Y-27682172D01*
X65865787Y-27682172D02*
X65899121Y-27815505D01*
X65899121Y-27815505D02*
X65899121Y-28048839D01*
X65899121Y-28048839D02*
X65865787Y-28182172D01*
X65865787Y-28182172D02*
X65799121Y-28248839D01*
X65799121Y-28248839D02*
X65732454Y-28282172D01*
X65732454Y-28282172D02*
X65599121Y-28282172D01*
X65599121Y-28282172D02*
X65532454Y-28248839D01*
X65532454Y-28248839D02*
X65465787Y-28182172D01*
X65465787Y-28182172D02*
X65432454Y-28048839D01*
X65432454Y-28048839D02*
X65432454Y-27815505D01*
X65432454Y-27815505D02*
X65465787Y-27682172D01*
X65465787Y-27682172D02*
X65532454Y-27615505D01*
X65532454Y-27615505D02*
X65599121Y-27582172D01*
X66199120Y-27815505D02*
X66199120Y-28282172D01*
X66199120Y-27882172D02*
X66232454Y-27848839D01*
X66232454Y-27848839D02*
X66299120Y-27815505D01*
X66299120Y-27815505D02*
X66399120Y-27815505D01*
X66399120Y-27815505D02*
X66465787Y-27848839D01*
X66465787Y-27848839D02*
X66499120Y-27915505D01*
X66499120Y-27915505D02*
X66499120Y-28282172D01*
X66832453Y-28282172D02*
X66832453Y-27582172D01*
X66832453Y-27848839D02*
X66899120Y-27815505D01*
X66899120Y-27815505D02*
X67032453Y-27815505D01*
X67032453Y-27815505D02*
X67099120Y-27848839D01*
X67099120Y-27848839D02*
X67132453Y-27882172D01*
X67132453Y-27882172D02*
X67165787Y-27948839D01*
X67165787Y-27948839D02*
X67165787Y-28148839D01*
X67165787Y-28148839D02*
X67132453Y-28215505D01*
X67132453Y-28215505D02*
X67099120Y-28248839D01*
X67099120Y-28248839D02*
X67032453Y-28282172D01*
X67032453Y-28282172D02*
X66899120Y-28282172D01*
X66899120Y-28282172D02*
X66832453Y-28248839D01*
X67565786Y-28282172D02*
X67499120Y-28248839D01*
X67499120Y-28248839D02*
X67465786Y-28215505D01*
X67465786Y-28215505D02*
X67432453Y-28148839D01*
X67432453Y-28148839D02*
X67432453Y-27948839D01*
X67432453Y-27948839D02*
X67465786Y-27882172D01*
X67465786Y-27882172D02*
X67499120Y-27848839D01*
X67499120Y-27848839D02*
X67565786Y-27815505D01*
X67565786Y-27815505D02*
X67665786Y-27815505D01*
X67665786Y-27815505D02*
X67732453Y-27848839D01*
X67732453Y-27848839D02*
X67765786Y-27882172D01*
X67765786Y-27882172D02*
X67799120Y-27948839D01*
X67799120Y-27948839D02*
X67799120Y-28148839D01*
X67799120Y-28148839D02*
X67765786Y-28215505D01*
X67765786Y-28215505D02*
X67732453Y-28248839D01*
X67732453Y-28248839D02*
X67665786Y-28282172D01*
X67665786Y-28282172D02*
X67565786Y-28282172D01*
X68399119Y-28282172D02*
X68399119Y-27915505D01*
X68399119Y-27915505D02*
X68365786Y-27848839D01*
X68365786Y-27848839D02*
X68299119Y-27815505D01*
X68299119Y-27815505D02*
X68165786Y-27815505D01*
X68165786Y-27815505D02*
X68099119Y-27848839D01*
X68399119Y-28248839D02*
X68332453Y-28282172D01*
X68332453Y-28282172D02*
X68165786Y-28282172D01*
X68165786Y-28282172D02*
X68099119Y-28248839D01*
X68099119Y-28248839D02*
X68065786Y-28182172D01*
X68065786Y-28182172D02*
X68065786Y-28115505D01*
X68065786Y-28115505D02*
X68099119Y-28048839D01*
X68099119Y-28048839D02*
X68165786Y-28015505D01*
X68165786Y-28015505D02*
X68332453Y-28015505D01*
X68332453Y-28015505D02*
X68399119Y-27982172D01*
X68732452Y-28282172D02*
X68732452Y-27815505D01*
X68732452Y-27948839D02*
X68765786Y-27882172D01*
X68765786Y-27882172D02*
X68799119Y-27848839D01*
X68799119Y-27848839D02*
X68865786Y-27815505D01*
X68865786Y-27815505D02*
X68932452Y-27815505D01*
X69465785Y-28282172D02*
X69465785Y-27582172D01*
X69465785Y-28248839D02*
X69399119Y-28282172D01*
X69399119Y-28282172D02*
X69265785Y-28282172D01*
X69265785Y-28282172D02*
X69199119Y-28248839D01*
X69199119Y-28248839D02*
X69165785Y-28215505D01*
X69165785Y-28215505D02*
X69132452Y-28148839D01*
X69132452Y-28148839D02*
X69132452Y-27948839D01*
X69132452Y-27948839D02*
X69165785Y-27882172D01*
X69165785Y-27882172D02*
X69199119Y-27848839D01*
X69199119Y-27848839D02*
X69265785Y-27815505D01*
X69265785Y-27815505D02*
X69399119Y-27815505D01*
X69399119Y-27815505D02*
X69465785Y-27848839D01*
X69799118Y-28282172D02*
X69799118Y-27815505D01*
X69799118Y-27582172D02*
X69765785Y-27615505D01*
X69765785Y-27615505D02*
X69799118Y-27648839D01*
X69799118Y-27648839D02*
X69832452Y-27615505D01*
X69832452Y-27615505D02*
X69799118Y-27582172D01*
X69799118Y-27582172D02*
X69799118Y-27648839D01*
X70132451Y-27815505D02*
X70132451Y-28282172D01*
X70132451Y-27882172D02*
X70165785Y-27848839D01*
X70165785Y-27848839D02*
X70232451Y-27815505D01*
X70232451Y-27815505D02*
X70332451Y-27815505D01*
X70332451Y-27815505D02*
X70399118Y-27848839D01*
X70399118Y-27848839D02*
X70432451Y-27915505D01*
X70432451Y-27915505D02*
X70432451Y-28282172D01*
X71065784Y-27815505D02*
X71065784Y-28382172D01*
X71065784Y-28382172D02*
X71032451Y-28448839D01*
X71032451Y-28448839D02*
X70999118Y-28482172D01*
X70999118Y-28482172D02*
X70932451Y-28515505D01*
X70932451Y-28515505D02*
X70832451Y-28515505D01*
X70832451Y-28515505D02*
X70765784Y-28482172D01*
X71065784Y-28248839D02*
X70999118Y-28282172D01*
X70999118Y-28282172D02*
X70865784Y-28282172D01*
X70865784Y-28282172D02*
X70799118Y-28248839D01*
X70799118Y-28248839D02*
X70765784Y-28215505D01*
X70765784Y-28215505D02*
X70732451Y-28148839D01*
X70732451Y-28148839D02*
X70732451Y-27948839D01*
X70732451Y-27948839D02*
X70765784Y-27882172D01*
X70765784Y-27882172D02*
X70799118Y-27848839D01*
X70799118Y-27848839D02*
X70865784Y-27815505D01*
X70865784Y-27815505D02*
X70999118Y-27815505D01*
X70999118Y-27815505D02*
X71065784Y-27848839D01*
X59832455Y-29409133D02*
X59832455Y-28709133D01*
X59832455Y-28709133D02*
X60065789Y-29209133D01*
X60065789Y-29209133D02*
X60299122Y-28709133D01*
X60299122Y-28709133D02*
X60299122Y-29409133D01*
X60732455Y-29409133D02*
X60665789Y-29375800D01*
X60665789Y-29375800D02*
X60632455Y-29342466D01*
X60632455Y-29342466D02*
X60599122Y-29275800D01*
X60599122Y-29275800D02*
X60599122Y-29075800D01*
X60599122Y-29075800D02*
X60632455Y-29009133D01*
X60632455Y-29009133D02*
X60665789Y-28975800D01*
X60665789Y-28975800D02*
X60732455Y-28942466D01*
X60732455Y-28942466D02*
X60832455Y-28942466D01*
X60832455Y-28942466D02*
X60899122Y-28975800D01*
X60899122Y-28975800D02*
X60932455Y-29009133D01*
X60932455Y-29009133D02*
X60965789Y-29075800D01*
X60965789Y-29075800D02*
X60965789Y-29275800D01*
X60965789Y-29275800D02*
X60932455Y-29342466D01*
X60932455Y-29342466D02*
X60899122Y-29375800D01*
X60899122Y-29375800D02*
X60832455Y-29409133D01*
X60832455Y-29409133D02*
X60732455Y-29409133D01*
X61265788Y-29409133D02*
X61265788Y-28942466D01*
X61265788Y-29075800D02*
X61299122Y-29009133D01*
X61299122Y-29009133D02*
X61332455Y-28975800D01*
X61332455Y-28975800D02*
X61399122Y-28942466D01*
X61399122Y-28942466D02*
X61465788Y-28942466D01*
X61699121Y-29409133D02*
X61699121Y-28942466D01*
X61699121Y-29075800D02*
X61732455Y-29009133D01*
X61732455Y-29009133D02*
X61765788Y-28975800D01*
X61765788Y-28975800D02*
X61832455Y-28942466D01*
X61832455Y-28942466D02*
X61899121Y-28942466D01*
X62132454Y-29409133D02*
X62132454Y-28942466D01*
X62132454Y-28709133D02*
X62099121Y-28742466D01*
X62099121Y-28742466D02*
X62132454Y-28775800D01*
X62132454Y-28775800D02*
X62165788Y-28742466D01*
X62165788Y-28742466D02*
X62132454Y-28709133D01*
X62132454Y-28709133D02*
X62132454Y-28775800D01*
X62432454Y-29375800D02*
X62499121Y-29409133D01*
X62499121Y-29409133D02*
X62632454Y-29409133D01*
X62632454Y-29409133D02*
X62699121Y-29375800D01*
X62699121Y-29375800D02*
X62732454Y-29309133D01*
X62732454Y-29309133D02*
X62732454Y-29275800D01*
X62732454Y-29275800D02*
X62699121Y-29209133D01*
X62699121Y-29209133D02*
X62632454Y-29175800D01*
X62632454Y-29175800D02*
X62532454Y-29175800D01*
X62532454Y-29175800D02*
X62465787Y-29142466D01*
X62465787Y-29142466D02*
X62432454Y-29075800D01*
X62432454Y-29075800D02*
X62432454Y-29042466D01*
X62432454Y-29042466D02*
X62465787Y-28975800D01*
X62465787Y-28975800D02*
X62532454Y-28942466D01*
X62532454Y-28942466D02*
X62632454Y-28942466D01*
X62632454Y-28942466D02*
X62699121Y-28975800D01*
X63899121Y-29409133D02*
X63565787Y-29409133D01*
X63565787Y-29409133D02*
X63565787Y-28709133D01*
X64132454Y-29409133D02*
X64132454Y-28942466D01*
X64132454Y-28709133D02*
X64099121Y-28742466D01*
X64099121Y-28742466D02*
X64132454Y-28775800D01*
X64132454Y-28775800D02*
X64165788Y-28742466D01*
X64165788Y-28742466D02*
X64132454Y-28709133D01*
X64132454Y-28709133D02*
X64132454Y-28775800D01*
X64465787Y-28942466D02*
X64465787Y-29409133D01*
X64465787Y-29009133D02*
X64499121Y-28975800D01*
X64499121Y-28975800D02*
X64565787Y-28942466D01*
X64565787Y-28942466D02*
X64665787Y-28942466D01*
X64665787Y-28942466D02*
X64732454Y-28975800D01*
X64732454Y-28975800D02*
X64765787Y-29042466D01*
X64765787Y-29042466D02*
X64765787Y-29409133D01*
D11*
X68730180Y-33193922D02*
X67730180Y-33527255D01*
X67730180Y-33527255D02*
X68730180Y-33860588D01*
X67695895Y-34603446D02*
X67657800Y-34565350D01*
X67657800Y-34565350D02*
X67619704Y-34451065D01*
X67619704Y-34451065D02*
X67619704Y-34374874D01*
X67619704Y-34374874D02*
X67657800Y-34260588D01*
X67657800Y-34260588D02*
X67733990Y-34184398D01*
X67733990Y-34184398D02*
X67810180Y-34146303D01*
X67810180Y-34146303D02*
X67962561Y-34108207D01*
X67962561Y-34108207D02*
X68076847Y-34108207D01*
X68076847Y-34108207D02*
X68229228Y-34146303D01*
X68229228Y-34146303D02*
X68305419Y-34184398D01*
X68305419Y-34184398D02*
X68381609Y-34260588D01*
X68381609Y-34260588D02*
X68419704Y-34374874D01*
X68419704Y-34374874D02*
X68419704Y-34451065D01*
X68419704Y-34451065D02*
X68381609Y-34565350D01*
X68381609Y-34565350D02*
X68343514Y-34603446D01*
X60793922Y-30469819D02*
X61127255Y-31469819D01*
X61127255Y-31469819D02*
X61460588Y-30469819D01*
X61746303Y-31161247D02*
X62012969Y-31161247D01*
X62127255Y-31580295D02*
X61746303Y-31580295D01*
X61746303Y-31580295D02*
X61746303Y-30780295D01*
X61746303Y-30780295D02*
X62127255Y-30780295D01*
X45809580Y-39269317D02*
X45857200Y-39316936D01*
X45857200Y-39316936D02*
X45904819Y-39459793D01*
X45904819Y-39459793D02*
X45904819Y-39555031D01*
X45904819Y-39555031D02*
X45857200Y-39697888D01*
X45857200Y-39697888D02*
X45761961Y-39793126D01*
X45761961Y-39793126D02*
X45666723Y-39840745D01*
X45666723Y-39840745D02*
X45476247Y-39888364D01*
X45476247Y-39888364D02*
X45333390Y-39888364D01*
X45333390Y-39888364D02*
X45142914Y-39840745D01*
X45142914Y-39840745D02*
X45047676Y-39793126D01*
X45047676Y-39793126D02*
X44952438Y-39697888D01*
X44952438Y-39697888D02*
X44904819Y-39555031D01*
X44904819Y-39555031D02*
X44904819Y-39459793D01*
X44904819Y-39459793D02*
X44952438Y-39316936D01*
X44952438Y-39316936D02*
X45000057Y-39269317D01*
X45904819Y-38316936D02*
X45904819Y-38888364D01*
X45904819Y-38602650D02*
X44904819Y-38602650D01*
X44904819Y-38602650D02*
X45047676Y-38697888D01*
X45047676Y-38697888D02*
X45142914Y-38793126D01*
X45142914Y-38793126D02*
X45190533Y-38888364D01*
X74554819Y-40733333D02*
X75269104Y-40733333D01*
X75269104Y-40733333D02*
X75411961Y-40780952D01*
X75411961Y-40780952D02*
X75507200Y-40876190D01*
X75507200Y-40876190D02*
X75554819Y-41019047D01*
X75554819Y-41019047D02*
X75554819Y-41114285D01*
X75554819Y-39733333D02*
X75554819Y-40304761D01*
X75554819Y-40019047D02*
X74554819Y-40019047D01*
X74554819Y-40019047D02*
X74697676Y-40114285D01*
X74697676Y-40114285D02*
X74792914Y-40209523D01*
X74792914Y-40209523D02*
X74840533Y-40304761D01*
X71214700Y-34471428D02*
X71214700Y-33328571D01*
X71214700Y-47471428D02*
X71214700Y-46328571D01*
X71786128Y-46899999D02*
X70643271Y-46899999D01*
X59138095Y-45454819D02*
X59138095Y-46264342D01*
X59138095Y-46264342D02*
X59185714Y-46359580D01*
X59185714Y-46359580D02*
X59233333Y-46407200D01*
X59233333Y-46407200D02*
X59328571Y-46454819D01*
X59328571Y-46454819D02*
X59519047Y-46454819D01*
X59519047Y-46454819D02*
X59614285Y-46407200D01*
X59614285Y-46407200D02*
X59661904Y-46359580D01*
X59661904Y-46359580D02*
X59709523Y-46264342D01*
X59709523Y-46264342D02*
X59709523Y-45454819D01*
X60138095Y-45550057D02*
X60185714Y-45502438D01*
X60185714Y-45502438D02*
X60280952Y-45454819D01*
X60280952Y-45454819D02*
X60519047Y-45454819D01*
X60519047Y-45454819D02*
X60614285Y-45502438D01*
X60614285Y-45502438D02*
X60661904Y-45550057D01*
X60661904Y-45550057D02*
X60709523Y-45645295D01*
X60709523Y-45645295D02*
X60709523Y-45740533D01*
X60709523Y-45740533D02*
X60661904Y-45883390D01*
X60661904Y-45883390D02*
X60090476Y-46454819D01*
X60090476Y-46454819D02*
X60709523Y-46454819D01*
X70754819Y-48666666D02*
X70278628Y-48999999D01*
X70754819Y-49238094D02*
X69754819Y-49238094D01*
X69754819Y-49238094D02*
X69754819Y-48857142D01*
X69754819Y-48857142D02*
X69802438Y-48761904D01*
X69802438Y-48761904D02*
X69850057Y-48714285D01*
X69850057Y-48714285D02*
X69945295Y-48666666D01*
X69945295Y-48666666D02*
X70088152Y-48666666D01*
X70088152Y-48666666D02*
X70183390Y-48714285D01*
X70183390Y-48714285D02*
X70231009Y-48761904D01*
X70231009Y-48761904D02*
X70278628Y-48857142D01*
X70278628Y-48857142D02*
X70278628Y-49238094D01*
X69754819Y-48333332D02*
X69754819Y-47714285D01*
X69754819Y-47714285D02*
X70135771Y-48047618D01*
X70135771Y-48047618D02*
X70135771Y-47904761D01*
X70135771Y-47904761D02*
X70183390Y-47809523D01*
X70183390Y-47809523D02*
X70231009Y-47761904D01*
X70231009Y-47761904D02*
X70326247Y-47714285D01*
X70326247Y-47714285D02*
X70564342Y-47714285D01*
X70564342Y-47714285D02*
X70659580Y-47761904D01*
X70659580Y-47761904D02*
X70707200Y-47809523D01*
X70707200Y-47809523D02*
X70754819Y-47904761D01*
X70754819Y-47904761D02*
X70754819Y-48190475D01*
X70754819Y-48190475D02*
X70707200Y-48285713D01*
X70707200Y-48285713D02*
X70659580Y-48333332D01*
X38554819Y-45933333D02*
X39269104Y-45933333D01*
X39269104Y-45933333D02*
X39411961Y-45980952D01*
X39411961Y-45980952D02*
X39507200Y-46076190D01*
X39507200Y-46076190D02*
X39554819Y-46219047D01*
X39554819Y-46219047D02*
X39554819Y-46314285D01*
X38650057Y-45504761D02*
X38602438Y-45457142D01*
X38602438Y-45457142D02*
X38554819Y-45361904D01*
X38554819Y-45361904D02*
X38554819Y-45123809D01*
X38554819Y-45123809D02*
X38602438Y-45028571D01*
X38602438Y-45028571D02*
X38650057Y-44980952D01*
X38650057Y-44980952D02*
X38745295Y-44933333D01*
X38745295Y-44933333D02*
X38840533Y-44933333D01*
X38840533Y-44933333D02*
X38983390Y-44980952D01*
X38983390Y-44980952D02*
X39554819Y-45552380D01*
X39554819Y-45552380D02*
X39554819Y-44933333D01*
X43214700Y-52671428D02*
X43214700Y-51528571D01*
X43214700Y-39671428D02*
X43214700Y-38528571D01*
X43786128Y-39099999D02*
X42643271Y-39099999D01*
X38429819Y-34233333D02*
X39144104Y-34233333D01*
X39144104Y-34233333D02*
X39286961Y-34280952D01*
X39286961Y-34280952D02*
X39382200Y-34376190D01*
X39382200Y-34376190D02*
X39429819Y-34519047D01*
X39429819Y-34519047D02*
X39429819Y-34614285D01*
X38763152Y-33328571D02*
X39429819Y-33328571D01*
X38382200Y-33566666D02*
X39096485Y-33804761D01*
X39096485Y-33804761D02*
X39096485Y-33185714D01*
X53133333Y-49259580D02*
X53085714Y-49307200D01*
X53085714Y-49307200D02*
X52942857Y-49354819D01*
X52942857Y-49354819D02*
X52847619Y-49354819D01*
X52847619Y-49354819D02*
X52704762Y-49307200D01*
X52704762Y-49307200D02*
X52609524Y-49211961D01*
X52609524Y-49211961D02*
X52561905Y-49116723D01*
X52561905Y-49116723D02*
X52514286Y-48926247D01*
X52514286Y-48926247D02*
X52514286Y-48783390D01*
X52514286Y-48783390D02*
X52561905Y-48592914D01*
X52561905Y-48592914D02*
X52609524Y-48497676D01*
X52609524Y-48497676D02*
X52704762Y-48402438D01*
X52704762Y-48402438D02*
X52847619Y-48354819D01*
X52847619Y-48354819D02*
X52942857Y-48354819D01*
X52942857Y-48354819D02*
X53085714Y-48402438D01*
X53085714Y-48402438D02*
X53133333Y-48450057D01*
X53514286Y-48450057D02*
X53561905Y-48402438D01*
X53561905Y-48402438D02*
X53657143Y-48354819D01*
X53657143Y-48354819D02*
X53895238Y-48354819D01*
X53895238Y-48354819D02*
X53990476Y-48402438D01*
X53990476Y-48402438D02*
X54038095Y-48450057D01*
X54038095Y-48450057D02*
X54085714Y-48545295D01*
X54085714Y-48545295D02*
X54085714Y-48640533D01*
X54085714Y-48640533D02*
X54038095Y-48783390D01*
X54038095Y-48783390D02*
X53466667Y-49354819D01*
X53466667Y-49354819D02*
X54085714Y-49354819D01*
X65333333Y-48004819D02*
X65000000Y-47528628D01*
X64761905Y-48004819D02*
X64761905Y-47004819D01*
X64761905Y-47004819D02*
X65142857Y-47004819D01*
X65142857Y-47004819D02*
X65238095Y-47052438D01*
X65238095Y-47052438D02*
X65285714Y-47100057D01*
X65285714Y-47100057D02*
X65333333Y-47195295D01*
X65333333Y-47195295D02*
X65333333Y-47338152D01*
X65333333Y-47338152D02*
X65285714Y-47433390D01*
X65285714Y-47433390D02*
X65238095Y-47481009D01*
X65238095Y-47481009D02*
X65142857Y-47528628D01*
X65142857Y-47528628D02*
X64761905Y-47528628D01*
X66285714Y-48004819D02*
X65714286Y-48004819D01*
X66000000Y-48004819D02*
X66000000Y-47004819D01*
X66000000Y-47004819D02*
X65904762Y-47147676D01*
X65904762Y-47147676D02*
X65809524Y-47242914D01*
X65809524Y-47242914D02*
X65714286Y-47290533D01*
X50354819Y-31533333D02*
X51069104Y-31533333D01*
X51069104Y-31533333D02*
X51211961Y-31580952D01*
X51211961Y-31580952D02*
X51307200Y-31676190D01*
X51307200Y-31676190D02*
X51354819Y-31819047D01*
X51354819Y-31819047D02*
X51354819Y-31914285D01*
X50354819Y-31152380D02*
X50354819Y-30533333D01*
X50354819Y-30533333D02*
X50735771Y-30866666D01*
X50735771Y-30866666D02*
X50735771Y-30723809D01*
X50735771Y-30723809D02*
X50783390Y-30628571D01*
X50783390Y-30628571D02*
X50831009Y-30580952D01*
X50831009Y-30580952D02*
X50926247Y-30533333D01*
X50926247Y-30533333D02*
X51164342Y-30533333D01*
X51164342Y-30533333D02*
X51259580Y-30580952D01*
X51259580Y-30580952D02*
X51307200Y-30628571D01*
X51307200Y-30628571D02*
X51354819Y-30723809D01*
X51354819Y-30723809D02*
X51354819Y-31009523D01*
X51354819Y-31009523D02*
X51307200Y-31104761D01*
X51307200Y-31104761D02*
X51259580Y-31152380D01*
X59833333Y-35954819D02*
X59357143Y-35954819D01*
X59357143Y-35954819D02*
X59357143Y-34954819D01*
X60690476Y-35954819D02*
X60119048Y-35954819D01*
X60404762Y-35954819D02*
X60404762Y-34954819D01*
X60404762Y-34954819D02*
X60309524Y-35097676D01*
X60309524Y-35097676D02*
X60214286Y-35192914D01*
X60214286Y-35192914D02*
X60119048Y-35240533D01*
X53133333Y-54654819D02*
X52800000Y-54178628D01*
X52561905Y-54654819D02*
X52561905Y-53654819D01*
X52561905Y-53654819D02*
X52942857Y-53654819D01*
X52942857Y-53654819D02*
X53038095Y-53702438D01*
X53038095Y-53702438D02*
X53085714Y-53750057D01*
X53085714Y-53750057D02*
X53133333Y-53845295D01*
X53133333Y-53845295D02*
X53133333Y-53988152D01*
X53133333Y-53988152D02*
X53085714Y-54083390D01*
X53085714Y-54083390D02*
X53038095Y-54131009D01*
X53038095Y-54131009D02*
X52942857Y-54178628D01*
X52942857Y-54178628D02*
X52561905Y-54178628D01*
X53990476Y-53988152D02*
X53990476Y-54654819D01*
X53752381Y-53607200D02*
X53514286Y-54321485D01*
X53514286Y-54321485D02*
X54133333Y-54321485D01*
X67739580Y-50566666D02*
X67787200Y-50614285D01*
X67787200Y-50614285D02*
X67834819Y-50757142D01*
X67834819Y-50757142D02*
X67834819Y-50852380D01*
X67834819Y-50852380D02*
X67787200Y-50995237D01*
X67787200Y-50995237D02*
X67691961Y-51090475D01*
X67691961Y-51090475D02*
X67596723Y-51138094D01*
X67596723Y-51138094D02*
X67406247Y-51185713D01*
X67406247Y-51185713D02*
X67263390Y-51185713D01*
X67263390Y-51185713D02*
X67072914Y-51138094D01*
X67072914Y-51138094D02*
X66977676Y-51090475D01*
X66977676Y-51090475D02*
X66882438Y-50995237D01*
X66882438Y-50995237D02*
X66834819Y-50852380D01*
X66834819Y-50852380D02*
X66834819Y-50757142D01*
X66834819Y-50757142D02*
X66882438Y-50614285D01*
X66882438Y-50614285D02*
X66930057Y-50566666D01*
X67168152Y-49709523D02*
X67834819Y-49709523D01*
X66787200Y-49947618D02*
X67501485Y-50185713D01*
X67501485Y-50185713D02*
X67501485Y-49566666D01*
X53133333Y-51954819D02*
X52800000Y-51478628D01*
X52561905Y-51954819D02*
X52561905Y-50954819D01*
X52561905Y-50954819D02*
X52942857Y-50954819D01*
X52942857Y-50954819D02*
X53038095Y-51002438D01*
X53038095Y-51002438D02*
X53085714Y-51050057D01*
X53085714Y-51050057D02*
X53133333Y-51145295D01*
X53133333Y-51145295D02*
X53133333Y-51288152D01*
X53133333Y-51288152D02*
X53085714Y-51383390D01*
X53085714Y-51383390D02*
X53038095Y-51431009D01*
X53038095Y-51431009D02*
X52942857Y-51478628D01*
X52942857Y-51478628D02*
X52561905Y-51478628D01*
X53514286Y-51050057D02*
X53561905Y-51002438D01*
X53561905Y-51002438D02*
X53657143Y-50954819D01*
X53657143Y-50954819D02*
X53895238Y-50954819D01*
X53895238Y-50954819D02*
X53990476Y-51002438D01*
X53990476Y-51002438D02*
X54038095Y-51050057D01*
X54038095Y-51050057D02*
X54085714Y-51145295D01*
X54085714Y-51145295D02*
X54085714Y-51240533D01*
X54085714Y-51240533D02*
X54038095Y-51383390D01*
X54038095Y-51383390D02*
X53466667Y-51954819D01*
X53466667Y-51954819D02*
X54085714Y-51954819D01*
X47561905Y-45454819D02*
X47561905Y-44454819D01*
X47561905Y-44454819D02*
X47800000Y-44454819D01*
X47800000Y-44454819D02*
X47942857Y-44502438D01*
X47942857Y-44502438D02*
X48038095Y-44597676D01*
X48038095Y-44597676D02*
X48085714Y-44692914D01*
X48085714Y-44692914D02*
X48133333Y-44883390D01*
X48133333Y-44883390D02*
X48133333Y-45026247D01*
X48133333Y-45026247D02*
X48085714Y-45216723D01*
X48085714Y-45216723D02*
X48038095Y-45311961D01*
X48038095Y-45311961D02*
X47942857Y-45407200D01*
X47942857Y-45407200D02*
X47800000Y-45454819D01*
X47800000Y-45454819D02*
X47561905Y-45454819D01*
X48514286Y-44550057D02*
X48561905Y-44502438D01*
X48561905Y-44502438D02*
X48657143Y-44454819D01*
X48657143Y-44454819D02*
X48895238Y-44454819D01*
X48895238Y-44454819D02*
X48990476Y-44502438D01*
X48990476Y-44502438D02*
X49038095Y-44550057D01*
X49038095Y-44550057D02*
X49085714Y-44645295D01*
X49085714Y-44645295D02*
X49085714Y-44740533D01*
X49085714Y-44740533D02*
X49038095Y-44883390D01*
X49038095Y-44883390D02*
X48466667Y-45454819D01*
X48466667Y-45454819D02*
X49085714Y-45454819D01*
D12*
%TO.C,C1*%
X46620000Y-39062651D02*
X54780000Y-39062651D01*
X46620000Y-39102651D02*
X54780000Y-39102651D01*
X46621000Y-39022651D02*
X54779000Y-39022651D01*
X46622000Y-38982651D02*
X54778000Y-38982651D01*
X46623000Y-38942651D02*
X54777000Y-38942651D01*
X46625000Y-38902651D02*
X54775000Y-38902651D01*
X46627000Y-38862651D02*
X54773000Y-38862651D01*
X46630000Y-38822651D02*
X54770000Y-38822651D01*
X46632000Y-38782651D02*
X54768000Y-38782651D01*
X46636000Y-38742651D02*
X54764000Y-38742651D01*
X46639000Y-38702651D02*
X54761000Y-38702651D01*
X46644000Y-38662651D02*
X54756000Y-38662651D01*
X46648000Y-38622651D02*
X54752000Y-38622651D01*
X46653000Y-38582651D02*
X54747000Y-38582651D01*
X46658000Y-38542651D02*
X54742000Y-38542651D01*
X46664000Y-38502651D02*
X54736000Y-38502651D01*
X46670000Y-38462651D02*
X54730000Y-38462651D01*
X46677000Y-38422651D02*
X54723000Y-38422651D01*
X46683000Y-38382651D02*
X54717000Y-38382651D01*
X46691000Y-38342651D02*
X54709000Y-38342651D01*
X46698000Y-38302651D02*
X54702000Y-38302651D01*
X46707000Y-38262651D02*
X54693000Y-38262651D01*
X46715000Y-38222651D02*
X54685000Y-38222651D01*
X46724000Y-38182651D02*
X54676000Y-38182651D01*
X46733000Y-38142651D02*
X54667000Y-38142651D01*
X46743000Y-38102651D02*
X54657000Y-38102651D01*
X46753000Y-38062651D02*
X54647000Y-38062651D01*
X46764000Y-38022651D02*
X54636000Y-38022651D01*
X46775000Y-37982651D02*
X54625000Y-37982651D01*
X46787000Y-37942651D02*
X54613000Y-37942651D01*
X46799000Y-37902651D02*
X54601000Y-37902651D01*
X46811000Y-37862651D02*
X54589000Y-37862651D01*
X46824000Y-37822651D02*
X54576000Y-37822651D01*
X46837000Y-37782651D02*
X54563000Y-37782651D01*
X46851000Y-37742651D02*
X54549000Y-37742651D01*
X46865000Y-37702651D02*
X54535000Y-37702651D01*
X46880000Y-37662651D02*
X54520000Y-37662651D01*
X46895000Y-37622651D02*
X49660000Y-37622651D01*
X46911000Y-37582651D02*
X49660000Y-37582651D01*
X46927000Y-37542651D02*
X49660000Y-37542651D01*
X46943000Y-37502651D02*
X49660000Y-37502651D01*
X46960000Y-37462651D02*
X49660000Y-37462651D01*
X46978000Y-37422651D02*
X49660000Y-37422651D01*
X46996000Y-37382651D02*
X49660000Y-37382651D01*
X47015000Y-37342651D02*
X49660000Y-37342651D01*
X47034000Y-37302651D02*
X49660000Y-37302651D01*
X47054000Y-37262651D02*
X49660000Y-37262651D01*
X47074000Y-37222651D02*
X49660000Y-37222651D01*
X47095000Y-37182651D02*
X49660000Y-37182651D01*
X47116000Y-37142651D02*
X49660000Y-37142651D01*
X47138000Y-37102651D02*
X49660000Y-37102651D01*
X47161000Y-37062651D02*
X49660000Y-37062651D01*
X47184000Y-37022651D02*
X49660000Y-37022651D01*
X47207000Y-36982651D02*
X49660000Y-36982651D01*
X47232000Y-36942651D02*
X49660000Y-36942651D01*
X47257000Y-36902651D02*
X49660000Y-36902651D01*
X47282000Y-36862651D02*
X49660000Y-36862651D01*
X47308000Y-36822651D02*
X49660000Y-36822651D01*
X47335000Y-36782651D02*
X49660000Y-36782651D01*
X47363000Y-36742651D02*
X49660000Y-36742651D01*
X47391000Y-36702651D02*
X49660000Y-36702651D01*
X47420000Y-36662651D02*
X49660000Y-36662651D01*
X47450000Y-36622651D02*
X49660000Y-36622651D01*
X47481000Y-36582651D02*
X49660000Y-36582651D01*
X47512000Y-36542651D02*
X49660000Y-36542651D01*
X47544000Y-36502651D02*
X49660000Y-36502651D01*
X47577000Y-36462651D02*
X49660000Y-36462651D01*
X47611000Y-36422651D02*
X49660000Y-36422651D01*
X47645000Y-36382651D02*
X49660000Y-36382651D01*
X47681000Y-36342651D02*
X49660000Y-36342651D01*
X47718000Y-36302651D02*
X49660000Y-36302651D01*
X47755000Y-36262651D02*
X49660000Y-36262651D01*
X47794000Y-36222651D02*
X49660000Y-36222651D01*
X47833000Y-36182651D02*
X49660000Y-36182651D01*
X47874000Y-36142651D02*
X49660000Y-36142651D01*
X47916000Y-36102651D02*
X49660000Y-36102651D01*
X47959000Y-36062651D02*
X49660000Y-36062651D01*
X47985000Y-43112349D02*
X48785000Y-43112349D01*
X48004000Y-36022651D02*
X49660000Y-36022651D01*
X48049000Y-35982651D02*
X49660000Y-35982651D01*
X48096000Y-35942651D02*
X49660000Y-35942651D01*
X48145000Y-35902651D02*
X49660000Y-35902651D01*
X48195000Y-35862651D02*
X49660000Y-35862651D01*
X48247000Y-35822651D02*
X49660000Y-35822651D01*
X48300000Y-35782651D02*
X49660000Y-35782651D01*
X48356000Y-35742651D02*
X49660000Y-35742651D01*
X48385000Y-43512349D02*
X48385000Y-42712349D01*
X48413000Y-35702651D02*
X49660000Y-35702651D01*
X48473000Y-35662651D02*
X49660000Y-35662651D01*
X48535000Y-35622651D02*
X49660000Y-35622651D01*
X48599000Y-35582651D02*
X49660000Y-35582651D01*
X48666000Y-35542651D02*
X52734000Y-35542651D01*
X48736000Y-35502651D02*
X52664000Y-35502651D01*
X48810000Y-35462651D02*
X52590000Y-35462651D01*
X48887000Y-35422651D02*
X52513000Y-35422651D01*
X48969000Y-35382651D02*
X52431000Y-35382651D01*
X49056000Y-35342651D02*
X52344000Y-35342651D01*
X49148000Y-35302651D02*
X52252000Y-35302651D01*
X49247000Y-35262651D02*
X52153000Y-35262651D01*
X49354000Y-35222651D02*
X52046000Y-35222651D01*
X49472000Y-35182651D02*
X51928000Y-35182651D01*
X49603000Y-35142651D02*
X51797000Y-35142651D01*
X49753000Y-35102651D02*
X51647000Y-35102651D01*
X49932000Y-35062651D02*
X51468000Y-35062651D01*
X50167000Y-35022651D02*
X51233000Y-35022651D01*
X51740000Y-35582651D02*
X52801000Y-35582651D01*
X51740000Y-35622651D02*
X52865000Y-35622651D01*
X51740000Y-35662651D02*
X52927000Y-35662651D01*
X51740000Y-35702651D02*
X52987000Y-35702651D01*
X51740000Y-35742651D02*
X53044000Y-35742651D01*
X51740000Y-35782651D02*
X53100000Y-35782651D01*
X51740000Y-35822651D02*
X53153000Y-35822651D01*
X51740000Y-35862651D02*
X53205000Y-35862651D01*
X51740000Y-35902651D02*
X53255000Y-35902651D01*
X51740000Y-35942651D02*
X53304000Y-35942651D01*
X51740000Y-35982651D02*
X53351000Y-35982651D01*
X51740000Y-36022651D02*
X53396000Y-36022651D01*
X51740000Y-36062651D02*
X53441000Y-36062651D01*
X51740000Y-36102651D02*
X53484000Y-36102651D01*
X51740000Y-36142651D02*
X53526000Y-36142651D01*
X51740000Y-36182651D02*
X53567000Y-36182651D01*
X51740000Y-36222651D02*
X53606000Y-36222651D01*
X51740000Y-36262651D02*
X53645000Y-36262651D01*
X51740000Y-36302651D02*
X53682000Y-36302651D01*
X51740000Y-36342651D02*
X53719000Y-36342651D01*
X51740000Y-36382651D02*
X53755000Y-36382651D01*
X51740000Y-36422651D02*
X53789000Y-36422651D01*
X51740000Y-36462651D02*
X53823000Y-36462651D01*
X51740000Y-36502651D02*
X53856000Y-36502651D01*
X51740000Y-36542651D02*
X53888000Y-36542651D01*
X51740000Y-36582651D02*
X53919000Y-36582651D01*
X51740000Y-36622651D02*
X53950000Y-36622651D01*
X51740000Y-36662651D02*
X53980000Y-36662651D01*
X51740000Y-36702651D02*
X54009000Y-36702651D01*
X51740000Y-36742651D02*
X54037000Y-36742651D01*
X51740000Y-36782651D02*
X54065000Y-36782651D01*
X51740000Y-36822651D02*
X54092000Y-36822651D01*
X51740000Y-36862651D02*
X54118000Y-36862651D01*
X51740000Y-36902651D02*
X54143000Y-36902651D01*
X51740000Y-36942651D02*
X54168000Y-36942651D01*
X51740000Y-36982651D02*
X54193000Y-36982651D01*
X51740000Y-37022651D02*
X54216000Y-37022651D01*
X51740000Y-37062651D02*
X54239000Y-37062651D01*
X51740000Y-37102651D02*
X54262000Y-37102651D01*
X51740000Y-37142651D02*
X54284000Y-37142651D01*
X51740000Y-37182651D02*
X54305000Y-37182651D01*
X51740000Y-37222651D02*
X54326000Y-37222651D01*
X51740000Y-37262651D02*
X54346000Y-37262651D01*
X51740000Y-37302651D02*
X54366000Y-37302651D01*
X51740000Y-37342651D02*
X54385000Y-37342651D01*
X51740000Y-37382651D02*
X54404000Y-37382651D01*
X51740000Y-37422651D02*
X54422000Y-37422651D01*
X51740000Y-37462651D02*
X54440000Y-37462651D01*
X51740000Y-37502651D02*
X54457000Y-37502651D01*
X51740000Y-37542651D02*
X54473000Y-37542651D01*
X51740000Y-37582651D02*
X54489000Y-37582651D01*
X51740000Y-37622651D02*
X54505000Y-37622651D01*
X54820000Y-39102651D02*
G75*
G02*
X46580000Y-39102651I-4120000J0D01*
G01*
X46580000Y-39102651D02*
G75*
G02*
X54820000Y-39102651I4120000J0D01*
G01*
%TO.C,J1*%
X68390000Y-36890000D02*
X68390000Y-45610000D01*
X69690000Y-35190000D02*
X68390000Y-36890000D01*
X72510000Y-35190000D02*
X69690000Y-35190000D01*
X72510000Y-35190000D02*
X73810000Y-36890000D01*
X73810000Y-36890000D02*
X73810000Y-45610000D01*
X73810000Y-45610000D02*
X68390000Y-45610000D01*
%TO.C,U2*%
X59900000Y-46840000D02*
X57950000Y-46840000D01*
X59900000Y-46840000D02*
X61850000Y-46840000D01*
X59900000Y-51960000D02*
X57950000Y-51960000D01*
X59900000Y-51960000D02*
X61850000Y-51960000D01*
X57200000Y-46935000D02*
X56960000Y-46605000D01*
X57440000Y-46605000D01*
X57200000Y-46935000D01*
G36*
X57200000Y-46935000D02*
G01*
X56960000Y-46605000D01*
X57440000Y-46605000D01*
X57200000Y-46935000D01*
G37*
%TO.C,R3*%
X68377500Y-48754724D02*
X68377500Y-48245276D01*
X69422500Y-48754724D02*
X69422500Y-48245276D01*
%TO.C,J2*%
X40390000Y-40390000D02*
X45810000Y-40390000D01*
X40390000Y-49110000D02*
X40390000Y-40390000D01*
X41690000Y-50810000D02*
X40390000Y-49110000D01*
X41690000Y-50810000D02*
X44510000Y-50810000D01*
X44510000Y-50810000D02*
X45810000Y-49110000D01*
X45810000Y-49110000D02*
X45810000Y-40390000D01*
%TO.C,J4*%
X40365000Y-35615000D02*
X40365000Y-32185000D01*
X43235000Y-30915000D02*
X44835000Y-30915000D01*
X43235000Y-36885000D02*
X44835000Y-36885000D01*
X44835000Y-30915000D02*
X44835000Y-32715000D01*
X44835000Y-35085000D02*
X45775000Y-35085000D01*
X44835000Y-36885000D02*
X44835000Y-35085000D01*
%TO.C,C2*%
X53446267Y-46990000D02*
X53153733Y-46990000D01*
X53446267Y-48010000D02*
X53153733Y-48010000D01*
%TO.C,R1*%
X65727064Y-45165000D02*
X65272936Y-45165000D01*
X65727064Y-46635000D02*
X65272936Y-46635000D01*
%TO.C,J3*%
X52290000Y-32915000D02*
X52290000Y-29485000D01*
X55160000Y-28215000D02*
X56760000Y-28215000D01*
X55160000Y-34185000D02*
X56760000Y-34185000D01*
X56760000Y-28215000D02*
X56760000Y-30015000D01*
X56760000Y-32385000D02*
X57700000Y-32385000D01*
X56760000Y-34185000D02*
X56760000Y-32385000D01*
%TO.C,L1*%
X55740000Y-36340000D02*
X55740000Y-36590000D01*
X55740000Y-44860000D02*
X55740000Y-44610000D01*
X64260000Y-36340000D02*
X55740000Y-36340000D01*
X64260000Y-36340000D02*
X64260000Y-36590000D01*
X64260000Y-44860000D02*
X55740000Y-44860000D01*
X64260000Y-44860000D02*
X64260000Y-44610000D01*
%TO.C,R4*%
X53554724Y-52177500D02*
X53045276Y-52177500D01*
X53554724Y-53222500D02*
X53045276Y-53222500D01*
%TO.C,C4*%
X64965000Y-50138748D02*
X64965000Y-50661252D01*
X66435000Y-50138748D02*
X66435000Y-50661252D01*
%TO.C,TP3*%
X59700000Y-32100000D02*
X59700000Y-33900000D01*
X59700000Y-33900000D02*
X63500000Y-33900000D01*
X63500000Y-32100000D02*
X59700000Y-32100000D01*
X63500000Y-33900000D02*
X63500000Y-32100000D01*
%TO.C,R2*%
X53045276Y-49577500D02*
X53554724Y-49577500D01*
X53045276Y-50622500D02*
X53554724Y-50622500D01*
%TO.C,D2*%
X49490000Y-44000000D02*
X49490000Y-46000000D01*
X49490000Y-44000000D02*
X53350000Y-44000000D01*
X49490000Y-46000000D02*
X53350000Y-46000000D01*
%TO.C,TP2*%
X65300000Y-32100000D02*
X65300000Y-35900000D01*
X65300000Y-35900000D02*
X67100000Y-35900000D01*
X67100000Y-32100000D02*
X65300000Y-32100000D01*
X67100000Y-35900000D02*
X67100000Y-32100000D01*
%TD*%
%LPC*%
D13*
%TO.C,C1*%
X50700000Y-41602651D03*
D14*
X50700000Y-36602651D03*
%TD*%
D15*
%TO.C,J1*%
X71100000Y-37900000D03*
D16*
X71100000Y-42900000D03*
%TD*%
D17*
%TO.C,U2*%
X57425000Y-47495000D03*
X57425000Y-48765000D03*
X57425000Y-50035000D03*
X57425000Y-51305000D03*
X62375000Y-51305000D03*
X62375000Y-50035000D03*
X62375000Y-48765000D03*
X62375000Y-47495000D03*
%TD*%
D18*
%TO.C,H4*%
X74000000Y-52000000D03*
%TD*%
D19*
%TO.C,R3*%
X68900000Y-49412500D03*
X68900000Y-47587500D03*
%TD*%
D18*
%TO.C,H1*%
X38000000Y-28000000D03*
%TD*%
D20*
%TO.C,J2*%
X43100000Y-48100000D03*
D21*
X43100000Y-43100000D03*
%TD*%
D22*
%TO.C,J4*%
X44925000Y-34525000D03*
X44925000Y-33275000D03*
D23*
X41575000Y-36375000D03*
X41575000Y-31425000D03*
%TD*%
D24*
%TO.C,C2*%
X54162500Y-47500000D03*
X52437500Y-47500000D03*
%TD*%
D25*
%TO.C,R1*%
X66500000Y-45900000D03*
X64500000Y-45900000D03*
%TD*%
D22*
%TO.C,J3*%
X56850000Y-31825000D03*
X56850000Y-30575000D03*
D23*
X53500000Y-33675000D03*
X53500000Y-28725000D03*
%TD*%
D18*
%TO.C,H2*%
X74000000Y-28000000D03*
%TD*%
D26*
%TO.C,L1*%
X63000000Y-40600000D03*
X57000000Y-40600000D03*
%TD*%
D27*
%TO.C,R4*%
X54212500Y-52700000D03*
X52387500Y-52700000D03*
%TD*%
D28*
%TO.C,C4*%
X65700000Y-49450000D03*
X65700000Y-51350000D03*
%TD*%
D29*
%TO.C,TP3*%
X62600000Y-33000000D03*
X60600000Y-33000000D03*
%TD*%
D18*
%TO.C,H3*%
X38000000Y-52000000D03*
%TD*%
D30*
%TO.C,R2*%
X52387500Y-50100000D03*
X54212500Y-50100000D03*
%TD*%
D31*
%TO.C,D2*%
X50300000Y-45000000D03*
X53100000Y-45000000D03*
%TD*%
D29*
%TO.C,TP2*%
X66200000Y-35000000D03*
X66200000Y-33000000D03*
%TD*%
%LPD*%
M02*
