%TF.GenerationSoftware,KiCad,Pcbnew,9.0.4*%
%TF.CreationDate,2026-02-06T21:39:12-06:00*%
%TF.ProjectId,Onboarding,4f6e626f-6172-4646-996e-672e6b696361,rev?*%
%TF.SameCoordinates,Original*%
%TF.FileFunction,Copper,L1,Top*%
%TF.FilePolarity,Positive*%
%FSLAX46Y46*%
G04 Gerber Fmt 4.6, Leading zero omitted, Abs format (unit mm)*
G04 Created by KiCad (PCBNEW 9.0.4) date 2026-02-06 21:39:12*
%MOMM*%
%LPD*%
G01*
G04 APERTURE LIST*
G04 Aperture macros list*
%AMRoundRect*
0 Rectangle with rounded corners*
0 $1 Rounding radius*
0 $2 $3 $4 $5 $6 $7 $8 $9 X,Y pos of 4 corners*
0 Add a 4 corners polygon primitive as box body*
4,1,4,$2,$3,$4,$5,$6,$7,$8,$9,$2,$3,0*
0 Add four circle primitives for the rounded corners*
1,1,$1+$1,$2,$3*
1,1,$1+$1,$4,$5*
1,1,$1+$1,$6,$7*
1,1,$1+$1,$8,$9*
0 Add four rect primitives between the rounded corners*
20,1,$1+$1,$2,$3,$4,$5,0*
20,1,$1+$1,$4,$5,$6,$7,0*
20,1,$1+$1,$6,$7,$8,$9,0*
20,1,$1+$1,$8,$9,$2,$3,0*%
G04 Aperture macros list end*
%TA.AperFunction,SMDPad,CuDef*%
%ADD10RoundRect,0.237500X-0.250000X-0.237500X0.250000X-0.237500X0.250000X0.237500X-0.250000X0.237500X0*%
%TD*%
%TA.AperFunction,ComponentPad*%
%ADD11RoundRect,0.250000X0.550000X-0.550000X0.550000X0.550000X-0.550000X0.550000X-0.550000X-0.550000X0*%
%TD*%
%TA.AperFunction,ComponentPad*%
%ADD12C,1.600000*%
%TD*%
%TA.AperFunction,SMDPad,CuDef*%
%ADD13RoundRect,0.237500X0.300000X0.237500X-0.300000X0.237500X-0.300000X-0.237500X0.300000X-0.237500X0*%
%TD*%
%TA.AperFunction,ComponentPad*%
%ADD14C,1.400000*%
%TD*%
%TA.AperFunction,SMDPad,CuDef*%
%ADD15RoundRect,0.150000X0.700000X-0.150000X0.700000X0.150000X-0.700000X0.150000X-0.700000X-0.150000X0*%
%TD*%
%TA.AperFunction,SMDPad,CuDef*%
%ADD16RoundRect,0.250000X1.150000X-0.250000X1.150000X0.250000X-1.150000X0.250000X-1.150000X-0.250000X0*%
%TD*%
%TA.AperFunction,SMDPad,CuDef*%
%ADD17RoundRect,0.250000X-0.450000X0.350000X-0.450000X-0.350000X0.450000X-0.350000X0.450000X0.350000X0*%
%TD*%
%TA.AperFunction,SMDPad,CuDef*%
%ADD18RoundRect,0.150000X0.825000X0.150000X-0.825000X0.150000X-0.825000X-0.150000X0.825000X-0.150000X0*%
%TD*%
%TA.AperFunction,SMDPad,CuDef*%
%ADD19R,1.200000X0.750000*%
%TD*%
%TA.AperFunction,SMDPad,CuDef*%
%ADD20R,1.520000X10.160000*%
%TD*%
%TA.AperFunction,SMDPad,CuDef*%
%ADD21RoundRect,0.250000X-0.250000X-0.475000X0.250000X-0.475000X0.250000X0.475000X-0.250000X0.475000X0*%
%TD*%
%TA.AperFunction,ComponentPad*%
%ADD22C,4.000000*%
%TD*%
%TA.AperFunction,ComponentPad*%
%ADD23RoundRect,0.760000X1.140000X-1.140000X1.140000X1.140000X-1.140000X1.140000X-1.140000X-1.140000X0*%
%TD*%
%TA.AperFunction,ComponentPad*%
%ADD24C,3.800000*%
%TD*%
%TA.AperFunction,ComponentPad*%
%ADD25RoundRect,0.760000X-1.140000X-1.140000X1.140000X-1.140000X1.140000X1.140000X-1.140000X1.140000X0*%
%TD*%
%TA.AperFunction,SMDPad,CuDef*%
%ADD26RoundRect,0.237500X0.250000X0.237500X-0.250000X0.237500X-0.250000X-0.237500X0.250000X-0.237500X0*%
%TD*%
%TA.AperFunction,Conductor*%
%ADD27C,0.200000*%
%TD*%
G04 APERTURE END LIST*
D10*
%TO.P,R2,1*%
%TO.N,Net-(U1-COMP-)*%
X171675000Y-102000000D03*
%TO.P,R2,2*%
%TO.N,Vout*%
X173500000Y-102000000D03*
%TD*%
D11*
%TO.P,C1,1*%
%TO.N,Vout*%
X170500000Y-97000000D03*
D12*
%TO.P,C1,2*%
%TO.N,GND*%
X170500000Y-92000000D03*
%TD*%
D13*
%TO.P,C3,2*%
%TO.N,GND*%
X162500000Y-106000000D03*
%TO.P,C3,1*%
%TO.N,Net-(U1-CT)*%
X164225000Y-106000000D03*
%TD*%
D10*
%TO.P,R1,2*%
%TO.N,GND*%
X164500000Y-97000000D03*
%TO.P,R1,1*%
%TO.N,Net-(U1-COMP-)*%
X162675000Y-97000000D03*
%TD*%
D14*
%TO.P,TP2,1,1*%
%TO.N,Net-(D1-A)*%
X168500000Y-101000000D03*
X168500000Y-103000000D03*
%TD*%
D15*
%TO.P,J3,1,Pin_1*%
%TO.N,/CAN-*%
X166500000Y-117650000D03*
%TO.P,J3,2,Pin_2*%
%TO.N,/CAN+*%
X166500000Y-116400000D03*
D16*
%TO.P,J3,MP*%
%TO.N,N/C*%
X163150000Y-119500000D03*
X163150000Y-114550000D03*
%TD*%
D15*
%TO.P,J4,1,Pin_1*%
%TO.N,/CAN-*%
X173500000Y-117500000D03*
%TO.P,J4,2,Pin_2*%
%TO.N,/CAN+*%
X173500000Y-116250000D03*
D16*
%TO.P,J4,MP*%
%TO.N,N/C*%
X170150000Y-119350000D03*
X170150000Y-114400000D03*
%TD*%
D17*
%TO.P,R4,1*%
%TO.N,Net-(U1-I_{PK})*%
X157500000Y-100500000D03*
%TO.P,R4,2*%
%TO.N,Net-(U1-DC)*%
X157500000Y-102500000D03*
%TD*%
D18*
%TO.P,U1,1,SC*%
%TO.N,Net-(D1-A)*%
X165475000Y-103405000D03*
%TO.P,U1,2,SE*%
%TO.N,GND*%
X165475000Y-102135000D03*
%TO.P,U1,3,CT*%
%TO.N,Net-(U1-CT)*%
X165475000Y-100865000D03*
%TO.P,U1,4,GND*%
%TO.N,GND*%
X165475000Y-99595000D03*
%TO.P,U1,5,COMP-*%
%TO.N,Net-(U1-COMP-)*%
X160525000Y-99595000D03*
%TO.P,U1,6,VCC*%
%TO.N,+12V*%
X160525000Y-100865000D03*
%TO.P,U1,7,I_{PK}*%
%TO.N,Net-(U1-I_{PK})*%
X160525000Y-102135000D03*
%TO.P,U1,8,DC*%
%TO.N,Net-(U1-DC)*%
X160525000Y-103405000D03*
%TD*%
D19*
%TO.P,D1,1,K*%
%TO.N,Vout*%
X174500000Y-105000000D03*
%TO.P,D1,2,A*%
%TO.N,Net-(D1-A)*%
X171100000Y-105000000D03*
%TD*%
D20*
%TO.P,L1,1,1*%
%TO.N,Net-(U1-I_{PK})*%
X149360000Y-111500000D03*
%TO.P,L1,2,2*%
%TO.N,Net-(D1-A)*%
X158500000Y-111500000D03*
%TD*%
D21*
%TO.P,C2,2*%
%TO.N,GND*%
X157450000Y-94500000D03*
%TO.P,C2,1*%
%TO.N,+12V*%
X155550000Y-94500000D03*
%TD*%
D22*
%TO.P,J1,2,Pin_2*%
%TO.N,+12V*%
X150500000Y-96500000D03*
D23*
%TO.P,J1,1,Pin_1*%
%TO.N,GND*%
X150500000Y-101500000D03*
%TD*%
D24*
%TO.P,J2,2,Pin_2*%
%TO.N,Vout*%
X170000000Y-110000000D03*
D25*
%TO.P,J2,1,Pin_1*%
%TO.N,GND*%
X165000000Y-110000000D03*
%TD*%
D26*
%TO.P,R3,2*%
%TO.N,+12V*%
X155587500Y-97000000D03*
%TO.P,R3,1*%
%TO.N,Net-(U1-I_{PK})*%
X157412500Y-97000000D03*
%TD*%
D14*
%TO.P,TP1,1,1*%
%TO.N,Net-(U1-I_{PK})*%
X160500000Y-97000000D03*
X160500000Y-95000000D03*
%TD*%
D27*
%TO.N,Net-(U1-COMP-)*%
X167000000Y-98500000D02*
X167587500Y-97912500D01*
X167587500Y-97912500D02*
X167451000Y-97776000D01*
X167000000Y-99000000D02*
X167000000Y-98500000D01*
%TO.N,GND*%
X166449999Y-99595000D02*
X165475000Y-99595000D01*
X166751000Y-99896001D02*
X166449999Y-99595000D01*
X166751000Y-101205968D02*
X166751000Y-99896001D01*
X165821968Y-102135000D02*
X166751000Y-101205968D01*
X165475000Y-102135000D02*
X165821968Y-102135000D01*
%TO.N,Net-(D1-A)*%
X170500000Y-105000000D02*
X168500000Y-103000000D01*
X171100000Y-105000000D02*
X170500000Y-105000000D01*
%TO.N,Net-(U1-COMP-)*%
X163451000Y-97776000D02*
X162675000Y-97000000D01*
X167451000Y-97776000D02*
X163451000Y-97776000D01*
X171675000Y-102000000D02*
X167587500Y-97912500D01*
%TO.N,/CAN-*%
X173350000Y-117650000D02*
X173500000Y-117500000D01*
X166500000Y-117650000D02*
X173350000Y-117650000D01*
%TO.N,/CAN+*%
X173350000Y-116400000D02*
X173500000Y-116250000D01*
X166500000Y-116400000D02*
X173350000Y-116400000D01*
%TO.N,Net-(D1-A)*%
X164754634Y-106776000D02*
X165475000Y-106055634D01*
X163224000Y-106776000D02*
X164754634Y-106776000D01*
X165475000Y-106055634D02*
X165475000Y-103405000D01*
X158500000Y-111500000D02*
X163224000Y-106776000D01*
%TO.N,Net-(U1-CT)*%
X164199000Y-101166001D02*
X164500001Y-100865000D01*
X164500001Y-100865000D02*
X165475000Y-100865000D01*
X164199000Y-105974000D02*
X164199000Y-101166001D01*
X164225000Y-106000000D02*
X164199000Y-105974000D01*
%TO.N,Net-(D1-A)*%
X167595000Y-103405000D02*
X165475000Y-103405000D01*
X168000000Y-103000000D02*
X167595000Y-103405000D01*
X168500000Y-103000000D02*
X168000000Y-103000000D01*
X168500000Y-101000000D02*
X168500000Y-103000000D01*
%TO.N,Net-(U1-COMP-)*%
X166994000Y-98994000D02*
X167000000Y-99000000D01*
%TO.N,+12V*%
X156587500Y-96000000D02*
X155587500Y-97000000D01*
X160915628Y-96000000D02*
X156587500Y-96000000D01*
X161501000Y-96585372D02*
X160915628Y-96000000D01*
X161501000Y-97414628D02*
X161501000Y-96585372D01*
X160914628Y-98001000D02*
X161501000Y-97414628D01*
X158940999Y-98001000D02*
X160914628Y-98001000D01*
X157813500Y-99128499D02*
X158940999Y-98001000D01*
X159550001Y-100865000D02*
X157813500Y-99128499D01*
X160525000Y-100865000D02*
X159550001Y-100865000D01*
%TO.N,Net-(U1-I_{PK})*%
X157412500Y-97000000D02*
X160500000Y-97000000D01*
%TO.N,Net-(U1-DC)*%
X158405000Y-103405000D02*
X160525000Y-103405000D01*
X157500000Y-102500000D02*
X158405000Y-103405000D01*
%TO.N,Net-(U1-I_{PK})*%
X159135000Y-102135000D02*
X160525000Y-102135000D01*
X157500000Y-100500000D02*
X159135000Y-102135000D01*
X149360000Y-108640000D02*
X149360000Y-111500000D01*
X157500000Y-100500000D02*
X149360000Y-108640000D01*
X157412500Y-97000000D02*
X157412500Y-100412500D01*
X157412500Y-100412500D02*
X157500000Y-100500000D01*
%TO.N,Net-(U1-COMP-)*%
X162675000Y-97000000D02*
X162675000Y-97445000D01*
X162675000Y-97445000D02*
X160525000Y-99595000D01*
%TD*%
%TA.AperFunction,Conductor*%
%TO.N,GND*%
G36*
X178942539Y-88020185D02*
G01*
X178988294Y-88072989D01*
X178999500Y-88124500D01*
X178999500Y-123375500D01*
X178979815Y-123442539D01*
X178927011Y-123488294D01*
X178875500Y-123499500D01*
X147124500Y-123499500D01*
X147057461Y-123479815D01*
X147011706Y-123427011D01*
X147000500Y-123375500D01*
X147000500Y-120893713D01*
X148149500Y-120893713D01*
X148149500Y-121106286D01*
X148182753Y-121316239D01*
X148248444Y-121518414D01*
X148344951Y-121707820D01*
X148469890Y-121879786D01*
X148620213Y-122030109D01*
X148792179Y-122155048D01*
X148792181Y-122155049D01*
X148792184Y-122155051D01*
X148981588Y-122251557D01*
X149183757Y-122317246D01*
X149393713Y-122350500D01*
X149393714Y-122350500D01*
X149606286Y-122350500D01*
X149606287Y-122350500D01*
X149816243Y-122317246D01*
X150018412Y-122251557D01*
X150207816Y-122155051D01*
X150229789Y-122139086D01*
X150379786Y-122030109D01*
X150379788Y-122030106D01*
X150379792Y-122030104D01*
X150530104Y-121879792D01*
X150530106Y-121879788D01*
X150530109Y-121879786D01*
X150655048Y-121707820D01*
X150655047Y-121707820D01*
X150655051Y-121707816D01*
X150751557Y-121518412D01*
X150817246Y-121316243D01*
X150850500Y-121106287D01*
X150850500Y-120893713D01*
X175149500Y-120893713D01*
X175149500Y-121106286D01*
X175182753Y-121316239D01*
X175248444Y-121518414D01*
X175344951Y-121707820D01*
X175469890Y-121879786D01*
X175620213Y-122030109D01*
X175792179Y-122155048D01*
X175792181Y-122155049D01*
X175792184Y-122155051D01*
X175981588Y-122251557D01*
X176183757Y-122317246D01*
X176393713Y-122350500D01*
X176393714Y-122350500D01*
X176606286Y-122350500D01*
X176606287Y-122350500D01*
X176816243Y-122317246D01*
X177018412Y-122251557D01*
X177207816Y-122155051D01*
X177229789Y-122139086D01*
X177379786Y-122030109D01*
X177379788Y-122030106D01*
X177379792Y-122030104D01*
X177530104Y-121879792D01*
X177530106Y-121879788D01*
X177530109Y-121879786D01*
X177655048Y-121707820D01*
X177655047Y-121707820D01*
X177655051Y-121707816D01*
X177751557Y-121518412D01*
X177817246Y-121316243D01*
X177850500Y-121106287D01*
X177850500Y-120893713D01*
X177817246Y-120683757D01*
X177751557Y-120481588D01*
X177655051Y-120292184D01*
X177655049Y-120292181D01*
X177655048Y-120292179D01*
X177530109Y-120120213D01*
X177379786Y-119969890D01*
X177207820Y-119844951D01*
X177018414Y-119748444D01*
X177018413Y-119748443D01*
X177018412Y-119748443D01*
X176816243Y-119682754D01*
X176816241Y-119682753D01*
X176816240Y-119682753D01*
X176654957Y-119657208D01*
X176606287Y-119649500D01*
X176393713Y-119649500D01*
X176345042Y-119657208D01*
X176183760Y-119682753D01*
X175981585Y-119748444D01*
X175792179Y-119844951D01*
X175620213Y-119969890D01*
X175469890Y-120120213D01*
X175344951Y-120292179D01*
X175248444Y-120481585D01*
X175182753Y-120683760D01*
X175149500Y-120893713D01*
X150850500Y-120893713D01*
X150817246Y-120683757D01*
X150751557Y-120481588D01*
X150655051Y-120292184D01*
X150655049Y-120292181D01*
X150655048Y-120292179D01*
X150530109Y-120120213D01*
X150379786Y-119969890D01*
X150207820Y-119844951D01*
X150018414Y-119748444D01*
X150018413Y-119748443D01*
X150018412Y-119748443D01*
X149816243Y-119682754D01*
X149816241Y-119682753D01*
X149816240Y-119682753D01*
X149654957Y-119657208D01*
X149606287Y-119649500D01*
X149393713Y-119649500D01*
X149345042Y-119657208D01*
X149183760Y-119682753D01*
X148981585Y-119748444D01*
X148792179Y-119844951D01*
X148620213Y-119969890D01*
X148469890Y-120120213D01*
X148344951Y-120292179D01*
X148248444Y-120481585D01*
X148182753Y-120683760D01*
X148149500Y-120893713D01*
X147000500Y-120893713D01*
X147000500Y-119199983D01*
X161249500Y-119199983D01*
X161249500Y-119800001D01*
X161249501Y-119800019D01*
X161260000Y-119902796D01*
X161260001Y-119902799D01*
X161265481Y-119919336D01*
X161315186Y-120069334D01*
X161407288Y-120218656D01*
X161531344Y-120342712D01*
X161680666Y-120434814D01*
X161847203Y-120489999D01*
X161949991Y-120500500D01*
X164350008Y-120500499D01*
X164452797Y-120489999D01*
X164619334Y-120434814D01*
X164768656Y-120342712D01*
X164892712Y-120218656D01*
X164984814Y-120069334D01*
X165039999Y-119902797D01*
X165050500Y-119800009D01*
X165050499Y-119199992D01*
X165039999Y-119097203D01*
X164984814Y-118930666D01*
X164892712Y-118781344D01*
X164768656Y-118657288D01*
X164619334Y-118565186D01*
X164452797Y-118510001D01*
X164452795Y-118510000D01*
X164350010Y-118499500D01*
X161949998Y-118499500D01*
X161949981Y-118499501D01*
X161847203Y-118510000D01*
X161847200Y-118510001D01*
X161680668Y-118565185D01*
X161680663Y-118565187D01*
X161531342Y-118657289D01*
X161407289Y-118781342D01*
X161315187Y-118930663D01*
X161315186Y-118930666D01*
X161260001Y-119097203D01*
X161260001Y-119097204D01*
X161260000Y-119097204D01*
X161249500Y-119199983D01*
X147000500Y-119199983D01*
X147000500Y-99431724D01*
X147020185Y-99364685D01*
X147072989Y-99318930D01*
X147142147Y-99308986D01*
X147205699Y-99338009D01*
X147283664Y-99405567D01*
X147414541Y-99465338D01*
X147481580Y-99485023D01*
X147481584Y-99485024D01*
X147624000Y-99505500D01*
X147624003Y-99505500D01*
X148182398Y-99505500D01*
X148249437Y-99525185D01*
X148295192Y-99577989D01*
X148305136Y-99647147D01*
X148284326Y-99700117D01*
X148259695Y-99735668D01*
X148259695Y-99735669D01*
X148165899Y-99942167D01*
X148165898Y-99942170D01*
X148110483Y-100162087D01*
X148110482Y-100162093D01*
X148100000Y-100295280D01*
X148100000Y-101250000D01*
X149172769Y-101250000D01*
X149150000Y-101393753D01*
X149150000Y-101606247D01*
X149172769Y-101750000D01*
X148100000Y-101750000D01*
X148100000Y-102704719D01*
X148110482Y-102837906D01*
X148110483Y-102837912D01*
X148165898Y-103057829D01*
X148165899Y-103057832D01*
X148259695Y-103264330D01*
X148259698Y-103264336D01*
X148388851Y-103450758D01*
X148388861Y-103450770D01*
X148549229Y-103611138D01*
X148549241Y-103611148D01*
X148735663Y-103740301D01*
X148735669Y-103740304D01*
X148942167Y-103834100D01*
X148942170Y-103834101D01*
X149162087Y-103889516D01*
X149162093Y-103889517D01*
X149295280Y-103899999D01*
X149295294Y-103900000D01*
X150250000Y-103900000D01*
X150250000Y-102827231D01*
X150393753Y-102850000D01*
X150606247Y-102850000D01*
X150750000Y-102827231D01*
X150750000Y-103900000D01*
X151704706Y-103900000D01*
X151704719Y-103899999D01*
X151837906Y-103889517D01*
X151837912Y-103889516D01*
X152057829Y-103834101D01*
X152057832Y-103834100D01*
X152264330Y-103740304D01*
X152264336Y-103740301D01*
X152450758Y-103611148D01*
X152450770Y-103611138D01*
X152611138Y-103450770D01*
X152611148Y-103450758D01*
X152740301Y-103264336D01*
X152740304Y-103264330D01*
X152834100Y-103057832D01*
X152834101Y-103057829D01*
X152889516Y-102837912D01*
X152889517Y-102837906D01*
X152899999Y-102704719D01*
X152900000Y-102704706D01*
X152900000Y-101750000D01*
X151827231Y-101750000D01*
X151850000Y-101606247D01*
X151850000Y-101393753D01*
X151827231Y-101250000D01*
X152900000Y-101250000D01*
X152900000Y-100295293D01*
X152899999Y-100295280D01*
X152889517Y-100162093D01*
X152889516Y-100162087D01*
X152834101Y-99942170D01*
X152834100Y-99942167D01*
X152740304Y-99735669D01*
X152740304Y-99735668D01*
X152715674Y-99700117D01*
X152693677Y-99633800D01*
X152711025Y-99566118D01*
X152762210Y-99518560D01*
X152817602Y-99505500D01*
X156343575Y-99505500D01*
X156410614Y-99525185D01*
X156456369Y-99577989D01*
X156466313Y-99647147D01*
X156449114Y-99694596D01*
X156365189Y-99830659D01*
X156365185Y-99830668D01*
X156346369Y-99887453D01*
X156310001Y-99997203D01*
X156310001Y-99997204D01*
X156310000Y-99997204D01*
X156299500Y-100099983D01*
X156299500Y-100799902D01*
X156279815Y-100866941D01*
X156263181Y-100887583D01*
X150811419Y-106339344D01*
X150750096Y-106372829D01*
X150680404Y-106367845D01*
X150624471Y-106325973D01*
X150607556Y-106294996D01*
X150563797Y-106177671D01*
X150563793Y-106177664D01*
X150477547Y-106062455D01*
X150477544Y-106062452D01*
X150362335Y-105976206D01*
X150362328Y-105976202D01*
X150227482Y-105925908D01*
X150227483Y-105925908D01*
X150167883Y-105919501D01*
X150167881Y-105919500D01*
X150167873Y-105919500D01*
X150167864Y-105919500D01*
X148552129Y-105919500D01*
X148552123Y-105919501D01*
X148492516Y-105925908D01*
X148357671Y-105976202D01*
X148357664Y-105976206D01*
X148242455Y-106062452D01*
X148242452Y-106062455D01*
X148156206Y-106177664D01*
X148156202Y-106177671D01*
X148105908Y-106312517D01*
X148099960Y-106367845D01*
X148099501Y-106372123D01*
X148099500Y-106372135D01*
X148099500Y-116627870D01*
X148099501Y-116627876D01*
X148105908Y-116687483D01*
X148156202Y-116822328D01*
X148156206Y-116822335D01*
X148242452Y-116937544D01*
X148242455Y-116937547D01*
X148357664Y-117023793D01*
X148357671Y-117023797D01*
X148492517Y-117074091D01*
X148492516Y-117074091D01*
X148499444Y-117074835D01*
X148552127Y-117080500D01*
X150167872Y-117080499D01*
X150227483Y-117074091D01*
X150362331Y-117023796D01*
X150477546Y-116937546D01*
X150563796Y-116822331D01*
X150614091Y-116687483D01*
X150620500Y-116627873D01*
X150620499Y-108280095D01*
X150640184Y-108213057D01*
X150656813Y-108192420D01*
X153135888Y-105713345D01*
X161462500Y-105713345D01*
X161462500Y-105750000D01*
X162250000Y-105750000D01*
X162250000Y-105024999D01*
X162150860Y-105025000D01*
X162150844Y-105025001D01*
X162049847Y-105035319D01*
X161886199Y-105089546D01*
X161886188Y-105089551D01*
X161739465Y-105180052D01*
X161739461Y-105180055D01*
X161617555Y-105301961D01*
X161617552Y-105301965D01*
X161527051Y-105448688D01*
X161527046Y-105448699D01*
X161472819Y-105612347D01*
X161462500Y-105713345D01*
X153135888Y-105713345D01*
X156087821Y-102761412D01*
X156149142Y-102727929D01*
X156218834Y-102732913D01*
X156274767Y-102774785D01*
X156299184Y-102840249D01*
X156299500Y-102849093D01*
X156299500Y-102900000D01*
X156299501Y-102900019D01*
X156310000Y-103002796D01*
X156310001Y-103002799D01*
X156342598Y-103101168D01*
X156365186Y-103169334D01*
X156457288Y-103318656D01*
X156581344Y-103442712D01*
X156730666Y-103534814D01*
X156897203Y-103589999D01*
X156999991Y-103600500D01*
X157699902Y-103600499D01*
X157729348Y-103609145D01*
X157759329Y-103615667D01*
X157764342Y-103619419D01*
X157766941Y-103620183D01*
X157787583Y-103636818D01*
X157920139Y-103769374D01*
X157920149Y-103769385D01*
X157924479Y-103773715D01*
X157924480Y-103773716D01*
X158036284Y-103885520D01*
X158061365Y-103900000D01*
X158123095Y-103935639D01*
X158123097Y-103935641D01*
X158173213Y-103964576D01*
X158173215Y-103964577D01*
X158325942Y-104005500D01*
X158325943Y-104005500D01*
X159179192Y-104005500D01*
X159246231Y-104025185D01*
X159266874Y-104041820D01*
X159298129Y-104073076D01*
X159298133Y-104073079D01*
X159298135Y-104073081D01*
X159439602Y-104156744D01*
X159454203Y-104160986D01*
X159597426Y-104202597D01*
X159597429Y-104202597D01*
X159597431Y-104202598D01*
X159634306Y-104205500D01*
X159634314Y-104205500D01*
X161415686Y-104205500D01*
X161415694Y-104205500D01*
X161452569Y-104202598D01*
X161452571Y-104202597D01*
X161452573Y-104202597D01*
X161526207Y-104181204D01*
X161610398Y-104156744D01*
X161751865Y-104073081D01*
X161868081Y-103956865D01*
X161951744Y-103815398D01*
X161997598Y-103657569D01*
X162000500Y-103620694D01*
X162000500Y-103189306D01*
X161997598Y-103152431D01*
X161951744Y-102994602D01*
X161868081Y-102853135D01*
X161868078Y-102853132D01*
X161863298Y-102846969D01*
X161865750Y-102845066D01*
X161839155Y-102796421D01*
X161844104Y-102726726D01*
X161864940Y-102694304D01*
X161863298Y-102693031D01*
X161868075Y-102686870D01*
X161868081Y-102686865D01*
X161951744Y-102545398D01*
X161997598Y-102387569D01*
X162000500Y-102350694D01*
X162000500Y-101919306D01*
X161997598Y-101882431D01*
X161978334Y-101816126D01*
X161951745Y-101724606D01*
X161951744Y-101724603D01*
X161951744Y-101724602D01*
X161868081Y-101583135D01*
X161868078Y-101583132D01*
X161863298Y-101576969D01*
X161865750Y-101575066D01*
X161839155Y-101526421D01*
X161844104Y-101456726D01*
X161864940Y-101424304D01*
X161863298Y-101423031D01*
X161868075Y-101416870D01*
X161868081Y-101416865D01*
X161951744Y-101275398D01*
X161985505Y-101159191D01*
X161997597Y-101117573D01*
X161997598Y-101117567D01*
X162000500Y-101080694D01*
X162000500Y-100649306D01*
X161997598Y-100612431D01*
X161976311Y-100539163D01*
X161951745Y-100454606D01*
X161951744Y-100454603D01*
X161951744Y-100454602D01*
X161868081Y-100313135D01*
X161868078Y-100313132D01*
X161863298Y-100306969D01*
X161865750Y-100305066D01*
X161839155Y-100256421D01*
X161844104Y-100186726D01*
X161864940Y-100154304D01*
X161863298Y-100153031D01*
X161868075Y-100146870D01*
X161868081Y-100146865D01*
X161951744Y-100005398D01*
X161997598Y-99847569D01*
X162000500Y-99810694D01*
X162000500Y-99379306D01*
X161997598Y-99342431D01*
X161996314Y-99338012D01*
X161951745Y-99184606D01*
X161951744Y-99184602D01*
X161938602Y-99162379D01*
X161921421Y-99094655D01*
X161943581Y-99028393D01*
X161957648Y-99011585D01*
X162809818Y-98159416D01*
X162871141Y-98125931D01*
X162940833Y-98130915D01*
X162985180Y-98159416D01*
X163082284Y-98256520D01*
X163082286Y-98256521D01*
X163082290Y-98256524D01*
X163219209Y-98335573D01*
X163219216Y-98335577D01*
X163371943Y-98376501D01*
X163371945Y-98376501D01*
X163537654Y-98376501D01*
X163537670Y-98376500D01*
X166275499Y-98376500D01*
X166284184Y-98379050D01*
X166293145Y-98377762D01*
X166317186Y-98388740D01*
X166342538Y-98396185D01*
X166348464Y-98403024D01*
X166356701Y-98406786D01*
X166370991Y-98429021D01*
X166388293Y-98448989D01*
X166390580Y-98459501D01*
X166394476Y-98465564D01*
X166399498Y-98500497D01*
X166399499Y-98500499D01*
X166399499Y-98579057D01*
X166399499Y-98579059D01*
X166399500Y-98589053D01*
X166399500Y-98671000D01*
X166379815Y-98738039D01*
X166327011Y-98783794D01*
X166275500Y-98795000D01*
X165028551Y-98795000D01*
X165564094Y-99330543D01*
X165597579Y-99391866D01*
X165592595Y-99461558D01*
X165564094Y-99505905D01*
X165385905Y-99684095D01*
X165324582Y-99717580D01*
X165254891Y-99712596D01*
X165210543Y-99684095D01*
X164377462Y-98851014D01*
X164248447Y-98927314D01*
X164248438Y-98927321D01*
X164132321Y-99043438D01*
X164132314Y-99043447D01*
X164048717Y-99184803D01*
X164048716Y-99184806D01*
X164002900Y-99342504D01*
X164002899Y-99342510D01*
X164000000Y-99379350D01*
X164000000Y-99810649D01*
X164002899Y-99847489D01*
X164002900Y-99847495D01*
X164048716Y-100005193D01*
X164048717Y-100005196D01*
X164132314Y-100146552D01*
X164137100Y-100152722D01*
X164134640Y-100154629D01*
X164161210Y-100203288D01*
X164156226Y-100272980D01*
X164146376Y-100293439D01*
X164138519Y-100306534D01*
X164131919Y-100313135D01*
X164048256Y-100454602D01*
X164046911Y-100459227D01*
X164040334Y-100470192D01*
X164033866Y-100476154D01*
X164021683Y-100494080D01*
X163830285Y-100685480D01*
X163718481Y-100797283D01*
X163718475Y-100797291D01*
X163677240Y-100868714D01*
X163677240Y-100868716D01*
X163639423Y-100934215D01*
X163639423Y-100934216D01*
X163598499Y-101086944D01*
X163598499Y-101086946D01*
X163598499Y-101255047D01*
X163598500Y-101255060D01*
X163598500Y-105027584D01*
X163596653Y-105033870D01*
X163597845Y-105040316D01*
X163586930Y-105066986D01*
X163578815Y-105094623D01*
X163573248Y-105100416D01*
X163571381Y-105104980D01*
X163554513Y-105119915D01*
X163545651Y-105129139D01*
X163542660Y-105131234D01*
X163464150Y-105179660D01*
X163442171Y-105201638D01*
X163433297Y-105207856D01*
X163410044Y-105215705D01*
X163388501Y-105227468D01*
X163377523Y-105226682D01*
X163367097Y-105230202D01*
X163343292Y-105224233D01*
X163318809Y-105222482D01*
X163307617Y-105215289D01*
X163299325Y-105213210D01*
X163291627Y-105205012D01*
X163274465Y-105193982D01*
X163260538Y-105180055D01*
X163260534Y-105180052D01*
X163113811Y-105089551D01*
X163113800Y-105089546D01*
X162950152Y-105035319D01*
X162849154Y-105025000D01*
X162750000Y-105025000D01*
X162750000Y-105876000D01*
X162730315Y-105943039D01*
X162677511Y-105988794D01*
X162626000Y-106000000D01*
X162500000Y-106000000D01*
X162500000Y-106126000D01*
X162480315Y-106193039D01*
X162427511Y-106238794D01*
X162376000Y-106250000D01*
X161462501Y-106250000D01*
X161462501Y-106286654D01*
X161472819Y-106387652D01*
X161527046Y-106551300D01*
X161527051Y-106551311D01*
X161617552Y-106698034D01*
X161617555Y-106698038D01*
X161739461Y-106819944D01*
X161739465Y-106819947D01*
X161886188Y-106910448D01*
X161886199Y-106910453D01*
X161961345Y-106935354D01*
X162018790Y-106975126D01*
X162045613Y-107039642D01*
X162033298Y-107108418D01*
X162010022Y-107140741D01*
X159972180Y-109178583D01*
X159910857Y-109212068D01*
X159841165Y-109207084D01*
X159785232Y-109165212D01*
X159760815Y-109099748D01*
X159760499Y-109090902D01*
X159760499Y-106372129D01*
X159760498Y-106372123D01*
X159760497Y-106372116D01*
X159754091Y-106312517D01*
X159744729Y-106287417D01*
X159703797Y-106177671D01*
X159703793Y-106177664D01*
X159617547Y-106062455D01*
X159617544Y-106062452D01*
X159502335Y-105976206D01*
X159502328Y-105976202D01*
X159367482Y-105925908D01*
X159367483Y-105925908D01*
X159307883Y-105919501D01*
X159307881Y-105919500D01*
X159307873Y-105919500D01*
X159307864Y-105919500D01*
X157692129Y-105919500D01*
X157692123Y-105919501D01*
X157632516Y-105925908D01*
X157497671Y-105976202D01*
X157497664Y-105976206D01*
X157382455Y-106062452D01*
X157382452Y-106062455D01*
X157296206Y-106177664D01*
X157296202Y-106177671D01*
X157245908Y-106312517D01*
X157239960Y-106367845D01*
X157239501Y-106372123D01*
X157239500Y-106372135D01*
X157239500Y-116627870D01*
X157239501Y-116627876D01*
X157245908Y-116687483D01*
X157296202Y-116822328D01*
X157296206Y-116822335D01*
X157382452Y-116937544D01*
X157382455Y-116937547D01*
X157497664Y-117023793D01*
X157497671Y-117023797D01*
X157632517Y-117074091D01*
X157632516Y-117074091D01*
X157639444Y-117074835D01*
X157692127Y-117080500D01*
X159307872Y-117080499D01*
X159367483Y-117074091D01*
X159502331Y-117023796D01*
X159617546Y-116937546D01*
X159703796Y-116822331D01*
X159754091Y-116687483D01*
X159760500Y-116627873D01*
X159760500Y-116184298D01*
X165149500Y-116184298D01*
X165149500Y-116615701D01*
X165152401Y-116652567D01*
X165152402Y-116652573D01*
X165198254Y-116810393D01*
X165198255Y-116810396D01*
X165198256Y-116810398D01*
X165236461Y-116875000D01*
X165285890Y-116958580D01*
X165283919Y-116959745D01*
X165305232Y-117014058D01*
X165291540Y-117082573D01*
X165285864Y-117091404D01*
X165285890Y-117091420D01*
X165198255Y-117239603D01*
X165198254Y-117239606D01*
X165152402Y-117397426D01*
X165152401Y-117397432D01*
X165149500Y-117434298D01*
X165149500Y-117865701D01*
X165152401Y-117902567D01*
X165152402Y-117902573D01*
X165198254Y-118060393D01*
X165198255Y-118060396D01*
X165281917Y-118201862D01*
X165281923Y-118201870D01*
X165398129Y-118318076D01*
X165398133Y-118318079D01*
X165398135Y-118318081D01*
X165539602Y-118401744D01*
X165581224Y-118413836D01*
X165697426Y-118447597D01*
X165697429Y-118447597D01*
X165697431Y-118447598D01*
X165734306Y-118450500D01*
X165734314Y-118450500D01*
X167265686Y-118450500D01*
X167265694Y-118450500D01*
X167302569Y-118447598D01*
X167302571Y-118447597D01*
X167302573Y-118447597D01*
X167369712Y-118428091D01*
X167460398Y-118401744D01*
X167601865Y-118318081D01*
X167633126Y-118286820D01*
X167694448Y-118253334D01*
X167720808Y-118250500D01*
X168510426Y-118250500D01*
X168577465Y-118270185D01*
X168623220Y-118322989D01*
X168633164Y-118392147D01*
X168604139Y-118455703D01*
X168575522Y-118480039D01*
X168531344Y-118507287D01*
X168407289Y-118631342D01*
X168315187Y-118780663D01*
X168315186Y-118780666D01*
X168260001Y-118947203D01*
X168260001Y-118947204D01*
X168260000Y-118947204D01*
X168249500Y-119049983D01*
X168249500Y-119650001D01*
X168249501Y-119650019D01*
X168260000Y-119752796D01*
X168260001Y-119752799D01*
X168309706Y-119902796D01*
X168315186Y-119919334D01*
X168407288Y-120068656D01*
X168531344Y-120192712D01*
X168680666Y-120284814D01*
X168847203Y-120339999D01*
X168949991Y-120350500D01*
X171350008Y-120350499D01*
X171452797Y-120339999D01*
X171619334Y-120284814D01*
X171768656Y-120192712D01*
X171892712Y-120068656D01*
X171984814Y-119919334D01*
X172039999Y-119752797D01*
X172050500Y-119650009D01*
X172050499Y-119049992D01*
X172039999Y-118947203D01*
X171984814Y-118780666D01*
X171892712Y-118631344D01*
X171768656Y-118507288D01*
X171768655Y-118507287D01*
X171724478Y-118480039D01*
X171677753Y-118428091D01*
X171666530Y-118359129D01*
X171694373Y-118295047D01*
X171752442Y-118256190D01*
X171789574Y-118250500D01*
X172517672Y-118250500D01*
X172552267Y-118255424D01*
X172697426Y-118297597D01*
X172697429Y-118297597D01*
X172697431Y-118297598D01*
X172734306Y-118300500D01*
X172734314Y-118300500D01*
X174265686Y-118300500D01*
X174265694Y-118300500D01*
X174302569Y-118297598D01*
X174302571Y-118297597D01*
X174302573Y-118297597D01*
X174396924Y-118270185D01*
X174460398Y-118251744D01*
X174601865Y-118168081D01*
X174718081Y-118051865D01*
X174801744Y-117910398D01*
X174847598Y-117752569D01*
X174850500Y-117715694D01*
X174850500Y-117284306D01*
X174847598Y-117247431D01*
X174845323Y-117239602D01*
X174802272Y-117091420D01*
X174801744Y-117089602D01*
X174718081Y-116948135D01*
X174714110Y-116941420D01*
X174716083Y-116940252D01*
X174694769Y-116885965D01*
X174708448Y-116817447D01*
X174714136Y-116808595D01*
X174714110Y-116808580D01*
X174728026Y-116785048D01*
X174801744Y-116660398D01*
X174847598Y-116502569D01*
X174850500Y-116465694D01*
X174850500Y-116034306D01*
X174847598Y-115997431D01*
X174845323Y-115989602D01*
X174801745Y-115839606D01*
X174801744Y-115839603D01*
X174801744Y-115839602D01*
X174718081Y-115698135D01*
X174718079Y-115698133D01*
X174718076Y-115698129D01*
X174601870Y-115581923D01*
X174601862Y-115581917D01*
X174460396Y-115498255D01*
X174460393Y-115498254D01*
X174302573Y-115452402D01*
X174302567Y-115452401D01*
X174265701Y-115449500D01*
X174265694Y-115449500D01*
X172734306Y-115449500D01*
X172734298Y-115449500D01*
X172697432Y-115452401D01*
X172697426Y-115452402D01*
X172539606Y-115498254D01*
X172539603Y-115498255D01*
X172398137Y-115581917D01*
X172398129Y-115581923D01*
X172281923Y-115698129D01*
X172281918Y-115698135D01*
X172268037Y-115721607D01*
X172257975Y-115738621D01*
X172206908Y-115786304D01*
X172151244Y-115799500D01*
X167720808Y-115799500D01*
X167653769Y-115779815D01*
X167633126Y-115763180D01*
X167601870Y-115731923D01*
X167601862Y-115731917D01*
X167460396Y-115648255D01*
X167460393Y-115648254D01*
X167302573Y-115602402D01*
X167302567Y-115602401D01*
X167265701Y-115599500D01*
X167265694Y-115599500D01*
X165734306Y-115599500D01*
X165734298Y-115599500D01*
X165697432Y-115602401D01*
X165697426Y-115602402D01*
X165539606Y-115648254D01*
X165539603Y-115648255D01*
X165398137Y-115731917D01*
X165398129Y-115731923D01*
X165281923Y-115848129D01*
X165281917Y-115848137D01*
X165198255Y-115989603D01*
X165198254Y-115989606D01*
X165152402Y-116147426D01*
X165152401Y-116147432D01*
X165149500Y-116184298D01*
X159760500Y-116184298D01*
X159760499Y-114249983D01*
X161249500Y-114249983D01*
X161249500Y-114850001D01*
X161249501Y-114850019D01*
X161260000Y-114952796D01*
X161260001Y-114952799D01*
X161265481Y-114969336D01*
X161315186Y-115119334D01*
X161407288Y-115268656D01*
X161531344Y-115392712D01*
X161680666Y-115484814D01*
X161847203Y-115539999D01*
X161949991Y-115550500D01*
X164350008Y-115550499D01*
X164452797Y-115539999D01*
X164619334Y-115484814D01*
X164768656Y-115392712D01*
X164892712Y-115268656D01*
X164984814Y-115119334D01*
X165039999Y-114952797D01*
X165050500Y-114850009D01*
X165050499Y-114249992D01*
X165050176Y-114246834D01*
X165039999Y-114147203D01*
X165039997Y-114147198D01*
X165036234Y-114135840D01*
X165036233Y-114135838D01*
X165024352Y-114099983D01*
X168249500Y-114099983D01*
X168249500Y-114700001D01*
X168249501Y-114700019D01*
X168260000Y-114802796D01*
X168260001Y-114802799D01*
X168309706Y-114952796D01*
X168315186Y-114969334D01*
X168407288Y-115118656D01*
X168531344Y-115242712D01*
X168680666Y-115334814D01*
X168847203Y-115389999D01*
X168949991Y-115400500D01*
X171350008Y-115400499D01*
X171452797Y-115389999D01*
X171619334Y-115334814D01*
X171768656Y-115242712D01*
X171892712Y-115118656D01*
X171984814Y-114969334D01*
X172039999Y-114802797D01*
X172050500Y-114700009D01*
X172050499Y-114099992D01*
X172039999Y-113997203D01*
X171984814Y-113830666D01*
X171892712Y-113681344D01*
X171768656Y-113557288D01*
X171619334Y-113465186D01*
X171452797Y-113410001D01*
X171452795Y-113410000D01*
X171350010Y-113399500D01*
X168949998Y-113399500D01*
X168949981Y-113399501D01*
X168847203Y-113410000D01*
X168847200Y-113410001D01*
X168680668Y-113465185D01*
X168680663Y-113465187D01*
X168531342Y-113557289D01*
X168407289Y-113681342D01*
X168315187Y-113830663D01*
X168315186Y-113830666D01*
X168260001Y-113997203D01*
X168260001Y-113997204D01*
X168260000Y-113997204D01*
X168249500Y-114099983D01*
X165024352Y-114099983D01*
X164990294Y-113997204D01*
X164984814Y-113980666D01*
X164892712Y-113831344D01*
X164768656Y-113707288D01*
X164619334Y-113615186D01*
X164452797Y-113560001D01*
X164452795Y-113560000D01*
X164350010Y-113549500D01*
X161949998Y-113549500D01*
X161949981Y-113549501D01*
X161847203Y-113560000D01*
X161847200Y-113560001D01*
X161680668Y-113615185D01*
X161680663Y-113615187D01*
X161531342Y-113707289D01*
X161407289Y-113831342D01*
X161315187Y-113980663D01*
X161315186Y-113980666D01*
X161260001Y-114147203D01*
X161260001Y-114147204D01*
X161260000Y-114147204D01*
X161249500Y-114249983D01*
X159760499Y-114249983D01*
X159760499Y-113831344D01*
X159760499Y-111140097D01*
X159780184Y-111073058D01*
X159796818Y-111052416D01*
X160738277Y-110110957D01*
X161571042Y-109278192D01*
X162435386Y-108413847D01*
X162496706Y-108380365D01*
X162566398Y-108385349D01*
X162622331Y-108427221D01*
X162646748Y-108492685D01*
X162643306Y-108531828D01*
X162610482Y-108662094D01*
X162600000Y-108795280D01*
X162600000Y-109750000D01*
X163672769Y-109750000D01*
X163650000Y-109893753D01*
X163650000Y-110106247D01*
X163672769Y-110250000D01*
X162600000Y-110250000D01*
X162600000Y-111204719D01*
X162610482Y-111337906D01*
X162610483Y-111337912D01*
X162665898Y-111557829D01*
X162665899Y-111557832D01*
X162759695Y-111764330D01*
X162759698Y-111764336D01*
X162888851Y-111950758D01*
X162888861Y-111950770D01*
X163049229Y-112111138D01*
X163049241Y-112111148D01*
X163235663Y-112240301D01*
X163235669Y-112240304D01*
X163442167Y-112334100D01*
X163442170Y-112334101D01*
X163662087Y-112389516D01*
X163662093Y-112389517D01*
X163795280Y-112399999D01*
X163795294Y-112400000D01*
X164750000Y-112400000D01*
X164750000Y-111327231D01*
X164893753Y-111350000D01*
X165106247Y-111350000D01*
X165250000Y-111327231D01*
X165250000Y-112400000D01*
X166204706Y-112400000D01*
X166204719Y-112399999D01*
X166337906Y-112389517D01*
X166337912Y-112389516D01*
X166557829Y-112334101D01*
X166557832Y-112334100D01*
X166764330Y-112240304D01*
X166764331Y-112240304D01*
X166799883Y-112215674D01*
X166866200Y-112193677D01*
X166933882Y-112211025D01*
X166981440Y-112262210D01*
X166994500Y-112317602D01*
X166994500Y-112376000D01*
X166994501Y-112376009D01*
X167006052Y-112483450D01*
X167006054Y-112483462D01*
X167017260Y-112534972D01*
X167051383Y-112637497D01*
X167051386Y-112637503D01*
X167129171Y-112758537D01*
X167129179Y-112758548D01*
X167174923Y-112811340D01*
X167174926Y-112811343D01*
X167174930Y-112811347D01*
X167283664Y-112905567D01*
X167283667Y-112905568D01*
X167283668Y-112905569D01*
X167377925Y-112948616D01*
X167414541Y-112965338D01*
X167481580Y-112985023D01*
X167481584Y-112985024D01*
X167624000Y-113005500D01*
X167624003Y-113005500D01*
X169148194Y-113005500D01*
X169278200Y-112988496D01*
X169339834Y-112972093D01*
X169461081Y-112922234D01*
X169574482Y-112833680D01*
X169622870Y-112783278D01*
X169622876Y-112783271D01*
X169706733Y-112666354D01*
X169754253Y-112530547D01*
X169756634Y-112518416D01*
X169760128Y-112500617D01*
X169774838Y-112472319D01*
X169788093Y-112443297D01*
X169790846Y-112441527D01*
X169792356Y-112438624D01*
X169820038Y-112422767D01*
X169846871Y-112405523D01*
X169851239Y-112404894D01*
X169852983Y-112403896D01*
X169881806Y-112400500D01*
X170117206Y-112400500D01*
X170184245Y-112420185D01*
X170230000Y-112472989D01*
X170237396Y-112495209D01*
X170237410Y-112495206D01*
X170237521Y-112495586D01*
X170238373Y-112498144D01*
X170238659Y-112499461D01*
X170279192Y-112637501D01*
X170279195Y-112637507D01*
X170356977Y-112758537D01*
X170356985Y-112758548D01*
X170402729Y-112811340D01*
X170402732Y-112811343D01*
X170402736Y-112811347D01*
X170511470Y-112905567D01*
X170511473Y-112905568D01*
X170511474Y-112905569D01*
X170605731Y-112948616D01*
X170642347Y-112965338D01*
X170709386Y-112985023D01*
X170709390Y-112985024D01*
X170851806Y-113005500D01*
X170851809Y-113005500D01*
X175375990Y-113005500D01*
X175376000Y-113005500D01*
X175483456Y-112993947D01*
X175534967Y-112982741D01*
X175569197Y-112971347D01*
X175637497Y-112948616D01*
X175637501Y-112948613D01*
X175637504Y-112948613D01*
X175758543Y-112870825D01*
X175811347Y-112825070D01*
X175905567Y-112716336D01*
X175965338Y-112585459D01*
X175985023Y-112518420D01*
X175985024Y-112518416D01*
X176005500Y-112376000D01*
X176005500Y-105938049D01*
X176002603Y-105884009D01*
X175999769Y-105857651D01*
X175991114Y-105804239D01*
X175940832Y-105669430D01*
X175907347Y-105608107D01*
X175821124Y-105492926D01*
X175762029Y-105448688D01*
X175705944Y-105406703D01*
X175705931Y-105406695D01*
X175665071Y-105384383D01*
X175615666Y-105334977D01*
X175600499Y-105275552D01*
X175600499Y-104726053D01*
X175620184Y-104659014D01*
X175657457Y-104621739D01*
X175758543Y-104556775D01*
X175811347Y-104511020D01*
X175905567Y-104402286D01*
X175965338Y-104271409D01*
X175985023Y-104204370D01*
X175985024Y-104204366D01*
X176005500Y-104061950D01*
X176005500Y-95124000D01*
X175993947Y-95016544D01*
X175982741Y-94965033D01*
X175982637Y-94964722D01*
X175948616Y-94862502D01*
X175948613Y-94862496D01*
X175870828Y-94741462D01*
X175870825Y-94741457D01*
X175870820Y-94741451D01*
X175825076Y-94688659D01*
X175825072Y-94688656D01*
X175825070Y-94688653D01*
X175716336Y-94594433D01*
X175716333Y-94594431D01*
X175716331Y-94594430D01*
X175585465Y-94534664D01*
X175585460Y-94534662D01*
X175585459Y-94534662D01*
X175518420Y-94514977D01*
X175518422Y-94514977D01*
X175518417Y-94514976D01*
X175456347Y-94506052D01*
X175376000Y-94494500D01*
X168624000Y-94494500D01*
X168623991Y-94494500D01*
X168623990Y-94494501D01*
X168516549Y-94506052D01*
X168516537Y-94506054D01*
X168465027Y-94517260D01*
X168362502Y-94551383D01*
X168362496Y-94551386D01*
X168241462Y-94629171D01*
X168241451Y-94629179D01*
X168188659Y-94674923D01*
X168094433Y-94783664D01*
X168094430Y-94783668D01*
X168034664Y-94914534D01*
X168014976Y-94981582D01*
X168007283Y-95035093D01*
X167994502Y-95123990D01*
X167994500Y-95124001D01*
X167994500Y-97181617D01*
X167992789Y-97187440D01*
X167993939Y-97193402D01*
X167983058Y-97220580D01*
X167974815Y-97248656D01*
X167970229Y-97252629D01*
X167967972Y-97258268D01*
X167944121Y-97275252D01*
X167922011Y-97294411D01*
X167916004Y-97295274D01*
X167911058Y-97298797D01*
X167881819Y-97300189D01*
X167852853Y-97304355D01*
X167845779Y-97301907D01*
X167841267Y-97302122D01*
X167808501Y-97289005D01*
X167801430Y-97284923D01*
X167709392Y-97231785D01*
X167700105Y-97226423D01*
X167682786Y-97216423D01*
X167644603Y-97206192D01*
X167530057Y-97175499D01*
X167371943Y-97175499D01*
X167364347Y-97175499D01*
X167364331Y-97175500D01*
X164624000Y-97175500D01*
X164556961Y-97155815D01*
X164511206Y-97103011D01*
X164500000Y-97051500D01*
X164500000Y-97000000D01*
X164374000Y-97000000D01*
X164306961Y-96980315D01*
X164261206Y-96927511D01*
X164250000Y-96876000D01*
X164250000Y-96750000D01*
X164750000Y-96750000D01*
X165487499Y-96750000D01*
X165487499Y-96713360D01*
X165487498Y-96713345D01*
X165477180Y-96612347D01*
X165422953Y-96448699D01*
X165422948Y-96448688D01*
X165332447Y-96301965D01*
X165332444Y-96301961D01*
X165210538Y-96180055D01*
X165210534Y-96180052D01*
X165063811Y-96089551D01*
X165063800Y-96089546D01*
X164900152Y-96035319D01*
X164799154Y-96025000D01*
X164750000Y-96025000D01*
X164750000Y-96750000D01*
X164250000Y-96750000D01*
X164250000Y-96025000D01*
X164249999Y-96024999D01*
X164200861Y-96025000D01*
X164200843Y-96025001D01*
X164099847Y-96035319D01*
X163936199Y-96089546D01*
X163936188Y-96089551D01*
X163789465Y-96180052D01*
X163675534Y-96293983D01*
X163614211Y-96327467D01*
X163544519Y-96322483D01*
X163500172Y-96293982D01*
X163385851Y-96179661D01*
X163385850Y-96179660D01*
X163257537Y-96100516D01*
X163239018Y-96089093D01*
X163239013Y-96089091D01*
X163237569Y-96088612D01*
X163075253Y-96034826D01*
X163075251Y-96034825D01*
X162974178Y-96024500D01*
X162375830Y-96024500D01*
X162375812Y-96024501D01*
X162274747Y-96034825D01*
X162110984Y-96089092D01*
X162110977Y-96089096D01*
X162035459Y-96135675D01*
X162006932Y-96143480D01*
X161979216Y-96153820D01*
X161973604Y-96152599D01*
X161968066Y-96154115D01*
X161939847Y-96145258D01*
X161910942Y-96138972D01*
X161904533Y-96134174D01*
X161901403Y-96133192D01*
X161882687Y-96117822D01*
X161865379Y-96100516D01*
X161545462Y-95780599D01*
X161511977Y-95719276D01*
X161516961Y-95649584D01*
X161524734Y-95633634D01*
X161524548Y-95633540D01*
X161612545Y-95460836D01*
X161612545Y-95460835D01*
X161612547Y-95460832D01*
X161670940Y-95281118D01*
X161674902Y-95256102D01*
X161700500Y-95094486D01*
X161700500Y-94905513D01*
X161670940Y-94718881D01*
X161612545Y-94539163D01*
X161526759Y-94370800D01*
X161415690Y-94217927D01*
X161282073Y-94084310D01*
X161129199Y-93973240D01*
X161110048Y-93963482D01*
X160960836Y-93887454D01*
X160781118Y-93829059D01*
X160594486Y-93799500D01*
X160594481Y-93799500D01*
X160405519Y-93799500D01*
X160405514Y-93799500D01*
X160218881Y-93829059D01*
X160039163Y-93887454D01*
X159870800Y-93973240D01*
X159783579Y-94036610D01*
X159717927Y-94084310D01*
X159717925Y-94084312D01*
X159717924Y-94084312D01*
X159584312Y-94217924D01*
X159584312Y-94217925D01*
X159584310Y-94217927D01*
X159536610Y-94283579D01*
X159473240Y-94370800D01*
X159387454Y-94539163D01*
X159329059Y-94718881D01*
X159299500Y-94905513D01*
X159299500Y-95094486D01*
X159325098Y-95256102D01*
X159316144Y-95325395D01*
X159271148Y-95378847D01*
X159204396Y-95399487D01*
X159202625Y-95399500D01*
X158521159Y-95399500D01*
X158454120Y-95379815D01*
X158408365Y-95327011D01*
X158398421Y-95257853D01*
X158403453Y-95236496D01*
X158439505Y-95127697D01*
X158439506Y-95127690D01*
X158449999Y-95024986D01*
X158450000Y-95024973D01*
X158450000Y-94750000D01*
X157574000Y-94750000D01*
X157506961Y-94730315D01*
X157461206Y-94677511D01*
X157450000Y-94626000D01*
X157450000Y-94500000D01*
X157324000Y-94500000D01*
X157256961Y-94480315D01*
X157211206Y-94427511D01*
X157200000Y-94376000D01*
X157200000Y-94250000D01*
X157700000Y-94250000D01*
X158449999Y-94250000D01*
X158449999Y-93975028D01*
X158449998Y-93975013D01*
X158439505Y-93872302D01*
X158384358Y-93705880D01*
X158384356Y-93705875D01*
X158292315Y-93556654D01*
X158168345Y-93432684D01*
X158019124Y-93340643D01*
X158019119Y-93340641D01*
X157852697Y-93285494D01*
X157852690Y-93285493D01*
X157749986Y-93275000D01*
X157700000Y-93275000D01*
X157700000Y-94250000D01*
X157200000Y-94250000D01*
X157200000Y-93310298D01*
X157086881Y-93268897D01*
X157080814Y-93264413D01*
X157073401Y-93263035D01*
X157053107Y-93243936D01*
X157030691Y-93227370D01*
X157028011Y-93220319D01*
X157022520Y-93215151D01*
X157013696Y-93182645D01*
X157005873Y-93162057D01*
X157006850Y-93157426D01*
X157005500Y-93152451D01*
X157005500Y-93124010D01*
X157005500Y-93124000D01*
X156993947Y-93016544D01*
X156982741Y-92965033D01*
X156982637Y-92964722D01*
X156948616Y-92862502D01*
X156948613Y-92862496D01*
X156870828Y-92741462D01*
X156870825Y-92741457D01*
X156825528Y-92689181D01*
X156825076Y-92688659D01*
X156825072Y-92688656D01*
X156825070Y-92688653D01*
X156716336Y-92594433D01*
X156716333Y-92594431D01*
X156716331Y-92594430D01*
X156585465Y-92534664D01*
X156585460Y-92534662D01*
X156585459Y-92534662D01*
X156518420Y-92514977D01*
X156518422Y-92514977D01*
X156518417Y-92514976D01*
X156456347Y-92506052D01*
X156376000Y-92494500D01*
X147624000Y-92494500D01*
X147623991Y-92494500D01*
X147623990Y-92494501D01*
X147516549Y-92506052D01*
X147516537Y-92506054D01*
X147465027Y-92517260D01*
X147362502Y-92551383D01*
X147362496Y-92551386D01*
X147241462Y-92629171D01*
X147241451Y-92629179D01*
X147205702Y-92660156D01*
X147142147Y-92689181D01*
X147072988Y-92679237D01*
X147020184Y-92633482D01*
X147000500Y-92566443D01*
X147000500Y-91897682D01*
X169200000Y-91897682D01*
X169200000Y-92102317D01*
X169232009Y-92304417D01*
X169295244Y-92499031D01*
X169388141Y-92681350D01*
X169388147Y-92681359D01*
X169420523Y-92725921D01*
X169420524Y-92725922D01*
X170100000Y-92046446D01*
X170100000Y-92052661D01*
X170127259Y-92154394D01*
X170179920Y-92245606D01*
X170254394Y-92320080D01*
X170345606Y-92372741D01*
X170447339Y-92400000D01*
X170453553Y-92400000D01*
X169774076Y-93079474D01*
X169818650Y-93111859D01*
X170000968Y-93204755D01*
X170195582Y-93267990D01*
X170397683Y-93300000D01*
X170602317Y-93300000D01*
X170804417Y-93267990D01*
X170999031Y-93204755D01*
X171181349Y-93111859D01*
X171225921Y-93079474D01*
X170546447Y-92400000D01*
X170552661Y-92400000D01*
X170654394Y-92372741D01*
X170745606Y-92320080D01*
X170820080Y-92245606D01*
X170872741Y-92154394D01*
X170900000Y-92052661D01*
X170900000Y-92046448D01*
X171579474Y-92725922D01*
X171579474Y-92725921D01*
X171611859Y-92681349D01*
X171704755Y-92499031D01*
X171767990Y-92304417D01*
X171800000Y-92102317D01*
X171800000Y-91897682D01*
X171767990Y-91695582D01*
X171704755Y-91500968D01*
X171611859Y-91318650D01*
X171579474Y-91274077D01*
X171579474Y-91274076D01*
X170900000Y-91953551D01*
X170900000Y-91947339D01*
X170872741Y-91845606D01*
X170820080Y-91754394D01*
X170745606Y-91679920D01*
X170654394Y-91627259D01*
X170552661Y-91600000D01*
X170546446Y-91600000D01*
X171225922Y-90920524D01*
X171225921Y-90920523D01*
X171181359Y-90888147D01*
X171181350Y-90888141D01*
X170999031Y-90795244D01*
X170804417Y-90732009D01*
X170602317Y-90700000D01*
X170397683Y-90700000D01*
X170195582Y-90732009D01*
X170000968Y-90795244D01*
X169818644Y-90888143D01*
X169774077Y-90920523D01*
X169774077Y-90920524D01*
X170453554Y-91600000D01*
X170447339Y-91600000D01*
X170345606Y-91627259D01*
X170254394Y-91679920D01*
X170179920Y-91754394D01*
X170127259Y-91845606D01*
X170100000Y-91947339D01*
X170100000Y-91953553D01*
X169420524Y-91274077D01*
X169420523Y-91274077D01*
X169388143Y-91318644D01*
X169295244Y-91500968D01*
X169232009Y-91695582D01*
X169200000Y-91897682D01*
X147000500Y-91897682D01*
X147000500Y-90393713D01*
X148149500Y-90393713D01*
X148149500Y-90606286D01*
X148169412Y-90732009D01*
X148182754Y-90816243D01*
X148219542Y-90929465D01*
X148248444Y-91018414D01*
X148344951Y-91207820D01*
X148469890Y-91379786D01*
X148620213Y-91530109D01*
X148792179Y-91655048D01*
X148792181Y-91655049D01*
X148792184Y-91655051D01*
X148981588Y-91751557D01*
X149183757Y-91817246D01*
X149393713Y-91850500D01*
X149393714Y-91850500D01*
X149606286Y-91850500D01*
X149606287Y-91850500D01*
X149816243Y-91817246D01*
X150018412Y-91751557D01*
X150207816Y-91655051D01*
X150283588Y-91600000D01*
X150379786Y-91530109D01*
X150379788Y-91530106D01*
X150379792Y-91530104D01*
X150530104Y-91379792D01*
X150530106Y-91379788D01*
X150530109Y-91379786D01*
X150655048Y-91207820D01*
X150655047Y-91207820D01*
X150655051Y-91207816D01*
X150751557Y-91018412D01*
X150817246Y-90816243D01*
X150850500Y-90606287D01*
X150850500Y-90393713D01*
X175149500Y-90393713D01*
X175149500Y-90606286D01*
X175169412Y-90732009D01*
X175182754Y-90816243D01*
X175219542Y-90929465D01*
X175248444Y-91018414D01*
X175344951Y-91207820D01*
X175469890Y-91379786D01*
X175620213Y-91530109D01*
X175792179Y-91655048D01*
X175792181Y-91655049D01*
X175792184Y-91655051D01*
X175981588Y-91751557D01*
X176183757Y-91817246D01*
X176393713Y-91850500D01*
X176393714Y-91850500D01*
X176606286Y-91850500D01*
X176606287Y-91850500D01*
X176816243Y-91817246D01*
X177018412Y-91751557D01*
X177207816Y-91655051D01*
X177283588Y-91600000D01*
X177379786Y-91530109D01*
X177379788Y-91530106D01*
X177379792Y-91530104D01*
X177530104Y-91379792D01*
X177530106Y-91379788D01*
X177530109Y-91379786D01*
X177655048Y-91207820D01*
X177655047Y-91207820D01*
X177655051Y-91207816D01*
X177751557Y-91018412D01*
X177817246Y-90816243D01*
X177850500Y-90606287D01*
X177850500Y-90393713D01*
X177817246Y-90183757D01*
X177751557Y-89981588D01*
X177655051Y-89792184D01*
X177655049Y-89792181D01*
X177655048Y-89792179D01*
X177530109Y-89620213D01*
X177379786Y-89469890D01*
X177207820Y-89344951D01*
X177018414Y-89248444D01*
X177018413Y-89248443D01*
X177018412Y-89248443D01*
X176816243Y-89182754D01*
X176816241Y-89182753D01*
X176816240Y-89182753D01*
X176654957Y-89157208D01*
X176606287Y-89149500D01*
X176393713Y-89149500D01*
X176345042Y-89157208D01*
X176183760Y-89182753D01*
X175981585Y-89248444D01*
X175792179Y-89344951D01*
X175620213Y-89469890D01*
X175469890Y-89620213D01*
X175344951Y-89792179D01*
X175248444Y-89981585D01*
X175182753Y-90183760D01*
X175149500Y-90393713D01*
X150850500Y-90393713D01*
X150817246Y-90183757D01*
X150751557Y-89981588D01*
X150655051Y-89792184D01*
X150655049Y-89792181D01*
X150655048Y-89792179D01*
X150530109Y-89620213D01*
X150379786Y-89469890D01*
X150207820Y-89344951D01*
X150018414Y-89248444D01*
X150018413Y-89248443D01*
X150018412Y-89248443D01*
X149816243Y-89182754D01*
X149816241Y-89182753D01*
X149816240Y-89182753D01*
X149654957Y-89157208D01*
X149606287Y-89149500D01*
X149393713Y-89149500D01*
X149345042Y-89157208D01*
X149183760Y-89182753D01*
X148981585Y-89248444D01*
X148792179Y-89344951D01*
X148620213Y-89469890D01*
X148469890Y-89620213D01*
X148344951Y-89792179D01*
X148248444Y-89981585D01*
X148182753Y-90183760D01*
X148149500Y-90393713D01*
X147000500Y-90393713D01*
X147000500Y-88124500D01*
X147020185Y-88057461D01*
X147072989Y-88011706D01*
X147124500Y-88000500D01*
X178875500Y-88000500D01*
X178942539Y-88020185D01*
G37*
%TD.AperFunction*%
%TA.AperFunction,Conductor*%
G36*
X167809131Y-103989684D02*
G01*
X167844262Y-104007479D01*
X167868424Y-104025033D01*
X167870801Y-104026760D01*
X167978083Y-104081423D01*
X168039163Y-104112545D01*
X168039165Y-104112545D01*
X168039168Y-104112547D01*
X168135497Y-104143846D01*
X168218881Y-104170940D01*
X168405514Y-104200500D01*
X168405519Y-104200500D01*
X168594486Y-104200500D01*
X168716313Y-104181204D01*
X168753753Y-104175274D01*
X168823045Y-104184228D01*
X168860831Y-104210066D01*
X169963181Y-105312416D01*
X169996666Y-105373739D01*
X169999500Y-105400092D01*
X169999500Y-105422867D01*
X169999501Y-105422877D01*
X170005908Y-105482483D01*
X170056202Y-105617328D01*
X170056206Y-105617335D01*
X170142452Y-105732544D01*
X170142455Y-105732547D01*
X170257664Y-105818793D01*
X170257671Y-105818797D01*
X170392517Y-105869091D01*
X170392516Y-105869091D01*
X170399444Y-105869835D01*
X170452127Y-105875500D01*
X171747872Y-105875499D01*
X171807483Y-105869091D01*
X171840936Y-105856613D01*
X171910625Y-105851628D01*
X171971949Y-105885112D01*
X172005435Y-105946435D01*
X172008258Y-105974464D01*
X172007074Y-106062452D01*
X172002907Y-106372129D01*
X172002906Y-106372169D01*
X171982321Y-106438937D01*
X171928906Y-106483977D01*
X171878917Y-106494500D01*
X167624000Y-106494500D01*
X167623991Y-106494500D01*
X167623990Y-106494501D01*
X167516549Y-106506052D01*
X167516537Y-106506054D01*
X167465027Y-106517260D01*
X167362502Y-106551383D01*
X167362496Y-106551386D01*
X167241462Y-106629171D01*
X167241451Y-106629179D01*
X167188659Y-106674923D01*
X167094433Y-106783664D01*
X167094430Y-106783668D01*
X167034664Y-106914534D01*
X167014976Y-106981582D01*
X166994500Y-107124001D01*
X166994500Y-107682397D01*
X166974815Y-107749436D01*
X166922011Y-107795191D01*
X166852853Y-107805135D01*
X166799885Y-107784326D01*
X166764335Y-107759697D01*
X166764330Y-107759695D01*
X166557832Y-107665899D01*
X166557829Y-107665898D01*
X166337912Y-107610483D01*
X166337906Y-107610482D01*
X166204719Y-107600000D01*
X165250000Y-107600000D01*
X165250000Y-108672768D01*
X165106247Y-108650000D01*
X164893753Y-108650000D01*
X164750000Y-108672768D01*
X164750000Y-107600000D01*
X164738182Y-107588182D01*
X164704697Y-107526859D01*
X164709681Y-107457167D01*
X164751553Y-107401234D01*
X164817017Y-107376817D01*
X164825863Y-107376501D01*
X164833688Y-107376501D01*
X164833691Y-107376501D01*
X164986419Y-107335577D01*
X165036538Y-107306639D01*
X165123350Y-107256520D01*
X165235154Y-107144716D01*
X165235154Y-107144714D01*
X165245362Y-107134507D01*
X165245364Y-107134504D01*
X165833506Y-106546362D01*
X165833511Y-106546358D01*
X165843714Y-106536154D01*
X165843716Y-106536154D01*
X165955520Y-106424350D01*
X166034577Y-106287418D01*
X166075500Y-106134691D01*
X166075500Y-104329500D01*
X166095185Y-104262461D01*
X166147989Y-104216706D01*
X166199500Y-104205500D01*
X166365686Y-104205500D01*
X166365694Y-104205500D01*
X166402569Y-104202598D01*
X166402571Y-104202597D01*
X166402573Y-104202597D01*
X166476207Y-104181204D01*
X166560398Y-104156744D01*
X166701865Y-104073081D01*
X166733126Y-104041820D01*
X166794448Y-104008334D01*
X166820808Y-104005500D01*
X167508331Y-104005500D01*
X167508347Y-104005501D01*
X167515943Y-104005501D01*
X167674056Y-104005501D01*
X167674057Y-104005501D01*
X167739282Y-103988023D01*
X167809131Y-103989684D01*
G37*
%TD.AperFunction*%
%TA.AperFunction,Conductor*%
G36*
X167805703Y-98980384D02*
G01*
X167812181Y-98986416D01*
X168423135Y-99597370D01*
X168456620Y-99658693D01*
X168451636Y-99728385D01*
X168409764Y-99784318D01*
X168354852Y-99807524D01*
X168218881Y-99829059D01*
X168039163Y-99887454D01*
X167870800Y-99973240D01*
X167783579Y-100036610D01*
X167717927Y-100084310D01*
X167717925Y-100084312D01*
X167717924Y-100084312D01*
X167584312Y-100217924D01*
X167584312Y-100217925D01*
X167584310Y-100217927D01*
X167536610Y-100283579D01*
X167473240Y-100370800D01*
X167387454Y-100539163D01*
X167329059Y-100718881D01*
X167299500Y-100905513D01*
X167299500Y-101094486D01*
X167329059Y-101281118D01*
X167387454Y-101460836D01*
X167446785Y-101577278D01*
X167473240Y-101629199D01*
X167584310Y-101782073D01*
X167584312Y-101782075D01*
X167714556Y-101912319D01*
X167748041Y-101973642D01*
X167743057Y-102043334D01*
X167714556Y-102087681D01*
X167584312Y-102217924D01*
X167584312Y-102217925D01*
X167584310Y-102217927D01*
X167536610Y-102283579D01*
X167473240Y-102370800D01*
X167387454Y-102539163D01*
X167329080Y-102718819D01*
X167315129Y-102739221D01*
X167304862Y-102761703D01*
X167295753Y-102767556D01*
X167289642Y-102776494D01*
X167266876Y-102786114D01*
X167246084Y-102799477D01*
X167229673Y-102801836D01*
X167225283Y-102803692D01*
X167211149Y-102804500D01*
X166965326Y-102804500D01*
X166898287Y-102784815D01*
X166852532Y-102732011D01*
X166842588Y-102662853D01*
X166858594Y-102617379D01*
X166901282Y-102545196D01*
X166901283Y-102545193D01*
X166947099Y-102387495D01*
X166947100Y-102387489D01*
X166949999Y-102350649D01*
X166950000Y-102350634D01*
X166950000Y-101919365D01*
X166949999Y-101919350D01*
X166947100Y-101882510D01*
X166947099Y-101882504D01*
X166901283Y-101724806D01*
X166901282Y-101724803D01*
X166817685Y-101583447D01*
X166812900Y-101577278D01*
X166815366Y-101575364D01*
X166788802Y-101526776D01*
X166793749Y-101457082D01*
X166814856Y-101424232D01*
X166813301Y-101423026D01*
X166818077Y-101416868D01*
X166818081Y-101416865D01*
X166901744Y-101275398D01*
X166935505Y-101159191D01*
X166947597Y-101117573D01*
X166947598Y-101117567D01*
X166950500Y-101080694D01*
X166950500Y-100649306D01*
X166947598Y-100612431D01*
X166926311Y-100539163D01*
X166901745Y-100454606D01*
X166901744Y-100454603D01*
X166901744Y-100454602D01*
X166818081Y-100313135D01*
X166818078Y-100313132D01*
X166813298Y-100306969D01*
X166815635Y-100305155D01*
X166788798Y-100256050D01*
X166793756Y-100186356D01*
X166814554Y-100153998D01*
X166812903Y-100152717D01*
X166817686Y-100146550D01*
X166901282Y-100005196D01*
X166901283Y-100005193D01*
X166947099Y-99847495D01*
X166947100Y-99847489D01*
X166949999Y-99810649D01*
X166950000Y-99810634D01*
X166950000Y-99724500D01*
X166969685Y-99657461D01*
X167022489Y-99611706D01*
X167074000Y-99600500D01*
X167079055Y-99600500D01*
X167079057Y-99600500D01*
X167231784Y-99559577D01*
X167368716Y-99480520D01*
X167480520Y-99368716D01*
X167559577Y-99231784D01*
X167600500Y-99079057D01*
X167600500Y-99074097D01*
X167620185Y-99007058D01*
X167672989Y-98961303D01*
X167742147Y-98951359D01*
X167805703Y-98980384D01*
G37*
%TD.AperFunction*%
%TD*%
%TA.AperFunction,Conductor*%
%TO.N,+12V*%
G36*
X156443039Y-93019685D02*
G01*
X156488794Y-93072489D01*
X156500000Y-93124000D01*
X156500000Y-93364977D01*
X156480315Y-93432016D01*
X156427511Y-93477771D01*
X156358353Y-93487715D01*
X156294797Y-93458690D01*
X156288319Y-93452658D01*
X156268345Y-93432684D01*
X156119124Y-93340643D01*
X156119119Y-93340641D01*
X155952697Y-93285494D01*
X155952690Y-93285493D01*
X155849986Y-93275000D01*
X155800000Y-93275000D01*
X155800000Y-95724999D01*
X155849972Y-95724999D01*
X155849986Y-95724998D01*
X155952697Y-95714505D01*
X156119119Y-95659358D01*
X156119124Y-95659356D01*
X156268345Y-95567315D01*
X156288319Y-95547342D01*
X156349642Y-95513857D01*
X156419334Y-95518841D01*
X156475267Y-95560713D01*
X156499684Y-95626177D01*
X156500000Y-95635023D01*
X156500000Y-96083620D01*
X156480315Y-96150659D01*
X156427511Y-96196414D01*
X156358353Y-96206358D01*
X156304560Y-96183237D01*
X156304185Y-96183846D01*
X156300072Y-96181309D01*
X156299090Y-96180887D01*
X156298033Y-96180051D01*
X156151311Y-96089551D01*
X156151300Y-96089546D01*
X155987652Y-96035319D01*
X155886654Y-96025000D01*
X155837500Y-96025000D01*
X155837500Y-97974999D01*
X155886640Y-97974999D01*
X155886654Y-97974998D01*
X155987652Y-97964680D01*
X156151300Y-97910453D01*
X156151311Y-97910448D01*
X156298028Y-97819951D01*
X156299081Y-97819119D01*
X156299940Y-97818772D01*
X156304185Y-97816154D01*
X156304632Y-97816878D01*
X156363874Y-97792973D01*
X156432517Y-97806008D01*
X156483217Y-97854084D01*
X156500000Y-97916379D01*
X156500000Y-98876000D01*
X156480315Y-98943039D01*
X156427511Y-98988794D01*
X156376000Y-99000000D01*
X151613889Y-99000000D01*
X151546850Y-98980315D01*
X151501095Y-98927511D01*
X151491151Y-98858353D01*
X151520176Y-98794797D01*
X151560087Y-98764280D01*
X151711200Y-98691507D01*
X151948956Y-98542116D01*
X152082257Y-98435810D01*
X151261717Y-97615271D01*
X151379466Y-97529722D01*
X151529722Y-97379466D01*
X151615270Y-97261717D01*
X152435810Y-98082257D01*
X152542116Y-97948956D01*
X152691507Y-97711200D01*
X152813337Y-97458217D01*
X152873369Y-97286654D01*
X154600001Y-97286654D01*
X154610319Y-97387652D01*
X154664546Y-97551300D01*
X154664551Y-97551311D01*
X154755052Y-97698034D01*
X154755055Y-97698038D01*
X154876961Y-97819944D01*
X154876965Y-97819947D01*
X155023688Y-97910448D01*
X155023699Y-97910453D01*
X155187347Y-97964680D01*
X155288351Y-97974999D01*
X155337499Y-97974998D01*
X155337500Y-97974998D01*
X155337500Y-97250000D01*
X154600001Y-97250000D01*
X154600001Y-97286654D01*
X152873369Y-97286654D01*
X152906077Y-97193180D01*
X152906079Y-97193174D01*
X152911130Y-97171046D01*
X152911130Y-97171045D01*
X152968560Y-96919424D01*
X152968563Y-96919410D01*
X152991781Y-96713345D01*
X154600000Y-96713345D01*
X154600000Y-96750000D01*
X155337500Y-96750000D01*
X155337500Y-96025000D01*
X155337499Y-96024999D01*
X155288361Y-96025000D01*
X155288343Y-96025001D01*
X155187347Y-96035319D01*
X155023699Y-96089546D01*
X155023688Y-96089551D01*
X154876965Y-96180052D01*
X154876961Y-96180055D01*
X154755055Y-96301961D01*
X154755052Y-96301965D01*
X154664551Y-96448688D01*
X154664546Y-96448699D01*
X154610319Y-96612347D01*
X154600000Y-96713345D01*
X152991781Y-96713345D01*
X152993700Y-96696313D01*
X152993700Y-96696312D01*
X152999999Y-96640400D01*
X153000000Y-96640399D01*
X153000000Y-96359600D01*
X152999999Y-96359598D01*
X152968562Y-96080587D01*
X152968560Y-96080575D01*
X152906078Y-95806821D01*
X152906077Y-95806819D01*
X152813337Y-95541782D01*
X152691507Y-95288799D01*
X152542115Y-95051043D01*
X152521335Y-95024986D01*
X154550001Y-95024986D01*
X154560494Y-95127697D01*
X154615641Y-95294119D01*
X154615643Y-95294124D01*
X154707684Y-95443345D01*
X154831654Y-95567315D01*
X154980875Y-95659356D01*
X154980880Y-95659358D01*
X155147302Y-95714505D01*
X155147309Y-95714506D01*
X155250019Y-95724999D01*
X155299999Y-95724998D01*
X155300000Y-95724998D01*
X155300000Y-94750000D01*
X154550001Y-94750000D01*
X154550001Y-95024986D01*
X152521335Y-95024986D01*
X152435810Y-94917741D01*
X151615270Y-95738281D01*
X151529722Y-95620534D01*
X151379466Y-95470278D01*
X151261717Y-95384728D01*
X152035488Y-94610957D01*
X152082257Y-94564187D01*
X151948956Y-94457884D01*
X151711200Y-94308492D01*
X151458217Y-94186662D01*
X151193180Y-94093922D01*
X151193178Y-94093921D01*
X151188067Y-94092755D01*
X150919424Y-94031439D01*
X150919412Y-94031437D01*
X150640401Y-94000000D01*
X150359598Y-94000000D01*
X150080587Y-94031437D01*
X150080575Y-94031439D01*
X149806821Y-94093921D01*
X149806819Y-94093922D01*
X149541782Y-94186662D01*
X149288799Y-94308492D01*
X149051043Y-94457884D01*
X148917741Y-94564187D01*
X149738282Y-95384728D01*
X149620534Y-95470278D01*
X149470278Y-95620534D01*
X149384728Y-95738282D01*
X148564187Y-94917741D01*
X148457884Y-95051043D01*
X148308492Y-95288799D01*
X148186662Y-95541782D01*
X148093922Y-95806819D01*
X148093921Y-95806821D01*
X148031439Y-96080575D01*
X148031437Y-96080587D01*
X148000000Y-96359598D01*
X148000000Y-96640401D01*
X148031437Y-96919412D01*
X148031439Y-96919424D01*
X148093921Y-97193178D01*
X148093922Y-97193180D01*
X148186662Y-97458217D01*
X148308492Y-97711200D01*
X148457884Y-97948956D01*
X148564187Y-98082257D01*
X149384728Y-97261716D01*
X149470278Y-97379466D01*
X149620534Y-97529722D01*
X149738281Y-97615270D01*
X148917741Y-98435810D01*
X148917741Y-98435811D01*
X149051043Y-98542115D01*
X149288799Y-98691507D01*
X149439913Y-98764280D01*
X149491772Y-98811102D01*
X149510085Y-98878529D01*
X149489037Y-98945153D01*
X149435311Y-98989822D01*
X149386111Y-99000000D01*
X147624000Y-99000000D01*
X147556961Y-98980315D01*
X147511206Y-98927511D01*
X147500000Y-98876000D01*
X147500000Y-93975013D01*
X154550000Y-93975013D01*
X154550000Y-94250000D01*
X155300000Y-94250000D01*
X155300000Y-93275000D01*
X155299999Y-93274999D01*
X155250029Y-93275000D01*
X155250011Y-93275001D01*
X155147302Y-93285494D01*
X154980880Y-93340641D01*
X154980875Y-93340643D01*
X154831654Y-93432684D01*
X154707684Y-93556654D01*
X154615643Y-93705875D01*
X154615641Y-93705880D01*
X154560494Y-93872302D01*
X154560493Y-93872309D01*
X154550000Y-93975013D01*
X147500000Y-93975013D01*
X147500000Y-93124000D01*
X147519685Y-93056961D01*
X147572489Y-93011206D01*
X147624000Y-93000000D01*
X156376000Y-93000000D01*
X156443039Y-93019685D01*
G37*
%TD.AperFunction*%
%TD*%
%TA.AperFunction,Conductor*%
%TO.N,Vout*%
G36*
X167705203Y-110758093D02*
G01*
X167741041Y-110810851D01*
X167779192Y-110919881D01*
X167779198Y-110919895D01*
X167896152Y-111162752D01*
X168039568Y-111390998D01*
X168135346Y-111511099D01*
X168884728Y-110761716D01*
X168970278Y-110879466D01*
X169120534Y-111029722D01*
X169238281Y-111115270D01*
X168488899Y-111864652D01*
X168488900Y-111864653D01*
X168608993Y-111960427D01*
X168608997Y-111960429D01*
X168837247Y-112103847D01*
X169080104Y-112220801D01*
X169080118Y-112220807D01*
X169189149Y-112258959D01*
X169245925Y-112299680D01*
X169271672Y-112364633D01*
X169258216Y-112433195D01*
X169209828Y-112483597D01*
X169148194Y-112500000D01*
X167624000Y-112500000D01*
X167556961Y-112480315D01*
X167511206Y-112427511D01*
X167500000Y-112376000D01*
X167500000Y-110851806D01*
X167519685Y-110784767D01*
X167572489Y-110739012D01*
X167641647Y-110729068D01*
X167705203Y-110758093D01*
G37*
%TD.AperFunction*%
%TA.AperFunction,Conductor*%
G36*
X175443039Y-95019685D02*
G01*
X175488794Y-95072489D01*
X175500000Y-95124000D01*
X175500000Y-104061950D01*
X175480315Y-104128989D01*
X175427511Y-104174744D01*
X175358353Y-104184688D01*
X175332667Y-104178132D01*
X175207380Y-104131403D01*
X175207372Y-104131401D01*
X175147844Y-104125000D01*
X174750000Y-104125000D01*
X174750000Y-105875000D01*
X175147828Y-105875000D01*
X175147844Y-105874999D01*
X175207372Y-105868598D01*
X175207376Y-105868597D01*
X175332666Y-105821867D01*
X175402358Y-105816883D01*
X175463681Y-105850368D01*
X175497166Y-105911691D01*
X175500000Y-105938049D01*
X175500000Y-112376000D01*
X175480315Y-112443039D01*
X175427511Y-112488794D01*
X175376000Y-112500000D01*
X170851806Y-112500000D01*
X170784767Y-112480315D01*
X170739012Y-112427511D01*
X170729068Y-112358353D01*
X170758093Y-112294797D01*
X170810851Y-112258959D01*
X170919881Y-112220807D01*
X170919895Y-112220801D01*
X171162752Y-112103847D01*
X171390999Y-111960431D01*
X171511098Y-111864653D01*
X171511099Y-111864652D01*
X170761717Y-111115271D01*
X170879466Y-111029722D01*
X171029722Y-110879466D01*
X171115270Y-110761717D01*
X171864652Y-111511099D01*
X171864653Y-111511098D01*
X171960431Y-111390999D01*
X172103847Y-111162752D01*
X172220801Y-110919895D01*
X172220807Y-110919881D01*
X172309832Y-110665463D01*
X172309836Y-110665451D01*
X172369818Y-110402651D01*
X172369821Y-110402633D01*
X172399999Y-110134787D01*
X172400000Y-110134783D01*
X172400000Y-109865216D01*
X172399999Y-109865212D01*
X172369821Y-109597366D01*
X172369818Y-109597348D01*
X172309836Y-109334548D01*
X172309832Y-109334536D01*
X172220807Y-109080118D01*
X172220801Y-109080104D01*
X172103847Y-108837247D01*
X171960429Y-108608997D01*
X171960427Y-108608993D01*
X171864653Y-108488900D01*
X171864652Y-108488899D01*
X171115270Y-109238281D01*
X171029722Y-109120534D01*
X170879466Y-108970278D01*
X170761717Y-108884728D01*
X171511099Y-108135346D01*
X171390998Y-108039568D01*
X171162752Y-107896152D01*
X170919895Y-107779198D01*
X170919881Y-107779192D01*
X170665463Y-107690167D01*
X170665451Y-107690163D01*
X170402651Y-107630181D01*
X170402633Y-107630178D01*
X170134787Y-107600000D01*
X169865212Y-107600000D01*
X169597366Y-107630178D01*
X169597348Y-107630181D01*
X169334548Y-107690163D01*
X169334536Y-107690167D01*
X169080118Y-107779192D01*
X169080104Y-107779198D01*
X168837247Y-107896152D01*
X168609001Y-108039568D01*
X168488899Y-108135345D01*
X169238282Y-108884728D01*
X169120534Y-108970278D01*
X168970278Y-109120534D01*
X168884728Y-109238282D01*
X168135345Y-108488899D01*
X168039568Y-108609001D01*
X167896152Y-108837247D01*
X167779198Y-109080104D01*
X167779192Y-109080118D01*
X167741041Y-109189148D01*
X167700319Y-109245924D01*
X167635367Y-109271671D01*
X167566805Y-109258215D01*
X167516402Y-109209827D01*
X167500000Y-109148193D01*
X167500000Y-107124000D01*
X167519685Y-107056961D01*
X167572489Y-107011206D01*
X167624000Y-107000000D01*
X172499999Y-107000000D01*
X172500000Y-107000000D01*
X172521230Y-105422844D01*
X173400000Y-105422844D01*
X173406401Y-105482372D01*
X173406403Y-105482379D01*
X173456645Y-105617086D01*
X173456649Y-105617093D01*
X173542809Y-105732187D01*
X173542812Y-105732190D01*
X173657906Y-105818350D01*
X173657913Y-105818354D01*
X173792620Y-105868596D01*
X173792627Y-105868598D01*
X173852155Y-105874999D01*
X173852172Y-105875000D01*
X174250000Y-105875000D01*
X174250000Y-105250000D01*
X173400000Y-105250000D01*
X173400000Y-105422844D01*
X172521230Y-105422844D01*
X172532614Y-104577155D01*
X173400000Y-104577155D01*
X173400000Y-104750000D01*
X174250000Y-104750000D01*
X174250000Y-104125000D01*
X173852155Y-104125000D01*
X173792627Y-104131401D01*
X173792620Y-104131403D01*
X173657913Y-104181645D01*
X173657906Y-104181649D01*
X173542812Y-104267809D01*
X173542809Y-104267812D01*
X173456649Y-104382906D01*
X173456645Y-104382913D01*
X173406403Y-104517620D01*
X173406401Y-104517627D01*
X173400000Y-104577155D01*
X172532614Y-104577155D01*
X172555412Y-102883569D01*
X172575996Y-102816808D01*
X172629411Y-102771768D01*
X172698697Y-102762756D01*
X172761857Y-102792633D01*
X172767081Y-102797564D01*
X172789461Y-102819944D01*
X172789465Y-102819947D01*
X172936188Y-102910448D01*
X172936199Y-102910453D01*
X173099847Y-102964680D01*
X173200851Y-102974999D01*
X173799139Y-102974999D01*
X173799155Y-102974998D01*
X173900152Y-102964680D01*
X174058617Y-102912170D01*
X174058618Y-102912169D01*
X173323224Y-102176776D01*
X173146447Y-101999999D01*
X173853552Y-101999999D01*
X173853552Y-102000000D01*
X174416047Y-102562496D01*
X174416048Y-102562496D01*
X174422951Y-102551306D01*
X174422955Y-102551297D01*
X174477180Y-102387653D01*
X174487499Y-102286654D01*
X174487499Y-101713360D01*
X174487498Y-101713344D01*
X174477180Y-101612347D01*
X174422953Y-101448697D01*
X174416047Y-101437503D01*
X173853552Y-101999999D01*
X173146447Y-101999999D01*
X172614252Y-101467804D01*
X172596397Y-101445224D01*
X172507840Y-101301650D01*
X172385850Y-101179660D01*
X172239016Y-101089092D01*
X172235202Y-101087828D01*
X172941380Y-101087828D01*
X172941380Y-101087829D01*
X173500000Y-101646448D01*
X173500001Y-101646448D01*
X174058618Y-101087829D01*
X174058618Y-101087828D01*
X173900153Y-101035319D01*
X173799148Y-101025000D01*
X173200860Y-101025000D01*
X173200844Y-101025001D01*
X173099848Y-101035319D01*
X173099842Y-101035320D01*
X172941380Y-101087828D01*
X172235202Y-101087828D01*
X172075253Y-101034826D01*
X172075251Y-101034825D01*
X171974184Y-101024500D01*
X171974177Y-101024500D01*
X171600097Y-101024500D01*
X171533058Y-101004815D01*
X171512416Y-100988181D01*
X168536319Y-98012084D01*
X168502834Y-97950761D01*
X168500000Y-97924403D01*
X168500000Y-96400013D01*
X169200000Y-96400013D01*
X169200000Y-96750000D01*
X170184314Y-96750000D01*
X170179920Y-96754394D01*
X170127259Y-96845606D01*
X170100000Y-96947339D01*
X170100000Y-97052661D01*
X170127259Y-97154394D01*
X170179920Y-97245606D01*
X170184314Y-97250000D01*
X169200001Y-97250000D01*
X169200001Y-97599986D01*
X169210494Y-97702697D01*
X169265641Y-97869119D01*
X169265643Y-97869124D01*
X169357684Y-98018345D01*
X169481654Y-98142315D01*
X169630875Y-98234356D01*
X169630880Y-98234358D01*
X169797302Y-98289505D01*
X169797309Y-98289506D01*
X169900019Y-98299999D01*
X170249999Y-98299999D01*
X170250000Y-98299998D01*
X170250000Y-97315686D01*
X170254394Y-97320080D01*
X170345606Y-97372741D01*
X170447339Y-97400000D01*
X170552661Y-97400000D01*
X170654394Y-97372741D01*
X170745606Y-97320080D01*
X170750000Y-97315686D01*
X170750000Y-98299999D01*
X171099972Y-98299999D01*
X171099986Y-98299998D01*
X171202697Y-98289505D01*
X171369119Y-98234358D01*
X171369124Y-98234356D01*
X171518345Y-98142315D01*
X171642315Y-98018345D01*
X171734356Y-97869124D01*
X171734358Y-97869119D01*
X171789505Y-97702697D01*
X171789506Y-97702690D01*
X171799999Y-97599986D01*
X171800000Y-97599973D01*
X171800000Y-97250000D01*
X170815686Y-97250000D01*
X170820080Y-97245606D01*
X170872741Y-97154394D01*
X170900000Y-97052661D01*
X170900000Y-96947339D01*
X170872741Y-96845606D01*
X170820080Y-96754394D01*
X170815686Y-96750000D01*
X171799999Y-96750000D01*
X171799999Y-96400028D01*
X171799998Y-96400013D01*
X171789505Y-96297302D01*
X171734358Y-96130880D01*
X171734356Y-96130875D01*
X171642315Y-95981654D01*
X171518345Y-95857684D01*
X171369124Y-95765643D01*
X171369119Y-95765641D01*
X171202697Y-95710494D01*
X171202690Y-95710493D01*
X171099986Y-95700000D01*
X170750000Y-95700000D01*
X170750000Y-96684314D01*
X170745606Y-96679920D01*
X170654394Y-96627259D01*
X170552661Y-96600000D01*
X170447339Y-96600000D01*
X170345606Y-96627259D01*
X170254394Y-96679920D01*
X170250000Y-96684314D01*
X170250000Y-95700000D01*
X169900028Y-95700000D01*
X169900012Y-95700001D01*
X169797302Y-95710494D01*
X169630880Y-95765641D01*
X169630875Y-95765643D01*
X169481654Y-95857684D01*
X169357684Y-95981654D01*
X169265643Y-96130875D01*
X169265641Y-96130880D01*
X169210494Y-96297302D01*
X169210493Y-96297309D01*
X169200000Y-96400013D01*
X168500000Y-96400013D01*
X168500000Y-95124000D01*
X168519685Y-95056961D01*
X168572489Y-95011206D01*
X168624000Y-95000000D01*
X175376000Y-95000000D01*
X175443039Y-95019685D01*
G37*
%TD.AperFunction*%
%TD*%
M02*
