%TF.GenerationSoftware,KiCad,Pcbnew,9.0.4*%
%TF.CreationDate,2025-10-12T14:42:54-05:00*%
%TF.ProjectId,Onboarding,4f6e626f-6172-4646-996e-672e6b696361,rev?*%
%TF.SameCoordinates,Original*%
%TF.FileFunction,Copper,L1,Top*%
%TF.FilePolarity,Positive*%
%FSLAX46Y46*%
G04 Gerber Fmt 4.6, Leading zero omitted, Abs format (unit mm)*
G04 Created by KiCad (PCBNEW 9.0.4) date 2025-10-12 14:42:54*
%MOMM*%
%LPD*%
G01*
G04 APERTURE LIST*
G04 Aperture macros list*
%AMRoundRect*
0 Rectangle with rounded corners*
0 $1 Rounding radius*
0 $2 $3 $4 $5 $6 $7 $8 $9 X,Y pos of 4 corners*
0 Add a 4 corners polygon primitive as box body*
4,1,4,$2,$3,$4,$5,$6,$7,$8,$9,$2,$3,0*
0 Add four circle primitives for the rounded corners*
1,1,$1+$1,$2,$3*
1,1,$1+$1,$4,$5*
1,1,$1+$1,$6,$7*
1,1,$1+$1,$8,$9*
0 Add four rect primitives between the rounded corners*
20,1,$1+$1,$2,$3,$4,$5,0*
20,1,$1+$1,$4,$5,$6,$7,0*
20,1,$1+$1,$6,$7,$8,$9,0*
20,1,$1+$1,$8,$9,$2,$3,0*%
G04 Aperture macros list end*
%TA.AperFunction,ComponentPad*%
%ADD10C,1.400000*%
%TD*%
%TA.AperFunction,SMDPad,CuDef*%
%ADD11RoundRect,0.237500X-0.250000X-0.237500X0.250000X-0.237500X0.250000X0.237500X-0.250000X0.237500X0*%
%TD*%
%TA.AperFunction,ComponentPad*%
%ADD12RoundRect,0.760000X1.140000X1.140000X-1.140000X1.140000X-1.140000X-1.140000X1.140000X-1.140000X0*%
%TD*%
%TA.AperFunction,ComponentPad*%
%ADD13C,4.000000*%
%TD*%
%TA.AperFunction,ComponentPad*%
%ADD14RoundRect,0.249999X0.850001X-0.850001X0.850001X0.850001X-0.850001X0.850001X-0.850001X-0.850001X0*%
%TD*%
%TA.AperFunction,ComponentPad*%
%ADD15C,2.200000*%
%TD*%
%TA.AperFunction,SMDPad,CuDef*%
%ADD16RoundRect,0.150000X0.150000X0.700000X-0.150000X0.700000X-0.150000X-0.700000X0.150000X-0.700000X0*%
%TD*%
%TA.AperFunction,SMDPad,CuDef*%
%ADD17RoundRect,0.250000X0.250000X1.150000X-0.250000X1.150000X-0.250000X-1.150000X0.250000X-1.150000X0*%
%TD*%
%TA.AperFunction,SMDPad,CuDef*%
%ADD18RoundRect,0.237500X-0.300000X-0.237500X0.300000X-0.237500X0.300000X0.237500X-0.300000X0.237500X0*%
%TD*%
%TA.AperFunction,SMDPad,CuDef*%
%ADD19RoundRect,0.250000X-0.250000X-0.475000X0.250000X-0.475000X0.250000X0.475000X-0.250000X0.475000X0*%
%TD*%
%TA.AperFunction,SMDPad,CuDef*%
%ADD20RoundRect,0.250000X-0.350000X-0.450000X0.350000X-0.450000X0.350000X0.450000X-0.350000X0.450000X0*%
%TD*%
%TA.AperFunction,SMDPad,CuDef*%
%ADD21R,1.700000X2.000000*%
%TD*%
%TA.AperFunction,ComponentPad*%
%ADD22RoundRect,0.250000X-0.550000X-0.550000X0.550000X-0.550000X0.550000X0.550000X-0.550000X0.550000X0*%
%TD*%
%TA.AperFunction,ComponentPad*%
%ADD23C,1.600000*%
%TD*%
%TA.AperFunction,ComponentPad*%
%ADD24RoundRect,0.760000X-1.140000X-1.140000X1.140000X-1.140000X1.140000X1.140000X-1.140000X1.140000X0*%
%TD*%
%TA.AperFunction,ComponentPad*%
%ADD25C,3.800000*%
%TD*%
%TA.AperFunction,SMDPad,CuDef*%
%ADD26RoundRect,0.150000X-0.825000X-0.150000X0.825000X-0.150000X0.825000X0.150000X-0.825000X0.150000X0*%
%TD*%
%TA.AperFunction,Conductor*%
%ADD27C,0.200000*%
%TD*%
G04 APERTURE END LIST*
D10*
%TO.P,TP2,1,1*%
%TO.N,Net-(U1-I_{PK})*%
X86500000Y-85000000D03*
X88500000Y-85000000D03*
%TD*%
D11*
%TO.P,R4,1*%
%TO.N,Net-(U1-COMP-)*%
X70175000Y-96000000D03*
%TO.P,R4,2*%
%TO.N,GND*%
X72000000Y-96000000D03*
%TD*%
D12*
%TO.P,J1,1,Pin_1*%
%TO.N,GND*%
X93000000Y-98500000D03*
D13*
%TO.P,J1,2,Pin_2*%
%TO.N,+12V*%
X88000000Y-98500000D03*
%TD*%
D14*
%TO.P,D1,1,K*%
%TO.N,VCC*%
X66000000Y-102080000D03*
D15*
%TO.P,D1,2,A*%
%TO.N,Net-(D1-A)*%
X66000000Y-91920000D03*
%TD*%
D16*
%TO.P,J3,1,Pin_1*%
%TO.N,/CAN-*%
X102125000Y-90550000D03*
%TO.P,J3,2,Pin_2*%
%TO.N,/CAN+*%
X100875000Y-90550000D03*
D17*
%TO.P,J3,MP*%
%TO.N,N/C*%
X103975000Y-93900000D03*
X99025000Y-93900000D03*
%TD*%
D18*
%TO.P,C2,1*%
%TO.N,Net-(U1-CT)*%
X70137500Y-92000000D03*
%TO.P,C2,2*%
%TO.N,GND*%
X71862500Y-92000000D03*
%TD*%
D11*
%TO.P,R3,1*%
%TO.N,Net-(U1-I_{PK})*%
X92000000Y-85000000D03*
%TO.P,R3,2*%
%TO.N,+12V*%
X93825000Y-85000000D03*
%TD*%
D19*
%TO.P,C3,1*%
%TO.N,+12V*%
X92100000Y-91000000D03*
%TO.P,C3,2*%
%TO.N,GND*%
X94000000Y-91000000D03*
%TD*%
D20*
%TO.P,R1,1*%
%TO.N,Net-(U1-DC)*%
X86500000Y-91000000D03*
%TO.P,R1,2*%
%TO.N,Net-(U1-I_{PK})*%
X88500000Y-91000000D03*
%TD*%
D21*
%TO.P,L1,1,1*%
%TO.N,Net-(U1-I_{PK})*%
X79500000Y-85000000D03*
%TO.P,L1,2,2*%
%TO.N,Net-(D1-A)*%
X79500000Y-91000000D03*
%TD*%
D16*
%TO.P,J4,1,Pin_1*%
%TO.N,/CAN-*%
X102125000Y-97550000D03*
%TO.P,J4,2,Pin_2*%
%TO.N,/CAN+*%
X100875000Y-97550000D03*
D17*
%TO.P,J4,MP*%
%TO.N,N/C*%
X103975000Y-100900000D03*
X99025000Y-100900000D03*
%TD*%
D22*
%TO.P,C1,1*%
%TO.N,VCC*%
X88597349Y-107000000D03*
D23*
%TO.P,C1,2*%
%TO.N,GND*%
X93597349Y-107000000D03*
%TD*%
D24*
%TO.P,J2,1,Pin_1*%
%TO.N,GND*%
X75000000Y-107000000D03*
D25*
%TO.P,J2,2,Pin_2*%
%TO.N,VCC*%
X80000000Y-107000000D03*
%TD*%
D10*
%TO.P,TP1,1,1*%
%TO.N,Net-(D1-A)*%
X70500000Y-86000000D03*
X72500000Y-86000000D03*
%TD*%
D11*
%TO.P,R2,1*%
%TO.N,VCC*%
X70087500Y-100500000D03*
%TO.P,R2,2*%
%TO.N,Net-(U1-COMP-)*%
X71912500Y-100500000D03*
%TD*%
D26*
%TO.P,U1,1,SC*%
%TO.N,Net-(D1-A)*%
X76500000Y-95960000D03*
%TO.P,U1,2,SE*%
%TO.N,GND*%
X76500000Y-97230000D03*
%TO.P,U1,3,CT*%
%TO.N,Net-(U1-CT)*%
X76500000Y-98500000D03*
%TO.P,U1,4,GND*%
%TO.N,GND*%
X76500000Y-99770000D03*
%TO.P,U1,5,COMP-*%
%TO.N,Net-(U1-COMP-)*%
X81450000Y-99770000D03*
%TO.P,U1,6,VCC*%
%TO.N,+12V*%
X81450000Y-98500000D03*
%TO.P,U1,7,I_{PK}*%
%TO.N,Net-(U1-I_{PK})*%
X81450000Y-97230000D03*
%TO.P,U1,8,DC*%
%TO.N,Net-(U1-DC)*%
X81450000Y-95960000D03*
%TD*%
D27*
%TO.N,Net-(U1-CT)*%
X70000000Y-92137500D02*
X70137500Y-92000000D01*
X73500000Y-95000000D02*
X72500000Y-94000000D01*
X72500000Y-94000000D02*
X70500000Y-94000000D01*
X73500000Y-97500000D02*
X73500000Y-95000000D01*
X70500000Y-94000000D02*
X70000000Y-93500000D01*
X74500000Y-98500000D02*
X73500000Y-97500000D01*
X70000000Y-93500000D02*
X70000000Y-92137500D01*
X76500000Y-98500000D02*
X74500000Y-98500000D01*
%TO.N,Net-(U1-COMP-)*%
X80720000Y-100500000D02*
X81450000Y-99770000D01*
X71912500Y-100500000D02*
X80720000Y-100500000D01*
%TO.N,Net-(U1-I_{PK})*%
X81450000Y-97230000D02*
X82270000Y-97230000D01*
%TO.N,VCC*%
X80500000Y-107500000D02*
X80000000Y-107000000D01*
%TO.N,/CAN-*%
X102125000Y-96274999D02*
X101725000Y-95874999D01*
X102125000Y-91825001D02*
X102125000Y-90550000D01*
X101725000Y-92225001D02*
X102125000Y-91825001D01*
X102125000Y-97550000D02*
X102125000Y-96274999D01*
X101725000Y-95874999D02*
X101725000Y-92225001D01*
%TO.N,/CAN+*%
X100875000Y-96274999D02*
X101275000Y-95874999D01*
X100875000Y-97550000D02*
X100875000Y-96274999D01*
X100875000Y-91825001D02*
X100875000Y-90550000D01*
X101275000Y-92225001D02*
X100875000Y-91825001D01*
X101275000Y-95874999D02*
X101275000Y-92225001D01*
%TO.N,Net-(U1-DC)*%
X86410000Y-91000000D02*
X86500000Y-91000000D01*
X81450000Y-95960000D02*
X86410000Y-91000000D01*
%TO.N,Net-(U1-COMP-)*%
X70175000Y-96000000D02*
X70175000Y-98762500D01*
X70175000Y-98762500D02*
X71912500Y-100500000D01*
%TD*%
%TA.AperFunction,Conductor*%
%TO.N,GND*%
G36*
X102503736Y-82500726D02*
G01*
X102793796Y-82518271D01*
X102808659Y-82520076D01*
X103090798Y-82571780D01*
X103105335Y-82575363D01*
X103379172Y-82660695D01*
X103393163Y-82666000D01*
X103654743Y-82783727D01*
X103667989Y-82790680D01*
X103913465Y-82939075D01*
X103925776Y-82947573D01*
X104083963Y-83071504D01*
X104151573Y-83124473D01*
X104162781Y-83134403D01*
X104365596Y-83337218D01*
X104375526Y-83348426D01*
X104538309Y-83556204D01*
X104552422Y-83574217D01*
X104560926Y-83586537D01*
X104619091Y-83682753D01*
X104709316Y-83832004D01*
X104716275Y-83845263D01*
X104833997Y-84106831D01*
X104839306Y-84120832D01*
X104924635Y-84394663D01*
X104928219Y-84409201D01*
X104979923Y-84691340D01*
X104981728Y-84706205D01*
X104999274Y-84996263D01*
X104999500Y-85003750D01*
X104999500Y-92163770D01*
X104979815Y-92230809D01*
X104927011Y-92276564D01*
X104857853Y-92286508D01*
X104794297Y-92257483D01*
X104787819Y-92251451D01*
X104693657Y-92157289D01*
X104693656Y-92157288D01*
X104600888Y-92100069D01*
X104544336Y-92065187D01*
X104544331Y-92065185D01*
X104542862Y-92064698D01*
X104377797Y-92010001D01*
X104377795Y-92010000D01*
X104275010Y-91999500D01*
X103674998Y-91999500D01*
X103674980Y-91999501D01*
X103572203Y-92010000D01*
X103572200Y-92010001D01*
X103405668Y-92065185D01*
X103405663Y-92065187D01*
X103256342Y-92157289D01*
X103132289Y-92281342D01*
X103040187Y-92430663D01*
X103040186Y-92430666D01*
X102985001Y-92597203D01*
X102985001Y-92597204D01*
X102985000Y-92597204D01*
X102974500Y-92699983D01*
X102974500Y-95100001D01*
X102974501Y-95100018D01*
X102985000Y-95202796D01*
X102985001Y-95202799D01*
X103040185Y-95369331D01*
X103040187Y-95369336D01*
X103064120Y-95408137D01*
X103132288Y-95518656D01*
X103256344Y-95642712D01*
X103405666Y-95734814D01*
X103572203Y-95789999D01*
X103674991Y-95800500D01*
X104275008Y-95800499D01*
X104275016Y-95800498D01*
X104275019Y-95800498D01*
X104333960Y-95794477D01*
X104377797Y-95789999D01*
X104544334Y-95734814D01*
X104693656Y-95642712D01*
X104787819Y-95548549D01*
X104849142Y-95515064D01*
X104918834Y-95520048D01*
X104974767Y-95561920D01*
X104999184Y-95627384D01*
X104999500Y-95636230D01*
X104999500Y-99163770D01*
X104979815Y-99230809D01*
X104927011Y-99276564D01*
X104857853Y-99286508D01*
X104794297Y-99257483D01*
X104787819Y-99251451D01*
X104693657Y-99157289D01*
X104693656Y-99157288D01*
X104544334Y-99065186D01*
X104377797Y-99010001D01*
X104377795Y-99010000D01*
X104275010Y-98999500D01*
X103674998Y-98999500D01*
X103674980Y-98999501D01*
X103572203Y-99010000D01*
X103572200Y-99010001D01*
X103405668Y-99065185D01*
X103405663Y-99065187D01*
X103256342Y-99157289D01*
X103132289Y-99281342D01*
X103040187Y-99430663D01*
X103040185Y-99430668D01*
X103015205Y-99506053D01*
X102985001Y-99597203D01*
X102985001Y-99597204D01*
X102985000Y-99597204D01*
X102974500Y-99699983D01*
X102974500Y-102100001D01*
X102974501Y-102100018D01*
X102985000Y-102202796D01*
X102985001Y-102202799D01*
X103040185Y-102369331D01*
X103040187Y-102369336D01*
X103062536Y-102405569D01*
X103132288Y-102518656D01*
X103256344Y-102642712D01*
X103405666Y-102734814D01*
X103572203Y-102789999D01*
X103674991Y-102800500D01*
X104275008Y-102800499D01*
X104275016Y-102800498D01*
X104275019Y-102800498D01*
X104331302Y-102794748D01*
X104377797Y-102789999D01*
X104544334Y-102734814D01*
X104693656Y-102642712D01*
X104787819Y-102548549D01*
X104849142Y-102515064D01*
X104918834Y-102520048D01*
X104974767Y-102561920D01*
X104999184Y-102627384D01*
X104999500Y-102636230D01*
X104999500Y-108996249D01*
X104999274Y-109003736D01*
X104981728Y-109293794D01*
X104979923Y-109308659D01*
X104928219Y-109590798D01*
X104924635Y-109605336D01*
X104839306Y-109879167D01*
X104833997Y-109893168D01*
X104716275Y-110154736D01*
X104709316Y-110167995D01*
X104560928Y-110413459D01*
X104552422Y-110425782D01*
X104375526Y-110651573D01*
X104365596Y-110662781D01*
X104162781Y-110865596D01*
X104151573Y-110875526D01*
X103925782Y-111052422D01*
X103913459Y-111060928D01*
X103667995Y-111209316D01*
X103654736Y-111216275D01*
X103393168Y-111333997D01*
X103379167Y-111339306D01*
X103105336Y-111424635D01*
X103090798Y-111428219D01*
X102808659Y-111479923D01*
X102793794Y-111481728D01*
X102503736Y-111499274D01*
X102496249Y-111499500D01*
X66503751Y-111499500D01*
X66496264Y-111499274D01*
X66206205Y-111481728D01*
X66191340Y-111479923D01*
X65909201Y-111428219D01*
X65894663Y-111424635D01*
X65620832Y-111339306D01*
X65606831Y-111333997D01*
X65345263Y-111216275D01*
X65332004Y-111209316D01*
X65086540Y-111060928D01*
X65074217Y-111052422D01*
X64848426Y-110875526D01*
X64837218Y-110865596D01*
X64634403Y-110662781D01*
X64624473Y-110651573D01*
X64447573Y-110425776D01*
X64439075Y-110413465D01*
X64290680Y-110167989D01*
X64283727Y-110154743D01*
X64166000Y-109893163D01*
X64160693Y-109879167D01*
X64158094Y-109870828D01*
X64075363Y-109605335D01*
X64071780Y-109590798D01*
X64070802Y-109585459D01*
X64020075Y-109308657D01*
X64018271Y-109293794D01*
X64013264Y-109211025D01*
X64000726Y-109003736D01*
X64000500Y-108996249D01*
X64000500Y-108893713D01*
X65149500Y-108893713D01*
X65149500Y-109106286D01*
X65181552Y-109308659D01*
X65182754Y-109316243D01*
X65242285Y-109499461D01*
X65248444Y-109518414D01*
X65344951Y-109707820D01*
X65469890Y-109879786D01*
X65620213Y-110030109D01*
X65792179Y-110155048D01*
X65792181Y-110155049D01*
X65792184Y-110155051D01*
X65981588Y-110251557D01*
X66183757Y-110317246D01*
X66393713Y-110350500D01*
X66393714Y-110350500D01*
X66606286Y-110350500D01*
X66606287Y-110350500D01*
X66816243Y-110317246D01*
X67018412Y-110251557D01*
X67207816Y-110155051D01*
X67229789Y-110139086D01*
X67379786Y-110030109D01*
X67379788Y-110030106D01*
X67379792Y-110030104D01*
X67530104Y-109879792D01*
X67530106Y-109879788D01*
X67530109Y-109879786D01*
X67648862Y-109716335D01*
X67655051Y-109707816D01*
X67751557Y-109518412D01*
X67817246Y-109316243D01*
X67850500Y-109106287D01*
X67850500Y-108893713D01*
X67817246Y-108683757D01*
X67751557Y-108481588D01*
X67655051Y-108292184D01*
X67655049Y-108292181D01*
X67655048Y-108292179D01*
X67530109Y-108120213D01*
X67379786Y-107969890D01*
X67207820Y-107844951D01*
X67018414Y-107748444D01*
X67018413Y-107748443D01*
X67018412Y-107748443D01*
X66816243Y-107682754D01*
X66816241Y-107682753D01*
X66816240Y-107682753D01*
X66654833Y-107657189D01*
X66606287Y-107649500D01*
X66393713Y-107649500D01*
X66345167Y-107657189D01*
X66183760Y-107682753D01*
X65981585Y-107748444D01*
X65792179Y-107844951D01*
X65620213Y-107969890D01*
X65469890Y-108120213D01*
X65344951Y-108292179D01*
X65248444Y-108481585D01*
X65182753Y-108683760D01*
X65149500Y-108893713D01*
X64000500Y-108893713D01*
X64000500Y-104931724D01*
X64020185Y-104864685D01*
X64072989Y-104818930D01*
X64142147Y-104808986D01*
X64205699Y-104838009D01*
X64283664Y-104905567D01*
X64414541Y-104965338D01*
X64481580Y-104985023D01*
X64481584Y-104985024D01*
X64624000Y-105005500D01*
X72682398Y-105005500D01*
X72749437Y-105025185D01*
X72795192Y-105077989D01*
X72805136Y-105147147D01*
X72784326Y-105200117D01*
X72759695Y-105235668D01*
X72759695Y-105235669D01*
X72665899Y-105442167D01*
X72665898Y-105442170D01*
X72610483Y-105662087D01*
X72610482Y-105662093D01*
X72600000Y-105795280D01*
X72600000Y-106750000D01*
X73672769Y-106750000D01*
X73650000Y-106893753D01*
X73650000Y-107106247D01*
X73672769Y-107250000D01*
X72600000Y-107250000D01*
X72600000Y-108204719D01*
X72610482Y-108337906D01*
X72610483Y-108337912D01*
X72665898Y-108557829D01*
X72665899Y-108557832D01*
X72759695Y-108764330D01*
X72759698Y-108764336D01*
X72888851Y-108950758D01*
X72888861Y-108950770D01*
X73049229Y-109111138D01*
X73049241Y-109111148D01*
X73235663Y-109240301D01*
X73235669Y-109240304D01*
X73442167Y-109334100D01*
X73442170Y-109334101D01*
X73662087Y-109389516D01*
X73662093Y-109389517D01*
X73795280Y-109399999D01*
X73795294Y-109400000D01*
X74750000Y-109400000D01*
X74750000Y-108327231D01*
X74893753Y-108350000D01*
X75106247Y-108350000D01*
X75250000Y-108327231D01*
X75250000Y-109400000D01*
X76204706Y-109400000D01*
X76204719Y-109399999D01*
X76337906Y-109389517D01*
X76337912Y-109389516D01*
X76557829Y-109334101D01*
X76557832Y-109334100D01*
X76764330Y-109240304D01*
X76764331Y-109240304D01*
X76799883Y-109215674D01*
X76866200Y-109193677D01*
X76933882Y-109211025D01*
X76981440Y-109262210D01*
X76994500Y-109317602D01*
X76994500Y-109376000D01*
X76994501Y-109376009D01*
X77006052Y-109483450D01*
X77006054Y-109483462D01*
X77017260Y-109534972D01*
X77051383Y-109637497D01*
X77051386Y-109637503D01*
X77129171Y-109758537D01*
X77129179Y-109758548D01*
X77174923Y-109811340D01*
X77174926Y-109811343D01*
X77174930Y-109811347D01*
X77283664Y-109905567D01*
X77283667Y-109905568D01*
X77283668Y-109905569D01*
X77377925Y-109948616D01*
X77414541Y-109965338D01*
X77481580Y-109985023D01*
X77481584Y-109985024D01*
X77624000Y-110005500D01*
X77624003Y-110005500D01*
X79148194Y-110005500D01*
X79278200Y-109988496D01*
X79339834Y-109972093D01*
X79461081Y-109922234D01*
X79574482Y-109833680D01*
X79622870Y-109783278D01*
X79622876Y-109783271D01*
X79706733Y-109666354D01*
X79754253Y-109530547D01*
X79756634Y-109518416D01*
X79760128Y-109500617D01*
X79774838Y-109472319D01*
X79788093Y-109443297D01*
X79790846Y-109441527D01*
X79792356Y-109438624D01*
X79820038Y-109422767D01*
X79846871Y-109405523D01*
X79851239Y-109404894D01*
X79852983Y-109403896D01*
X79881806Y-109400500D01*
X80117206Y-109400500D01*
X80184245Y-109420185D01*
X80230000Y-109472989D01*
X80237396Y-109495209D01*
X80237410Y-109495206D01*
X80237521Y-109495586D01*
X80238373Y-109498144D01*
X80238659Y-109499461D01*
X80279192Y-109637501D01*
X80279195Y-109637507D01*
X80356977Y-109758537D01*
X80356985Y-109758548D01*
X80402729Y-109811340D01*
X80402732Y-109811343D01*
X80402736Y-109811347D01*
X80511470Y-109905567D01*
X80511473Y-109905568D01*
X80511474Y-109905569D01*
X80605731Y-109948616D01*
X80642347Y-109965338D01*
X80709386Y-109985023D01*
X80709390Y-109985024D01*
X80851806Y-110005500D01*
X80851809Y-110005500D01*
X89875990Y-110005500D01*
X89876000Y-110005500D01*
X89983456Y-109993947D01*
X90034967Y-109982741D01*
X90069197Y-109971347D01*
X90137497Y-109948616D01*
X90137501Y-109948613D01*
X90137504Y-109948613D01*
X90258543Y-109870825D01*
X90311347Y-109825070D01*
X90405567Y-109716336D01*
X90465338Y-109585459D01*
X90485023Y-109518420D01*
X90485024Y-109518416D01*
X90505500Y-109376000D01*
X90505500Y-108893713D01*
X101149500Y-108893713D01*
X101149500Y-109106286D01*
X101181552Y-109308659D01*
X101182754Y-109316243D01*
X101242285Y-109499461D01*
X101248444Y-109518414D01*
X101344951Y-109707820D01*
X101469890Y-109879786D01*
X101620213Y-110030109D01*
X101792179Y-110155048D01*
X101792181Y-110155049D01*
X101792184Y-110155051D01*
X101981588Y-110251557D01*
X102183757Y-110317246D01*
X102393713Y-110350500D01*
X102393714Y-110350500D01*
X102606286Y-110350500D01*
X102606287Y-110350500D01*
X102816243Y-110317246D01*
X103018412Y-110251557D01*
X103207816Y-110155051D01*
X103229789Y-110139086D01*
X103379786Y-110030109D01*
X103379788Y-110030106D01*
X103379792Y-110030104D01*
X103530104Y-109879792D01*
X103530106Y-109879788D01*
X103530109Y-109879786D01*
X103648862Y-109716335D01*
X103655051Y-109707816D01*
X103751557Y-109518412D01*
X103817246Y-109316243D01*
X103850500Y-109106287D01*
X103850500Y-108893713D01*
X103817246Y-108683757D01*
X103751557Y-108481588D01*
X103655051Y-108292184D01*
X103655049Y-108292181D01*
X103655048Y-108292179D01*
X103530109Y-108120213D01*
X103379786Y-107969890D01*
X103207820Y-107844951D01*
X103018414Y-107748444D01*
X103018413Y-107748443D01*
X103018412Y-107748443D01*
X102816243Y-107682754D01*
X102816241Y-107682753D01*
X102816240Y-107682753D01*
X102654833Y-107657189D01*
X102606287Y-107649500D01*
X102393713Y-107649500D01*
X102345167Y-107657189D01*
X102183760Y-107682753D01*
X101981585Y-107748444D01*
X101792179Y-107844951D01*
X101620213Y-107969890D01*
X101469890Y-108120213D01*
X101344951Y-108292179D01*
X101248444Y-108481585D01*
X101182753Y-108683760D01*
X101149500Y-108893713D01*
X90505500Y-108893713D01*
X90505500Y-108033513D01*
X90499668Y-107956945D01*
X90493978Y-107919813D01*
X90476613Y-107845006D01*
X90414429Y-107715258D01*
X90375572Y-107657189D01*
X90279354Y-107550217D01*
X90156895Y-107474684D01*
X90156893Y-107474683D01*
X90156886Y-107474679D01*
X90107346Y-107453154D01*
X90107335Y-107453150D01*
X90092813Y-107446841D01*
X90092808Y-107446838D01*
X89988061Y-107418178D01*
X89986958Y-107417855D01*
X89958494Y-107399577D01*
X89929655Y-107381790D01*
X89929148Y-107380734D01*
X89928166Y-107380103D01*
X89914100Y-107349334D01*
X89899458Y-107318783D01*
X89899312Y-107316987D01*
X89899117Y-107316559D01*
X89899220Y-107315839D01*
X89897848Y-107298865D01*
X89897848Y-106897682D01*
X92297349Y-106897682D01*
X92297349Y-107102317D01*
X92329358Y-107304417D01*
X92392593Y-107499031D01*
X92485490Y-107681350D01*
X92485496Y-107681359D01*
X92517872Y-107725921D01*
X92517873Y-107725922D01*
X93197349Y-107046446D01*
X93197349Y-107052661D01*
X93224608Y-107154394D01*
X93277269Y-107245606D01*
X93351743Y-107320080D01*
X93442955Y-107372741D01*
X93544688Y-107400000D01*
X93550902Y-107400000D01*
X92871425Y-108079474D01*
X92915999Y-108111859D01*
X93098317Y-108204755D01*
X93292931Y-108267990D01*
X93495032Y-108300000D01*
X93699666Y-108300000D01*
X93901766Y-108267990D01*
X94096380Y-108204755D01*
X94278698Y-108111859D01*
X94323270Y-108079474D01*
X93643796Y-107400000D01*
X93650010Y-107400000D01*
X93751743Y-107372741D01*
X93842955Y-107320080D01*
X93917429Y-107245606D01*
X93970090Y-107154394D01*
X93997349Y-107052661D01*
X93997349Y-107046447D01*
X94676823Y-107725921D01*
X94709208Y-107681349D01*
X94802104Y-107499031D01*
X94865339Y-107304417D01*
X94897349Y-107102317D01*
X94897349Y-106897682D01*
X94865339Y-106695582D01*
X94802104Y-106500968D01*
X94709208Y-106318650D01*
X94676823Y-106274077D01*
X94676823Y-106274076D01*
X93997349Y-106953551D01*
X93997349Y-106947339D01*
X93970090Y-106845606D01*
X93917429Y-106754394D01*
X93842955Y-106679920D01*
X93751743Y-106627259D01*
X93650010Y-106600000D01*
X93643795Y-106600000D01*
X94323271Y-105920524D01*
X94323270Y-105920523D01*
X94278708Y-105888147D01*
X94278699Y-105888141D01*
X94096380Y-105795244D01*
X93901766Y-105732009D01*
X93699666Y-105700000D01*
X93495032Y-105700000D01*
X93292931Y-105732009D01*
X93098317Y-105795244D01*
X92915993Y-105888143D01*
X92871426Y-105920523D01*
X92871426Y-105920524D01*
X93550903Y-106600000D01*
X93544688Y-106600000D01*
X93442955Y-106627259D01*
X93351743Y-106679920D01*
X93277269Y-106754394D01*
X93224608Y-106845606D01*
X93197349Y-106947339D01*
X93197349Y-106953553D01*
X92517873Y-106274077D01*
X92517872Y-106274077D01*
X92485492Y-106318644D01*
X92392593Y-106500968D01*
X92329358Y-106695582D01*
X92297349Y-106897682D01*
X89897848Y-106897682D01*
X89897848Y-106399998D01*
X89897847Y-106399981D01*
X89887348Y-106297203D01*
X89887347Y-106297200D01*
X89879684Y-106274076D01*
X89832163Y-106130666D01*
X89740061Y-105981344D01*
X89616005Y-105857288D01*
X89466683Y-105765186D01*
X89300146Y-105710001D01*
X89300144Y-105710000D01*
X89197359Y-105699500D01*
X87997347Y-105699500D01*
X87997330Y-105699501D01*
X87894552Y-105710000D01*
X87894545Y-105710002D01*
X87823651Y-105733494D01*
X87753823Y-105735895D01*
X87693781Y-105700163D01*
X87690935Y-105696990D01*
X87683716Y-105688659D01*
X87683712Y-105688656D01*
X87683710Y-105688653D01*
X87574976Y-105594433D01*
X87574973Y-105594431D01*
X87574971Y-105594430D01*
X87444105Y-105534664D01*
X87444100Y-105534662D01*
X87444099Y-105534662D01*
X87377060Y-105514977D01*
X87377062Y-105514977D01*
X87377057Y-105514976D01*
X87329584Y-105508150D01*
X87234640Y-105494500D01*
X87234638Y-105494500D01*
X83174360Y-105494500D01*
X83110563Y-105476829D01*
X82430482Y-105068780D01*
X82355854Y-105033322D01*
X82342176Y-105026823D01*
X82297277Y-105010601D01*
X82297275Y-105010600D01*
X82297271Y-105010599D01*
X82297269Y-105010598D01*
X82202554Y-104986428D01*
X82058679Y-104984959D01*
X82058678Y-104984959D01*
X82047664Y-104986428D01*
X81989425Y-104994195D01*
X81850959Y-105033322D01*
X81729134Y-105109869D01*
X81729131Y-105109871D01*
X81686211Y-105146301D01*
X81622362Y-105174675D01*
X81553309Y-105164025D01*
X81528658Y-105148710D01*
X81479953Y-105109869D01*
X81391289Y-105039162D01*
X81162997Y-104895716D01*
X81162994Y-104895714D01*
X81037354Y-104835209D01*
X80985495Y-104788386D01*
X80967182Y-104720959D01*
X80972180Y-104688552D01*
X80985021Y-104644822D01*
X80985022Y-104644815D01*
X80985023Y-104644813D01*
X80985024Y-104644809D01*
X81005500Y-104502393D01*
X81005500Y-102624000D01*
X80993947Y-102516544D01*
X80982741Y-102465033D01*
X80977276Y-102448613D01*
X80948616Y-102362502D01*
X80948613Y-102362496D01*
X80881809Y-102258548D01*
X80870825Y-102241457D01*
X80870820Y-102241451D01*
X80825076Y-102188659D01*
X80825072Y-102188656D01*
X80825070Y-102188653D01*
X80716336Y-102094433D01*
X80716333Y-102094431D01*
X80716331Y-102094430D01*
X80585465Y-102034664D01*
X80585460Y-102034662D01*
X80585459Y-102034662D01*
X80540766Y-102021538D01*
X80518417Y-102014976D01*
X80470944Y-102008150D01*
X80376000Y-101994500D01*
X80375998Y-101994500D01*
X71629500Y-101994500D01*
X71562461Y-101974815D01*
X71516706Y-101922011D01*
X71505500Y-101870500D01*
X71505500Y-101599499D01*
X71525185Y-101532460D01*
X71577989Y-101486705D01*
X71629495Y-101475499D01*
X72211676Y-101475499D01*
X72211684Y-101475498D01*
X72211687Y-101475498D01*
X72267030Y-101469844D01*
X72312753Y-101465174D01*
X72476516Y-101410908D01*
X72623350Y-101320340D01*
X72745340Y-101198350D01*
X72769362Y-101159404D01*
X72821310Y-101112679D01*
X72874901Y-101100500D01*
X80633331Y-101100500D01*
X80633347Y-101100501D01*
X80640943Y-101100501D01*
X80799054Y-101100501D01*
X80799057Y-101100501D01*
X80951785Y-101059577D01*
X81003879Y-101029500D01*
X81088716Y-100980520D01*
X81200520Y-100868716D01*
X81200520Y-100868714D01*
X81210721Y-100858514D01*
X81210724Y-100858509D01*
X81462417Y-100606816D01*
X81523739Y-100573334D01*
X81550097Y-100570500D01*
X82340686Y-100570500D01*
X82340694Y-100570500D01*
X82377569Y-100567598D01*
X82377571Y-100567597D01*
X82377573Y-100567597D01*
X82419191Y-100555505D01*
X82535398Y-100521744D01*
X82676865Y-100438081D01*
X82793081Y-100321865D01*
X82876744Y-100180398D01*
X82876745Y-100180394D01*
X82876746Y-100180393D01*
X82901583Y-100094905D01*
X82939189Y-100036019D01*
X83002662Y-100006813D01*
X83020659Y-100005500D01*
X84370500Y-100005500D01*
X84437539Y-100025185D01*
X84483294Y-100077989D01*
X84494500Y-100129500D01*
X84494500Y-101876000D01*
X84494501Y-101876009D01*
X84506052Y-101983450D01*
X84506054Y-101983462D01*
X84517260Y-102034972D01*
X84551383Y-102137497D01*
X84551386Y-102137503D01*
X84629171Y-102258537D01*
X84629179Y-102258548D01*
X84674923Y-102311340D01*
X84674926Y-102311343D01*
X84674930Y-102311347D01*
X84783664Y-102405567D01*
X84783667Y-102405568D01*
X84783668Y-102405569D01*
X84877925Y-102448616D01*
X84914541Y-102465338D01*
X84981580Y-102485023D01*
X84981584Y-102485024D01*
X85124000Y-102505500D01*
X85124003Y-102505500D01*
X90375990Y-102505500D01*
X90376000Y-102505500D01*
X90483456Y-102493947D01*
X90534967Y-102482741D01*
X90569197Y-102471347D01*
X90637497Y-102448616D01*
X90637501Y-102448613D01*
X90637504Y-102448613D01*
X90758543Y-102370825D01*
X90811347Y-102325070D01*
X90905567Y-102216336D01*
X90965338Y-102085459D01*
X90985023Y-102018420D01*
X90985024Y-102018416D01*
X91005500Y-101876000D01*
X91005500Y-100817602D01*
X91025185Y-100750563D01*
X91077989Y-100704808D01*
X91147147Y-100694864D01*
X91200117Y-100715674D01*
X91235669Y-100740304D01*
X91442167Y-100834100D01*
X91442170Y-100834101D01*
X91662087Y-100889516D01*
X91662093Y-100889517D01*
X91795280Y-100899999D01*
X91795294Y-100900000D01*
X92750000Y-100900000D01*
X92750000Y-99827231D01*
X92893753Y-99850000D01*
X93106247Y-99850000D01*
X93250000Y-99827231D01*
X93250000Y-100900000D01*
X94204706Y-100900000D01*
X94204719Y-100899999D01*
X94337906Y-100889517D01*
X94337912Y-100889516D01*
X94557829Y-100834101D01*
X94557832Y-100834100D01*
X94764330Y-100740304D01*
X94764336Y-100740301D01*
X94950758Y-100611148D01*
X94950770Y-100611138D01*
X95111138Y-100450770D01*
X95111148Y-100450758D01*
X95240301Y-100264336D01*
X95240304Y-100264330D01*
X95334100Y-100057832D01*
X95334101Y-100057829D01*
X95389516Y-99837912D01*
X95389517Y-99837906D01*
X95399999Y-99704719D01*
X95400000Y-99704706D01*
X95400000Y-99699983D01*
X98024500Y-99699983D01*
X98024500Y-102100001D01*
X98024501Y-102100018D01*
X98035000Y-102202796D01*
X98035001Y-102202799D01*
X98090185Y-102369331D01*
X98090187Y-102369336D01*
X98112536Y-102405569D01*
X98182288Y-102518656D01*
X98306344Y-102642712D01*
X98455666Y-102734814D01*
X98622203Y-102789999D01*
X98724991Y-102800500D01*
X99325008Y-102800499D01*
X99325016Y-102800498D01*
X99325019Y-102800498D01*
X99381302Y-102794748D01*
X99427797Y-102789999D01*
X99594334Y-102734814D01*
X99743656Y-102642712D01*
X99867712Y-102518656D01*
X99959814Y-102369334D01*
X100014999Y-102202797D01*
X100025500Y-102100009D01*
X100025499Y-99699992D01*
X100014999Y-99597203D01*
X99959814Y-99430666D01*
X99867712Y-99281344D01*
X99743656Y-99157288D01*
X99594334Y-99065186D01*
X99427797Y-99010001D01*
X99427795Y-99010000D01*
X99325010Y-98999500D01*
X98724998Y-98999500D01*
X98724980Y-98999501D01*
X98622203Y-99010000D01*
X98622200Y-99010001D01*
X98455668Y-99065185D01*
X98455663Y-99065187D01*
X98306342Y-99157289D01*
X98182289Y-99281342D01*
X98090187Y-99430663D01*
X98090185Y-99430668D01*
X98065205Y-99506053D01*
X98035001Y-99597203D01*
X98035001Y-99597204D01*
X98035000Y-99597204D01*
X98024500Y-99699983D01*
X95400000Y-99699983D01*
X95400000Y-98750000D01*
X94327231Y-98750000D01*
X94350000Y-98606247D01*
X94350000Y-98393753D01*
X94327231Y-98250000D01*
X95400000Y-98250000D01*
X95400000Y-97295293D01*
X95399999Y-97295280D01*
X95389517Y-97162093D01*
X95389516Y-97162087D01*
X95334101Y-96942170D01*
X95334100Y-96942167D01*
X95240304Y-96735669D01*
X95240301Y-96735663D01*
X95111148Y-96549241D01*
X95111138Y-96549229D01*
X94950770Y-96388861D01*
X94950758Y-96388851D01*
X94764336Y-96259698D01*
X94764330Y-96259695D01*
X94557832Y-96165899D01*
X94557829Y-96165898D01*
X94337912Y-96110483D01*
X94337906Y-96110482D01*
X94204719Y-96100000D01*
X93250000Y-96100000D01*
X93250000Y-97172768D01*
X93106247Y-97150000D01*
X92893753Y-97150000D01*
X92750000Y-97172768D01*
X92750000Y-96100000D01*
X91795280Y-96100000D01*
X91662093Y-96110482D01*
X91662087Y-96110483D01*
X91442170Y-96165898D01*
X91442167Y-96165899D01*
X91235669Y-96259695D01*
X91235664Y-96259697D01*
X91200115Y-96284326D01*
X91189478Y-96287853D01*
X91181011Y-96295191D01*
X91156909Y-96298656D01*
X91133798Y-96306322D01*
X91122945Y-96303540D01*
X91111853Y-96305135D01*
X91089701Y-96295018D01*
X91066116Y-96288973D01*
X91058489Y-96280764D01*
X91048297Y-96276110D01*
X91035131Y-96255624D01*
X91018559Y-96237787D01*
X91015598Y-96225229D01*
X91010523Y-96217332D01*
X91005500Y-96182397D01*
X91005500Y-96180537D01*
X91024348Y-96114817D01*
X91069100Y-96043214D01*
X93158619Y-92699983D01*
X98024500Y-92699983D01*
X98024500Y-95100001D01*
X98024501Y-95100018D01*
X98035000Y-95202796D01*
X98035001Y-95202799D01*
X98090185Y-95369331D01*
X98090187Y-95369336D01*
X98114120Y-95408137D01*
X98182288Y-95518656D01*
X98306344Y-95642712D01*
X98455666Y-95734814D01*
X98622203Y-95789999D01*
X98724991Y-95800500D01*
X99325008Y-95800499D01*
X99325016Y-95800498D01*
X99325019Y-95800498D01*
X99383960Y-95794477D01*
X99427797Y-95789999D01*
X99594334Y-95734814D01*
X99743656Y-95642712D01*
X99867712Y-95518656D01*
X99959814Y-95369334D01*
X100014999Y-95202797D01*
X100025500Y-95100009D01*
X100025499Y-92699992D01*
X100025299Y-92698038D01*
X100014999Y-92597203D01*
X100014998Y-92597200D01*
X99992804Y-92530224D01*
X99959814Y-92430666D01*
X99867712Y-92281344D01*
X99743656Y-92157288D01*
X99650888Y-92100069D01*
X99594336Y-92065187D01*
X99594331Y-92065185D01*
X99592862Y-92064698D01*
X99427797Y-92010001D01*
X99427795Y-92010000D01*
X99325010Y-91999500D01*
X98724998Y-91999500D01*
X98724980Y-91999501D01*
X98622203Y-92010000D01*
X98622200Y-92010001D01*
X98455668Y-92065185D01*
X98455663Y-92065187D01*
X98306342Y-92157289D01*
X98182289Y-92281342D01*
X98090187Y-92430663D01*
X98090186Y-92430666D01*
X98035001Y-92597203D01*
X98035001Y-92597204D01*
X98035000Y-92597204D01*
X98024500Y-92699983D01*
X93158619Y-92699983D01*
X93207235Y-92622197D01*
X93227807Y-92586054D01*
X93237154Y-92567937D01*
X93254688Y-92530219D01*
X93290452Y-92390854D01*
X93298011Y-92321394D01*
X93296963Y-92290940D01*
X93314328Y-92223268D01*
X93365526Y-92175723D01*
X93434302Y-92163406D01*
X93459893Y-92168972D01*
X93597302Y-92214505D01*
X93597309Y-92214506D01*
X93700019Y-92224999D01*
X94250000Y-92224999D01*
X94299972Y-92224999D01*
X94299986Y-92224998D01*
X94402697Y-92214505D01*
X94569119Y-92159358D01*
X94569124Y-92159356D01*
X94718345Y-92067315D01*
X94842315Y-91943345D01*
X94934356Y-91794124D01*
X94934358Y-91794119D01*
X94989505Y-91627697D01*
X94989506Y-91627690D01*
X94999999Y-91524986D01*
X95000000Y-91524973D01*
X95000000Y-91250000D01*
X94250000Y-91250000D01*
X94250000Y-92224999D01*
X93700019Y-92224999D01*
X93749999Y-92224998D01*
X93750000Y-92224998D01*
X93750000Y-90750000D01*
X94250000Y-90750000D01*
X94999999Y-90750000D01*
X94999999Y-90475028D01*
X94999998Y-90475013D01*
X94989505Y-90372302D01*
X94934358Y-90205880D01*
X94934356Y-90205875D01*
X94842315Y-90056654D01*
X94718345Y-89932684D01*
X94644944Y-89887410D01*
X94569124Y-89840643D01*
X94569119Y-89840641D01*
X94402697Y-89785494D01*
X94402690Y-89785493D01*
X94390994Y-89784298D01*
X100074500Y-89784298D01*
X100074500Y-91315701D01*
X100077401Y-91352567D01*
X100077402Y-91352573D01*
X100123254Y-91510393D01*
X100123255Y-91510396D01*
X100123256Y-91510398D01*
X100131502Y-91524341D01*
X100206917Y-91651862D01*
X100206923Y-91651870D01*
X100238179Y-91683125D01*
X100271665Y-91744447D01*
X100274499Y-91770807D01*
X100274499Y-91904055D01*
X100274498Y-91904055D01*
X100278770Y-91919998D01*
X100315423Y-92056786D01*
X100323044Y-92069986D01*
X100323045Y-92069989D01*
X100323046Y-92069989D01*
X100394477Y-92193713D01*
X100394481Y-92193718D01*
X100513349Y-92312586D01*
X100513355Y-92312591D01*
X100638181Y-92437417D01*
X100671666Y-92498740D01*
X100674500Y-92525098D01*
X100674500Y-95574901D01*
X100654815Y-95641940D01*
X100638181Y-95662582D01*
X100394481Y-95906281D01*
X100394479Y-95906284D01*
X100373656Y-95942351D01*
X100352832Y-95978420D01*
X100315423Y-96043214D01*
X100274499Y-96195942D01*
X100274499Y-96195944D01*
X100274499Y-96329192D01*
X100254814Y-96396231D01*
X100238180Y-96416873D01*
X100206923Y-96448129D01*
X100206917Y-96448137D01*
X100123255Y-96589603D01*
X100123254Y-96589606D01*
X100077402Y-96747426D01*
X100077401Y-96747432D01*
X100074500Y-96784298D01*
X100074500Y-98315701D01*
X100077401Y-98352567D01*
X100077402Y-98352573D01*
X100123254Y-98510393D01*
X100123255Y-98510396D01*
X100206917Y-98651862D01*
X100206923Y-98651870D01*
X100323129Y-98768076D01*
X100323133Y-98768079D01*
X100323135Y-98768081D01*
X100464602Y-98851744D01*
X100506224Y-98863836D01*
X100622426Y-98897597D01*
X100622429Y-98897597D01*
X100622431Y-98897598D01*
X100659306Y-98900500D01*
X100659314Y-98900500D01*
X101090686Y-98900500D01*
X101090694Y-98900500D01*
X101127569Y-98897598D01*
X101127571Y-98897597D01*
X101127573Y-98897597D01*
X101169191Y-98885505D01*
X101285398Y-98851744D01*
X101410048Y-98778026D01*
X101433580Y-98764110D01*
X101434747Y-98766083D01*
X101489035Y-98744769D01*
X101557553Y-98758448D01*
X101566404Y-98764136D01*
X101566420Y-98764110D01*
X101607034Y-98788128D01*
X101714602Y-98851744D01*
X101756224Y-98863836D01*
X101872426Y-98897597D01*
X101872429Y-98897597D01*
X101872431Y-98897598D01*
X101909306Y-98900500D01*
X101909314Y-98900500D01*
X102340686Y-98900500D01*
X102340694Y-98900500D01*
X102377569Y-98897598D01*
X102377571Y-98897597D01*
X102377573Y-98897597D01*
X102419191Y-98885505D01*
X102535398Y-98851744D01*
X102676865Y-98768081D01*
X102793081Y-98651865D01*
X102876744Y-98510398D01*
X102922598Y-98352569D01*
X102925500Y-98315694D01*
X102925500Y-96784306D01*
X102922598Y-96747431D01*
X102912863Y-96713924D01*
X102887923Y-96628081D01*
X102876744Y-96589602D01*
X102793081Y-96448135D01*
X102793079Y-96448133D01*
X102793076Y-96448129D01*
X102761819Y-96416872D01*
X102748228Y-96391983D01*
X102731977Y-96368742D01*
X102730451Y-96359426D01*
X102728334Y-96355549D01*
X102725594Y-96334029D01*
X102725500Y-96331621D01*
X102725500Y-96195942D01*
X102722889Y-96186199D01*
X102717449Y-96165898D01*
X102710821Y-96141161D01*
X102701610Y-96106783D01*
X102684577Y-96043215D01*
X102647168Y-95978420D01*
X102605524Y-95906289D01*
X102605521Y-95906285D01*
X102605520Y-95906283D01*
X102493716Y-95794479D01*
X102493715Y-95794478D01*
X102489385Y-95790148D01*
X102489374Y-95790138D01*
X102361819Y-95662583D01*
X102328334Y-95601260D01*
X102325500Y-95574902D01*
X102325500Y-92525098D01*
X102345185Y-92458059D01*
X102361814Y-92437421D01*
X102483506Y-92315728D01*
X102483510Y-92315726D01*
X102493714Y-92305521D01*
X102493716Y-92305521D01*
X102605520Y-92193717D01*
X102684577Y-92056785D01*
X102721229Y-91919999D01*
X102725500Y-91904059D01*
X102725500Y-91770807D01*
X102745185Y-91703769D01*
X102761820Y-91683126D01*
X102793076Y-91651870D01*
X102793081Y-91651865D01*
X102876744Y-91510398D01*
X102922598Y-91352569D01*
X102925500Y-91315694D01*
X102925500Y-89784306D01*
X102922598Y-89747431D01*
X102922267Y-89746292D01*
X102876745Y-89589606D01*
X102876744Y-89589603D01*
X102876744Y-89589602D01*
X102793081Y-89448135D01*
X102793079Y-89448133D01*
X102793076Y-89448129D01*
X102676870Y-89331923D01*
X102676862Y-89331917D01*
X102535396Y-89248255D01*
X102535393Y-89248254D01*
X102377573Y-89202402D01*
X102377567Y-89202401D01*
X102340701Y-89199500D01*
X102340694Y-89199500D01*
X101909306Y-89199500D01*
X101909298Y-89199500D01*
X101872432Y-89202401D01*
X101872426Y-89202402D01*
X101714606Y-89248254D01*
X101714603Y-89248255D01*
X101566420Y-89335890D01*
X101565254Y-89333919D01*
X101510942Y-89355232D01*
X101442427Y-89341540D01*
X101433595Y-89335864D01*
X101433580Y-89335890D01*
X101285396Y-89248255D01*
X101285393Y-89248254D01*
X101127573Y-89202402D01*
X101127567Y-89202401D01*
X101090701Y-89199500D01*
X101090694Y-89199500D01*
X100659306Y-89199500D01*
X100659298Y-89199500D01*
X100622432Y-89202401D01*
X100622426Y-89202402D01*
X100464606Y-89248254D01*
X100464603Y-89248255D01*
X100323137Y-89331917D01*
X100323129Y-89331923D01*
X100206923Y-89448129D01*
X100206917Y-89448137D01*
X100123255Y-89589603D01*
X100123254Y-89589606D01*
X100077402Y-89747426D01*
X100077401Y-89747432D01*
X100074500Y-89784298D01*
X94390994Y-89784298D01*
X94299986Y-89775000D01*
X94250000Y-89775000D01*
X94250000Y-90750000D01*
X93750000Y-90750000D01*
X93750000Y-89746292D01*
X93752775Y-89734267D01*
X93751746Y-89725557D01*
X93762537Y-89691960D01*
X95441842Y-86247232D01*
X95480013Y-86139393D01*
X95480015Y-86139382D01*
X95480017Y-86139378D01*
X95480017Y-86139376D01*
X95492551Y-86085064D01*
X95492552Y-86085059D01*
X95492553Y-86085056D01*
X95505500Y-85971384D01*
X95505500Y-85559098D01*
X95487400Y-85425041D01*
X95469958Y-85361626D01*
X95416952Y-85237164D01*
X95326523Y-85125253D01*
X95289418Y-85090799D01*
X95284874Y-85083163D01*
X95277554Y-85078124D01*
X95267282Y-85053603D01*
X95253688Y-85030760D01*
X95253993Y-85021878D01*
X95250559Y-85013680D01*
X95255174Y-84987500D01*
X95256088Y-84960932D01*
X95261467Y-84951809D01*
X95262691Y-84944872D01*
X95274755Y-84929277D01*
X95282704Y-84915800D01*
X95287374Y-84910743D01*
X95307028Y-84893713D01*
X101149500Y-84893713D01*
X101149500Y-85106286D01*
X101170229Y-85237168D01*
X101182754Y-85316243D01*
X101243428Y-85502979D01*
X101248444Y-85518414D01*
X101344951Y-85707820D01*
X101469890Y-85879786D01*
X101620213Y-86030109D01*
X101792179Y-86155048D01*
X101792181Y-86155049D01*
X101792184Y-86155051D01*
X101981588Y-86251557D01*
X102183757Y-86317246D01*
X102393713Y-86350500D01*
X102393714Y-86350500D01*
X102606286Y-86350500D01*
X102606287Y-86350500D01*
X102816243Y-86317246D01*
X103018412Y-86251557D01*
X103207816Y-86155051D01*
X103304146Y-86085064D01*
X103379786Y-86030109D01*
X103379788Y-86030106D01*
X103379792Y-86030104D01*
X103530104Y-85879792D01*
X103530106Y-85879788D01*
X103530109Y-85879786D01*
X103655048Y-85707820D01*
X103655047Y-85707820D01*
X103655051Y-85707816D01*
X103751557Y-85518412D01*
X103817246Y-85316243D01*
X103850500Y-85106287D01*
X103850500Y-84893713D01*
X103817246Y-84683757D01*
X103751557Y-84481588D01*
X103655051Y-84292184D01*
X103655049Y-84292181D01*
X103655048Y-84292179D01*
X103530109Y-84120213D01*
X103379786Y-83969890D01*
X103207820Y-83844951D01*
X103018414Y-83748444D01*
X103018413Y-83748443D01*
X103018412Y-83748443D01*
X102816243Y-83682754D01*
X102816241Y-83682753D01*
X102816240Y-83682753D01*
X102654957Y-83657208D01*
X102606287Y-83649500D01*
X102393713Y-83649500D01*
X102345042Y-83657208D01*
X102183760Y-83682753D01*
X101981585Y-83748444D01*
X101792179Y-83844951D01*
X101620213Y-83969890D01*
X101469890Y-84120213D01*
X101344951Y-84292179D01*
X101248444Y-84481585D01*
X101182753Y-84683760D01*
X101149500Y-84893713D01*
X95307028Y-84893713D01*
X95311347Y-84889971D01*
X95405567Y-84781237D01*
X95465338Y-84650360D01*
X95485023Y-84583321D01*
X95485024Y-84583317D01*
X95505500Y-84440901D01*
X95505500Y-83624000D01*
X95493947Y-83516544D01*
X95482741Y-83465033D01*
X95467364Y-83418833D01*
X95448616Y-83362502D01*
X95448613Y-83362496D01*
X95370828Y-83241462D01*
X95370825Y-83241457D01*
X95370820Y-83241451D01*
X95325076Y-83188659D01*
X95325072Y-83188656D01*
X95325070Y-83188653D01*
X95216336Y-83094433D01*
X95216333Y-83094431D01*
X95216331Y-83094430D01*
X95085465Y-83034664D01*
X95085460Y-83034662D01*
X95085459Y-83034662D01*
X95018420Y-83014977D01*
X95018422Y-83014977D01*
X95018417Y-83014976D01*
X94956347Y-83006052D01*
X94876000Y-82994500D01*
X93129500Y-82994500D01*
X93129491Y-82994500D01*
X93129490Y-82994501D01*
X93022049Y-83006052D01*
X93022037Y-83006054D01*
X92970527Y-83017260D01*
X92867999Y-83051385D01*
X92822797Y-83080434D01*
X92755757Y-83100117D01*
X92704247Y-83088911D01*
X92585465Y-83034664D01*
X92585460Y-83034662D01*
X92585459Y-83034662D01*
X92518420Y-83014977D01*
X92518422Y-83014977D01*
X92518417Y-83014976D01*
X92456347Y-83006052D01*
X92376000Y-82994500D01*
X80848003Y-82994500D01*
X80847999Y-82994500D01*
X80722989Y-83010202D01*
X80722983Y-83010203D01*
X80663567Y-83025368D01*
X80546307Y-83071505D01*
X80431138Y-83157721D01*
X80431125Y-83157732D01*
X80406425Y-83182433D01*
X80381725Y-83207134D01*
X80381724Y-83207134D01*
X80381720Y-83207139D01*
X80295500Y-83322318D01*
X80259503Y-83418833D01*
X80217632Y-83474767D01*
X80152168Y-83499184D01*
X80143321Y-83499500D01*
X78602129Y-83499500D01*
X78602123Y-83499501D01*
X78542516Y-83505908D01*
X78407671Y-83556202D01*
X78407664Y-83556206D01*
X78292455Y-83642452D01*
X78292452Y-83642455D01*
X78206206Y-83757664D01*
X78206202Y-83757671D01*
X78155908Y-83892517D01*
X78149501Y-83952116D01*
X78149500Y-83952135D01*
X78149500Y-86047870D01*
X78149501Y-86047876D01*
X78155908Y-86107483D01*
X78206202Y-86242328D01*
X78206206Y-86242335D01*
X78292452Y-86357544D01*
X78292455Y-86357547D01*
X78407664Y-86443793D01*
X78407671Y-86443797D01*
X78542517Y-86494091D01*
X78542516Y-86494091D01*
X78549444Y-86494835D01*
X78602127Y-86500500D01*
X80142336Y-86500499D01*
X80209375Y-86520184D01*
X80255130Y-86572987D01*
X80261313Y-86589563D01*
X80275390Y-86637503D01*
X80275392Y-86637507D01*
X80353174Y-86758537D01*
X80353182Y-86758548D01*
X80398926Y-86811340D01*
X80398929Y-86811343D01*
X80398933Y-86811347D01*
X80507667Y-86905567D01*
X80638544Y-86965338D01*
X80705583Y-86985023D01*
X80705587Y-86985024D01*
X80848003Y-87005500D01*
X85995033Y-87005500D01*
X86062072Y-87025185D01*
X86107827Y-87077989D01*
X86116080Y-87102601D01*
X86681856Y-89648601D01*
X86677183Y-89718314D01*
X86635562Y-89774434D01*
X86570208Y-89799143D01*
X86560809Y-89799500D01*
X86099998Y-89799500D01*
X86099980Y-89799501D01*
X85997203Y-89810000D01*
X85997200Y-89810001D01*
X85830668Y-89865185D01*
X85830663Y-89865187D01*
X85681342Y-89957289D01*
X85557289Y-90081342D01*
X85465187Y-90230663D01*
X85465185Y-90230668D01*
X85448616Y-90280671D01*
X85410001Y-90397203D01*
X85410001Y-90397204D01*
X85410000Y-90397204D01*
X85399500Y-90499983D01*
X85399500Y-91109902D01*
X85379815Y-91176941D01*
X85363181Y-91197583D01*
X81437584Y-95123181D01*
X81376261Y-95156666D01*
X81349903Y-95159500D01*
X80559298Y-95159500D01*
X80522432Y-95162401D01*
X80522426Y-95162402D01*
X80364606Y-95208254D01*
X80364603Y-95208255D01*
X80223137Y-95291917D01*
X80223129Y-95291923D01*
X80106923Y-95408129D01*
X80106917Y-95408137D01*
X80023255Y-95549603D01*
X80023254Y-95549606D01*
X79977402Y-95707426D01*
X79977401Y-95707432D01*
X79974500Y-95744298D01*
X79974500Y-96175701D01*
X79977401Y-96212567D01*
X79977402Y-96212573D01*
X80023254Y-96370393D01*
X80023255Y-96370396D01*
X80106917Y-96511862D01*
X80111702Y-96518031D01*
X80109256Y-96519927D01*
X80135857Y-96568642D01*
X80130873Y-96638334D01*
X80110069Y-96670703D01*
X80111702Y-96671969D01*
X80106917Y-96678137D01*
X80023255Y-96819603D01*
X80023254Y-96819606D01*
X79977402Y-96977426D01*
X79977401Y-96977432D01*
X79974500Y-97014298D01*
X79974500Y-97370500D01*
X79954815Y-97437539D01*
X79902011Y-97483294D01*
X79850500Y-97494500D01*
X79624000Y-97494500D01*
X79623991Y-97494500D01*
X79623990Y-97494501D01*
X79516549Y-97506052D01*
X79516537Y-97506054D01*
X79465027Y-97517260D01*
X79362502Y-97551383D01*
X79362496Y-97551386D01*
X79241462Y-97629171D01*
X79241451Y-97629179D01*
X79188659Y-97674923D01*
X79094433Y-97783664D01*
X79094430Y-97783668D01*
X79034664Y-97914534D01*
X79024798Y-97948135D01*
X79014977Y-97981580D01*
X79014976Y-97981584D01*
X78994500Y-98124000D01*
X78994500Y-99376000D01*
X78994501Y-99376009D01*
X79006052Y-99483450D01*
X79006054Y-99483462D01*
X79017260Y-99534972D01*
X79051383Y-99637497D01*
X79051386Y-99637503D01*
X79096988Y-99708460D01*
X79116673Y-99775500D01*
X79096989Y-99842539D01*
X79044185Y-99888294D01*
X78992673Y-99899500D01*
X72874901Y-99899500D01*
X72807862Y-99879815D01*
X72769362Y-99840596D01*
X72745340Y-99801650D01*
X72623351Y-99679661D01*
X72623350Y-99679660D01*
X72489661Y-99597200D01*
X72476518Y-99589093D01*
X72476513Y-99589091D01*
X72475069Y-99588612D01*
X72312753Y-99534826D01*
X72312751Y-99534825D01*
X72211684Y-99524500D01*
X72211677Y-99524500D01*
X71837597Y-99524500D01*
X71770558Y-99504815D01*
X71749916Y-99488181D01*
X70811819Y-98550084D01*
X70778334Y-98488761D01*
X70775500Y-98462403D01*
X70775500Y-96957610D01*
X70795185Y-96890571D01*
X70818098Y-96864070D01*
X70825754Y-96857406D01*
X70885850Y-96820340D01*
X71003222Y-96702967D01*
X71006451Y-96700158D01*
X71034448Y-96687299D01*
X71061494Y-96672532D01*
X71065916Y-96672848D01*
X71069945Y-96670998D01*
X71100454Y-96675318D01*
X71131186Y-96677516D01*
X71135484Y-96680278D01*
X71139124Y-96680794D01*
X71147408Y-96687941D01*
X71175534Y-96706017D01*
X71289461Y-96819944D01*
X71289465Y-96819947D01*
X71436188Y-96910448D01*
X71436199Y-96910453D01*
X71599847Y-96964680D01*
X71700851Y-96974999D01*
X71749999Y-96974998D01*
X71750000Y-96974998D01*
X71750000Y-95025000D01*
X71749999Y-95024999D01*
X71700861Y-95025000D01*
X71700843Y-95025001D01*
X71599847Y-95035319D01*
X71436199Y-95089546D01*
X71436188Y-95089551D01*
X71289465Y-95180052D01*
X71175534Y-95293983D01*
X71114211Y-95327467D01*
X71044519Y-95322483D01*
X71000172Y-95293982D01*
X70885851Y-95179661D01*
X70885850Y-95179660D01*
X70756727Y-95100016D01*
X70739018Y-95089093D01*
X70739013Y-95089091D01*
X70737569Y-95088612D01*
X70575253Y-95034826D01*
X70575251Y-95034825D01*
X70474178Y-95024500D01*
X69875830Y-95024500D01*
X69875812Y-95024501D01*
X69774747Y-95034825D01*
X69610984Y-95089092D01*
X69610981Y-95089093D01*
X69464148Y-95179661D01*
X69342161Y-95301648D01*
X69251593Y-95448481D01*
X69251592Y-95448484D01*
X69197326Y-95612247D01*
X69197326Y-95612248D01*
X69197325Y-95612248D01*
X69187000Y-95713315D01*
X69187000Y-96286669D01*
X69187001Y-96286687D01*
X69197325Y-96387752D01*
X69217335Y-96448137D01*
X69251592Y-96551516D01*
X69342160Y-96698350D01*
X69464150Y-96820340D01*
X69515597Y-96852072D01*
X69562321Y-96904017D01*
X69574500Y-96957610D01*
X69574500Y-98675830D01*
X69574499Y-98675848D01*
X69574499Y-98841554D01*
X69574498Y-98841554D01*
X69577229Y-98851745D01*
X69615423Y-98994285D01*
X69615424Y-98994287D01*
X69615423Y-98994287D01*
X69624497Y-99010002D01*
X69624498Y-99010003D01*
X69694477Y-99131212D01*
X69694481Y-99131217D01*
X69813349Y-99250085D01*
X69813355Y-99250090D01*
X69876084Y-99312819D01*
X69909569Y-99374142D01*
X69904585Y-99443834D01*
X69862713Y-99499767D01*
X69797249Y-99524184D01*
X69788441Y-99524500D01*
X69788349Y-99524500D01*
X69788312Y-99524501D01*
X69687247Y-99534825D01*
X69523484Y-99589092D01*
X69523474Y-99589097D01*
X69481317Y-99615099D01*
X69413925Y-99633538D01*
X69347262Y-99612614D01*
X69335022Y-99603273D01*
X69324822Y-99594435D01*
X69324814Y-99594430D01*
X69193948Y-99534664D01*
X69193943Y-99534662D01*
X69193942Y-99534662D01*
X69144009Y-99520000D01*
X69126900Y-99514976D01*
X69064830Y-99506052D01*
X68984483Y-99494500D01*
X64624000Y-99494500D01*
X64623991Y-99494500D01*
X64623990Y-99494501D01*
X64516549Y-99506052D01*
X64516537Y-99506054D01*
X64465027Y-99517260D01*
X64362502Y-99551383D01*
X64362496Y-99551386D01*
X64241462Y-99629171D01*
X64241451Y-99629179D01*
X64205702Y-99660156D01*
X64142147Y-99689181D01*
X64072988Y-99679237D01*
X64020184Y-99633482D01*
X64000500Y-99566443D01*
X64000500Y-93931724D01*
X64020185Y-93864685D01*
X64072989Y-93818930D01*
X64142147Y-93808986D01*
X64205699Y-93838009D01*
X64283447Y-93905379D01*
X64283664Y-93905567D01*
X64283668Y-93905569D01*
X64390866Y-93954526D01*
X64414541Y-93965338D01*
X64481580Y-93985023D01*
X64481584Y-93985024D01*
X64624000Y-94005500D01*
X64624003Y-94005500D01*
X65070953Y-94005500D01*
X65070967Y-94005500D01*
X65128582Y-94002206D01*
X65156667Y-93998984D01*
X65170255Y-93996632D01*
X65213540Y-93989143D01*
X65213540Y-93989142D01*
X65213544Y-93989142D01*
X65347621Y-93936941D01*
X65398415Y-93908256D01*
X65404835Y-93905379D01*
X65408460Y-93902584D01*
X65408461Y-93902584D01*
X65522401Y-93814724D01*
X65606971Y-93698322D01*
X65639577Y-93636527D01*
X65656730Y-93588451D01*
X65697798Y-93531928D01*
X65762907Y-93506579D01*
X65792914Y-93507650D01*
X65874038Y-93520500D01*
X65874039Y-93520500D01*
X66125959Y-93520500D01*
X66125962Y-93520500D01*
X66205685Y-93507872D01*
X66274975Y-93516826D01*
X66328427Y-93561821D01*
X66344057Y-93595407D01*
X66356131Y-93636528D01*
X66356418Y-93637503D01*
X66356420Y-93637507D01*
X66434202Y-93758537D01*
X66434208Y-93758546D01*
X66479954Y-93811340D01*
X66479957Y-93811343D01*
X66479961Y-93811347D01*
X66588695Y-93905567D01*
X66588698Y-93905568D01*
X66588699Y-93905569D01*
X66695897Y-93954526D01*
X66719572Y-93965338D01*
X66786611Y-93985023D01*
X66786615Y-93985024D01*
X66929031Y-94005500D01*
X66929034Y-94005500D01*
X67375990Y-94005500D01*
X67376000Y-94005500D01*
X67483456Y-93993947D01*
X67534967Y-93982741D01*
X67569197Y-93971347D01*
X67637497Y-93948616D01*
X67637501Y-93948613D01*
X67637504Y-93948613D01*
X67758543Y-93870825D01*
X67811347Y-93825070D01*
X67905567Y-93716336D01*
X67965338Y-93585459D01*
X67985023Y-93518420D01*
X67985024Y-93518416D01*
X68005500Y-93376000D01*
X68005500Y-92959141D01*
X68002204Y-92901511D01*
X67998981Y-92873425D01*
X67989141Y-92816563D01*
X67989140Y-92816561D01*
X67989140Y-92816559D01*
X67943758Y-92699998D01*
X67936940Y-92682486D01*
X67902583Y-92621647D01*
X67902579Y-92621640D01*
X67814718Y-92507702D01*
X67698315Y-92423133D01*
X67698310Y-92423130D01*
X67632603Y-92388461D01*
X67633465Y-92386826D01*
X67585881Y-92346741D01*
X67565265Y-92279982D01*
X67566780Y-92258858D01*
X67566883Y-92258211D01*
X67600500Y-92045962D01*
X67600500Y-91794038D01*
X67592882Y-91745940D01*
X67574212Y-91628063D01*
X67576869Y-91607495D01*
X67574614Y-91586879D01*
X67581257Y-91573544D01*
X67583167Y-91558769D01*
X67596523Y-91542902D01*
X67605771Y-91524341D01*
X67622195Y-91512405D01*
X67628163Y-91505317D01*
X67633210Y-91502143D01*
X67638728Y-91498854D01*
X67715959Y-91463082D01*
X67774534Y-91424992D01*
X67774534Y-91424991D01*
X67882764Y-91330187D01*
X70695381Y-88048802D01*
X70753956Y-88010712D01*
X70789529Y-88005500D01*
X73767133Y-88005500D01*
X73834172Y-88025185D01*
X73847831Y-88035352D01*
X75754105Y-89669301D01*
X76425170Y-90244500D01*
X76531872Y-90335959D01*
X76723251Y-90499998D01*
X76951198Y-90695380D01*
X76989288Y-90753954D01*
X76994500Y-90789528D01*
X76994500Y-91739254D01*
X76974815Y-91806293D01*
X76958181Y-91826935D01*
X75678892Y-93106223D01*
X75678855Y-93106262D01*
X75642728Y-93146480D01*
X75642718Y-93146492D01*
X75626076Y-93167143D01*
X75594433Y-93211025D01*
X75534663Y-93341899D01*
X75514976Y-93408944D01*
X75494500Y-93551363D01*
X75494500Y-94377282D01*
X75474815Y-94444321D01*
X75422011Y-94490076D01*
X75352855Y-94500020D01*
X75314461Y-94494500D01*
X75314458Y-94494500D01*
X74624000Y-94494500D01*
X74623991Y-94494500D01*
X74623990Y-94494501D01*
X74516549Y-94506052D01*
X74516537Y-94506054D01*
X74465027Y-94517260D01*
X74362502Y-94551383D01*
X74362496Y-94551386D01*
X74241462Y-94629171D01*
X74241451Y-94629179D01*
X74188648Y-94674932D01*
X74186936Y-94676645D01*
X74186223Y-94677033D01*
X74185305Y-94677830D01*
X74185131Y-94677630D01*
X74125610Y-94710124D01*
X74055918Y-94705132D01*
X73999989Y-94663255D01*
X73991876Y-94650954D01*
X73983715Y-94636819D01*
X73980520Y-94631284D01*
X72987589Y-93638354D01*
X72987588Y-93638352D01*
X72868717Y-93519481D01*
X72868716Y-93519480D01*
X72781904Y-93469360D01*
X72781904Y-93469359D01*
X72781900Y-93469358D01*
X72731785Y-93440423D01*
X72579057Y-93399499D01*
X72420943Y-93399499D01*
X72413347Y-93399499D01*
X72413331Y-93399500D01*
X70800098Y-93399500D01*
X70770657Y-93390855D01*
X70740671Y-93384332D01*
X70735655Y-93380577D01*
X70733059Y-93379815D01*
X70712417Y-93363181D01*
X70636819Y-93287583D01*
X70603334Y-93226260D01*
X70600500Y-93199902D01*
X70600500Y-93050490D01*
X70620185Y-92983451D01*
X70672989Y-92937696D01*
X70685486Y-92932788D01*
X70751516Y-92910908D01*
X70898350Y-92820340D01*
X70912671Y-92806018D01*
X70973989Y-92772533D01*
X71043681Y-92777514D01*
X71088034Y-92806017D01*
X71101961Y-92819944D01*
X71101965Y-92819947D01*
X71248688Y-92910448D01*
X71248699Y-92910453D01*
X71412347Y-92964680D01*
X71513351Y-92974999D01*
X72112500Y-92974999D01*
X72211640Y-92974999D01*
X72211654Y-92974998D01*
X72312652Y-92964680D01*
X72476300Y-92910453D01*
X72476311Y-92910448D01*
X72623034Y-92819947D01*
X72623038Y-92819944D01*
X72744944Y-92698038D01*
X72744947Y-92698034D01*
X72835448Y-92551311D01*
X72835453Y-92551300D01*
X72889680Y-92387652D01*
X72899999Y-92286654D01*
X72900000Y-92286641D01*
X72900000Y-92250000D01*
X72112500Y-92250000D01*
X72112500Y-92974999D01*
X71513351Y-92974999D01*
X71612500Y-92974998D01*
X71612500Y-91750000D01*
X72112500Y-91750000D01*
X72899999Y-91750000D01*
X72899999Y-91713360D01*
X72899998Y-91713345D01*
X72889680Y-91612347D01*
X72835453Y-91448699D01*
X72835448Y-91448688D01*
X72744947Y-91301965D01*
X72744944Y-91301961D01*
X72623038Y-91180055D01*
X72623034Y-91180052D01*
X72476311Y-91089551D01*
X72476300Y-91089546D01*
X72312652Y-91035319D01*
X72211654Y-91025000D01*
X72112500Y-91025000D01*
X72112500Y-91750000D01*
X71612500Y-91750000D01*
X71612500Y-91024999D01*
X71513360Y-91025000D01*
X71513344Y-91025001D01*
X71412347Y-91035319D01*
X71248699Y-91089546D01*
X71248688Y-91089551D01*
X71101965Y-91180052D01*
X71088032Y-91193985D01*
X71026708Y-91227468D01*
X70957016Y-91222482D01*
X70912672Y-91193982D01*
X70898351Y-91179661D01*
X70898350Y-91179660D01*
X70807129Y-91123395D01*
X70751518Y-91089093D01*
X70751513Y-91089091D01*
X70750069Y-91088612D01*
X70587753Y-91034826D01*
X70587751Y-91034825D01*
X70486678Y-91024500D01*
X69788330Y-91024500D01*
X69788312Y-91024501D01*
X69687247Y-91034825D01*
X69523484Y-91089092D01*
X69523481Y-91089093D01*
X69376648Y-91179661D01*
X69254661Y-91301648D01*
X69164093Y-91448481D01*
X69164091Y-91448486D01*
X69139216Y-91523554D01*
X69109826Y-91612247D01*
X69109826Y-91612248D01*
X69109825Y-91612248D01*
X69099500Y-91713315D01*
X69099500Y-92286669D01*
X69099501Y-92286687D01*
X69109825Y-92387752D01*
X69126283Y-92437417D01*
X69164020Y-92551300D01*
X69164092Y-92551515D01*
X69164093Y-92551518D01*
X69185395Y-92586054D01*
X69213188Y-92631114D01*
X69254661Y-92698351D01*
X69363181Y-92806871D01*
X69396666Y-92868194D01*
X69399500Y-92894552D01*
X69399500Y-93413330D01*
X69399499Y-93413348D01*
X69399499Y-93579054D01*
X69399498Y-93579054D01*
X69413493Y-93631284D01*
X69440423Y-93731785D01*
X69440424Y-93731786D01*
X69455871Y-93758543D01*
X69455872Y-93758544D01*
X69519475Y-93868709D01*
X69519479Y-93868714D01*
X69519480Y-93868716D01*
X69631284Y-93980520D01*
X69631285Y-93980521D01*
X70131284Y-94480520D01*
X70131286Y-94480521D01*
X70131290Y-94480524D01*
X70254030Y-94551387D01*
X70268216Y-94559577D01*
X70420943Y-94600501D01*
X70420945Y-94600501D01*
X70586654Y-94600501D01*
X70586670Y-94600500D01*
X72199903Y-94600500D01*
X72266942Y-94620185D01*
X72287584Y-94636819D01*
X72472155Y-94821390D01*
X72505640Y-94882713D01*
X72500656Y-94952405D01*
X72458784Y-95008338D01*
X72393320Y-95032755D01*
X72371872Y-95032429D01*
X72299156Y-95025000D01*
X72250000Y-95025000D01*
X72250000Y-96974999D01*
X72299140Y-96974999D01*
X72299154Y-96974998D01*
X72400152Y-96964680D01*
X72563800Y-96910453D01*
X72563807Y-96910450D01*
X72710402Y-96820028D01*
X72777795Y-96801587D01*
X72844458Y-96822509D01*
X72889228Y-96876151D01*
X72899500Y-96925566D01*
X72899500Y-97413330D01*
X72899499Y-97413348D01*
X72899499Y-97579054D01*
X72899498Y-97579054D01*
X72899499Y-97579057D01*
X72940423Y-97731785D01*
X72940424Y-97731787D01*
X72940423Y-97731787D01*
X72949184Y-97746960D01*
X72949185Y-97746961D01*
X73019477Y-97868712D01*
X73019481Y-97868717D01*
X73138349Y-97987585D01*
X73138354Y-97987589D01*
X74131284Y-98980520D01*
X74131286Y-98980521D01*
X74131290Y-98980524D01*
X74267618Y-99059232D01*
X74268216Y-99059577D01*
X74420943Y-99100501D01*
X74420945Y-99100501D01*
X74586654Y-99100501D01*
X74586670Y-99100500D01*
X75009674Y-99100500D01*
X75076713Y-99120185D01*
X75122468Y-99172989D01*
X75132412Y-99242147D01*
X75116406Y-99287621D01*
X75073718Y-99359801D01*
X75027899Y-99517513D01*
X75027704Y-99519998D01*
X75027705Y-99520000D01*
X77972295Y-99520000D01*
X77972295Y-99519998D01*
X77972100Y-99517513D01*
X77926281Y-99359801D01*
X77842685Y-99218447D01*
X77837900Y-99212278D01*
X77840366Y-99210364D01*
X77813802Y-99161776D01*
X77818749Y-99092082D01*
X77839856Y-99059232D01*
X77838301Y-99058026D01*
X77843077Y-99051868D01*
X77843081Y-99051865D01*
X77926744Y-98910398D01*
X77968672Y-98766083D01*
X77972597Y-98752573D01*
X77972598Y-98752567D01*
X77975499Y-98715701D01*
X77975500Y-98715694D01*
X77975500Y-98284306D01*
X77972598Y-98247431D01*
X77926744Y-98089602D01*
X77843081Y-97948135D01*
X77843078Y-97948132D01*
X77838298Y-97941969D01*
X77840635Y-97940155D01*
X77813798Y-97891050D01*
X77818756Y-97821356D01*
X77839554Y-97788998D01*
X77837903Y-97787717D01*
X77842686Y-97781550D01*
X77926281Y-97640198D01*
X77972100Y-97482486D01*
X77972295Y-97480001D01*
X77972295Y-97480000D01*
X75027705Y-97480000D01*
X75027704Y-97480001D01*
X75027899Y-97482486D01*
X75073718Y-97640198D01*
X75116406Y-97712379D01*
X75118061Y-97718903D01*
X75122468Y-97723989D01*
X75126543Y-97752335D01*
X75133589Y-97780103D01*
X75131454Y-97786486D01*
X75132412Y-97793147D01*
X75120513Y-97819201D01*
X75111429Y-97846365D01*
X75106183Y-97850579D01*
X75103387Y-97856703D01*
X75079289Y-97872189D01*
X75056963Y-97890129D01*
X75048883Y-97891730D01*
X75044609Y-97894477D01*
X75009674Y-97899500D01*
X74800098Y-97899500D01*
X74733059Y-97879815D01*
X74712417Y-97863181D01*
X74136819Y-97287583D01*
X74103334Y-97226260D01*
X74100500Y-97199902D01*
X74100500Y-97014866D01*
X74120185Y-96947827D01*
X74172989Y-96902072D01*
X74242147Y-96892128D01*
X74276013Y-96902072D01*
X74283662Y-96905565D01*
X74283664Y-96905567D01*
X74414541Y-96965338D01*
X74481580Y-96985023D01*
X74481584Y-96985024D01*
X74624000Y-97005500D01*
X74624003Y-97005500D01*
X74946278Y-97005500D01*
X74952165Y-97005293D01*
X74981612Y-97004263D01*
X74998908Y-97003051D01*
X75034082Y-96999346D01*
X75069148Y-96989158D01*
X75083728Y-96984923D01*
X75118321Y-96980000D01*
X77972295Y-96980000D01*
X77972295Y-96979998D01*
X77972100Y-96977513D01*
X77926281Y-96819801D01*
X77842685Y-96678447D01*
X77837900Y-96672278D01*
X77840366Y-96670364D01*
X77813802Y-96621776D01*
X77818749Y-96552082D01*
X77839856Y-96519232D01*
X77838301Y-96518026D01*
X77843077Y-96511868D01*
X77843081Y-96511865D01*
X77926744Y-96370398D01*
X77972598Y-96212569D01*
X77975500Y-96175694D01*
X77975500Y-95979404D01*
X77995185Y-95912365D01*
X78047989Y-95866610D01*
X78064558Y-95860429D01*
X78137504Y-95839011D01*
X78258543Y-95761223D01*
X78311347Y-95715468D01*
X78405567Y-95606734D01*
X78465338Y-95475857D01*
X78485023Y-95408818D01*
X78485024Y-95408814D01*
X78505500Y-95266398D01*
X78505500Y-94629500D01*
X78525185Y-94562461D01*
X78577989Y-94516706D01*
X78629500Y-94505500D01*
X80875990Y-94505500D01*
X80876000Y-94505500D01*
X80983456Y-94493947D01*
X81034967Y-94482741D01*
X81069197Y-94471347D01*
X81137497Y-94448616D01*
X81137501Y-94448613D01*
X81137504Y-94448613D01*
X81258543Y-94370825D01*
X81311347Y-94325070D01*
X81405567Y-94216336D01*
X81465338Y-94085459D01*
X81485023Y-94018420D01*
X81485024Y-94018416D01*
X81505500Y-93876000D01*
X81505500Y-92338601D01*
X81502603Y-92284559D01*
X81499769Y-92258202D01*
X81499652Y-92257483D01*
X81491115Y-92204799D01*
X81491114Y-92204794D01*
X81440839Y-92069998D01*
X81440835Y-92069989D01*
X81438212Y-92065185D01*
X81407351Y-92008666D01*
X81407350Y-92008664D01*
X81407348Y-92008661D01*
X81321130Y-91893485D01*
X81321126Y-91893481D01*
X81205947Y-91807256D01*
X81144640Y-91773779D01*
X81144630Y-91773774D01*
X81144626Y-91773772D01*
X81144622Y-91773770D01*
X81144617Y-91773768D01*
X81144607Y-91773763D01*
X81009821Y-91723489D01*
X81009814Y-91723488D01*
X80997819Y-91722630D01*
X80965651Y-91720329D01*
X80900187Y-91695911D01*
X80858317Y-91639977D01*
X80850499Y-91596645D01*
X80850499Y-90403409D01*
X80870184Y-90336370D01*
X80922988Y-90290615D01*
X80956845Y-90280672D01*
X80999455Y-90274546D01*
X81137504Y-90234011D01*
X81258543Y-90156223D01*
X81311347Y-90110468D01*
X81405567Y-90001734D01*
X81465338Y-89870857D01*
X81485023Y-89803818D01*
X81485024Y-89803814D01*
X81505500Y-89661398D01*
X81505500Y-89563813D01*
X81496433Y-89468503D01*
X81487617Y-89422584D01*
X81460748Y-89330705D01*
X81388990Y-89205996D01*
X81346670Y-89152019D01*
X81346002Y-89151148D01*
X81345878Y-89151009D01*
X81241891Y-89051569D01*
X81241890Y-89051568D01*
X74326148Y-84111752D01*
X74315892Y-84104616D01*
X74310861Y-84101207D01*
X74300598Y-84094433D01*
X74218160Y-84056783D01*
X74169724Y-84034663D01*
X74102679Y-84014976D01*
X74055206Y-84008150D01*
X73960262Y-83994500D01*
X69558078Y-83994500D01*
X69481320Y-84000362D01*
X69481315Y-84000362D01*
X69444100Y-84006080D01*
X69444075Y-84006085D01*
X69369138Y-84023523D01*
X69369130Y-84023525D01*
X69239431Y-84085802D01*
X69239429Y-84085803D01*
X69226552Y-84094433D01*
X69181387Y-84124702D01*
X69181378Y-84124710D01*
X69074483Y-84221002D01*
X69074480Y-84221006D01*
X68701566Y-84668503D01*
X68009177Y-85499370D01*
X67951138Y-85538269D01*
X67881281Y-85539615D01*
X67821786Y-85502979D01*
X67791543Y-85439995D01*
X67795986Y-85381672D01*
X67817246Y-85316243D01*
X67850500Y-85106287D01*
X67850500Y-84893713D01*
X67817246Y-84683757D01*
X67751557Y-84481588D01*
X67655051Y-84292184D01*
X67655049Y-84292181D01*
X67655048Y-84292179D01*
X67530109Y-84120213D01*
X67379786Y-83969890D01*
X67207820Y-83844951D01*
X67018414Y-83748444D01*
X67018413Y-83748443D01*
X67018412Y-83748443D01*
X66816243Y-83682754D01*
X66816241Y-83682753D01*
X66816240Y-83682753D01*
X66654957Y-83657208D01*
X66606287Y-83649500D01*
X66393713Y-83649500D01*
X66345042Y-83657208D01*
X66183760Y-83682753D01*
X65981585Y-83748444D01*
X65792179Y-83844951D01*
X65620213Y-83969890D01*
X65469890Y-84120213D01*
X65344951Y-84292179D01*
X65248444Y-84481585D01*
X65182753Y-84683760D01*
X65149500Y-84893713D01*
X65149500Y-85106286D01*
X65170229Y-85237168D01*
X65182754Y-85316243D01*
X65243428Y-85502979D01*
X65248444Y-85518414D01*
X65344951Y-85707820D01*
X65469890Y-85879786D01*
X65620213Y-86030109D01*
X65792179Y-86155048D01*
X65792181Y-86155049D01*
X65792184Y-86155051D01*
X65981588Y-86251557D01*
X66183757Y-86317246D01*
X66393713Y-86350500D01*
X66393714Y-86350500D01*
X66606286Y-86350500D01*
X66606287Y-86350500D01*
X66816243Y-86317246D01*
X67018412Y-86251557D01*
X67112549Y-86203591D01*
X67181217Y-86190696D01*
X67245957Y-86216972D01*
X67286215Y-86274078D01*
X67289207Y-86343884D01*
X67264103Y-86393459D01*
X67021762Y-86684269D01*
X64219759Y-90046671D01*
X64161720Y-90085570D01*
X64091863Y-90086916D01*
X64032368Y-90050280D01*
X64002125Y-89987296D01*
X64000500Y-89967288D01*
X64000500Y-85003750D01*
X64000726Y-84996263D01*
X64012226Y-84806147D01*
X64018271Y-84706201D01*
X64020076Y-84691340D01*
X64065972Y-84440898D01*
X64071780Y-84409197D01*
X64075364Y-84394663D01*
X64107298Y-84292184D01*
X64160696Y-84120822D01*
X64165998Y-84106841D01*
X64283731Y-83845249D01*
X64290676Y-83832016D01*
X64439080Y-83586526D01*
X64447567Y-83574230D01*
X64624480Y-83348417D01*
X64634395Y-83337226D01*
X64837226Y-83134395D01*
X64848417Y-83124480D01*
X65074230Y-82947567D01*
X65086526Y-82939080D01*
X65332016Y-82790676D01*
X65345249Y-82783731D01*
X65606841Y-82665998D01*
X65620822Y-82660696D01*
X65894668Y-82575362D01*
X65909197Y-82571780D01*
X66191344Y-82520075D01*
X66206201Y-82518271D01*
X66496264Y-82500726D01*
X66503751Y-82500500D01*
X66565892Y-82500500D01*
X102434108Y-82500500D01*
X102496249Y-82500500D01*
X102503736Y-82500726D01*
G37*
%TD.AperFunction*%
%TD*%
%TA.AperFunction,Conductor*%
%TO.N,VCC*%
G36*
X77705203Y-107758093D02*
G01*
X77741041Y-107810851D01*
X77779192Y-107919881D01*
X77779198Y-107919895D01*
X77896152Y-108162752D01*
X78039568Y-108390998D01*
X78135346Y-108511099D01*
X78884728Y-107761716D01*
X78970278Y-107879466D01*
X79120534Y-108029722D01*
X79238281Y-108115270D01*
X78488899Y-108864652D01*
X78488900Y-108864653D01*
X78608993Y-108960427D01*
X78608997Y-108960429D01*
X78837247Y-109103847D01*
X79080104Y-109220801D01*
X79080118Y-109220807D01*
X79189149Y-109258959D01*
X79245925Y-109299680D01*
X79271672Y-109364633D01*
X79258216Y-109433195D01*
X79209828Y-109483597D01*
X79148194Y-109500000D01*
X77624000Y-109500000D01*
X77556961Y-109480315D01*
X77511206Y-109427511D01*
X77500000Y-109376000D01*
X77500000Y-107851806D01*
X77519685Y-107784767D01*
X77572489Y-107739012D01*
X77641647Y-107729068D01*
X77705203Y-107758093D01*
G37*
%TD.AperFunction*%
%TA.AperFunction,Conductor*%
G36*
X82170406Y-105502244D02*
G01*
X83000000Y-106000000D01*
X87234640Y-106000000D01*
X87301679Y-106019685D01*
X87347434Y-106072489D01*
X87357378Y-106141647D01*
X87352346Y-106163004D01*
X87307843Y-106297302D01*
X87307842Y-106297309D01*
X87297349Y-106400013D01*
X87297349Y-106750000D01*
X88281663Y-106750000D01*
X88277269Y-106754394D01*
X88224608Y-106845606D01*
X88197349Y-106947339D01*
X88197349Y-107052661D01*
X88224608Y-107154394D01*
X88277269Y-107245606D01*
X88281663Y-107250000D01*
X87297350Y-107250000D01*
X87297350Y-107599986D01*
X87307843Y-107702697D01*
X87362990Y-107869119D01*
X87362992Y-107869124D01*
X87455033Y-108018345D01*
X87579003Y-108142315D01*
X87728224Y-108234356D01*
X87728229Y-108234358D01*
X87894651Y-108289505D01*
X87894658Y-108289506D01*
X87997368Y-108299999D01*
X88347348Y-108299999D01*
X88347349Y-108299998D01*
X88347349Y-107315686D01*
X88351743Y-107320080D01*
X88442955Y-107372741D01*
X88544688Y-107400000D01*
X88650010Y-107400000D01*
X88751743Y-107372741D01*
X88842955Y-107320080D01*
X88847349Y-107315686D01*
X88847349Y-108299999D01*
X89197321Y-108299999D01*
X89197335Y-108299998D01*
X89300046Y-108289505D01*
X89466468Y-108234358D01*
X89466473Y-108234356D01*
X89615694Y-108142315D01*
X89739666Y-108018343D01*
X89770461Y-107968417D01*
X89822409Y-107921692D01*
X89891371Y-107910469D01*
X89955453Y-107938312D01*
X89994310Y-107996381D01*
X90000000Y-108033513D01*
X90000000Y-109376000D01*
X89980315Y-109443039D01*
X89927511Y-109488794D01*
X89876000Y-109500000D01*
X80851806Y-109500000D01*
X80784767Y-109480315D01*
X80739012Y-109427511D01*
X80729068Y-109358353D01*
X80758093Y-109294797D01*
X80810851Y-109258959D01*
X80919881Y-109220807D01*
X80919895Y-109220801D01*
X81162752Y-109103847D01*
X81390999Y-108960431D01*
X81511098Y-108864653D01*
X81511099Y-108864652D01*
X80761717Y-108115271D01*
X80879466Y-108029722D01*
X81029722Y-107879466D01*
X81115270Y-107761717D01*
X81864652Y-108511099D01*
X81864653Y-108511098D01*
X81960431Y-108390999D01*
X82103847Y-108162752D01*
X82220801Y-107919895D01*
X82220807Y-107919881D01*
X82309832Y-107665463D01*
X82309836Y-107665451D01*
X82369818Y-107402651D01*
X82369821Y-107402633D01*
X82394370Y-107184755D01*
X82399999Y-107134787D01*
X82400000Y-107134783D01*
X82400000Y-106865216D01*
X82399999Y-106865212D01*
X82369821Y-106597366D01*
X82369818Y-106597348D01*
X82309836Y-106334548D01*
X82309832Y-106334536D01*
X82220807Y-106080118D01*
X82220801Y-106080104D01*
X82103847Y-105837247D01*
X82001615Y-105674545D01*
X81982615Y-105607308D01*
X82002983Y-105540473D01*
X82056251Y-105495259D01*
X82125507Y-105486022D01*
X82170406Y-105502244D01*
G37*
%TD.AperFunction*%
%TA.AperFunction,Conductor*%
G36*
X69051522Y-100019685D02*
G01*
X69097277Y-100072489D01*
X69107841Y-100136603D01*
X69100000Y-100213345D01*
X69100000Y-100250000D01*
X69963500Y-100250000D01*
X70030539Y-100269685D01*
X70076294Y-100322489D01*
X70087500Y-100374000D01*
X70087500Y-100500000D01*
X70213500Y-100500000D01*
X70280539Y-100519685D01*
X70326294Y-100572489D01*
X70337500Y-100624000D01*
X70337500Y-101474999D01*
X70386640Y-101474999D01*
X70386654Y-101474998D01*
X70487652Y-101464680D01*
X70651300Y-101410453D01*
X70651311Y-101410448D01*
X70798028Y-101319951D01*
X70799081Y-101319119D01*
X70799940Y-101318772D01*
X70804185Y-101316154D01*
X70804632Y-101316878D01*
X70863874Y-101292973D01*
X70932517Y-101306008D01*
X70983217Y-101354084D01*
X71000000Y-101416379D01*
X71000000Y-102500000D01*
X80376000Y-102500000D01*
X80443039Y-102519685D01*
X80488794Y-102572489D01*
X80500000Y-102624000D01*
X80500000Y-104502393D01*
X80480315Y-104569432D01*
X80427511Y-104615187D01*
X80362117Y-104625613D01*
X80134787Y-104600000D01*
X79865212Y-104600000D01*
X79597366Y-104630178D01*
X79597348Y-104630181D01*
X79334548Y-104690163D01*
X79334536Y-104690167D01*
X79080118Y-104779192D01*
X79080104Y-104779198D01*
X78837247Y-104896152D01*
X78609001Y-105039568D01*
X78488899Y-105135345D01*
X79238282Y-105884728D01*
X79120534Y-105970278D01*
X78970278Y-106120534D01*
X78884728Y-106238282D01*
X78135345Y-105488899D01*
X78039568Y-105609001D01*
X77896152Y-105837247D01*
X77779198Y-106080104D01*
X77779192Y-106080118D01*
X77741041Y-106189148D01*
X77700319Y-106245924D01*
X77635367Y-106271671D01*
X77566805Y-106258215D01*
X77516402Y-106209827D01*
X77500000Y-106148193D01*
X77500000Y-104500000D01*
X64624000Y-104500000D01*
X64556961Y-104480315D01*
X64511206Y-104427511D01*
X64500000Y-104376000D01*
X64500000Y-103632445D01*
X64519685Y-103565406D01*
X64572489Y-103519651D01*
X64641647Y-103509707D01*
X64689097Y-103526907D01*
X64830869Y-103614354D01*
X64830880Y-103614359D01*
X64997302Y-103669505D01*
X65100019Y-103679999D01*
X65749999Y-103679999D01*
X65750000Y-103679998D01*
X65750000Y-102570747D01*
X65787708Y-102592518D01*
X65927591Y-102630000D01*
X66072409Y-102630000D01*
X66212292Y-102592518D01*
X66250000Y-102570747D01*
X66250000Y-103679999D01*
X66899972Y-103679999D01*
X66899986Y-103679998D01*
X67002696Y-103669505D01*
X67002698Y-103669505D01*
X67169119Y-103614359D01*
X67169130Y-103614354D01*
X67318340Y-103522319D01*
X67318344Y-103522316D01*
X67442316Y-103398344D01*
X67442319Y-103398340D01*
X67534354Y-103249130D01*
X67534359Y-103249119D01*
X67589505Y-103082697D01*
X67599999Y-102979986D01*
X67600000Y-102979973D01*
X67600000Y-102330000D01*
X66490748Y-102330000D01*
X66512518Y-102292292D01*
X66550000Y-102152409D01*
X66550000Y-102007591D01*
X66512518Y-101867708D01*
X66490748Y-101830000D01*
X67599999Y-101830000D01*
X67599999Y-101180028D01*
X67599998Y-101180013D01*
X67589505Y-101077303D01*
X67589505Y-101077301D01*
X67534359Y-100910880D01*
X67534354Y-100910869D01*
X67457737Y-100786654D01*
X69100001Y-100786654D01*
X69110319Y-100887652D01*
X69164546Y-101051300D01*
X69164551Y-101051311D01*
X69255052Y-101198034D01*
X69255055Y-101198038D01*
X69376961Y-101319944D01*
X69376965Y-101319947D01*
X69523688Y-101410448D01*
X69523699Y-101410453D01*
X69687347Y-101464680D01*
X69788351Y-101474999D01*
X69837499Y-101474998D01*
X69837500Y-101474998D01*
X69837500Y-100750000D01*
X69100001Y-100750000D01*
X69100001Y-100786654D01*
X67457737Y-100786654D01*
X67443601Y-100763737D01*
X67443600Y-100763736D01*
X67442317Y-100761656D01*
X67318344Y-100637683D01*
X67318340Y-100637680D01*
X67169130Y-100545645D01*
X67169119Y-100545640D01*
X67002697Y-100490494D01*
X66899986Y-100480000D01*
X66250000Y-100480000D01*
X66250000Y-101589252D01*
X66212292Y-101567482D01*
X66072409Y-101530000D01*
X65927591Y-101530000D01*
X65787708Y-101567482D01*
X65750000Y-101589252D01*
X65750000Y-100480000D01*
X65100028Y-100480000D01*
X65100012Y-100480001D01*
X64997303Y-100490494D01*
X64997301Y-100490494D01*
X64830880Y-100545640D01*
X64830875Y-100545642D01*
X64689097Y-100633093D01*
X64621705Y-100651533D01*
X64555041Y-100630611D01*
X64510271Y-100576969D01*
X64500000Y-100527554D01*
X64500000Y-100124000D01*
X64519685Y-100056961D01*
X64572489Y-100011206D01*
X64624000Y-100000000D01*
X68984483Y-100000000D01*
X69051522Y-100019685D01*
G37*
%TD.AperFunction*%
%TD*%
%TA.AperFunction,Conductor*%
%TO.N,Net-(D1-A)*%
G36*
X74027301Y-84519685D02*
G01*
X74032332Y-84523094D01*
X77016059Y-86654328D01*
X80948074Y-89462910D01*
X80991184Y-89517894D01*
X81000000Y-89563813D01*
X81000000Y-89661398D01*
X80980315Y-89728437D01*
X80927511Y-89774192D01*
X80858353Y-89784136D01*
X80794797Y-89755111D01*
X80776734Y-89735710D01*
X80707187Y-89642809D01*
X80592093Y-89556649D01*
X80592086Y-89556645D01*
X80457379Y-89506403D01*
X80457372Y-89506401D01*
X80397844Y-89500000D01*
X79750000Y-89500000D01*
X79750000Y-92500000D01*
X80397828Y-92500000D01*
X80397844Y-92499999D01*
X80457372Y-92493598D01*
X80457379Y-92493596D01*
X80592086Y-92443354D01*
X80592093Y-92443350D01*
X80707187Y-92357190D01*
X80707190Y-92357187D01*
X80776734Y-92264290D01*
X80832668Y-92222419D01*
X80902359Y-92217435D01*
X80963682Y-92250921D01*
X80997166Y-92312244D01*
X81000000Y-92338601D01*
X81000000Y-93876000D01*
X80980315Y-93943039D01*
X80927511Y-93988794D01*
X80876000Y-94000000D01*
X78000000Y-94000000D01*
X78000000Y-95266398D01*
X77980315Y-95333437D01*
X77927511Y-95379192D01*
X77858353Y-95389136D01*
X77794797Y-95360111D01*
X77788319Y-95354079D01*
X77726561Y-95292321D01*
X77726552Y-95292314D01*
X77585196Y-95208717D01*
X77585193Y-95208716D01*
X77427495Y-95162900D01*
X77427489Y-95162899D01*
X77390649Y-95160000D01*
X76750000Y-95160000D01*
X76750000Y-95836000D01*
X76730315Y-95903039D01*
X76677511Y-95948794D01*
X76626000Y-95960000D01*
X76500000Y-95960000D01*
X76500000Y-96086000D01*
X76480315Y-96153039D01*
X76427511Y-96198794D01*
X76376000Y-96210000D01*
X75027705Y-96210000D01*
X75027704Y-96210001D01*
X75027899Y-96212488D01*
X75065353Y-96341406D01*
X75065153Y-96411275D01*
X75027210Y-96469945D01*
X74963572Y-96498788D01*
X74946276Y-96500000D01*
X74624000Y-96500000D01*
X74556961Y-96480315D01*
X74511206Y-96427511D01*
X74500000Y-96376000D01*
X74500000Y-95124000D01*
X74519685Y-95056961D01*
X74572489Y-95011206D01*
X74624000Y-95000000D01*
X75314458Y-95000000D01*
X75381497Y-95019685D01*
X75427252Y-95072489D01*
X75437196Y-95141647D01*
X75408171Y-95205203D01*
X75377579Y-95230732D01*
X75273446Y-95292315D01*
X75273438Y-95292321D01*
X75157321Y-95408438D01*
X75157314Y-95408447D01*
X75073718Y-95549801D01*
X75027899Y-95707513D01*
X75027704Y-95709998D01*
X75027705Y-95710000D01*
X76250000Y-95710000D01*
X76250000Y-95160000D01*
X76124000Y-95160000D01*
X76056961Y-95140315D01*
X76011206Y-95087511D01*
X76000000Y-95036000D01*
X76000000Y-93551362D01*
X76019685Y-93484323D01*
X76036319Y-93463681D01*
X76663596Y-92836404D01*
X77452156Y-92047844D01*
X78150000Y-92047844D01*
X78156401Y-92107372D01*
X78156403Y-92107379D01*
X78206645Y-92242086D01*
X78206649Y-92242093D01*
X78292809Y-92357187D01*
X78292812Y-92357190D01*
X78407906Y-92443350D01*
X78407913Y-92443354D01*
X78542620Y-92493596D01*
X78542627Y-92493598D01*
X78602155Y-92499999D01*
X78602172Y-92500000D01*
X79250000Y-92500000D01*
X79250000Y-91250000D01*
X78150000Y-91250000D01*
X78150000Y-92047844D01*
X77452156Y-92047844D01*
X77500000Y-92000000D01*
X77500000Y-90500000D01*
X76860847Y-89952155D01*
X78150000Y-89952155D01*
X78150000Y-90750000D01*
X79250000Y-90750000D01*
X79250000Y-89500000D01*
X78602155Y-89500000D01*
X78542627Y-89506401D01*
X78542620Y-89506403D01*
X78407913Y-89556645D01*
X78407906Y-89556649D01*
X78292812Y-89642809D01*
X78292809Y-89642812D01*
X78206649Y-89757906D01*
X78206645Y-89757913D01*
X78156403Y-89892620D01*
X78156401Y-89892627D01*
X78150000Y-89952155D01*
X76860847Y-89952155D01*
X74000000Y-87500000D01*
X73999998Y-87500000D01*
X70500001Y-87500000D01*
X70500000Y-87500000D01*
X69099515Y-89133898D01*
X67498960Y-91001212D01*
X67440385Y-91039302D01*
X67370517Y-91039677D01*
X67311537Y-91002219D01*
X67304494Y-90993399D01*
X67294251Y-90979301D01*
X67294250Y-90979300D01*
X66523787Y-91749764D01*
X66512518Y-91707708D01*
X66440110Y-91582292D01*
X66337708Y-91479890D01*
X66212292Y-91407482D01*
X66170232Y-91396212D01*
X66940698Y-90625748D01*
X66838583Y-90551557D01*
X66614184Y-90437219D01*
X66374669Y-90359397D01*
X66125928Y-90320000D01*
X65874072Y-90320000D01*
X65625330Y-90359397D01*
X65385815Y-90437219D01*
X65161413Y-90551559D01*
X65059301Y-90625747D01*
X65059300Y-90625748D01*
X65829765Y-91396212D01*
X65787708Y-91407482D01*
X65662292Y-91479890D01*
X65559890Y-91582292D01*
X65487482Y-91707708D01*
X65476212Y-91749765D01*
X64705748Y-90979300D01*
X64690703Y-90980485D01*
X64675511Y-90993649D01*
X64671887Y-90994169D01*
X64668988Y-90996406D01*
X64637569Y-90999104D01*
X64606353Y-91003593D01*
X64603021Y-91002071D01*
X64599375Y-91002385D01*
X64571491Y-90987672D01*
X64542797Y-90974568D01*
X64540816Y-90971486D01*
X64537580Y-90969779D01*
X64522076Y-90942325D01*
X64505023Y-90915790D01*
X64504316Y-90910877D01*
X64503223Y-90908941D01*
X64500000Y-90880855D01*
X64500000Y-90544893D01*
X64519685Y-90477854D01*
X64528736Y-90465516D01*
X67410098Y-87007882D01*
X69845669Y-87007882D01*
X69845670Y-87007883D01*
X69871059Y-87026329D01*
X70039362Y-87112085D01*
X70218997Y-87170451D01*
X70405553Y-87200000D01*
X70594447Y-87200000D01*
X70781002Y-87170451D01*
X70960637Y-87112085D01*
X71128937Y-87026331D01*
X71154328Y-87007883D01*
X71154328Y-87007882D01*
X71845669Y-87007882D01*
X71845670Y-87007883D01*
X71871059Y-87026329D01*
X72039362Y-87112085D01*
X72218997Y-87170451D01*
X72405553Y-87200000D01*
X72594447Y-87200000D01*
X72781002Y-87170451D01*
X72960637Y-87112085D01*
X73128937Y-87026331D01*
X73154328Y-87007883D01*
X73154328Y-87007882D01*
X72500001Y-86353554D01*
X72500000Y-86353554D01*
X71845669Y-87007882D01*
X71154328Y-87007882D01*
X70500001Y-86353554D01*
X70500000Y-86353554D01*
X69845669Y-87007882D01*
X67410098Y-87007882D01*
X68328706Y-85905552D01*
X69300000Y-85905552D01*
X69300000Y-86094447D01*
X69329548Y-86281002D01*
X69387914Y-86460637D01*
X69473666Y-86628933D01*
X69492116Y-86654328D01*
X70146446Y-86000000D01*
X70146446Y-85999999D01*
X70100369Y-85953922D01*
X70150000Y-85953922D01*
X70150000Y-86046078D01*
X70173852Y-86135095D01*
X70219930Y-86214905D01*
X70285095Y-86280070D01*
X70364905Y-86326148D01*
X70453922Y-86350000D01*
X70546078Y-86350000D01*
X70635095Y-86326148D01*
X70714905Y-86280070D01*
X70780070Y-86214905D01*
X70826148Y-86135095D01*
X70850000Y-86046078D01*
X70850000Y-86000000D01*
X70853554Y-86000000D01*
X71500000Y-86646446D01*
X72146446Y-86000000D01*
X72100368Y-85953922D01*
X72150000Y-85953922D01*
X72150000Y-86046078D01*
X72173852Y-86135095D01*
X72219930Y-86214905D01*
X72285095Y-86280070D01*
X72364905Y-86326148D01*
X72453922Y-86350000D01*
X72546078Y-86350000D01*
X72635095Y-86326148D01*
X72714905Y-86280070D01*
X72780070Y-86214905D01*
X72826148Y-86135095D01*
X72850000Y-86046078D01*
X72850000Y-85999999D01*
X72853554Y-85999999D01*
X72853554Y-86000000D01*
X73507882Y-86654328D01*
X73507883Y-86654328D01*
X73526331Y-86628937D01*
X73612085Y-86460637D01*
X73670451Y-86281002D01*
X73700000Y-86094447D01*
X73700000Y-85905552D01*
X73670451Y-85718997D01*
X73612085Y-85539362D01*
X73526329Y-85371059D01*
X73507883Y-85345670D01*
X73507882Y-85345669D01*
X72853554Y-85999999D01*
X72850000Y-85999999D01*
X72850000Y-85953922D01*
X72826148Y-85864905D01*
X72780070Y-85785095D01*
X72714905Y-85719930D01*
X72635095Y-85673852D01*
X72546078Y-85650000D01*
X72453922Y-85650000D01*
X72364905Y-85673852D01*
X72285095Y-85719930D01*
X72219930Y-85785095D01*
X72173852Y-85864905D01*
X72150000Y-85953922D01*
X72100368Y-85953922D01*
X71500000Y-85353554D01*
X70853554Y-86000000D01*
X70850000Y-86000000D01*
X70850000Y-85953922D01*
X70826148Y-85864905D01*
X70780070Y-85785095D01*
X70714905Y-85719930D01*
X70635095Y-85673852D01*
X70546078Y-85650000D01*
X70453922Y-85650000D01*
X70364905Y-85673852D01*
X70285095Y-85719930D01*
X70219930Y-85785095D01*
X70173852Y-85864905D01*
X70150000Y-85953922D01*
X70100369Y-85953922D01*
X69492116Y-85345669D01*
X69492116Y-85345670D01*
X69473669Y-85371060D01*
X69387914Y-85539362D01*
X69329548Y-85718997D01*
X69300000Y-85905552D01*
X68328706Y-85905552D01*
X69089902Y-84992116D01*
X69845669Y-84992116D01*
X70500000Y-85646446D01*
X70500001Y-85646446D01*
X71154328Y-84992116D01*
X71845669Y-84992116D01*
X72500000Y-85646446D01*
X72500001Y-85646446D01*
X73154328Y-84992116D01*
X73128933Y-84973666D01*
X72960637Y-84887914D01*
X72781002Y-84829548D01*
X72594447Y-84800000D01*
X72405553Y-84800000D01*
X72218997Y-84829548D01*
X72039362Y-84887914D01*
X71871060Y-84973669D01*
X71845670Y-84992116D01*
X71845669Y-84992116D01*
X71154328Y-84992116D01*
X71128933Y-84973666D01*
X70960637Y-84887914D01*
X70781002Y-84829548D01*
X70594447Y-84800000D01*
X70405553Y-84800000D01*
X70218997Y-84829548D01*
X70039362Y-84887914D01*
X69871060Y-84973669D01*
X69845670Y-84992116D01*
X69845669Y-84992116D01*
X69089902Y-84992116D01*
X69462819Y-84544616D01*
X69520858Y-84505718D01*
X69558078Y-84500000D01*
X73960262Y-84500000D01*
X74027301Y-84519685D01*
G37*
%TD.AperFunction*%
%TA.AperFunction,Conductor*%
G36*
X65487482Y-92132292D02*
G01*
X65559890Y-92257708D01*
X65662292Y-92360110D01*
X65787708Y-92432518D01*
X65829765Y-92443787D01*
X65059300Y-93214250D01*
X65143853Y-93275682D01*
X65186518Y-93331012D01*
X65192497Y-93400626D01*
X65159891Y-93462421D01*
X65099052Y-93496778D01*
X65070967Y-93500000D01*
X64624000Y-93500000D01*
X64556961Y-93480315D01*
X64511206Y-93427511D01*
X64500000Y-93376000D01*
X64500000Y-92959142D01*
X64519685Y-92892103D01*
X64572489Y-92846348D01*
X64641647Y-92836404D01*
X64692573Y-92859661D01*
X64705748Y-92860698D01*
X65476212Y-92090234D01*
X65487482Y-92132292D01*
G37*
%TD.AperFunction*%
%TA.AperFunction,Conductor*%
G36*
X67294250Y-92860698D02*
G01*
X67310482Y-92859420D01*
X67331011Y-92843590D01*
X67400625Y-92837611D01*
X67462420Y-92870216D01*
X67496777Y-92931055D01*
X67500000Y-92959141D01*
X67500000Y-93376000D01*
X67480315Y-93443039D01*
X67427511Y-93488794D01*
X67376000Y-93500000D01*
X66929031Y-93500000D01*
X66861992Y-93480315D01*
X66816237Y-93427511D01*
X66806293Y-93358353D01*
X66835318Y-93294797D01*
X66856146Y-93275682D01*
X66940697Y-93214251D01*
X66940698Y-93214250D01*
X66170234Y-92443787D01*
X66212292Y-92432518D01*
X66337708Y-92360110D01*
X66440110Y-92257708D01*
X66512518Y-92132292D01*
X66523787Y-92090235D01*
X67294250Y-92860698D01*
G37*
%TD.AperFunction*%
%TD*%
%TA.AperFunction,Conductor*%
%TO.N,Net-(U1-I_{PK})*%
G36*
X92443039Y-83519685D02*
G01*
X92488794Y-83572489D01*
X92500000Y-83624000D01*
X92500000Y-83908206D01*
X92480315Y-83975245D01*
X92427511Y-84021000D01*
X92363397Y-84031564D01*
X92299154Y-84025000D01*
X92250000Y-84025000D01*
X92250000Y-85974999D01*
X92299140Y-85974999D01*
X92299154Y-85974998D01*
X92363398Y-85968435D01*
X92432090Y-85981204D01*
X92482975Y-86029085D01*
X92500000Y-86091793D01*
X92500000Y-86376000D01*
X92480315Y-86443039D01*
X92427511Y-86488794D01*
X92376000Y-86500000D01*
X88499999Y-86500000D01*
X89132473Y-89662366D01*
X89126318Y-89731964D01*
X89083513Y-89787186D01*
X89017648Y-89810499D01*
X88998279Y-89810042D01*
X88899988Y-89800000D01*
X88750000Y-89800000D01*
X88750000Y-92214008D01*
X88735038Y-92264961D01*
X88670002Y-92329997D01*
X88669999Y-92329999D01*
X83036319Y-97963681D01*
X83009391Y-97978384D01*
X82983573Y-97994977D01*
X82977372Y-97995868D01*
X82974996Y-97997166D01*
X82948638Y-98000000D01*
X82894059Y-98000000D01*
X82827020Y-97980315D01*
X82796079Y-97952000D01*
X82788299Y-97941970D01*
X82790636Y-97940156D01*
X82787927Y-97935199D01*
X82781265Y-97927511D01*
X82780386Y-97921402D01*
X82763798Y-97891050D01*
X82768756Y-97821356D01*
X82789554Y-97788998D01*
X82787903Y-97787717D01*
X82792686Y-97781550D01*
X82876281Y-97640198D01*
X82922100Y-97482486D01*
X82922295Y-97480001D01*
X82922295Y-97480000D01*
X81574000Y-97480000D01*
X81506961Y-97460315D01*
X81461206Y-97407511D01*
X81450000Y-97356000D01*
X81450000Y-97104000D01*
X81469685Y-97036961D01*
X81522489Y-96991206D01*
X81574000Y-96980000D01*
X82922295Y-96980000D01*
X82922295Y-96979998D01*
X82922100Y-96977513D01*
X82876281Y-96819801D01*
X82792685Y-96678447D01*
X82787900Y-96672278D01*
X82790366Y-96670364D01*
X82763802Y-96621776D01*
X82768749Y-96552082D01*
X82789856Y-96519232D01*
X82788301Y-96518026D01*
X82793077Y-96511868D01*
X82793081Y-96511865D01*
X82876744Y-96370398D01*
X82922598Y-96212569D01*
X82925500Y-96175694D01*
X82925500Y-95744306D01*
X82922598Y-95707431D01*
X82913784Y-95677093D01*
X82913982Y-95607229D01*
X82945176Y-95554823D01*
X86263184Y-92236815D01*
X86324503Y-92203333D01*
X86350854Y-92200499D01*
X86900008Y-92200499D01*
X87002797Y-92189999D01*
X87169334Y-92134814D01*
X87318656Y-92042712D01*
X87412675Y-91948692D01*
X87473994Y-91915210D01*
X87543686Y-91920194D01*
X87588034Y-91948695D01*
X87681654Y-92042315D01*
X87830875Y-92134356D01*
X87830880Y-92134358D01*
X87997302Y-92189505D01*
X87997309Y-92189506D01*
X88100019Y-92199999D01*
X88249999Y-92199999D01*
X88250000Y-92199998D01*
X88250000Y-89800000D01*
X88100027Y-89800000D01*
X88100012Y-89800001D01*
X87997302Y-89810494D01*
X87830880Y-89865641D01*
X87830875Y-89865643D01*
X87681657Y-89957682D01*
X87588034Y-90051305D01*
X87582278Y-90054447D01*
X87578563Y-90059847D01*
X87551995Y-90070982D01*
X87526710Y-90084789D01*
X87520171Y-90084321D01*
X87514125Y-90086856D01*
X87485752Y-90081859D01*
X87457019Y-90079805D01*
X87450170Y-90075594D01*
X87445314Y-90074739D01*
X87424646Y-90059900D01*
X87416238Y-90054731D01*
X87414427Y-90053059D01*
X87318656Y-89957288D01*
X87294664Y-89942490D01*
X87285852Y-89934354D01*
X87273811Y-89914253D01*
X87258146Y-89896837D01*
X87251007Y-89876185D01*
X87249948Y-89874416D01*
X87249985Y-89873227D01*
X87248923Y-89870154D01*
X86500000Y-86500000D01*
X86499999Y-86500000D01*
X80848003Y-86500000D01*
X80780964Y-86480315D01*
X80735209Y-86427511D01*
X80725265Y-86358353D01*
X80748737Y-86301689D01*
X80793350Y-86242093D01*
X80793354Y-86242086D01*
X80843596Y-86107379D01*
X80843598Y-86107372D01*
X80849999Y-86047844D01*
X80850000Y-86047827D01*
X80850000Y-86007882D01*
X85845669Y-86007882D01*
X85845670Y-86007883D01*
X85871059Y-86026329D01*
X86039362Y-86112085D01*
X86218997Y-86170451D01*
X86405553Y-86200000D01*
X86594447Y-86200000D01*
X86781002Y-86170451D01*
X86960637Y-86112085D01*
X87128937Y-86026331D01*
X87154328Y-86007883D01*
X87154328Y-86007882D01*
X87845669Y-86007882D01*
X87845670Y-86007883D01*
X87871059Y-86026329D01*
X88039362Y-86112085D01*
X88218997Y-86170451D01*
X88405553Y-86200000D01*
X88594447Y-86200000D01*
X88781002Y-86170451D01*
X88960637Y-86112085D01*
X89128937Y-86026331D01*
X89154328Y-86007883D01*
X89154328Y-86007882D01*
X88500001Y-85353554D01*
X88500000Y-85353554D01*
X87845669Y-86007882D01*
X87154328Y-86007882D01*
X86500001Y-85353554D01*
X86500000Y-85353554D01*
X85845669Y-86007882D01*
X80850000Y-86007882D01*
X80850000Y-85250000D01*
X79624000Y-85250000D01*
X79615314Y-85247449D01*
X79606353Y-85248738D01*
X79582312Y-85237759D01*
X79556961Y-85230315D01*
X79551033Y-85223474D01*
X79542797Y-85219713D01*
X79528507Y-85197478D01*
X79511206Y-85177511D01*
X79508918Y-85166996D01*
X79505023Y-85160935D01*
X79500000Y-85126000D01*
X79500000Y-84905552D01*
X85300000Y-84905552D01*
X85300000Y-85094447D01*
X85329548Y-85281002D01*
X85387914Y-85460637D01*
X85473666Y-85628933D01*
X85492116Y-85654328D01*
X86146446Y-85000000D01*
X86146446Y-84999999D01*
X86100369Y-84953922D01*
X86150000Y-84953922D01*
X86150000Y-85046078D01*
X86173852Y-85135095D01*
X86219930Y-85214905D01*
X86285095Y-85280070D01*
X86364905Y-85326148D01*
X86453922Y-85350000D01*
X86546078Y-85350000D01*
X86635095Y-85326148D01*
X86714905Y-85280070D01*
X86780070Y-85214905D01*
X86826148Y-85135095D01*
X86850000Y-85046078D01*
X86850000Y-85000000D01*
X86853554Y-85000000D01*
X87500000Y-85646446D01*
X88146446Y-85000000D01*
X88100368Y-84953922D01*
X88150000Y-84953922D01*
X88150000Y-85046078D01*
X88173852Y-85135095D01*
X88219930Y-85214905D01*
X88285095Y-85280070D01*
X88364905Y-85326148D01*
X88453922Y-85350000D01*
X88546078Y-85350000D01*
X88635095Y-85326148D01*
X88714905Y-85280070D01*
X88780070Y-85214905D01*
X88826148Y-85135095D01*
X88850000Y-85046078D01*
X88850000Y-84999999D01*
X88853554Y-84999999D01*
X88853554Y-85000000D01*
X89507882Y-85654328D01*
X89507883Y-85654328D01*
X89526331Y-85628937D01*
X89612085Y-85460637D01*
X89668616Y-85286654D01*
X91012501Y-85286654D01*
X91022819Y-85387652D01*
X91077046Y-85551300D01*
X91077051Y-85551311D01*
X91167552Y-85698034D01*
X91167555Y-85698038D01*
X91289461Y-85819944D01*
X91289465Y-85819947D01*
X91436188Y-85910448D01*
X91436199Y-85910453D01*
X91599847Y-85964680D01*
X91700851Y-85974999D01*
X91749999Y-85974998D01*
X91750000Y-85974998D01*
X91750000Y-85250000D01*
X91012501Y-85250000D01*
X91012501Y-85286654D01*
X89668616Y-85286654D01*
X89670452Y-85281002D01*
X89686570Y-85179240D01*
X89700000Y-85094447D01*
X89700000Y-84905552D01*
X89672130Y-84729594D01*
X89672129Y-84729592D01*
X89670450Y-84718993D01*
X89668615Y-84713345D01*
X91012500Y-84713345D01*
X91012500Y-84750000D01*
X91750000Y-84750000D01*
X91750000Y-84025000D01*
X91749999Y-84024999D01*
X91700861Y-84025000D01*
X91700843Y-84025001D01*
X91599847Y-84035319D01*
X91436199Y-84089546D01*
X91436188Y-84089551D01*
X91289465Y-84180052D01*
X91289461Y-84180055D01*
X91167555Y-84301961D01*
X91167552Y-84301965D01*
X91077051Y-84448688D01*
X91077046Y-84448699D01*
X91022819Y-84612347D01*
X91012500Y-84713345D01*
X89668615Y-84713345D01*
X89612085Y-84539362D01*
X89526329Y-84371059D01*
X89507883Y-84345670D01*
X89507882Y-84345669D01*
X88853554Y-84999999D01*
X88850000Y-84999999D01*
X88850000Y-84953922D01*
X88826148Y-84864905D01*
X88780070Y-84785095D01*
X88714905Y-84719930D01*
X88635095Y-84673852D01*
X88546078Y-84650000D01*
X88453922Y-84650000D01*
X88364905Y-84673852D01*
X88285095Y-84719930D01*
X88219930Y-84785095D01*
X88173852Y-84864905D01*
X88150000Y-84953922D01*
X88100368Y-84953922D01*
X87500000Y-84353554D01*
X86853554Y-85000000D01*
X86850000Y-85000000D01*
X86850000Y-84953922D01*
X86826148Y-84864905D01*
X86780070Y-84785095D01*
X86714905Y-84719930D01*
X86635095Y-84673852D01*
X86546078Y-84650000D01*
X86453922Y-84650000D01*
X86364905Y-84673852D01*
X86285095Y-84719930D01*
X86219930Y-84785095D01*
X86173852Y-84864905D01*
X86150000Y-84953922D01*
X86100369Y-84953922D01*
X85492116Y-84345669D01*
X85492116Y-84345670D01*
X85473669Y-84371060D01*
X85387914Y-84539362D01*
X85329548Y-84718997D01*
X85300000Y-84905552D01*
X79500000Y-84905552D01*
X79500000Y-84874000D01*
X79519685Y-84806961D01*
X79572489Y-84761206D01*
X79624000Y-84750000D01*
X80850000Y-84750000D01*
X80850000Y-83992116D01*
X85845669Y-83992116D01*
X86500000Y-84646446D01*
X86500001Y-84646446D01*
X87154328Y-83992116D01*
X87845669Y-83992116D01*
X88500000Y-84646446D01*
X88500001Y-84646446D01*
X89154328Y-83992116D01*
X89128933Y-83973666D01*
X88960637Y-83887914D01*
X88781002Y-83829548D01*
X88594447Y-83800000D01*
X88405553Y-83800000D01*
X88218997Y-83829548D01*
X88039362Y-83887914D01*
X87871060Y-83973669D01*
X87845670Y-83992116D01*
X87845669Y-83992116D01*
X87154328Y-83992116D01*
X87128933Y-83973666D01*
X86960637Y-83887914D01*
X86781002Y-83829548D01*
X86594447Y-83800000D01*
X86405553Y-83800000D01*
X86218997Y-83829548D01*
X86039362Y-83887914D01*
X85871060Y-83973669D01*
X85845670Y-83992116D01*
X85845669Y-83992116D01*
X80850000Y-83992116D01*
X80850000Y-83952172D01*
X80849999Y-83952155D01*
X80843598Y-83892627D01*
X80843596Y-83892620D01*
X80793354Y-83757913D01*
X80793350Y-83757906D01*
X80748737Y-83698311D01*
X80724319Y-83632847D01*
X80739170Y-83564574D01*
X80788575Y-83515168D01*
X80848003Y-83500000D01*
X92376000Y-83500000D01*
X92443039Y-83519685D01*
G37*
%TD.AperFunction*%
%TD*%
%TA.AperFunction,Conductor*%
%TO.N,+12V*%
G36*
X86414310Y-96373889D02*
G01*
X86454132Y-96431299D01*
X86456594Y-96501125D01*
X86420915Y-96561198D01*
X86417757Y-96563919D01*
X86417741Y-96564187D01*
X87238282Y-97384728D01*
X87120534Y-97470278D01*
X86970278Y-97620534D01*
X86884728Y-97738282D01*
X86064187Y-96917741D01*
X85957884Y-97051043D01*
X85808492Y-97288799D01*
X85686662Y-97541782D01*
X85593922Y-97806819D01*
X85593921Y-97806821D01*
X85531439Y-98080575D01*
X85531437Y-98080587D01*
X85500000Y-98359598D01*
X85500000Y-98640401D01*
X85531437Y-98919412D01*
X85531439Y-98919424D01*
X85593921Y-99193178D01*
X85593922Y-99193180D01*
X85686662Y-99458217D01*
X85808492Y-99711200D01*
X85957884Y-99948956D01*
X86064187Y-100082257D01*
X86884728Y-99261716D01*
X86970278Y-99379466D01*
X87120534Y-99529722D01*
X87238281Y-99615270D01*
X86417741Y-100435810D01*
X86417741Y-100435811D01*
X86551043Y-100542115D01*
X86788799Y-100691507D01*
X87041782Y-100813337D01*
X87306819Y-100906077D01*
X87306821Y-100906078D01*
X87580575Y-100968560D01*
X87580587Y-100968562D01*
X87859598Y-100999999D01*
X87859600Y-101000000D01*
X88140400Y-101000000D01*
X88140401Y-100999999D01*
X88419412Y-100968562D01*
X88419424Y-100968560D01*
X88693178Y-100906078D01*
X88693180Y-100906077D01*
X88958217Y-100813337D01*
X89211200Y-100691507D01*
X89448956Y-100542116D01*
X89582257Y-100435810D01*
X88761717Y-99615271D01*
X88879466Y-99529722D01*
X89029722Y-99379466D01*
X89115270Y-99261717D01*
X89935810Y-100082257D01*
X90042116Y-99948956D01*
X90191509Y-99711197D01*
X90264280Y-99560087D01*
X90311102Y-99508227D01*
X90378529Y-99489914D01*
X90445153Y-99510962D01*
X90489822Y-99564688D01*
X90500000Y-99613888D01*
X90500000Y-101876000D01*
X90480315Y-101943039D01*
X90427511Y-101988794D01*
X90376000Y-102000000D01*
X85124000Y-102000000D01*
X85056961Y-101980315D01*
X85011206Y-101927511D01*
X85000000Y-101876000D01*
X85000000Y-99500000D01*
X83010635Y-99500000D01*
X82943596Y-99480315D01*
X82897841Y-99427511D01*
X82891561Y-99410602D01*
X82876744Y-99359602D01*
X82793081Y-99218135D01*
X82793078Y-99218132D01*
X82788298Y-99211969D01*
X82790635Y-99210155D01*
X82763798Y-99161050D01*
X82768756Y-99091356D01*
X82789554Y-99058998D01*
X82787903Y-99057717D01*
X82792686Y-99051550D01*
X82876281Y-98910198D01*
X82922100Y-98752486D01*
X82922209Y-98751104D01*
X82859731Y-98750000D01*
X79977705Y-98750000D01*
X79977704Y-98750001D01*
X79977899Y-98752486D01*
X80023718Y-98910198D01*
X80107314Y-99051552D01*
X80112100Y-99057722D01*
X80109640Y-99059629D01*
X80136210Y-99108288D01*
X80131226Y-99177980D01*
X80110162Y-99210781D01*
X80111699Y-99211974D01*
X80106915Y-99218140D01*
X80023256Y-99359602D01*
X80008440Y-99410595D01*
X79970836Y-99469480D01*
X79907363Y-99498687D01*
X79889365Y-99500000D01*
X79624000Y-99500000D01*
X79556961Y-99480315D01*
X79511206Y-99427511D01*
X79500000Y-99376000D01*
X79500000Y-98124000D01*
X79519685Y-98056961D01*
X79572489Y-98011206D01*
X79624000Y-98000000D01*
X79884655Y-98000000D01*
X79951694Y-98019685D01*
X79997449Y-98072489D01*
X80007393Y-98141647D01*
X80003732Y-98158594D01*
X79977899Y-98247511D01*
X79977704Y-98249998D01*
X79977705Y-98250000D01*
X82331413Y-98250000D01*
X82398452Y-98269685D01*
X82422583Y-98289953D01*
X82454812Y-98324917D01*
X82485753Y-98353232D01*
X82494021Y-98359598D01*
X82553723Y-98405567D01*
X82553725Y-98405568D01*
X82655350Y-98451980D01*
X82684600Y-98465338D01*
X82751639Y-98485023D01*
X82751643Y-98485024D01*
X82894059Y-98505500D01*
X82948638Y-98505500D01*
X83002678Y-98502603D01*
X83029036Y-98499769D01*
X83029051Y-98499766D01*
X83029056Y-98499766D01*
X83082536Y-98491095D01*
X83082540Y-98491094D01*
X83082540Y-98491093D01*
X83082545Y-98491093D01*
X83093102Y-98487152D01*
X83125999Y-98479998D01*
X83187345Y-98451980D01*
X83217343Y-98440785D01*
X83219719Y-98439487D01*
X83219718Y-98439485D01*
X83241403Y-98427640D01*
X83241440Y-98427620D01*
X83245315Y-98425504D01*
X83256876Y-98420225D01*
X83267502Y-98413395D01*
X83276639Y-98408406D01*
X83278115Y-98407635D01*
X83278577Y-98407349D01*
X83278579Y-98407348D01*
X83393762Y-98321123D01*
X83393772Y-98321113D01*
X83446443Y-98268443D01*
X83922439Y-97792446D01*
X84415545Y-97299338D01*
X84447760Y-97276119D01*
X86281009Y-96359495D01*
X86349771Y-96347121D01*
X86414310Y-96373889D01*
G37*
%TD.AperFunction*%
%TA.AperFunction,Conductor*%
G36*
X94943039Y-83519685D02*
G01*
X94988794Y-83572489D01*
X95000000Y-83624000D01*
X95000000Y-84440901D01*
X94980315Y-84507940D01*
X94927511Y-84553695D01*
X94858353Y-84563639D01*
X94794797Y-84534614D01*
X94758294Y-84479905D01*
X94747953Y-84448699D01*
X94747948Y-84448688D01*
X94657447Y-84301965D01*
X94657444Y-84301961D01*
X94535538Y-84180055D01*
X94535534Y-84180052D01*
X94388811Y-84089551D01*
X94388800Y-84089546D01*
X94225152Y-84035319D01*
X94124154Y-84025000D01*
X94075000Y-84025000D01*
X94075000Y-85974999D01*
X94124140Y-85974999D01*
X94124154Y-85974998D01*
X94225152Y-85964680D01*
X94388800Y-85910453D01*
X94388811Y-85910448D01*
X94535534Y-85819947D01*
X94535538Y-85819944D01*
X94657444Y-85698038D01*
X94657447Y-85698034D01*
X94747948Y-85551311D01*
X94747954Y-85551298D01*
X94758294Y-85520095D01*
X94798066Y-85462649D01*
X94862582Y-85435826D01*
X94931358Y-85448141D01*
X94982558Y-85495683D01*
X95000000Y-85559098D01*
X95000000Y-85971384D01*
X94987460Y-86025721D01*
X93228740Y-89633355D01*
X93072334Y-89954187D01*
X93025263Y-90005821D01*
X92957749Y-90023811D01*
X92891226Y-90002443D01*
X92873192Y-89987531D01*
X92818345Y-89932684D01*
X92669124Y-89840643D01*
X92669119Y-89840641D01*
X92502697Y-89785494D01*
X92502690Y-89785493D01*
X92399986Y-89775000D01*
X92350000Y-89775000D01*
X92350000Y-92224999D01*
X92399972Y-92224999D01*
X92399986Y-92224998D01*
X92502695Y-92214506D01*
X92634415Y-92170857D01*
X92704243Y-92168455D01*
X92764285Y-92204186D01*
X92795478Y-92266706D01*
X92787919Y-92336166D01*
X92778572Y-92354283D01*
X90500000Y-96000000D01*
X90500000Y-97386111D01*
X90480315Y-97453150D01*
X90427511Y-97498905D01*
X90358353Y-97508849D01*
X90294797Y-97479824D01*
X90264280Y-97439913D01*
X90191507Y-97288799D01*
X90042115Y-97051043D01*
X89935810Y-96917741D01*
X89115270Y-97738281D01*
X89029722Y-97620534D01*
X88879466Y-97470278D01*
X88761716Y-97384728D01*
X89582257Y-96564187D01*
X89448956Y-96457884D01*
X89211200Y-96308492D01*
X88958217Y-96186662D01*
X88693180Y-96093922D01*
X88693178Y-96093921D01*
X88419424Y-96031439D01*
X88419412Y-96031437D01*
X88140401Y-96000000D01*
X87859598Y-96000000D01*
X87580587Y-96031437D01*
X87580571Y-96031439D01*
X87402461Y-96072092D01*
X87332723Y-96067819D01*
X87276365Y-96026520D01*
X87251282Y-95961308D01*
X87265436Y-95892887D01*
X87314335Y-95842981D01*
X87319397Y-95840301D01*
X87384612Y-95807694D01*
X90382507Y-91524986D01*
X91100001Y-91524986D01*
X91110494Y-91627697D01*
X91165641Y-91794119D01*
X91165643Y-91794124D01*
X91257684Y-91943345D01*
X91381654Y-92067315D01*
X91530875Y-92159356D01*
X91530880Y-92159358D01*
X91697302Y-92214505D01*
X91697309Y-92214506D01*
X91800019Y-92224999D01*
X91849999Y-92224998D01*
X91850000Y-92224998D01*
X91850000Y-91250000D01*
X91100001Y-91250000D01*
X91100001Y-91524986D01*
X90382507Y-91524986D01*
X90912303Y-90768135D01*
X90966871Y-90724505D01*
X91036369Y-90717302D01*
X91098728Y-90748816D01*
X91099950Y-90750000D01*
X91850000Y-90750000D01*
X91850000Y-89775000D01*
X91849999Y-89774999D01*
X91845660Y-89775000D01*
X91778620Y-89755317D01*
X91732865Y-89702513D01*
X91722920Y-89633355D01*
X91744070Y-89579896D01*
X93000000Y-87785712D01*
X93000000Y-86423122D01*
X93001262Y-86405475D01*
X93005500Y-86376000D01*
X93005500Y-86091793D01*
X93005500Y-86091789D01*
X93001088Y-86058703D01*
X93000000Y-86042313D01*
X93000000Y-85971519D01*
X93019685Y-85904480D01*
X93072489Y-85858725D01*
X93141647Y-85848781D01*
X93189098Y-85865981D01*
X93261192Y-85910450D01*
X93261199Y-85910453D01*
X93424847Y-85964680D01*
X93525851Y-85974999D01*
X93574999Y-85974998D01*
X93575000Y-85974998D01*
X93575000Y-84025000D01*
X93574999Y-84024999D01*
X93525861Y-84025000D01*
X93525843Y-84025001D01*
X93424847Y-84035319D01*
X93261199Y-84089546D01*
X93261194Y-84089548D01*
X93189097Y-84134019D01*
X93181477Y-84136103D01*
X93175511Y-84141274D01*
X93148263Y-84145191D01*
X93121704Y-84152459D01*
X93114169Y-84150094D01*
X93106353Y-84151218D01*
X93081307Y-84139779D01*
X93055041Y-84131536D01*
X93049981Y-84125474D01*
X93042797Y-84122193D01*
X93027910Y-84099029D01*
X93010271Y-84077894D01*
X93008331Y-84068563D01*
X93005023Y-84063415D01*
X93000000Y-84028480D01*
X93000000Y-83955328D01*
X93001262Y-83937681D01*
X93005500Y-83908206D01*
X93005500Y-83624000D01*
X93025185Y-83556961D01*
X93077989Y-83511206D01*
X93129500Y-83500000D01*
X94876000Y-83500000D01*
X94943039Y-83519685D01*
G37*
%TD.AperFunction*%
%TD*%
M02*
