M48
; DRILL file {KiCad 9.0.4} date 2025-10-05T14:54:46-0500
; FORMAT={-:-/ absolute / inch / decimal}
; #@! TF.CreationDate,2025-10-05T14:54:46-05:00
; #@! TF.GenerationSoftware,Kicad,Pcbnew,9.0.4
; #@! TF.FileFunction,Plated,1,2,PTH
FMAT,2
INCH
; #@! TA.AperFunction,Plated,PTH,ViaDrill
T1C0.0118
; #@! TA.AperFunction,Plated,PTH,ComponentDrill
T2C0.0276
; #@! TA.AperFunction,Plated,PTH,ComponentDrill
T3C0.0315
; #@! TA.AperFunction,Plated,PTH,ComponentDrill
T4C0.1063
%
G90
G05
T1
X5.6693Y-4.2717
X5.6693Y-4.311
X5.7087Y-4.3504
X5.7087Y-4.4685
X5.9449Y-4.4488
X5.9459Y-4.3451
X5.9459Y-4.3951
X6.0433Y-4.2913
X6.0433Y-4.3307
X6.0433Y-4.4094
X6.0433Y-4.4488
X6.3386Y-4.4882
X6.3758Y-4.5275
X6.4173Y-4.5276
X6.4567Y-4.4882
T2
X6.063Y-3.4843
X6.1417Y-3.4843
X6.4173Y-3.4646
X6.4173Y-3.5433
T3
X5.6102Y-3.7795
X5.6102Y-3.9764
T4
X5.3346Y-4.0748
X5.3346Y-4.2717
X6.5945Y-3.8189
X6.5945Y-4.0157
M30
