%TF.GenerationSoftware,KiCad,Pcbnew,9.0.7*%
%TF.CreationDate,2026-03-06T18:08:20-06:00*%
%TF.ProjectId,Onboarding,4f6e626f-6172-4646-996e-672e6b696361,rev?*%
%TF.SameCoordinates,Original*%
%TF.FileFunction,Copper,L1,Top*%
%TF.FilePolarity,Positive*%
%FSLAX46Y46*%
G04 Gerber Fmt 4.6, Leading zero omitted, Abs format (unit mm)*
G04 Created by KiCad (PCBNEW 9.0.7) date 2026-03-06 18:08:20*
%MOMM*%
%LPD*%
G01*
G04 APERTURE LIST*
G04 Aperture macros list*
%AMRoundRect*
0 Rectangle with rounded corners*
0 $1 Rounding radius*
0 $2 $3 $4 $5 $6 $7 $8 $9 X,Y pos of 4 corners*
0 Add a 4 corners polygon primitive as box body*
4,1,4,$2,$3,$4,$5,$6,$7,$8,$9,$2,$3,0*
0 Add four circle primitives for the rounded corners*
1,1,$1+$1,$2,$3*
1,1,$1+$1,$4,$5*
1,1,$1+$1,$6,$7*
1,1,$1+$1,$8,$9*
0 Add four rect primitives between the rounded corners*
20,1,$1+$1,$2,$3,$4,$5,0*
20,1,$1+$1,$4,$5,$6,$7,0*
20,1,$1+$1,$6,$7,$8,$9,0*
20,1,$1+$1,$8,$9,$2,$3,0*%
G04 Aperture macros list end*
%TA.AperFunction,SMDPad,CuDef*%
%ADD10RoundRect,0.250000X0.250000X1.150000X-0.250000X1.150000X-0.250000X-1.150000X0.250000X-1.150000X0*%
%TD*%
%TA.AperFunction,SMDPad,CuDef*%
%ADD11RoundRect,0.150000X0.150000X0.700000X-0.150000X0.700000X-0.150000X-0.700000X0.150000X-0.700000X0*%
%TD*%
%TA.AperFunction,ComponentPad*%
%ADD12C,1.400000*%
%TD*%
%TA.AperFunction,SMDPad,CuDef*%
%ADD13RoundRect,0.250000X0.475000X-0.250000X0.475000X0.250000X-0.475000X0.250000X-0.475000X-0.250000X0*%
%TD*%
%TA.AperFunction,SMDPad,CuDef*%
%ADD14RoundRect,0.237500X-0.237500X0.250000X-0.237500X-0.250000X0.237500X-0.250000X0.237500X0.250000X0*%
%TD*%
%TA.AperFunction,SMDPad,CuDef*%
%ADD15RoundRect,0.250000X-0.450000X0.350000X-0.450000X-0.350000X0.450000X-0.350000X0.450000X0.350000X0*%
%TD*%
%TA.AperFunction,SMDPad,CuDef*%
%ADD16RoundRect,0.150000X0.825000X0.150000X-0.825000X0.150000X-0.825000X-0.150000X0.825000X-0.150000X0*%
%TD*%
%TA.AperFunction,SMDPad,CuDef*%
%ADD17RoundRect,0.237500X0.237500X-0.300000X0.237500X0.300000X-0.237500X0.300000X-0.237500X-0.300000X0*%
%TD*%
%TA.AperFunction,SMDPad,CuDef*%
%ADD18RoundRect,0.243750X-0.456250X0.243750X-0.456250X-0.243750X0.456250X-0.243750X0.456250X0.243750X0*%
%TD*%
%TA.AperFunction,ComponentPad*%
%ADD19RoundRect,0.250000X-0.550000X-0.550000X0.550000X-0.550000X0.550000X0.550000X-0.550000X0.550000X0*%
%TD*%
%TA.AperFunction,ComponentPad*%
%ADD20C,1.600000*%
%TD*%
%TA.AperFunction,ComponentPad*%
%ADD21RoundRect,0.760000X-1.140000X-1.140000X1.140000X-1.140000X1.140000X1.140000X-1.140000X1.140000X0*%
%TD*%
%TA.AperFunction,ComponentPad*%
%ADD22C,4.000000*%
%TD*%
%TA.AperFunction,SMDPad,CuDef*%
%ADD23R,1.520000X10.160000*%
%TD*%
%TA.AperFunction,Conductor*%
%ADD24C,0.500000*%
%TD*%
%TA.AperFunction,Conductor*%
%ADD25C,0.200000*%
%TD*%
G04 APERTURE END LIST*
D10*
%TO.P,J3,MP*%
%TO.N,N/C*%
X86025000Y-88400000D03*
X90975000Y-88400000D03*
D11*
%TO.P,J3,2,Pin_2*%
%TO.N,/CAN+*%
X87875000Y-85050000D03*
%TO.P,J3,1,Pin_1*%
%TO.N,/CAN-*%
X89125000Y-85050000D03*
%TD*%
%TO.P,J4,1,Pin_1*%
%TO.N,/CAN-*%
X91125000Y-77550000D03*
%TO.P,J4,2,Pin_2*%
%TO.N,/CAN+*%
X89875000Y-77550000D03*
D10*
%TO.P,J4,MP*%
%TO.N,N/C*%
X92975000Y-80900000D03*
X88025000Y-80900000D03*
%TD*%
D12*
%TO.P,TP2,1,1*%
%TO.N,Net-(U2-I_{PK})*%
X98000000Y-98500000D03*
X98000000Y-100500000D03*
%TD*%
D13*
%TO.P,C4,2*%
%TO.N,GND*%
X88500000Y-99050000D03*
%TO.P,C4,1*%
%TO.N,+12V*%
X88500000Y-100950000D03*
%TD*%
D14*
%TO.P,R3,1*%
%TO.N,Net-(U2-I_{PK})*%
X92000000Y-99087500D03*
%TO.P,R3,2*%
%TO.N,+12V*%
X92000000Y-100912500D03*
%TD*%
D15*
%TO.P,R1,1*%
%TO.N,Net-(U2-I_{PK})*%
X94500000Y-98500000D03*
%TO.P,R1,2*%
%TO.N,Net-(U2-DC)*%
X94500000Y-100500000D03*
%TD*%
D16*
%TO.P,U2,8,DC*%
%TO.N,Net-(U2-DC)*%
X105525000Y-101905000D03*
%TO.P,U2,7,I_{PK}*%
%TO.N,Net-(U2-I_{PK})*%
X105525000Y-100635000D03*
%TO.P,U2,6,VCC*%
%TO.N,+12V*%
X105525000Y-99365000D03*
%TO.P,U2,5,COMP-*%
%TO.N,Net-(U2-COMP-)*%
X105525000Y-98095000D03*
%TO.P,U2,4,GND*%
%TO.N,GND*%
X110475000Y-98095000D03*
%TO.P,U2,3,CT*%
%TO.N,Net-(U2-CT)*%
X110475000Y-99365000D03*
%TO.P,U2,2,SE*%
%TO.N,GND*%
X110475000Y-100635000D03*
%TO.P,U2,1,SC*%
%TO.N,Net-(D2-A)*%
X110475000Y-101905000D03*
%TD*%
D17*
%TO.P,C2,2*%
%TO.N,GND*%
X111000000Y-94137500D03*
%TO.P,C2,1*%
%TO.N,Net-(U2-CT)*%
X111000000Y-95862500D03*
%TD*%
D12*
%TO.P,TP1,1,1*%
%TO.N,Net-(D2-A)*%
X117500000Y-91000000D03*
X117500000Y-93000000D03*
%TD*%
D14*
%TO.P,R2,2*%
%TO.N,Net-(U2-COMP-)*%
X107500000Y-95912500D03*
%TO.P,R2,1*%
%TO.N,VCC*%
X107500000Y-94087500D03*
%TD*%
%TO.P,R4,2*%
%TO.N,GND*%
X101500000Y-99912500D03*
%TO.P,R4,1*%
%TO.N,Net-(U2-COMP-)*%
X101500000Y-98087500D03*
%TD*%
D18*
%TO.P,D2,1,K*%
%TO.N,VCC*%
X117000000Y-85062500D03*
%TO.P,D2,2,A*%
%TO.N,Net-(D2-A)*%
X117000000Y-86937500D03*
%TD*%
D19*
%TO.P,C1,1*%
%TO.N,VCC*%
X108097349Y-86000000D03*
D20*
%TO.P,C1,2*%
%TO.N,GND*%
X113097349Y-86000000D03*
%TD*%
D21*
%TO.P,J2,1,Pin_1*%
%TO.N,GND*%
X99500000Y-79000000D03*
D22*
%TO.P,J2,2,Pin_2*%
%TO.N,VCC*%
X104500000Y-79000000D03*
%TD*%
D21*
%TO.P,J1,1,Pin_1*%
%TO.N,GND*%
X84000000Y-94000000D03*
D22*
%TO.P,J1,2,Pin_2*%
%TO.N,+12V*%
X89000000Y-94000000D03*
%TD*%
D23*
%TO.P,L1,1,1*%
%TO.N,Net-(U2-I_{PK})*%
X94430000Y-90000000D03*
%TO.P,L1,2,2*%
%TO.N,Net-(D2-A)*%
X103570000Y-90000000D03*
%TD*%
D24*
%TO.N,VCC*%
X115937500Y-84000000D02*
X117000000Y-85062500D01*
X110097349Y-84000000D02*
X115937500Y-84000000D01*
X108097349Y-86000000D02*
X110097349Y-84000000D01*
%TO.N,Net-(U2-I_{PK})*%
X98435000Y-100935000D02*
X98000000Y-100500000D01*
X105225000Y-100935000D02*
X98435000Y-100935000D01*
X105525000Y-100635000D02*
X105225000Y-100935000D01*
%TO.N,Net-(U2-DC)*%
X95905000Y-101905000D02*
X105525000Y-101905000D01*
X94500000Y-100500000D02*
X95905000Y-101905000D01*
%TO.N,Net-(U2-COMP-)*%
X107500000Y-96120000D02*
X105525000Y-98095000D01*
X107500000Y-95912500D02*
X107500000Y-96120000D01*
X105517500Y-98087500D02*
X105525000Y-98095000D01*
X101500000Y-98087500D02*
X105517500Y-98087500D01*
%TO.N,Net-(U2-CT)*%
X111449999Y-99365000D02*
X110475000Y-99365000D01*
X111901000Y-98913999D02*
X111449999Y-99365000D01*
X111901000Y-96763500D02*
X111901000Y-98913999D01*
X111000000Y-95862500D02*
X111901000Y-96763500D01*
D25*
%TO.N,/CAN-*%
X91125000Y-78100000D02*
X91125000Y-77550000D01*
X90725000Y-78500000D02*
X91125000Y-78100000D01*
X88725000Y-83093198D02*
X90725000Y-81093198D01*
X90725000Y-81093198D02*
X90725000Y-78500000D01*
X89125000Y-84500000D02*
X88725000Y-84100000D01*
X89125000Y-85050000D02*
X89125000Y-84500000D01*
%TO.N,/CAN+*%
X89875000Y-78100000D02*
X89875000Y-77550000D01*
X90275000Y-78500000D02*
X89875000Y-78100000D01*
%TO.N,/CAN-*%
X88725000Y-84100000D02*
X88725000Y-83093198D01*
%TO.N,/CAN+*%
X88275000Y-82906802D02*
X90275000Y-80906802D01*
X90275000Y-80906802D02*
X90275000Y-78500000D01*
X88275000Y-84100000D02*
X88275000Y-82906802D01*
X87875000Y-85050000D02*
X87875000Y-84500000D01*
X87875000Y-84500000D02*
X88275000Y-84100000D01*
D24*
%TO.N,VCC*%
X104500000Y-79000000D02*
X104500000Y-82402651D01*
X104500000Y-82402651D02*
X108097349Y-86000000D01*
X108097349Y-93490151D02*
X107500000Y-94087500D01*
X108097349Y-86000000D02*
X108097349Y-93490151D01*
%TO.N,Net-(U2-COMP-)*%
X107500000Y-95912500D02*
X107207500Y-95912500D01*
%TD*%
%TA.AperFunction,Conductor*%
%TO.N,+12V*%
G36*
X86605703Y-94776511D02*
G01*
X86641542Y-94829270D01*
X86686662Y-94958217D01*
X86808492Y-95211200D01*
X86957884Y-95448956D01*
X87064187Y-95582257D01*
X87884728Y-94761716D01*
X87970278Y-94879466D01*
X88120534Y-95029722D01*
X88238281Y-95115270D01*
X87417741Y-95935810D01*
X87417741Y-95935811D01*
X87551043Y-96042115D01*
X87788799Y-96191507D01*
X88041782Y-96313337D01*
X88306819Y-96406077D01*
X88306821Y-96406078D01*
X88580575Y-96468560D01*
X88580587Y-96468562D01*
X88859598Y-96499999D01*
X88859600Y-96500000D01*
X89140400Y-96500000D01*
X89140401Y-96499999D01*
X89419412Y-96468562D01*
X89419424Y-96468560D01*
X89693178Y-96406078D01*
X89693180Y-96406077D01*
X89958217Y-96313337D01*
X90211200Y-96191507D01*
X90448956Y-96042116D01*
X90582257Y-95935810D01*
X89761717Y-95115271D01*
X89879466Y-95029722D01*
X90029722Y-94879466D01*
X90115270Y-94761717D01*
X90935810Y-95582257D01*
X91042116Y-95448956D01*
X91191509Y-95211197D01*
X91264280Y-95060087D01*
X91311102Y-95008227D01*
X91378529Y-94989914D01*
X91445153Y-95010962D01*
X91489822Y-95064688D01*
X91500000Y-95113888D01*
X91500000Y-96470727D01*
X91486909Y-96526181D01*
X90584329Y-98331342D01*
X90500000Y-98500000D01*
X90500000Y-100000000D01*
X91083620Y-100000000D01*
X91150659Y-100019685D01*
X91196414Y-100072489D01*
X91206358Y-100141647D01*
X91183237Y-100195439D01*
X91183846Y-100195815D01*
X91181309Y-100199927D01*
X91180887Y-100200910D01*
X91180051Y-100201966D01*
X91089551Y-100348688D01*
X91089546Y-100348699D01*
X91035319Y-100512347D01*
X91025000Y-100613345D01*
X91025000Y-100662500D01*
X91876000Y-100662500D01*
X91943039Y-100682185D01*
X91988794Y-100734989D01*
X92000000Y-100786500D01*
X92000000Y-100912500D01*
X92126000Y-100912500D01*
X92193039Y-100932185D01*
X92238794Y-100984989D01*
X92250000Y-101036500D01*
X92250000Y-101899999D01*
X92286640Y-101899999D01*
X92286654Y-101899998D01*
X92363398Y-101892158D01*
X92432090Y-101904927D01*
X92482975Y-101952808D01*
X92500000Y-102015516D01*
X92500000Y-103000000D01*
X107000000Y-103000000D01*
X107000000Y-102131922D01*
X107000382Y-102122193D01*
X107000500Y-102120694D01*
X107000500Y-101689306D01*
X107000499Y-101689290D01*
X107000382Y-101687803D01*
X107000000Y-101678078D01*
X107000000Y-100861922D01*
X107000382Y-100852193D01*
X107000500Y-100850694D01*
X107000500Y-100419306D01*
X107000382Y-100417803D01*
X107000000Y-100408078D01*
X107000000Y-100000000D01*
X106985147Y-99985147D01*
X106968690Y-99980315D01*
X106922935Y-99927511D01*
X106912991Y-99858353D01*
X106928997Y-99812878D01*
X106951282Y-99775196D01*
X106997100Y-99617486D01*
X106997295Y-99615001D01*
X106997295Y-99615000D01*
X104052705Y-99615000D01*
X104052704Y-99615001D01*
X104052899Y-99617486D01*
X104098717Y-99775196D01*
X104121003Y-99812878D01*
X104138186Y-99880602D01*
X104116026Y-99946865D01*
X104061561Y-99990628D01*
X104014271Y-100000000D01*
X103624000Y-100000000D01*
X103556961Y-99980315D01*
X103511206Y-99927511D01*
X103500000Y-99876000D01*
X103500000Y-99124000D01*
X103519685Y-99056961D01*
X103572489Y-99011206D01*
X103624000Y-99000000D01*
X103927613Y-99000000D01*
X103994652Y-99019685D01*
X104040407Y-99072489D01*
X104046789Y-99108601D01*
X104052705Y-99115000D01*
X106997295Y-99115000D01*
X107004293Y-99107428D01*
X107013134Y-99065350D01*
X107062187Y-99015594D01*
X107122387Y-99000000D01*
X108376000Y-99000000D01*
X108443039Y-99019685D01*
X108488794Y-99072489D01*
X108500000Y-99124000D01*
X108500000Y-102576479D01*
X108498738Y-102594125D01*
X108494500Y-102623600D01*
X108494500Y-102876007D01*
X108499289Y-102920541D01*
X108500000Y-102933797D01*
X108500000Y-103876000D01*
X108480315Y-103943039D01*
X108427511Y-103988794D01*
X108376000Y-104000000D01*
X86624000Y-104000000D01*
X86556961Y-103980315D01*
X86511206Y-103927511D01*
X86500000Y-103876000D01*
X86500000Y-101249986D01*
X87275001Y-101249986D01*
X87285494Y-101352697D01*
X87340641Y-101519119D01*
X87340643Y-101519124D01*
X87432684Y-101668345D01*
X87556654Y-101792315D01*
X87705875Y-101884356D01*
X87705880Y-101884358D01*
X87872302Y-101939505D01*
X87872309Y-101939506D01*
X87975019Y-101949999D01*
X88249999Y-101949999D01*
X88750000Y-101949999D01*
X89024972Y-101949999D01*
X89024986Y-101949998D01*
X89127697Y-101939505D01*
X89294119Y-101884358D01*
X89294124Y-101884356D01*
X89443345Y-101792315D01*
X89567315Y-101668345D01*
X89659356Y-101519124D01*
X89659358Y-101519119D01*
X89714505Y-101352697D01*
X89714506Y-101352690D01*
X89724999Y-101249986D01*
X89725000Y-101249973D01*
X89725000Y-101211654D01*
X91025001Y-101211654D01*
X91035319Y-101312652D01*
X91089546Y-101476300D01*
X91089551Y-101476311D01*
X91180052Y-101623034D01*
X91180055Y-101623038D01*
X91301961Y-101744944D01*
X91301965Y-101744947D01*
X91448688Y-101835448D01*
X91448699Y-101835453D01*
X91612347Y-101889680D01*
X91713352Y-101899999D01*
X91750000Y-101899999D01*
X91750000Y-101162500D01*
X91025001Y-101162500D01*
X91025001Y-101211654D01*
X89725000Y-101211654D01*
X89725000Y-101200000D01*
X88750000Y-101200000D01*
X88750000Y-101949999D01*
X88249999Y-101949999D01*
X88250000Y-101949998D01*
X88250000Y-101200000D01*
X87275001Y-101200000D01*
X87275001Y-101249986D01*
X86500000Y-101249986D01*
X86500000Y-100124000D01*
X86519685Y-100056961D01*
X86572489Y-100011206D01*
X86624000Y-100000000D01*
X87364977Y-100000000D01*
X87432016Y-100019685D01*
X87477771Y-100072489D01*
X87487715Y-100141647D01*
X87458690Y-100205203D01*
X87452658Y-100211681D01*
X87432684Y-100231654D01*
X87340643Y-100380875D01*
X87340641Y-100380880D01*
X87285494Y-100547302D01*
X87285493Y-100547309D01*
X87275000Y-100650013D01*
X87275000Y-100700000D01*
X89724999Y-100700000D01*
X89724999Y-100650028D01*
X89724998Y-100650013D01*
X89714505Y-100547302D01*
X89659358Y-100380880D01*
X89659356Y-100380875D01*
X89567315Y-100231654D01*
X89505511Y-100169850D01*
X89472026Y-100108527D01*
X89470720Y-100062764D01*
X89480665Y-100000000D01*
X89500000Y-100000000D01*
X89500000Y-99877968D01*
X89501528Y-99868325D01*
X89512482Y-99845221D01*
X89519685Y-99820691D01*
X89530441Y-99807343D01*
X89531461Y-99805192D01*
X89532893Y-99804300D01*
X89536319Y-99800049D01*
X89538018Y-99798350D01*
X89567712Y-99768656D01*
X89659814Y-99619334D01*
X89714999Y-99452797D01*
X89725500Y-99350009D01*
X89725499Y-98749992D01*
X89714999Y-98647203D01*
X89659814Y-98480666D01*
X89567712Y-98331344D01*
X89536319Y-98299951D01*
X89502834Y-98238628D01*
X89500000Y-98212270D01*
X89500000Y-96999999D01*
X86106464Y-96515209D01*
X86042882Y-96486241D01*
X86005054Y-96427497D01*
X86000000Y-96392455D01*
X86000000Y-96113978D01*
X86019685Y-96046939D01*
X86036314Y-96026301D01*
X86111527Y-95951089D01*
X86149066Y-95896905D01*
X86204600Y-95816748D01*
X86204600Y-95816747D01*
X86240739Y-95764583D01*
X86240740Y-95764582D01*
X86334574Y-95558000D01*
X86390013Y-95337983D01*
X86400500Y-95204736D01*
X86400500Y-94870224D01*
X86420185Y-94803185D01*
X86472989Y-94757430D01*
X86542147Y-94747486D01*
X86605703Y-94776511D01*
G37*
%TD.AperFunction*%
%TA.AperFunction,Conductor*%
G36*
X87953150Y-91519685D02*
G01*
X87998905Y-91572489D01*
X88008849Y-91641647D01*
X87979824Y-91705203D01*
X87939913Y-91735720D01*
X87788799Y-91808492D01*
X87551043Y-91957884D01*
X87417741Y-92064187D01*
X88238282Y-92884728D01*
X88120534Y-92970278D01*
X87970278Y-93120534D01*
X87884728Y-93238282D01*
X87064187Y-92417741D01*
X86957884Y-92551043D01*
X86808492Y-92788799D01*
X86686663Y-93041780D01*
X86641542Y-93170730D01*
X86600820Y-93227506D01*
X86535867Y-93253253D01*
X86467305Y-93239797D01*
X86416903Y-93191409D01*
X86400500Y-93129775D01*
X86400500Y-92795270D01*
X86400500Y-92795264D01*
X86390013Y-92662017D01*
X86334574Y-92442000D01*
X86240740Y-92235418D01*
X86240736Y-92235410D01*
X86111526Y-92048909D01*
X86036319Y-91973702D01*
X86002834Y-91912379D01*
X86000000Y-91886021D01*
X86000000Y-91624000D01*
X86019685Y-91556961D01*
X86072489Y-91511206D01*
X86124000Y-91500000D01*
X87886111Y-91500000D01*
X87953150Y-91519685D01*
G37*
%TD.AperFunction*%
%TA.AperFunction,Conductor*%
G36*
X91443039Y-91519685D02*
G01*
X91488794Y-91572489D01*
X91500000Y-91624000D01*
X91500000Y-92886111D01*
X91480315Y-92953150D01*
X91427511Y-92998905D01*
X91358353Y-93008849D01*
X91294797Y-92979824D01*
X91264280Y-92939913D01*
X91191507Y-92788799D01*
X91042115Y-92551043D01*
X90935810Y-92417741D01*
X90115270Y-93238281D01*
X90029722Y-93120534D01*
X89879466Y-92970278D01*
X89761716Y-92884728D01*
X90582257Y-92064187D01*
X90448956Y-91957884D01*
X90211200Y-91808492D01*
X90060087Y-91735720D01*
X90008228Y-91688898D01*
X89989915Y-91621471D01*
X90010963Y-91554847D01*
X90064689Y-91510178D01*
X90113889Y-91500000D01*
X91376000Y-91500000D01*
X91443039Y-91519685D01*
G37*
%TD.AperFunction*%
%TD*%
%TA.AperFunction,Conductor*%
%TO.N,Net-(D2-A)*%
G36*
X115953356Y-86019685D02*
G01*
X115999111Y-86072489D01*
X116009055Y-86141647D01*
X115980030Y-86205203D01*
X115973998Y-86211681D01*
X115956370Y-86229308D01*
X115865096Y-86377285D01*
X115865094Y-86377290D01*
X115810407Y-86542326D01*
X115800000Y-86644184D01*
X115800000Y-86687500D01*
X118200000Y-86687500D01*
X118200000Y-86644197D01*
X118199999Y-86644184D01*
X118189592Y-86542326D01*
X118134905Y-86377290D01*
X118134903Y-86377285D01*
X118043629Y-86229308D01*
X118026002Y-86211681D01*
X117992517Y-86150358D01*
X117997501Y-86080666D01*
X118039373Y-86024733D01*
X118104837Y-86000316D01*
X118113683Y-86000000D01*
X118876000Y-86000000D01*
X118943039Y-86019685D01*
X118988794Y-86072489D01*
X119000000Y-86124000D01*
X119000000Y-96876000D01*
X118980315Y-96943039D01*
X118927511Y-96988794D01*
X118876000Y-97000000D01*
X115000000Y-97000000D01*
X112643216Y-102656282D01*
X112531795Y-102923692D01*
X112487840Y-102978004D01*
X112421500Y-102999930D01*
X112417333Y-103000000D01*
X109124000Y-103000000D01*
X109056961Y-102980315D01*
X109011206Y-102927511D01*
X109000000Y-102876000D01*
X109000000Y-102623602D01*
X109019685Y-102556563D01*
X109072489Y-102510808D01*
X109141647Y-102500864D01*
X109205203Y-102529889D01*
X109211681Y-102535921D01*
X109248438Y-102572678D01*
X109248447Y-102572685D01*
X109389803Y-102656282D01*
X109389806Y-102656283D01*
X109547504Y-102702099D01*
X109547510Y-102702100D01*
X109584350Y-102704999D01*
X109584366Y-102705000D01*
X110225000Y-102705000D01*
X110725000Y-102705000D01*
X111365634Y-102705000D01*
X111365649Y-102704999D01*
X111402489Y-102702100D01*
X111402495Y-102702099D01*
X111560193Y-102656283D01*
X111560196Y-102656282D01*
X111701552Y-102572685D01*
X111701561Y-102572678D01*
X111817678Y-102456561D01*
X111817685Y-102456552D01*
X111901281Y-102315198D01*
X111947100Y-102157486D01*
X111947295Y-102155001D01*
X111947295Y-102155000D01*
X110725000Y-102155000D01*
X110725000Y-102705000D01*
X110225000Y-102705000D01*
X110225000Y-102029000D01*
X110244685Y-101961961D01*
X110297489Y-101916206D01*
X110349000Y-101905000D01*
X110475000Y-101905000D01*
X110475000Y-101779000D01*
X110494685Y-101711961D01*
X110547489Y-101666206D01*
X110599000Y-101655000D01*
X111947295Y-101655000D01*
X111947295Y-101654998D01*
X111947100Y-101652511D01*
X111947099Y-101652508D01*
X111943914Y-101641544D01*
X111944113Y-101571675D01*
X111982054Y-101513005D01*
X111995423Y-101502974D01*
X111999997Y-101500000D01*
X112000000Y-101500000D01*
X114000000Y-97000000D01*
X113999999Y-96999997D01*
X114000000Y-96999997D01*
X113401577Y-94007882D01*
X116845669Y-94007882D01*
X116845670Y-94007883D01*
X116871059Y-94026329D01*
X117039362Y-94112085D01*
X117218997Y-94170451D01*
X117405553Y-94200000D01*
X117594447Y-94200000D01*
X117781002Y-94170451D01*
X117960637Y-94112085D01*
X118128937Y-94026331D01*
X118154328Y-94007883D01*
X118154328Y-94007882D01*
X117500001Y-93353554D01*
X117500000Y-93353554D01*
X116845669Y-94007882D01*
X113401577Y-94007882D01*
X113396989Y-93984941D01*
X113185001Y-92925004D01*
X113181111Y-92905552D01*
X116300000Y-92905552D01*
X116300000Y-93094447D01*
X116329548Y-93281002D01*
X116387914Y-93460637D01*
X116473666Y-93628933D01*
X116492116Y-93654328D01*
X117146446Y-93000000D01*
X117146446Y-92999999D01*
X117100369Y-92953922D01*
X117150000Y-92953922D01*
X117150000Y-93046078D01*
X117173852Y-93135095D01*
X117219930Y-93214905D01*
X117285095Y-93280070D01*
X117364905Y-93326148D01*
X117453922Y-93350000D01*
X117546078Y-93350000D01*
X117635095Y-93326148D01*
X117714905Y-93280070D01*
X117780070Y-93214905D01*
X117826148Y-93135095D01*
X117850000Y-93046078D01*
X117850000Y-92999999D01*
X117853554Y-92999999D01*
X117853554Y-93000000D01*
X118507882Y-93654328D01*
X118507883Y-93654328D01*
X118526331Y-93628937D01*
X118612085Y-93460637D01*
X118670451Y-93281002D01*
X118700000Y-93094447D01*
X118700000Y-92905552D01*
X118670451Y-92718997D01*
X118612085Y-92539362D01*
X118526329Y-92371059D01*
X118507883Y-92345670D01*
X118507882Y-92345669D01*
X117853554Y-92999999D01*
X117850000Y-92999999D01*
X117850000Y-92953922D01*
X117826148Y-92864905D01*
X117780070Y-92785095D01*
X117714905Y-92719930D01*
X117635095Y-92673852D01*
X117546078Y-92650000D01*
X117453922Y-92650000D01*
X117364905Y-92673852D01*
X117285095Y-92719930D01*
X117219930Y-92785095D01*
X117173852Y-92864905D01*
X117150000Y-92953922D01*
X117100369Y-92953922D01*
X116492116Y-92345669D01*
X116492116Y-92345670D01*
X116473669Y-92371060D01*
X116387914Y-92539362D01*
X116329548Y-92718997D01*
X116300000Y-92905552D01*
X113181111Y-92905552D01*
X113000000Y-92000000D01*
X116853554Y-92000000D01*
X117500000Y-92646446D01*
X118146446Y-92000000D01*
X117500000Y-91353554D01*
X116853554Y-92000000D01*
X113000000Y-92000000D01*
X108971849Y-92000000D01*
X108904810Y-91980315D01*
X108859055Y-91927511D01*
X108847849Y-91876000D01*
X108847849Y-90905552D01*
X116300000Y-90905552D01*
X116300000Y-91094447D01*
X116329548Y-91281002D01*
X116387914Y-91460637D01*
X116473666Y-91628933D01*
X116492116Y-91654328D01*
X117146446Y-91000000D01*
X117146446Y-90999999D01*
X117100369Y-90953922D01*
X117150000Y-90953922D01*
X117150000Y-91046078D01*
X117173852Y-91135095D01*
X117219930Y-91214905D01*
X117285095Y-91280070D01*
X117364905Y-91326148D01*
X117453922Y-91350000D01*
X117546078Y-91350000D01*
X117635095Y-91326148D01*
X117714905Y-91280070D01*
X117780070Y-91214905D01*
X117826148Y-91135095D01*
X117850000Y-91046078D01*
X117850000Y-90999999D01*
X117853554Y-90999999D01*
X117853554Y-91000000D01*
X118507882Y-91654328D01*
X118507883Y-91654328D01*
X118526331Y-91628937D01*
X118612085Y-91460637D01*
X118670451Y-91281002D01*
X118700000Y-91094447D01*
X118700000Y-90905552D01*
X118670451Y-90718997D01*
X118612085Y-90539362D01*
X118526329Y-90371059D01*
X118507883Y-90345670D01*
X118507882Y-90345669D01*
X117853554Y-90999999D01*
X117850000Y-90999999D01*
X117850000Y-90953922D01*
X117826148Y-90864905D01*
X117780070Y-90785095D01*
X117714905Y-90719930D01*
X117635095Y-90673852D01*
X117546078Y-90650000D01*
X117453922Y-90650000D01*
X117364905Y-90673852D01*
X117285095Y-90719930D01*
X117219930Y-90785095D01*
X117173852Y-90864905D01*
X117150000Y-90953922D01*
X117100369Y-90953922D01*
X116492116Y-90345669D01*
X116492116Y-90345670D01*
X116473669Y-90371060D01*
X116387914Y-90539362D01*
X116329548Y-90718997D01*
X116300000Y-90905552D01*
X108847849Y-90905552D01*
X108847849Y-90124000D01*
X108867534Y-90056961D01*
X108920338Y-90011206D01*
X108971849Y-90000000D01*
X112999999Y-90000000D01*
X113000000Y-90000000D01*
X113003942Y-89992116D01*
X116845669Y-89992116D01*
X117500000Y-90646446D01*
X117500001Y-90646446D01*
X118154328Y-89992116D01*
X118128933Y-89973666D01*
X117960637Y-89887914D01*
X117781002Y-89829548D01*
X117594447Y-89800000D01*
X117405553Y-89800000D01*
X117218997Y-89829548D01*
X117039362Y-89887914D01*
X116871060Y-89973669D01*
X116845670Y-89992116D01*
X116845669Y-89992116D01*
X113003942Y-89992116D01*
X114037501Y-87924999D01*
X114384593Y-87230815D01*
X115800000Y-87230815D01*
X115810407Y-87332673D01*
X115865094Y-87497709D01*
X115865096Y-87497714D01*
X115956370Y-87645691D01*
X116079308Y-87768629D01*
X116227285Y-87859903D01*
X116227290Y-87859905D01*
X116392326Y-87914592D01*
X116494184Y-87924999D01*
X116494197Y-87925000D01*
X116750000Y-87925000D01*
X117250000Y-87925000D01*
X117505803Y-87925000D01*
X117505815Y-87924999D01*
X117607673Y-87914592D01*
X117772709Y-87859905D01*
X117772714Y-87859903D01*
X117920691Y-87768629D01*
X118043629Y-87645691D01*
X118134903Y-87497714D01*
X118134905Y-87497709D01*
X118189592Y-87332673D01*
X118199999Y-87230815D01*
X118200000Y-87230802D01*
X118200000Y-87187500D01*
X117250000Y-87187500D01*
X117250000Y-87925000D01*
X116750000Y-87925000D01*
X116750000Y-87187500D01*
X115800000Y-87187500D01*
X115800000Y-87230815D01*
X114384593Y-87230815D01*
X114459658Y-87080684D01*
X114965727Y-86068546D01*
X115013314Y-86017387D01*
X115076636Y-86000000D01*
X115886317Y-86000000D01*
X115953356Y-86019685D01*
G37*
%TD.AperFunction*%
%TA.AperFunction,Conductor*%
G36*
X102321841Y-84519685D02*
G01*
X102367596Y-84572489D01*
X102377540Y-84641647D01*
X102368404Y-84669100D01*
X102369746Y-84669601D01*
X102316403Y-84812620D01*
X102316401Y-84812627D01*
X102310000Y-84872155D01*
X102310000Y-89750000D01*
X104830000Y-89750000D01*
X104830000Y-84872172D01*
X104829999Y-84872155D01*
X104823598Y-84812627D01*
X104823596Y-84812620D01*
X104770254Y-84669601D01*
X104773122Y-84668531D01*
X104761515Y-84615136D01*
X104785942Y-84549675D01*
X104841881Y-84507812D01*
X104885198Y-84500000D01*
X105376000Y-84500000D01*
X105443039Y-84519685D01*
X105488794Y-84572489D01*
X105500000Y-84624000D01*
X105500000Y-90000000D01*
X107222849Y-90000000D01*
X107289888Y-90019685D01*
X107335643Y-90072489D01*
X107346849Y-90124000D01*
X107346849Y-91876000D01*
X107327164Y-91943039D01*
X107274360Y-91988794D01*
X107222849Y-92000000D01*
X105500000Y-92000000D01*
X105500000Y-95376000D01*
X105480315Y-95443039D01*
X105427511Y-95488794D01*
X105376000Y-95500000D01*
X104885198Y-95500000D01*
X104818159Y-95480315D01*
X104772404Y-95427511D01*
X104762460Y-95358353D01*
X104771595Y-95330899D01*
X104770254Y-95330399D01*
X104823596Y-95187379D01*
X104823598Y-95187372D01*
X104829999Y-95127844D01*
X104830000Y-95127827D01*
X104830000Y-90250000D01*
X102310000Y-90250000D01*
X102310000Y-95127844D01*
X102316401Y-95187372D01*
X102316403Y-95187379D01*
X102369746Y-95330399D01*
X102366877Y-95331468D01*
X102378485Y-95384864D01*
X102354058Y-95450325D01*
X102298119Y-95492188D01*
X102254802Y-95500000D01*
X102124000Y-95500000D01*
X102056961Y-95480315D01*
X102011206Y-95427511D01*
X102000000Y-95376000D01*
X102000000Y-84624000D01*
X102019685Y-84556961D01*
X102072489Y-84511206D01*
X102124000Y-84500000D01*
X102254802Y-84500000D01*
X102321841Y-84519685D01*
G37*
%TD.AperFunction*%
%TD*%
%TA.AperFunction,Conductor*%
%TO.N,Net-(U2-I_{PK})*%
G36*
X95943039Y-84019685D02*
G01*
X95988794Y-84072489D01*
X96000000Y-84124000D01*
X96000000Y-95500000D01*
X99410065Y-96474304D01*
X99469118Y-96511648D01*
X99498606Y-96574990D01*
X99500000Y-96593533D01*
X99500000Y-101030500D01*
X99480315Y-101097539D01*
X99427511Y-101143294D01*
X99376000Y-101154500D01*
X99215657Y-101154500D01*
X99148618Y-101134815D01*
X99102863Y-101082011D01*
X99092919Y-101012853D01*
X99105173Y-100974203D01*
X99112085Y-100960636D01*
X99170451Y-100781002D01*
X99200000Y-100594447D01*
X99200000Y-100405552D01*
X99170451Y-100218997D01*
X99112085Y-100039362D01*
X99026329Y-99871059D01*
X99007883Y-99845670D01*
X99007882Y-99845669D01*
X98350000Y-100503551D01*
X98350000Y-100453922D01*
X98326148Y-100364905D01*
X98280070Y-100285095D01*
X98214905Y-100219930D01*
X98135095Y-100173852D01*
X98046078Y-100150000D01*
X97953922Y-100150000D01*
X97864905Y-100173852D01*
X97785095Y-100219930D01*
X97719930Y-100285095D01*
X97673852Y-100364905D01*
X97650000Y-100453922D01*
X97650000Y-100503553D01*
X96992116Y-99845669D01*
X96992116Y-99845670D01*
X96973669Y-99871060D01*
X96939768Y-99937594D01*
X96891793Y-99988389D01*
X96823971Y-100005183D01*
X96757837Y-99982644D01*
X96718376Y-99936752D01*
X96500000Y-99500000D01*
X97353554Y-99500000D01*
X98000000Y-100146446D01*
X98646446Y-99500000D01*
X98000000Y-98853554D01*
X97353554Y-99500000D01*
X96500000Y-99500000D01*
X96499999Y-99500000D01*
X95652445Y-99500000D01*
X95585406Y-99480315D01*
X95539651Y-99427511D01*
X95529707Y-99358353D01*
X95546906Y-99310903D01*
X95634356Y-99169124D01*
X95634358Y-99169119D01*
X95689505Y-99002697D01*
X95689506Y-99002690D01*
X95699999Y-98899986D01*
X95700000Y-98899973D01*
X95700000Y-98750000D01*
X93300001Y-98750000D01*
X93300001Y-98899986D01*
X93310494Y-99002697D01*
X93365641Y-99169119D01*
X93365643Y-99169124D01*
X93457684Y-99318345D01*
X93481988Y-99342649D01*
X93515473Y-99403972D01*
X93510489Y-99473664D01*
X93481988Y-99518011D01*
X93036319Y-99963681D01*
X93009391Y-99978384D01*
X92983573Y-99994977D01*
X92977372Y-99995868D01*
X92974996Y-99997166D01*
X92948638Y-100000000D01*
X92916380Y-100000000D01*
X92849341Y-99980315D01*
X92803586Y-99927511D01*
X92793642Y-99858353D01*
X92816762Y-99804560D01*
X92816154Y-99804185D01*
X92818690Y-99800072D01*
X92819113Y-99799090D01*
X92819948Y-99798033D01*
X92910448Y-99651311D01*
X92910453Y-99651300D01*
X92964680Y-99487652D01*
X92974999Y-99386654D01*
X92975000Y-99386641D01*
X92975000Y-99337500D01*
X92124000Y-99337500D01*
X92056961Y-99317815D01*
X92011206Y-99265011D01*
X92000000Y-99213500D01*
X92000000Y-99087500D01*
X91874000Y-99087500D01*
X91806961Y-99067815D01*
X91761206Y-99015011D01*
X91750000Y-98963500D01*
X91750000Y-98837500D01*
X92250000Y-98837500D01*
X92974999Y-98837500D01*
X92974999Y-98788360D01*
X92974998Y-98788345D01*
X92964680Y-98687347D01*
X92910453Y-98523699D01*
X92910450Y-98523692D01*
X92874731Y-98465784D01*
X92874730Y-98465783D01*
X92837579Y-98405552D01*
X96800000Y-98405552D01*
X96800000Y-98594447D01*
X96829548Y-98781002D01*
X96887914Y-98960637D01*
X96973666Y-99128933D01*
X96992116Y-99154328D01*
X97646446Y-98500000D01*
X97646446Y-98499999D01*
X97600369Y-98453922D01*
X97650000Y-98453922D01*
X97650000Y-98546078D01*
X97673852Y-98635095D01*
X97719930Y-98714905D01*
X97785095Y-98780070D01*
X97864905Y-98826148D01*
X97953922Y-98850000D01*
X98046078Y-98850000D01*
X98135095Y-98826148D01*
X98214905Y-98780070D01*
X98280070Y-98714905D01*
X98326148Y-98635095D01*
X98350000Y-98546078D01*
X98350000Y-98499999D01*
X98353554Y-98499999D01*
X98353554Y-98500000D01*
X99007882Y-99154328D01*
X99007883Y-99154328D01*
X99026331Y-99128937D01*
X99112085Y-98960637D01*
X99170451Y-98781002D01*
X99200000Y-98594447D01*
X99200000Y-98405552D01*
X99170451Y-98218997D01*
X99112085Y-98039362D01*
X99026329Y-97871059D01*
X99007883Y-97845670D01*
X99007882Y-97845669D01*
X98353554Y-98499999D01*
X98350000Y-98499999D01*
X98350000Y-98453922D01*
X98326148Y-98364905D01*
X98280070Y-98285095D01*
X98214905Y-98219930D01*
X98135095Y-98173852D01*
X98046078Y-98150000D01*
X97953922Y-98150000D01*
X97864905Y-98173852D01*
X97785095Y-98219930D01*
X97719930Y-98285095D01*
X97673852Y-98364905D01*
X97650000Y-98453922D01*
X97600369Y-98453922D01*
X96992116Y-97845669D01*
X96992116Y-97845670D01*
X96973669Y-97871060D01*
X96887914Y-98039362D01*
X96829548Y-98218997D01*
X96800000Y-98405552D01*
X92837579Y-98405552D01*
X92819943Y-98376960D01*
X92698038Y-98255055D01*
X92698034Y-98255052D01*
X92612676Y-98202402D01*
X92551311Y-98164551D01*
X92551300Y-98164546D01*
X92387652Y-98110319D01*
X92286781Y-98100013D01*
X93300000Y-98100013D01*
X93300000Y-98250000D01*
X94250000Y-98250000D01*
X94750000Y-98250000D01*
X95699999Y-98250000D01*
X95699999Y-98100028D01*
X95699998Y-98100013D01*
X95689505Y-97997302D01*
X95634358Y-97830880D01*
X95634356Y-97830875D01*
X95542315Y-97681654D01*
X95418345Y-97557684D01*
X95312043Y-97492116D01*
X97345669Y-97492116D01*
X98000000Y-98146446D01*
X98000001Y-98146446D01*
X98654328Y-97492116D01*
X98628933Y-97473666D01*
X98460637Y-97387914D01*
X98281002Y-97329548D01*
X98094447Y-97300000D01*
X97905553Y-97300000D01*
X97718997Y-97329548D01*
X97539362Y-97387914D01*
X97371060Y-97473669D01*
X97345670Y-97492116D01*
X97345669Y-97492116D01*
X95312043Y-97492116D01*
X95269124Y-97465643D01*
X95269119Y-97465641D01*
X95102697Y-97410494D01*
X95102690Y-97410493D01*
X94999986Y-97400000D01*
X94750000Y-97400000D01*
X94750000Y-98250000D01*
X94250000Y-98250000D01*
X94250000Y-97400000D01*
X94000029Y-97400000D01*
X94000012Y-97400001D01*
X93897302Y-97410494D01*
X93730880Y-97465641D01*
X93730875Y-97465643D01*
X93581654Y-97557684D01*
X93457684Y-97681654D01*
X93365643Y-97830875D01*
X93365641Y-97830880D01*
X93310494Y-97997302D01*
X93310493Y-97997309D01*
X93300000Y-98100013D01*
X92286781Y-98100013D01*
X92286654Y-98100000D01*
X92250000Y-98100000D01*
X92250000Y-98837500D01*
X91750000Y-98837500D01*
X91750000Y-98075178D01*
X91746379Y-98068548D01*
X91746379Y-98068543D01*
X91746377Y-98068539D01*
X91749011Y-98031700D01*
X91751358Y-97998856D01*
X91751360Y-97998849D01*
X91751361Y-97998847D01*
X91751363Y-97998844D01*
X91756613Y-97986772D01*
X93000000Y-95500000D01*
X93000000Y-95391884D01*
X93019685Y-95324845D01*
X93072489Y-95279090D01*
X93141647Y-95269146D01*
X93205203Y-95298171D01*
X93223267Y-95317573D01*
X93312813Y-95437190D01*
X93427906Y-95523350D01*
X93427913Y-95523354D01*
X93562620Y-95573596D01*
X93562627Y-95573598D01*
X93622155Y-95579999D01*
X93622172Y-95580000D01*
X94180000Y-95580000D01*
X94680000Y-95580000D01*
X95237828Y-95580000D01*
X95237844Y-95579999D01*
X95297372Y-95573598D01*
X95297379Y-95573596D01*
X95432086Y-95523354D01*
X95432093Y-95523350D01*
X95547187Y-95437190D01*
X95547190Y-95437187D01*
X95633350Y-95322093D01*
X95633354Y-95322086D01*
X95683596Y-95187379D01*
X95683598Y-95187372D01*
X95689999Y-95127844D01*
X95690000Y-95127827D01*
X95690000Y-90250000D01*
X94680000Y-90250000D01*
X94680000Y-95580000D01*
X94180000Y-95580000D01*
X94180000Y-89750000D01*
X94680000Y-89750000D01*
X95690000Y-89750000D01*
X95690000Y-84872172D01*
X95689999Y-84872155D01*
X95683598Y-84812627D01*
X95683596Y-84812620D01*
X95633354Y-84677913D01*
X95633350Y-84677906D01*
X95547190Y-84562812D01*
X95547187Y-84562809D01*
X95432093Y-84476649D01*
X95432086Y-84476645D01*
X95297379Y-84426403D01*
X95297372Y-84426401D01*
X95237844Y-84420000D01*
X94680000Y-84420000D01*
X94680000Y-89750000D01*
X94180000Y-89750000D01*
X94180000Y-84420000D01*
X93622155Y-84420000D01*
X93562627Y-84426401D01*
X93562620Y-84426403D01*
X93427913Y-84476645D01*
X93427906Y-84476649D01*
X93312812Y-84562809D01*
X93312809Y-84562812D01*
X93223266Y-84682426D01*
X93167332Y-84724297D01*
X93097641Y-84729281D01*
X93036318Y-84695795D01*
X93002834Y-84634472D01*
X93000000Y-84608115D01*
X93000000Y-84124000D01*
X93019685Y-84056961D01*
X93072489Y-84011206D01*
X93124000Y-84000000D01*
X95876000Y-84000000D01*
X95943039Y-84019685D01*
G37*
%TD.AperFunction*%
%TD*%
%TA.AperFunction,Conductor*%
%TO.N,GND*%
G36*
X115002702Y-75500617D02*
G01*
X115386771Y-75517386D01*
X115397506Y-75518326D01*
X115775971Y-75568152D01*
X115786597Y-75570025D01*
X116159284Y-75652648D01*
X116169710Y-75655442D01*
X116533765Y-75770227D01*
X116543911Y-75773920D01*
X116896578Y-75920000D01*
X116906369Y-75924566D01*
X117244942Y-76100816D01*
X117254310Y-76106224D01*
X117576244Y-76311318D01*
X117585105Y-76317523D01*
X117887930Y-76549889D01*
X117896217Y-76556843D01*
X118177635Y-76814715D01*
X118185284Y-76822364D01*
X118443156Y-77103782D01*
X118450110Y-77112069D01*
X118682476Y-77414894D01*
X118688681Y-77423755D01*
X118893775Y-77745689D01*
X118899183Y-77755057D01*
X119075430Y-78093623D01*
X119080002Y-78103427D01*
X119226075Y-78456078D01*
X119229775Y-78466244D01*
X119344554Y-78830278D01*
X119347354Y-78840727D01*
X119429971Y-79213389D01*
X119431849Y-79224042D01*
X119481671Y-79602473D01*
X119482614Y-79613249D01*
X119499382Y-79997297D01*
X119499500Y-80002706D01*
X119499500Y-85568275D01*
X119479815Y-85635314D01*
X119427011Y-85681069D01*
X119357853Y-85691013D01*
X119294297Y-85661988D01*
X119294297Y-85661987D01*
X119216339Y-85594435D01*
X119216331Y-85594430D01*
X119085465Y-85534664D01*
X119085460Y-85534662D01*
X119085459Y-85534662D01*
X119018420Y-85514977D01*
X119018422Y-85514977D01*
X119018417Y-85514976D01*
X118970944Y-85508150D01*
X118876000Y-85494500D01*
X118875998Y-85494500D01*
X118323649Y-85494500D01*
X118256610Y-85474815D01*
X118210855Y-85422011D01*
X118200473Y-85359011D01*
X118200339Y-85359005D01*
X118200370Y-85358385D01*
X118200291Y-85357903D01*
X118200498Y-85355869D01*
X118200500Y-85355842D01*
X118200500Y-84769157D01*
X118200499Y-84769144D01*
X118190087Y-84667225D01*
X118135362Y-84502075D01*
X118135358Y-84502069D01*
X118135357Y-84502066D01*
X118044028Y-84354000D01*
X118044025Y-84353996D01*
X117921003Y-84230974D01*
X117920999Y-84230971D01*
X117772933Y-84139642D01*
X117772927Y-84139639D01*
X117772925Y-84139638D01*
X117725763Y-84124010D01*
X117607776Y-84084913D01*
X117505855Y-84074500D01*
X117505848Y-84074500D01*
X117124730Y-84074500D01*
X117057691Y-84054815D01*
X117037049Y-84038181D01*
X116415921Y-83417052D01*
X116415914Y-83417046D01*
X116342229Y-83367812D01*
X116342229Y-83367813D01*
X116292991Y-83334913D01*
X116156417Y-83278343D01*
X116156407Y-83278340D01*
X116011420Y-83249500D01*
X116011418Y-83249500D01*
X110023431Y-83249500D01*
X110023429Y-83249500D01*
X109878441Y-83278340D01*
X109878431Y-83278343D01*
X109741857Y-83334913D01*
X109618933Y-83417048D01*
X109618933Y-83417049D01*
X108372800Y-84663181D01*
X108311477Y-84696666D01*
X108285119Y-84699500D01*
X107909579Y-84699500D01*
X107842540Y-84679815D01*
X107821898Y-84663181D01*
X105286819Y-82128102D01*
X105253334Y-82066779D01*
X105250500Y-82040421D01*
X105250500Y-81474533D01*
X105270185Y-81407494D01*
X105322989Y-81361739D01*
X105333526Y-81357498D01*
X105458408Y-81313801D01*
X105711445Y-81191945D01*
X105949248Y-81042523D01*
X106168825Y-80867416D01*
X106367416Y-80668825D01*
X106542523Y-80449248D01*
X106691945Y-80211445D01*
X106813801Y-79958408D01*
X106906560Y-79693318D01*
X106969055Y-79419509D01*
X107000500Y-79140425D01*
X107000500Y-78893713D01*
X114649500Y-78893713D01*
X114649500Y-79106286D01*
X114677226Y-79281344D01*
X114682754Y-79316243D01*
X114719932Y-79430666D01*
X114748444Y-79518414D01*
X114844951Y-79707820D01*
X114969890Y-79879786D01*
X115120213Y-80030109D01*
X115292179Y-80155048D01*
X115292181Y-80155049D01*
X115292184Y-80155051D01*
X115481588Y-80251557D01*
X115683757Y-80317246D01*
X115893713Y-80350500D01*
X115893714Y-80350500D01*
X116106286Y-80350500D01*
X116106287Y-80350500D01*
X116316243Y-80317246D01*
X116518412Y-80251557D01*
X116707816Y-80155051D01*
X116729789Y-80139086D01*
X116879786Y-80030109D01*
X116879788Y-80030106D01*
X116879792Y-80030104D01*
X117030104Y-79879792D01*
X117030106Y-79879788D01*
X117030109Y-79879786D01*
X117155048Y-79707820D01*
X117155047Y-79707820D01*
X117155051Y-79707816D01*
X117251557Y-79518412D01*
X117317246Y-79316243D01*
X117350500Y-79106287D01*
X117350500Y-78893713D01*
X117317246Y-78683757D01*
X117251557Y-78481588D01*
X117155051Y-78292184D01*
X117155049Y-78292181D01*
X117155048Y-78292179D01*
X117030109Y-78120213D01*
X116879786Y-77969890D01*
X116707820Y-77844951D01*
X116518414Y-77748444D01*
X116518413Y-77748443D01*
X116518412Y-77748443D01*
X116316243Y-77682754D01*
X116316241Y-77682753D01*
X116316240Y-77682753D01*
X116154957Y-77657208D01*
X116106287Y-77649500D01*
X115893713Y-77649500D01*
X115845042Y-77657208D01*
X115683760Y-77682753D01*
X115481585Y-77748444D01*
X115292179Y-77844951D01*
X115120213Y-77969890D01*
X114969890Y-78120213D01*
X114844951Y-78292179D01*
X114748444Y-78481585D01*
X114682753Y-78683760D01*
X114649500Y-78893713D01*
X107000500Y-78893713D01*
X107000500Y-78859575D01*
X106988154Y-78750000D01*
X106969057Y-78580505D01*
X106969054Y-78580487D01*
X106906560Y-78306682D01*
X106906556Y-78306670D01*
X106866194Y-78191324D01*
X106813801Y-78041592D01*
X106691945Y-77788555D01*
X106542523Y-77550752D01*
X106367416Y-77331175D01*
X106168825Y-77132584D01*
X106132708Y-77103782D01*
X106064301Y-77049229D01*
X105949248Y-76957477D01*
X105711445Y-76808055D01*
X105711442Y-76808053D01*
X105458411Y-76686200D01*
X105193329Y-76593443D01*
X105193317Y-76593439D01*
X104919512Y-76530945D01*
X104919494Y-76530942D01*
X104640431Y-76499500D01*
X104640425Y-76499500D01*
X104359575Y-76499500D01*
X104359568Y-76499500D01*
X104080505Y-76530942D01*
X104080487Y-76530945D01*
X103806682Y-76593439D01*
X103806670Y-76593443D01*
X103541588Y-76686200D01*
X103288557Y-76808053D01*
X103050753Y-76957476D01*
X102831175Y-77132583D01*
X102632583Y-77331175D01*
X102457476Y-77550753D01*
X102308053Y-77788557D01*
X102186200Y-78041588D01*
X102141041Y-78170645D01*
X102100319Y-78227421D01*
X102035367Y-78253168D01*
X101966805Y-78239712D01*
X101916402Y-78191324D01*
X101900000Y-78129690D01*
X101900000Y-77795293D01*
X101899999Y-77795280D01*
X101889517Y-77662093D01*
X101889516Y-77662087D01*
X101834101Y-77442170D01*
X101834100Y-77442167D01*
X101740304Y-77235669D01*
X101740301Y-77235663D01*
X101611148Y-77049241D01*
X101611138Y-77049229D01*
X101450770Y-76888861D01*
X101450758Y-76888851D01*
X101264336Y-76759698D01*
X101264330Y-76759695D01*
X101057832Y-76665899D01*
X101057829Y-76665898D01*
X100837912Y-76610483D01*
X100837906Y-76610482D01*
X100704719Y-76600000D01*
X99750000Y-76600000D01*
X99750000Y-77672768D01*
X99606247Y-77650000D01*
X99393753Y-77650000D01*
X99250000Y-77672768D01*
X99250000Y-76600000D01*
X98295280Y-76600000D01*
X98162093Y-76610482D01*
X98162087Y-76610483D01*
X97942170Y-76665898D01*
X97942167Y-76665899D01*
X97735669Y-76759695D01*
X97735663Y-76759698D01*
X97549241Y-76888851D01*
X97549229Y-76888861D01*
X97388861Y-77049229D01*
X97388851Y-77049241D01*
X97259698Y-77235663D01*
X97259695Y-77235669D01*
X97165899Y-77442167D01*
X97165898Y-77442170D01*
X97110483Y-77662087D01*
X97110482Y-77662093D01*
X97100000Y-77795280D01*
X97100000Y-78750000D01*
X98172769Y-78750000D01*
X98150000Y-78893753D01*
X98150000Y-79106247D01*
X98172769Y-79250000D01*
X97100000Y-79250000D01*
X97100000Y-80204719D01*
X97110482Y-80337906D01*
X97110483Y-80337912D01*
X97165898Y-80557829D01*
X97165899Y-80557832D01*
X97259695Y-80764330D01*
X97259698Y-80764336D01*
X97388851Y-80950758D01*
X97388861Y-80950770D01*
X97549229Y-81111138D01*
X97549241Y-81111148D01*
X97735663Y-81240301D01*
X97735669Y-81240304D01*
X97942167Y-81334100D01*
X97942170Y-81334101D01*
X98162087Y-81389516D01*
X98162093Y-81389517D01*
X98295280Y-81399999D01*
X98295294Y-81400000D01*
X99250000Y-81400000D01*
X99250000Y-80327231D01*
X99393753Y-80350000D01*
X99606247Y-80350000D01*
X99750000Y-80327231D01*
X99750000Y-81400000D01*
X100704706Y-81400000D01*
X100704719Y-81399999D01*
X100837906Y-81389517D01*
X100837912Y-81389516D01*
X101057829Y-81334101D01*
X101057832Y-81334100D01*
X101264330Y-81240304D01*
X101264336Y-81240301D01*
X101450758Y-81111148D01*
X101450770Y-81111138D01*
X101611138Y-80950770D01*
X101611148Y-80950758D01*
X101740301Y-80764336D01*
X101740304Y-80764330D01*
X101834100Y-80557832D01*
X101834101Y-80557829D01*
X101889516Y-80337912D01*
X101889517Y-80337906D01*
X101899999Y-80204719D01*
X101900000Y-80204706D01*
X101900000Y-79870309D01*
X101919685Y-79803270D01*
X101972489Y-79757515D01*
X102041647Y-79747571D01*
X102105203Y-79776596D01*
X102141041Y-79829354D01*
X102186200Y-79958411D01*
X102308053Y-80211442D01*
X102308055Y-80211445D01*
X102457477Y-80449248D01*
X102632584Y-80668825D01*
X102831175Y-80867416D01*
X103050752Y-81042523D01*
X103257219Y-81172255D01*
X103288557Y-81191946D01*
X103541583Y-81313797D01*
X103541585Y-81313797D01*
X103541592Y-81313801D01*
X103666456Y-81357492D01*
X103723231Y-81398213D01*
X103748978Y-81463166D01*
X103749500Y-81474533D01*
X103749500Y-82476569D01*
X103749500Y-82476571D01*
X103749499Y-82476571D01*
X103778340Y-82621558D01*
X103778343Y-82621568D01*
X103825252Y-82734815D01*
X103834916Y-82758146D01*
X103848958Y-82779162D01*
X103863214Y-82800498D01*
X103917049Y-82881069D01*
X103917052Y-82881072D01*
X104833738Y-83797757D01*
X104867223Y-83859080D01*
X104862239Y-83928771D01*
X104820367Y-83984705D01*
X104768068Y-84007468D01*
X104752164Y-84010337D01*
X104752159Y-84010338D01*
X104752155Y-84010339D01*
X104752152Y-84010339D01*
X104665293Y-84034159D01*
X104539006Y-84103093D01*
X104539002Y-84103096D01*
X104483074Y-84144951D01*
X104483057Y-84144965D01*
X104381313Y-84246679D01*
X104322176Y-84354943D01*
X104272764Y-84404341D01*
X104213353Y-84419500D01*
X102931758Y-84419500D01*
X102864719Y-84399815D01*
X102827443Y-84362540D01*
X102777164Y-84284306D01*
X102749627Y-84241457D01*
X102749622Y-84241451D01*
X102703878Y-84188659D01*
X102703874Y-84188656D01*
X102703872Y-84188653D01*
X102595138Y-84094433D01*
X102595135Y-84094431D01*
X102595133Y-84094430D01*
X102464267Y-84034664D01*
X102464262Y-84034662D01*
X102464261Y-84034662D01*
X102397222Y-84014977D01*
X102397224Y-84014977D01*
X102397219Y-84014976D01*
X102335149Y-84006052D01*
X102254802Y-83994500D01*
X102124000Y-83994500D01*
X102123991Y-83994500D01*
X102123990Y-83994501D01*
X102016549Y-84006052D01*
X102016537Y-84006054D01*
X101965027Y-84017260D01*
X101862502Y-84051383D01*
X101862496Y-84051386D01*
X101741462Y-84129171D01*
X101741451Y-84129179D01*
X101688659Y-84174923D01*
X101594433Y-84283664D01*
X101594430Y-84283668D01*
X101534664Y-84414534D01*
X101514976Y-84481582D01*
X101501325Y-84576528D01*
X101494500Y-84624000D01*
X101494500Y-95376000D01*
X101494501Y-95376009D01*
X101506052Y-95483450D01*
X101506054Y-95483462D01*
X101517260Y-95534972D01*
X101551383Y-95637497D01*
X101551386Y-95637503D01*
X101629171Y-95758537D01*
X101629179Y-95758548D01*
X101674923Y-95811340D01*
X101674926Y-95811343D01*
X101674930Y-95811347D01*
X101783664Y-95905567D01*
X101783667Y-95905568D01*
X101783668Y-95905569D01*
X101896975Y-95957316D01*
X101914541Y-95965338D01*
X101981580Y-95985023D01*
X101981584Y-95985024D01*
X102124000Y-96005500D01*
X102124003Y-96005500D01*
X102254796Y-96005500D01*
X102254802Y-96005500D01*
X102344519Y-95997475D01*
X102387836Y-95989663D01*
X102474706Y-95965841D01*
X102600996Y-95896905D01*
X102656935Y-95855042D01*
X102758686Y-95753321D01*
X102804824Y-95668856D01*
X102817825Y-95645056D01*
X102867238Y-95595658D01*
X102926648Y-95580499D01*
X104208241Y-95580499D01*
X104275280Y-95600184D01*
X104312556Y-95637459D01*
X104390369Y-95758537D01*
X104390377Y-95758548D01*
X104436121Y-95811340D01*
X104436124Y-95811343D01*
X104436128Y-95811347D01*
X104544862Y-95905567D01*
X104544865Y-95905568D01*
X104544866Y-95905569D01*
X104658173Y-95957316D01*
X104675739Y-95965338D01*
X104742778Y-95985023D01*
X104742782Y-95985024D01*
X104885198Y-96005500D01*
X104885201Y-96005500D01*
X105375990Y-96005500D01*
X105376000Y-96005500D01*
X105483456Y-95993947D01*
X105534967Y-95982741D01*
X105585746Y-95965840D01*
X105637497Y-95948616D01*
X105637501Y-95948613D01*
X105637504Y-95948613D01*
X105758543Y-95870825D01*
X105811347Y-95825070D01*
X105905567Y-95716336D01*
X105965338Y-95585459D01*
X105985023Y-95518420D01*
X105985024Y-95518416D01*
X106005500Y-95376000D01*
X106005500Y-92629500D01*
X106025185Y-92562461D01*
X106077989Y-92516706D01*
X106129500Y-92505500D01*
X107222849Y-92505500D01*
X107289888Y-92525185D01*
X107335643Y-92577989D01*
X107346849Y-92629500D01*
X107346849Y-92975500D01*
X107327164Y-93042539D01*
X107274360Y-93088294D01*
X107222859Y-93099500D01*
X107213335Y-93099500D01*
X107213312Y-93099501D01*
X107112247Y-93109825D01*
X106948484Y-93164092D01*
X106948481Y-93164093D01*
X106801648Y-93254661D01*
X106679661Y-93376648D01*
X106589093Y-93523481D01*
X106589091Y-93523486D01*
X106578296Y-93556063D01*
X106534826Y-93687247D01*
X106534826Y-93687248D01*
X106534825Y-93687248D01*
X106524500Y-93788315D01*
X106524500Y-94386669D01*
X106524501Y-94386687D01*
X106534825Y-94487752D01*
X106548475Y-94528944D01*
X106589092Y-94651516D01*
X106661428Y-94768792D01*
X106679661Y-94798351D01*
X106793629Y-94912319D01*
X106827114Y-94973642D01*
X106822130Y-95043334D01*
X106793629Y-95087681D01*
X106679661Y-95201648D01*
X106589093Y-95348481D01*
X106589091Y-95348486D01*
X106534826Y-95512245D01*
X106534825Y-95512252D01*
X106528117Y-95577910D01*
X106519321Y-95612757D01*
X106485842Y-95693585D01*
X106485841Y-95693588D01*
X106457000Y-95838579D01*
X106457000Y-95986422D01*
X106463184Y-96017510D01*
X106456957Y-96087102D01*
X106429248Y-96129382D01*
X105300451Y-97258181D01*
X105239128Y-97291666D01*
X105212770Y-97294500D01*
X104634298Y-97294500D01*
X104597432Y-97297401D01*
X104597426Y-97297402D01*
X104478083Y-97332076D01*
X104443488Y-97337000D01*
X102332052Y-97337000D01*
X102265013Y-97317315D01*
X102244371Y-97300681D01*
X102198351Y-97254661D01*
X102198350Y-97254660D01*
X102051516Y-97164092D01*
X101887753Y-97109826D01*
X101887751Y-97109825D01*
X101786678Y-97099500D01*
X101213330Y-97099500D01*
X101213312Y-97099501D01*
X101112247Y-97109825D01*
X100948484Y-97164092D01*
X100948481Y-97164093D01*
X100801648Y-97254661D01*
X100679661Y-97376648D01*
X100589093Y-97523481D01*
X100589091Y-97523486D01*
X100582480Y-97543438D01*
X100534826Y-97687247D01*
X100534826Y-97687248D01*
X100534825Y-97687248D01*
X100524500Y-97788315D01*
X100524500Y-98386669D01*
X100524501Y-98386687D01*
X100534825Y-98487752D01*
X100561219Y-98567402D01*
X100589092Y-98651516D01*
X100674185Y-98789474D01*
X100679661Y-98798351D01*
X100793982Y-98912672D01*
X100827467Y-98973995D01*
X100822483Y-99043687D01*
X100793983Y-99088034D01*
X100680052Y-99201965D01*
X100589551Y-99348688D01*
X100589546Y-99348699D01*
X100535319Y-99512347D01*
X100525000Y-99613345D01*
X100525000Y-99662500D01*
X102474999Y-99662500D01*
X102474999Y-99613360D01*
X102474998Y-99613345D01*
X102464680Y-99512347D01*
X102410453Y-99348699D01*
X102410448Y-99348688D01*
X102319947Y-99201965D01*
X102319944Y-99201961D01*
X102206017Y-99088034D01*
X102201678Y-99080088D01*
X102194430Y-99074662D01*
X102185195Y-99049902D01*
X102172532Y-99026711D01*
X102173177Y-99017680D01*
X102170014Y-99009197D01*
X102175630Y-98983378D01*
X102177516Y-98957019D01*
X102183335Y-98947963D01*
X102184867Y-98940925D01*
X102206015Y-98912674D01*
X102244372Y-98874318D01*
X102305695Y-98840833D01*
X102332052Y-98838000D01*
X102892517Y-98838000D01*
X102959556Y-98857685D01*
X103005311Y-98910489D01*
X103015255Y-98979647D01*
X103014977Y-98981579D01*
X103014977Y-98981580D01*
X103014976Y-98981584D01*
X102994500Y-99124000D01*
X102994500Y-99876000D01*
X102994501Y-99876009D01*
X103006052Y-99983450D01*
X103006054Y-99983462D01*
X103017079Y-100034141D01*
X103012095Y-100103833D01*
X102970224Y-100159767D01*
X102904760Y-100184184D01*
X102895913Y-100184500D01*
X102548362Y-100184500D01*
X102481323Y-100164815D01*
X102478450Y-100162500D01*
X100513097Y-100162500D01*
X100477997Y-100181666D01*
X100451639Y-100184500D01*
X100129500Y-100184500D01*
X100062461Y-100164815D01*
X100016706Y-100112011D01*
X100005500Y-100060500D01*
X100005500Y-96593535D01*
X100004078Y-96555632D01*
X100002684Y-96537097D01*
X99998422Y-96499402D01*
X99998422Y-96499399D01*
X99956880Y-96361647D01*
X99928830Y-96301394D01*
X99927997Y-96299468D01*
X99927388Y-96298296D01*
X99889515Y-96240301D01*
X99848720Y-96177832D01*
X99848718Y-96177830D01*
X99848718Y-96177829D01*
X99739301Y-96084411D01*
X99739294Y-96084407D01*
X99680239Y-96047061D01*
X99680237Y-96047060D01*
X99548945Y-95988257D01*
X99548933Y-95988253D01*
X96595435Y-95144396D01*
X96536382Y-95107052D01*
X96506894Y-95043709D01*
X96505500Y-95025167D01*
X96505500Y-84124010D01*
X96505500Y-84124000D01*
X96493947Y-84016544D01*
X96482741Y-83965033D01*
X96482637Y-83964722D01*
X96448616Y-83862502D01*
X96448613Y-83862496D01*
X96397950Y-83783664D01*
X96370825Y-83741457D01*
X96346382Y-83713248D01*
X96325076Y-83688659D01*
X96325072Y-83688656D01*
X96325070Y-83688653D01*
X96216336Y-83594433D01*
X96216333Y-83594431D01*
X96216331Y-83594430D01*
X96085465Y-83534664D01*
X96085460Y-83534662D01*
X96085459Y-83534662D01*
X96018420Y-83514977D01*
X96018422Y-83514977D01*
X96018417Y-83514976D01*
X95956347Y-83506052D01*
X95876000Y-83494500D01*
X93124000Y-83494500D01*
X93123991Y-83494500D01*
X93123990Y-83494501D01*
X93016549Y-83506052D01*
X93016537Y-83506054D01*
X92965027Y-83517260D01*
X92862502Y-83551383D01*
X92862496Y-83551386D01*
X92741462Y-83629171D01*
X92741451Y-83629179D01*
X92688659Y-83674923D01*
X92594433Y-83783664D01*
X92594430Y-83783668D01*
X92534664Y-83914534D01*
X92514976Y-83981582D01*
X92507417Y-84034159D01*
X92494502Y-84123990D01*
X92494500Y-84124001D01*
X92494500Y-84608117D01*
X92497396Y-84662140D01*
X92497400Y-84662194D01*
X92500229Y-84688504D01*
X92500231Y-84688522D01*
X92508884Y-84741916D01*
X92508885Y-84741921D01*
X92559160Y-84876717D01*
X92559162Y-84876721D01*
X92592651Y-84938054D01*
X92678869Y-85053230D01*
X92678873Y-85053234D01*
X92794052Y-85139459D01*
X92855359Y-85172936D01*
X92855374Y-85172944D01*
X92855378Y-85172946D01*
X92855385Y-85172948D01*
X92855392Y-85172952D01*
X92990178Y-85223226D01*
X92990181Y-85223226D01*
X92990186Y-85223228D01*
X93054347Y-85227817D01*
X93119811Y-85252234D01*
X93161682Y-85308168D01*
X93169500Y-85351501D01*
X93169500Y-94646996D01*
X93149815Y-94714035D01*
X93097011Y-94759790D01*
X93063150Y-94769733D01*
X93000542Y-94778736D01*
X92862498Y-94819270D01*
X92862492Y-94819273D01*
X92741462Y-94897055D01*
X92741451Y-94897063D01*
X92688659Y-94942807D01*
X92594433Y-95051548D01*
X92594430Y-95051552D01*
X92534664Y-95182418D01*
X92514976Y-95249465D01*
X92499618Y-95356279D01*
X92487789Y-95394085D01*
X92240409Y-95888847D01*
X92192822Y-95940006D01*
X92125130Y-95957316D01*
X92058826Y-95935281D01*
X92014960Y-95880898D01*
X92005500Y-95833393D01*
X92005500Y-95113887D01*
X91995019Y-95011484D01*
X91992643Y-95000000D01*
X91984841Y-94962284D01*
X91953827Y-94864114D01*
X91878523Y-94741513D01*
X91833854Y-94687787D01*
X91727065Y-94591372D01*
X91727064Y-94591371D01*
X91597430Y-94528942D01*
X91558849Y-94516753D01*
X91500854Y-94477787D01*
X91473132Y-94413652D01*
X91472985Y-94384630D01*
X91480703Y-94316126D01*
X91500500Y-94140425D01*
X91500500Y-93859575D01*
X91472832Y-93614013D01*
X91484886Y-93545192D01*
X91532235Y-93493812D01*
X91561114Y-93481154D01*
X91637504Y-93458724D01*
X91758543Y-93380936D01*
X91811347Y-93335181D01*
X91905567Y-93226447D01*
X91965338Y-93095570D01*
X91985023Y-93028531D01*
X91985024Y-93028527D01*
X92005500Y-92886111D01*
X92005500Y-91624000D01*
X91993947Y-91516544D01*
X91982741Y-91465033D01*
X91974037Y-91438882D01*
X91948616Y-91362502D01*
X91948613Y-91362496D01*
X91870828Y-91241462D01*
X91870825Y-91241457D01*
X91870820Y-91241451D01*
X91825076Y-91188659D01*
X91825072Y-91188656D01*
X91825070Y-91188653D01*
X91716336Y-91094433D01*
X91716333Y-91094431D01*
X91716331Y-91094430D01*
X91585465Y-91034664D01*
X91585460Y-91034662D01*
X91585459Y-91034662D01*
X91526192Y-91017259D01*
X91518417Y-91014976D01*
X91448891Y-91004980D01*
X91376000Y-90994500D01*
X90113889Y-90994500D01*
X90011485Y-91004980D01*
X89962278Y-91015160D01*
X89864118Y-91046172D01*
X89864115Y-91046173D01*
X89785549Y-91094430D01*
X89741515Y-91121476D01*
X89687788Y-91166145D01*
X89591372Y-91272935D01*
X89528944Y-91402567D01*
X89516754Y-91441151D01*
X89477787Y-91499145D01*
X89413652Y-91526867D01*
X89384632Y-91527014D01*
X89140431Y-91499500D01*
X89140425Y-91499500D01*
X88859575Y-91499500D01*
X88859568Y-91499500D01*
X88614013Y-91527167D01*
X88545191Y-91515112D01*
X88493812Y-91467763D01*
X88481153Y-91438882D01*
X88470490Y-91402567D01*
X88458724Y-91362496D01*
X88380936Y-91241457D01*
X88380931Y-91241451D01*
X88335187Y-91188659D01*
X88335183Y-91188656D01*
X88335181Y-91188653D01*
X88226447Y-91094433D01*
X88226444Y-91094431D01*
X88226442Y-91094430D01*
X88095576Y-91034664D01*
X88095571Y-91034662D01*
X88095570Y-91034662D01*
X88036303Y-91017259D01*
X88028528Y-91014976D01*
X87959002Y-91004980D01*
X87886111Y-90994500D01*
X86124000Y-90994500D01*
X86123991Y-90994500D01*
X86123990Y-90994501D01*
X86016549Y-91006052D01*
X86016537Y-91006054D01*
X85965027Y-91017260D01*
X85862502Y-91051383D01*
X85862496Y-91051386D01*
X85741462Y-91129171D01*
X85741451Y-91129179D01*
X85688659Y-91174923D01*
X85594433Y-91283664D01*
X85594430Y-91283668D01*
X85534664Y-91414534D01*
X85514976Y-91481581D01*
X85510486Y-91512813D01*
X85481460Y-91576368D01*
X85422682Y-91614142D01*
X85357453Y-91615407D01*
X85337911Y-91610483D01*
X85337906Y-91610482D01*
X85204719Y-91600000D01*
X84250000Y-91600000D01*
X84250000Y-92672768D01*
X84106247Y-92650000D01*
X83893753Y-92650000D01*
X83750000Y-92672768D01*
X83750000Y-91600000D01*
X82795280Y-91600000D01*
X82662093Y-91610482D01*
X82662087Y-91610483D01*
X82442170Y-91665898D01*
X82442167Y-91665899D01*
X82235669Y-91759695D01*
X82235663Y-91759698D01*
X82049241Y-91888851D01*
X82049229Y-91888861D01*
X81888861Y-92049229D01*
X81888851Y-92049241D01*
X81759698Y-92235663D01*
X81759695Y-92235669D01*
X81665899Y-92442167D01*
X81665898Y-92442170D01*
X81610483Y-92662087D01*
X81610482Y-92662093D01*
X81600000Y-92795280D01*
X81600000Y-93750000D01*
X82672769Y-93750000D01*
X82650000Y-93893753D01*
X82650000Y-94106247D01*
X82672769Y-94250000D01*
X81600000Y-94250000D01*
X81600000Y-95204719D01*
X81610482Y-95337906D01*
X81610483Y-95337912D01*
X81665898Y-95557829D01*
X81665899Y-95557832D01*
X81759695Y-95764330D01*
X81759698Y-95764336D01*
X81888851Y-95950758D01*
X81888861Y-95950770D01*
X82049229Y-96111138D01*
X82049241Y-96111148D01*
X82235663Y-96240301D01*
X82235669Y-96240304D01*
X82442167Y-96334100D01*
X82442170Y-96334101D01*
X82662087Y-96389516D01*
X82662093Y-96389517D01*
X82795280Y-96399999D01*
X82795294Y-96400000D01*
X83750000Y-96400000D01*
X83750000Y-95327231D01*
X83893753Y-95350000D01*
X84106247Y-95350000D01*
X84250000Y-95327231D01*
X84250000Y-96400000D01*
X85204706Y-96400000D01*
X85204719Y-96399999D01*
X85337908Y-96389517D01*
X85350153Y-96386431D01*
X85419970Y-96389133D01*
X85477243Y-96429153D01*
X85503188Y-96488964D01*
X85504729Y-96499647D01*
X85520159Y-96570352D01*
X85520160Y-96570354D01*
X85580049Y-96701178D01*
X85617877Y-96759922D01*
X85712193Y-96868569D01*
X85833302Y-96946248D01*
X85896884Y-96975216D01*
X85896887Y-96975217D01*
X85904938Y-96977573D01*
X86034962Y-97015625D01*
X86034967Y-97015626D01*
X86034971Y-97015626D01*
X86034976Y-97015628D01*
X88888038Y-97423207D01*
X88951618Y-97452174D01*
X88989446Y-97510918D01*
X88994500Y-97545960D01*
X88994500Y-97926000D01*
X88974815Y-97993039D01*
X88922011Y-98038794D01*
X88870500Y-98050000D01*
X88750000Y-98050000D01*
X88750000Y-98926000D01*
X88730315Y-98993039D01*
X88677511Y-99038794D01*
X88626000Y-99050000D01*
X88500000Y-99050000D01*
X88500000Y-99176000D01*
X88480315Y-99243039D01*
X88427511Y-99288794D01*
X88376000Y-99300000D01*
X87275001Y-99300000D01*
X87275001Y-99349986D01*
X87275810Y-99357898D01*
X87263041Y-99426591D01*
X87215160Y-99477475D01*
X87152452Y-99494500D01*
X86624000Y-99494500D01*
X86623991Y-99494500D01*
X86623990Y-99494501D01*
X86516549Y-99506052D01*
X86516537Y-99506054D01*
X86465027Y-99517260D01*
X86362502Y-99551383D01*
X86362496Y-99551386D01*
X86241462Y-99629171D01*
X86241451Y-99629179D01*
X86188659Y-99674923D01*
X86094433Y-99783664D01*
X86094430Y-99783668D01*
X86034664Y-99914534D01*
X86014976Y-99981582D01*
X86007301Y-100034967D01*
X85994500Y-100124000D01*
X85994500Y-103876000D01*
X85994501Y-103876009D01*
X86006052Y-103983450D01*
X86006054Y-103983462D01*
X86017260Y-104034972D01*
X86051383Y-104137497D01*
X86051386Y-104137503D01*
X86129171Y-104258537D01*
X86129179Y-104258548D01*
X86160156Y-104294298D01*
X86189181Y-104357853D01*
X86179237Y-104427012D01*
X86133482Y-104479816D01*
X86066443Y-104499500D01*
X85002706Y-104499500D01*
X84997297Y-104499382D01*
X84613249Y-104482614D01*
X84602473Y-104481671D01*
X84224042Y-104431849D01*
X84213389Y-104429971D01*
X83840727Y-104347354D01*
X83830278Y-104344554D01*
X83466244Y-104229775D01*
X83456078Y-104226075D01*
X83103427Y-104080002D01*
X83093623Y-104075430D01*
X82755057Y-103899183D01*
X82745689Y-103893775D01*
X82423755Y-103688681D01*
X82414894Y-103682476D01*
X82112069Y-103450110D01*
X82103782Y-103443156D01*
X81822364Y-103185284D01*
X81814715Y-103177635D01*
X81556843Y-102896217D01*
X81549889Y-102887930D01*
X81317523Y-102585105D01*
X81311318Y-102576244D01*
X81259241Y-102494500D01*
X81106223Y-102254309D01*
X81100816Y-102244942D01*
X80981384Y-102015516D01*
X80924566Y-101906369D01*
X80919997Y-101896572D01*
X80773920Y-101543911D01*
X80770224Y-101533755D01*
X80766180Y-101520929D01*
X80655442Y-101169710D01*
X80652648Y-101159284D01*
X80593773Y-100893713D01*
X82649500Y-100893713D01*
X82649500Y-101106287D01*
X82682754Y-101316243D01*
X82734829Y-101476514D01*
X82748444Y-101518414D01*
X82844951Y-101707820D01*
X82969890Y-101879786D01*
X83120213Y-102030109D01*
X83292179Y-102155048D01*
X83292181Y-102155049D01*
X83292184Y-102155051D01*
X83481588Y-102251557D01*
X83683757Y-102317246D01*
X83893713Y-102350500D01*
X83893714Y-102350500D01*
X84106286Y-102350500D01*
X84106287Y-102350500D01*
X84316243Y-102317246D01*
X84518412Y-102251557D01*
X84707816Y-102155051D01*
X84729789Y-102139086D01*
X84879786Y-102030109D01*
X84879788Y-102030106D01*
X84879792Y-102030104D01*
X85030104Y-101879792D01*
X85030106Y-101879788D01*
X85030109Y-101879786D01*
X85155048Y-101707820D01*
X85155047Y-101707820D01*
X85155051Y-101707816D01*
X85251557Y-101518412D01*
X85317246Y-101316243D01*
X85350500Y-101106287D01*
X85350500Y-100893713D01*
X85317246Y-100683757D01*
X85251557Y-100481588D01*
X85155051Y-100292184D01*
X85155049Y-100292181D01*
X85155048Y-100292179D01*
X85030109Y-100120213D01*
X84879786Y-99969890D01*
X84707820Y-99844951D01*
X84518414Y-99748444D01*
X84518413Y-99748443D01*
X84518412Y-99748443D01*
X84316243Y-99682754D01*
X84316241Y-99682753D01*
X84316240Y-99682753D01*
X84154957Y-99657208D01*
X84106287Y-99649500D01*
X83893713Y-99649500D01*
X83845042Y-99657208D01*
X83683760Y-99682753D01*
X83481585Y-99748444D01*
X83292179Y-99844951D01*
X83120213Y-99969890D01*
X82969890Y-100120213D01*
X82844951Y-100292179D01*
X82748444Y-100481585D01*
X82682753Y-100683760D01*
X82666463Y-100786611D01*
X82649500Y-100893713D01*
X80593773Y-100893713D01*
X80570025Y-100786594D01*
X80568152Y-100775971D01*
X80518326Y-100397506D01*
X80517386Y-100386771D01*
X80500618Y-100002702D01*
X80500500Y-99997293D01*
X80500500Y-98750013D01*
X87275000Y-98750013D01*
X87275000Y-98800000D01*
X88250000Y-98800000D01*
X88250000Y-98050000D01*
X87975029Y-98050000D01*
X87975012Y-98050001D01*
X87872302Y-98060494D01*
X87705880Y-98115641D01*
X87705875Y-98115643D01*
X87556654Y-98207684D01*
X87432684Y-98331654D01*
X87340643Y-98480875D01*
X87340641Y-98480880D01*
X87285494Y-98647302D01*
X87285493Y-98647309D01*
X87275000Y-98750013D01*
X80500500Y-98750013D01*
X80500500Y-87199983D01*
X85024500Y-87199983D01*
X85024500Y-89600001D01*
X85024501Y-89600018D01*
X85035000Y-89702796D01*
X85035001Y-89702799D01*
X85090185Y-89869331D01*
X85090186Y-89869334D01*
X85182288Y-90018656D01*
X85306344Y-90142712D01*
X85455666Y-90234814D01*
X85622203Y-90289999D01*
X85724991Y-90300500D01*
X86325008Y-90300499D01*
X86325016Y-90300498D01*
X86325019Y-90300498D01*
X86381302Y-90294748D01*
X86427797Y-90289999D01*
X86594334Y-90234814D01*
X86743656Y-90142712D01*
X86867712Y-90018656D01*
X86959814Y-89869334D01*
X87014999Y-89702797D01*
X87025500Y-89600009D01*
X87025499Y-87199992D01*
X87025498Y-87199983D01*
X89974500Y-87199983D01*
X89974500Y-89600001D01*
X89974501Y-89600018D01*
X89985000Y-89702796D01*
X89985001Y-89702799D01*
X90040185Y-89869331D01*
X90040186Y-89869334D01*
X90132288Y-90018656D01*
X90256344Y-90142712D01*
X90405666Y-90234814D01*
X90572203Y-90289999D01*
X90674991Y-90300500D01*
X91275008Y-90300499D01*
X91275016Y-90300498D01*
X91275019Y-90300498D01*
X91331302Y-90294748D01*
X91377797Y-90289999D01*
X91544334Y-90234814D01*
X91693656Y-90142712D01*
X91817712Y-90018656D01*
X91909814Y-89869334D01*
X91964999Y-89702797D01*
X91975500Y-89600009D01*
X91975499Y-87199992D01*
X91964999Y-87097203D01*
X91909814Y-86930666D01*
X91817712Y-86781344D01*
X91693656Y-86657288D01*
X91544334Y-86565186D01*
X91377797Y-86510001D01*
X91377795Y-86510000D01*
X91275010Y-86499500D01*
X90674998Y-86499500D01*
X90674980Y-86499501D01*
X90572203Y-86510000D01*
X90572200Y-86510001D01*
X90405668Y-86565185D01*
X90405663Y-86565187D01*
X90256342Y-86657289D01*
X90132289Y-86781342D01*
X90040187Y-86930663D01*
X90040186Y-86930666D01*
X89985001Y-87097203D01*
X89985001Y-87097204D01*
X89985000Y-87097204D01*
X89974500Y-87199983D01*
X87025498Y-87199983D01*
X87014999Y-87097203D01*
X86959814Y-86930666D01*
X86867712Y-86781344D01*
X86743656Y-86657288D01*
X86594334Y-86565186D01*
X86427797Y-86510001D01*
X86427795Y-86510000D01*
X86325010Y-86499500D01*
X85724998Y-86499500D01*
X85724980Y-86499501D01*
X85622203Y-86510000D01*
X85622200Y-86510001D01*
X85455668Y-86565185D01*
X85455663Y-86565187D01*
X85306342Y-86657289D01*
X85182289Y-86781342D01*
X85090187Y-86930663D01*
X85090186Y-86930666D01*
X85035001Y-87097203D01*
X85035001Y-87097204D01*
X85035000Y-87097204D01*
X85024500Y-87199983D01*
X80500500Y-87199983D01*
X80500500Y-80002706D01*
X80500618Y-79997297D01*
X80505748Y-79879792D01*
X80517386Y-79613226D01*
X80518326Y-79602495D01*
X80568152Y-79224025D01*
X80570025Y-79213405D01*
X80640899Y-78893713D01*
X82649500Y-78893713D01*
X82649500Y-79106286D01*
X82677226Y-79281344D01*
X82682754Y-79316243D01*
X82719932Y-79430666D01*
X82748444Y-79518414D01*
X82844951Y-79707820D01*
X82969890Y-79879786D01*
X83120213Y-80030109D01*
X83292179Y-80155048D01*
X83292181Y-80155049D01*
X83292184Y-80155051D01*
X83481588Y-80251557D01*
X83683757Y-80317246D01*
X83893713Y-80350500D01*
X83893714Y-80350500D01*
X84106286Y-80350500D01*
X84106287Y-80350500D01*
X84316243Y-80317246D01*
X84518412Y-80251557D01*
X84707816Y-80155051D01*
X84729789Y-80139086D01*
X84879786Y-80030109D01*
X84879788Y-80030106D01*
X84879792Y-80030104D01*
X85030104Y-79879792D01*
X85030106Y-79879788D01*
X85030109Y-79879786D01*
X85155048Y-79707820D01*
X85155047Y-79707820D01*
X85155051Y-79707816D01*
X85159042Y-79699983D01*
X87024500Y-79699983D01*
X87024500Y-82100001D01*
X87024501Y-82100018D01*
X87035000Y-82202796D01*
X87035001Y-82202799D01*
X87090185Y-82369331D01*
X87090186Y-82369334D01*
X87182288Y-82518656D01*
X87306344Y-82642712D01*
X87455666Y-82734814D01*
X87589504Y-82779163D01*
X87609533Y-82793030D01*
X87631701Y-82803154D01*
X87637750Y-82812566D01*
X87646947Y-82818934D01*
X87656300Y-82841431D01*
X87669476Y-82861932D01*
X87671934Y-82879033D01*
X87673771Y-82883450D01*
X87674499Y-82896867D01*
X87674499Y-82985859D01*
X87674499Y-82985861D01*
X87674500Y-82995855D01*
X87674500Y-83594172D01*
X87654815Y-83661211D01*
X87602011Y-83706966D01*
X87585096Y-83713248D01*
X87464604Y-83748254D01*
X87464603Y-83748255D01*
X87323137Y-83831917D01*
X87323129Y-83831923D01*
X87206923Y-83948129D01*
X87206917Y-83948137D01*
X87123255Y-84089603D01*
X87123254Y-84089606D01*
X87077402Y-84247426D01*
X87077401Y-84247432D01*
X87074500Y-84284298D01*
X87074500Y-85815701D01*
X87077401Y-85852567D01*
X87077402Y-85852573D01*
X87123254Y-86010393D01*
X87123255Y-86010396D01*
X87206917Y-86151862D01*
X87206923Y-86151870D01*
X87323129Y-86268076D01*
X87323133Y-86268079D01*
X87323135Y-86268081D01*
X87464602Y-86351744D01*
X87506224Y-86363836D01*
X87622426Y-86397597D01*
X87622429Y-86397597D01*
X87622431Y-86397598D01*
X87659306Y-86400500D01*
X87659314Y-86400500D01*
X88090686Y-86400500D01*
X88090694Y-86400500D01*
X88127569Y-86397598D01*
X88127571Y-86397597D01*
X88127573Y-86397597D01*
X88169191Y-86385505D01*
X88285398Y-86351744D01*
X88410048Y-86278026D01*
X88433580Y-86264110D01*
X88434747Y-86266083D01*
X88489035Y-86244769D01*
X88557553Y-86258448D01*
X88566404Y-86264136D01*
X88566420Y-86264110D01*
X88607034Y-86288128D01*
X88714602Y-86351744D01*
X88756224Y-86363836D01*
X88872426Y-86397597D01*
X88872429Y-86397597D01*
X88872431Y-86397598D01*
X88909306Y-86400500D01*
X88909314Y-86400500D01*
X89340686Y-86400500D01*
X89340694Y-86400500D01*
X89377569Y-86397598D01*
X89377571Y-86397597D01*
X89377573Y-86397597D01*
X89419191Y-86385505D01*
X89535398Y-86351744D01*
X89676865Y-86268081D01*
X89793081Y-86151865D01*
X89876744Y-86010398D01*
X89922598Y-85852569D01*
X89925500Y-85815694D01*
X89925500Y-84284306D01*
X89922598Y-84247431D01*
X89920862Y-84241457D01*
X89880664Y-84103095D01*
X89876744Y-84089602D01*
X89793081Y-83948135D01*
X89793079Y-83948133D01*
X89793076Y-83948129D01*
X89676870Y-83831923D01*
X89676862Y-83831917D01*
X89535396Y-83748255D01*
X89535395Y-83748254D01*
X89414904Y-83713248D01*
X89392491Y-83698934D01*
X89368297Y-83687885D01*
X89363497Y-83680417D01*
X89356019Y-83675641D01*
X89344902Y-83651482D01*
X89330523Y-83629107D01*
X89328666Y-83616198D01*
X89326813Y-83612169D01*
X89325500Y-83594172D01*
X89325500Y-83393294D01*
X89345185Y-83326255D01*
X89361814Y-83305618D01*
X91093713Y-81573719D01*
X91093716Y-81573718D01*
X91205520Y-81461914D01*
X91255639Y-81375102D01*
X91284577Y-81324983D01*
X91325500Y-81172255D01*
X91325500Y-81014141D01*
X91325500Y-79699983D01*
X91974500Y-79699983D01*
X91974500Y-82100001D01*
X91974501Y-82100018D01*
X91985000Y-82202796D01*
X91985001Y-82202799D01*
X92040185Y-82369331D01*
X92040186Y-82369334D01*
X92132288Y-82518656D01*
X92256344Y-82642712D01*
X92405666Y-82734814D01*
X92572203Y-82789999D01*
X92674991Y-82800500D01*
X93275008Y-82800499D01*
X93275016Y-82800498D01*
X93275019Y-82800498D01*
X93348125Y-82793030D01*
X93377797Y-82789999D01*
X93544334Y-82734814D01*
X93693656Y-82642712D01*
X93817712Y-82518656D01*
X93909814Y-82369334D01*
X93964999Y-82202797D01*
X93975500Y-82100009D01*
X93975499Y-79699992D01*
X93964999Y-79597203D01*
X93909814Y-79430666D01*
X93817712Y-79281344D01*
X93693656Y-79157288D01*
X93544334Y-79065186D01*
X93377797Y-79010001D01*
X93377795Y-79010000D01*
X93275010Y-78999500D01*
X92674998Y-78999500D01*
X92674980Y-78999501D01*
X92572203Y-79010000D01*
X92572200Y-79010001D01*
X92405668Y-79065185D01*
X92405663Y-79065187D01*
X92256342Y-79157289D01*
X92132289Y-79281342D01*
X92040187Y-79430663D01*
X92040186Y-79430666D01*
X91985001Y-79597203D01*
X91985001Y-79597204D01*
X91985000Y-79597204D01*
X91974500Y-79699983D01*
X91325500Y-79699983D01*
X91325500Y-79005827D01*
X91345185Y-78938788D01*
X91397989Y-78893033D01*
X91414905Y-78886751D01*
X91471707Y-78870248D01*
X91535398Y-78851744D01*
X91676865Y-78768081D01*
X91793081Y-78651865D01*
X91876744Y-78510398D01*
X91922598Y-78352569D01*
X91925500Y-78315694D01*
X91925500Y-76784306D01*
X91922598Y-76747431D01*
X91904808Y-76686199D01*
X91888836Y-76631224D01*
X91876744Y-76589602D01*
X91793081Y-76448135D01*
X91793079Y-76448133D01*
X91793076Y-76448129D01*
X91676870Y-76331923D01*
X91676862Y-76331917D01*
X91535396Y-76248255D01*
X91535393Y-76248254D01*
X91377573Y-76202402D01*
X91377567Y-76202401D01*
X91340701Y-76199500D01*
X91340694Y-76199500D01*
X90909306Y-76199500D01*
X90909298Y-76199500D01*
X90872432Y-76202401D01*
X90872426Y-76202402D01*
X90714606Y-76248254D01*
X90714603Y-76248255D01*
X90566420Y-76335890D01*
X90565254Y-76333919D01*
X90510942Y-76355232D01*
X90442427Y-76341540D01*
X90433595Y-76335864D01*
X90433580Y-76335890D01*
X90285396Y-76248255D01*
X90285393Y-76248254D01*
X90127573Y-76202402D01*
X90127567Y-76202401D01*
X90090701Y-76199500D01*
X90090694Y-76199500D01*
X89659306Y-76199500D01*
X89659298Y-76199500D01*
X89622432Y-76202401D01*
X89622426Y-76202402D01*
X89464606Y-76248254D01*
X89464603Y-76248255D01*
X89323137Y-76331917D01*
X89323129Y-76331923D01*
X89206923Y-76448129D01*
X89206917Y-76448137D01*
X89123255Y-76589603D01*
X89123254Y-76589606D01*
X89077402Y-76747426D01*
X89077401Y-76747432D01*
X89074500Y-76784298D01*
X89074500Y-78315701D01*
X89077401Y-78352567D01*
X89077402Y-78352573D01*
X89123254Y-78510393D01*
X89123255Y-78510396D01*
X89206917Y-78651862D01*
X89206923Y-78651870D01*
X89323129Y-78768076D01*
X89323133Y-78768079D01*
X89323135Y-78768081D01*
X89464602Y-78851744D01*
X89516535Y-78866832D01*
X89585095Y-78886751D01*
X89643981Y-78924357D01*
X89673187Y-78987829D01*
X89674500Y-79005827D01*
X89674500Y-80606704D01*
X89654815Y-80673743D01*
X89638181Y-80694385D01*
X89237180Y-81095386D01*
X89175857Y-81128871D01*
X89106165Y-81123887D01*
X89050232Y-81082015D01*
X89025815Y-81016551D01*
X89025499Y-81007705D01*
X89025499Y-79699998D01*
X89025498Y-79699981D01*
X89014999Y-79597203D01*
X89014998Y-79597200D01*
X88988890Y-79518412D01*
X88959814Y-79430666D01*
X88867712Y-79281344D01*
X88743656Y-79157288D01*
X88594334Y-79065186D01*
X88427797Y-79010001D01*
X88427795Y-79010000D01*
X88325010Y-78999500D01*
X87724998Y-78999500D01*
X87724980Y-78999501D01*
X87622203Y-79010000D01*
X87622200Y-79010001D01*
X87455668Y-79065185D01*
X87455663Y-79065187D01*
X87306342Y-79157289D01*
X87182289Y-79281342D01*
X87090187Y-79430663D01*
X87090186Y-79430666D01*
X87035001Y-79597203D01*
X87035001Y-79597204D01*
X87035000Y-79597204D01*
X87024500Y-79699983D01*
X85159042Y-79699983D01*
X85251557Y-79518412D01*
X85317246Y-79316243D01*
X85350500Y-79106287D01*
X85350500Y-78893713D01*
X85317246Y-78683757D01*
X85251557Y-78481588D01*
X85155051Y-78292184D01*
X85155049Y-78292181D01*
X85155048Y-78292179D01*
X85030109Y-78120213D01*
X84879786Y-77969890D01*
X84707820Y-77844951D01*
X84518414Y-77748444D01*
X84518413Y-77748443D01*
X84518412Y-77748443D01*
X84316243Y-77682754D01*
X84316241Y-77682753D01*
X84316240Y-77682753D01*
X84154957Y-77657208D01*
X84106287Y-77649500D01*
X83893713Y-77649500D01*
X83845042Y-77657208D01*
X83683760Y-77682753D01*
X83481585Y-77748444D01*
X83292179Y-77844951D01*
X83120213Y-77969890D01*
X82969890Y-78120213D01*
X82844951Y-78292179D01*
X82748444Y-78481585D01*
X82682753Y-78683760D01*
X82649500Y-78893713D01*
X80640899Y-78893713D01*
X80652647Y-78840719D01*
X80655440Y-78830295D01*
X80770230Y-78466227D01*
X80773917Y-78456095D01*
X80920003Y-78103412D01*
X80924561Y-78093638D01*
X81100822Y-77755045D01*
X81106217Y-77745700D01*
X81311325Y-77423744D01*
X81317515Y-77414905D01*
X81549896Y-77112060D01*
X81556834Y-77103791D01*
X81814726Y-76822352D01*
X81822352Y-76814726D01*
X82103791Y-76556834D01*
X82112060Y-76549896D01*
X82414905Y-76317515D01*
X82423744Y-76311325D01*
X82745700Y-76106217D01*
X82755045Y-76100822D01*
X83093638Y-75924561D01*
X83103412Y-75920003D01*
X83456095Y-75773917D01*
X83466227Y-75770230D01*
X83830295Y-75655440D01*
X83840709Y-75652649D01*
X84213405Y-75570025D01*
X84224025Y-75568152D01*
X84602495Y-75518326D01*
X84613226Y-75517386D01*
X84997297Y-75500617D01*
X85002706Y-75500500D01*
X85065892Y-75500500D01*
X114934108Y-75500500D01*
X114997294Y-75500500D01*
X115002702Y-75500617D01*
G37*
%TD.AperFunction*%
%TA.AperFunction,Conductor*%
G36*
X112550973Y-92525185D02*
G01*
X112596728Y-92577989D01*
X112605526Y-92605182D01*
X112684224Y-92998677D01*
X112684226Y-92998684D01*
X112905893Y-94107019D01*
X113465067Y-96902894D01*
X113458912Y-96972492D01*
X113456788Y-96977573D01*
X112888813Y-98255519D01*
X112843597Y-98308786D01*
X112776762Y-98329152D01*
X112709525Y-98310150D01*
X112663236Y-98257814D01*
X112651500Y-98205158D01*
X112651500Y-96689579D01*
X112622659Y-96544592D01*
X112622658Y-96544591D01*
X112622658Y-96544587D01*
X112619555Y-96537095D01*
X112566087Y-96408011D01*
X112566080Y-96407998D01*
X112483952Y-96285085D01*
X112439168Y-96240301D01*
X112379416Y-96180549D01*
X112196340Y-95997473D01*
X112011818Y-95812950D01*
X111978333Y-95751627D01*
X111975499Y-95725269D01*
X111975499Y-95513330D01*
X111975498Y-95513313D01*
X111965174Y-95412247D01*
X111953162Y-95375997D01*
X111910908Y-95248484D01*
X111820340Y-95101650D01*
X111806017Y-95087327D01*
X111772532Y-95026004D01*
X111777516Y-94956312D01*
X111806021Y-94911960D01*
X111819947Y-94898035D01*
X111910448Y-94751311D01*
X111910453Y-94751300D01*
X111964680Y-94587652D01*
X111974999Y-94486654D01*
X111975000Y-94486641D01*
X111975000Y-94387500D01*
X110025001Y-94387500D01*
X110025001Y-94486654D01*
X110035319Y-94587652D01*
X110089546Y-94751300D01*
X110089551Y-94751311D01*
X110180052Y-94898034D01*
X110180055Y-94898038D01*
X110193982Y-94911965D01*
X110227467Y-94973288D01*
X110222483Y-95042980D01*
X110193984Y-95087325D01*
X110179661Y-95101648D01*
X110089093Y-95248481D01*
X110089091Y-95248486D01*
X110066468Y-95316758D01*
X110034826Y-95412247D01*
X110034826Y-95412248D01*
X110034825Y-95412248D01*
X110024500Y-95513315D01*
X110024500Y-96211669D01*
X110024501Y-96211687D01*
X110034825Y-96312752D01*
X110071109Y-96422249D01*
X110089092Y-96476516D01*
X110179660Y-96623350D01*
X110301650Y-96745340D01*
X110448484Y-96835908D01*
X110612247Y-96890174D01*
X110713323Y-96900500D01*
X110925269Y-96900499D01*
X110954714Y-96909144D01*
X110984697Y-96915667D01*
X110989710Y-96919419D01*
X110992309Y-96920183D01*
X111012951Y-96936818D01*
X111114181Y-97038048D01*
X111147666Y-97099371D01*
X111150500Y-97125729D01*
X111150500Y-97171000D01*
X111130815Y-97238039D01*
X111078011Y-97283794D01*
X111026500Y-97295000D01*
X110725000Y-97295000D01*
X110725000Y-97971000D01*
X110705315Y-98038039D01*
X110652511Y-98083794D01*
X110601000Y-98095000D01*
X110475000Y-98095000D01*
X110475000Y-98221000D01*
X110455315Y-98288039D01*
X110402511Y-98333794D01*
X110351000Y-98345000D01*
X109002705Y-98345000D01*
X109002704Y-98345001D01*
X109002899Y-98347486D01*
X109048718Y-98505198D01*
X109132314Y-98646552D01*
X109137100Y-98652722D01*
X109134640Y-98654629D01*
X109161210Y-98703288D01*
X109156226Y-98772980D01*
X109140584Y-98802225D01*
X109134756Y-98810297D01*
X109131919Y-98813135D01*
X109128342Y-98819181D01*
X109125025Y-98823778D01*
X109101713Y-98841866D01*
X109080138Y-98862009D01*
X109074416Y-98863049D01*
X109069825Y-98866612D01*
X109040433Y-98869227D01*
X109011395Y-98874506D01*
X109006021Y-98872288D01*
X109000230Y-98872804D01*
X108974088Y-98859111D01*
X108946808Y-98847855D01*
X108941652Y-98842122D01*
X108938336Y-98840386D01*
X108935319Y-98835082D01*
X108920171Y-98818240D01*
X108870825Y-98741457D01*
X108870820Y-98741451D01*
X108825076Y-98688659D01*
X108825072Y-98688656D01*
X108825070Y-98688653D01*
X108716336Y-98594433D01*
X108716333Y-98594431D01*
X108716331Y-98594430D01*
X108585465Y-98534664D01*
X108585460Y-98534662D01*
X108585459Y-98534662D01*
X108518420Y-98514977D01*
X108518422Y-98514977D01*
X108518417Y-98514976D01*
X108450407Y-98505198D01*
X108376000Y-98494500D01*
X107122387Y-98494500D01*
X107119461Y-98494500D01*
X107052422Y-98474815D01*
X107006667Y-98422011D01*
X106996723Y-98352853D01*
X106997480Y-98348215D01*
X106997598Y-98347568D01*
X107000500Y-98310694D01*
X107000500Y-97879306D01*
X106997800Y-97844998D01*
X109002704Y-97844998D01*
X109002705Y-97845000D01*
X110225000Y-97845000D01*
X110225000Y-97295000D01*
X109584350Y-97295000D01*
X109547510Y-97297899D01*
X109547504Y-97297900D01*
X109389806Y-97343716D01*
X109389803Y-97343717D01*
X109248447Y-97427314D01*
X109248438Y-97427321D01*
X109132321Y-97543438D01*
X109132314Y-97543447D01*
X109048718Y-97684801D01*
X109002899Y-97842513D01*
X109002704Y-97844998D01*
X106997800Y-97844998D01*
X106997598Y-97842431D01*
X106980392Y-97783211D01*
X106979213Y-97776362D01*
X106982455Y-97748296D01*
X106982536Y-97720042D01*
X106986487Y-97713403D01*
X106987233Y-97706954D01*
X106998557Y-97693127D01*
X107013731Y-97667635D01*
X107749014Y-96932352D01*
X107810335Y-96898869D01*
X107824092Y-96896677D01*
X107841564Y-96894892D01*
X107887753Y-96890174D01*
X108051516Y-96835908D01*
X108198350Y-96745340D01*
X108320340Y-96623350D01*
X108410908Y-96476516D01*
X108465174Y-96312753D01*
X108475500Y-96211677D01*
X108475499Y-95613324D01*
X108473727Y-95595980D01*
X108465174Y-95512247D01*
X108465173Y-95512245D01*
X108410908Y-95348484D01*
X108320340Y-95201650D01*
X108206371Y-95087681D01*
X108172886Y-95026358D01*
X108177870Y-94956666D01*
X108206371Y-94912319D01*
X108254576Y-94864114D01*
X108320340Y-94798350D01*
X108410908Y-94651516D01*
X108465174Y-94487753D01*
X108475500Y-94386677D01*
X108475499Y-94224730D01*
X108495183Y-94157691D01*
X108511813Y-94137054D01*
X108680301Y-93968567D01*
X108740339Y-93878712D01*
X108762433Y-93845646D01*
X108786168Y-93788345D01*
X110025000Y-93788345D01*
X110025000Y-93887500D01*
X110750000Y-93887500D01*
X111250000Y-93887500D01*
X111974999Y-93887500D01*
X111974999Y-93788360D01*
X111974998Y-93788345D01*
X111964680Y-93687347D01*
X111910453Y-93523699D01*
X111910448Y-93523688D01*
X111819947Y-93376965D01*
X111819944Y-93376961D01*
X111698038Y-93255055D01*
X111698034Y-93255052D01*
X111551311Y-93164551D01*
X111551300Y-93164546D01*
X111387652Y-93110319D01*
X111286654Y-93100000D01*
X111250000Y-93100000D01*
X111250000Y-93887500D01*
X110750000Y-93887500D01*
X110750000Y-93100000D01*
X110713361Y-93100000D01*
X110713343Y-93100001D01*
X110612347Y-93110319D01*
X110448699Y-93164546D01*
X110448688Y-93164551D01*
X110301965Y-93255052D01*
X110301961Y-93255055D01*
X110180055Y-93376961D01*
X110180052Y-93376965D01*
X110089551Y-93523688D01*
X110089546Y-93523699D01*
X110035319Y-93687347D01*
X110025000Y-93788345D01*
X108786168Y-93788345D01*
X108819007Y-93709064D01*
X108839815Y-93604457D01*
X108847849Y-93564071D01*
X108847849Y-92629500D01*
X108867534Y-92562461D01*
X108920338Y-92516706D01*
X108971849Y-92505500D01*
X112483934Y-92505500D01*
X112550973Y-92525185D01*
G37*
%TD.AperFunction*%
%TA.AperFunction,Conductor*%
G36*
X112317704Y-84770185D02*
G01*
X112363459Y-84822989D01*
X112374283Y-84884230D01*
X112371426Y-84920524D01*
X113050903Y-85600000D01*
X113044688Y-85600000D01*
X112942955Y-85627259D01*
X112851743Y-85679920D01*
X112777269Y-85754394D01*
X112724608Y-85845606D01*
X112697349Y-85947339D01*
X112697349Y-85953553D01*
X112017873Y-85274077D01*
X112017872Y-85274077D01*
X111985492Y-85318644D01*
X111892593Y-85500968D01*
X111829358Y-85695582D01*
X111797349Y-85897682D01*
X111797349Y-86102317D01*
X111829358Y-86304417D01*
X111892593Y-86499031D01*
X111985490Y-86681350D01*
X111985496Y-86681359D01*
X112017872Y-86725921D01*
X112017873Y-86725922D01*
X112697349Y-86046446D01*
X112697349Y-86052661D01*
X112724608Y-86154394D01*
X112777269Y-86245606D01*
X112851743Y-86320080D01*
X112942955Y-86372741D01*
X113044688Y-86400000D01*
X113050902Y-86400000D01*
X112371425Y-87079474D01*
X112415999Y-87111859D01*
X112598317Y-87204755D01*
X112792931Y-87267990D01*
X112995032Y-87300000D01*
X113199666Y-87300000D01*
X113401766Y-87267990D01*
X113596565Y-87204694D01*
X113666406Y-87202698D01*
X113726239Y-87238778D01*
X113757068Y-87301479D01*
X113749104Y-87370893D01*
X113745793Y-87378079D01*
X112721857Y-89425954D01*
X112674270Y-89477113D01*
X112610948Y-89494500D01*
X108971849Y-89494500D01*
X108904810Y-89474815D01*
X108859055Y-89422011D01*
X108847849Y-89370500D01*
X108847849Y-87363732D01*
X108867534Y-87296693D01*
X108920338Y-87250938D01*
X108932844Y-87246026D01*
X108966683Y-87234814D01*
X109116005Y-87142712D01*
X109240061Y-87018656D01*
X109332163Y-86869334D01*
X109387348Y-86702797D01*
X109397849Y-86600009D01*
X109397848Y-85812228D01*
X109417533Y-85745190D01*
X109434162Y-85724553D01*
X110371897Y-84786819D01*
X110433220Y-84753334D01*
X110459578Y-84750500D01*
X112250665Y-84750500D01*
X112317704Y-84770185D01*
G37*
%TD.AperFunction*%
%TA.AperFunction,Conductor*%
G36*
X115604710Y-84759144D02*
G01*
X115634697Y-84765668D01*
X115639712Y-84769422D01*
X115642309Y-84770185D01*
X115662951Y-84786819D01*
X115763181Y-84887049D01*
X115796666Y-84948372D01*
X115799500Y-84974730D01*
X115799500Y-85355842D01*
X115799501Y-85355869D01*
X115799709Y-85357903D01*
X115799627Y-85358342D01*
X115799661Y-85359005D01*
X115799502Y-85359013D01*
X115786937Y-85426595D01*
X115739055Y-85477478D01*
X115676351Y-85494500D01*
X115076636Y-85494500D01*
X115060737Y-85496642D01*
X114942789Y-85512541D01*
X114942788Y-85512541D01*
X114879474Y-85529926D01*
X114879461Y-85529930D01*
X114755177Y-85582765D01*
X114643182Y-85673101D01*
X114595600Y-85724254D01*
X114595596Y-85724259D01*
X114587477Y-85735965D01*
X114533092Y-85779830D01*
X114463626Y-85787328D01*
X114401133Y-85756080D01*
X114367775Y-85699914D01*
X114366845Y-85700217D01*
X114365503Y-85696089D01*
X114365455Y-85696007D01*
X114365383Y-85695720D01*
X114302104Y-85500968D01*
X114209208Y-85318650D01*
X114176823Y-85274077D01*
X114176823Y-85274076D01*
X113497349Y-85953553D01*
X113497349Y-85947339D01*
X113470090Y-85845606D01*
X113417429Y-85754394D01*
X113342955Y-85679920D01*
X113251743Y-85627259D01*
X113150010Y-85600000D01*
X113143795Y-85600000D01*
X113823271Y-84920524D01*
X113820415Y-84884228D01*
X113834780Y-84815851D01*
X113883831Y-84766094D01*
X113944033Y-84750500D01*
X115575270Y-84750500D01*
X115604710Y-84759144D01*
G37*
%TD.AperFunction*%
%TD*%
M02*
