M48
; DRILL file KiCad 10.0.6 date 2026-09-20T12:41:33
; FORMAT={-:-/ absolute / inch / decimal}
; #@! TF.CreationDate,2026-09-20T12:41:33-05:00
; #@! TF.GenerationSoftware,Kicad,Pcbnew,10.0.6
; #@! TF.FileFunction,Plated,1,2,PTH
FMAT,2
INCH
; #@! TA.AperFunction,Plated,PTH,ViaDrill
T1C0.0118
; #@! TA.AperFunction,Plated,PTH,ComponentDrill
T2C0.0276
; #@! TA.AperFunction,Plated,PTH,ComponentDrill
T3C0.0315
; #@! TA.AperFunction,Plated,PTH,ComponentDrill
T4C0.1063
%
G90
G05
T1
X5.2372Y-4.1089
X5.2953Y-3.6417
X5.2953Y-3.7402
X5.2953Y-3.8189
X5.2953Y-3.8976
X5.4321Y-4.2089
X5.4331Y-4.0579
X5.4921Y-3.6417
X5.4921Y-3.7303
X5.4921Y-3.8189
X5.4921Y-3.9075
T2
X4.9803Y-3.7795
X4.9803Y-3.8583
X5.7087Y-3.5531
X5.7087Y-3.6319
T3
X5.1613Y-4.6654
X5.3582Y-4.6654
T4
X5.0984Y-4.3701
X5.2953Y-4.3701
X5.6102Y-4.3701
X5.8071Y-4.3701
M30
