%TF.GenerationSoftware,KiCad,Pcbnew,10.0.6*%
%TF.CreationDate,2026-09-27T15:33:06-05:00*%
%TF.ProjectId,Onboarding,4f6e626f-6172-4646-996e-672e6b696361,rev?*%
%TF.SameCoordinates,Original*%
%TF.FileFunction,Copper,L2,Bot*%
%TF.FilePolarity,Positive*%
%FSLAX46Y46*%
G04 Gerber Fmt 4.6, Leading zero omitted, Abs format (unit mm)*
G04 Created by KiCad (PCBNEW 10.0.6) date 2026-09-27 15:33:06*
%MOMM*%
%LPD*%
G01*
G04 APERTURE LIST*
G04 Aperture macros list*
%AMRoundRect*
0 Rectangle with rounded corners*
0 $1 Rounding radius*
0 $2 $3 $4 $5 $6 $7 $8 $9 X,Y pos of 4 corners*
0 Add a 4 corners polygon primitive as box body*
4,1,4,$2,$3,$4,$5,$6,$7,$8,$9,$2,$3,0*
0 Add four circle primitives for the rounded corners*
1,1,$1+$1,$2,$3*
1,1,$1+$1,$4,$5*
1,1,$1+$1,$6,$7*
1,1,$1+$1,$8,$9*
0 Add four rect primitives between the rounded corners*
20,1,$1+$1,$2,$3,$4,$5,0*
20,1,$1+$1,$4,$5,$6,$7,0*
20,1,$1+$1,$6,$7,$8,$9,0*
20,1,$1+$1,$8,$9,$2,$3,0*%
G04 Aperture macros list end*
%TA.AperFunction,SMDPad,CuDef*%
%ADD10R,3.680000X3.050000*%
%TD*%
%TA.AperFunction,ComponentPad*%
%ADD11RoundRect,0.250000X0.550000X-0.550000X0.550000X0.550000X-0.550000X0.550000X-0.550000X-0.550000X0*%
%TD*%
%TA.AperFunction,ComponentPad*%
%ADD12C,1.600000*%
%TD*%
%TA.AperFunction,SMDPad,CuDef*%
%ADD13RoundRect,0.250000X0.475000X-0.250000X0.475000X0.250000X-0.475000X0.250000X-0.475000X-0.250000X0*%
%TD*%
%TA.AperFunction,ComponentPad*%
%ADD14C,3.800000*%
%TD*%
%TA.AperFunction,ComponentPad*%
%ADD15RoundRect,0.760000X-1.140000X1.140000X-1.140000X-1.140000X1.140000X-1.140000X1.140000X1.140000X0*%
%TD*%
%TA.AperFunction,ComponentPad*%
%ADD16C,1.400000*%
%TD*%
%TA.AperFunction,ComponentPad*%
%ADD17C,4.000000*%
%TD*%
%TA.AperFunction,ComponentPad*%
%ADD18RoundRect,0.760000X-1.140000X-1.140000X1.140000X-1.140000X1.140000X1.140000X-1.140000X1.140000X0*%
%TD*%
%TA.AperFunction,SMDPad,CuDef*%
%ADD19RoundRect,0.150000X-0.700000X0.150000X-0.700000X-0.150000X0.700000X-0.150000X0.700000X0.150000X0*%
%TD*%
%TA.AperFunction,SMDPad,CuDef*%
%ADD20RoundRect,0.250000X-1.150000X0.250000X-1.150000X-0.250000X1.150000X-0.250000X1.150000X0.250000X0*%
%TD*%
%TA.AperFunction,SMDPad,CuDef*%
%ADD21RoundRect,0.250000X0.300000X0.300000X-0.300000X0.300000X-0.300000X-0.300000X0.300000X-0.300000X0*%
%TD*%
%TA.AperFunction,ViaPad*%
%ADD22C,0.600000*%
%TD*%
%TA.AperFunction,Conductor*%
%ADD23C,0.200000*%
%TD*%
G04 APERTURE END LIST*
D10*
%TO.P,L1,4*%
%TO.N,N/C*%
X136500000Y-104000000D03*
%TO.P,L1,3*%
X141480000Y-108980000D03*
%TO.P,L1,2,2_2*%
%TO.N,Net-(D2-A)*%
X146460000Y-104000000D03*
%TO.P,L1,1,1_1*%
%TO.N,Net-(U1-I_{PK})*%
X141480000Y-99020000D03*
%TD*%
D11*
%TO.P,C1,1*%
%TO.N,VCC*%
X159000000Y-106000000D03*
D12*
%TO.P,C1,2*%
%TO.N,GND*%
X159000000Y-101000000D03*
%TD*%
D13*
%TO.P,C4,1*%
%TO.N,/V_{in}*%
X146500000Y-91500000D03*
%TO.P,C4,2*%
%TO.N,GND*%
X146500000Y-89600000D03*
%TD*%
D14*
%TO.P,J2,2,Pin_2_2*%
%TO.N,VCC*%
X130000000Y-102000000D03*
D15*
%TO.P,J2,1,Pin_1_1*%
%TO.N,GND*%
X130000000Y-97000000D03*
%TD*%
D16*
%TO.P,TP2,1,1_1*%
%TO.N,Net-(D2-A)*%
X154500000Y-108500000D03*
X154500000Y-110500000D03*
%TD*%
D17*
%TO.P,J1,2,Pin_2_2*%
%TO.N,/V_{in}*%
X141000000Y-91500000D03*
D18*
%TO.P,J1,1,Pin_1_1*%
%TO.N,GND*%
X136000000Y-91500000D03*
%TD*%
D19*
%TO.P,J3,1,Pin_1_1*%
%TO.N,/CAN-*%
X164500000Y-94750000D03*
%TO.P,J3,2,Pin_2_2*%
%TO.N,/CAN+*%
X164500000Y-96000000D03*
D20*
%TO.P,J3,MP*%
%TO.N,N/C*%
X161150000Y-92900000D03*
X161150000Y-97850000D03*
%TD*%
D16*
%TO.P,TP1,1,1_1*%
%TO.N,Net-(U1-I_{PK})*%
X151000000Y-108500000D03*
X151000000Y-110500000D03*
%TD*%
D20*
%TO.P,J4,MP*%
%TO.N,N/C*%
X153150000Y-94850000D03*
X153150000Y-89900000D03*
D19*
%TO.P,J4,2,Pin_2_2*%
%TO.N,/CAN+*%
X156500000Y-93000000D03*
%TO.P,J4,1,Pin_1_1*%
%TO.N,/CAN-*%
X156500000Y-91750000D03*
%TD*%
D21*
%TO.P,D2,1,K_1*%
%TO.N,VCC*%
X153300000Y-106500000D03*
%TO.P,D2,2,A_2*%
%TO.N,Net-(D2-A)*%
X150500000Y-106500000D03*
%TD*%
D22*
%TO.N,Net-(D2-A)*%
X150500000Y-105232349D03*
%TO.N,VCC*%
X153500000Y-105362500D03*
X159000000Y-106000000D03*
X130000000Y-102000000D03*
%TO.N,/V_{in}*%
X139500000Y-103000000D03*
%TO.N,Net-(U1-I_{PK})*%
X143000000Y-104500000D03*
%TO.N,GND*%
X146500000Y-89500000D03*
X136000000Y-91500000D03*
%TD*%
%TO.N,Net-(D2-A)*%
D23*
X150500000Y-106500000D02*
X150500000Y-105232349D01*
%TO.N,VCC*%
X153300000Y-105562500D02*
X153500000Y-105362500D01*
X153300000Y-106500000D02*
X153300000Y-105562500D01*
X158500000Y-106500000D02*
X159000000Y-106000000D01*
X153300000Y-106500000D02*
X158500000Y-106500000D01*
%TO.N,Net-(D2-A)*%
X148960000Y-106500000D02*
X150500000Y-106500000D01*
X146460000Y-104000000D02*
X148960000Y-106500000D01*
%TO.N,/V_{in}*%
X139000000Y-102500000D02*
X139500000Y-103000000D01*
X141000000Y-91500000D02*
X139000000Y-93500000D01*
X139000000Y-93500000D02*
X139000000Y-102500000D01*
%TO.N,Net-(U1-I_{PK})*%
X141480000Y-99020000D02*
X141480000Y-102980000D01*
X141480000Y-102980000D02*
X143000000Y-104500000D01*
%TO.N,/CAN+*%
X156500000Y-93000000D02*
X159500000Y-96000000D01*
X159500000Y-96000000D02*
X164500000Y-96000000D01*
%TO.N,/CAN-*%
X156740552Y-91750000D02*
X156500000Y-91750000D01*
X159740552Y-94750000D02*
X156740552Y-91750000D01*
X164500000Y-94750000D02*
X159740552Y-94750000D01*
%TO.N,/V_{in}*%
X146500000Y-91500000D02*
X144075000Y-91500000D01*
X146500000Y-91500000D02*
X141000000Y-91500000D01*
%TO.N,VCC*%
X153462500Y-105325000D02*
X153500000Y-105362500D01*
%TD*%
M02*
