%TF.GenerationSoftware,KiCad,Pcbnew,9.0.4*%
%TF.CreationDate,2025-10-05T14:54:46-05:00*%
%TF.ProjectId,Onboarding,4f6e626f-6172-4646-996e-672e6b696361,rev?*%
%TF.SameCoordinates,Original*%
%TF.FileFunction,Soldermask,Top*%
%TF.FilePolarity,Negative*%
%FSLAX46Y46*%
G04 Gerber Fmt 4.6, Leading zero omitted, Abs format (unit mm)*
G04 Created by KiCad (PCBNEW 9.0.4) date 2025-10-05 14:54:46*
%MOMM*%
%LPD*%
G01*
G04 APERTURE LIST*
G04 Aperture macros list*
%AMRoundRect*
0 Rectangle with rounded corners*
0 $1 Rounding radius*
0 $2 $3 $4 $5 $6 $7 $8 $9 X,Y pos of 4 corners*
0 Add a 4 corners polygon primitive as box body*
4,1,4,$2,$3,$4,$5,$6,$7,$8,$9,$2,$3,0*
0 Add four circle primitives for the rounded corners*
1,1,$1+$1,$2,$3*
1,1,$1+$1,$4,$5*
1,1,$1+$1,$6,$7*
1,1,$1+$1,$8,$9*
0 Add four rect primitives between the rounded corners*
20,1,$1+$1,$2,$3,$4,$5,0*
20,1,$1+$1,$4,$5,$6,$7,0*
20,1,$1+$1,$6,$7,$8,$9,0*
20,1,$1+$1,$8,$9,$2,$3,0*%
G04 Aperture macros list end*
%ADD10RoundRect,0.237500X-0.237500X0.250000X-0.237500X-0.250000X0.237500X-0.250000X0.237500X0.250000X0*%
%ADD11RoundRect,0.250000X-0.300000X-0.300000X0.300000X-0.300000X0.300000X0.300000X-0.300000X0.300000X0*%
%ADD12R,1.520000X10.160000*%
%ADD13RoundRect,0.250000X0.550000X-0.550000X0.550000X0.550000X-0.550000X0.550000X-0.550000X-0.550000X0*%
%ADD14C,1.600000*%
%ADD15RoundRect,0.150000X-0.825000X-0.150000X0.825000X-0.150000X0.825000X0.150000X-0.825000X0.150000X0*%
%ADD16RoundRect,0.150000X0.700000X-0.150000X0.700000X0.150000X-0.700000X0.150000X-0.700000X-0.150000X0*%
%ADD17RoundRect,0.250000X1.150000X-0.250000X1.150000X0.250000X-1.150000X0.250000X-1.150000X-0.250000X0*%
%ADD18RoundRect,0.237500X-0.250000X-0.237500X0.250000X-0.237500X0.250000X0.237500X-0.250000X0.237500X0*%
%ADD19RoundRect,0.760000X1.140000X-1.140000X1.140000X1.140000X-1.140000X1.140000X-1.140000X-1.140000X0*%
%ADD20C,3.800000*%
%ADD21RoundRect,0.250000X-0.475000X0.250000X-0.475000X-0.250000X0.475000X-0.250000X0.475000X0.250000X0*%
%ADD22RoundRect,0.237500X0.250000X0.237500X-0.250000X0.237500X-0.250000X-0.237500X0.250000X-0.237500X0*%
%ADD23C,1.400000*%
%ADD24RoundRect,0.760000X-1.140000X1.140000X-1.140000X-1.140000X1.140000X-1.140000X1.140000X1.140000X0*%
%ADD25C,4.000000*%
%ADD26RoundRect,0.250000X0.350000X0.450000X-0.350000X0.450000X-0.350000X-0.450000X0.350000X-0.450000X0*%
G04 APERTURE END LIST*
D10*
%TO.C,R3*%
X166000000Y-111000000D03*
X166000000Y-109175000D03*
%TD*%
D11*
%TO.C,D1*%
X142600000Y-105000000D03*
X145400000Y-105000000D03*
%TD*%
D12*
%TO.C,L1*%
X159500000Y-100000000D03*
X150360000Y-100000000D03*
%TD*%
D13*
%TO.C,C1*%
X142500000Y-101000000D03*
D14*
X142500000Y-96000000D03*
%TD*%
D15*
%TO.C,U1*%
X151025000Y-109095000D03*
X151025000Y-110365000D03*
X151025000Y-111635000D03*
X151025000Y-112905000D03*
X155975000Y-112905000D03*
X155975000Y-111635000D03*
X155975000Y-110365000D03*
X155975000Y-109095000D03*
%TD*%
D16*
%TO.C,J4*%
X135500000Y-95250000D03*
X135500000Y-94000000D03*
D17*
X132150000Y-97100000D03*
X132150000Y-92150000D03*
%TD*%
D16*
%TO.C,J3*%
X147500000Y-88500000D03*
X147500000Y-87250000D03*
D17*
X144150000Y-90350000D03*
X144150000Y-85400000D03*
%TD*%
D18*
%TO.C,R2*%
X145075000Y-112000000D03*
X146900000Y-112000000D03*
%TD*%
D19*
%TO.C,J2*%
X135500000Y-108500000D03*
D20*
X135500000Y-103500000D03*
%TD*%
D21*
%TO.C,C4*%
X162500000Y-112000000D03*
X162500000Y-113900000D03*
%TD*%
D22*
%TO.C,R4*%
X146900000Y-114550000D03*
X145075000Y-114550000D03*
%TD*%
D23*
%TO.C,TP2*%
X154000000Y-88500000D03*
X156000000Y-88500000D03*
%TD*%
D24*
%TO.C,J1*%
X167500000Y-97000000D03*
D25*
X167500000Y-102000000D03*
%TD*%
D26*
%TO.C,R1*%
X160500000Y-108000000D03*
X158500000Y-108000000D03*
%TD*%
D23*
%TO.C,TP1*%
X163000000Y-90000000D03*
X163000000Y-88000000D03*
%TD*%
M02*
