%TF.GenerationSoftware,KiCad,Pcbnew,9.0.4*%
%TF.CreationDate,2025-09-25T14:49:47-05:00*%
%TF.ProjectId,Onboarding,4f6e626f-6172-4646-996e-672e6b696361,rev?*%
%TF.SameCoordinates,Original*%
%TF.FileFunction,Soldermask,Top*%
%TF.FilePolarity,Negative*%
%FSLAX46Y46*%
G04 Gerber Fmt 4.6, Leading zero omitted, Abs format (unit mm)*
G04 Created by KiCad (PCBNEW 9.0.4) date 2025-09-25 14:49:47*
%MOMM*%
%LPD*%
G01*
G04 APERTURE LIST*
G04 Aperture macros list*
%AMRoundRect*
0 Rectangle with rounded corners*
0 $1 Rounding radius*
0 $2 $3 $4 $5 $6 $7 $8 $9 X,Y pos of 4 corners*
0 Add a 4 corners polygon primitive as box body*
4,1,4,$2,$3,$4,$5,$6,$7,$8,$9,$2,$3,0*
0 Add four circle primitives for the rounded corners*
1,1,$1+$1,$2,$3*
1,1,$1+$1,$4,$5*
1,1,$1+$1,$6,$7*
1,1,$1+$1,$8,$9*
0 Add four rect primitives between the rounded corners*
20,1,$1+$1,$2,$3,$4,$5,0*
20,1,$1+$1,$4,$5,$6,$7,0*
20,1,$1+$1,$6,$7,$8,$9,0*
20,1,$1+$1,$8,$9,$2,$3,0*%
G04 Aperture macros list end*
%ADD10RoundRect,0.250000X0.550000X-0.550000X0.550000X0.550000X-0.550000X0.550000X-0.550000X-0.550000X0*%
%ADD11C,1.600000*%
%ADD12RoundRect,0.760000X-1.140000X1.140000X-1.140000X-1.140000X1.140000X-1.140000X1.140000X1.140000X0*%
%ADD13C,4.000000*%
%ADD14RoundRect,0.150000X-0.825000X-0.150000X0.825000X-0.150000X0.825000X0.150000X-0.825000X0.150000X0*%
%ADD15RoundRect,0.237500X0.237500X-0.250000X0.237500X0.250000X-0.237500X0.250000X-0.237500X-0.250000X0*%
%ADD16RoundRect,0.760000X1.140000X-1.140000X1.140000X1.140000X-1.140000X1.140000X-1.140000X-1.140000X0*%
%ADD17C,3.800000*%
%ADD18RoundRect,0.150000X0.700000X-0.150000X0.700000X0.150000X-0.700000X0.150000X-0.700000X-0.150000X0*%
%ADD19RoundRect,0.250000X1.150000X-0.250000X1.150000X0.250000X-1.150000X0.250000X-1.150000X-0.250000X0*%
%ADD20RoundRect,0.237500X0.300000X0.237500X-0.300000X0.237500X-0.300000X-0.237500X0.300000X-0.237500X0*%
%ADD21RoundRect,0.250000X0.350000X0.450000X-0.350000X0.450000X-0.350000X-0.450000X0.350000X-0.450000X0*%
%ADD22RoundRect,0.249999X0.850001X3.500001X-0.850001X3.500001X-0.850001X-3.500001X0.850001X-3.500001X0*%
%ADD23RoundRect,0.237500X0.250000X0.237500X-0.250000X0.237500X-0.250000X-0.237500X0.250000X-0.237500X0*%
%ADD24RoundRect,0.250000X-0.475000X0.250000X-0.475000X-0.250000X0.475000X-0.250000X0.475000X0.250000X0*%
%ADD25C,1.400000*%
%ADD26RoundRect,0.237500X-0.250000X-0.237500X0.250000X-0.237500X0.250000X0.237500X-0.250000X0.237500X0*%
%ADD27RoundRect,0.250000X-0.300000X-0.300000X0.300000X-0.300000X0.300000X0.300000X-0.300000X0.300000X0*%
G04 APERTURE END LIST*
D10*
%TO.C,C1*%
X50700000Y-41602651D03*
D11*
X50700000Y-36602651D03*
%TD*%
D12*
%TO.C,J1*%
X71100000Y-37900000D03*
D13*
X71100000Y-42900000D03*
%TD*%
D14*
%TO.C,U2*%
X57425000Y-47495000D03*
X57425000Y-48765000D03*
X57425000Y-50035000D03*
X57425000Y-51305000D03*
X62375000Y-51305000D03*
X62375000Y-50035000D03*
X62375000Y-48765000D03*
X62375000Y-47495000D03*
%TD*%
D15*
%TO.C,R3*%
X68900000Y-49412500D03*
X68900000Y-47587500D03*
%TD*%
D16*
%TO.C,J2*%
X43100000Y-48100000D03*
D17*
X43100000Y-43100000D03*
%TD*%
D18*
%TO.C,J4*%
X44925000Y-34525000D03*
X44925000Y-33275000D03*
D19*
X41575000Y-36375000D03*
X41575000Y-31425000D03*
%TD*%
D20*
%TO.C,C2*%
X54162500Y-47500000D03*
X52437500Y-47500000D03*
%TD*%
D21*
%TO.C,R1*%
X66500000Y-45900000D03*
X64500000Y-45900000D03*
%TD*%
D18*
%TO.C,J3*%
X56850000Y-31825000D03*
X56850000Y-30575000D03*
D19*
X53500000Y-33675000D03*
X53500000Y-28725000D03*
%TD*%
D22*
%TO.C,L1*%
X63000000Y-40600000D03*
X57000000Y-40600000D03*
%TD*%
D23*
%TO.C,R4*%
X54212500Y-52700000D03*
X52387500Y-52700000D03*
%TD*%
D24*
%TO.C,C4*%
X65700000Y-49450000D03*
X65700000Y-51350000D03*
%TD*%
D25*
%TO.C,TP3*%
X62600000Y-33000000D03*
X60600000Y-33000000D03*
%TD*%
D26*
%TO.C,R2*%
X52387500Y-50100000D03*
X54212500Y-50100000D03*
%TD*%
D27*
%TO.C,D2*%
X50300000Y-45000000D03*
X53100000Y-45000000D03*
%TD*%
D25*
%TO.C,TP2*%
X66200000Y-35000000D03*
X66200000Y-33000000D03*
%TD*%
M02*
