%TF.GenerationSoftware,KiCad,Pcbnew,9.0.4*%
%TF.CreationDate,2025-09-26T17:32:34-05:00*%
%TF.ProjectId,Onboarding,4f6e626f-6172-4646-996e-672e6b696361,rev?*%
%TF.SameCoordinates,Original*%
%TF.FileFunction,Legend,Top*%
%TF.FilePolarity,Positive*%
%FSLAX46Y46*%
G04 Gerber Fmt 4.6, Leading zero omitted, Abs format (unit mm)*
G04 Created by KiCad (PCBNEW 9.0.4) date 2025-09-26 17:32:34*
%MOMM*%
%LPD*%
G01*
G04 APERTURE LIST*
G04 Aperture macros list*
%AMRoundRect*
0 Rectangle with rounded corners*
0 $1 Rounding radius*
0 $2 $3 $4 $5 $6 $7 $8 $9 X,Y pos of 4 corners*
0 Add a 4 corners polygon primitive as box body*
4,1,4,$2,$3,$4,$5,$6,$7,$8,$9,$2,$3,0*
0 Add four circle primitives for the rounded corners*
1,1,$1+$1,$2,$3*
1,1,$1+$1,$4,$5*
1,1,$1+$1,$6,$7*
1,1,$1+$1,$8,$9*
0 Add four rect primitives between the rounded corners*
20,1,$1+$1,$2,$3,$4,$5,0*
20,1,$1+$1,$4,$5,$6,$7,0*
20,1,$1+$1,$6,$7,$8,$9,0*
20,1,$1+$1,$8,$9,$2,$3,0*%
G04 Aperture macros list end*
%ADD10C,0.150000*%
%ADD11C,0.152400*%
%ADD12C,0.120000*%
%ADD13O,2.845600X1.524800*%
%ADD14C,2.200000*%
%ADD15RoundRect,0.150000X-0.700000X0.150000X-0.700000X-0.150000X0.700000X-0.150000X0.700000X0.150000X0*%
%ADD16RoundRect,0.250000X-1.150000X0.250000X-1.150000X-0.250000X1.150000X-0.250000X1.150000X0.250000X0*%
%ADD17RoundRect,0.200000X-0.275000X0.200000X-0.275000X-0.200000X0.275000X-0.200000X0.275000X0.200000X0*%
%ADD18RoundRect,0.135000X-0.185000X0.135000X-0.185000X-0.135000X0.185000X-0.135000X0.185000X0.135000X0*%
%ADD19RoundRect,0.225000X-0.250000X0.225000X-0.250000X-0.225000X0.250000X-0.225000X0.250000X0.225000X0*%
%ADD20RoundRect,0.200000X0.200000X0.275000X-0.200000X0.275000X-0.200000X-0.275000X0.200000X-0.275000X0*%
%ADD21RoundRect,0.250000X-0.550000X1.500000X-0.550000X-1.500000X0.550000X-1.500000X0.550000X1.500000X0*%
%ADD22RoundRect,0.249999X-0.850001X-0.850001X0.850001X-0.850001X0.850001X0.850001X-0.850001X0.850001X0*%
%ADD23RoundRect,0.250000X0.262500X0.450000X-0.262500X0.450000X-0.262500X-0.450000X0.262500X-0.450000X0*%
%ADD24RoundRect,0.250000X-0.550000X1.250000X-0.550000X-1.250000X0.550000X-1.250000X0.550000X1.250000X0*%
%ADD25C,3.800000*%
%ADD26RoundRect,0.760000X-1.140000X1.140000X-1.140000X-1.140000X1.140000X-1.140000X1.140000X1.140000X0*%
%ADD27RoundRect,0.218750X0.256250X-0.218750X0.256250X0.218750X-0.256250X0.218750X-0.256250X-0.218750X0*%
%ADD28C,4.000000*%
G04 APERTURE END LIST*
D10*
X105955591Y-79477819D02*
X104953922Y-79477819D01*
X105860194Y-78428452D02*
X105907893Y-78476150D01*
X105907893Y-78476150D02*
X105955591Y-78619246D01*
X105955591Y-78619246D02*
X105955591Y-78714643D01*
X105955591Y-78714643D02*
X105907893Y-78857738D01*
X105907893Y-78857738D02*
X105812495Y-78953135D01*
X105812495Y-78953135D02*
X105717098Y-79000834D01*
X105717098Y-79000834D02*
X105526304Y-79048532D01*
X105526304Y-79048532D02*
X105383209Y-79048532D01*
X105383209Y-79048532D02*
X105192415Y-79000834D01*
X105192415Y-79000834D02*
X105097018Y-78953135D01*
X105097018Y-78953135D02*
X105001621Y-78857738D01*
X105001621Y-78857738D02*
X104953922Y-78714643D01*
X104953922Y-78714643D02*
X104953922Y-78619246D01*
X104953922Y-78619246D02*
X105001621Y-78476150D01*
X105001621Y-78476150D02*
X105049319Y-78428452D01*
X105955591Y-77474481D02*
X105955591Y-78046863D01*
X105955591Y-77760672D02*
X104953922Y-77760672D01*
X104953922Y-77760672D02*
X105097018Y-77856069D01*
X105097018Y-77856069D02*
X105192415Y-77951466D01*
X105192415Y-77951466D02*
X105240113Y-78046863D01*
X103304819Y-65358333D02*
X104019104Y-65358333D01*
X104019104Y-65358333D02*
X104161961Y-65405952D01*
X104161961Y-65405952D02*
X104257200Y-65501190D01*
X104257200Y-65501190D02*
X104304819Y-65644047D01*
X104304819Y-65644047D02*
X104304819Y-65739285D01*
X103638152Y-64453571D02*
X104304819Y-64453571D01*
X103257200Y-64691666D02*
X103971485Y-64929761D01*
X103971485Y-64929761D02*
X103971485Y-64310714D01*
X115054819Y-65358333D02*
X115769104Y-65358333D01*
X115769104Y-65358333D02*
X115911961Y-65405952D01*
X115911961Y-65405952D02*
X116007200Y-65501190D01*
X116007200Y-65501190D02*
X116054819Y-65644047D01*
X116054819Y-65644047D02*
X116054819Y-65739285D01*
X115054819Y-64977380D02*
X115054819Y-64358333D01*
X115054819Y-64358333D02*
X115435771Y-64691666D01*
X115435771Y-64691666D02*
X115435771Y-64548809D01*
X115435771Y-64548809D02*
X115483390Y-64453571D01*
X115483390Y-64453571D02*
X115531009Y-64405952D01*
X115531009Y-64405952D02*
X115626247Y-64358333D01*
X115626247Y-64358333D02*
X115864342Y-64358333D01*
X115864342Y-64358333D02*
X115959580Y-64405952D01*
X115959580Y-64405952D02*
X116007200Y-64453571D01*
X116007200Y-64453571D02*
X116054819Y-64548809D01*
X116054819Y-64548809D02*
X116054819Y-64834523D01*
X116054819Y-64834523D02*
X116007200Y-64929761D01*
X116007200Y-64929761D02*
X115959580Y-64977380D01*
X114454819Y-78591666D02*
X113978628Y-78924999D01*
X114454819Y-79163094D02*
X113454819Y-79163094D01*
X113454819Y-79163094D02*
X113454819Y-78782142D01*
X113454819Y-78782142D02*
X113502438Y-78686904D01*
X113502438Y-78686904D02*
X113550057Y-78639285D01*
X113550057Y-78639285D02*
X113645295Y-78591666D01*
X113645295Y-78591666D02*
X113788152Y-78591666D01*
X113788152Y-78591666D02*
X113883390Y-78639285D01*
X113883390Y-78639285D02*
X113931009Y-78686904D01*
X113931009Y-78686904D02*
X113978628Y-78782142D01*
X113978628Y-78782142D02*
X113978628Y-79163094D01*
X113454819Y-78258332D02*
X113454819Y-77639285D01*
X113454819Y-77639285D02*
X113835771Y-77972618D01*
X113835771Y-77972618D02*
X113835771Y-77829761D01*
X113835771Y-77829761D02*
X113883390Y-77734523D01*
X113883390Y-77734523D02*
X113931009Y-77686904D01*
X113931009Y-77686904D02*
X114026247Y-77639285D01*
X114026247Y-77639285D02*
X114264342Y-77639285D01*
X114264342Y-77639285D02*
X114359580Y-77686904D01*
X114359580Y-77686904D02*
X114407200Y-77734523D01*
X114407200Y-77734523D02*
X114454819Y-77829761D01*
X114454819Y-77829761D02*
X114454819Y-78115475D01*
X114454819Y-78115475D02*
X114407200Y-78210713D01*
X114407200Y-78210713D02*
X114359580Y-78258332D01*
X107124819Y-85156666D02*
X106648628Y-85489999D01*
X107124819Y-85728094D02*
X106124819Y-85728094D01*
X106124819Y-85728094D02*
X106124819Y-85347142D01*
X106124819Y-85347142D02*
X106172438Y-85251904D01*
X106172438Y-85251904D02*
X106220057Y-85204285D01*
X106220057Y-85204285D02*
X106315295Y-85156666D01*
X106315295Y-85156666D02*
X106458152Y-85156666D01*
X106458152Y-85156666D02*
X106553390Y-85204285D01*
X106553390Y-85204285D02*
X106601009Y-85251904D01*
X106601009Y-85251904D02*
X106648628Y-85347142D01*
X106648628Y-85347142D02*
X106648628Y-85728094D01*
X107124819Y-84204285D02*
X107124819Y-84775713D01*
X107124819Y-84489999D02*
X106124819Y-84489999D01*
X106124819Y-84489999D02*
X106267676Y-84585237D01*
X106267676Y-84585237D02*
X106362914Y-84680475D01*
X106362914Y-84680475D02*
X106410533Y-84775713D01*
X98508538Y-80391666D02*
X98556158Y-80439285D01*
X98556158Y-80439285D02*
X98603777Y-80582142D01*
X98603777Y-80582142D02*
X98603777Y-80677380D01*
X98603777Y-80677380D02*
X98556158Y-80820237D01*
X98556158Y-80820237D02*
X98460919Y-80915475D01*
X98460919Y-80915475D02*
X98365681Y-80963094D01*
X98365681Y-80963094D02*
X98175205Y-81010713D01*
X98175205Y-81010713D02*
X98032348Y-81010713D01*
X98032348Y-81010713D02*
X97841872Y-80963094D01*
X97841872Y-80963094D02*
X97746634Y-80915475D01*
X97746634Y-80915475D02*
X97651396Y-80820237D01*
X97651396Y-80820237D02*
X97603777Y-80677380D01*
X97603777Y-80677380D02*
X97603777Y-80582142D01*
X97603777Y-80582142D02*
X97651396Y-80439285D01*
X97651396Y-80439285D02*
X97699015Y-80391666D01*
X97699015Y-80010713D02*
X97651396Y-79963094D01*
X97651396Y-79963094D02*
X97603777Y-79867856D01*
X97603777Y-79867856D02*
X97603777Y-79629761D01*
X97603777Y-79629761D02*
X97651396Y-79534523D01*
X97651396Y-79534523D02*
X97699015Y-79486904D01*
X97699015Y-79486904D02*
X97794253Y-79439285D01*
X97794253Y-79439285D02*
X97889491Y-79439285D01*
X97889491Y-79439285D02*
X98032348Y-79486904D01*
X98032348Y-79486904D02*
X98603777Y-80058332D01*
X98603777Y-80058332D02*
X98603777Y-79439285D01*
X112258333Y-76884819D02*
X111925000Y-76408628D01*
X111686905Y-76884819D02*
X111686905Y-75884819D01*
X111686905Y-75884819D02*
X112067857Y-75884819D01*
X112067857Y-75884819D02*
X112163095Y-75932438D01*
X112163095Y-75932438D02*
X112210714Y-75980057D01*
X112210714Y-75980057D02*
X112258333Y-76075295D01*
X112258333Y-76075295D02*
X112258333Y-76218152D01*
X112258333Y-76218152D02*
X112210714Y-76313390D01*
X112210714Y-76313390D02*
X112163095Y-76361009D01*
X112163095Y-76361009D02*
X112067857Y-76408628D01*
X112067857Y-76408628D02*
X111686905Y-76408628D01*
X113115476Y-76218152D02*
X113115476Y-76884819D01*
X112877381Y-75837200D02*
X112639286Y-76551485D01*
X112639286Y-76551485D02*
X113258333Y-76551485D01*
X99009580Y-85366666D02*
X99057200Y-85414285D01*
X99057200Y-85414285D02*
X99104819Y-85557142D01*
X99104819Y-85557142D02*
X99104819Y-85652380D01*
X99104819Y-85652380D02*
X99057200Y-85795237D01*
X99057200Y-85795237D02*
X98961961Y-85890475D01*
X98961961Y-85890475D02*
X98866723Y-85938094D01*
X98866723Y-85938094D02*
X98676247Y-85985713D01*
X98676247Y-85985713D02*
X98533390Y-85985713D01*
X98533390Y-85985713D02*
X98342914Y-85938094D01*
X98342914Y-85938094D02*
X98247676Y-85890475D01*
X98247676Y-85890475D02*
X98152438Y-85795237D01*
X98152438Y-85795237D02*
X98104819Y-85652380D01*
X98104819Y-85652380D02*
X98104819Y-85557142D01*
X98104819Y-85557142D02*
X98152438Y-85414285D01*
X98152438Y-85414285D02*
X98200057Y-85366666D01*
X99104819Y-84414285D02*
X99104819Y-84985713D01*
X99104819Y-84699999D02*
X98104819Y-84699999D01*
X98104819Y-84699999D02*
X98247676Y-84795237D01*
X98247676Y-84795237D02*
X98342914Y-84890475D01*
X98342914Y-84890475D02*
X98390533Y-84985713D01*
X104681905Y-68484819D02*
X104681905Y-67484819D01*
X104681905Y-67484819D02*
X104920000Y-67484819D01*
X104920000Y-67484819D02*
X105062857Y-67532438D01*
X105062857Y-67532438D02*
X105158095Y-67627676D01*
X105158095Y-67627676D02*
X105205714Y-67722914D01*
X105205714Y-67722914D02*
X105253333Y-67913390D01*
X105253333Y-67913390D02*
X105253333Y-68056247D01*
X105253333Y-68056247D02*
X105205714Y-68246723D01*
X105205714Y-68246723D02*
X105158095Y-68341961D01*
X105158095Y-68341961D02*
X105062857Y-68437200D01*
X105062857Y-68437200D02*
X104920000Y-68484819D01*
X104920000Y-68484819D02*
X104681905Y-68484819D01*
X105634286Y-67580057D02*
X105681905Y-67532438D01*
X105681905Y-67532438D02*
X105777143Y-67484819D01*
X105777143Y-67484819D02*
X106015238Y-67484819D01*
X106015238Y-67484819D02*
X106110476Y-67532438D01*
X106110476Y-67532438D02*
X106158095Y-67580057D01*
X106158095Y-67580057D02*
X106205714Y-67675295D01*
X106205714Y-67675295D02*
X106205714Y-67770533D01*
X106205714Y-67770533D02*
X106158095Y-67913390D01*
X106158095Y-67913390D02*
X105586667Y-68484819D01*
X105586667Y-68484819D02*
X106205714Y-68484819D01*
X101082433Y-73243808D02*
X101082433Y-72243808D01*
X101653861Y-73243808D02*
X101225290Y-72672379D01*
X101653861Y-72243808D02*
X101082433Y-72815236D01*
X100833333Y-87104819D02*
X100500000Y-86628628D01*
X100261905Y-87104819D02*
X100261905Y-86104819D01*
X100261905Y-86104819D02*
X100642857Y-86104819D01*
X100642857Y-86104819D02*
X100738095Y-86152438D01*
X100738095Y-86152438D02*
X100785714Y-86200057D01*
X100785714Y-86200057D02*
X100833333Y-86295295D01*
X100833333Y-86295295D02*
X100833333Y-86438152D01*
X100833333Y-86438152D02*
X100785714Y-86533390D01*
X100785714Y-86533390D02*
X100738095Y-86581009D01*
X100738095Y-86581009D02*
X100642857Y-86628628D01*
X100642857Y-86628628D02*
X100261905Y-86628628D01*
X101214286Y-86200057D02*
X101261905Y-86152438D01*
X101261905Y-86152438D02*
X101357143Y-86104819D01*
X101357143Y-86104819D02*
X101595238Y-86104819D01*
X101595238Y-86104819D02*
X101690476Y-86152438D01*
X101690476Y-86152438D02*
X101738095Y-86200057D01*
X101738095Y-86200057D02*
X101785714Y-86295295D01*
X101785714Y-86295295D02*
X101785714Y-86390533D01*
X101785714Y-86390533D02*
X101738095Y-86533390D01*
X101738095Y-86533390D02*
X101166667Y-87104819D01*
X101166667Y-87104819D02*
X101785714Y-87104819D01*
X117059580Y-85366666D02*
X117107200Y-85414285D01*
X117107200Y-85414285D02*
X117154819Y-85557142D01*
X117154819Y-85557142D02*
X117154819Y-85652380D01*
X117154819Y-85652380D02*
X117107200Y-85795237D01*
X117107200Y-85795237D02*
X117011961Y-85890475D01*
X117011961Y-85890475D02*
X116916723Y-85938094D01*
X116916723Y-85938094D02*
X116726247Y-85985713D01*
X116726247Y-85985713D02*
X116583390Y-85985713D01*
X116583390Y-85985713D02*
X116392914Y-85938094D01*
X116392914Y-85938094D02*
X116297676Y-85890475D01*
X116297676Y-85890475D02*
X116202438Y-85795237D01*
X116202438Y-85795237D02*
X116154819Y-85652380D01*
X116154819Y-85652380D02*
X116154819Y-85557142D01*
X116154819Y-85557142D02*
X116202438Y-85414285D01*
X116202438Y-85414285D02*
X116250057Y-85366666D01*
X116154819Y-85033332D02*
X116154819Y-84414285D01*
X116154819Y-84414285D02*
X116535771Y-84747618D01*
X116535771Y-84747618D02*
X116535771Y-84604761D01*
X116535771Y-84604761D02*
X116583390Y-84509523D01*
X116583390Y-84509523D02*
X116631009Y-84461904D01*
X116631009Y-84461904D02*
X116726247Y-84414285D01*
X116726247Y-84414285D02*
X116964342Y-84414285D01*
X116964342Y-84414285D02*
X117059580Y-84461904D01*
X117059580Y-84461904D02*
X117107200Y-84509523D01*
X117107200Y-84509523D02*
X117154819Y-84604761D01*
X117154819Y-84604761D02*
X117154819Y-84890475D01*
X117154819Y-84890475D02*
X117107200Y-84985713D01*
X117107200Y-84985713D02*
X117059580Y-85033332D01*
X97954819Y-73583333D02*
X98669104Y-73583333D01*
X98669104Y-73583333D02*
X98811961Y-73630952D01*
X98811961Y-73630952D02*
X98907200Y-73726190D01*
X98907200Y-73726190D02*
X98954819Y-73869047D01*
X98954819Y-73869047D02*
X98954819Y-73964285D01*
X98050057Y-73154761D02*
X98002438Y-73107142D01*
X98002438Y-73107142D02*
X97954819Y-73011904D01*
X97954819Y-73011904D02*
X97954819Y-72773809D01*
X97954819Y-72773809D02*
X98002438Y-72678571D01*
X98002438Y-72678571D02*
X98050057Y-72630952D01*
X98050057Y-72630952D02*
X98145295Y-72583333D01*
X98145295Y-72583333D02*
X98240533Y-72583333D01*
X98240533Y-72583333D02*
X98383390Y-72630952D01*
X98383390Y-72630952D02*
X98954819Y-73202380D01*
X98954819Y-73202380D02*
X98954819Y-72583333D01*
X94614700Y-80321428D02*
X94614700Y-79178571D01*
X95186128Y-79749999D02*
X94043271Y-79749999D01*
X94614700Y-67321428D02*
X94614700Y-66178571D01*
X112274819Y-72379166D02*
X112274819Y-72855356D01*
X112274819Y-72855356D02*
X111274819Y-72855356D01*
X112274819Y-71522023D02*
X112274819Y-72093451D01*
X112274819Y-71807737D02*
X111274819Y-71807737D01*
X111274819Y-71807737D02*
X111417676Y-71902975D01*
X111417676Y-71902975D02*
X111512914Y-71998213D01*
X111512914Y-71998213D02*
X111560533Y-72093451D01*
X121454819Y-76833333D02*
X122169104Y-76833333D01*
X122169104Y-76833333D02*
X122311961Y-76880952D01*
X122311961Y-76880952D02*
X122407200Y-76976190D01*
X122407200Y-76976190D02*
X122454819Y-77119047D01*
X122454819Y-77119047D02*
X122454819Y-77214285D01*
X122454819Y-75833333D02*
X122454819Y-76404761D01*
X122454819Y-76119047D02*
X121454819Y-76119047D01*
X121454819Y-76119047D02*
X121597676Y-76214285D01*
X121597676Y-76214285D02*
X121692914Y-76309523D01*
X121692914Y-76309523D02*
X121740533Y-76404761D01*
X117614700Y-84071428D02*
X117614700Y-82928571D01*
X118186128Y-83499999D02*
X117043271Y-83499999D01*
X118114700Y-70571428D02*
X118114700Y-69428571D01*
D11*
%TO.C,IC1*%
X106135000Y-73420000D02*
G75*
G02*
X104865000Y-73420000I-635000J0D01*
G01*
X102706000Y-83580000D02*
X108294000Y-83580000D01*
X108294000Y-83580000D02*
X108294000Y-73420000D01*
X102706000Y-73420000D02*
X102706000Y-83580000D01*
X104865000Y-73420000D02*
X102706000Y-73420000D01*
X108294000Y-73420000D02*
X106135000Y-73420000D01*
D12*
%TO.C,J4*%
X99590000Y-62040000D02*
X97990000Y-62040000D01*
X97990000Y-62040000D02*
X97990000Y-63840000D01*
X102460000Y-63310000D02*
X102460000Y-66740000D01*
X97990000Y-63840000D02*
X97050000Y-63840000D01*
X99590000Y-68010000D02*
X97990000Y-68010000D01*
X97990000Y-68010000D02*
X97990000Y-66210000D01*
%TO.C,J3*%
X111340000Y-62040000D02*
X109740000Y-62040000D01*
X109740000Y-62040000D02*
X109740000Y-63840000D01*
X114210000Y-63310000D02*
X114210000Y-66740000D01*
X109740000Y-63840000D02*
X108800000Y-63840000D01*
X111340000Y-68010000D02*
X109740000Y-68010000D01*
X109740000Y-68010000D02*
X109740000Y-66210000D01*
%TO.C,R3*%
X112227500Y-78187742D02*
X112227500Y-78662258D01*
X113272500Y-78187742D02*
X113272500Y-78662258D01*
%TO.C,R1*%
X105120000Y-84836359D02*
X105120000Y-85143641D01*
X105880000Y-84836359D02*
X105880000Y-85143641D01*
%TO.C,C2*%
X98990000Y-80084420D02*
X98990000Y-80365580D01*
X100010000Y-80084420D02*
X100010000Y-80365580D01*
%TO.C,R4*%
X112662258Y-74477500D02*
X112187742Y-74477500D01*
X112662258Y-75522500D02*
X112187742Y-75522500D01*
%TO.C,C1*%
X90890000Y-88610000D02*
X93240000Y-88610000D01*
X97710000Y-88610000D02*
X95360000Y-88610000D01*
X90890000Y-82854437D02*
X90890000Y-88610000D01*
X97710000Y-82854437D02*
X97710000Y-88610000D01*
X91954437Y-81790000D02*
X90890000Y-82854437D01*
X91954437Y-81790000D02*
X93240000Y-81790000D01*
X96645563Y-81790000D02*
X97710000Y-82854437D01*
X96645563Y-81790000D02*
X95360000Y-81790000D01*
X96541250Y-81156250D02*
X95753750Y-81156250D01*
X96147500Y-80762500D02*
X96147500Y-81550000D01*
%TO.C,D2*%
X101680000Y-70500000D02*
X102700000Y-70500000D01*
X103480000Y-69030000D02*
X103480000Y-71970000D01*
X103600000Y-69030000D02*
X103600000Y-71970000D01*
X103720000Y-69030000D02*
X103720000Y-71970000D01*
X109160000Y-70500000D02*
X108140000Y-70500000D01*
X102700000Y-69030000D02*
X108140000Y-69030000D01*
X108140000Y-71970000D01*
X102700000Y-71970000D01*
X102700000Y-69030000D01*
%TO.C,R2*%
X101227064Y-85735000D02*
X100772936Y-85735000D01*
X101227064Y-84265000D02*
X100772936Y-84265000D01*
%TO.C,C3*%
X114685000Y-81575000D02*
X114685000Y-82200000D01*
X114997500Y-81887500D02*
X114372500Y-81887500D01*
X114695563Y-82440000D02*
X114060000Y-82440000D01*
X114695563Y-82440000D02*
X115760000Y-83504437D01*
X111304437Y-82440000D02*
X111940000Y-82440000D01*
X111304437Y-82440000D02*
X110240000Y-83504437D01*
X115760000Y-83504437D02*
X115760000Y-87960000D01*
X110240000Y-83504437D02*
X110240000Y-87960000D01*
X115760000Y-87960000D02*
X114060000Y-87960000D01*
X110240000Y-87960000D02*
X111940000Y-87960000D01*
%TO.C,J2*%
X97210000Y-78460000D02*
X91790000Y-78460000D01*
X91790000Y-69740000D02*
X91790000Y-78460000D01*
X97210000Y-69740000D02*
X97210000Y-78460000D01*
X93090000Y-68040000D02*
X91790000Y-69740000D01*
X95910000Y-68040000D02*
X97210000Y-69740000D01*
X95910000Y-68040000D02*
X93090000Y-68040000D01*
%TO.C,L1*%
X113760000Y-72375279D02*
X113760000Y-72049721D01*
X112740000Y-72375279D02*
X112740000Y-72049721D01*
%TO.C,J1*%
X120710000Y-81710000D02*
X115290000Y-81710000D01*
X115290000Y-72990000D02*
X115290000Y-81710000D01*
X120710000Y-72990000D02*
X120710000Y-81710000D01*
X116590000Y-71290000D02*
X115290000Y-72990000D01*
X119410000Y-71290000D02*
X120710000Y-72990000D01*
X119410000Y-71290000D02*
X116590000Y-71290000D01*
%TD*%
%LPC*%
D13*
%TO.C,IC1*%
X109310000Y-74690000D03*
X109310000Y-77230000D03*
X109310000Y-79770000D03*
X109310000Y-82310000D03*
X101690000Y-82310000D03*
X101690000Y-79770000D03*
X101690000Y-77230000D03*
X101690000Y-74690000D03*
%TD*%
D14*
%TO.C,H2*%
X87000000Y-87500000D03*
%TD*%
D15*
%TO.C,J4*%
X97900000Y-64400000D03*
X97900000Y-65650000D03*
D16*
X101250000Y-62550000D03*
X101250000Y-67500000D03*
%TD*%
D15*
%TO.C,J3*%
X109650000Y-64400000D03*
X109650000Y-65650000D03*
D16*
X113000000Y-62550000D03*
X113000000Y-67500000D03*
%TD*%
D17*
%TO.C,R3*%
X112750000Y-79250000D03*
X112750000Y-77600000D03*
%TD*%
D18*
%TO.C,R1*%
X105500000Y-85500000D03*
X105500000Y-84480000D03*
%TD*%
D19*
%TO.C,C2*%
X99500000Y-81000000D03*
X99500000Y-79450000D03*
%TD*%
D20*
%TO.C,R4*%
X111600000Y-75000000D03*
X113250000Y-75000000D03*
%TD*%
D21*
%TO.C,C1*%
X94300000Y-87900000D03*
X94300000Y-82500000D03*
%TD*%
D22*
%TO.C,D2*%
X100340000Y-70500000D03*
D14*
X110500000Y-70500000D03*
%TD*%
D23*
%TO.C,R2*%
X101912500Y-85000000D03*
X100087500Y-85000000D03*
%TD*%
D24*
%TO.C,C3*%
X113000000Y-83000000D03*
X113000000Y-87400000D03*
%TD*%
D25*
%TO.C,J2*%
X94500000Y-75750000D03*
D26*
X94500000Y-70750000D03*
%TD*%
D27*
%TO.C,L1*%
X113250000Y-71425000D03*
X113250000Y-73000000D03*
%TD*%
D28*
%TO.C,J1*%
X118000000Y-79000000D03*
D26*
X118000000Y-74000000D03*
%TD*%
D14*
%TO.C,H1*%
X86500000Y-64000000D03*
%TD*%
%TO.C,H4*%
X120500000Y-87500000D03*
%TD*%
%TO.C,H3*%
X120500000Y-64000000D03*
%TD*%
%LPD*%
M02*
