%TF.GenerationSoftware,KiCad,Pcbnew,9.0.4*%
%TF.CreationDate,2025-09-26T17:32:34-05:00*%
%TF.ProjectId,Onboarding,4f6e626f-6172-4646-996e-672e6b696361,rev?*%
%TF.SameCoordinates,Original*%
%TF.FileFunction,Copper,L2,Bot*%
%TF.FilePolarity,Positive*%
%FSLAX46Y46*%
G04 Gerber Fmt 4.6, Leading zero omitted, Abs format (unit mm)*
G04 Created by KiCad (PCBNEW 9.0.4) date 2025-09-26 17:32:34*
%MOMM*%
%LPD*%
G01*
G04 APERTURE LIST*
G04 Aperture macros list*
%AMRoundRect*
0 Rectangle with rounded corners*
0 $1 Rounding radius*
0 $2 $3 $4 $5 $6 $7 $8 $9 X,Y pos of 4 corners*
0 Add a 4 corners polygon primitive as box body*
4,1,4,$2,$3,$4,$5,$6,$7,$8,$9,$2,$3,0*
0 Add four circle primitives for the rounded corners*
1,1,$1+$1,$2,$3*
1,1,$1+$1,$4,$5*
1,1,$1+$1,$6,$7*
1,1,$1+$1,$8,$9*
0 Add four rect primitives between the rounded corners*
20,1,$1+$1,$2,$3,$4,$5,0*
20,1,$1+$1,$4,$5,$6,$7,0*
20,1,$1+$1,$6,$7,$8,$9,0*
20,1,$1+$1,$8,$9,$2,$3,0*%
G04 Aperture macros list end*
%TA.AperFunction,ComponentPad*%
%ADD10O,2.641600X1.320800*%
%TD*%
%TA.AperFunction,ComponentPad*%
%ADD11RoundRect,0.249999X-0.850001X-0.850001X0.850001X-0.850001X0.850001X0.850001X-0.850001X0.850001X0*%
%TD*%
%TA.AperFunction,ComponentPad*%
%ADD12C,2.200000*%
%TD*%
%TA.AperFunction,ComponentPad*%
%ADD13C,3.800000*%
%TD*%
%TA.AperFunction,ComponentPad*%
%ADD14RoundRect,0.760000X-1.140000X1.140000X-1.140000X-1.140000X1.140000X-1.140000X1.140000X1.140000X0*%
%TD*%
%TA.AperFunction,ComponentPad*%
%ADD15C,4.000000*%
%TD*%
G04 APERTURE END LIST*
D10*
%TO.P,IC1,8,DRC*%
%TO.N,Net-(IC1-DRC)*%
X109310000Y-74690000D03*
%TO.P,IC1,7,IPK*%
%TO.N,Net-(IC1-IPK)*%
X109310000Y-77230000D03*
%TO.P,IC1,6,VCC*%
%TO.N,+12V*%
X109310000Y-79770000D03*
%TO.P,IC1,5,COMP*%
%TO.N,Net-(IC1-COMP)*%
X109310000Y-82310000D03*
%TO.P,IC1,4,GND*%
%TO.N,GND*%
X101690000Y-82310000D03*
%TO.P,IC1,3,TC*%
%TO.N,Net-(IC1-TC)*%
X101690000Y-79770000D03*
%TO.P,IC1,2,SWE*%
%TO.N,GND*%
X101690000Y-77230000D03*
%TO.P,IC1,1,SWC*%
%TO.N,Net-(D2-A)*%
X101690000Y-74690000D03*
%TD*%
D11*
%TO.P,D2,1,K*%
%TO.N,VCC*%
X100340000Y-70500000D03*
D12*
%TO.P,D2,2,A*%
%TO.N,Net-(D2-A)*%
X110500000Y-70500000D03*
%TD*%
D13*
%TO.P,J2,2,Pin_2*%
%TO.N,VCC*%
X94500000Y-75750000D03*
D14*
%TO.P,J2,1,Pin_1*%
%TO.N,GND*%
X94500000Y-70750000D03*
%TD*%
D15*
%TO.P,J1,2,Pin_2*%
%TO.N,+12V*%
X118000000Y-79000000D03*
D14*
%TO.P,J1,1,Pin_1*%
%TO.N,GND*%
X118000000Y-74000000D03*
%TD*%
%TA.AperFunction,Conductor*%
%TO.N,GND*%
G36*
X120443039Y-67019685D02*
G01*
X120488794Y-67072489D01*
X120500000Y-67124000D01*
X120500000Y-72234575D01*
X120480315Y-72301614D01*
X120427511Y-72347369D01*
X120358353Y-72357313D01*
X120294797Y-72328288D01*
X120263101Y-72285857D01*
X120240302Y-72235665D01*
X120240301Y-72235663D01*
X120111148Y-72049241D01*
X120111138Y-72049229D01*
X119950770Y-71888861D01*
X119950758Y-71888851D01*
X119764336Y-71759698D01*
X119764330Y-71759695D01*
X119557832Y-71665899D01*
X119557829Y-71665898D01*
X119337912Y-71610483D01*
X119337906Y-71610482D01*
X119204719Y-71600000D01*
X118250000Y-71600000D01*
X118250000Y-72672768D01*
X118106247Y-72650000D01*
X117893753Y-72650000D01*
X117750000Y-72672768D01*
X117750000Y-71600000D01*
X116795280Y-71600000D01*
X116662093Y-71610482D01*
X116662087Y-71610483D01*
X116442170Y-71665898D01*
X116442167Y-71665899D01*
X116235669Y-71759695D01*
X116235663Y-71759698D01*
X116049241Y-71888851D01*
X116049229Y-71888861D01*
X115888861Y-72049229D01*
X115888851Y-72049241D01*
X115759698Y-72235663D01*
X115759695Y-72235669D01*
X115665899Y-72442167D01*
X115665898Y-72442170D01*
X115610483Y-72662087D01*
X115610482Y-72662093D01*
X115600000Y-72795280D01*
X115600000Y-73750000D01*
X116672769Y-73750000D01*
X116650000Y-73893753D01*
X116650000Y-74106247D01*
X116672769Y-74250000D01*
X115600000Y-74250000D01*
X115600000Y-75204719D01*
X115610482Y-75337906D01*
X115610483Y-75337912D01*
X115665898Y-75557829D01*
X115665899Y-75557832D01*
X115759695Y-75764330D01*
X115759698Y-75764336D01*
X115888851Y-75950758D01*
X115888861Y-75950770D01*
X116049229Y-76111138D01*
X116049241Y-76111148D01*
X116235663Y-76240301D01*
X116235669Y-76240304D01*
X116442167Y-76334100D01*
X116442170Y-76334101D01*
X116662087Y-76389516D01*
X116662093Y-76389517D01*
X116795280Y-76399999D01*
X116795294Y-76400000D01*
X117129690Y-76400000D01*
X117196729Y-76419685D01*
X117242484Y-76472489D01*
X117252428Y-76541647D01*
X117223403Y-76605203D01*
X117170645Y-76641041D01*
X117041588Y-76686200D01*
X116788557Y-76808053D01*
X116550753Y-76957476D01*
X116331175Y-77132583D01*
X116132583Y-77331175D01*
X115957476Y-77550753D01*
X115808053Y-77788557D01*
X115686200Y-78041588D01*
X115593443Y-78306670D01*
X115593439Y-78306682D01*
X115530945Y-78580487D01*
X115530942Y-78580505D01*
X115499500Y-78859568D01*
X115499500Y-79140431D01*
X115530942Y-79419494D01*
X115530945Y-79419512D01*
X115593439Y-79693317D01*
X115593443Y-79693329D01*
X115686200Y-79958411D01*
X115808053Y-80211442D01*
X115854275Y-80285004D01*
X115957477Y-80449248D01*
X116132584Y-80668825D01*
X116331175Y-80867416D01*
X116550752Y-81042523D01*
X116788555Y-81191945D01*
X117041592Y-81313801D01*
X117240680Y-81383465D01*
X117306670Y-81406556D01*
X117306682Y-81406560D01*
X117580491Y-81469055D01*
X117580497Y-81469055D01*
X117580505Y-81469057D01*
X117766547Y-81490018D01*
X117859569Y-81500499D01*
X117859572Y-81500500D01*
X117859575Y-81500500D01*
X118140428Y-81500500D01*
X118140429Y-81500499D01*
X118283055Y-81484429D01*
X118419494Y-81469057D01*
X118419499Y-81469056D01*
X118419509Y-81469055D01*
X118693318Y-81406560D01*
X118958408Y-81313801D01*
X119211445Y-81191945D01*
X119449248Y-81042523D01*
X119668825Y-80867416D01*
X119867416Y-80668825D01*
X120042523Y-80449248D01*
X120191945Y-80211445D01*
X120191948Y-80211439D01*
X120264280Y-80061241D01*
X120311102Y-80009381D01*
X120378529Y-79991068D01*
X120445153Y-80012116D01*
X120489822Y-80065842D01*
X120500000Y-80115042D01*
X120500000Y-84376000D01*
X120480315Y-84443039D01*
X120427511Y-84488794D01*
X120376000Y-84500000D01*
X86624000Y-84500000D01*
X86556961Y-84480315D01*
X86511206Y-84427511D01*
X86500000Y-84376000D01*
X86500000Y-75615186D01*
X92099500Y-75615186D01*
X92099500Y-75884813D01*
X92129686Y-76152719D01*
X92129687Y-76152728D01*
X92129688Y-76152732D01*
X92130118Y-76154616D01*
X92189684Y-76415594D01*
X92189687Y-76415602D01*
X92278734Y-76670082D01*
X92395714Y-76912994D01*
X92395716Y-76912997D01*
X92539162Y-77141289D01*
X92707266Y-77352085D01*
X92897915Y-77542734D01*
X93108711Y-77710838D01*
X93337003Y-77854284D01*
X93579921Y-77971267D01*
X93771049Y-78038145D01*
X93834397Y-78060312D01*
X93834405Y-78060315D01*
X93834408Y-78060315D01*
X93834409Y-78060316D01*
X94097268Y-78120312D01*
X94365187Y-78150499D01*
X94365188Y-78150500D01*
X94365191Y-78150500D01*
X94634812Y-78150500D01*
X94634812Y-78150499D01*
X94902732Y-78120312D01*
X95165591Y-78060316D01*
X95420079Y-77971267D01*
X95662997Y-77854284D01*
X95891289Y-77710838D01*
X96102085Y-77542734D01*
X96292734Y-77352085D01*
X96460838Y-77141289D01*
X96604284Y-76912997D01*
X96721267Y-76670079D01*
X96810316Y-76415591D01*
X96870312Y-76152732D01*
X96900500Y-75884809D01*
X96900500Y-75615191D01*
X96870312Y-75347268D01*
X96810316Y-75084409D01*
X96721267Y-74829921D01*
X96609883Y-74598629D01*
X99868700Y-74598629D01*
X99868700Y-74781370D01*
X99897284Y-74961841D01*
X99897285Y-74961845D01*
X99953752Y-75135631D01*
X100036709Y-75298444D01*
X100144115Y-75446276D01*
X100273324Y-75575485D01*
X100421156Y-75682891D01*
X100583969Y-75765848D01*
X100757755Y-75822315D01*
X100807139Y-75830136D01*
X100855395Y-75837780D01*
X100918530Y-75867709D01*
X100955461Y-75927021D01*
X100954463Y-75996883D01*
X100915853Y-76055116D01*
X100855396Y-76082726D01*
X100757870Y-76098173D01*
X100584156Y-76154616D01*
X100421417Y-76237537D01*
X100273648Y-76344899D01*
X100273647Y-76344899D01*
X100144499Y-76474047D01*
X100144499Y-76474048D01*
X100037137Y-76621817D01*
X99954216Y-76784558D01*
X99897772Y-76958271D01*
X99894331Y-76979999D01*
X99894332Y-76980000D01*
X101365263Y-76980000D01*
X101364799Y-76980464D01*
X101311295Y-77073135D01*
X101283600Y-77176496D01*
X101283600Y-77283504D01*
X101311295Y-77386865D01*
X101364799Y-77479536D01*
X101365263Y-77480000D01*
X99894332Y-77480000D01*
X99897772Y-77501728D01*
X99954216Y-77675441D01*
X100037137Y-77838182D01*
X100144499Y-77985951D01*
X100144499Y-77985952D01*
X100273647Y-78115100D01*
X100421417Y-78222462D01*
X100584156Y-78305383D01*
X100757870Y-78361826D01*
X100855395Y-78377273D01*
X100918529Y-78407202D01*
X100955461Y-78466513D01*
X100954463Y-78536376D01*
X100915854Y-78594609D01*
X100855396Y-78622219D01*
X100757757Y-78637684D01*
X100583966Y-78694153D01*
X100421155Y-78777109D01*
X100273321Y-78884517D01*
X100144117Y-79013721D01*
X100036709Y-79161555D01*
X99953753Y-79324366D01*
X99897284Y-79498158D01*
X99868700Y-79678629D01*
X99868700Y-79861370D01*
X99892143Y-80009381D01*
X99897285Y-80041845D01*
X99953752Y-80215631D01*
X100036709Y-80378444D01*
X100144115Y-80526276D01*
X100273324Y-80655485D01*
X100421156Y-80762891D01*
X100583969Y-80845848D01*
X100757755Y-80902315D01*
X100807139Y-80910136D01*
X100855395Y-80917780D01*
X100918530Y-80947709D01*
X100955461Y-81007021D01*
X100954463Y-81076883D01*
X100915853Y-81135116D01*
X100855396Y-81162726D01*
X100757870Y-81178173D01*
X100584156Y-81234616D01*
X100421417Y-81317537D01*
X100273648Y-81424899D01*
X100273647Y-81424899D01*
X100144499Y-81554047D01*
X100144499Y-81554048D01*
X100037137Y-81701817D01*
X99954216Y-81864558D01*
X99897772Y-82038271D01*
X99894331Y-82059999D01*
X99894332Y-82060000D01*
X101365263Y-82060000D01*
X101364799Y-82060464D01*
X101311295Y-82153135D01*
X101283600Y-82256496D01*
X101283600Y-82363504D01*
X101311295Y-82466865D01*
X101364799Y-82559536D01*
X101365263Y-82560000D01*
X99894332Y-82560000D01*
X99897772Y-82581728D01*
X99954216Y-82755441D01*
X100037137Y-82918182D01*
X100144499Y-83065951D01*
X100144499Y-83065952D01*
X100273647Y-83195100D01*
X100421417Y-83302462D01*
X100584156Y-83385383D01*
X100757871Y-83441827D01*
X100938270Y-83470400D01*
X101440000Y-83470400D01*
X101440000Y-82634737D01*
X101440464Y-82635201D01*
X101533135Y-82688705D01*
X101636496Y-82716400D01*
X101743504Y-82716400D01*
X101846865Y-82688705D01*
X101939536Y-82635201D01*
X101940000Y-82634737D01*
X101940000Y-83470400D01*
X102441730Y-83470400D01*
X102622128Y-83441827D01*
X102795843Y-83385383D01*
X102958582Y-83302462D01*
X103106351Y-83195100D01*
X103106352Y-83195100D01*
X103235500Y-83065952D01*
X103235500Y-83065951D01*
X103342862Y-82918182D01*
X103425783Y-82755441D01*
X103482227Y-82581728D01*
X103485668Y-82560000D01*
X102014737Y-82560000D01*
X102015201Y-82559536D01*
X102068705Y-82466865D01*
X102096400Y-82363504D01*
X102096400Y-82256496D01*
X102068705Y-82153135D01*
X102015201Y-82060464D01*
X102014737Y-82060000D01*
X103485668Y-82060000D01*
X103485668Y-82059999D01*
X103482227Y-82038271D01*
X103425783Y-81864558D01*
X103342862Y-81701817D01*
X103235500Y-81554048D01*
X103235500Y-81554047D01*
X103106352Y-81424899D01*
X102958582Y-81317537D01*
X102795843Y-81234616D01*
X102622129Y-81178173D01*
X102524603Y-81162726D01*
X102461469Y-81132796D01*
X102424538Y-81073485D01*
X102425536Y-81003622D01*
X102464146Y-80945390D01*
X102524604Y-80917780D01*
X102556399Y-80912743D01*
X102622245Y-80902315D01*
X102796031Y-80845848D01*
X102958844Y-80762891D01*
X103106676Y-80655485D01*
X103235885Y-80526276D01*
X103343291Y-80378444D01*
X103426248Y-80215631D01*
X103482715Y-80041845D01*
X103495930Y-79958408D01*
X103511300Y-79861370D01*
X103511300Y-79678629D01*
X103482715Y-79498158D01*
X103482715Y-79498155D01*
X103426248Y-79324369D01*
X103343291Y-79161556D01*
X103235885Y-79013724D01*
X103106676Y-78884515D01*
X102958844Y-78777109D01*
X102796031Y-78694152D01*
X102622245Y-78637685D01*
X102622243Y-78637684D01*
X102524603Y-78622219D01*
X102461468Y-78592289D01*
X102424538Y-78532977D01*
X102425536Y-78463115D01*
X102464147Y-78404882D01*
X102524605Y-78377273D01*
X102622127Y-78361827D01*
X102622128Y-78361827D01*
X102795843Y-78305383D01*
X102958582Y-78222462D01*
X103106351Y-78115100D01*
X103106352Y-78115100D01*
X103235500Y-77985952D01*
X103235500Y-77985951D01*
X103342862Y-77838182D01*
X103425783Y-77675441D01*
X103482227Y-77501728D01*
X103485668Y-77480000D01*
X102014737Y-77480000D01*
X102015201Y-77479536D01*
X102068705Y-77386865D01*
X102096400Y-77283504D01*
X102096400Y-77176496D01*
X102068705Y-77073135D01*
X102015201Y-76980464D01*
X102014737Y-76980000D01*
X103485668Y-76980000D01*
X103485668Y-76979999D01*
X103482227Y-76958271D01*
X103425783Y-76784558D01*
X103342862Y-76621817D01*
X103235500Y-76474048D01*
X103235500Y-76474047D01*
X103106352Y-76344899D01*
X102958582Y-76237537D01*
X102795843Y-76154616D01*
X102622129Y-76098173D01*
X102524603Y-76082726D01*
X102461469Y-76052796D01*
X102424538Y-75993485D01*
X102425536Y-75923622D01*
X102464146Y-75865390D01*
X102524604Y-75837780D01*
X102556399Y-75832743D01*
X102622245Y-75822315D01*
X102796031Y-75765848D01*
X102958844Y-75682891D01*
X103106676Y-75575485D01*
X103235885Y-75446276D01*
X103343291Y-75298444D01*
X103426248Y-75135631D01*
X103482715Y-74961845D01*
X103503610Y-74829921D01*
X103511300Y-74781370D01*
X103511300Y-74598629D01*
X107488700Y-74598629D01*
X107488700Y-74781370D01*
X107517284Y-74961841D01*
X107517285Y-74961845D01*
X107573752Y-75135631D01*
X107656709Y-75298444D01*
X107764115Y-75446276D01*
X107893324Y-75575485D01*
X108041156Y-75682891D01*
X108203969Y-75765848D01*
X108377755Y-75822315D01*
X108421812Y-75829293D01*
X108473797Y-75837527D01*
X108536932Y-75867456D01*
X108573863Y-75926768D01*
X108572865Y-75996631D01*
X108534255Y-76054863D01*
X108473797Y-76082473D01*
X108377758Y-76097684D01*
X108203966Y-76154153D01*
X108041155Y-76237109D01*
X107893321Y-76344517D01*
X107764117Y-76473721D01*
X107656709Y-76621555D01*
X107573753Y-76784366D01*
X107517284Y-76958158D01*
X107488700Y-77138629D01*
X107488700Y-77321370D01*
X107513825Y-77480000D01*
X107517285Y-77501845D01*
X107573752Y-77675631D01*
X107656709Y-77838444D01*
X107764115Y-77986276D01*
X107893324Y-78115485D01*
X108041156Y-78222891D01*
X108203969Y-78305848D01*
X108377755Y-78362315D01*
X108421812Y-78369293D01*
X108473797Y-78377527D01*
X108536932Y-78407456D01*
X108573863Y-78466768D01*
X108572865Y-78536631D01*
X108534255Y-78594863D01*
X108473797Y-78622473D01*
X108377758Y-78637684D01*
X108203966Y-78694153D01*
X108041155Y-78777109D01*
X107893321Y-78884517D01*
X107764117Y-79013721D01*
X107656709Y-79161555D01*
X107573753Y-79324366D01*
X107517284Y-79498158D01*
X107488700Y-79678629D01*
X107488700Y-79861370D01*
X107512143Y-80009381D01*
X107517285Y-80041845D01*
X107573752Y-80215631D01*
X107656709Y-80378444D01*
X107764115Y-80526276D01*
X107893324Y-80655485D01*
X108041156Y-80762891D01*
X108203969Y-80845848D01*
X108377755Y-80902315D01*
X108421812Y-80909293D01*
X108473797Y-80917527D01*
X108536932Y-80947456D01*
X108573863Y-81006768D01*
X108572865Y-81076631D01*
X108534255Y-81134863D01*
X108473797Y-81162473D01*
X108377758Y-81177684D01*
X108203966Y-81234153D01*
X108041155Y-81317109D01*
X107893321Y-81424517D01*
X107764117Y-81553721D01*
X107656709Y-81701555D01*
X107573753Y-81864366D01*
X107517284Y-82038158D01*
X107488700Y-82218629D01*
X107488700Y-82401370D01*
X107513825Y-82560000D01*
X107517285Y-82581845D01*
X107573752Y-82755631D01*
X107656709Y-82918444D01*
X107764115Y-83066276D01*
X107893324Y-83195485D01*
X108041156Y-83302891D01*
X108203969Y-83385848D01*
X108377755Y-83442315D01*
X108445435Y-83453034D01*
X108558230Y-83470900D01*
X108558235Y-83470900D01*
X110061770Y-83470900D01*
X110162031Y-83455019D01*
X110242245Y-83442315D01*
X110416031Y-83385848D01*
X110578844Y-83302891D01*
X110726676Y-83195485D01*
X110855885Y-83066276D01*
X110963291Y-82918444D01*
X111046248Y-82755631D01*
X111102715Y-82581845D01*
X111120926Y-82466865D01*
X111131300Y-82401370D01*
X111131300Y-82218629D01*
X111106175Y-82060000D01*
X111102715Y-82038155D01*
X111046248Y-81864369D01*
X110963291Y-81701556D01*
X110855885Y-81553724D01*
X110726676Y-81424515D01*
X110578844Y-81317109D01*
X110416031Y-81234152D01*
X110242245Y-81177685D01*
X110242243Y-81177684D01*
X110242241Y-81177684D01*
X110146202Y-81162473D01*
X110083067Y-81132544D01*
X110046136Y-81073232D01*
X110047134Y-81003370D01*
X110085744Y-80945137D01*
X110146202Y-80917527D01*
X110183501Y-80911619D01*
X110242245Y-80902315D01*
X110416031Y-80845848D01*
X110578844Y-80762891D01*
X110726676Y-80655485D01*
X110855885Y-80526276D01*
X110963291Y-80378444D01*
X111046248Y-80215631D01*
X111102715Y-80041845D01*
X111115930Y-79958408D01*
X111131300Y-79861370D01*
X111131300Y-79678629D01*
X111102715Y-79498158D01*
X111102715Y-79498155D01*
X111046248Y-79324369D01*
X110963291Y-79161556D01*
X110855885Y-79013724D01*
X110726676Y-78884515D01*
X110578844Y-78777109D01*
X110416031Y-78694152D01*
X110242245Y-78637685D01*
X110242243Y-78637684D01*
X110242241Y-78637684D01*
X110146202Y-78622473D01*
X110083067Y-78592544D01*
X110046136Y-78533232D01*
X110047134Y-78463370D01*
X110085744Y-78405137D01*
X110146202Y-78377527D01*
X110183501Y-78371619D01*
X110242245Y-78362315D01*
X110416031Y-78305848D01*
X110578844Y-78222891D01*
X110726676Y-78115485D01*
X110855885Y-77986276D01*
X110963291Y-77838444D01*
X111046248Y-77675631D01*
X111102715Y-77501845D01*
X111120926Y-77386865D01*
X111131300Y-77321370D01*
X111131300Y-77138629D01*
X111106175Y-76980000D01*
X111102715Y-76958155D01*
X111046248Y-76784369D01*
X110963291Y-76621556D01*
X110855885Y-76473724D01*
X110726676Y-76344515D01*
X110578844Y-76237109D01*
X110416031Y-76154152D01*
X110242245Y-76097685D01*
X110242243Y-76097684D01*
X110242241Y-76097684D01*
X110146202Y-76082473D01*
X110083067Y-76052544D01*
X110046136Y-75993232D01*
X110047134Y-75923370D01*
X110085744Y-75865137D01*
X110146202Y-75837527D01*
X110183501Y-75831619D01*
X110242245Y-75822315D01*
X110416031Y-75765848D01*
X110578844Y-75682891D01*
X110726676Y-75575485D01*
X110855885Y-75446276D01*
X110963291Y-75298444D01*
X111046248Y-75135631D01*
X111102715Y-74961845D01*
X111123610Y-74829921D01*
X111131300Y-74781370D01*
X111131300Y-74598629D01*
X111102715Y-74418158D01*
X111102715Y-74418155D01*
X111046248Y-74244369D01*
X110963291Y-74081556D01*
X110855885Y-73933724D01*
X110726676Y-73804515D01*
X110578844Y-73697109D01*
X110416031Y-73614152D01*
X110242245Y-73557685D01*
X110242243Y-73557684D01*
X110242241Y-73557684D01*
X110061770Y-73529100D01*
X110061765Y-73529100D01*
X108558235Y-73529100D01*
X108558230Y-73529100D01*
X108377758Y-73557684D01*
X108203966Y-73614153D01*
X108041155Y-73697109D01*
X107893321Y-73804517D01*
X107764117Y-73933721D01*
X107656709Y-74081555D01*
X107573753Y-74244366D01*
X107517284Y-74418158D01*
X107488700Y-74598629D01*
X103511300Y-74598629D01*
X103482715Y-74418158D01*
X103482715Y-74418155D01*
X103426248Y-74244369D01*
X103343291Y-74081556D01*
X103235885Y-73933724D01*
X103106676Y-73804515D01*
X102958844Y-73697109D01*
X102796031Y-73614152D01*
X102622245Y-73557685D01*
X102622243Y-73557684D01*
X102622241Y-73557684D01*
X102441770Y-73529100D01*
X102441765Y-73529100D01*
X100938235Y-73529100D01*
X100938230Y-73529100D01*
X100757758Y-73557684D01*
X100583966Y-73614153D01*
X100421155Y-73697109D01*
X100273321Y-73804517D01*
X100144117Y-73933721D01*
X100036709Y-74081555D01*
X99953753Y-74244366D01*
X99897284Y-74418158D01*
X99868700Y-74598629D01*
X96609883Y-74598629D01*
X96604287Y-74587008D01*
X96604284Y-74587003D01*
X96460838Y-74358711D01*
X96292734Y-74147915D01*
X96102085Y-73957266D01*
X96072560Y-73933721D01*
X96022442Y-73893753D01*
X95891289Y-73789162D01*
X95662997Y-73645716D01*
X95662994Y-73645714D01*
X95420082Y-73528734D01*
X95165602Y-73439687D01*
X95165594Y-73439684D01*
X94998814Y-73401618D01*
X94969339Y-73394890D01*
X94908362Y-73360782D01*
X94875504Y-73299121D01*
X94881199Y-73229484D01*
X94923639Y-73173980D01*
X94989349Y-73150232D01*
X94996933Y-73150000D01*
X95704706Y-73150000D01*
X95704719Y-73149999D01*
X95837906Y-73139517D01*
X95837912Y-73139516D01*
X96057829Y-73084101D01*
X96057832Y-73084100D01*
X96264330Y-72990304D01*
X96264336Y-72990301D01*
X96450758Y-72861148D01*
X96450770Y-72861138D01*
X96606739Y-72705170D01*
X96611138Y-72700770D01*
X96611148Y-72700758D01*
X96740301Y-72514336D01*
X96740304Y-72514330D01*
X96834100Y-72307832D01*
X96834101Y-72307829D01*
X96889516Y-72087912D01*
X96889517Y-72087906D01*
X96899999Y-71954719D01*
X96900000Y-71954706D01*
X96900000Y-71000000D01*
X95827231Y-71000000D01*
X95850000Y-70856247D01*
X95850000Y-70643753D01*
X95827231Y-70500000D01*
X96900000Y-70500000D01*
X96900000Y-69599982D01*
X98739500Y-69599982D01*
X98739500Y-71400017D01*
X98750000Y-71502796D01*
X98785684Y-71610482D01*
X98805186Y-71669335D01*
X98897288Y-71818656D01*
X99021344Y-71942712D01*
X99170665Y-72034814D01*
X99337202Y-72089999D01*
X99439990Y-72100500D01*
X99439995Y-72100500D01*
X101240005Y-72100500D01*
X101240010Y-72100500D01*
X101342798Y-72089999D01*
X101509335Y-72034814D01*
X101658656Y-71942712D01*
X101782712Y-71818656D01*
X101874814Y-71669335D01*
X101929999Y-71502798D01*
X101940500Y-71400010D01*
X101940500Y-70374038D01*
X108899500Y-70374038D01*
X108899500Y-70625961D01*
X108938910Y-70874785D01*
X109016760Y-71114383D01*
X109131132Y-71338848D01*
X109279201Y-71542649D01*
X109279205Y-71542654D01*
X109457345Y-71720794D01*
X109457350Y-71720798D01*
X109635117Y-71849952D01*
X109661155Y-71868870D01*
X109804184Y-71941747D01*
X109885616Y-71983239D01*
X109885618Y-71983239D01*
X109885621Y-71983241D01*
X110125215Y-72061090D01*
X110374038Y-72100500D01*
X110374039Y-72100500D01*
X110625961Y-72100500D01*
X110625962Y-72100500D01*
X110874785Y-72061090D01*
X111114379Y-71983241D01*
X111338845Y-71868870D01*
X111542656Y-71720793D01*
X111720793Y-71542656D01*
X111868870Y-71338845D01*
X111983241Y-71114379D01*
X112061090Y-70874785D01*
X112100500Y-70625962D01*
X112100500Y-70374038D01*
X112061090Y-70125215D01*
X111983241Y-69885621D01*
X111983239Y-69885618D01*
X111983239Y-69885616D01*
X111941747Y-69804184D01*
X111868870Y-69661155D01*
X111784682Y-69545280D01*
X111720798Y-69457350D01*
X111720794Y-69457345D01*
X111542654Y-69279205D01*
X111542649Y-69279201D01*
X111338848Y-69131132D01*
X111338847Y-69131131D01*
X111338845Y-69131130D01*
X111268747Y-69095413D01*
X111114383Y-69016760D01*
X110874785Y-68938910D01*
X110625962Y-68899500D01*
X110374038Y-68899500D01*
X110307738Y-68910001D01*
X110125214Y-68938910D01*
X109885616Y-69016760D01*
X109661151Y-69131132D01*
X109457350Y-69279201D01*
X109457345Y-69279205D01*
X109279205Y-69457345D01*
X109279201Y-69457350D01*
X109131132Y-69661151D01*
X109016760Y-69885616D01*
X108938910Y-70125214D01*
X108899500Y-70374038D01*
X101940500Y-70374038D01*
X101940500Y-69599990D01*
X101929999Y-69497202D01*
X101874814Y-69330665D01*
X101782712Y-69181344D01*
X101658656Y-69057288D01*
X101542543Y-68985669D01*
X101509337Y-68965187D01*
X101509332Y-68965185D01*
X101507863Y-68964698D01*
X101342798Y-68910001D01*
X101342796Y-68910000D01*
X101240017Y-68899500D01*
X101240010Y-68899500D01*
X99439990Y-68899500D01*
X99439982Y-68899500D01*
X99337203Y-68910000D01*
X99337202Y-68910001D01*
X99254669Y-68937349D01*
X99170667Y-68965185D01*
X99170662Y-68965187D01*
X99021342Y-69057289D01*
X98897289Y-69181342D01*
X98805187Y-69330662D01*
X98805186Y-69330665D01*
X98750001Y-69497202D01*
X98750001Y-69497203D01*
X98750000Y-69497203D01*
X98739500Y-69599982D01*
X96900000Y-69599982D01*
X96900000Y-69545293D01*
X96899999Y-69545280D01*
X96889517Y-69412093D01*
X96889516Y-69412087D01*
X96834101Y-69192170D01*
X96834100Y-69192167D01*
X96740304Y-68985669D01*
X96740301Y-68985663D01*
X96611148Y-68799241D01*
X96611138Y-68799229D01*
X96450770Y-68638861D01*
X96450758Y-68638851D01*
X96264336Y-68509698D01*
X96264330Y-68509695D01*
X96057832Y-68415899D01*
X96057829Y-68415898D01*
X95837912Y-68360483D01*
X95837906Y-68360482D01*
X95704719Y-68350000D01*
X94750000Y-68350000D01*
X94750000Y-69422768D01*
X94606247Y-69400000D01*
X94393753Y-69400000D01*
X94250000Y-69422768D01*
X94250000Y-68350000D01*
X93295280Y-68350000D01*
X93162093Y-68360482D01*
X93162087Y-68360483D01*
X92942170Y-68415898D01*
X92942167Y-68415899D01*
X92735669Y-68509695D01*
X92735663Y-68509698D01*
X92549241Y-68638851D01*
X92549229Y-68638861D01*
X92388861Y-68799229D01*
X92388851Y-68799241D01*
X92259698Y-68985663D01*
X92259695Y-68985669D01*
X92165899Y-69192167D01*
X92165898Y-69192170D01*
X92110483Y-69412087D01*
X92110482Y-69412093D01*
X92100000Y-69545280D01*
X92100000Y-70500000D01*
X93172769Y-70500000D01*
X93150000Y-70643753D01*
X93150000Y-70856247D01*
X93172769Y-71000000D01*
X92100000Y-71000000D01*
X92100000Y-71954719D01*
X92110482Y-72087906D01*
X92110483Y-72087912D01*
X92165898Y-72307829D01*
X92165899Y-72307832D01*
X92259695Y-72514330D01*
X92259698Y-72514336D01*
X92388851Y-72700758D01*
X92388861Y-72700770D01*
X92549229Y-72861138D01*
X92549241Y-72861148D01*
X92735663Y-72990301D01*
X92735669Y-72990304D01*
X92942167Y-73084100D01*
X92942170Y-73084101D01*
X93162087Y-73139516D01*
X93162093Y-73139517D01*
X93295280Y-73149999D01*
X93295294Y-73150000D01*
X94003067Y-73150000D01*
X94070106Y-73169685D01*
X94115861Y-73222489D01*
X94125805Y-73291647D01*
X94096780Y-73355203D01*
X94038002Y-73392977D01*
X94030663Y-73394890D01*
X94007691Y-73400133D01*
X93834405Y-73439684D01*
X93834397Y-73439687D01*
X93579917Y-73528734D01*
X93337005Y-73645714D01*
X93108712Y-73789161D01*
X92897915Y-73957265D01*
X92707265Y-74147915D01*
X92539161Y-74358712D01*
X92395714Y-74587005D01*
X92278734Y-74829917D01*
X92189687Y-75084397D01*
X92189684Y-75084405D01*
X92129688Y-75347268D01*
X92129686Y-75347280D01*
X92099500Y-75615186D01*
X86500000Y-75615186D01*
X86500000Y-67124000D01*
X86519685Y-67056961D01*
X86572489Y-67011206D01*
X86624000Y-67000000D01*
X120376000Y-67000000D01*
X120443039Y-67019685D01*
G37*
%TD.AperFunction*%
%TD*%
%TA.AperFunction,Conductor*%
%TO.N,GND*%
G36*
X117500000Y-89875500D02*
G01*
X117480315Y-89942539D01*
X117427511Y-89988294D01*
X117376000Y-89999500D01*
X90124000Y-89999500D01*
X90056961Y-89979815D01*
X90011206Y-89927011D01*
X90000000Y-89875500D01*
X90000000Y-84500000D01*
X117500000Y-84500000D01*
X117500000Y-89875500D01*
G37*
%TD.AperFunction*%
%TD*%
M02*
