M48
; DRILL file {KiCad 9.0.4} date 2025-09-25T14:49:47-0500
; FORMAT={-:-/ absolute / inch / decimal}
; #@! TF.CreationDate,2025-09-25T14:49:47-05:00
; #@! TF.GenerationSoftware,Kicad,Pcbnew,9.0.4
; #@! TF.FileFunction,Plated,1,2,PTH
FMAT,2
INCH
; #@! TA.AperFunction,Plated,PTH,ViaDrill
T1C0.0118
; #@! TA.AperFunction,Plated,PTH,ComponentDrill
T2C0.0276
; #@! TA.AperFunction,Plated,PTH,ComponentDrill
T3C0.0315
; #@! TA.AperFunction,Plated,PTH,ComponentDrill
T4C0.1063
%
G90
G05
T1
X2.0197Y-1.8465
X2.0197Y-1.874
X2.063Y-1.9173
X2.063Y-2.0354
X2.0984Y-1.9173
X2.3504Y-1.874
X2.3504Y-1.9213
X2.3504Y-1.9685
X2.3504Y-2.0197
X2.5354Y-2.0315
X2.5669Y-2.0591
X2.6102Y-2.0591
X2.6378Y-2.0315
T2
X2.3858Y-1.2992
X2.4646Y-1.2992
X2.6063Y-1.2992
X2.6063Y-1.378
T3
X1.9961Y-1.441
X1.9961Y-1.6379
T4
X1.6969Y-1.6969
X1.6969Y-1.8937
X2.7992Y-1.4921
X2.7992Y-1.689
M30
