%TF.GenerationSoftware,KiCad,Pcbnew,9.0.4*%
%TF.CreationDate,2026-01-28T15:19:22-06:00*%
%TF.ProjectId,Onboarding,4f6e626f-6172-4646-996e-672e6b696361,rev?*%
%TF.SameCoordinates,Original*%
%TF.FileFunction,Soldermask,Top*%
%TF.FilePolarity,Negative*%
%FSLAX46Y46*%
G04 Gerber Fmt 4.6, Leading zero omitted, Abs format (unit mm)*
G04 Created by KiCad (PCBNEW 9.0.4) date 2026-01-28 15:19:22*
%MOMM*%
%LPD*%
G01*
G04 APERTURE LIST*
G04 Aperture macros list*
%AMRoundRect*
0 Rectangle with rounded corners*
0 $1 Rounding radius*
0 $2 $3 $4 $5 $6 $7 $8 $9 X,Y pos of 4 corners*
0 Add a 4 corners polygon primitive as box body*
4,1,4,$2,$3,$4,$5,$6,$7,$8,$9,$2,$3,0*
0 Add four circle primitives for the rounded corners*
1,1,$1+$1,$2,$3*
1,1,$1+$1,$4,$5*
1,1,$1+$1,$6,$7*
1,1,$1+$1,$8,$9*
0 Add four rect primitives between the rounded corners*
20,1,$1+$1,$2,$3,$4,$5,0*
20,1,$1+$1,$4,$5,$6,$7,0*
20,1,$1+$1,$6,$7,$8,$9,0*
20,1,$1+$1,$8,$9,$2,$3,0*%
G04 Aperture macros list end*
%ADD10RoundRect,0.250000X-0.250000X-0.475000X0.250000X-0.475000X0.250000X0.475000X-0.250000X0.475000X0*%
%ADD11RoundRect,0.760000X1.140000X1.140000X-1.140000X1.140000X-1.140000X-1.140000X1.140000X-1.140000X0*%
%ADD12C,3.800000*%
%ADD13RoundRect,0.237500X-0.250000X-0.237500X0.250000X-0.237500X0.250000X0.237500X-0.250000X0.237500X0*%
%ADD14R,10.160000X1.520000*%
%ADD15RoundRect,0.250000X0.550000X0.550000X-0.550000X0.550000X-0.550000X-0.550000X0.550000X-0.550000X0*%
%ADD16C,1.600000*%
%ADD17RoundRect,0.760000X-1.140000X-1.140000X1.140000X-1.140000X1.140000X1.140000X-1.140000X1.140000X0*%
%ADD18C,4.000000*%
%ADD19RoundRect,0.150000X-0.150000X-0.700000X0.150000X-0.700000X0.150000X0.700000X-0.150000X0.700000X0*%
%ADD20RoundRect,0.250000X-0.250000X-1.150000X0.250000X-1.150000X0.250000X1.150000X-0.250000X1.150000X0*%
%ADD21RoundRect,0.250000X-0.450000X0.350000X-0.450000X-0.350000X0.450000X-0.350000X0.450000X0.350000X0*%
%ADD22RoundRect,0.250000X0.300000X-0.300000X0.300000X0.300000X-0.300000X0.300000X-0.300000X-0.300000X0*%
%ADD23C,1.400000*%
%ADD24RoundRect,0.150000X0.150000X-0.825000X0.150000X0.825000X-0.150000X0.825000X-0.150000X-0.825000X0*%
%ADD25RoundRect,0.237500X-0.300000X-0.237500X0.300000X-0.237500X0.300000X0.237500X-0.300000X0.237500X0*%
G04 APERTURE END LIST*
D10*
%TO.C,C1*%
X158300000Y-87000000D03*
X160200000Y-87000000D03*
%TD*%
D11*
%TO.C,J2*%
X155750000Y-111000000D03*
D12*
X150750000Y-111000000D03*
%TD*%
D13*
%TO.C,R2*%
X150337500Y-105000000D03*
X152162500Y-105000000D03*
%TD*%
D14*
%TO.C,L1*%
X143250000Y-97025000D03*
X143250000Y-87885000D03*
%TD*%
D15*
%TO.C,C2*%
X145250000Y-107500000D03*
D16*
X140250000Y-107500000D03*
%TD*%
D17*
%TO.C,J1*%
X149750000Y-81750000D03*
D18*
X154750000Y-81750000D03*
%TD*%
D19*
%TO.C,J3*%
X160000000Y-99000000D03*
X161250000Y-99000000D03*
D20*
X158150000Y-95650000D03*
X163100000Y-95650000D03*
%TD*%
D21*
%TO.C,R1*%
X152250000Y-86750000D03*
X152250000Y-88750000D03*
%TD*%
D19*
%TO.C,J4*%
X160000000Y-106000000D03*
X161250000Y-106000000D03*
D20*
X158150000Y-102650000D03*
X163100000Y-102650000D03*
%TD*%
D22*
%TO.C,D1*%
X147750000Y-102900000D03*
X147750000Y-100100000D03*
%TD*%
D23*
%TO.C,TP2*%
X142750000Y-100455000D03*
X140750000Y-100455000D03*
%TD*%
D13*
%TO.C,R3*%
X154175000Y-87000000D03*
X156000000Y-87000000D03*
%TD*%
D24*
%TO.C,U1*%
X152095000Y-95975000D03*
X153365000Y-95975000D03*
X154635000Y-95975000D03*
X155905000Y-95975000D03*
X155905000Y-91025000D03*
X154635000Y-91025000D03*
X153365000Y-91025000D03*
X152095000Y-91025000D03*
%TD*%
D25*
%TO.C,C3*%
X153525000Y-99000000D03*
X155250000Y-99000000D03*
%TD*%
D23*
%TO.C,TP1*%
X143250000Y-84455000D03*
X141250000Y-84455000D03*
%TD*%
D13*
%TO.C,R4*%
X158425000Y-90500000D03*
X160250000Y-90500000D03*
%TD*%
M02*
