%TF.GenerationSoftware,KiCad,Pcbnew,9.0.4*%
%TF.CreationDate,2025-10-05T15:56:56-05:00*%
%TF.ProjectId,Onboarding,4f6e626f-6172-4646-996e-672e6b696361,rev?*%
%TF.SameCoordinates,Original*%
%TF.FileFunction,Copper,L2,Bot*%
%TF.FilePolarity,Positive*%
%FSLAX46Y46*%
G04 Gerber Fmt 4.6, Leading zero omitted, Abs format (unit mm)*
G04 Created by KiCad (PCBNEW 9.0.4) date 2025-10-05 15:56:56*
%MOMM*%
%LPD*%
G01*
G04 APERTURE LIST*
G04 Aperture macros list*
%AMRoundRect*
0 Rectangle with rounded corners*
0 $1 Rounding radius*
0 $2 $3 $4 $5 $6 $7 $8 $9 X,Y pos of 4 corners*
0 Add a 4 corners polygon primitive as box body*
4,1,4,$2,$3,$4,$5,$6,$7,$8,$9,$2,$3,0*
0 Add four circle primitives for the rounded corners*
1,1,$1+$1,$2,$3*
1,1,$1+$1,$4,$5*
1,1,$1+$1,$6,$7*
1,1,$1+$1,$8,$9*
0 Add four rect primitives between the rounded corners*
20,1,$1+$1,$2,$3,$4,$5,0*
20,1,$1+$1,$4,$5,$6,$7,0*
20,1,$1+$1,$6,$7,$8,$9,0*
20,1,$1+$1,$8,$9,$2,$3,0*%
G04 Aperture macros list end*
%TA.AperFunction,ComponentPad*%
%ADD10RoundRect,0.760000X1.140000X1.140000X-1.140000X1.140000X-1.140000X-1.140000X1.140000X-1.140000X0*%
%TD*%
%TA.AperFunction,ComponentPad*%
%ADD11C,4.000000*%
%TD*%
%TA.AperFunction,ComponentPad*%
%ADD12RoundRect,0.250000X-0.550000X0.550000X-0.550000X-0.550000X0.550000X-0.550000X0.550000X0.550000X0*%
%TD*%
%TA.AperFunction,ComponentPad*%
%ADD13C,1.600000*%
%TD*%
%TA.AperFunction,ComponentPad*%
%ADD14C,1.400000*%
%TD*%
%TA.AperFunction,ComponentPad*%
%ADD15RoundRect,0.760000X1.140000X-1.140000X1.140000X1.140000X-1.140000X1.140000X-1.140000X-1.140000X0*%
%TD*%
%TA.AperFunction,ComponentPad*%
%ADD16C,3.800000*%
%TD*%
%TA.AperFunction,SMDPad,CuDef*%
%ADD17RoundRect,0.237500X-0.237500X0.300000X-0.237500X-0.300000X0.237500X-0.300000X0.237500X0.300000X0*%
%TD*%
%TA.AperFunction,SMDPad,CuDef*%
%ADD18RoundRect,0.237500X-0.250000X-0.237500X0.250000X-0.237500X0.250000X0.237500X-0.250000X0.237500X0*%
%TD*%
%TA.AperFunction,SMDPad,CuDef*%
%ADD19RoundRect,0.237500X-0.237500X0.250000X-0.237500X-0.250000X0.237500X-0.250000X0.237500X0.250000X0*%
%TD*%
%TA.AperFunction,ViaPad*%
%ADD20C,0.600000*%
%TD*%
%TA.AperFunction,Conductor*%
%ADD21C,0.200000*%
%TD*%
G04 APERTURE END LIST*
D10*
%TO.P,J4,1,Pin_1*%
%TO.N,GND*%
X144000000Y-135000000D03*
D11*
%TO.P,J4,2,Pin_2*%
%TO.N,+12V*%
X139000000Y-135000000D03*
%TD*%
D12*
%TO.P,C3,1*%
%TO.N,VCC*%
X128500000Y-132597349D03*
D13*
%TO.P,C3,2*%
%TO.N,GND*%
X128500000Y-137597349D03*
%TD*%
D14*
%TO.P,TP1,1,1*%
%TO.N,Net-(U1-I_{PK})*%
X141500000Y-119000000D03*
X143500000Y-119000000D03*
%TD*%
%TO.P,TP2,1,1*%
%TO.N,Net-(D1-A)*%
X129500000Y-120000000D03*
X129500000Y-118000000D03*
%TD*%
D15*
%TO.P,J3,1,Pin_1*%
%TO.N,GND*%
X122500000Y-130000000D03*
D16*
%TO.P,J3,2,Pin_2*%
%TO.N,VCC*%
X122500000Y-125000000D03*
%TD*%
D17*
%TO.P,C2,1*%
%TO.N,Net-(U1-CT)*%
X133500000Y-128137500D03*
%TO.P,C2,2*%
%TO.N,GND*%
X133500000Y-129862500D03*
%TD*%
D18*
%TO.P,R3,1*%
%TO.N,VCC*%
X132587500Y-125500000D03*
%TO.P,R3,2*%
%TO.N,Net-(U1-COMP-)*%
X134412500Y-125500000D03*
%TD*%
D19*
%TO.P,R4,1*%
%TO.N,Net-(U1-COMP-)*%
X136000000Y-129175000D03*
%TO.P,R4,2*%
%TO.N,GND*%
X136000000Y-131000000D03*
%TD*%
D20*
%TO.N,GND*%
X133525000Y-126865000D03*
X133525000Y-129405000D03*
X142950000Y-130500000D03*
X142950000Y-130500000D03*
%TO.N,Net-(U1-CT)*%
X133525000Y-128135000D03*
%TO.N,VCC*%
X129500000Y-125500000D03*
X131000000Y-125500000D03*
%TO.N,Net-(U1-COMP-)*%
X138475000Y-129405000D03*
%TD*%
D21*
%TO.N,VCC*%
X131000000Y-125500000D02*
X132587500Y-125500000D01*
%TO.N,Net-(U1-COMP-)*%
X134412500Y-125500000D02*
X134412500Y-127587500D01*
X136230000Y-129405000D02*
X136000000Y-129175000D01*
X138475000Y-129405000D02*
X136230000Y-129405000D01*
X134412500Y-127587500D02*
X136000000Y-129175000D01*
%TD*%
%TA.AperFunction,Conductor*%
%TO.N,GND*%
G36*
X153942539Y-105020185D02*
G01*
X153988294Y-105072989D01*
X153999500Y-105124500D01*
X153999500Y-144375500D01*
X153979815Y-144442539D01*
X153927011Y-144488294D01*
X153875500Y-144499500D01*
X119124500Y-144499500D01*
X119057461Y-144479815D01*
X119011706Y-144427011D01*
X119000500Y-144375500D01*
X119000500Y-139393713D01*
X120149500Y-139393713D01*
X120149500Y-139606286D01*
X120182753Y-139816239D01*
X120248444Y-140018414D01*
X120344951Y-140207820D01*
X120469890Y-140379786D01*
X120620213Y-140530109D01*
X120792179Y-140655048D01*
X120792181Y-140655049D01*
X120792184Y-140655051D01*
X120981588Y-140751557D01*
X121183757Y-140817246D01*
X121393713Y-140850500D01*
X121393714Y-140850500D01*
X121606286Y-140850500D01*
X121606287Y-140850500D01*
X121816243Y-140817246D01*
X122018412Y-140751557D01*
X122207816Y-140655051D01*
X122229789Y-140639086D01*
X122379786Y-140530109D01*
X122379788Y-140530106D01*
X122379792Y-140530104D01*
X122530104Y-140379792D01*
X122530106Y-140379788D01*
X122530109Y-140379786D01*
X122655048Y-140207820D01*
X122655047Y-140207820D01*
X122655051Y-140207816D01*
X122751557Y-140018412D01*
X122817246Y-139816243D01*
X122850500Y-139606287D01*
X122850500Y-139393713D01*
X150149500Y-139393713D01*
X150149500Y-139606286D01*
X150182753Y-139816239D01*
X150248444Y-140018414D01*
X150344951Y-140207820D01*
X150469890Y-140379786D01*
X150620213Y-140530109D01*
X150792179Y-140655048D01*
X150792181Y-140655049D01*
X150792184Y-140655051D01*
X150981588Y-140751557D01*
X151183757Y-140817246D01*
X151393713Y-140850500D01*
X151393714Y-140850500D01*
X151606286Y-140850500D01*
X151606287Y-140850500D01*
X151816243Y-140817246D01*
X152018412Y-140751557D01*
X152207816Y-140655051D01*
X152229789Y-140639086D01*
X152379786Y-140530109D01*
X152379788Y-140530106D01*
X152379792Y-140530104D01*
X152530104Y-140379792D01*
X152530106Y-140379788D01*
X152530109Y-140379786D01*
X152655048Y-140207820D01*
X152655047Y-140207820D01*
X152655051Y-140207816D01*
X152751557Y-140018412D01*
X152817246Y-139816243D01*
X152850500Y-139606287D01*
X152850500Y-139393713D01*
X152817246Y-139183757D01*
X152751557Y-138981588D01*
X152655051Y-138792184D01*
X152655049Y-138792181D01*
X152655048Y-138792179D01*
X152530109Y-138620213D01*
X152379786Y-138469890D01*
X152207820Y-138344951D01*
X152018414Y-138248444D01*
X152018413Y-138248443D01*
X152018412Y-138248443D01*
X151816243Y-138182754D01*
X151816241Y-138182753D01*
X151816240Y-138182753D01*
X151654957Y-138157208D01*
X151606287Y-138149500D01*
X151393713Y-138149500D01*
X151345042Y-138157208D01*
X151183760Y-138182753D01*
X150981585Y-138248444D01*
X150792179Y-138344951D01*
X150620213Y-138469890D01*
X150469890Y-138620213D01*
X150344951Y-138792179D01*
X150248444Y-138981585D01*
X150182753Y-139183760D01*
X150149500Y-139393713D01*
X122850500Y-139393713D01*
X122817246Y-139183757D01*
X122751557Y-138981588D01*
X122655051Y-138792184D01*
X122655049Y-138792181D01*
X122655048Y-138792179D01*
X122530109Y-138620213D01*
X122379786Y-138469890D01*
X122207820Y-138344951D01*
X122018414Y-138248444D01*
X122018413Y-138248443D01*
X122018412Y-138248443D01*
X121816243Y-138182754D01*
X121816241Y-138182753D01*
X121816240Y-138182753D01*
X121654957Y-138157208D01*
X121606287Y-138149500D01*
X121393713Y-138149500D01*
X121345042Y-138157208D01*
X121183760Y-138182753D01*
X120981585Y-138248444D01*
X120792179Y-138344951D01*
X120620213Y-138469890D01*
X120469890Y-138620213D01*
X120344951Y-138792179D01*
X120248444Y-138981585D01*
X120182753Y-139183760D01*
X120149500Y-139393713D01*
X119000500Y-139393713D01*
X119000500Y-134859568D01*
X136499500Y-134859568D01*
X136499500Y-135140431D01*
X136530942Y-135419494D01*
X136530945Y-135419512D01*
X136593439Y-135693317D01*
X136593443Y-135693329D01*
X136686200Y-135958411D01*
X136808053Y-136211442D01*
X136808055Y-136211445D01*
X136957477Y-136449248D01*
X137132584Y-136668825D01*
X137331175Y-136867416D01*
X137550752Y-137042523D01*
X137788555Y-137191945D01*
X138041592Y-137313801D01*
X138240680Y-137383465D01*
X138306670Y-137406556D01*
X138306682Y-137406560D01*
X138580491Y-137469055D01*
X138580497Y-137469055D01*
X138580505Y-137469057D01*
X138766547Y-137490018D01*
X138859569Y-137500499D01*
X138859572Y-137500500D01*
X138859575Y-137500500D01*
X139140428Y-137500500D01*
X139140429Y-137500499D01*
X139283055Y-137484429D01*
X139419494Y-137469057D01*
X139419499Y-137469056D01*
X139419509Y-137469055D01*
X139693318Y-137406560D01*
X139958408Y-137313801D01*
X140211445Y-137191945D01*
X140449248Y-137042523D01*
X140668825Y-136867416D01*
X140867416Y-136668825D01*
X141042523Y-136449248D01*
X141191945Y-136211445D01*
X141313801Y-135958408D01*
X141406560Y-135693318D01*
X141469055Y-135419509D01*
X141500500Y-135140425D01*
X141500500Y-134859575D01*
X141469055Y-134580491D01*
X141406560Y-134306682D01*
X141313801Y-134041592D01*
X141191945Y-133788555D01*
X141042523Y-133550752D01*
X140867416Y-133331175D01*
X140668825Y-133132584D01*
X140449248Y-132957477D01*
X140211445Y-132808055D01*
X140211442Y-132808053D01*
X139958411Y-132686200D01*
X139693329Y-132593443D01*
X139693317Y-132593439D01*
X139419512Y-132530945D01*
X139419494Y-132530942D01*
X139140431Y-132499500D01*
X139140425Y-132499500D01*
X138859575Y-132499500D01*
X138859568Y-132499500D01*
X138580505Y-132530942D01*
X138580487Y-132530945D01*
X138306682Y-132593439D01*
X138306670Y-132593443D01*
X138041588Y-132686200D01*
X137788557Y-132808053D01*
X137550753Y-132957476D01*
X137331175Y-133132583D01*
X137132583Y-133331175D01*
X136957476Y-133550753D01*
X136808053Y-133788557D01*
X136686200Y-134041588D01*
X136593443Y-134306670D01*
X136593439Y-134306682D01*
X136530945Y-134580487D01*
X136530942Y-134580505D01*
X136499500Y-134859568D01*
X119000500Y-134859568D01*
X119000500Y-131997332D01*
X127199500Y-131997332D01*
X127199500Y-133197350D01*
X127199501Y-133197367D01*
X127210000Y-133300145D01*
X127210001Y-133300148D01*
X127265185Y-133466680D01*
X127265186Y-133466683D01*
X127357288Y-133616005D01*
X127481344Y-133740061D01*
X127630666Y-133832163D01*
X127797203Y-133887348D01*
X127899991Y-133897849D01*
X129100008Y-133897848D01*
X129202797Y-133887348D01*
X129369334Y-133832163D01*
X129518656Y-133740061D01*
X129642712Y-133616005D01*
X129734814Y-133466683D01*
X129789999Y-133300146D01*
X129800500Y-133197358D01*
X129800499Y-131997341D01*
X129789999Y-131894552D01*
X129734814Y-131728015D01*
X129642712Y-131578693D01*
X129518656Y-131454637D01*
X129369334Y-131362535D01*
X129202797Y-131307350D01*
X129202795Y-131307349D01*
X129100010Y-131296849D01*
X127899998Y-131296849D01*
X127899981Y-131296850D01*
X127797203Y-131307349D01*
X127797200Y-131307350D01*
X127630668Y-131362534D01*
X127630663Y-131362536D01*
X127481342Y-131454638D01*
X127357289Y-131578691D01*
X127265187Y-131728012D01*
X127265186Y-131728015D01*
X127210001Y-131894552D01*
X127210001Y-131894553D01*
X127210000Y-131894553D01*
X127199500Y-131997332D01*
X119000500Y-131997332D01*
X119000500Y-124865186D01*
X120099500Y-124865186D01*
X120099500Y-125134813D01*
X120129686Y-125402719D01*
X120129687Y-125402728D01*
X120129688Y-125402732D01*
X120133894Y-125421158D01*
X120189684Y-125665594D01*
X120189687Y-125665602D01*
X120278734Y-125920082D01*
X120395714Y-126162994D01*
X120403691Y-126175689D01*
X120539162Y-126391289D01*
X120707266Y-126602085D01*
X120897915Y-126792734D01*
X121108711Y-126960838D01*
X121337003Y-127104284D01*
X121579921Y-127221267D01*
X121768927Y-127287403D01*
X121834397Y-127310312D01*
X121834405Y-127310315D01*
X121834408Y-127310315D01*
X121834409Y-127310316D01*
X122097268Y-127370312D01*
X122365187Y-127400499D01*
X122365188Y-127400500D01*
X122365191Y-127400500D01*
X122634812Y-127400500D01*
X122634812Y-127400499D01*
X122902732Y-127370312D01*
X123165591Y-127310316D01*
X123420079Y-127221267D01*
X123662997Y-127104284D01*
X123891289Y-126960838D01*
X124102085Y-126792734D01*
X124292734Y-126602085D01*
X124460838Y-126391289D01*
X124604284Y-126162997D01*
X124721267Y-125920079D01*
X124810316Y-125665591D01*
X124866108Y-125421153D01*
X128699500Y-125421153D01*
X128699500Y-125578846D01*
X128730261Y-125733489D01*
X128730264Y-125733501D01*
X128790602Y-125879172D01*
X128790609Y-125879185D01*
X128878210Y-126010288D01*
X128878213Y-126010292D01*
X128989707Y-126121786D01*
X128989711Y-126121789D01*
X129120814Y-126209390D01*
X129120827Y-126209397D01*
X129266498Y-126269735D01*
X129266503Y-126269737D01*
X129421153Y-126300499D01*
X129421156Y-126300500D01*
X129421158Y-126300500D01*
X129578844Y-126300500D01*
X129578845Y-126300499D01*
X129733497Y-126269737D01*
X129879179Y-126209394D01*
X130010289Y-126121789D01*
X130121789Y-126010289D01*
X130129145Y-125999279D01*
X130146898Y-125972712D01*
X130200510Y-125927906D01*
X130269835Y-125919199D01*
X130332862Y-125949353D01*
X130353102Y-125972712D01*
X130378207Y-126010284D01*
X130378213Y-126010292D01*
X130489707Y-126121786D01*
X130489711Y-126121789D01*
X130620814Y-126209390D01*
X130620827Y-126209397D01*
X130766498Y-126269735D01*
X130766503Y-126269737D01*
X130921153Y-126300499D01*
X130921156Y-126300500D01*
X130921158Y-126300500D01*
X131078844Y-126300500D01*
X131078845Y-126300499D01*
X131233497Y-126269737D01*
X131379179Y-126209394D01*
X131395706Y-126198351D01*
X131510875Y-126121398D01*
X131528921Y-126115747D01*
X131544831Y-126105523D01*
X131575792Y-126101071D01*
X131577553Y-126100520D01*
X131579766Y-126100500D01*
X131625099Y-126100500D01*
X131692138Y-126120185D01*
X131730638Y-126159404D01*
X131744180Y-126181360D01*
X131754660Y-126198350D01*
X131876650Y-126320340D01*
X132023484Y-126410908D01*
X132187247Y-126465174D01*
X132288323Y-126475500D01*
X132886676Y-126475499D01*
X132886684Y-126475498D01*
X132886687Y-126475498D01*
X132942030Y-126469844D01*
X132987753Y-126465174D01*
X133151516Y-126410908D01*
X133298350Y-126320340D01*
X133412319Y-126206371D01*
X133416438Y-126204121D01*
X133418984Y-126200178D01*
X133446816Y-126187533D01*
X133473642Y-126172886D01*
X133478322Y-126173220D01*
X133482597Y-126171279D01*
X133512846Y-126175689D01*
X133543334Y-126177870D01*
X133548379Y-126180870D01*
X133551735Y-126181360D01*
X133566630Y-126191724D01*
X133581389Y-126200501D01*
X133584634Y-126203324D01*
X133701650Y-126320340D01*
X133761736Y-126357401D01*
X133769389Y-126364059D01*
X133782967Y-126385280D01*
X133799821Y-126404017D01*
X133802500Y-126415807D01*
X133807046Y-126422912D01*
X133807020Y-126435698D01*
X133812000Y-126457610D01*
X133812000Y-126975500D01*
X133792315Y-127042539D01*
X133739511Y-127088294D01*
X133688000Y-127099500D01*
X133213330Y-127099500D01*
X133213312Y-127099501D01*
X133112247Y-127109825D01*
X132948484Y-127164092D01*
X132948481Y-127164093D01*
X132801648Y-127254661D01*
X132679661Y-127376648D01*
X132589093Y-127523481D01*
X132589092Y-127523484D01*
X132534826Y-127687247D01*
X132534826Y-127687248D01*
X132534825Y-127687248D01*
X132524500Y-127788315D01*
X132524500Y-128486669D01*
X132524501Y-128486687D01*
X132534825Y-128587752D01*
X132570564Y-128695602D01*
X132589092Y-128751516D01*
X132679660Y-128898350D01*
X132801650Y-129020340D01*
X132948484Y-129110908D01*
X133112247Y-129165174D01*
X133213323Y-129175500D01*
X133786676Y-129175499D01*
X133786684Y-129175498D01*
X133786687Y-129175498D01*
X133842030Y-129169844D01*
X133887753Y-129165174D01*
X134051516Y-129110908D01*
X134198350Y-129020340D01*
X134320340Y-128898350D01*
X134410908Y-128751516D01*
X134426416Y-128704713D01*
X134466189Y-128647270D01*
X134530705Y-128620447D01*
X134599481Y-128632762D01*
X134631803Y-128656038D01*
X134988181Y-129012416D01*
X135021666Y-129073739D01*
X135024500Y-129100097D01*
X135024500Y-129474169D01*
X135024501Y-129474187D01*
X135034825Y-129575252D01*
X135055780Y-129638489D01*
X135089092Y-129739016D01*
X135179660Y-129885850D01*
X135301650Y-130007840D01*
X135448484Y-130098408D01*
X135612247Y-130152674D01*
X135713323Y-130163000D01*
X136286676Y-130162999D01*
X136286684Y-130162998D01*
X136286687Y-130162998D01*
X136342030Y-130157344D01*
X136387753Y-130152674D01*
X136551516Y-130098408D01*
X136672214Y-130023960D01*
X136737310Y-130005500D01*
X137895234Y-130005500D01*
X137962273Y-130025185D01*
X137964125Y-130026398D01*
X138095814Y-130114390D01*
X138095827Y-130114397D01*
X138213167Y-130163000D01*
X138241503Y-130174737D01*
X138396153Y-130205499D01*
X138396156Y-130205500D01*
X138396158Y-130205500D01*
X138553844Y-130205500D01*
X138553845Y-130205499D01*
X138708497Y-130174737D01*
X138854179Y-130114394D01*
X138985289Y-130026789D01*
X139096789Y-129915289D01*
X139184394Y-129784179D01*
X139244737Y-129638497D01*
X139275500Y-129483842D01*
X139275500Y-129326158D01*
X139275500Y-129326155D01*
X139275499Y-129326153D01*
X139245532Y-129175500D01*
X139244737Y-129171503D01*
X139244735Y-129171498D01*
X139184397Y-129025827D01*
X139184390Y-129025814D01*
X139096789Y-128894711D01*
X139096786Y-128894707D01*
X138985292Y-128783213D01*
X138985288Y-128783210D01*
X138854185Y-128695609D01*
X138854172Y-128695602D01*
X138708501Y-128635264D01*
X138708489Y-128635261D01*
X138553845Y-128604500D01*
X138553842Y-128604500D01*
X138396158Y-128604500D01*
X138396155Y-128604500D01*
X138241510Y-128635261D01*
X138241498Y-128635264D01*
X138095827Y-128695602D01*
X138095814Y-128695609D01*
X137964125Y-128783602D01*
X137897447Y-128804480D01*
X137895234Y-128804500D01*
X137064574Y-128804500D01*
X136997535Y-128784815D01*
X136951780Y-128732011D01*
X136946868Y-128719504D01*
X136910908Y-128610984D01*
X136820340Y-128464150D01*
X136698350Y-128342160D01*
X136551516Y-128251592D01*
X136387753Y-128197326D01*
X136387751Y-128197325D01*
X136286684Y-128187000D01*
X136286677Y-128187000D01*
X135912597Y-128187000D01*
X135845558Y-128167315D01*
X135824916Y-128150681D01*
X135049319Y-127375084D01*
X135015834Y-127313761D01*
X135013000Y-127287403D01*
X135013000Y-126457610D01*
X135032685Y-126390571D01*
X135071901Y-126352073D01*
X135123350Y-126320340D01*
X135245340Y-126198350D01*
X135335908Y-126051516D01*
X135390174Y-125887753D01*
X135400500Y-125786677D01*
X135400499Y-125213324D01*
X135390174Y-125112247D01*
X135335908Y-124948484D01*
X135245340Y-124801650D01*
X135123350Y-124679660D01*
X134989791Y-124597280D01*
X134976518Y-124589093D01*
X134976513Y-124589091D01*
X134975069Y-124588612D01*
X134812753Y-124534826D01*
X134812751Y-124534825D01*
X134711678Y-124524500D01*
X134113330Y-124524500D01*
X134113312Y-124524501D01*
X134012247Y-124534825D01*
X133848484Y-124589092D01*
X133848481Y-124589093D01*
X133701648Y-124679661D01*
X133587681Y-124793629D01*
X133526358Y-124827114D01*
X133456666Y-124822130D01*
X133412319Y-124793629D01*
X133298351Y-124679661D01*
X133298350Y-124679660D01*
X133164791Y-124597280D01*
X133151518Y-124589093D01*
X133151513Y-124589091D01*
X133150069Y-124588612D01*
X132987753Y-124534826D01*
X132987751Y-124534825D01*
X132886678Y-124524500D01*
X132288330Y-124524500D01*
X132288312Y-124524501D01*
X132187247Y-124534825D01*
X132023484Y-124589092D01*
X132023481Y-124589093D01*
X131876648Y-124679661D01*
X131754659Y-124801650D01*
X131730638Y-124840596D01*
X131723051Y-124847419D01*
X131718812Y-124856703D01*
X131697511Y-124870391D01*
X131678690Y-124887321D01*
X131667054Y-124889965D01*
X131660034Y-124894477D01*
X131625099Y-124899500D01*
X131579766Y-124899500D01*
X131512727Y-124879815D01*
X131510875Y-124878602D01*
X131379185Y-124790609D01*
X131379172Y-124790602D01*
X131233501Y-124730264D01*
X131233489Y-124730261D01*
X131078845Y-124699500D01*
X131078842Y-124699500D01*
X130921158Y-124699500D01*
X130921155Y-124699500D01*
X130766510Y-124730261D01*
X130766498Y-124730264D01*
X130620827Y-124790602D01*
X130620814Y-124790609D01*
X130489711Y-124878210D01*
X130489707Y-124878213D01*
X130378213Y-124989707D01*
X130353102Y-125027289D01*
X130299489Y-125072093D01*
X130230164Y-125080800D01*
X130167137Y-125050645D01*
X130146898Y-125027289D01*
X130121786Y-124989707D01*
X130010292Y-124878213D01*
X130010288Y-124878210D01*
X129879185Y-124790609D01*
X129879172Y-124790602D01*
X129733501Y-124730264D01*
X129733489Y-124730261D01*
X129578845Y-124699500D01*
X129578842Y-124699500D01*
X129421158Y-124699500D01*
X129421155Y-124699500D01*
X129266510Y-124730261D01*
X129266498Y-124730264D01*
X129120827Y-124790602D01*
X129120814Y-124790609D01*
X128989711Y-124878210D01*
X128989707Y-124878213D01*
X128878213Y-124989707D01*
X128878210Y-124989711D01*
X128790609Y-125120814D01*
X128790602Y-125120827D01*
X128730264Y-125266498D01*
X128730261Y-125266510D01*
X128699500Y-125421153D01*
X124866108Y-125421153D01*
X124870312Y-125402732D01*
X124900500Y-125134809D01*
X124900500Y-124865191D01*
X124870312Y-124597268D01*
X124810316Y-124334409D01*
X124721267Y-124079921D01*
X124604284Y-123837003D01*
X124460838Y-123608711D01*
X124292734Y-123397915D01*
X124102085Y-123207266D01*
X123891289Y-123039162D01*
X123662997Y-122895716D01*
X123662994Y-122895714D01*
X123420082Y-122778734D01*
X123165602Y-122689687D01*
X123165594Y-122689684D01*
X122968446Y-122644687D01*
X122902732Y-122629688D01*
X122902728Y-122629687D01*
X122902719Y-122629686D01*
X122634813Y-122599500D01*
X122634809Y-122599500D01*
X122365191Y-122599500D01*
X122365186Y-122599500D01*
X122097280Y-122629686D01*
X122097268Y-122629688D01*
X121834405Y-122689684D01*
X121834397Y-122689687D01*
X121579917Y-122778734D01*
X121337005Y-122895714D01*
X121108712Y-123039161D01*
X120897915Y-123207265D01*
X120707265Y-123397915D01*
X120539161Y-123608712D01*
X120395714Y-123837005D01*
X120278734Y-124079917D01*
X120189687Y-124334397D01*
X120189684Y-124334405D01*
X120129688Y-124597268D01*
X120129686Y-124597280D01*
X120099500Y-124865186D01*
X119000500Y-124865186D01*
X119000500Y-117905513D01*
X128299500Y-117905513D01*
X128299500Y-118094486D01*
X128329059Y-118281118D01*
X128387454Y-118460836D01*
X128427367Y-118539168D01*
X128473240Y-118629199D01*
X128584310Y-118782073D01*
X128584312Y-118782075D01*
X128714556Y-118912319D01*
X128748041Y-118973642D01*
X128743057Y-119043334D01*
X128714556Y-119087681D01*
X128584312Y-119217924D01*
X128584312Y-119217925D01*
X128584310Y-119217927D01*
X128538399Y-119281118D01*
X128473240Y-119370800D01*
X128387454Y-119539163D01*
X128329059Y-119718881D01*
X128299500Y-119905513D01*
X128299500Y-120094486D01*
X128329059Y-120281118D01*
X128387454Y-120460836D01*
X128473240Y-120629199D01*
X128584310Y-120782073D01*
X128717927Y-120915690D01*
X128870801Y-121026760D01*
X128950347Y-121067290D01*
X129039163Y-121112545D01*
X129039165Y-121112545D01*
X129039168Y-121112547D01*
X129135497Y-121143846D01*
X129218881Y-121170940D01*
X129405514Y-121200500D01*
X129405519Y-121200500D01*
X129594486Y-121200500D01*
X129781118Y-121170940D01*
X129960832Y-121112547D01*
X130129199Y-121026760D01*
X130282073Y-120915690D01*
X130415690Y-120782073D01*
X130526760Y-120629199D01*
X130612547Y-120460832D01*
X130670940Y-120281118D01*
X130700500Y-120094486D01*
X130700500Y-119905513D01*
X130670940Y-119718881D01*
X130612545Y-119539163D01*
X130526759Y-119370800D01*
X130415690Y-119217927D01*
X130285444Y-119087681D01*
X130281105Y-119079735D01*
X130273858Y-119074310D01*
X130264623Y-119049550D01*
X130251959Y-119026358D01*
X130252604Y-119017328D01*
X130249441Y-119008846D01*
X130255057Y-118983025D01*
X130256943Y-118956666D01*
X130262761Y-118947612D01*
X130264293Y-118940573D01*
X130285444Y-118912319D01*
X130292250Y-118905513D01*
X140299500Y-118905513D01*
X140299500Y-119094486D01*
X140329059Y-119281118D01*
X140387454Y-119460836D01*
X140427367Y-119539168D01*
X140473240Y-119629199D01*
X140584310Y-119782073D01*
X140717927Y-119915690D01*
X140870801Y-120026760D01*
X140950347Y-120067290D01*
X141039163Y-120112545D01*
X141039165Y-120112545D01*
X141039168Y-120112547D01*
X141135497Y-120143846D01*
X141218881Y-120170940D01*
X141405514Y-120200500D01*
X141405519Y-120200500D01*
X141594486Y-120200500D01*
X141781118Y-120170940D01*
X141960832Y-120112547D01*
X142129199Y-120026760D01*
X142282073Y-119915690D01*
X142412319Y-119785444D01*
X142473642Y-119751959D01*
X142543334Y-119756943D01*
X142587681Y-119785444D01*
X142717927Y-119915690D01*
X142870801Y-120026760D01*
X142950347Y-120067290D01*
X143039163Y-120112545D01*
X143039165Y-120112545D01*
X143039168Y-120112547D01*
X143135497Y-120143846D01*
X143218881Y-120170940D01*
X143405514Y-120200500D01*
X143405519Y-120200500D01*
X143594486Y-120200500D01*
X143781118Y-120170940D01*
X143960832Y-120112547D01*
X144129199Y-120026760D01*
X144282073Y-119915690D01*
X144415690Y-119782073D01*
X144526760Y-119629199D01*
X144612547Y-119460832D01*
X144670940Y-119281118D01*
X144700500Y-119094486D01*
X144700500Y-118905513D01*
X144670940Y-118718881D01*
X144612545Y-118539163D01*
X144526759Y-118370800D01*
X144415690Y-118217927D01*
X144282073Y-118084310D01*
X144129199Y-117973240D01*
X143960836Y-117887454D01*
X143781118Y-117829059D01*
X143594486Y-117799500D01*
X143594481Y-117799500D01*
X143405519Y-117799500D01*
X143405514Y-117799500D01*
X143218881Y-117829059D01*
X143039163Y-117887454D01*
X142870800Y-117973240D01*
X142783579Y-118036610D01*
X142717927Y-118084310D01*
X142717925Y-118084312D01*
X142717924Y-118084312D01*
X142587681Y-118214556D01*
X142526358Y-118248041D01*
X142456666Y-118243057D01*
X142412319Y-118214556D01*
X142282075Y-118084312D01*
X142282073Y-118084310D01*
X142129199Y-117973240D01*
X141960836Y-117887454D01*
X141781118Y-117829059D01*
X141594486Y-117799500D01*
X141594481Y-117799500D01*
X141405519Y-117799500D01*
X141405514Y-117799500D01*
X141218881Y-117829059D01*
X141039163Y-117887454D01*
X140870800Y-117973240D01*
X140783579Y-118036610D01*
X140717927Y-118084310D01*
X140717925Y-118084312D01*
X140717924Y-118084312D01*
X140584312Y-118217924D01*
X140584312Y-118217925D01*
X140584310Y-118217927D01*
X140566052Y-118243057D01*
X140473240Y-118370800D01*
X140387454Y-118539163D01*
X140329059Y-118718881D01*
X140299500Y-118905513D01*
X130292250Y-118905513D01*
X130384797Y-118812966D01*
X130415690Y-118782073D01*
X130526760Y-118629199D01*
X130612547Y-118460832D01*
X130670940Y-118281118D01*
X130676968Y-118243057D01*
X130700500Y-118094486D01*
X130700500Y-117905513D01*
X130670940Y-117718881D01*
X130612545Y-117539163D01*
X130526759Y-117370800D01*
X130415690Y-117217927D01*
X130282073Y-117084310D01*
X130129199Y-116973240D01*
X129960836Y-116887454D01*
X129781118Y-116829059D01*
X129594486Y-116799500D01*
X129594481Y-116799500D01*
X129405519Y-116799500D01*
X129405514Y-116799500D01*
X129218881Y-116829059D01*
X129039163Y-116887454D01*
X128870800Y-116973240D01*
X128783579Y-117036610D01*
X128717927Y-117084310D01*
X128717925Y-117084312D01*
X128717924Y-117084312D01*
X128584312Y-117217924D01*
X128584312Y-117217925D01*
X128584310Y-117217927D01*
X128536610Y-117283579D01*
X128473240Y-117370800D01*
X128387454Y-117539163D01*
X128329059Y-117718881D01*
X128299500Y-117905513D01*
X119000500Y-117905513D01*
X119000500Y-108893713D01*
X120149500Y-108893713D01*
X120149500Y-109106286D01*
X120182753Y-109316239D01*
X120248444Y-109518414D01*
X120344951Y-109707820D01*
X120469890Y-109879786D01*
X120620213Y-110030109D01*
X120792179Y-110155048D01*
X120792181Y-110155049D01*
X120792184Y-110155051D01*
X120981588Y-110251557D01*
X121183757Y-110317246D01*
X121393713Y-110350500D01*
X121393714Y-110350500D01*
X121606286Y-110350500D01*
X121606287Y-110350500D01*
X121816243Y-110317246D01*
X122018412Y-110251557D01*
X122207816Y-110155051D01*
X122229789Y-110139086D01*
X122379786Y-110030109D01*
X122379788Y-110030106D01*
X122379792Y-110030104D01*
X122530104Y-109879792D01*
X122530106Y-109879788D01*
X122530109Y-109879786D01*
X122655048Y-109707820D01*
X122655047Y-109707820D01*
X122655051Y-109707816D01*
X122751557Y-109518412D01*
X122817246Y-109316243D01*
X122850500Y-109106287D01*
X122850500Y-108893713D01*
X150149500Y-108893713D01*
X150149500Y-109106286D01*
X150182753Y-109316239D01*
X150248444Y-109518414D01*
X150344951Y-109707820D01*
X150469890Y-109879786D01*
X150620213Y-110030109D01*
X150792179Y-110155048D01*
X150792181Y-110155049D01*
X150792184Y-110155051D01*
X150981588Y-110251557D01*
X151183757Y-110317246D01*
X151393713Y-110350500D01*
X151393714Y-110350500D01*
X151606286Y-110350500D01*
X151606287Y-110350500D01*
X151816243Y-110317246D01*
X152018412Y-110251557D01*
X152207816Y-110155051D01*
X152229789Y-110139086D01*
X152379786Y-110030109D01*
X152379788Y-110030106D01*
X152379792Y-110030104D01*
X152530104Y-109879792D01*
X152530106Y-109879788D01*
X152530109Y-109879786D01*
X152655048Y-109707820D01*
X152655047Y-109707820D01*
X152655051Y-109707816D01*
X152751557Y-109518412D01*
X152817246Y-109316243D01*
X152850500Y-109106287D01*
X152850500Y-108893713D01*
X152817246Y-108683757D01*
X152751557Y-108481588D01*
X152655051Y-108292184D01*
X152655049Y-108292181D01*
X152655048Y-108292179D01*
X152530109Y-108120213D01*
X152379786Y-107969890D01*
X152207820Y-107844951D01*
X152018414Y-107748444D01*
X152018413Y-107748443D01*
X152018412Y-107748443D01*
X151816243Y-107682754D01*
X151816241Y-107682753D01*
X151816240Y-107682753D01*
X151654957Y-107657208D01*
X151606287Y-107649500D01*
X151393713Y-107649500D01*
X151345042Y-107657208D01*
X151183760Y-107682753D01*
X150981585Y-107748444D01*
X150792179Y-107844951D01*
X150620213Y-107969890D01*
X150469890Y-108120213D01*
X150344951Y-108292179D01*
X150248444Y-108481585D01*
X150182753Y-108683760D01*
X150149500Y-108893713D01*
X122850500Y-108893713D01*
X122817246Y-108683757D01*
X122751557Y-108481588D01*
X122655051Y-108292184D01*
X122655049Y-108292181D01*
X122655048Y-108292179D01*
X122530109Y-108120213D01*
X122379786Y-107969890D01*
X122207820Y-107844951D01*
X122018414Y-107748444D01*
X122018413Y-107748443D01*
X122018412Y-107748443D01*
X121816243Y-107682754D01*
X121816241Y-107682753D01*
X121816240Y-107682753D01*
X121654957Y-107657208D01*
X121606287Y-107649500D01*
X121393713Y-107649500D01*
X121345042Y-107657208D01*
X121183760Y-107682753D01*
X120981585Y-107748444D01*
X120792179Y-107844951D01*
X120620213Y-107969890D01*
X120469890Y-108120213D01*
X120344951Y-108292179D01*
X120248444Y-108481585D01*
X120182753Y-108683760D01*
X120149500Y-108893713D01*
X119000500Y-108893713D01*
X119000500Y-105124500D01*
X119020185Y-105057461D01*
X119072989Y-105011706D01*
X119124500Y-105000500D01*
X153875500Y-105000500D01*
X153942539Y-105020185D01*
G37*
%TD.AperFunction*%
%TD*%
M02*
