M48
; DRILL file KiCad 10.0.6 date 2026-09-24T08:23:29
; FORMAT={-:-/ absolute / metric / decimal}
; #@! TF.CreationDate,2026-09-24T08:23:29-05:00
; #@! TF.GenerationSoftware,Kicad,Pcbnew,10.0.6
; #@! TF.FileFunction,Plated,1,2,PTH
FMAT,2
METRIC
; #@! TA.AperFunction,Plated,PTH,ComponentDrill
T1C0.800
; #@! TA.AperFunction,Plated,PTH,ComponentDrill
T2C0.890
; #@! TA.AperFunction,Plated,PTH,ComponentDrill
T3C1.000
; #@! TA.AperFunction,Plated,PTH,ComponentDrill
T4C1.400
; #@! TA.AperFunction,Plated,PTH,ComponentDrill
T5C1.600
; #@! TA.AperFunction,Plated,PTH,ComponentDrill
T6C2.010
; #@! TA.AperFunction,Plated,PTH,ViaDrill
T7C3.400
%
G90
G05
T1
X70.92Y-151.0
X75.25Y-135.0
X77.75Y-135.0
X81.08Y-151.0
X88.0Y-139.42
X88.0Y-149.58
T2
X57.55Y-143.0
X57.55Y-145.54
T3
X93.0Y-121.8
X93.0Y-134.5
X95.54Y-126.88
T4
X74.5Y-127.277
X79.5Y-127.277
T5
X71.0Y-161.0
X81.0Y-160.5
X91.5Y-160.5
X104.5Y-124.0
X104.5Y-139.5
X104.5Y-149.5
T6
X52.47Y-137.92
X52.47Y-148.08
T7
X48.5Y-113.0
X48.5Y-167.0
X117.5Y-113.0
X117.5Y-167.0
M30
