%TF.GenerationSoftware,KiCad,Pcbnew,10.0.6*%
%TF.CreationDate,2026-09-24T08:21:34-05:00*%
%TF.ProjectId,Lab4,4c616234-2e6b-4696-9361-645f70636258,rev?*%
%TF.SameCoordinates,Original*%
%TF.FileFunction,Copper,L2,Bot*%
%TF.FilePolarity,Positive*%
%FSLAX46Y46*%
G04 Gerber Fmt 4.6, Leading zero omitted, Abs format (unit mm)*
G04 Created by KiCad (PCBNEW 10.0.6) date 2026-09-24 08:21:34*
%MOMM*%
%LPD*%
G01*
G04 APERTURE LIST*
G04 Aperture macros list*
%AMRoundRect*
0 Rectangle with rounded corners*
0 $1 Rounding radius*
0 $2 $3 $4 $5 $6 $7 $8 $9 X,Y pos of 4 corners*
0 Add a 4 corners polygon primitive as box body*
4,1,4,$2,$3,$4,$5,$6,$7,$8,$9,$2,$3,0*
0 Add four circle primitives for the rounded corners*
1,1,$1+$1,$2,$3*
1,1,$1+$1,$4,$5*
1,1,$1+$1,$6,$7*
1,1,$1+$1,$8,$9*
0 Add four rect primitives between the rounded corners*
20,1,$1+$1,$2,$3,$4,$5,0*
20,1,$1+$1,$4,$5,$6,$7,0*
20,1,$1+$1,$6,$7,$8,$9,0*
20,1,$1+$1,$8,$9,$2,$3,0*%
G04 Aperture macros list end*
%TA.AperFunction,ComponentPad*%
%ADD10C,1.800000*%
%TD*%
%TA.AperFunction,ComponentPad*%
%ADD11C,1.600000*%
%TD*%
%TA.AperFunction,ComponentPad*%
%ADD12C,2.800000*%
%TD*%
%TA.AperFunction,ComponentPad*%
%ADD13O,2.500000X1.600000*%
%TD*%
%TA.AperFunction,ComponentPad*%
%ADD14O,7.000000X3.500000*%
%TD*%
%TA.AperFunction,ComponentPad*%
%ADD15RoundRect,0.250000X0.750000X1.550000X-0.750000X1.550000X-0.750000X-1.550000X0.750000X-1.550000X0*%
%TD*%
%TA.AperFunction,ComponentPad*%
%ADD16O,2.000000X3.600000*%
%TD*%
%TA.AperFunction,ViaPad*%
%ADD17C,4.000000*%
%TD*%
G04 APERTURE END LIST*
D10*
%TO.P,Rs2,1,1_1*%
%TO.N,/V-*%
X93000000Y-134500000D03*
%TO.P,Rs2,2,2_2*%
%TO.N,/SIG_IN*%
X95540000Y-126880000D03*
%TO.P,Rs2,3,3_3*%
%TO.N,unconnected-(Rs2-Pad3)*%
X93000000Y-121800000D03*
%TD*%
D11*
%TO.P,Rs1,1*%
%TO.N,/SIG_IN*%
X70920000Y-151000000D03*
%TO.P,Rs1,2*%
%TO.N,/V-*%
X81080000Y-151000000D03*
%TD*%
D12*
%TO.P,GND_TP1,1,1_1*%
%TO.N,/GND*%
X104500000Y-139500000D03*
%TD*%
D11*
%TO.P,Rf1,1*%
%TO.N,/V-*%
X88000000Y-149580000D03*
%TO.P,Rf1,2*%
%TO.N,/Vout*%
X88000000Y-139420000D03*
%TD*%
D12*
%TO.P,GND_TP2,1,1_1*%
%TO.N,/GND*%
X91500000Y-160500000D03*
%TD*%
%TO.P,SIG_IN_TP1,1,1_1*%
%TO.N,/SIG_IN*%
X71000000Y-161000000D03*
%TD*%
D13*
%TO.P,J1,1,In_1*%
%TO.N,/GND*%
X57550000Y-143000000D03*
D14*
%TO.P,J1,2,Ext_2*%
%TO.N,/SIG_IN*%
X52470000Y-148080000D03*
D13*
X57550000Y-145540000D03*
D14*
X52470000Y-137920000D03*
%TD*%
D12*
%TO.P,V-_TP1,1,1_1*%
%TO.N,/V-*%
X104500000Y-149500000D03*
%TD*%
D15*
%TO.P,J2,1,Pin_1_1*%
%TO.N,/VDD*%
X79500000Y-127277500D03*
D16*
%TO.P,J2,2,Pin_2_2*%
%TO.N,/GND*%
X74500000Y-127277500D03*
%TD*%
D12*
%TO.P,VDD_TP1,1,1_1*%
%TO.N,/VDD*%
X104500000Y-124000000D03*
%TD*%
D11*
%TO.P,C1,1*%
%TO.N,/VDD*%
X75250000Y-135000000D03*
%TO.P,C1,2*%
%TO.N,/GND*%
X77750000Y-135000000D03*
%TD*%
D12*
%TO.P,Vout_TP1,1,1_1*%
%TO.N,/Vout*%
X81000000Y-160500000D03*
%TD*%
D17*
%TO.N,*%
X117500000Y-113000000D03*
X117500000Y-167000000D03*
X48500000Y-167000000D03*
X48500000Y-113000000D03*
%TD*%
%TA.AperFunction,Conductor*%
%TO.N,/GND*%
G36*
X120942539Y-110020185D02*
G01*
X120988294Y-110072989D01*
X120999500Y-110124500D01*
X120999500Y-169375500D01*
X120979815Y-169442539D01*
X120927011Y-169488294D01*
X120875500Y-169499500D01*
X118616080Y-169499500D01*
X118549041Y-169479815D01*
X118503286Y-169427011D01*
X118493342Y-169357853D01*
X118522367Y-169294297D01*
X118562279Y-169263780D01*
X118711439Y-169191948D01*
X118711439Y-169191947D01*
X118711445Y-169191945D01*
X118949248Y-169042523D01*
X119168825Y-168867416D01*
X119367416Y-168668825D01*
X119542523Y-168449248D01*
X119691945Y-168211445D01*
X119813801Y-167958408D01*
X119906560Y-167693318D01*
X119969055Y-167419509D01*
X120000500Y-167140425D01*
X120000500Y-166859575D01*
X119969055Y-166580491D01*
X119906560Y-166306682D01*
X119813801Y-166041592D01*
X119691945Y-165788555D01*
X119542523Y-165550752D01*
X119367416Y-165331175D01*
X119168825Y-165132584D01*
X118949248Y-164957477D01*
X118711445Y-164808055D01*
X118711442Y-164808053D01*
X118458411Y-164686200D01*
X118193329Y-164593443D01*
X118193317Y-164593439D01*
X117919512Y-164530945D01*
X117919494Y-164530942D01*
X117640431Y-164499500D01*
X117640425Y-164499500D01*
X117359575Y-164499500D01*
X117359568Y-164499500D01*
X117080505Y-164530942D01*
X117080487Y-164530945D01*
X116806682Y-164593439D01*
X116806670Y-164593443D01*
X116541588Y-164686200D01*
X116288557Y-164808053D01*
X116050753Y-164957476D01*
X115831175Y-165132583D01*
X115632583Y-165331175D01*
X115457476Y-165550753D01*
X115308053Y-165788557D01*
X115186200Y-166041588D01*
X115093443Y-166306670D01*
X115093439Y-166306682D01*
X115030945Y-166580487D01*
X115030942Y-166580505D01*
X114999500Y-166859568D01*
X114999500Y-167140431D01*
X115030942Y-167419494D01*
X115030945Y-167419512D01*
X115093439Y-167693317D01*
X115093443Y-167693329D01*
X115186200Y-167958411D01*
X115308053Y-168211442D01*
X115308055Y-168211445D01*
X115457477Y-168449248D01*
X115632584Y-168668825D01*
X115831175Y-168867416D01*
X116050752Y-169042523D01*
X116288555Y-169191945D01*
X116288560Y-169191948D01*
X116437721Y-169263780D01*
X116489581Y-169310602D01*
X116507894Y-169378029D01*
X116486846Y-169444653D01*
X116433120Y-169489322D01*
X116383920Y-169499500D01*
X49616080Y-169499500D01*
X49549041Y-169479815D01*
X49503286Y-169427011D01*
X49493342Y-169357853D01*
X49522367Y-169294297D01*
X49562279Y-169263780D01*
X49711439Y-169191948D01*
X49711439Y-169191947D01*
X49711445Y-169191945D01*
X49949248Y-169042523D01*
X50168825Y-168867416D01*
X50367416Y-168668825D01*
X50542523Y-168449248D01*
X50691945Y-168211445D01*
X50813801Y-167958408D01*
X50906560Y-167693318D01*
X50969055Y-167419509D01*
X51000500Y-167140425D01*
X51000500Y-166859575D01*
X50969055Y-166580491D01*
X50906560Y-166306682D01*
X50813801Y-166041592D01*
X50691945Y-165788555D01*
X50542523Y-165550752D01*
X50367416Y-165331175D01*
X50168825Y-165132584D01*
X49949248Y-164957477D01*
X49711445Y-164808055D01*
X49711442Y-164808053D01*
X49458411Y-164686200D01*
X49193329Y-164593443D01*
X49193317Y-164593439D01*
X48919512Y-164530945D01*
X48919494Y-164530942D01*
X48640431Y-164499500D01*
X48640425Y-164499500D01*
X48359575Y-164499500D01*
X48359568Y-164499500D01*
X48080505Y-164530942D01*
X48080487Y-164530945D01*
X47806682Y-164593439D01*
X47806670Y-164593443D01*
X47541588Y-164686200D01*
X47288557Y-164808053D01*
X47050753Y-164957476D01*
X46831175Y-165132583D01*
X46632583Y-165331175D01*
X46457476Y-165550753D01*
X46308053Y-165788557D01*
X46186200Y-166041588D01*
X46093443Y-166306670D01*
X46093439Y-166306682D01*
X46030945Y-166580487D01*
X46030942Y-166580505D01*
X45999500Y-166859568D01*
X45999500Y-167140431D01*
X46030942Y-167419494D01*
X46030945Y-167419512D01*
X46093439Y-167693317D01*
X46093443Y-167693329D01*
X46186200Y-167958411D01*
X46308053Y-168211442D01*
X46308055Y-168211445D01*
X46457477Y-168449248D01*
X46632584Y-168668825D01*
X46831175Y-168867416D01*
X47050752Y-169042523D01*
X47288555Y-169191945D01*
X47288560Y-169191948D01*
X47437721Y-169263780D01*
X47489581Y-169310602D01*
X47507894Y-169378029D01*
X47486846Y-169444653D01*
X47433120Y-169489322D01*
X47383920Y-169499500D01*
X45124500Y-169499500D01*
X45057461Y-169479815D01*
X45011706Y-169427011D01*
X45000500Y-169375500D01*
X45000500Y-160875441D01*
X69099500Y-160875441D01*
X69099500Y-161124558D01*
X69099501Y-161124575D01*
X69132017Y-161371561D01*
X69196498Y-161612207D01*
X69291830Y-161842361D01*
X69291837Y-161842376D01*
X69416400Y-162058126D01*
X69568060Y-162255774D01*
X69568066Y-162255781D01*
X69744218Y-162431933D01*
X69744225Y-162431939D01*
X69941873Y-162583599D01*
X70157623Y-162708162D01*
X70157638Y-162708169D01*
X70256825Y-162749253D01*
X70387793Y-162803502D01*
X70628435Y-162867982D01*
X70875435Y-162900500D01*
X70875442Y-162900500D01*
X71124558Y-162900500D01*
X71124565Y-162900500D01*
X71371565Y-162867982D01*
X71612207Y-162803502D01*
X71842373Y-162708164D01*
X72058127Y-162583599D01*
X72255776Y-162431938D01*
X72431938Y-162255776D01*
X72583599Y-162058127D01*
X72708164Y-161842373D01*
X72803502Y-161612207D01*
X72867982Y-161371565D01*
X72900500Y-161124565D01*
X72900500Y-160875435D01*
X72867982Y-160628435D01*
X72803502Y-160387793D01*
X72798386Y-160375441D01*
X79099500Y-160375441D01*
X79099500Y-160624558D01*
X79099501Y-160624575D01*
X79132017Y-160871561D01*
X79196498Y-161112207D01*
X79291830Y-161342361D01*
X79291837Y-161342376D01*
X79416400Y-161558126D01*
X79568060Y-161755774D01*
X79568066Y-161755781D01*
X79744218Y-161931933D01*
X79744225Y-161931939D01*
X79941873Y-162083599D01*
X80157623Y-162208162D01*
X80157638Y-162208169D01*
X80256825Y-162249253D01*
X80387793Y-162303502D01*
X80628435Y-162367982D01*
X80875435Y-162400500D01*
X80875442Y-162400500D01*
X81124558Y-162400500D01*
X81124565Y-162400500D01*
X81371565Y-162367982D01*
X81612207Y-162303502D01*
X81842373Y-162208164D01*
X82058127Y-162083599D01*
X82255776Y-161931938D01*
X82255781Y-161931933D01*
X82314750Y-161872965D01*
X82431933Y-161755781D01*
X82431938Y-161755776D01*
X82583599Y-161558127D01*
X82708164Y-161342373D01*
X82803502Y-161112207D01*
X82867982Y-160871565D01*
X82900500Y-160624565D01*
X82900500Y-160375466D01*
X89600000Y-160375466D01*
X89600000Y-160624533D01*
X89632508Y-160871463D01*
X89696973Y-161112049D01*
X89792283Y-161342148D01*
X89792288Y-161342159D01*
X89916813Y-161557841D01*
X89916819Y-161557849D01*
X89991400Y-161655045D01*
X90784152Y-160862292D01*
X90791049Y-160878942D01*
X90878599Y-161009970D01*
X90990030Y-161121401D01*
X91121058Y-161208951D01*
X91137705Y-161215846D01*
X90344953Y-162008598D01*
X90442150Y-162083180D01*
X90442158Y-162083186D01*
X90657840Y-162207711D01*
X90657851Y-162207716D01*
X90887950Y-162303026D01*
X91128536Y-162367491D01*
X91375466Y-162400000D01*
X91624534Y-162400000D01*
X91871463Y-162367491D01*
X92112049Y-162303026D01*
X92342148Y-162207716D01*
X92342159Y-162207711D01*
X92557855Y-162083178D01*
X92655045Y-162008600D01*
X92655045Y-162008597D01*
X91862294Y-161215846D01*
X91878942Y-161208951D01*
X92009970Y-161121401D01*
X92121401Y-161009970D01*
X92208951Y-160878942D01*
X92215846Y-160862294D01*
X93008597Y-161655045D01*
X93008600Y-161655045D01*
X93083178Y-161557855D01*
X93207711Y-161342159D01*
X93207716Y-161342148D01*
X93303026Y-161112049D01*
X93367491Y-160871463D01*
X93400000Y-160624533D01*
X93400000Y-160375466D01*
X93367491Y-160128536D01*
X93303026Y-159887950D01*
X93207716Y-159657851D01*
X93207711Y-159657840D01*
X93083186Y-159442158D01*
X93083180Y-159442150D01*
X93008598Y-159344953D01*
X92215846Y-160137705D01*
X92208951Y-160121058D01*
X92121401Y-159990030D01*
X92009970Y-159878599D01*
X91878942Y-159791049D01*
X91862292Y-159784152D01*
X92655045Y-158991400D01*
X92557849Y-158916819D01*
X92557841Y-158916813D01*
X92342159Y-158792288D01*
X92342148Y-158792283D01*
X92112049Y-158696973D01*
X91871463Y-158632508D01*
X91624534Y-158600000D01*
X91375466Y-158600000D01*
X91128536Y-158632508D01*
X90887950Y-158696973D01*
X90657851Y-158792283D01*
X90657847Y-158792285D01*
X90442143Y-158916823D01*
X90344953Y-158991399D01*
X90344953Y-158991400D01*
X91137706Y-159784153D01*
X91121058Y-159791049D01*
X90990030Y-159878599D01*
X90878599Y-159990030D01*
X90791049Y-160121058D01*
X90784153Y-160137706D01*
X89991400Y-159344953D01*
X89991399Y-159344953D01*
X89916823Y-159442143D01*
X89792285Y-159657847D01*
X89792283Y-159657851D01*
X89696973Y-159887950D01*
X89632508Y-160128536D01*
X89600000Y-160375466D01*
X82900500Y-160375466D01*
X82900500Y-160375435D01*
X82867982Y-160128435D01*
X82803502Y-159887793D01*
X82738450Y-159730743D01*
X82708169Y-159657638D01*
X82708162Y-159657623D01*
X82583599Y-159441873D01*
X82431939Y-159244225D01*
X82431933Y-159244218D01*
X82255781Y-159068066D01*
X82255774Y-159068060D01*
X82058126Y-158916400D01*
X81842376Y-158791837D01*
X81842361Y-158791830D01*
X81612207Y-158696498D01*
X81371565Y-158632018D01*
X81371564Y-158632017D01*
X81371561Y-158632017D01*
X81124575Y-158599501D01*
X81124570Y-158599500D01*
X81124565Y-158599500D01*
X80875435Y-158599500D01*
X80875429Y-158599500D01*
X80875424Y-158599501D01*
X80628438Y-158632017D01*
X80387792Y-158696498D01*
X80157638Y-158791830D01*
X80157623Y-158791837D01*
X79941873Y-158916400D01*
X79744225Y-159068060D01*
X79744218Y-159068066D01*
X79568066Y-159244218D01*
X79568060Y-159244225D01*
X79416400Y-159441873D01*
X79291837Y-159657623D01*
X79291830Y-159657638D01*
X79196498Y-159887792D01*
X79132017Y-160128438D01*
X79099501Y-160375424D01*
X79099500Y-160375441D01*
X72798386Y-160375441D01*
X72708164Y-160157627D01*
X72691368Y-160128536D01*
X72583599Y-159941873D01*
X72431939Y-159744225D01*
X72431933Y-159744218D01*
X72255781Y-159568066D01*
X72255774Y-159568060D01*
X72058126Y-159416400D01*
X71842376Y-159291837D01*
X71842361Y-159291830D01*
X71612207Y-159196498D01*
X71371561Y-159132017D01*
X71124575Y-159099501D01*
X71124570Y-159099500D01*
X71124565Y-159099500D01*
X70875435Y-159099500D01*
X70875429Y-159099500D01*
X70875424Y-159099501D01*
X70628438Y-159132017D01*
X70387792Y-159196498D01*
X70157638Y-159291830D01*
X70157623Y-159291837D01*
X69941873Y-159416400D01*
X69744225Y-159568060D01*
X69744218Y-159568066D01*
X69568066Y-159744218D01*
X69568060Y-159744225D01*
X69416400Y-159941873D01*
X69291837Y-160157623D01*
X69291830Y-160157638D01*
X69196498Y-160387792D01*
X69132017Y-160628438D01*
X69099501Y-160875424D01*
X69099500Y-160875441D01*
X45000500Y-160875441D01*
X45000500Y-150897648D01*
X69619500Y-150897648D01*
X69619500Y-151102351D01*
X69651522Y-151304534D01*
X69714781Y-151499223D01*
X69807715Y-151681613D01*
X69928028Y-151847213D01*
X70072786Y-151991971D01*
X70227749Y-152104556D01*
X70238390Y-152112287D01*
X70354607Y-152171503D01*
X70420776Y-152205218D01*
X70420778Y-152205218D01*
X70420781Y-152205220D01*
X70525137Y-152239127D01*
X70615465Y-152268477D01*
X70716557Y-152284488D01*
X70817648Y-152300500D01*
X70817649Y-152300500D01*
X71022351Y-152300500D01*
X71022352Y-152300500D01*
X71224534Y-152268477D01*
X71419219Y-152205220D01*
X71601610Y-152112287D01*
X71694590Y-152044732D01*
X71767213Y-151991971D01*
X71767215Y-151991968D01*
X71767219Y-151991966D01*
X71911966Y-151847219D01*
X71911968Y-151847215D01*
X71911971Y-151847213D01*
X71964732Y-151774590D01*
X72032287Y-151681610D01*
X72125220Y-151499219D01*
X72188477Y-151304534D01*
X72220500Y-151102352D01*
X72220500Y-150897648D01*
X79779500Y-150897648D01*
X79779500Y-151102351D01*
X79811522Y-151304534D01*
X79874781Y-151499223D01*
X79967715Y-151681613D01*
X80088028Y-151847213D01*
X80232786Y-151991971D01*
X80387749Y-152104556D01*
X80398390Y-152112287D01*
X80514607Y-152171503D01*
X80580776Y-152205218D01*
X80580778Y-152205218D01*
X80580781Y-152205220D01*
X80685137Y-152239127D01*
X80775465Y-152268477D01*
X80876557Y-152284488D01*
X80977648Y-152300500D01*
X80977649Y-152300500D01*
X81182351Y-152300500D01*
X81182352Y-152300500D01*
X81384534Y-152268477D01*
X81579219Y-152205220D01*
X81761610Y-152112287D01*
X81854590Y-152044732D01*
X81927213Y-151991971D01*
X81927215Y-151991968D01*
X81927219Y-151991966D01*
X82071966Y-151847219D01*
X82071968Y-151847215D01*
X82071971Y-151847213D01*
X82124732Y-151774590D01*
X82192287Y-151681610D01*
X82285220Y-151499219D01*
X82348477Y-151304534D01*
X82380500Y-151102352D01*
X82380500Y-150897648D01*
X82348477Y-150695466D01*
X82285220Y-150500781D01*
X82285218Y-150500778D01*
X82285218Y-150500776D01*
X82204508Y-150342376D01*
X82192287Y-150318390D01*
X82173107Y-150291991D01*
X82071971Y-150152786D01*
X81927213Y-150008028D01*
X81761613Y-149887715D01*
X81761612Y-149887714D01*
X81761610Y-149887713D01*
X81704653Y-149858691D01*
X81579223Y-149794781D01*
X81384534Y-149731522D01*
X81209995Y-149703878D01*
X81182352Y-149699500D01*
X80977648Y-149699500D01*
X80953329Y-149703351D01*
X80775465Y-149731522D01*
X80580776Y-149794781D01*
X80398386Y-149887715D01*
X80232786Y-150008028D01*
X80088028Y-150152786D01*
X79967715Y-150318386D01*
X79874781Y-150500776D01*
X79811522Y-150695465D01*
X79779500Y-150897648D01*
X72220500Y-150897648D01*
X72188477Y-150695466D01*
X72125220Y-150500781D01*
X72125218Y-150500778D01*
X72125218Y-150500776D01*
X72044508Y-150342376D01*
X72032287Y-150318390D01*
X72013107Y-150291991D01*
X71911971Y-150152786D01*
X71767213Y-150008028D01*
X71601613Y-149887715D01*
X71601612Y-149887714D01*
X71601610Y-149887713D01*
X71544653Y-149858691D01*
X71419223Y-149794781D01*
X71224534Y-149731522D01*
X71049995Y-149703878D01*
X71022352Y-149699500D01*
X70817648Y-149699500D01*
X70793329Y-149703351D01*
X70615465Y-149731522D01*
X70420776Y-149794781D01*
X70238386Y-149887715D01*
X70072786Y-150008028D01*
X69928028Y-150152786D01*
X69807715Y-150318386D01*
X69714781Y-150500776D01*
X69651522Y-150695465D01*
X69619500Y-150897648D01*
X45000500Y-150897648D01*
X45000500Y-147932486D01*
X48469500Y-147932486D01*
X48469500Y-148227513D01*
X48480561Y-148311523D01*
X48508007Y-148519993D01*
X48584361Y-148804951D01*
X48584364Y-148804961D01*
X48697254Y-149077500D01*
X48697258Y-149077510D01*
X48844761Y-149332993D01*
X49024352Y-149567040D01*
X49024358Y-149567047D01*
X49232952Y-149775641D01*
X49232959Y-149775647D01*
X49467006Y-149955238D01*
X49722489Y-150102741D01*
X49722490Y-150102741D01*
X49722493Y-150102743D01*
X49995048Y-150215639D01*
X50280007Y-150291993D01*
X50572494Y-150330500D01*
X50572501Y-150330500D01*
X54367499Y-150330500D01*
X54367506Y-150330500D01*
X54659993Y-150291993D01*
X54944952Y-150215639D01*
X55217507Y-150102743D01*
X55472994Y-149955238D01*
X55707042Y-149775646D01*
X55915646Y-149567042D01*
X55984241Y-149477648D01*
X86699500Y-149477648D01*
X86699500Y-149682351D01*
X86731522Y-149884534D01*
X86794781Y-150079223D01*
X86887715Y-150261613D01*
X87008028Y-150427213D01*
X87152786Y-150571971D01*
X87307749Y-150684556D01*
X87318390Y-150692287D01*
X87434607Y-150751503D01*
X87500776Y-150785218D01*
X87500778Y-150785218D01*
X87500781Y-150785220D01*
X87605137Y-150819127D01*
X87695465Y-150848477D01*
X87796557Y-150864488D01*
X87897648Y-150880500D01*
X87897649Y-150880500D01*
X88102351Y-150880500D01*
X88102352Y-150880500D01*
X88304534Y-150848477D01*
X88499219Y-150785220D01*
X88681610Y-150692287D01*
X88774590Y-150624732D01*
X88847213Y-150571971D01*
X88847215Y-150571968D01*
X88847219Y-150571966D01*
X88991966Y-150427219D01*
X88991968Y-150427215D01*
X88991971Y-150427213D01*
X89044732Y-150354590D01*
X89112287Y-150261610D01*
X89205220Y-150079219D01*
X89268477Y-149884534D01*
X89300500Y-149682352D01*
X89300500Y-149477648D01*
X89284312Y-149375441D01*
X102599500Y-149375441D01*
X102599500Y-149624558D01*
X102599501Y-149624575D01*
X102632017Y-149871561D01*
X102696498Y-150112207D01*
X102791830Y-150342361D01*
X102791837Y-150342376D01*
X102916400Y-150558126D01*
X103068060Y-150755774D01*
X103068066Y-150755781D01*
X103244218Y-150931933D01*
X103244225Y-150931939D01*
X103441873Y-151083599D01*
X103657623Y-151208162D01*
X103657638Y-151208169D01*
X103756825Y-151249253D01*
X103887793Y-151303502D01*
X104128435Y-151367982D01*
X104375435Y-151400500D01*
X104375442Y-151400500D01*
X104624558Y-151400500D01*
X104624565Y-151400500D01*
X104871565Y-151367982D01*
X105112207Y-151303502D01*
X105342373Y-151208164D01*
X105558127Y-151083599D01*
X105755776Y-150931938D01*
X105931938Y-150755776D01*
X106083599Y-150558127D01*
X106208164Y-150342373D01*
X106303502Y-150112207D01*
X106367982Y-149871565D01*
X106400500Y-149624565D01*
X106400500Y-149375435D01*
X106367982Y-149128435D01*
X106303502Y-148887793D01*
X106208164Y-148657627D01*
X106083599Y-148441873D01*
X105983578Y-148311523D01*
X105931939Y-148244225D01*
X105931933Y-148244218D01*
X105755781Y-148068066D01*
X105755774Y-148068060D01*
X105558126Y-147916400D01*
X105342376Y-147791837D01*
X105342361Y-147791830D01*
X105112207Y-147696498D01*
X104871561Y-147632017D01*
X104624575Y-147599501D01*
X104624570Y-147599500D01*
X104624565Y-147599500D01*
X104375435Y-147599500D01*
X104375429Y-147599500D01*
X104375424Y-147599501D01*
X104128438Y-147632017D01*
X103887792Y-147696498D01*
X103657638Y-147791830D01*
X103657623Y-147791837D01*
X103441873Y-147916400D01*
X103244225Y-148068060D01*
X103244218Y-148068066D01*
X103068066Y-148244218D01*
X103068060Y-148244225D01*
X102916400Y-148441873D01*
X102791837Y-148657623D01*
X102791830Y-148657638D01*
X102696498Y-148887792D01*
X102632017Y-149128438D01*
X102599501Y-149375424D01*
X102599500Y-149375441D01*
X89284312Y-149375441D01*
X89268477Y-149275466D01*
X89205220Y-149080781D01*
X89205218Y-149080778D01*
X89205218Y-149080776D01*
X89171503Y-149014607D01*
X89112287Y-148898390D01*
X89104556Y-148887749D01*
X88991971Y-148732786D01*
X88847213Y-148588028D01*
X88681613Y-148467715D01*
X88681612Y-148467714D01*
X88681610Y-148467713D01*
X88624653Y-148438691D01*
X88499223Y-148374781D01*
X88304534Y-148311522D01*
X88129995Y-148283878D01*
X88102352Y-148279500D01*
X87897648Y-148279500D01*
X87873329Y-148283351D01*
X87695465Y-148311522D01*
X87500776Y-148374781D01*
X87318386Y-148467715D01*
X87152786Y-148588028D01*
X87008028Y-148732786D01*
X86887715Y-148898386D01*
X86794781Y-149080776D01*
X86731522Y-149275465D01*
X86699500Y-149477648D01*
X55984241Y-149477648D01*
X56095238Y-149332994D01*
X56242743Y-149077507D01*
X56355639Y-148804952D01*
X56431993Y-148519993D01*
X56470500Y-148227506D01*
X56470500Y-147932494D01*
X56431993Y-147640007D01*
X56355639Y-147355048D01*
X56242743Y-147082493D01*
X56095238Y-146827006D01*
X55915646Y-146592958D01*
X55915641Y-146592952D01*
X55707047Y-146384358D01*
X55707040Y-146384352D01*
X55472993Y-146204761D01*
X55217510Y-146057258D01*
X55217500Y-146057254D01*
X54944961Y-145944364D01*
X54944954Y-145944362D01*
X54944952Y-145944361D01*
X54659993Y-145868007D01*
X54611113Y-145861571D01*
X54367513Y-145829500D01*
X54367506Y-145829500D01*
X50572494Y-145829500D01*
X50572486Y-145829500D01*
X50294085Y-145866153D01*
X50280007Y-145868007D01*
X49995048Y-145944361D01*
X49995038Y-145944364D01*
X49722499Y-146057254D01*
X49722489Y-146057258D01*
X49467006Y-146204761D01*
X49232959Y-146384352D01*
X49232952Y-146384358D01*
X49024358Y-146592952D01*
X49024352Y-146592959D01*
X48844761Y-146827006D01*
X48697258Y-147082489D01*
X48697254Y-147082499D01*
X48584364Y-147355038D01*
X48584361Y-147355048D01*
X48518861Y-147599501D01*
X48508008Y-147640004D01*
X48508006Y-147640015D01*
X48469500Y-147932486D01*
X45000500Y-147932486D01*
X45000500Y-145437648D01*
X55799500Y-145437648D01*
X55799500Y-145642351D01*
X55831522Y-145844534D01*
X55894781Y-146039223D01*
X55987715Y-146221613D01*
X56108028Y-146387213D01*
X56252786Y-146531971D01*
X56407749Y-146644556D01*
X56418390Y-146652287D01*
X56534607Y-146711503D01*
X56600776Y-146745218D01*
X56600778Y-146745218D01*
X56600781Y-146745220D01*
X56705137Y-146779127D01*
X56795465Y-146808477D01*
X56896557Y-146824488D01*
X56997648Y-146840500D01*
X56997649Y-146840500D01*
X58102351Y-146840500D01*
X58102352Y-146840500D01*
X58304534Y-146808477D01*
X58499219Y-146745220D01*
X58681610Y-146652287D01*
X58774590Y-146584732D01*
X58847213Y-146531971D01*
X58847215Y-146531968D01*
X58847219Y-146531966D01*
X58991966Y-146387219D01*
X58991968Y-146387215D01*
X58991971Y-146387213D01*
X59044732Y-146314590D01*
X59112287Y-146221610D01*
X59205220Y-146039219D01*
X59268477Y-145844534D01*
X59300500Y-145642352D01*
X59300500Y-145437648D01*
X59268477Y-145235466D01*
X59205220Y-145040781D01*
X59205218Y-145040778D01*
X59205218Y-145040776D01*
X59171503Y-144974607D01*
X59112287Y-144858390D01*
X59104556Y-144847749D01*
X58991971Y-144692786D01*
X58847213Y-144548028D01*
X58681611Y-144427713D01*
X58588369Y-144380203D01*
X58537574Y-144332229D01*
X58520779Y-144264407D01*
X58543317Y-144198273D01*
X58588371Y-144159234D01*
X58681347Y-144111861D01*
X58846894Y-143991582D01*
X58846895Y-143991582D01*
X58991582Y-143846895D01*
X58991582Y-143846894D01*
X59111859Y-143681349D01*
X59204755Y-143499029D01*
X59267990Y-143304413D01*
X59276609Y-143250000D01*
X57919504Y-143250000D01*
X57964674Y-143171764D01*
X57995000Y-143058585D01*
X57995000Y-142941415D01*
X57964674Y-142828236D01*
X57919504Y-142750000D01*
X59276609Y-142750000D01*
X59267990Y-142695586D01*
X59204755Y-142500970D01*
X59111859Y-142318650D01*
X58991582Y-142153105D01*
X58991582Y-142153104D01*
X58846895Y-142008417D01*
X58681349Y-141888140D01*
X58499031Y-141795244D01*
X58304417Y-141732009D01*
X58102317Y-141700000D01*
X57800000Y-141700000D01*
X57800000Y-142630495D01*
X57721764Y-142585326D01*
X57608585Y-142555000D01*
X57491415Y-142555000D01*
X57378236Y-142585326D01*
X57300000Y-142630495D01*
X57300000Y-141700000D01*
X56997683Y-141700000D01*
X56795582Y-141732009D01*
X56600968Y-141795244D01*
X56418650Y-141888140D01*
X56253105Y-142008417D01*
X56253104Y-142008417D01*
X56108417Y-142153104D01*
X56108417Y-142153105D01*
X55988140Y-142318650D01*
X55895244Y-142500970D01*
X55832009Y-142695586D01*
X55823391Y-142750000D01*
X57180496Y-142750000D01*
X57135326Y-142828236D01*
X57105000Y-142941415D01*
X57105000Y-143058585D01*
X57135326Y-143171764D01*
X57180496Y-143250000D01*
X55823391Y-143250000D01*
X55832009Y-143304413D01*
X55895244Y-143499029D01*
X55988140Y-143681349D01*
X56108417Y-143846894D01*
X56108417Y-143846895D01*
X56253104Y-143991582D01*
X56418652Y-144111861D01*
X56511628Y-144159234D01*
X56562425Y-144207208D01*
X56579220Y-144275029D01*
X56556683Y-144341164D01*
X56511630Y-144380203D01*
X56418388Y-144427713D01*
X56252786Y-144548028D01*
X56108028Y-144692786D01*
X55987715Y-144858386D01*
X55894781Y-145040776D01*
X55831522Y-145235465D01*
X55799500Y-145437648D01*
X45000500Y-145437648D01*
X45000500Y-137772486D01*
X48469500Y-137772486D01*
X48469500Y-138067513D01*
X48488889Y-138214780D01*
X48508007Y-138359993D01*
X48584361Y-138644951D01*
X48584364Y-138644961D01*
X48697254Y-138917500D01*
X48697258Y-138917510D01*
X48844761Y-139172993D01*
X49024352Y-139407040D01*
X49024358Y-139407047D01*
X49232952Y-139615641D01*
X49232959Y-139615647D01*
X49467006Y-139795238D01*
X49722489Y-139942741D01*
X49722490Y-139942741D01*
X49722493Y-139942743D01*
X49995048Y-140055639D01*
X50280007Y-140131993D01*
X50572494Y-140170500D01*
X50572501Y-140170500D01*
X54367499Y-140170500D01*
X54367506Y-140170500D01*
X54659993Y-140131993D01*
X54944952Y-140055639D01*
X55217507Y-139942743D01*
X55472994Y-139795238D01*
X55707042Y-139615646D01*
X55915646Y-139407042D01*
X55984241Y-139317648D01*
X86699500Y-139317648D01*
X86699500Y-139522351D01*
X86731522Y-139724534D01*
X86794781Y-139919223D01*
X86887715Y-140101613D01*
X87008028Y-140267213D01*
X87152786Y-140411971D01*
X87307749Y-140524556D01*
X87318390Y-140532287D01*
X87434607Y-140591503D01*
X87500776Y-140625218D01*
X87500778Y-140625218D01*
X87500781Y-140625220D01*
X87592573Y-140655045D01*
X87695465Y-140688477D01*
X87796557Y-140704488D01*
X87897648Y-140720500D01*
X87897649Y-140720500D01*
X88102351Y-140720500D01*
X88102352Y-140720500D01*
X88304534Y-140688477D01*
X88499219Y-140625220D01*
X88681610Y-140532287D01*
X88774590Y-140464732D01*
X88847213Y-140411971D01*
X88847215Y-140411968D01*
X88847219Y-140411966D01*
X88991966Y-140267219D01*
X88991968Y-140267215D01*
X88991971Y-140267213D01*
X89062236Y-140170500D01*
X89112287Y-140101610D01*
X89205220Y-139919219D01*
X89268477Y-139724534D01*
X89300500Y-139522352D01*
X89300500Y-139375466D01*
X102600000Y-139375466D01*
X102600000Y-139624533D01*
X102632508Y-139871463D01*
X102696973Y-140112049D01*
X102792283Y-140342148D01*
X102792288Y-140342159D01*
X102916813Y-140557841D01*
X102916819Y-140557849D01*
X102991400Y-140655045D01*
X103784152Y-139862292D01*
X103791049Y-139878942D01*
X103878599Y-140009970D01*
X103990030Y-140121401D01*
X104121058Y-140208951D01*
X104137705Y-140215846D01*
X103344953Y-141008598D01*
X103442150Y-141083180D01*
X103442158Y-141083186D01*
X103657840Y-141207711D01*
X103657851Y-141207716D01*
X103887950Y-141303026D01*
X104128536Y-141367491D01*
X104375466Y-141400000D01*
X104624534Y-141400000D01*
X104871463Y-141367491D01*
X105112049Y-141303026D01*
X105342148Y-141207716D01*
X105342159Y-141207711D01*
X105557855Y-141083178D01*
X105655045Y-141008600D01*
X105655045Y-141008597D01*
X104862294Y-140215846D01*
X104878942Y-140208951D01*
X105009970Y-140121401D01*
X105121401Y-140009970D01*
X105208951Y-139878942D01*
X105215846Y-139862294D01*
X106008597Y-140655045D01*
X106008600Y-140655045D01*
X106083178Y-140557855D01*
X106207711Y-140342159D01*
X106207716Y-140342148D01*
X106303026Y-140112049D01*
X106367491Y-139871463D01*
X106400000Y-139624533D01*
X106400000Y-139375466D01*
X106367491Y-139128536D01*
X106303026Y-138887950D01*
X106207716Y-138657851D01*
X106207711Y-138657840D01*
X106083186Y-138442158D01*
X106083180Y-138442150D01*
X106008598Y-138344953D01*
X105215846Y-139137705D01*
X105208951Y-139121058D01*
X105121401Y-138990030D01*
X105009970Y-138878599D01*
X104878942Y-138791049D01*
X104862292Y-138784152D01*
X105655045Y-137991400D01*
X105557849Y-137916819D01*
X105557841Y-137916813D01*
X105342159Y-137792288D01*
X105342148Y-137792283D01*
X105112049Y-137696973D01*
X104871463Y-137632508D01*
X104624534Y-137600000D01*
X104375466Y-137600000D01*
X104128536Y-137632508D01*
X103887950Y-137696973D01*
X103657851Y-137792283D01*
X103657847Y-137792285D01*
X103442143Y-137916823D01*
X103344953Y-137991399D01*
X103344953Y-137991400D01*
X104137706Y-138784153D01*
X104121058Y-138791049D01*
X103990030Y-138878599D01*
X103878599Y-138990030D01*
X103791049Y-139121058D01*
X103784153Y-139137706D01*
X102991400Y-138344953D01*
X102991399Y-138344953D01*
X102916823Y-138442143D01*
X102792285Y-138657847D01*
X102792283Y-138657851D01*
X102696973Y-138887950D01*
X102632508Y-139128536D01*
X102600000Y-139375466D01*
X89300500Y-139375466D01*
X89300500Y-139317648D01*
X89268477Y-139115466D01*
X89205220Y-138920781D01*
X89205218Y-138920778D01*
X89205218Y-138920776D01*
X89139118Y-138791049D01*
X89112287Y-138738390D01*
X89104556Y-138727749D01*
X88991971Y-138572786D01*
X88847213Y-138428028D01*
X88681613Y-138307715D01*
X88681612Y-138307714D01*
X88681610Y-138307713D01*
X88624653Y-138278691D01*
X88499223Y-138214781D01*
X88322265Y-138157284D01*
X88304534Y-138151522D01*
X88129995Y-138123878D01*
X88102352Y-138119500D01*
X87897648Y-138119500D01*
X87873329Y-138123351D01*
X87695465Y-138151522D01*
X87500776Y-138214781D01*
X87318386Y-138307715D01*
X87152786Y-138428028D01*
X87008028Y-138572786D01*
X86887715Y-138738386D01*
X86794781Y-138920776D01*
X86731522Y-139115465D01*
X86699500Y-139317648D01*
X55984241Y-139317648D01*
X56095238Y-139172994D01*
X56110566Y-139146446D01*
X56200872Y-138990030D01*
X56242743Y-138917507D01*
X56355639Y-138644952D01*
X56431993Y-138359993D01*
X56470500Y-138067506D01*
X56470500Y-137772494D01*
X56431993Y-137480007D01*
X56355639Y-137195048D01*
X56242743Y-136922493D01*
X56095238Y-136667006D01*
X55915646Y-136432958D01*
X55915641Y-136432952D01*
X55707047Y-136224358D01*
X55707040Y-136224352D01*
X55472993Y-136044761D01*
X55217510Y-135897258D01*
X55217500Y-135897254D01*
X54944961Y-135784364D01*
X54944954Y-135784362D01*
X54944952Y-135784361D01*
X54659993Y-135708007D01*
X54611113Y-135701571D01*
X54367513Y-135669500D01*
X54367506Y-135669500D01*
X50572494Y-135669500D01*
X50572486Y-135669500D01*
X50294085Y-135706153D01*
X50280007Y-135708007D01*
X50213151Y-135725921D01*
X49995048Y-135784361D01*
X49995038Y-135784364D01*
X49722499Y-135897254D01*
X49722489Y-135897258D01*
X49467006Y-136044761D01*
X49232959Y-136224352D01*
X49232952Y-136224358D01*
X49024358Y-136432952D01*
X49024352Y-136432959D01*
X48844761Y-136667006D01*
X48697258Y-136922489D01*
X48697254Y-136922499D01*
X48584364Y-137195038D01*
X48584361Y-137195048D01*
X48508008Y-137480004D01*
X48508006Y-137480015D01*
X48469500Y-137772486D01*
X45000500Y-137772486D01*
X45000500Y-134897648D01*
X73949500Y-134897648D01*
X73949500Y-135102351D01*
X73981522Y-135304534D01*
X74044781Y-135499223D01*
X74087248Y-135582567D01*
X74137585Y-135681359D01*
X74137715Y-135681613D01*
X74258028Y-135847213D01*
X74402786Y-135991971D01*
X74523226Y-136079474D01*
X74568390Y-136112287D01*
X74684607Y-136171503D01*
X74750776Y-136205218D01*
X74750778Y-136205218D01*
X74750781Y-136205220D01*
X74809682Y-136224358D01*
X74945465Y-136268477D01*
X75046557Y-136284488D01*
X75147648Y-136300500D01*
X75147649Y-136300500D01*
X75352351Y-136300500D01*
X75352352Y-136300500D01*
X75554534Y-136268477D01*
X75749219Y-136205220D01*
X75931610Y-136112287D01*
X76024590Y-136044732D01*
X76097213Y-135991971D01*
X76097215Y-135991968D01*
X76097219Y-135991966D01*
X76241966Y-135847219D01*
X76241968Y-135847215D01*
X76241971Y-135847213D01*
X76343108Y-135708008D01*
X76362287Y-135681610D01*
X76389795Y-135627621D01*
X76437769Y-135576826D01*
X76505589Y-135560030D01*
X76571725Y-135582567D01*
X76610765Y-135627621D01*
X76638141Y-135681350D01*
X76638147Y-135681359D01*
X76670523Y-135725921D01*
X76670524Y-135725922D01*
X77350000Y-135046446D01*
X77350000Y-135052661D01*
X77377259Y-135154394D01*
X77429920Y-135245606D01*
X77504394Y-135320080D01*
X77595606Y-135372741D01*
X77697339Y-135400000D01*
X77703553Y-135400000D01*
X77024076Y-136079474D01*
X77068650Y-136111859D01*
X77250968Y-136204755D01*
X77445582Y-136267990D01*
X77647683Y-136300000D01*
X77852317Y-136300000D01*
X78054417Y-136267990D01*
X78249031Y-136204755D01*
X78431349Y-136111859D01*
X78475921Y-136079474D01*
X77796447Y-135400000D01*
X77802661Y-135400000D01*
X77904394Y-135372741D01*
X77995606Y-135320080D01*
X78070080Y-135245606D01*
X78122741Y-135154394D01*
X78150000Y-135052661D01*
X78150000Y-135046447D01*
X78829474Y-135725921D01*
X78861859Y-135681349D01*
X78954755Y-135499031D01*
X79017990Y-135304417D01*
X79050000Y-135102317D01*
X79050000Y-134897682D01*
X79017990Y-134695582D01*
X78954755Y-134500968D01*
X78924302Y-134441201D01*
X78898101Y-134389778D01*
X91599500Y-134389778D01*
X91599500Y-134610222D01*
X91605237Y-134646446D01*
X91633985Y-134827952D01*
X91702103Y-135037603D01*
X91702104Y-135037606D01*
X91802187Y-135234025D01*
X91931752Y-135412358D01*
X91931756Y-135412363D01*
X92087636Y-135568243D01*
X92087641Y-135568247D01*
X92243192Y-135681260D01*
X92265978Y-135697815D01*
X92394375Y-135763237D01*
X92462393Y-135797895D01*
X92462396Y-135797896D01*
X92567221Y-135831955D01*
X92672049Y-135866015D01*
X92889778Y-135900500D01*
X92889779Y-135900500D01*
X93110221Y-135900500D01*
X93110222Y-135900500D01*
X93327951Y-135866015D01*
X93537606Y-135797895D01*
X93734022Y-135697815D01*
X93912365Y-135568242D01*
X94068242Y-135412365D01*
X94197815Y-135234022D01*
X94297895Y-135037606D01*
X94366015Y-134827951D01*
X94400500Y-134610222D01*
X94400500Y-134389778D01*
X94366015Y-134172049D01*
X94297895Y-133962394D01*
X94297895Y-133962393D01*
X94259843Y-133887713D01*
X94197815Y-133765978D01*
X94172781Y-133731522D01*
X94068247Y-133587641D01*
X94068243Y-133587636D01*
X93912363Y-133431756D01*
X93912358Y-133431752D01*
X93734025Y-133302187D01*
X93734024Y-133302186D01*
X93734022Y-133302185D01*
X93671096Y-133270122D01*
X93537606Y-133202104D01*
X93537603Y-133202103D01*
X93327952Y-133133985D01*
X93219086Y-133116742D01*
X93110222Y-133099500D01*
X92889778Y-133099500D01*
X92817201Y-133110995D01*
X92672047Y-133133985D01*
X92462396Y-133202103D01*
X92462393Y-133202104D01*
X92265974Y-133302187D01*
X92087641Y-133431752D01*
X92087636Y-133431756D01*
X91931756Y-133587636D01*
X91931752Y-133587641D01*
X91802187Y-133765974D01*
X91702104Y-133962393D01*
X91702103Y-133962396D01*
X91633985Y-134172047D01*
X91610766Y-134318650D01*
X91599500Y-134389778D01*
X78898101Y-134389778D01*
X78861859Y-134318650D01*
X78829474Y-134274077D01*
X78829474Y-134274076D01*
X78150000Y-134953551D01*
X78150000Y-134947339D01*
X78122741Y-134845606D01*
X78070080Y-134754394D01*
X77995606Y-134679920D01*
X77904394Y-134627259D01*
X77802661Y-134600000D01*
X77796446Y-134600000D01*
X78475922Y-133920524D01*
X78475921Y-133920523D01*
X78431359Y-133888147D01*
X78431350Y-133888141D01*
X78249031Y-133795244D01*
X78054417Y-133732009D01*
X77852317Y-133700000D01*
X77647683Y-133700000D01*
X77445582Y-133732009D01*
X77250968Y-133795244D01*
X77068644Y-133888143D01*
X77024077Y-133920523D01*
X77024077Y-133920524D01*
X77703554Y-134600000D01*
X77697339Y-134600000D01*
X77595606Y-134627259D01*
X77504394Y-134679920D01*
X77429920Y-134754394D01*
X77377259Y-134845606D01*
X77350000Y-134947339D01*
X77350000Y-134953553D01*
X76670524Y-134274077D01*
X76670523Y-134274077D01*
X76638143Y-134318644D01*
X76610765Y-134372378D01*
X76562790Y-134423174D01*
X76494969Y-134439969D01*
X76428834Y-134417431D01*
X76389795Y-134372378D01*
X76362284Y-134318385D01*
X76241971Y-134152786D01*
X76097213Y-134008028D01*
X75931613Y-133887715D01*
X75931612Y-133887714D01*
X75931610Y-133887713D01*
X75874653Y-133858691D01*
X75749223Y-133794781D01*
X75554534Y-133731522D01*
X75379995Y-133703878D01*
X75352352Y-133699500D01*
X75147648Y-133699500D01*
X75123329Y-133703351D01*
X74945465Y-133731522D01*
X74750776Y-133794781D01*
X74568386Y-133887715D01*
X74402786Y-134008028D01*
X74258028Y-134152786D01*
X74137715Y-134318386D01*
X74044781Y-134500776D01*
X73981522Y-134695465D01*
X73949500Y-134897648D01*
X45000500Y-134897648D01*
X45000500Y-126359447D01*
X73000000Y-126359447D01*
X73000000Y-127027500D01*
X73845879Y-127027500D01*
X73826901Y-127073318D01*
X73800000Y-127208556D01*
X73800000Y-127346444D01*
X73826901Y-127481682D01*
X73845879Y-127527500D01*
X73000000Y-127527500D01*
X73000000Y-128195552D01*
X73036934Y-128428747D01*
X73109897Y-128653302D01*
X73217085Y-128863671D01*
X73355866Y-129054686D01*
X73522813Y-129221633D01*
X73713828Y-129360414D01*
X73924195Y-129467602D01*
X74148744Y-129540563D01*
X74148750Y-129540565D01*
X74250000Y-129556601D01*
X74250000Y-127931620D01*
X74295818Y-127950599D01*
X74431056Y-127977500D01*
X74568944Y-127977500D01*
X74704182Y-127950599D01*
X74750000Y-127931620D01*
X74750000Y-129556600D01*
X74851249Y-129540565D01*
X74851255Y-129540563D01*
X75075804Y-129467602D01*
X75286171Y-129360414D01*
X75477186Y-129221633D01*
X75644133Y-129054686D01*
X75782914Y-128863671D01*
X75890102Y-128653302D01*
X75963065Y-128428747D01*
X76000000Y-128195552D01*
X76000000Y-127527500D01*
X75154121Y-127527500D01*
X75173099Y-127481682D01*
X75200000Y-127346444D01*
X75200000Y-127208556D01*
X75173099Y-127073318D01*
X75154121Y-127027500D01*
X76000000Y-127027500D01*
X76000000Y-126359447D01*
X75963065Y-126126252D01*
X75890102Y-125901697D01*
X75802939Y-125730629D01*
X75802938Y-125730627D01*
X75782916Y-125691330D01*
X75772855Y-125677483D01*
X77999500Y-125677483D01*
X77999500Y-128877501D01*
X77999501Y-128877518D01*
X78010000Y-128980296D01*
X78010001Y-128980299D01*
X78034651Y-129054686D01*
X78065186Y-129146834D01*
X78157288Y-129296156D01*
X78281344Y-129420212D01*
X78430666Y-129512314D01*
X78597203Y-129567499D01*
X78699991Y-129578000D01*
X80300008Y-129577999D01*
X80402797Y-129567499D01*
X80569334Y-129512314D01*
X80718656Y-129420212D01*
X80842712Y-129296156D01*
X80934814Y-129146834D01*
X80989999Y-128980297D01*
X81000500Y-128877509D01*
X81000499Y-126769778D01*
X94139500Y-126769778D01*
X94139500Y-126990221D01*
X94173985Y-127207952D01*
X94242103Y-127417603D01*
X94242104Y-127417606D01*
X94342187Y-127614025D01*
X94471752Y-127792358D01*
X94471756Y-127792363D01*
X94627636Y-127948243D01*
X94627641Y-127948247D01*
X94667905Y-127977500D01*
X94805978Y-128077815D01*
X94934375Y-128143237D01*
X95002393Y-128177895D01*
X95002396Y-128177896D01*
X95056737Y-128195552D01*
X95212049Y-128246015D01*
X95429778Y-128280500D01*
X95429779Y-128280500D01*
X95650221Y-128280500D01*
X95650222Y-128280500D01*
X95867951Y-128246015D01*
X96077606Y-128177895D01*
X96274022Y-128077815D01*
X96452365Y-127948242D01*
X96608242Y-127792365D01*
X96737815Y-127614022D01*
X96837895Y-127417606D01*
X96906015Y-127207951D01*
X96940500Y-126990222D01*
X96940500Y-126769778D01*
X96906015Y-126552049D01*
X96837895Y-126342394D01*
X96837895Y-126342393D01*
X96803237Y-126274375D01*
X96737815Y-126145978D01*
X96721260Y-126123192D01*
X96608247Y-125967641D01*
X96608243Y-125967636D01*
X96452363Y-125811756D01*
X96452358Y-125811752D01*
X96274025Y-125682187D01*
X96274024Y-125682186D01*
X96274022Y-125682185D01*
X96211096Y-125650122D01*
X96077606Y-125582104D01*
X96077603Y-125582103D01*
X95867952Y-125513985D01*
X95759086Y-125496742D01*
X95650222Y-125479500D01*
X95429778Y-125479500D01*
X95357201Y-125490995D01*
X95212047Y-125513985D01*
X95002396Y-125582103D01*
X95002393Y-125582104D01*
X94805974Y-125682187D01*
X94627641Y-125811752D01*
X94627636Y-125811756D01*
X94471756Y-125967636D01*
X94471752Y-125967641D01*
X94342187Y-126145974D01*
X94242104Y-126342393D01*
X94242103Y-126342396D01*
X94173985Y-126552047D01*
X94139500Y-126769778D01*
X81000499Y-126769778D01*
X81000499Y-125677492D01*
X80989999Y-125574703D01*
X80934814Y-125408166D01*
X80842712Y-125258844D01*
X80718656Y-125134788D01*
X80594368Y-125058127D01*
X80569336Y-125042687D01*
X80569331Y-125042685D01*
X80567862Y-125042198D01*
X80402797Y-124987501D01*
X80402795Y-124987500D01*
X80300010Y-124977000D01*
X78699998Y-124977000D01*
X78699981Y-124977001D01*
X78597203Y-124987500D01*
X78597200Y-124987501D01*
X78430668Y-125042685D01*
X78430663Y-125042687D01*
X78281342Y-125134789D01*
X78157289Y-125258842D01*
X78065187Y-125408163D01*
X78065185Y-125408168D01*
X78057308Y-125431939D01*
X78010001Y-125574703D01*
X78010001Y-125574704D01*
X78010000Y-125574704D01*
X77999500Y-125677483D01*
X75772855Y-125677483D01*
X75644133Y-125500313D01*
X75477186Y-125333366D01*
X75286171Y-125194585D01*
X75075802Y-125087397D01*
X74851247Y-125014434D01*
X74750000Y-124998397D01*
X74750000Y-126623379D01*
X74704182Y-126604401D01*
X74568944Y-126577500D01*
X74431056Y-126577500D01*
X74295818Y-126604401D01*
X74250000Y-126623379D01*
X74250000Y-124998397D01*
X74148752Y-125014434D01*
X73924197Y-125087397D01*
X73713828Y-125194585D01*
X73522813Y-125333366D01*
X73355866Y-125500313D01*
X73217085Y-125691328D01*
X73109897Y-125901697D01*
X73036934Y-126126252D01*
X73000000Y-126359447D01*
X45000500Y-126359447D01*
X45000500Y-123875441D01*
X102599500Y-123875441D01*
X102599500Y-124124558D01*
X102599501Y-124124575D01*
X102632017Y-124371561D01*
X102696498Y-124612207D01*
X102791830Y-124842361D01*
X102791837Y-124842376D01*
X102916400Y-125058126D01*
X103068060Y-125255774D01*
X103068066Y-125255781D01*
X103244218Y-125431933D01*
X103244225Y-125431939D01*
X103441873Y-125583599D01*
X103657623Y-125708162D01*
X103657638Y-125708169D01*
X103711857Y-125730627D01*
X103887793Y-125803502D01*
X104128435Y-125867982D01*
X104375435Y-125900500D01*
X104375442Y-125900500D01*
X104624558Y-125900500D01*
X104624565Y-125900500D01*
X104871565Y-125867982D01*
X105112207Y-125803502D01*
X105342373Y-125708164D01*
X105558127Y-125583599D01*
X105755776Y-125431938D01*
X105931938Y-125255776D01*
X106083599Y-125058127D01*
X106208164Y-124842373D01*
X106303502Y-124612207D01*
X106367982Y-124371565D01*
X106400500Y-124124565D01*
X106400500Y-123875435D01*
X106367982Y-123628435D01*
X106303502Y-123387793D01*
X106225923Y-123200500D01*
X106208169Y-123157638D01*
X106208162Y-123157623D01*
X106083599Y-122941873D01*
X105931939Y-122744225D01*
X105931933Y-122744218D01*
X105755781Y-122568066D01*
X105755774Y-122568060D01*
X105558126Y-122416400D01*
X105342376Y-122291837D01*
X105342361Y-122291830D01*
X105112207Y-122196498D01*
X104871561Y-122132017D01*
X104624575Y-122099501D01*
X104624570Y-122099500D01*
X104624565Y-122099500D01*
X104375435Y-122099500D01*
X104375429Y-122099500D01*
X104375424Y-122099501D01*
X104128438Y-122132017D01*
X103887792Y-122196498D01*
X103657638Y-122291830D01*
X103657623Y-122291837D01*
X103441873Y-122416400D01*
X103244225Y-122568060D01*
X103244218Y-122568066D01*
X103068066Y-122744218D01*
X103068060Y-122744225D01*
X102916400Y-122941873D01*
X102791837Y-123157623D01*
X102791830Y-123157638D01*
X102696498Y-123387792D01*
X102632017Y-123628438D01*
X102599501Y-123875424D01*
X102599500Y-123875441D01*
X45000500Y-123875441D01*
X45000500Y-121689778D01*
X91599500Y-121689778D01*
X91599500Y-121910221D01*
X91633985Y-122127952D01*
X91702103Y-122337603D01*
X91702104Y-122337606D01*
X91802187Y-122534025D01*
X91931752Y-122712358D01*
X91931756Y-122712363D01*
X92087636Y-122868243D01*
X92087641Y-122868247D01*
X92188980Y-122941873D01*
X92265978Y-122997815D01*
X92394375Y-123063237D01*
X92462393Y-123097895D01*
X92462396Y-123097896D01*
X92567221Y-123131955D01*
X92672049Y-123166015D01*
X92889778Y-123200500D01*
X92889779Y-123200500D01*
X93110221Y-123200500D01*
X93110222Y-123200500D01*
X93327951Y-123166015D01*
X93537606Y-123097895D01*
X93734022Y-122997815D01*
X93912365Y-122868242D01*
X94068242Y-122712365D01*
X94197815Y-122534022D01*
X94297895Y-122337606D01*
X94366015Y-122127951D01*
X94400500Y-121910222D01*
X94400500Y-121689778D01*
X94366015Y-121472049D01*
X94297895Y-121262394D01*
X94297895Y-121262393D01*
X94263237Y-121194375D01*
X94197815Y-121065978D01*
X94181260Y-121043192D01*
X94068247Y-120887641D01*
X94068243Y-120887636D01*
X93912363Y-120731756D01*
X93912358Y-120731752D01*
X93734025Y-120602187D01*
X93734024Y-120602186D01*
X93734022Y-120602185D01*
X93671096Y-120570122D01*
X93537606Y-120502104D01*
X93537603Y-120502103D01*
X93327952Y-120433985D01*
X93219086Y-120416742D01*
X93110222Y-120399500D01*
X92889778Y-120399500D01*
X92817201Y-120410995D01*
X92672047Y-120433985D01*
X92462396Y-120502103D01*
X92462393Y-120502104D01*
X92265974Y-120602187D01*
X92087641Y-120731752D01*
X92087636Y-120731756D01*
X91931756Y-120887636D01*
X91931752Y-120887641D01*
X91802187Y-121065974D01*
X91702104Y-121262393D01*
X91702103Y-121262396D01*
X91633985Y-121472047D01*
X91599500Y-121689778D01*
X45000500Y-121689778D01*
X45000500Y-112859568D01*
X45999500Y-112859568D01*
X45999500Y-113140431D01*
X46030942Y-113419494D01*
X46030945Y-113419512D01*
X46093439Y-113693317D01*
X46093443Y-113693329D01*
X46186200Y-113958411D01*
X46308053Y-114211442D01*
X46308055Y-114211445D01*
X46457477Y-114449248D01*
X46632584Y-114668825D01*
X46831175Y-114867416D01*
X47050752Y-115042523D01*
X47288555Y-115191945D01*
X47541592Y-115313801D01*
X47740680Y-115383465D01*
X47806670Y-115406556D01*
X47806682Y-115406560D01*
X48080491Y-115469055D01*
X48080497Y-115469055D01*
X48080505Y-115469057D01*
X48266547Y-115490018D01*
X48359569Y-115500499D01*
X48359572Y-115500500D01*
X48359575Y-115500500D01*
X48640428Y-115500500D01*
X48640429Y-115500499D01*
X48783055Y-115484429D01*
X48919494Y-115469057D01*
X48919499Y-115469056D01*
X48919509Y-115469055D01*
X49193318Y-115406560D01*
X49458408Y-115313801D01*
X49711445Y-115191945D01*
X49949248Y-115042523D01*
X50168825Y-114867416D01*
X50367416Y-114668825D01*
X50542523Y-114449248D01*
X50691945Y-114211445D01*
X50813801Y-113958408D01*
X50906560Y-113693318D01*
X50969055Y-113419509D01*
X51000500Y-113140425D01*
X51000500Y-112859575D01*
X51000499Y-112859568D01*
X114999500Y-112859568D01*
X114999500Y-113140431D01*
X115030942Y-113419494D01*
X115030945Y-113419512D01*
X115093439Y-113693317D01*
X115093443Y-113693329D01*
X115186200Y-113958411D01*
X115308053Y-114211442D01*
X115308055Y-114211445D01*
X115457477Y-114449248D01*
X115632584Y-114668825D01*
X115831175Y-114867416D01*
X116050752Y-115042523D01*
X116288555Y-115191945D01*
X116541592Y-115313801D01*
X116740680Y-115383465D01*
X116806670Y-115406556D01*
X116806682Y-115406560D01*
X117080491Y-115469055D01*
X117080497Y-115469055D01*
X117080505Y-115469057D01*
X117266547Y-115490018D01*
X117359569Y-115500499D01*
X117359572Y-115500500D01*
X117359575Y-115500500D01*
X117640428Y-115500500D01*
X117640429Y-115500499D01*
X117783055Y-115484429D01*
X117919494Y-115469057D01*
X117919499Y-115469056D01*
X117919509Y-115469055D01*
X118193318Y-115406560D01*
X118458408Y-115313801D01*
X118711445Y-115191945D01*
X118949248Y-115042523D01*
X119168825Y-114867416D01*
X119367416Y-114668825D01*
X119542523Y-114449248D01*
X119691945Y-114211445D01*
X119813801Y-113958408D01*
X119906560Y-113693318D01*
X119969055Y-113419509D01*
X120000500Y-113140425D01*
X120000500Y-112859575D01*
X119969055Y-112580491D01*
X119906560Y-112306682D01*
X119813801Y-112041592D01*
X119691945Y-111788555D01*
X119542523Y-111550752D01*
X119367416Y-111331175D01*
X119168825Y-111132584D01*
X118949248Y-110957477D01*
X118711445Y-110808055D01*
X118711442Y-110808053D01*
X118458411Y-110686200D01*
X118193329Y-110593443D01*
X118193317Y-110593439D01*
X117919512Y-110530945D01*
X117919494Y-110530942D01*
X117640431Y-110499500D01*
X117640425Y-110499500D01*
X117359575Y-110499500D01*
X117359568Y-110499500D01*
X117080505Y-110530942D01*
X117080487Y-110530945D01*
X116806682Y-110593439D01*
X116806670Y-110593443D01*
X116541588Y-110686200D01*
X116288557Y-110808053D01*
X116050753Y-110957476D01*
X115831175Y-111132583D01*
X115632583Y-111331175D01*
X115457476Y-111550753D01*
X115308053Y-111788557D01*
X115186200Y-112041588D01*
X115093443Y-112306670D01*
X115093439Y-112306682D01*
X115030945Y-112580487D01*
X115030942Y-112580505D01*
X114999500Y-112859568D01*
X51000499Y-112859568D01*
X50969055Y-112580491D01*
X50906560Y-112306682D01*
X50813801Y-112041592D01*
X50691945Y-111788555D01*
X50542523Y-111550752D01*
X50367416Y-111331175D01*
X50168825Y-111132584D01*
X49949248Y-110957477D01*
X49711445Y-110808055D01*
X49711442Y-110808053D01*
X49458411Y-110686200D01*
X49193329Y-110593443D01*
X49193317Y-110593439D01*
X48919512Y-110530945D01*
X48919494Y-110530942D01*
X48640431Y-110499500D01*
X48640425Y-110499500D01*
X48359575Y-110499500D01*
X48359568Y-110499500D01*
X48080505Y-110530942D01*
X48080487Y-110530945D01*
X47806682Y-110593439D01*
X47806670Y-110593443D01*
X47541588Y-110686200D01*
X47288557Y-110808053D01*
X47050753Y-110957476D01*
X46831175Y-111132583D01*
X46632583Y-111331175D01*
X46457476Y-111550753D01*
X46308053Y-111788557D01*
X46186200Y-112041588D01*
X46093443Y-112306670D01*
X46093439Y-112306682D01*
X46030945Y-112580487D01*
X46030942Y-112580505D01*
X45999500Y-112859568D01*
X45000500Y-112859568D01*
X45000500Y-110124500D01*
X45020185Y-110057461D01*
X45072989Y-110011706D01*
X45124500Y-110000500D01*
X120875500Y-110000500D01*
X120942539Y-110020185D01*
G37*
%TD.AperFunction*%
%TD*%
M02*
