%TF.GenerationSoftware,KiCad,Pcbnew,10.0.6*%
%TF.CreationDate,2026-09-24T08:21:34-05:00*%
%TF.ProjectId,Lab4,4c616234-2e6b-4696-9361-645f70636258,rev?*%
%TF.SameCoordinates,Original*%
%TF.FileFunction,Copper,L1,Top*%
%TF.FilePolarity,Positive*%
%FSLAX46Y46*%
G04 Gerber Fmt 4.6, Leading zero omitted, Abs format (unit mm)*
G04 Created by KiCad (PCBNEW 10.0.6) date 2026-09-24 08:21:34*
%MOMM*%
%LPD*%
G01*
G04 APERTURE LIST*
G04 Aperture macros list*
%AMRoundRect*
0 Rectangle with rounded corners*
0 $1 Rounding radius*
0 $2 $3 $4 $5 $6 $7 $8 $9 X,Y pos of 4 corners*
0 Add a 4 corners polygon primitive as box body*
4,1,4,$2,$3,$4,$5,$6,$7,$8,$9,$2,$3,0*
0 Add four circle primitives for the rounded corners*
1,1,$1+$1,$2,$3*
1,1,$1+$1,$4,$5*
1,1,$1+$1,$6,$7*
1,1,$1+$1,$8,$9*
0 Add four rect primitives between the rounded corners*
20,1,$1+$1,$2,$3,$4,$5,0*
20,1,$1+$1,$4,$5,$6,$7,0*
20,1,$1+$1,$6,$7,$8,$9,0*
20,1,$1+$1,$8,$9,$2,$3,0*%
G04 Aperture macros list end*
%TA.AperFunction,ComponentPad*%
%ADD10C,1.800000*%
%TD*%
%TA.AperFunction,ComponentPad*%
%ADD11C,1.600000*%
%TD*%
%TA.AperFunction,ComponentPad*%
%ADD12C,2.800000*%
%TD*%
%TA.AperFunction,ComponentPad*%
%ADD13O,2.500000X1.600000*%
%TD*%
%TA.AperFunction,ComponentPad*%
%ADD14O,7.000000X3.500000*%
%TD*%
%TA.AperFunction,ComponentPad*%
%ADD15RoundRect,0.250000X0.750000X1.550000X-0.750000X1.550000X-0.750000X-1.550000X0.750000X-1.550000X0*%
%TD*%
%TA.AperFunction,ComponentPad*%
%ADD16O,2.000000X3.600000*%
%TD*%
%TA.AperFunction,SMDPad,CuDef*%
%ADD17RoundRect,0.150000X0.150000X-0.825000X0.150000X0.825000X-0.150000X0.825000X-0.150000X-0.825000X0*%
%TD*%
%TA.AperFunction,ViaPad*%
%ADD18C,4.000000*%
%TD*%
%TA.AperFunction,Conductor*%
%ADD19C,0.700000*%
%TD*%
G04 APERTURE END LIST*
D10*
%TO.P,Rs2,1,1_1*%
%TO.N,/V-*%
X93000000Y-134500000D03*
%TO.P,Rs2,2,2_2*%
%TO.N,/SIG_IN*%
X95540000Y-126880000D03*
%TO.P,Rs2,3,3_3*%
%TO.N,unconnected-(Rs2-Pad3)*%
X93000000Y-121800000D03*
%TD*%
D11*
%TO.P,Rs1,1*%
%TO.N,/SIG_IN*%
X70920000Y-151000000D03*
%TO.P,Rs1,2*%
%TO.N,/V-*%
X81080000Y-151000000D03*
%TD*%
D12*
%TO.P,GND_TP1,1,1_1*%
%TO.N,/GND*%
X104500000Y-139500000D03*
%TD*%
D11*
%TO.P,Rf1,1*%
%TO.N,/V-*%
X88000000Y-149580000D03*
%TO.P,Rf1,2*%
%TO.N,/Vout*%
X88000000Y-139420000D03*
%TD*%
D12*
%TO.P,GND_TP2,1,1_1*%
%TO.N,/GND*%
X91500000Y-160500000D03*
%TD*%
%TO.P,SIG_IN_TP1,1,1_1*%
%TO.N,/SIG_IN*%
X71000000Y-161000000D03*
%TD*%
D13*
%TO.P,J1,1,In_1*%
%TO.N,/GND*%
X57550000Y-143000000D03*
D14*
%TO.P,J1,2,Ext_2*%
%TO.N,/SIG_IN*%
X52470000Y-148080000D03*
D13*
X57550000Y-145540000D03*
D14*
X52470000Y-137920000D03*
%TD*%
D12*
%TO.P,V-_TP1,1,1_1*%
%TO.N,/V-*%
X104500000Y-149500000D03*
%TD*%
D15*
%TO.P,J2,1,Pin_1_1*%
%TO.N,/VDD*%
X79500000Y-127277500D03*
D16*
%TO.P,J2,2,Pin_2_2*%
%TO.N,/GND*%
X74500000Y-127277500D03*
%TD*%
D17*
%TO.P,U1,1*%
%TO.N,/Vout*%
X74595000Y-144975000D03*
%TO.P,U1,2,-_2*%
%TO.N,/V-*%
X75865000Y-144975000D03*
%TO.P,U1,3,+_3*%
%TO.N,/GND*%
X77135000Y-144975000D03*
%TO.P,U1,4,V-_4*%
X78405000Y-144975000D03*
%TO.P,U1,5,+_5*%
X78405000Y-140025000D03*
%TO.P,U1,6,-_6*%
%TO.N,/VDD*%
X77135000Y-140025000D03*
%TO.P,U1,7*%
%TO.N,unconnected-(U1-Pad7)*%
X75865000Y-140025000D03*
%TO.P,U1,8,V+_8*%
%TO.N,/VDD*%
X74595000Y-140025000D03*
%TD*%
D12*
%TO.P,VDD_TP1,1,1_1*%
%TO.N,/VDD*%
X104500000Y-124000000D03*
%TD*%
D11*
%TO.P,C1,1*%
%TO.N,/VDD*%
X75250000Y-135000000D03*
%TO.P,C1,2*%
%TO.N,/GND*%
X77750000Y-135000000D03*
%TD*%
D12*
%TO.P,Vout_TP1,1,1_1*%
%TO.N,/Vout*%
X81000000Y-160500000D03*
%TD*%
D18*
%TO.N,*%
X117500000Y-113000000D03*
X117500000Y-167000000D03*
X48500000Y-167000000D03*
X48500000Y-113000000D03*
%TD*%
%TO.N,/SIG_IN*%
D19*
X52470000Y-137920000D02*
X52470000Y-148080000D01*
X52470000Y-148080000D02*
X60270812Y-148080000D01*
X60270812Y-148080000D02*
X55750000Y-143559188D01*
X61690812Y-149500000D02*
X60270812Y-148080000D01*
X55750000Y-142440812D02*
X57000000Y-141190812D01*
X91160000Y-122500000D02*
X95540000Y-126880000D01*
X57000000Y-141190812D02*
X57000000Y-122500000D01*
X55750000Y-143559188D02*
X55750000Y-142440812D01*
X66500000Y-149500000D02*
X61690812Y-149500000D01*
X57000000Y-122500000D02*
X91160000Y-122500000D01*
X68000000Y-151000000D02*
X66500000Y-149500000D01*
X70920000Y-151000000D02*
X68000000Y-151000000D01*
%TO.N,/V-*%
X104500000Y-149500000D02*
X103500000Y-149500000D01*
X86580000Y-151000000D02*
X88000000Y-149580000D01*
X103500000Y-149500000D02*
X93000000Y-139000000D01*
X81080000Y-151000000D02*
X75865000Y-145785000D01*
X81080000Y-151000000D02*
X93000000Y-139080000D01*
X75865000Y-145785000D02*
X75865000Y-144975000D01*
X93000000Y-139000000D02*
X93000000Y-134500000D01*
X81080000Y-151000000D02*
X86580000Y-151000000D01*
X93000000Y-139080000D02*
X93000000Y-139000000D01*
%TO.N,/SIG_IN*%
X70920000Y-160920000D02*
X71000000Y-161000000D01*
X70920000Y-151000000D02*
X70920000Y-160920000D01*
%TO.N,/GND*%
X91000000Y-139500000D02*
X86500000Y-135000000D01*
X77135000Y-144975000D02*
X78405000Y-144975000D01*
X77750000Y-135000000D02*
X78405000Y-135655000D01*
X85500000Y-145000000D02*
X91000000Y-139500000D01*
X84975000Y-144975000D02*
X85000000Y-145000000D01*
X85000000Y-145000000D02*
X85500000Y-145000000D01*
X78405000Y-144975000D02*
X84975000Y-144975000D01*
X86500000Y-135000000D02*
X77750000Y-135000000D01*
X78405000Y-135655000D02*
X78405000Y-140025000D01*
%TO.N,/Vout*%
X84020000Y-143400000D02*
X88000000Y-139420000D01*
X84000000Y-157500000D02*
X84000000Y-156500000D01*
X84000000Y-156500000D02*
X74595000Y-147095000D01*
X74595000Y-144000001D02*
X75195001Y-143400000D01*
X75195001Y-143400000D02*
X84020000Y-143400000D01*
X74595000Y-144975000D02*
X74595000Y-144000001D01*
X74595000Y-147095000D02*
X74595000Y-144975000D01*
X81000000Y-160500000D02*
X84000000Y-157500000D01*
%TO.N,/VDD*%
X79500000Y-127277500D02*
X80500000Y-128277500D01*
X75250000Y-135000000D02*
X75250000Y-135250000D01*
X104500000Y-124000000D02*
X97750000Y-130750000D01*
X97750000Y-130750000D02*
X79500000Y-130750000D01*
X77135000Y-136885000D02*
X75250000Y-135000000D01*
X74595000Y-140025000D02*
X74595000Y-135655000D01*
X79500000Y-130750000D02*
X75250000Y-135000000D01*
X77135000Y-140025000D02*
X77135000Y-136885000D01*
X79500000Y-127277500D02*
X79500000Y-130750000D01*
X74595000Y-135655000D02*
X75250000Y-135000000D01*
%TD*%
M02*
